<svg width="339" height="440" viewBox="0 0 339 440" fill="none" xmlns="http://www.w3.org/2000/svg">
<path d="M70.3764 23.4662C101.126 21.3162 126.916 14.5062 136.016 6.90625C137.666 9.34625 138.896 12.1163 139.636 15.2663C141.126 26.7262 144.086 39.1063 138.826 50.2363C138.016 51.9463 137.526 53.7962 137.546 55.6963C138.166 108.386 141.086 201.506 193.666 239.736C221.696 261.756 235.946 280.056 243.326 286.286C251.036 292.786 280.466 315.026 292.316 321.006C386.106 368.376 312.826 440.826 242.736 438.676C123.946 435.596 147.876 356.526 85.9564 337.446C85.6464 337.346 85.3264 337.276 85.0064 337.236C45.7464 331.796 8.60645 330.556 5.97644 280.806C5.92645 268.186 7.62643 255.666 12.5864 244.256C28.7964 206.996 19.1564 110.226 13.8464 71.7263C13.4764 69.5463 13.1165 67.1963 11.3564 65.8862C-0.243561 54.7463 0.336456 36.3162 1.14645 21.2362C1.48645 19.3363 1.97644 17.5763 2.56644 15.9263C12.2764 22.3763 39.1064 25.6562 70.3464 23.4662H70.3764Z" fill="#FAF9F6"/>
<path fill-rule="evenodd" clip-rule="evenodd" d="M136.12 6.17188L135.696 6.52659C131.237 10.2505 122.608 13.8314 111.191 16.7497C99.8004 19.6612 85.7021 21.8966 70.3587 22.9704H70.3287L70.3112 22.9716C54.7165 24.0648 40.2301 23.792 28.4393 22.4436C16.6224 21.0922 7.59161 18.6683 2.84286 15.5139L2.31058 15.1603L2.09543 15.762C1.49692 17.4358 0.999359 19.2226 0.654053 21.1523L0.648621 21.1827L0.646973 21.2135C0.242126 28.7504 -0.109283 37.1759 1.10321 45.1183C2.31644 53.0655 5.1022 60.5776 11.0099 66.251L11.0325 66.2727L11.0577 66.2914C11.8301 66.8664 12.3136 67.681 12.6502 68.6484C12.9752 69.5821 13.1505 70.6172 13.329 71.6706L13.3509 71.7987C13.3513 71.8013 13.3517 71.804 13.352 71.8066C16.0054 91.0464 19.7398 124.841 20.7865 158.476C21.3098 175.296 21.1608 192.067 19.8703 206.954C18.5789 221.851 16.1476 234.821 12.1277 244.061C7.13135 255.555 5.42606 268.149 5.47623 280.812L5.47629 280.825L5.47693 280.837C6.13766 293.335 8.96817 302.828 13.4884 310.114C18.0109 317.404 24.204 322.451 31.5327 326.089C38.854 329.724 47.3118 331.954 56.3746 333.616C62.9423 334.821 69.8512 335.73 76.8885 336.657C79.5569 337.008 82.2438 337.362 84.9376 337.736L84.9442 337.736C85.2339 337.773 85.5232 337.836 85.8027 337.926L85.809 337.928C101.172 342.662 111.209 351.112 119.484 361.201C123.626 366.251 127.326 371.71 131.034 377.328C131.598 378.182 132.163 379.04 132.729 379.901C135.881 384.695 139.089 389.574 142.617 394.362C150.948 405.667 161.081 416.498 176.599 424.689C192.112 432.878 212.969 438.408 242.721 439.18C277.909 440.259 313.932 422.624 329.401 398.687C337.149 386.698 339.753 373.1 334.459 359.501C329.174 345.923 316.049 332.437 292.542 320.564C286.658 317.595 276.37 310.565 266.563 303.441C256.764 296.324 247.49 289.147 243.649 285.908C241.827 284.371 239.571 282.078 236.756 279.139C236.065 278.418 235.342 277.658 234.583 276.863C232.259 274.424 229.61 271.644 226.596 268.586C218.597 260.469 208.011 250.374 193.975 239.347L193.968 239.341L193.96 239.336C167.821 220.33 153.982 187.643 146.61 153.039C139.242 118.447 138.356 82.0389 138.046 55.6945C138.027 53.8846 138.494 52.1097 139.278 50.4544C141.956 44.7887 142.533 38.8204 142.262 32.8564C142.069 28.5973 141.439 24.3045 140.826 20.1197C140.583 18.4619 140.342 16.821 140.132 15.2059L140.129 15.1807L140.123 15.156C139.369 11.9479 138.115 9.1216 136.43 6.63026L136.12 6.17188ZM135.903 7.64626C137.363 9.91649 138.463 12.4733 139.144 15.3603C139.357 17.002 139.6 18.6552 139.843 20.316C140.454 24.4817 141.072 28.696 141.263 32.9018C141.53 38.7751 140.957 44.5621 138.374 50.0263C137.539 51.7908 137.025 53.7157 137.046 55.7056C137.356 82.0512 138.241 118.549 145.632 153.247C153.02 187.93 166.929 220.914 193.365 240.139C207.355 251.13 217.907 261.193 225.884 269.288C228.891 272.339 231.531 275.109 233.854 277.547C234.614 278.344 235.34 279.106 236.034 279.831C238.843 282.764 241.135 285.095 243.004 286.672C246.872 289.934 256.169 297.127 265.975 304.25C275.772 311.366 286.124 318.446 292.091 321.457C315.479 333.269 328.365 346.603 333.527 359.864C338.682 373.106 336.171 386.368 328.561 398.144C313.315 421.737 277.654 439.251 242.752 438.181L242.749 438.181C213.107 437.412 192.41 431.904 177.066 423.805C161.725 415.707 151.699 405.001 143.422 393.769C139.912 389.004 136.72 384.151 133.567 379.357C133.001 378.495 132.435 377.635 131.869 376.777C128.159 371.158 124.435 365.66 120.257 360.567C111.892 350.368 101.701 341.779 86.1061 336.973C85.7682 336.865 85.4205 336.788 85.073 336.745C85.0714 336.745 85.0698 336.744 85.0682 336.744L85.0062 337.24L85.0748 336.745C85.0742 336.745 85.0736 336.745 85.073 336.745C82.3638 336.369 79.6679 336.014 76.9948 335.662C69.9669 334.737 63.0961 333.832 56.555 332.632C47.53 330.977 39.1772 328.768 31.9773 325.194C24.7847 321.623 18.7459 316.692 14.3381 309.587C9.9295 302.481 7.13165 293.166 6.47617 280.796C6.47617 280.8 6.47623 280.804 6.47623 280.808L5.97623 280.81L6.47552 280.784C6.47574 280.788 6.47595 280.792 6.47617 280.796C6.42746 268.224 8.12274 255.782 13.0447 244.46C17.1298 235.07 19.5723 221.971 20.8665 207.041C22.1616 192.101 22.3101 175.287 21.786 158.445C20.7378 124.76 16.9981 90.9236 14.3415 71.662L14.3405 71.6543L14.3392 71.6467L14.3105 71.4774C14.1362 70.4469 13.9481 69.3354 13.5947 68.3198C13.2222 67.2492 12.6524 66.2421 11.6807 65.5087C11.688 65.5157 11.6953 65.5227 11.7026 65.5297L11.3562 65.8904L11.6548 65.4893C11.6635 65.4957 11.6721 65.5022 11.6807 65.5087C6.00327 60.0445 3.28448 52.7802 2.09177 44.9674C0.898407 37.1505 1.23941 28.8332 1.64383 21.2983C1.64203 21.3083 1.64023 21.3184 1.63843 21.3284L1.14624 21.2403L1.64551 21.2672C1.64496 21.2775 1.64438 21.2879 1.64383 21.2983C1.93768 19.6651 2.34418 18.1366 2.83078 16.6926C2.64511 16.5784 2.46469 16.4631 2.28958 16.3468L2.56622 15.9304L3.03702 16.0987C2.9668 16.2951 2.89801 16.493 2.83078 16.6926C7.90625 19.8134 16.9077 22.1313 28.3257 23.4371C40.1829 24.7932 54.7252 25.0657 70.3637 23.9704H70.3462V23.4704L70.3812 23.9691C70.3795 23.9692 70.3779 23.9694 70.3762 23.9695C70.372 23.9698 70.3679 23.9701 70.3637 23.9704H70.3937L70.4111 23.9691C85.811 22.8924 99.9763 20.6484 111.439 17.7185C122.532 14.8831 131.158 11.3895 135.903 7.64626Z" fill="black"/>
<path d="M70.3882 24.1381C101.138 21.9881 126.928 15.1781 136.028 7.57812C137.678 10.0181 138.908 12.7881 139.648 15.9381C141.138 27.3981 144.098 39.7781 138.838 50.9081C138.028 52.6181 137.538 54.4681 137.558 56.3681C138.178 109.058 141.098 202.178 193.678 240.408C221.708 262.428 235.958 280.728 243.338 286.958C251.048 293.458 280.478 315.698 292.328 321.678C386.118 369.048 312.838 441.498 242.748 439.348C123.958 436.268 147.888 357.198 85.9682 338.118C85.6582 338.018 85.3382 337.948 85.0181 337.908C45.7581 332.468 8.61816 331.228 5.98816 281.478C5.93817 268.858 7.63815 256.338 12.5981 244.928C28.8081 207.668 19.1682 110.898 13.8582 72.3981C13.4882 70.2181 13.1281 67.8681 11.3681 66.5581C-0.231873 55.4181 0.348145 36.9881 1.15814 21.9081C1.49814 20.0081 1.98816 18.2481 2.57816 16.5981C12.2881 23.0481 39.1182 26.3281 70.3582 24.1381H70.3882Z" fill="#FAF9F6"/>
<path fill-rule="evenodd" clip-rule="evenodd" d="M136.132 6.84375L135.707 7.19846C131.249 10.9223 122.62 14.5032 111.203 17.4215C99.8121 20.3331 85.7138 22.5685 70.3705 23.6422H70.3404L70.323 23.6434C54.7282 24.7367 40.2419 24.4639 28.451 23.1155C16.6342 21.764 7.60333 19.3401 2.85458 16.1857L2.3223 15.8322L2.10715 16.4339C1.50864 18.1077 1.01105 19.8945 0.665741 21.8242L0.660309 21.8546L0.658661 21.8854C0.253815 29.4222 -0.0975952 37.8478 1.1149 45.7902C2.32812 53.7373 5.11389 61.2494 11.0216 66.9229L11.0442 66.9446L11.0694 66.9633C11.8418 67.5383 12.3253 68.3528 12.662 69.3203C12.9869 70.254 13.1622 71.289 13.3407 72.3424L13.3626 72.4705C13.363 72.4732 13.3634 72.4759 13.3637 72.4785C16.0171 91.7184 19.7516 125.513 20.7982 159.148C21.3216 175.968 21.1725 192.739 19.882 207.626C18.5906 222.523 16.1593 235.493 12.1394 244.733C7.14307 256.226 5.43777 268.821 5.48795 281.484L5.48801 281.496L5.48865 281.509C6.14938 294.007 8.97989 303.5 13.5001 310.786C18.0226 318.076 24.2157 323.123 31.5444 326.761C38.8657 330.396 47.3235 332.626 56.3863 334.288C62.954 335.492 69.8629 336.402 76.9002 337.329C79.5686 337.68 82.2556 338.034 84.9493 338.408L84.9559 338.408C85.2457 338.445 85.535 338.508 85.8144 338.598L85.8207 338.6C101.184 343.334 111.221 351.784 119.496 361.873C123.638 366.923 127.337 372.382 131.046 378C131.61 378.854 132.174 379.713 132.741 380.573C135.893 385.367 139.101 390.246 142.629 395.034C150.959 406.339 161.093 417.17 176.611 425.361C192.124 433.55 212.981 439.08 242.733 439.852C277.92 440.931 313.944 423.296 329.413 399.359C337.161 387.369 339.764 373.772 334.471 360.173C329.185 346.595 316.06 333.108 292.553 321.236C286.67 318.267 276.382 311.236 266.574 304.113C256.776 296.996 247.502 289.819 243.66 286.58C241.839 285.043 239.583 282.75 236.768 279.811C236.077 279.09 235.353 278.33 234.595 277.534C232.27 275.095 229.622 272.316 226.608 269.258C218.609 261.141 208.023 251.046 193.987 240.019L193.979 240.013L193.972 240.008C167.832 221.002 153.993 188.315 146.622 153.711C139.253 119.119 138.368 82.7108 138.058 56.3663C138.039 54.5565 138.506 52.7816 139.29 51.1263C141.967 45.4606 142.544 39.4923 142.274 33.5283C142.08 29.2692 141.451 24.9764 140.837 20.7915C140.594 19.1337 140.354 17.4929 140.144 15.8778L140.14 15.8526L140.135 15.8279C139.381 12.6198 138.127 9.79347 136.442 7.30214L136.132 6.84375ZM135.914 8.31814C137.375 10.5884 138.474 13.1452 139.155 16.0321C139.369 17.6739 139.612 19.327 139.855 20.9879C140.466 25.1536 141.084 29.3679 141.275 33.5737C141.541 39.447 140.968 45.234 138.386 50.6982C137.55 52.4627 137.037 54.3876 137.058 56.3775C137.368 82.7231 138.253 119.221 145.644 153.919C153.032 188.602 166.941 221.586 193.376 240.811C207.367 251.802 217.918 261.865 225.896 269.959C228.903 273.011 231.543 275.781 233.866 278.219C234.626 279.016 235.352 279.778 236.046 280.503C238.854 283.435 241.147 285.767 243.015 287.344C246.884 290.606 256.18 297.799 265.987 304.922C275.784 312.038 286.136 319.117 292.103 322.129C315.491 333.941 328.377 347.275 333.539 360.536C338.694 373.778 336.183 387.04 328.573 398.816C313.327 422.408 277.666 439.923 242.763 438.852L242.761 438.852C213.119 438.084 192.422 432.576 177.077 424.477C161.737 416.379 151.71 405.673 143.434 394.441C139.923 389.676 136.732 384.822 133.579 380.028C133.012 379.166 132.447 378.306 131.881 377.449C128.171 371.829 124.447 366.332 120.269 361.239C111.904 351.04 101.713 342.451 86.1178 337.645C85.7799 337.536 85.4321 337.46 85.0847 337.417C85.0831 337.417 85.0815 337.416 85.0799 337.416L85.0179 337.912L85.0865 337.417C85.0859 337.417 85.0853 337.417 85.0847 337.417C82.3755 337.041 79.6797 336.686 77.0065 336.334C69.9786 335.409 63.1078 334.504 56.5667 333.304C47.5417 331.649 39.1889 329.44 31.989 325.866C24.7964 322.295 18.7577 317.364 14.3499 310.259C9.94122 303.153 7.14337 293.838 6.48788 281.468C6.48788 281.472 6.48795 281.476 6.48795 281.48L5.98795 281.482L6.48724 281.456C6.48746 281.46 6.48767 281.464 6.48788 281.468C6.43918 268.895 8.13446 256.454 13.0564 245.132C17.1415 235.742 19.584 222.643 20.8783 207.713C22.1733 192.773 22.3218 175.959 21.7977 159.117C20.7495 125.431 17.0098 91.5954 14.3532 72.3339L14.3522 72.3262L14.3509 72.3186L14.3222 72.1493C14.1479 71.1187 13.9598 70.0073 13.6064 68.9916C13.2339 67.9211 12.6641 66.914 11.6924 66.1805C11.6997 66.1876 11.707 66.1946 11.7143 66.2016L11.3679 66.5622L11.6665 66.1611C11.6751 66.1676 11.6838 66.1741 11.6924 66.1805C6.01495 60.7164 3.29617 53.4521 2.10345 45.6393C0.910095 37.8224 1.2511 29.5051 1.65552 21.9701C1.65372 21.9802 1.65192 21.9902 1.65012 22.0003L1.15793 21.9122L1.6572 21.939C1.65665 21.9494 1.65607 21.9598 1.65552 21.9701C1.94937 20.337 2.3559 18.8085 2.8425 17.3644C2.65683 17.2503 2.47641 17.135 2.3013 17.0187L2.57794 16.6022L3.04874 16.7706C2.97852 16.967 2.90973 17.1649 2.8425 17.3644C7.91797 20.4853 16.9195 22.8032 28.3374 24.109C40.1946 25.465 54.7369 25.7376 70.3754 24.6422H70.3579V24.1422L70.3929 24.641C70.3913 24.6411 70.3896 24.6412 70.3879 24.6413C70.3838 24.6416 70.3796 24.6419 70.3754 24.6422H70.4054L70.4228 24.641C85.8228 23.5643 99.9881 21.3203 111.451 18.3904C122.544 15.5549 131.17 12.0614 135.914 8.31814Z" fill="black"/>
<path d="M304.028 328C234.908 342.24 196.258 376.97 189.978 430.24C203.058 434.5 219.478 438.12 239.698 438.65C307.178 441.41 380.818 375.65 304.028 328.01V328Z" fill="#DCDCE0"/>
<path fill-rule="evenodd" clip-rule="evenodd" d="M304.528 327.391L303.927 327.514C269.311 334.646 242.277 346.918 223.104 364.116C203.922 381.322 192.635 403.435 189.481 430.186L189.433 430.593L189.823 430.72C202.942 434.992 219.409 438.622 239.681 439.154C273.56 440.538 309.001 424.734 326.358 402.542C335.047 391.434 339.231 378.684 336.35 365.68C333.482 352.735 323.638 339.649 304.528 327.736V327.391ZM303.922 328.537C322.947 340.378 332.58 353.286 335.373 365.896C338.173 378.534 334.128 390.985 325.57 401.926C308.436 423.833 273.319 439.529 239.718 438.155L239.711 438.154C219.746 437.631 203.5 434.087 190.523 429.895C193.716 403.559 204.876 381.809 223.772 364.86C242.736 347.85 269.518 335.651 303.922 328.537Z" fill="black"/>
<path d="M12.6683 244.197C8.66829 255.977 5.99828 268.127 6.05827 280.747C8.59827 328.797 43.3283 331.597 81.0683 336.627C100.848 268.377 75.8583 239.487 12.6783 244.187L12.6683 244.197Z" fill="#DCDCE0"/>
<path fill-rule="evenodd" clip-rule="evenodd" d="M80.7075 336.074C79.51 335.915 78.3162 335.758 77.1271 335.601C59.692 333.307 43.2517 331.144 30.5992 324.378C23.8087 320.747 18.1229 315.795 13.9733 308.787C9.82274 301.777 7.19131 292.68 6.55832 280.732C6.50093 268.297 9.10902 256.308 13.0389 244.661C44.4083 242.38 66.1136 248.447 77.5872 263.355C89.0604 278.263 90.4563 302.205 80.7075 336.074ZM78.3796 262.745C66.5476 247.372 44.2777 241.334 12.6413 243.688L12.4561 243.702L12.2324 243.925L12.1949 244.036C8.18345 255.85 5.49804 268.057 5.55839 280.749L5.55844 280.761L5.55907 280.773C6.1972 292.844 8.85915 302.112 13.1128 309.296C17.3689 316.484 23.2005 321.556 30.1276 325.26C42.9492 332.116 59.57 334.301 76.9436 336.586C78.2924 336.763 79.6458 336.941 81.0023 337.122L81.4289 337.179L81.5486 336.766C91.4494 302.604 90.2048 278.11 78.3796 262.745Z" fill="black"/>
<path d="M70.378 23.4741C101.128 21.3241 126.918 14.5141 136.018 6.91406C137.668 9.35406 138.898 12.1241 139.638 15.2741C141.128 26.7341 144.088 39.1141 138.828 50.2441C98.888 66.2841 56.298 69.5541 11.368 65.8941C-0.232056 54.7541 0.347961 36.3241 1.15796 21.2441C1.49796 19.3441 1.98798 17.5841 2.57797 15.9341C12.288 22.3841 39.118 25.6641 70.358 23.4741H70.378Z" fill="#DCDCE0"/>
<path fill-rule="evenodd" clip-rule="evenodd" d="M136.122 6.17188L135.697 6.52659C131.239 10.2505 122.61 13.8314 111.193 16.7497C99.8022 19.6612 85.7038 21.8966 70.3605 22.9704H70.3405L70.323 22.9716C54.7282 24.0648 40.2419 23.792 28.451 22.4436C16.6342 21.0922 7.60335 18.6683 2.85463 15.5139L2.32233 15.1603L2.10716 15.762C1.50867 17.4358 1.01108 19.2226 0.665771 21.1523L0.660339 21.1827L0.658676 21.2135C0.253845 28.7504 -0.09758 37.1759 1.11493 45.1183C2.32817 53.0655 5.11392 60.5776 11.0216 66.251L11.15 66.3743L11.3274 66.3887C56.3054 70.0526 98.9794 66.7825 139.014 50.7043L139.196 50.6313L139.28 50.454C141.958 44.7883 142.535 38.8204 142.264 32.8564C142.07 28.5974 141.441 24.3046 140.827 20.1198C140.584 18.462 140.344 16.821 140.134 15.2059L140.131 15.1807L140.125 15.156C139.371 11.9479 138.117 9.1216 136.432 6.63026L136.122 6.17188ZM135.904 7.64626C137.365 9.91645 138.464 12.4732 139.145 15.3601C139.359 17.0019 139.602 18.6551 139.845 20.316C140.456 24.4817 141.074 28.696 141.265 32.9018C141.529 38.7119 140.971 44.4375 138.459 49.8497C98.7193 65.7671 56.3344 69.0338 11.5868 65.4065C5.98122 59.9541 3.28879 52.7316 2.10349 44.9674C0.910126 37.1505 1.25114 28.8331 1.65558 21.2982C1.94943 19.665 2.35591 18.1366 2.84253 16.6926C7.91798 19.8134 16.9195 22.1313 28.3374 23.4371C40.1946 24.7932 54.7369 25.0657 70.3755 23.9704H70.3954L70.4128 23.9691C85.8128 22.8924 99.9781 20.6484 111.441 17.7185C122.534 14.8831 131.16 11.3895 135.904 7.64626Z" fill="black"/>
<path d="M2.75894 15.4437C2.75894 20.6437 35.3289 27.1737 70.7289 24.3537C106.139 21.5437 136.199 10.6937 135.729 6.58373C135.499 4.56373 116.589 -0.896269 71.2889 0.833731C25.9889 2.56373 2.74893 12.7937 2.74893 15.4337L2.75894 15.4437Z" fill="#DCDCE0"/>
<path fill-rule="evenodd" clip-rule="evenodd" d="M135.234 6.65831C135.239 6.75698 135.206 6.91686 135.049 7.15328C134.883 7.40247 134.608 7.6951 134.206 8.02579C133.402 8.68631 132.167 9.4386 130.528 10.2511C127.257 11.8731 122.466 13.6931 116.54 15.4775C104.69 19.045 88.3579 22.4532 70.6893 23.8553L70.6892 23.8553C53.0281 25.2622 36.0744 24.3362 23.5448 22.412C17.2774 21.4495 12.1349 20.24 8.57053 18.9558C6.78519 18.3126 5.42155 17.6597 4.51393 17.0254C3.576 16.3699 3.25888 15.8299 3.25888 15.4437V15.4019C3.274 15.3626 3.31197 15.287 3.40707 15.1714C3.55249 14.9946 3.78894 14.7762 4.13338 14.5213C4.82018 14.013 5.87221 13.4062 7.3007 12.7345C10.1531 11.3932 14.4443 9.82197 20.1619 8.27513C31.5938 5.18238 48.691 2.19711 71.3079 1.33337C93.9371 0.469164 109.96 1.4015 120.343 2.79802C125.537 3.49652 129.309 4.30973 131.787 5.06794C133.029 5.44782 133.928 5.80868 134.514 6.12559C134.808 6.28469 135.005 6.4229 135.125 6.53375C135.2 6.60366 135.226 6.64534 135.234 6.65831ZM120.477 1.80694C110.023 0.400959 93.9407 -0.531701 71.2698 0.334095C48.5868 1.20036 31.4139 4.19509 19.9008 7.30983C14.1459 8.86674 9.79589 10.4561 6.87517 11.8295C5.4171 12.5152 4.29959 13.1542 3.5385 13.7175C3.159 13.9983 2.85191 14.2721 2.63478 14.5361C2.42758 14.788 2.24887 15.0952 2.24887 15.4337V15.641L2.27258 15.6647C2.37483 16.4873 3.03949 17.215 3.9411 17.8451C4.95293 18.5522 6.41037 19.2405 8.23158 19.8966C11.8804 21.2112 17.0929 22.4329 23.393 23.4004C35.9984 25.3363 53.0297 26.2653 70.7686 24.8522C88.51 23.4443 104.912 20.0225 116.828 16.435C122.784 14.6419 127.633 12.8031 130.973 11.147C132.639 10.3204 133.952 9.52881 134.841 8.79831C135.285 8.43349 135.641 8.06884 135.882 7.70618C136.121 7.34559 136.273 6.94406 136.226 6.52717M120.477 1.80694C125.702 2.5097 129.532 3.33211 132.08 4.11171L120.477 1.80694ZM132.08 4.11171C133.351 4.50074 134.321 4.88433 134.99 5.24589L132.08 4.11171ZM134.99 5.24589C135.323 5.42603 135.6 5.61057 135.805 5.80078L134.99 5.24589ZM135.805 5.80078C135.999 5.98059 136.191 6.22353 136.226 6.52692L135.805 5.80078Z" fill="black"/>
<path opacity="0.2" d="M293.258 427.865C277.998 435.095 260.278 439.225 242.748 438.685C123.958 435.605 147.888 356.535 85.9676 337.455C85.6576 337.355 85.3376 337.285 85.0176 337.245C45.7576 331.805 8.61761 330.565 5.98761 280.815C5.93762 268.195 7.8876 255.775 12.5976 244.265C28.1776 206.225 19.1676 110.235 13.8576 71.7353C13.4876 69.5553 13.1276 67.2053 11.3676 65.8953C1.69757 56.6053 0.49762 42.2453 0.827606 28.9953C0.897614 26.3553 2.44757 18.4553 2.58759 15.9453C2.58759 15.9453 10.6576 17.4953 19.1376 32.2253C27.6176 46.9553 26.3176 60.4453 29.9376 65.9353C33.5576 71.4253 26.2576 155.915 33.3976 200.305C40.5376 244.695 10.4376 260.415 31.0476 294.235C51.6576 328.055 68.6276 306.925 97.6076 322.665C126.588 338.405 164.568 385.375 193.808 404.465C240.528 429.105 274.618 417.075 283.698 413.745C290.588 411.215 335.498 386.895 333.078 392.155C322.638 414.845 293.248 427.875 293.248 427.875L293.258 427.865Z" fill="black"/>
<path opacity="0.2" d="M2.7475 14.7625C2.0575 18.2825 23.1575 25.4225 60.4375 24.9225C51.3275 22.7525 27.1975 18.1625 24.5675 15.8225C19.3175 11.1425 25.2075 6.55245 20.9975 7.55245C10.2175 10.1125 2.86751 14.1825 2.75751 14.7725L2.7475 14.7625Z" fill="black"/>
<g clip-path="url(#clip0_4815_122061)">
<path d="M114.947 116.42C117.516 142.803 122.724 153.223 121.251 162.79C119.787 170.339 103.486 175.672 85.7153 177.283C67.8991 178.279 50.9945 175.385 48.443 168.139C45.588 158.882 49.2177 147.82 47.9036 121.344L114.947 116.42Z" fill="#DCDCE0" stroke="#231F20" stroke-miterlimit="10"/>
<path opacity="0.2" d="M84.1614 177.361C113.643 172.744 118.852 160.905 118.423 157.376C117.993 153.847 113.827 128.96 111.863 124.399C109.898 119.839 95.503 120.726 90.6413 120.898C85.7796 121.07 56.1322 121.592 48.5343 121.553L114.946 116.419C117.515 142.803 121.786 154.656 121.25 162.79C120.976 167.259 108.341 176.189 84.1614 177.361Z" fill="#231F20"/>
<path d="M117.309 99.2617C118.182 99.1975 118.91 99.9329 118.825 100.806C118.375 105.395 118.708 109.926 119.823 114.399C120.035 115.251 119.423 116.084 118.549 116.149C118.549 116.149 98.5923 118.965 81.5177 120.219C64.4431 121.473 44.2891 121.603 44.2891 121.603C43.4153 121.667 42.6882 120.932 42.7728 120.059C43.2222 115.47 42.8894 110.939 41.7744 106.466C41.563 105.614 42.1749 104.78 43.0487 104.716C43.0487 104.716 63.6537 104.553 80.2773 103.332C96.9009 102.111 117.309 99.2617 117.309 99.2617Z" fill="#DCDCE0" stroke="#231F20" stroke-miterlimit="10"/>
<path d="M43.0547 104.715C43.0609 104.8 63.6597 104.552 80.2833 103.331C96.9069 102.109 117.319 99.3238 117.315 99.2602" stroke="#231F20" stroke-miterlimit="10"/>
<path d="M80.7305 109.396L82.1398 109.293" stroke="black" stroke-opacity="0.6" stroke-miterlimit="10"/>
<path d="M84.9414 109.088L106.012 107.54" stroke="black" stroke-opacity="0.6" stroke-miterlimit="10" stroke-dasharray="3.99 3.99"/>
<path d="M107.414 107.438L108.823 107.334L108.927 108.748" stroke="#BCBEC0" stroke-miterlimit="10"/>
<path d="M109.134 111.538L109.878 121.668C112.019 143.669 116.13 152.379 114.902 160.358C113.673 166.673 100.226 171.108 85.3602 172.441C70.4595 173.294 56.5086 170.872 54.3695 164.804C51.9887 157.083 54.7838 147.874 53.6863 125.795L52.84 114.273" stroke="black" stroke-opacity="0.6" stroke-miterlimit="10" stroke-dasharray="3.95 3.95"/>
<path d="M52.7288 112.875L52.625 111.461L54.0344 111.357" stroke="#BCBEC0" stroke-miterlimit="10"/>
<path d="M56.8477 111.15L77.9108 109.603" stroke="black" stroke-opacity="0.6" stroke-miterlimit="10" stroke-dasharray="3.99 3.99"/>
<path d="M79.3203 109.5L80.7297 109.396" stroke="black" stroke-opacity="0.6" stroke-miterlimit="10"/>
<path d="M52.5872 115.158C54.611 115.01 56.1307 113.244 55.9816 111.214C55.8324 109.184 54.071 107.658 52.0472 107.807C50.0234 107.956 48.5037 109.722 48.6528 111.752C48.8019 113.782 50.5634 115.307 52.5872 115.158Z" fill="#9891A1" stroke="#231F20" stroke-miterlimit="10"/>
<path d="M109.411 110.985C111.435 110.836 112.955 109.07 112.806 107.04C112.657 105.01 110.895 103.485 108.871 103.633C106.848 103.782 105.328 105.548 105.477 107.578C105.626 109.608 107.388 111.133 109.411 110.985Z" fill="#9891A1" stroke="#231F20" stroke-miterlimit="10"/>
</g>
<defs>
<clipPath id="clip0_4815_122061">
<rect width="78" height="78" fill="white" transform="translate(41.1289 102.711) rotate(-4.20104)"/>
</clipPath>
</defs>
</svg>
