<svg width="376" height="498" viewBox="0 0 376 498" fill="none" xmlns="http://www.w3.org/2000/svg">
<path d="M70.2475 23.4662C100.998 21.3162 126.788 14.5062 135.888 6.90625C137.538 9.34625 138.768 12.1163 139.508 15.2663C140.998 26.7262 143.958 39.1063 138.698 50.2363C137.888 51.9463 137.398 53.7962 137.418 55.6963C138.038 108.386 140.958 201.506 193.538 239.736C221.568 261.756 235.818 280.056 243.198 286.286C250.908 292.786 280.338 315.026 292.188 321.006C385.978 368.376 312.698 440.826 242.608 438.676C123.818 435.596 147.748 356.526 85.8275 337.446C85.5175 337.346 85.1975 337.276 84.8775 337.236C45.6175 331.796 8.47754 330.556 5.84753 280.806C5.79755 268.186 7.49753 255.666 12.4575 244.256C28.6675 206.996 19.0275 110.226 13.7175 71.7263C13.3475 69.5463 12.9875 67.1963 11.2275 65.8862C-0.372467 54.7463 0.20755 36.3162 1.01755 21.2362C1.35754 19.3363 1.84753 17.5763 2.43753 15.9263C12.1475 22.3763 38.9775 25.6562 70.2175 23.4662H70.2475Z" fill="#E1E6AE"/>
<path fill-rule="evenodd" clip-rule="evenodd" d="M135.992 6.17188L135.567 6.52659C131.108 10.2505 122.479 13.8314 111.062 16.7497C99.6715 19.6612 85.5732 21.8966 70.2298 22.9704H70.1998L70.1823 22.9716C54.5876 24.0648 40.1012 23.792 28.3104 22.4436C16.4935 21.0922 7.46271 18.6683 2.71396 15.5139L2.18167 15.1603L1.96652 15.762C1.36801 17.4358 0.870453 19.2226 0.525146 21.1523L0.519714 21.1827L0.518066 21.2135C0.11322 28.7504 -0.23819 37.1759 0.974304 45.1183C2.18753 53.0655 4.9733 60.5776 10.881 66.251L10.9036 66.2727L10.9288 66.2914C11.7012 66.8664 12.1847 67.681 12.5213 68.6484C12.8463 69.5821 13.0216 70.6172 13.2001 71.6706L13.222 71.7987C13.2224 71.8013 13.2227 71.804 13.2231 71.8066C15.8765 91.0464 19.6109 124.841 20.6576 158.476C21.1809 175.296 21.0319 192.067 19.7414 206.954C18.45 221.851 16.0187 234.821 11.9988 244.061C7.00244 255.555 5.29715 268.149 5.34732 280.812L5.34738 280.825L5.34802 280.837C6.00876 293.335 8.83926 302.828 13.3595 310.114C17.882 317.404 24.0751 322.451 31.4037 326.089C38.7251 329.724 47.1829 331.954 56.2457 333.616C62.8134 334.821 69.7223 335.73 76.7596 336.657C79.428 337.008 82.1149 337.362 84.8087 337.736L84.8153 337.736C85.105 337.773 85.3943 337.836 85.6738 337.926L85.6801 337.928C101.043 342.662 111.08 351.112 119.355 361.201C123.497 366.251 127.197 371.71 130.906 377.328C131.469 378.182 132.034 379.04 132.6 379.901C135.752 384.695 138.961 389.574 142.489 394.362C150.819 405.667 160.952 416.498 176.47 424.689C191.983 432.878 212.84 438.408 242.592 439.18C277.78 440.259 313.803 422.624 329.272 398.687C337.02 386.698 339.624 373.1 334.33 359.501C329.045 345.923 315.92 332.437 292.413 320.564C286.53 317.595 276.241 310.565 266.434 303.441C256.635 296.324 247.362 289.147 243.52 285.908C241.698 284.371 239.442 282.078 236.627 279.139C235.937 278.418 235.213 277.658 234.454 276.863C232.13 274.424 229.481 271.644 226.467 268.586C218.468 260.469 207.882 250.374 193.846 239.347L193.839 239.341L193.831 239.336C167.692 220.33 153.853 187.643 146.481 153.039C139.113 118.447 138.227 82.0389 137.917 55.6945C137.898 53.8846 138.365 52.1097 139.149 50.4544C141.827 44.7887 142.404 38.8204 142.133 32.8564C141.94 28.5973 141.31 24.3045 140.697 20.1197C140.454 18.4619 140.213 16.821 140.003 15.2059L140 15.1807L139.994 15.156C139.24 11.9479 137.986 9.1216 136.301 6.63026L135.992 6.17188ZM135.774 7.64626C137.234 9.91649 138.334 12.4733 139.015 15.3603C139.229 17.002 139.471 18.6552 139.714 20.316C140.325 24.4817 140.943 28.696 141.134 32.9018C141.401 38.7751 140.828 44.5621 138.245 50.0263C137.41 51.7908 136.896 53.7157 136.917 55.7056C137.227 82.0512 138.112 118.549 145.503 153.247C152.891 187.93 166.8 220.914 193.236 240.139C207.226 251.13 217.778 261.193 225.755 269.288C228.762 272.339 231.402 275.109 233.725 277.547C234.485 278.344 235.211 279.106 235.905 279.831C238.714 282.764 241.006 285.095 242.875 286.672C246.743 289.934 256.04 297.127 265.846 304.25C275.643 311.366 285.995 318.446 291.962 321.457C315.35 333.269 328.236 346.603 333.399 359.864C338.553 373.106 336.042 386.368 328.432 398.144C313.186 421.737 277.525 439.251 242.623 438.181L242.62 438.181C212.978 437.412 192.281 431.904 176.937 423.805C161.597 415.707 151.57 405.001 143.294 393.769C139.783 389.004 136.591 384.151 133.439 379.357C132.872 378.495 132.306 377.635 131.74 376.777C128.03 371.158 124.306 365.66 120.128 360.567C111.763 350.368 101.572 341.779 85.9772 336.973C85.6393 336.865 85.2916 336.788 84.944 336.745C84.9425 336.745 84.9409 336.744 84.9393 336.744L84.8773 337.24L84.9459 336.745C84.9453 336.745 84.9447 336.745 84.944 336.745C82.2349 336.369 79.539 336.014 76.8659 335.662C69.838 334.737 62.9672 333.832 56.4261 332.632C47.4011 330.977 39.0483 328.768 31.8484 325.194C24.6558 321.623 18.617 316.692 14.2092 309.587C9.8006 302.481 7.00275 293.166 6.34726 280.796C6.34726 280.8 6.34732 280.804 6.34732 280.808L5.84732 280.81L6.34662 280.784C6.34683 280.788 6.34705 280.792 6.34726 280.796C6.29855 268.224 7.99384 255.782 12.9158 244.46C17.0009 235.07 19.4434 221.971 20.7376 207.041C22.0327 192.101 22.1812 175.287 21.6571 158.445C20.6089 124.76 16.8692 90.9236 14.2126 71.662L14.2116 71.6543L14.2103 71.6467L14.1816 71.4774C14.0073 70.4469 13.8192 69.3354 13.4658 68.3198C13.0933 67.2492 12.5235 66.2421 11.5518 65.5087C11.5591 65.5157 11.5664 65.5227 11.5737 65.5297L11.2273 65.8904L11.5259 65.4893C11.5345 65.4957 11.5432 65.5022 11.5518 65.5087C5.87436 60.0445 3.15558 52.7802 1.96286 44.9674C0.769501 37.1505 1.1105 28.8332 1.51492 21.2983C1.51312 21.3083 1.51132 21.3184 1.50952 21.3284L1.01733 21.2403L1.5166 21.2672C1.51605 21.2775 1.51547 21.2879 1.51492 21.2983C1.80878 19.6651 2.21527 18.1366 2.70187 16.6926C2.5162 16.5784 2.33578 16.4631 2.16068 16.3468L2.43732 15.9304L2.90811 16.0987C2.83789 16.2951 2.7691 16.493 2.70187 16.6926C7.77734 19.8134 16.7788 22.1313 28.1967 23.4371C40.054 24.7932 54.5963 25.0657 70.2348 23.9704H70.2173V23.4704L70.2523 23.9691C70.2506 23.9692 70.249 23.9694 70.2473 23.9695C70.2431 23.9698 70.239 23.9701 70.2348 23.9704H70.2648L70.2822 23.9691C85.6821 22.8924 99.8474 20.6484 111.31 17.7185C122.403 14.8831 131.029 11.3895 135.774 7.64626Z" fill="black"/>
<path d="M70.2592 24.1381C101.009 21.9881 126.799 15.1781 135.899 7.57812C137.549 10.0181 138.779 12.7881 139.519 15.9381C141.009 27.3981 143.969 39.7781 138.709 50.9081C137.899 52.6181 137.409 54.4681 137.429 56.3681C138.049 109.058 140.969 202.178 193.549 240.408C221.579 262.428 235.829 280.728 243.209 286.958C250.919 293.458 280.349 315.698 292.199 321.678C385.989 369.048 312.709 441.498 242.619 439.348C123.829 436.268 147.759 357.198 85.8392 338.118C85.5293 338.018 85.2092 337.948 84.8892 337.908C45.6292 332.468 8.48926 331.228 5.85925 281.478C5.80927 268.858 7.50925 256.338 12.4692 244.928C28.6792 207.668 19.0392 110.898 13.7292 72.3981C13.3593 70.2181 12.9992 67.8681 11.2392 66.5581C-0.360779 55.4181 0.219238 36.9881 1.02924 21.9081C1.36923 20.0081 1.85925 18.2481 2.44925 16.5981C12.1592 23.0481 38.9893 26.3281 70.2292 24.1381H70.2592Z" fill="#E1E6AE"/>
<path fill-rule="evenodd" clip-rule="evenodd" d="M136.003 6.84375L135.579 7.19846C131.12 10.9223 122.491 14.5032 111.074 17.4215C99.6832 20.3331 85.5849 22.5685 70.2415 23.6422H70.2115L70.1941 23.6434C54.5993 24.7367 40.1129 24.4639 28.3221 23.1155C16.5052 21.764 7.47443 19.3401 2.72568 16.1857L2.19339 15.8322L1.97824 16.4339C1.37973 18.1077 0.882141 19.8945 0.536835 21.8242L0.531403 21.8546L0.529755 21.8854C0.124908 29.4222 -0.226501 37.8478 0.985992 45.7902C2.19922 53.7373 4.98499 61.2494 10.8927 66.9229L10.9153 66.9446L10.9405 66.9633C11.7129 67.5383 12.1964 68.3528 12.5331 69.3203C12.858 70.254 13.0333 71.289 13.2118 72.3424L13.2337 72.4705C13.2341 72.4732 13.2345 72.4759 13.2348 72.4785C15.8882 91.7184 19.6227 125.513 20.6693 159.148C21.1927 175.968 21.0436 192.739 19.7531 207.626C18.4617 222.523 16.0304 235.493 12.0105 244.733C7.01416 256.226 5.30887 268.821 5.35904 281.484L5.3591 281.496L5.35974 281.509C6.02048 294.007 8.85098 303.5 13.3712 310.786C17.8937 318.076 24.0868 323.123 31.4155 326.761C38.7368 330.396 47.1946 332.626 56.2574 334.288C62.8251 335.492 69.734 336.402 76.7713 337.329C79.4397 337.68 82.1266 338.034 84.8204 338.408L84.827 338.408C85.1168 338.445 85.4061 338.508 85.6855 338.598L85.6918 338.6C101.055 343.334 111.092 351.784 119.367 361.873C123.509 366.923 127.209 372.382 130.917 378C131.481 378.854 132.046 379.713 132.612 380.573C135.764 385.367 138.972 390.246 142.5 395.034C150.83 406.339 160.964 417.17 176.482 425.361C191.995 433.55 212.852 439.08 242.604 439.852C277.791 440.931 313.815 423.296 329.284 399.359C337.032 387.369 339.636 373.772 334.342 360.173C329.056 346.595 315.931 333.108 292.424 321.236C286.541 318.267 276.253 311.236 266.445 304.113C256.647 296.996 247.373 289.819 243.532 286.58C241.71 285.043 239.454 282.75 236.639 279.811C235.948 279.09 235.224 278.33 234.466 277.534C232.141 275.095 229.493 272.316 226.479 269.258C218.48 261.141 207.894 251.046 193.858 240.019L193.851 240.013L193.843 240.008C167.703 221.002 153.864 188.315 146.493 153.711C139.124 119.119 138.239 82.7108 137.929 56.3663C137.91 54.5565 138.377 52.7816 139.161 51.1263C141.839 45.4606 142.416 39.4923 142.145 33.5283C141.951 29.2692 141.322 24.9764 140.708 20.7915C140.465 19.1337 140.225 17.4929 140.015 15.8778L140.012 15.8526L140.006 15.8279C139.252 12.6198 137.998 9.79347 136.313 7.30214L136.003 6.84375ZM135.786 8.31814C137.246 10.5884 138.346 13.1452 139.027 16.0321C139.24 17.6739 139.483 19.327 139.726 20.9879C140.337 25.1536 140.955 29.3679 141.146 33.5737C141.412 39.447 140.839 45.234 138.257 50.6982C137.421 52.4627 136.908 54.3876 136.929 56.3775C137.239 82.7231 138.124 119.221 145.515 153.919C152.903 188.602 166.812 221.586 193.247 240.811C207.238 251.802 217.789 261.865 225.767 269.959C228.774 273.011 231.414 275.781 233.737 278.219C234.497 279.016 235.223 279.778 235.917 280.503C238.725 283.435 241.018 285.767 242.887 287.344C246.755 290.606 256.051 297.799 265.858 304.922C275.655 312.038 286.007 319.117 291.974 322.129C315.362 333.941 328.248 347.275 333.41 360.536C338.565 373.778 336.054 387.04 328.444 398.816C313.198 422.408 277.537 439.923 242.634 438.852L242.632 438.852C212.99 438.084 192.293 432.576 176.949 424.477C161.608 416.379 151.581 405.673 143.305 394.441C139.795 389.676 136.603 384.822 133.45 380.028C132.883 379.166 132.318 378.306 131.752 377.449C128.042 371.829 124.318 366.332 120.14 361.239C111.775 351.04 101.584 342.451 85.9889 337.645C85.651 337.536 85.3032 337.46 84.9558 337.417C84.9542 337.417 84.9526 337.416 84.951 337.416L84.889 337.912L84.9576 337.417C84.957 337.417 84.9564 337.417 84.9558 337.417C82.2466 337.041 79.5508 336.686 76.8776 336.334C69.8497 335.409 62.9789 334.504 56.4378 333.304C47.4128 331.649 39.06 329.44 31.8601 325.866C24.6675 322.295 18.6288 317.364 14.2209 310.259C9.81232 303.153 7.01447 293.838 6.35898 281.468C6.35898 281.472 6.35904 281.476 6.35904 281.48L5.85904 281.482L6.35834 281.456C6.35855 281.46 6.35876 281.464 6.35898 281.468C6.31027 268.895 8.00555 256.454 12.9275 245.132C17.0126 235.742 19.4551 222.643 20.7494 207.713C22.0444 192.773 22.1929 175.959 21.6688 159.117C20.6206 125.431 16.8809 91.5954 14.2243 72.3339L14.2233 72.3262L14.222 72.3186L14.1933 72.1493C14.019 71.1187 13.8309 70.0073 13.4775 68.9916C13.1049 67.9211 12.5352 66.914 11.5635 66.1805C11.5708 66.1876 11.5781 66.1946 11.5854 66.2016L11.239 66.5622L11.5376 66.1611C11.5462 66.1676 11.5549 66.1741 11.5635 66.1805C5.88605 60.7164 3.16727 53.4521 1.97455 45.6393C0.781189 37.8224 1.12219 29.5051 1.52661 21.9701C1.52481 21.9802 1.52301 21.9902 1.52121 22.0003L1.02902 21.9122L1.52829 21.939C1.52774 21.9494 1.52716 21.9598 1.52661 21.9701C1.82047 20.337 2.22699 18.8085 2.71359 17.3644C2.52792 17.2503 2.3475 17.135 2.17239 17.0187L2.44904 16.6022L2.91983 16.7706C2.84961 16.967 2.78082 17.1649 2.71359 17.3644C7.78906 20.4853 16.7906 22.8032 28.2085 24.109C40.0657 25.465 54.608 25.7376 70.2465 24.6422H70.229V24.1422L70.264 24.641C70.2624 24.6411 70.2607 24.6412 70.259 24.6413C70.2549 24.6416 70.2507 24.6419 70.2465 24.6422H70.2765L70.2939 24.641C85.6938 23.5643 99.8591 21.3203 111.322 18.3904C122.415 15.5549 131.041 12.0614 135.786 8.31814Z" fill="black"/>
<path d="M303.899 328C234.779 342.24 196.129 376.97 189.849 430.24C202.929 434.5 219.349 438.12 239.569 438.65C307.049 441.41 380.689 375.65 303.899 328.01V328Z" fill="#C3CE5F"/>
<path fill-rule="evenodd" clip-rule="evenodd" d="M304.399 327.391L303.798 327.514C269.182 334.646 242.148 346.918 222.975 364.116C203.793 381.322 192.506 403.435 189.353 430.186L189.305 430.593L189.694 430.72C202.813 434.992 219.28 438.622 239.552 439.154C273.431 440.538 308.872 424.734 326.229 402.542C334.918 391.434 339.102 378.684 336.221 365.68C333.353 352.735 323.51 339.649 304.399 327.736V327.391ZM303.793 328.537C322.818 340.378 332.451 353.286 335.245 365.896C338.044 378.534 333.999 390.985 325.442 401.926C308.307 423.833 273.19 439.529 239.59 438.155L239.582 438.154C219.617 437.631 203.371 434.087 190.394 429.895C193.587 403.559 204.747 381.809 223.643 364.86C242.607 347.85 269.389 335.651 303.793 328.537Z" fill="black"/>
<path d="M12.5394 244.197C8.53938 255.977 5.86937 268.127 5.92937 280.747C8.46937 328.797 43.1994 331.597 80.9394 336.627C100.719 268.377 75.7294 239.487 12.5494 244.187L12.5394 244.197Z" fill="#C3CE5F"/>
<path fill-rule="evenodd" clip-rule="evenodd" d="M80.5786 336.074C79.3811 335.915 78.1873 335.758 76.9982 335.601C59.563 333.307 43.1228 331.144 30.4702 324.378C23.6798 320.747 17.994 315.795 13.8444 308.787C9.69383 301.777 7.06241 292.68 6.42941 280.732C6.37202 268.297 8.98012 256.308 12.91 244.661C44.2794 242.38 65.9847 248.447 77.4583 263.355C88.9315 278.263 90.3273 302.205 80.5786 336.074ZM78.2507 262.745C66.4187 247.372 44.1488 241.334 12.5124 243.688L12.3272 243.702L12.1035 243.925L12.066 244.036C8.05454 255.85 5.36913 268.057 5.42948 280.749L5.42953 280.761L5.43017 280.773C6.06829 292.844 8.73025 302.112 12.9839 309.296C17.2399 316.484 23.0716 321.556 29.9987 325.26C42.8202 332.116 59.4411 334.301 76.8147 336.586C78.1635 336.763 79.5169 336.941 80.8734 337.122L81.2999 337.179L81.4197 336.766C91.3204 302.604 90.0759 278.11 78.2507 262.745Z" fill="black"/>
<path d="M70.2491 23.4741C100.999 21.3241 126.789 14.5141 135.889 6.91406C137.539 9.35406 138.769 12.1241 139.509 15.2741C140.999 26.7341 143.959 39.1141 138.699 50.2441C98.7591 66.2841 56.169 69.5541 11.239 65.8941C-0.360962 54.7541 0.219055 36.3241 1.02905 21.2441C1.36905 19.3441 1.85907 17.5841 2.44907 15.9341C12.1591 22.3841 38.9891 25.6641 70.2291 23.4741H70.2491Z" fill="#C3CE5F"/>
<path fill-rule="evenodd" clip-rule="evenodd" d="M135.993 6.17188L135.569 6.52659C131.11 10.2505 122.481 13.8314 111.064 16.7497C99.6732 19.6612 85.5749 21.8966 70.2316 22.9704H70.2116L70.1941 22.9716C54.5993 24.0648 40.113 23.792 28.3221 22.4436C16.5053 21.0922 7.47444 18.6683 2.72572 15.5139L2.19342 15.1603L1.97826 15.762C1.37976 17.4358 0.882172 19.2226 0.536865 21.1523L0.531433 21.1827L0.52977 21.2135C0.124939 28.7504 -0.226486 37.1759 0.986023 45.1183C2.19926 53.0655 4.98502 60.5776 10.8927 66.251L11.0211 66.3743L11.1985 66.3887C56.1765 70.0526 98.8504 66.7825 138.885 50.7043L139.067 50.6313L139.151 50.454C141.829 44.7883 142.406 38.8204 142.135 32.8564C141.941 28.5974 141.312 24.3046 140.699 20.1198C140.455 18.462 140.215 16.821 140.005 15.2059L140.002 15.1807L139.996 15.156C139.242 11.9479 137.988 9.1216 136.303 6.63026L135.993 6.17188ZM135.776 7.64626C137.236 9.91645 138.336 12.4732 139.017 15.3601C139.23 17.0019 139.473 18.6551 139.716 20.316C140.327 24.4817 140.945 28.696 141.136 32.9018C141.4 38.7119 140.842 44.4375 138.33 49.8497C98.5904 65.7671 56.2055 69.0338 11.4579 65.4065C5.85231 59.9541 3.15988 52.7316 1.97458 44.9674C0.781219 37.1505 1.12224 28.8331 1.52667 21.2982C1.82053 19.665 2.22701 18.1366 2.71362 16.6926C7.78908 19.8134 16.7906 22.1313 28.2085 23.4371C40.0657 24.7932 54.608 25.0657 70.2466 23.9704H70.2665L70.2839 23.9691C85.6839 22.8924 99.8492 20.6484 111.312 17.7185C122.405 14.8831 131.031 11.3895 135.776 7.64626Z" fill="black"/>
<path d="M2.63004 15.4437C2.63004 20.6437 35.2 27.1737 70.6 24.3537C106.01 21.5437 136.07 10.6937 135.6 6.58373C135.37 4.56373 116.46 -0.896269 71.16 0.833731C25.86 2.56373 2.62003 12.7937 2.62003 15.4337L2.63004 15.4437Z" fill="#C3CE5F"/>
<path fill-rule="evenodd" clip-rule="evenodd" d="M135.105 6.65831C135.111 6.75698 135.077 6.91686 134.92 7.15328C134.754 7.40247 134.479 7.6951 134.077 8.02579C133.273 8.68631 132.038 9.4386 130.399 10.2511C127.129 11.8731 122.338 13.6931 116.411 15.4775C104.561 19.045 88.2289 22.4532 70.5604 23.8553L70.5603 23.8553C52.8992 25.2622 35.9454 24.3362 23.4159 22.412C17.1484 21.4495 12.006 20.24 8.44163 18.9558C6.65628 18.3126 5.29265 17.6597 4.38503 17.0254C3.4471 16.3699 3.12997 15.8299 3.12997 15.4437V15.4019C3.1451 15.3626 3.18306 15.287 3.27817 15.1714C3.42358 14.9946 3.66003 14.7762 4.00447 14.5213C4.69127 14.013 5.7433 13.4062 7.1718 12.7345C10.0242 11.3932 14.3154 9.82197 20.033 8.27513C31.4649 5.18238 48.5621 2.19711 71.179 1.33337C93.8082 0.469164 109.831 1.4015 120.215 2.79802C125.408 3.49652 129.18 4.30973 131.658 5.06794C132.9 5.44782 133.799 5.80868 134.385 6.12559C134.68 6.28469 134.876 6.4229 134.996 6.53375C135.071 6.60366 135.097 6.64534 135.105 6.65831ZM120.348 1.80694C109.894 0.400959 93.8117 -0.531701 71.1409 0.334095C48.4578 1.20036 31.285 4.19509 19.7719 7.30983C14.017 8.86674 9.66698 10.4561 6.74626 11.8295C5.28819 12.5152 4.17068 13.1542 3.40959 13.7175C3.03009 13.9983 2.72301 14.2721 2.50587 14.5361C2.29868 14.788 2.11996 15.0952 2.11996 15.4337V15.641L2.14368 15.6647C2.24593 16.4873 2.91058 17.215 3.81219 17.8451C4.82402 18.5522 6.28146 19.2405 8.10268 19.8966C11.7515 21.2112 16.964 22.4329 23.2641 23.4004C35.8695 25.3363 52.9008 26.2653 70.6397 24.8522C88.3811 23.4443 104.784 20.0225 116.699 16.435C122.655 14.6419 127.504 12.8031 130.844 11.147C132.51 10.3204 133.823 9.52881 134.712 8.79831C135.156 8.43349 135.512 8.06884 135.753 7.70618C135.992 7.34559 136.144 6.94406 136.097 6.52717M120.348 1.80694C125.573 2.5097 129.403 3.33211 131.951 4.11171L120.348 1.80694ZM131.951 4.11171C133.222 4.50074 134.192 4.88433 134.861 5.24589L131.951 4.11171ZM134.861 5.24589C135.194 5.42603 135.471 5.61057 135.676 5.80078L134.861 5.24589ZM135.676 5.80078C135.87 5.98059 136.062 6.22353 136.097 6.52692L135.676 5.80078Z" fill="black"/>
<path opacity="0.2" d="M293.129 427.865C277.869 435.095 260.149 439.225 242.619 438.685C123.829 435.605 147.759 356.535 85.8387 337.455C85.5287 337.355 85.2087 337.285 84.8887 337.245C45.6287 331.805 8.48871 330.565 5.8587 280.815C5.80872 268.195 7.7587 255.775 12.4687 244.265C28.0487 206.225 19.0387 110.235 13.7287 71.7353C13.3587 69.5553 12.9987 67.2053 11.2387 65.8953C1.56866 56.6053 0.368713 42.2453 0.6987 28.9953C0.768707 26.3553 2.31866 18.4553 2.45868 15.9453C2.45868 15.9453 10.5287 17.4953 19.0087 32.2253C27.4887 46.9553 26.1887 60.4453 29.8087 65.9353C33.4287 71.4253 26.1287 155.915 33.2687 200.305C40.4087 244.695 10.3087 260.415 30.9187 294.235C51.5287 328.055 68.4987 306.925 97.4787 322.665C126.459 338.405 164.439 385.375 193.679 404.465C240.399 429.105 274.489 417.075 283.569 413.745C290.459 411.215 335.369 386.895 332.949 392.155C322.509 414.845 293.119 427.875 293.119 427.875L293.129 427.865Z" fill="black"/>
<path opacity="0.2" d="M2.61859 14.7625C1.92859 18.2825 23.0286 25.4225 60.3086 24.9225C51.1986 22.7525 27.0686 18.1625 24.4386 15.8225C19.1886 11.1425 25.0786 6.55245 20.8686 7.55245C10.0886 10.1125 2.7386 14.1825 2.6286 14.7725L2.61859 14.7625Z" fill="black"/>
<g clip-path="url(#clip0_4775_428513)">
<path d="M207.863 223.432C187.353 222.964 175.591 231.483 173.47 246.17C173.159 248.318 174.297 250.506 175.444 252.008C177.983 255.351 180.473 258.572 186.428 258.936C193.644 259.372 206.471 259.937 204.456 252.791" fill="#F7931E"/>
<path d="M207.863 223.432C187.353 222.964 175.591 231.483 173.47 246.17C173.159 248.318 174.297 250.506 175.444 252.008C177.983 255.351 180.473 258.572 186.428 258.936C193.644 259.372 206.471 259.937 204.456 252.791" stroke="black" stroke-width="0.338972" stroke-miterlimit="10" stroke-linecap="round"/>
<path opacity="0.2" d="M186.408 258.946C193.608 259.544 213.167 259.915 198.35 250.734C198.35 250.734 201.831 254.893 197.621 257.008C192.887 259.398 186.4 258.946 186.4 258.946H186.408Z" fill="black"/>
<path d="M196.073 240.273C196.073 252.239 203.06 259.054 211.332 256.438C217.59 254.468 221.645 247.379 221.645 240.217C221.645 233.055 217.59 225.965 211.332 223.987C203.06 221.371 196.073 228.307 196.073 240.273Z" fill="#FFF383" stroke="black" stroke-width="0.338972" stroke-miterlimit="10" stroke-linecap="round"/>
<path d="M217.305 233.415C215.626 229.127 212.456 225.607 208.336 224.307C207.304 223.984 206.288 223.806 205.305 223.766" stroke="black" stroke-width="0.338972" stroke-miterlimit="10" stroke-linecap="round"/>
<path d="M217.215 248.758C215.429 252.327 212.554 255.161 208.942 256.299C207.91 256.622 206.894 256.8 205.912 256.84" stroke="black" stroke-width="0.338972" stroke-miterlimit="10" stroke-linecap="round"/>
<path d="M194.209 240.308C194.201 221.858 208.125 223.44 208.125 223.44C201.368 223.351 196.15 229.932 196.15 240.275C196.15 250.619 201.581 257.377 208.543 256.981C208.543 256.981 194.217 258.636 194.209 240.308Z" fill="#C4711E" stroke="black" stroke-width="0.338972" stroke-miterlimit="10" stroke-linecap="round"/>
</g>
<g clip-path="url(#clip1_4775_428513)">
<path d="M138.863 260.432C118.353 259.964 106.591 268.483 104.47 283.17C104.159 285.318 105.297 287.506 106.444 289.008C108.983 292.351 111.473 295.572 117.428 295.936C124.644 296.372 137.471 296.937 135.456 289.791" fill="#F7931E"/>
<path d="M138.863 260.432C118.353 259.964 106.591 268.483 104.47 283.17C104.159 285.318 105.297 287.506 106.444 289.008C108.983 292.351 111.473 295.572 117.428 295.936C124.644 296.372 137.471 296.937 135.456 289.791" stroke="black" stroke-width="0.338972" stroke-miterlimit="10" stroke-linecap="round"/>
<path opacity="0.2" d="M117.408 295.946C124.608 296.544 144.167 296.915 129.35 287.734C129.35 287.734 132.831 291.893 128.621 294.008C123.887 296.398 117.4 295.946 117.4 295.946H117.408Z" fill="black"/>
<path d="M127.073 277.273C127.073 289.239 134.06 296.054 142.332 293.438C148.59 291.468 152.645 284.379 152.645 277.217C152.645 270.055 148.59 262.965 142.332 260.987C134.06 258.371 127.073 265.307 127.073 277.273Z" fill="#FFF383" stroke="black" stroke-width="0.338972" stroke-miterlimit="10" stroke-linecap="round"/>
<path d="M148.305 270.415C146.626 266.127 143.456 262.607 139.336 261.307C138.304 260.984 137.288 260.806 136.305 260.766" stroke="black" stroke-width="0.338972" stroke-miterlimit="10" stroke-linecap="round"/>
<path d="M148.215 285.758C146.429 289.327 143.554 292.161 139.942 293.299C138.91 293.622 137.894 293.8 136.912 293.84" stroke="black" stroke-width="0.338972" stroke-miterlimit="10" stroke-linecap="round"/>
<path d="M125.209 277.308C125.201 258.858 139.125 260.44 139.125 260.44C132.368 260.351 127.15 266.932 127.15 277.275C127.15 287.619 132.581 294.377 139.543 293.981C139.543 293.981 125.217 295.636 125.209 277.308Z" fill="#C4711E" stroke="black" stroke-width="0.338972" stroke-miterlimit="10" stroke-linecap="round"/>
</g>
<defs>
<clipPath id="clip0_4775_428513">
<rect width="49.0385" height="36.9565" fill="white" transform="matrix(-1 0 0 1 222.035 223)"/>
</clipPath>
<clipPath id="clip1_4775_428513">
<rect width="49.0385" height="36.9565" fill="white" transform="matrix(-1 0 0 1 153.035 260)"/>
</clipPath>
</defs>
</svg>
