<svg width="376" height="498" viewBox="0 0 376 498" fill="none" xmlns="http://www.w3.org/2000/svg">
<g clip-path="url(#clip0_4775_423472)">
<path d="M3.80905 16.0857C10.8591 33.4157 131.549 23.2757 136.789 7.22567C136.559 5.20567 117.649 -0.254331 72.3491 1.48567C27.0491 3.21567 3.80905 13.4457 3.80905 16.0857Z" fill="#EAA252"/>
<path fill-rule="evenodd" clip-rule="evenodd" d="M136.254 7.24389C135.937 8.06551 135.257 8.9125 134.197 9.77217C133.067 10.6891 131.537 11.5924 129.651 12.4721C125.879 14.2315 120.743 15.8672 114.677 17.3321C102.549 20.2608 86.7797 22.4884 70.9431 23.6746C55.1057 24.8608 39.226 25.0036 26.8768 23.7719C20.6995 23.1557 15.4288 22.1978 11.4953 20.8653C9.5287 20.1991 7.91429 19.4453 6.69235 18.6062C5.52583 17.8052 4.74158 16.9437 4.3317 16.0303C4.35156 15.9873 4.39113 15.919 4.46986 15.8233C4.61528 15.6465 4.85173 15.4281 5.19617 15.1732C5.88297 14.6649 6.935 14.0581 8.36349 13.3864C11.2159 12.0451 15.5071 10.4739 21.2247 8.92707C32.6566 5.83431 49.7538 2.84904 72.3708 1.98531L72.3709 1.9853C95 1.1161 111.023 2.04595 121.406 3.44122C126.6 4.13909 130.372 4.95199 132.85 5.71005C134.091 6.08984 134.991 6.45066 135.577 6.76755C135.871 6.92664 136.068 7.06485 136.188 7.17569C136.217 7.20262 136.238 7.22537 136.254 7.24389ZM121.54 2.45012C111.086 1.04539 95.0034 0.115239 72.3326 0.986034C49.6496 1.8523 32.4767 4.84703 20.9636 7.96177C15.2087 9.51868 10.8587 11.1081 7.93796 12.4815C6.47989 13.1671 5.36238 13.8062 4.60129 14.3694C4.22179 14.6503 3.9147 14.9241 3.69757 15.188C3.49037 15.4399 3.31166 15.7471 3.31166 16.0857V16.1835L3.34851 16.2741C3.83803 17.4774 4.80426 18.5228 6.1263 19.4306C7.44937 20.3391 9.15593 21.1287 11.1744 21.8124C15.211 23.1798 20.5668 24.1475 26.7775 24.767C39.2042 26.0064 55.1463 25.8605 71.0178 24.6718C86.8899 23.4829 102.716 21.2493 114.912 18.3042C121.007 16.8322 126.215 15.178 130.074 13.3784C132.003 12.4787 133.611 11.5353 134.827 10.5489C136.039 9.56578 136.898 8.51144 137.267 7.38085L137.301 7.27732L137.288 7.1691C137.254 6.86559 137.062 6.62258 136.868 6.44272C136.663 6.25251 136.386 6.06798 136.052 5.88785C135.384 5.5263 134.414 5.14275 133.142 4.75379C130.595 3.97435 126.765 3.15225 121.54 2.45012Z" fill="black"/>
<path opacity="0.2" d="M3.80219 15.4109C6.55198 22.5094 24.2122 26.0709 61.4922 25.5709C52.3822 23.4009 28.2522 18.8109 25.6222 16.4709C20.3722 11.7909 26.2622 7.20089 22.0522 8.20089C11.2722 10.7609 3.92218 14.8309 3.81218 15.4209L3.80219 15.4109Z" fill="black"/>
</g>
<path d="M289.959 456.499C320.959 493.499 264.959 510.499 247.959 484.499C227.699 453.519 186.959 424.499 152.959 396.499C123.159 371.959 126.419 350.539 86.9886 338.389C47.5986 332.629 9.59857 332.019 7.00858 281.749C6.95859 269.129 8.65857 256.609 13.6186 245.199C29.8286 207.939 20.1886 111.169 14.8786 72.6694C14.5086 70.4894 14.1486 68.1394 12.3886 66.8294C0.248566 54.4294 -0.00143433 32.9794 3.60855 16.8794C21.1585 31.4994 121.069 24.5094 137.029 7.85938C143.279 19.9494 145.069 38.1894 139.849 51.1894C136.679 105.559 141.849 200.819 194.689 240.689C224.329 263.639 237.429 279.529 245.909 288.099C281.949 324.509 269.949 327.509 350.949 405.509C362.159 416.299 345.949 451.509 313.949 425.509C352.949 457.509 312.949 483.509 289.949 456.509L289.959 456.499Z" fill="#F5D3AD"/>
<path fill-rule="evenodd" clip-rule="evenodd" d="M137.152 7.00781L136.668 7.51269C134.745 9.51828 131.516 11.4165 127.244 13.1635C122.983 14.9062 117.73 16.4808 111.803 17.8612C99.9505 20.622 85.4446 22.5968 70.8807 23.5961C56.3167 24.5954 41.7121 24.618 29.6621 23.4807C23.6366 22.9121 18.261 22.0544 13.8536 20.8882C9.43475 19.719 6.03842 18.252 3.92874 16.4945L3.2999 15.9707L3.12082 16.7693C1.30603 24.8629 0.458923 34.3098 1.59641 43.3039C2.73367 52.2961 5.8605 60.8754 12.0315 67.1785L12.0588 67.2064L12.0902 67.2298C12.8626 67.8047 13.3461 68.6193 13.6827 69.5868C14.0077 70.5204 14.183 71.5555 14.3615 72.6089L14.3834 72.737C14.3838 72.7396 14.3842 72.7423 14.3845 72.7449C17.0379 91.9848 20.7723 125.779 21.819 159.414C22.3423 176.234 22.1933 193.006 20.9028 207.893C19.6114 222.789 17.1801 235.759 13.1602 244.999C8.16385 256.493 6.45856 269.087 6.50873 281.751L6.50879 281.763L6.5094 281.774C7.1601 294.404 10.0371 303.956 14.6359 311.263C19.2368 318.572 25.5391 323.599 32.9804 327.21C40.4144 330.817 48.9899 333.014 58.1494 334.67C64.2489 335.773 70.6317 336.639 77.1193 337.519C80.3535 337.958 83.6139 338.401 86.8782 338.878C106.456 344.918 115.411 353.239 123.192 363.107C125.006 365.407 126.759 367.797 128.571 370.267C134.551 378.419 141.163 387.433 152.641 396.885C159.195 402.282 165.991 407.711 172.838 413.181C183.778 421.919 194.85 430.765 205.285 439.76C222.243 454.38 237.45 469.343 247.54 484.772C256.211 498.033 274.756 500.277 287.167 494.578C293.396 491.718 298.164 486.823 299.357 480.228C300.316 474.928 298.949 468.621 294.317 461.509C305.263 470.461 318.353 469.901 325.531 463.507C329.668 459.823 331.787 454.233 330.375 447.546C329.288 442.394 326.113 436.615 320.203 430.544C325.602 433.78 330.488 435.232 334.79 435.37C340.787 435.561 345.597 433.196 349.012 429.652C352.42 426.116 354.44 421.409 354.894 416.892C355.347 412.381 354.242 407.985 351.296 405.149C310.808 366.16 293.575 345.928 281.964 330.902C279.278 327.425 276.889 324.223 274.581 321.128C266.915 310.849 260.137 301.762 246.264 287.747C244.692 286.158 242.958 284.314 240.986 282.217C232.35 273.033 219.154 259 194.995 240.293L194.99 240.29C168.713 220.462 154.246 186.823 146.754 151.273C139.273 115.772 138.765 78.4508 140.343 51.2989C145.587 38.1514 143.768 19.8066 137.473 7.62907L137.152 7.00781ZM289.996 457.327C289.853 457.164 289.71 457 289.568 456.833L289.269 456.482L289.991 455.759L290.342 456.178C290.483 456.345 290.621 456.513 290.758 456.68C302.075 469.522 317.218 469.572 324.866 462.76C328.729 459.32 330.736 454.097 329.397 447.753C328.054 441.388 323.331 433.854 313.632 425.895L314.264 425.121C322.209 431.576 329.12 434.188 334.822 434.37C340.514 434.552 345.057 432.315 348.292 428.958C351.536 425.592 353.467 421.099 353.899 416.792C354.333 412.479 353.26 408.427 350.602 405.869C310.09 366.857 292.822 346.589 281.173 331.513C278.472 328.018 276.076 324.805 273.764 321.706C266.106 311.439 259.373 302.412 245.553 288.45C243.97 286.85 242.228 284.998 240.251 282.895C231.613 273.709 218.474 259.738 194.385 241.086C167.824 221.043 153.286 187.118 145.776 151.479C138.262 115.826 137.763 78.3709 139.35 51.1596L139.354 51.0781L139.385 51.0024C144.457 38.3707 142.834 20.6726 136.892 8.69613C134.799 10.6606 131.608 12.459 127.623 14.0891C123.296 15.8584 117.988 17.4474 112.03 18.8352C100.113 21.611 85.5515 23.5918 70.9492 24.5938C56.347 25.5957 41.6859 25.62 29.5681 24.4763C23.5097 23.9045 18.0758 23.0398 13.5979 21.8549C9.52899 20.7783 6.20828 19.4271 3.92728 17.7605C2.25009 25.5908 1.50433 34.6059 2.58853 43.1784C3.70712 52.0231 6.76788 60.3573 12.7195 66.4518C13.6874 67.1848 14.2555 68.1898 14.6272 69.2581C14.9806 70.2737 15.1687 71.3852 15.343 72.4158L15.3717 72.585L15.373 72.5927L15.374 72.6004C18.0306 91.8619 21.7703 125.698 22.8185 159.383C23.3426 176.226 23.1941 193.039 21.899 207.979C20.6048 222.909 18.1623 236.008 14.0772 245.398C9.15518 256.721 7.45996 269.162 7.5087 281.735C8.15424 294.234 10.998 303.606 15.4822 310.73C19.9656 317.853 26.1108 322.765 33.417 326.31C40.7306 329.859 49.2025 332.036 58.3273 333.686C64.4062 334.785 70.7506 335.646 77.2245 336.524C80.4764 336.966 83.761 337.411 87.0611 337.894L87.0992 337.9L87.136 337.911C106.962 344.02 116.086 352.48 123.978 362.488C125.821 364.825 127.593 367.241 129.416 369.725C135.386 377.862 141.905 386.748 153.277 396.113C159.805 401.489 166.59 406.91 173.435 412.377C184.389 421.128 195.494 429.999 205.938 439.002C222.914 453.638 238.208 468.675 248.377 484.225C256.707 496.964 274.662 499.22 286.75 493.669C292.772 490.904 297.254 486.237 298.373 480.05C299.472 473.974 297.353 466.295 289.996 457.327Z" fill="black"/>
<path fill-rule="evenodd" clip-rule="evenodd" d="M169.392 274.77C169.282 275.024 169.398 275.318 169.652 275.428C195.395 286.568 206.862 300.006 219.243 314.517C221.817 317.533 224.43 320.596 227.219 323.693L227.219 323.693C237.918 335.573 246.557 346.714 255.797 358.629C258.402 361.989 261.054 365.41 263.815 368.926C276.362 384.912 291.107 402.842 313.623 425.859C313.816 426.056 314.133 426.059 314.33 425.866C314.528 425.673 314.531 425.357 314.338 425.159C291.854 402.176 277.134 384.276 264.601 368.309C261.849 364.802 259.201 361.388 256.599 358.032C247.355 346.111 238.688 334.933 227.962 323.024C225.195 319.951 222.596 316.904 220.03 313.896C207.635 299.365 196.018 285.748 170.049 274.51C169.796 274.4 169.501 274.517 169.392 274.77Z" fill="black"/>
<path fill-rule="evenodd" clip-rule="evenodd" d="M116.901 291.932C116.842 292.201 117.012 292.468 117.282 292.527C138.462 297.187 162.997 312.126 192.584 343.83L192.949 343.489L192.584 343.83C203.795 355.842 213.077 367.53 223.602 380.782C226.204 384.058 228.882 387.43 231.684 390.927C245.816 408.56 263.076 429.322 289.589 456.836C289.781 457.035 290.097 457.041 290.296 456.849C290.495 456.658 290.501 456.341 290.309 456.142C263.823 428.656 246.583 407.918 232.464 390.301C229.669 386.814 226.995 383.447 224.396 380.173C213.868 366.917 204.556 355.192 193.315 343.148C163.661 311.372 138.957 296.272 117.497 291.551C117.227 291.492 116.96 291.662 116.901 291.932Z" fill="black"/>
<path d="M289.96 456.498C320.96 493.498 265.21 510.488 248.21 484.488C239.43 470.128 276.29 442.308 289.96 456.498Z" fill="#EAA252"/>
<path fill-rule="evenodd" clip-rule="evenodd" d="M248.67 471.819C246.195 476.298 245.454 480.938 247.784 484.749L247.788 484.755L247.792 484.762C256.462 498.022 274.944 500.27 287.295 494.572C293.492 491.713 298.229 486.818 299.398 480.224C300.566 473.636 298.147 465.491 290.343 456.177L290.332 456.164L290.32 456.151C286.751 452.446 281.694 451.519 276.356 452.372C271.02 453.224 265.334 455.86 260.377 459.379C255.42 462.899 251.149 467.332 248.67 471.819ZM289.588 456.833C286.323 453.453 281.651 452.539 276.514 453.36C271.368 454.181 265.825 456.738 260.956 460.195C256.087 463.651 251.934 467.979 249.545 472.303C247.152 476.633 246.578 480.853 248.633 484.221C256.965 496.955 274.853 499.21 286.876 493.664C292.865 490.901 297.317 486.235 298.413 480.05C299.51 473.863 297.276 466.013 289.588 456.833Z" fill="black"/>
<path d="M13.3877 245.899C-7.80233 306.209 20.6477 335.529 81.9677 337.679C101.748 269.429 76.5677 241.199 13.3877 245.899Z" fill="#EAA252"/>
<path fill-rule="evenodd" clip-rule="evenodd" d="M81.5958 337.165C51.1866 336.039 29.0672 328.189 17.1267 313.286C5.19466 298.394 3.30365 276.297 13.7513 246.373C45.1225 244.092 66.8745 249.996 78.3938 264.74C89.9157 279.488 91.3565 303.276 81.5958 337.165ZM79.1818 264.125C67.301 248.918 44.984 243.047 13.3507 245.4L13.0245 245.425L12.9161 245.733C2.29481 275.963 4.06192 298.58 16.3463 313.912C28.6124 329.22 51.2401 337.102 81.9503 338.179L82.3396 338.192L82.448 337.818C92.3486 303.657 91.0575 279.325 79.1818 264.125Z" fill="black"/>
<path d="M350.831 405.359C362.041 416.149 345.831 451.359 313.831 425.359C305.231 418.069 338.431 388.819 350.831 405.359Z" fill="#EAA252"/>
<path fill-rule="evenodd" clip-rule="evenodd" d="M311.945 421.691C311.827 423.283 312.288 424.706 313.508 425.74L313.516 425.747L313.516 425.747C321.571 432.292 328.687 435.028 334.673 435.22C340.67 435.411 345.48 433.046 348.895 429.502C352.303 425.966 354.323 421.259 354.777 416.742C355.229 412.246 354.133 407.864 351.207 405.027C347.979 400.744 343.397 399.44 338.554 399.984C333.721 400.526 328.598 402.906 324.169 406.013C319.74 409.121 315.953 412.992 313.812 416.576C312.742 418.365 312.062 420.118 311.945 421.691ZM338.665 400.978C343.254 400.462 347.461 401.697 350.431 405.659L350.456 405.691L350.485 405.719C353.143 408.277 354.215 412.329 353.782 416.642C353.349 420.949 351.419 425.442 348.175 428.808C344.94 432.165 340.397 434.402 334.705 434.22C329.004 434.038 322.094 431.427 314.151 424.974C313.224 424.186 312.843 423.101 312.942 421.765C313.043 420.407 313.643 418.808 314.67 417.089C316.722 413.655 320.398 409.88 324.744 406.832C329.09 403.782 334.055 401.495 338.665 400.978Z" fill="black"/>
<path d="M313.83 425.363C352.83 457.363 312.7 483.233 289.7 456.233C275.85 442.503 306.27 418.873 313.83 425.363Z" fill="#EAA252"/>
<path fill-rule="evenodd" clip-rule="evenodd" d="M289.333 456.573C285.742 453.003 285.021 448.769 286.079 444.582C287.132 440.419 289.937 436.304 293.383 432.862C296.832 429.416 300.964 426.601 304.733 425.055C306.616 424.282 308.431 423.818 310.037 423.763C311.641 423.709 313.081 424.063 314.151 424.98C323.949 433.02 328.842 440.727 330.236 447.381C331.635 454.057 329.499 459.63 325.346 463.298C317.062 470.612 300.972 470.222 289.333 456.573ZM310.071 424.763C311.521 424.713 312.685 425.039 313.504 425.742L313.512 425.75L313.513 425.749C323.212 433.708 327.926 441.234 329.257 447.586C330.584 453.917 328.563 459.123 324.684 462.548C316.905 469.416 301.44 469.244 290.08 455.909L290.067 455.893L290.052 455.878C286.731 452.586 286.064 448.723 287.049 444.827C288.041 440.901 290.716 436.939 294.089 433.569C297.459 430.203 301.483 427.469 305.112 425.98C306.927 425.236 308.621 424.812 310.071 424.763Z" fill="black"/>
<path d="M71.5698 24.4116C102.32 22.2616 128.11 15.4516 137.21 7.85156C143.48 20.0216 145.24 38.1216 140.03 51.1816C100.09 67.2216 57.4998 70.4916 12.5698 66.8316C0.449829 54.4816 0.16983 32.9516 3.78983 16.8816C13.4998 23.3316 40.3298 26.6116 71.5698 24.4216V24.4116Z" fill="#EAA252"/>
<path fill-rule="evenodd" clip-rule="evenodd" d="M137.368 7.07031L136.889 7.47044C132.43 11.1943 123.802 14.7752 112.385 17.6935C100.99 20.6062 86.885 22.8422 71.5349 23.9154L71.0698 23.9479V23.9576C55.6521 25.0131 41.3364 24.7325 29.6628 23.3974C17.846 22.046 8.81516 19.6221 4.06644 16.4677L3.46158 16.0659L3.302 16.7743C1.48201 24.8537 0.639999 34.3131 1.78125 43.3171C2.92221 52.3188 6.05141 60.906 12.2129 67.1844L12.3434 67.3174L12.5292 67.3326C57.5073 70.9965 100.181 67.7263 140.216 51.6482L140.415 51.5684L140.494 51.3695C145.765 38.1576 143.981 19.9062 137.654 7.62521L137.368 7.07031ZM137.043 8.63205C142.998 20.619 144.62 38.1023 139.644 50.8002C99.9117 66.7109 57.5352 69.9768 12.797 66.351C6.92354 60.2908 3.88918 51.995 2.77332 43.1913C1.68198 34.5811 2.43138 25.5234 4.12418 17.6892C9.21213 20.7884 18.1835 23.0911 29.5492 24.391C41.4109 25.7475 55.9595 26.0197 71.6047 24.923L72.0698 24.8904V24.8801C87.2898 23.791 101.285 21.5627 112.632 18.6624C123.684 15.8375 132.287 12.3595 137.043 8.63205Z" fill="black"/>
<path opacity="0.2" d="M282.463 495.821C270.463 498.821 261.463 495.821 254.463 490.821C247.463 485.821 249.463 481.821 228.463 460.821C213.953 446.311 189.463 425.821 171.463 410.821C161.663 402.661 152.143 396.981 145.463 389.821C136.173 379.851 130.533 372.721 128.463 368.821C118.463 354.821 106.793 344.091 86.9732 337.981C47.5832 332.221 7.23315 331.721 6.67316 281.431C6.53317 268.811 8.89316 256.301 13.6031 244.791C26.4532 216.821 23.4532 145.821 18.4532 101.821C16.1931 81.9709 14.5931 67.7909 12.3831 66.4109C-0.546844 53.8209 0.853149 32.9909 3.60315 16.4609C50.3631 45.1109 22.2731 125.461 34.4031 200.821C41.5432 245.211 11.4431 260.931 32.0531 294.751C52.6631 328.571 91.5531 325.461 109.453 333.821C124.453 340.821 138.613 363.681 146.453 372.821C149.233 376.071 169.753 395.271 180.453 402.821C191.153 410.371 215.743 431.261 220.453 435.821C234.283 449.191 245.953 461.321 248.453 464.821C254.743 473.621 266.053 482.611 269.453 483.821C283.453 488.821 291.453 478.821 298.453 479.821C297.453 490.821 282.453 495.821 282.453 495.821H282.463Z" fill="black"/>
<path opacity="0.2" d="M289.951 456.489C236.951 401.489 220.951 373.489 192.951 343.489C163.331 311.749 136.291 295.199 117.391 292.039C120.861 290.489 144.391 300.379 150.121 303.849C165.251 313.039 183.031 327.179 203.681 351.369C230.711 383.039 258.861 422.619 284.881 447.739C289.331 452.039 301.631 456.489 309.261 458.369C316.891 460.249 324.591 453.469 329.871 455.459C324.531 470.929 307.461 466.929 306.911 466.949C300.241 467.169 289.961 456.499 289.961 456.499L289.951 456.489Z" fill="black"/>
<path opacity="0.2" d="M313.979 425.509C268.979 379.509 255.049 353.849 227.589 323.359C211.419 305.399 201.069 288.479 169.849 274.969C169.849 274.969 191.589 282.449 204.409 294.709C208.959 299.059 218.999 309.879 234.189 327.949C242.849 338.249 250.539 347.439 259.869 359.199C264.909 365.559 276.129 379.329 286.489 391.999C289.389 395.549 298.859 407.379 309.759 416.809C316.089 422.289 320.689 423.349 330.889 425.519C341.089 427.689 350.899 418.679 353.699 420.509C341.729 449.149 313.989 425.519 313.989 425.519L313.979 425.509Z" fill="black"/>
<g clip-path="url(#clip1_4775_423472)">
<path d="M208.734 223.432C188.225 222.964 176.463 231.483 174.341 246.17C174.03 248.318 175.168 250.506 176.315 252.008C178.854 255.351 181.344 258.572 187.299 258.936C194.515 259.372 207.342 259.937 205.327 252.791" fill="#F7931E"/>
<path d="M208.734 223.432C188.225 222.964 176.463 231.483 174.341 246.17C174.03 248.318 175.168 250.506 176.315 252.008C178.854 255.351 181.344 258.572 187.299 258.936C194.515 259.372 207.342 259.937 205.327 252.791" stroke="black" stroke-width="0.338972" stroke-miterlimit="10" stroke-linecap="round"/>
<path opacity="0.2" d="M187.279 258.946C194.479 259.544 214.039 259.915 199.221 250.734C199.221 250.734 202.702 254.893 198.492 257.008C193.758 259.398 187.271 258.946 187.271 258.946H187.279Z" fill="black"/>
<path d="M196.944 240.273C196.944 252.239 203.931 259.054 212.203 256.438C218.461 254.468 222.516 247.379 222.516 240.217C222.516 233.055 218.461 225.965 212.203 223.987C203.931 221.371 196.944 228.307 196.944 240.273Z" fill="#FFF383" stroke="black" stroke-width="0.338972" stroke-miterlimit="10" stroke-linecap="round"/>
<path d="M218.176 233.415C216.497 229.127 213.327 225.607 209.207 224.307C208.175 223.984 207.159 223.806 206.176 223.766" stroke="black" stroke-width="0.338972" stroke-miterlimit="10" stroke-linecap="round"/>
<path d="M218.086 248.758C216.3 252.327 213.425 255.161 209.813 256.299C208.781 256.622 207.766 256.8 206.783 256.84" stroke="black" stroke-width="0.338972" stroke-miterlimit="10" stroke-linecap="round"/>
<path d="M195.08 240.308C195.072 221.858 208.996 223.44 208.996 223.44C202.239 223.351 197.021 229.932 197.021 240.275C197.021 250.619 202.452 257.377 209.414 256.981C209.414 256.981 195.088 258.636 195.08 240.308Z" fill="#C4711E" stroke="black" stroke-width="0.338972" stroke-miterlimit="10" stroke-linecap="round"/>
</g>
<g clip-path="url(#clip2_4775_423472)">
<path d="M139.734 260.432C119.225 259.964 107.463 268.483 105.341 283.17C105.03 285.318 106.168 287.506 107.315 289.008C109.854 292.351 112.344 295.572 118.299 295.936C125.515 296.372 138.342 296.937 136.327 289.791" fill="#F7931E"/>
<path d="M139.734 260.432C119.225 259.964 107.463 268.483 105.341 283.17C105.03 285.318 106.168 287.506 107.315 289.008C109.854 292.351 112.344 295.572 118.299 295.936C125.515 296.372 138.342 296.937 136.327 289.791" stroke="black" stroke-width="0.338972" stroke-miterlimit="10" stroke-linecap="round"/>
<path opacity="0.2" d="M118.279 295.946C125.479 296.544 145.039 296.915 130.221 287.734C130.221 287.734 133.702 291.893 129.492 294.008C124.758 296.398 118.271 295.946 118.271 295.946H118.279Z" fill="black"/>
<path d="M127.944 277.273C127.944 289.239 134.931 296.054 143.203 293.438C149.461 291.468 153.516 284.379 153.516 277.217C153.516 270.055 149.461 262.965 143.203 260.987C134.931 258.371 127.944 265.307 127.944 277.273Z" fill="#FFF383" stroke="black" stroke-width="0.338972" stroke-miterlimit="10" stroke-linecap="round"/>
<path d="M149.176 270.415C147.497 266.127 144.327 262.607 140.207 261.307C139.175 260.984 138.159 260.806 137.176 260.766" stroke="black" stroke-width="0.338972" stroke-miterlimit="10" stroke-linecap="round"/>
<path d="M149.086 285.758C147.3 289.327 144.425 292.161 140.813 293.299C139.781 293.622 138.766 293.8 137.783 293.84" stroke="black" stroke-width="0.338972" stroke-miterlimit="10" stroke-linecap="round"/>
<path d="M126.08 277.308C126.072 258.858 139.996 260.44 139.996 260.44C133.239 260.351 128.021 266.932 128.021 277.275C128.021 287.619 133.452 294.377 140.414 293.981C140.414 293.981 126.088 295.636 126.08 277.308Z" fill="#C4711E" stroke="black" stroke-width="0.338972" stroke-miterlimit="10" stroke-linecap="round"/>
</g>
<defs>
<clipPath id="clip0_4775_423472">
<rect width="133.99" height="24.99" fill="white" transform="matrix(-1 0 0 1 137.301 0.648438)"/>
</clipPath>
<clipPath id="clip1_4775_423472">
<rect width="49.0385" height="36.9565" fill="white" transform="matrix(-1 0 0 1 222.906 223)"/>
</clipPath>
<clipPath id="clip2_4775_423472">
<rect width="49.0385" height="36.9565" fill="white" transform="matrix(-1 0 0 1 153.906 260)"/>
</clipPath>
</defs>
</svg>
