<svg width="467" height="567" viewBox="0 0 467 567" fill="none" xmlns="http://www.w3.org/2000/svg">
<path d="M203.556 152.678C201.528 152.986 205.649 168.288 200.329 180.171C197.996 185.375 194.954 196.451 196.077 198.617C198.334 202.982 202.117 195.347 205.191 192.076C209.988 186.968 211.744 178.918 211.798 177.771C212.376 165.559 205.42 152.402 203.556 152.688V152.678Z" fill="#F1F1E6" stroke="black" stroke-miterlimit="10"/>
<path opacity="0.2" d="M195.848 197.423C197.003 205.547 204.144 192.421 207.219 189.15C207.219 189.15 200.928 196.234 198.791 197.518C196.644 198.803 195.848 197.423 195.848 197.423Z" fill="black"/>
<path d="M183.465 157.631C156.984 170.331 129.292 185.241 131.756 192.261C133.163 196.296 143.749 195.499 146.987 196.423C164.866 201.489 202.021 163.078 197.234 154.424C196.766 153.585 195.861 152.671 193.953 152.119C190.432 153.967 186.943 155.804 183.465 157.631Z" fill="#F1F1E6" stroke="black" stroke-miterlimit="10"/>
<path d="M194.455 148.022C182.343 165.608 165.641 178.691 160.07 181.102C151.413 184.84 137.797 189.576 130.721 185.148C124.42 181.208 114.63 178.84 114.215 175.006C113.648 169.803 130.372 169.654 148.426 164.536C161.934 160.702 172.007 153.268 195.916 142.182L199.121 146.971L194.466 148.022H194.455Z" fill="#F1F1E6" stroke="black" stroke-miterlimit="10"/>
<path opacity="0.2" d="M173.309 171.598C161 182.844 140.166 193.155 123.093 181.325C123.093 181.325 128.425 183.534 141.681 183.693C154.72 183.852 173.309 171.598 173.309 171.598Z" fill="black"/>
<path opacity="0.2" d="M178.637 182.314C170.613 188.155 161.509 196.077 151.916 196.81C141.428 195.387 138.56 197.139 132.106 192.955C135.377 194.729 136.991 194.41 150.204 194.336C163.068 194.261 178.626 182.314 178.626 182.314H178.637Z" fill="black"/>
<path d="M197.999 158.44C180.6 185.446 161.401 193.081 162.709 201.545C163.407 206.1 174.843 201.237 177.525 199.357C200.158 183.534 203.985 175.463 209.436 155.255C209.654 154.447 208.64 153.747 206.71 153.619C203.592 156.306 200.354 154.787 197.999 158.44Z" fill="#F1F1E6" stroke="black" stroke-miterlimit="10"/>
<path opacity="0.2" d="M162.22 201.307C164.128 207.721 182.771 199.396 193.945 185.145C193.945 185.145 182.095 194.67 174.093 198.132C166.276 201.52 162.22 201.307 162.22 201.307Z" fill="black"/>
<path d="M196.501 156.153C194.222 156.365 198.518 170.16 192.38 180.407C189.72 184.846 186.22 194.276 187.408 196.167C189.807 199.99 194.07 193.618 197.504 190.931C202.911 186.705 205.059 179.738 205.146 178.74C206.106 167.972 198.605 155.961 196.501 156.153Z" fill="#F1F1E6" stroke="black" stroke-miterlimit="10"/>
<path opacity="0.2" d="M187.248 195.013C188.611 200.79 194.062 193.622 197.507 190.935C202.915 186.709 201.486 187.282 202.816 184.574C202.816 184.574 199.262 187.303 195.85 190.203C193.866 191.891 191.413 194.333 190.486 194.663C187.957 195.555 187.248 195.013 187.248 195.013Z" fill="black"/>
<path d="M191.898 145.851C173.605 160.665 151.135 168.63 144.114 169.862C133.321 171.752 121.558 174.258 109.217 164.743C102.392 159.487 91.9586 153.062 92.2529 148.91C92.6454 143.271 112.019 148.389 134.084 148.708C150.71 148.952 164.174 144.269 194.973 140.074L197.688 146.223L191.909 145.851H191.898Z" fill="#F1F1E6" stroke="black" stroke-miterlimit="10"/>
<path opacity="0.2" d="M166.237 161.807C134.795 175.007 121.56 173.849 109.208 164.323C102.383 159.067 98.0986 157.718 94.6208 153.279C94.6208 153.279 106.221 162.083 121.418 166.946C133.4 170.78 165.855 161.616 169.78 160.575C175.678 159.003 166.237 161.807 166.237 161.807Z" fill="black"/>
<path d="M188.717 134.245C167.708 147.095 143.091 152.978 135.612 153.307C128.799 153.604 108.466 152.648 99.2756 145.056C92.4182 139.385 82.0503 132.026 82.6935 127.98C83.5657 122.468 103.615 129.296 126.934 131.665C144.552 133.449 159.314 130.093 192.609 128.819L194.844 135.148L188.717 134.245Z" fill="#F1F1E6" stroke="black" stroke-miterlimit="10"/>
<path opacity="0.2" d="M151.095 150.264C135.08 155.404 108.457 152.653 99.277 145.06C92.4195 139.39 85.4967 133.22 82.782 129.174C82.782 129.174 94.9706 141.057 111.738 147.227C121.506 150.827 143.442 149.276 151.803 148.204C157.603 147.46 151.084 150.264 151.084 150.264H151.095Z" fill="black"/>
<path d="M176.924 130.6C156.1 123.007 148.763 125.449 131.843 116.327C125.422 112.865 124.877 111.644 115.054 104.975C108.393 100.451 67.0954 72.4052 62.5819 80.391C59.8891 85.1485 68.9706 100.398 76.8964 109.807C94.6778 130.897 118.281 136.1 137.163 140.253C155.25 144.235 155.206 140.964 190.235 147.134C201.617 149.141 195.566 146.635 195.991 144.798C196.624 142.09 193.887 136.78 176.924 130.6Z" fill="#F1F1E6" stroke="black" stroke-miterlimit="10"/>
<path opacity="0.2" d="M64.1175 89.0195C66.9194 96.177 68.9908 100.51 76.9275 109.919C94.7089 131.009 120.285 138.187 159.468 143.741C159.468 143.741 162.062 143.264 151.629 140.768C133.902 136.541 102.853 128.439 91.6781 118.934C73.2317 103.26 64.1284 89.0195 64.1284 89.0195H64.1175Z" fill="black"/>
<path d="M171.608 114.997C151.417 104.017 143.807 105.248 127.672 93.3654C121.545 88.8521 121.131 87.5459 111.907 79.2734C105.65 73.6663 66.9252 38.9302 61.5505 46.1302C58.3452 50.4204 65.9222 67.1248 72.9541 77.8291C88.7404 101.85 112.038 110.919 130.659 118.172C148.484 125.117 148.768 121.825 183.393 133.719C194.633 137.574 188.8 134.091 189.4 132.317C190.294 129.716 188.048 123.949 171.608 115.008V114.997Z" fill="#F1F1E6" stroke="black" stroke-miterlimit="10"/>
<path opacity="0.2" d="M62.2078 54.9727C64.2901 62.5655 65.9363 67.2381 72.9682 77.9425C88.7545 101.953 113.851 113.337 152.772 125.294C152.772 125.294 155.432 125.231 145.173 121.036C127.741 113.91 97.2363 100.71 86.9229 89.3689C69.9156 70.6682 62.1969 54.9727 62.1969 54.9727H62.2078Z" fill="black"/>
<path d="M160.353 100.947C141.569 85.3998 133.72 84.8582 119.154 69.3538C113.627 63.4707 113.398 62.0795 105.287 51.7787C99.7921 44.7911 65.8538 1.60194 59.3561 7.41076C55.4749 10.8727 60.6316 29.0744 66.1481 41.2761C78.5656 68.7167 100.806 83.1166 118.587 94.6387C135.606 105.662 136.358 102.455 169.598 122.26C180.392 128.685 188.546 133.92 189.408 132.327C191.708 128.037 175.66 113.637 160.353 100.968V100.947Z" fill="#F1F1E6" stroke="black" stroke-miterlimit="10"/>
<path opacity="0.2" d="M58.7033 16.2617C59.6736 24.2263 60.6439 29.2068 66.1604 41.3979C78.5779 68.8278 102.301 85.9463 139.913 106.835C139.913 106.835 142.606 107.387 132.849 100.845C116.256 89.7375 87.3432 69.5712 78.5779 55.9465C64.1544 33.5183 58.7033 16.2617 58.7033 16.2617Z" fill="black"/>
<path d="M173.369 101.771C142.942 79.8848 123.536 58.1257 111.325 42.0372C94.9067 20.4161 83.6448 -1.22626 79.4475 1.18434C76.3731 2.95779 78.8042 16.6144 81.5407 25.4816C86.4575 41.4426 92.2248 52.7204 101.012 62.4796C106.67 68.7557 129.706 89.4848 153.375 100.37C158.226 102.6 165.454 105.382 174.111 112.869C183.432 120.918 186.888 127.874 188.774 126.961C191.489 125.644 189.101 109.014 180.423 103.534C177.708 101.814 175.081 101.655 173.358 101.771H173.369Z" fill="#F1F1E6" stroke="black" stroke-miterlimit="10"/>
<path opacity="0.2" d="M79.9499 17.8223C81.28 24.6824 81.8251 27.9107 82.9589 30.6293C88.9333 44.9336 94.3408 55.5637 102.932 64.6327C108.47 70.4733 130.132 90.2042 153.387 100.367C153.387 100.367 111.163 72.6822 97.655 51.8681C83.8093 30.5231 79.9499 17.8223 79.9499 17.8223Z" fill="black"/>
<path d="M204.686 150.964C202.004 149.679 196.716 157.93 194.154 163.484C193.783 164.281 188.627 175.622 191.156 177.693C193.38 179.52 201.764 174.337 204.936 165.927C207.171 160.001 206.975 152.058 204.686 150.964Z" fill="#F1F1E6" stroke="black" stroke-miterlimit="10"/>
<path opacity="0.2" d="M190.568 174.201C189.881 181.964 198.81 175.55 202.004 171.238C202.004 171.238 199.671 173.829 195.288 175.327C190.906 176.824 190.568 174.201 190.568 174.201Z" fill="black"/>
<path d="M210.379 158.554C208.275 157.555 204.1 164.076 202.083 168.462C201.799 169.088 197.733 178.04 199.706 179.676C201.45 181.12 208.046 177.01 210.554 170.362C212.32 165.679 212.167 159.403 210.368 158.554H210.379Z" fill="#F1F1E6" stroke="black" stroke-miterlimit="10"/>
<path opacity="0.2" d="M199.256 176.924C198.711 183.051 205.732 177.975 208.25 174.566C208.25 174.566 206.408 176.616 202.962 177.805C199.517 178.995 199.256 176.924 199.256 176.924Z" fill="black"/>
<path d="M217.061 163.122C215.415 162.092 211.621 166.998 209.702 170.364C209.43 170.842 205.559 177.745 207.053 179.274C208.372 180.633 213.987 177.947 216.451 172.775C218.184 169.132 218.467 163.993 217.061 163.122Z" fill="#F1F1E6" stroke="black" stroke-miterlimit="10"/>
<path opacity="0.2" d="M206.858 176.976C206.018 181.924 212.036 178.494 214.293 175.967C214.293 175.967 212.669 177.454 209.801 178.08C206.934 178.707 206.858 176.976 206.858 176.976Z" fill="black"/>
<path d="M198.655 155.862C196.475 153.908 189.17 158.57 185.224 162.053C184.657 162.553 176.676 169.657 178.486 172.174C180.089 174.383 189.399 173.236 194.72 167.745C198.481 163.869 200.509 157.53 198.655 155.862Z" fill="#F1F1E6" stroke="black" stroke-miterlimit="10"/>
<path opacity="0.2" d="M178.282 169.98C177.89 175.311 189.402 173.24 194.723 167.75C194.723 167.75 188.203 171.446 183.94 171.35C179.656 171.254 178.282 169.98 178.282 169.98Z" fill="black"/>
<path d="M195.784 144.812C181.774 146.278 174.077 149.06 168.212 151.885C165.672 153.117 161.529 158.182 162.26 159.924C163.132 162.005 169.717 163.11 173.598 163.375C178.406 163.704 192.011 164.352 197.484 150.334C198.084 148.795 198.455 147.414 198.684 146.469L195.773 144.791L195.784 144.812Z" fill="#F1F1E6" stroke="black" stroke-miterlimit="10"/>
<path opacity="0.2" d="M162.15 159.146C163.207 161.716 172.594 166.368 188.348 160.973C188.348 160.973 179.342 162.152 173.194 161.249C166.99 160.325 162.15 159.157 162.15 159.157V159.146Z" fill="black"/>
<path d="M192.476 138.506C175.261 140.375 149.369 147.458 150.415 152.927C150.819 155.062 158.777 154.117 163.182 155.317C170.562 157.334 182.762 152.46 190.797 147.235C192.236 146.301 194.656 144.326 195.125 143.423C194.122 142.765 193.588 138.389 192.476 138.506Z" fill="#F1F1E6" stroke="black" stroke-miterlimit="10"/>
<path opacity="0.2" d="M150.718 151.498C149.802 155.247 158.709 154.578 163.179 155.31C170.484 156.489 167.943 155.767 174.07 154.737C174.07 154.737 166.482 154.971 162.798 153.93C159.091 152.879 151.721 153.622 150.718 151.498Z" fill="black"/>
<path d="M188.902 131.432C171.252 130.03 160.797 131.315 152.893 132.589C149.469 133.141 143.539 135.977 143.833 137.761C144.182 139.895 151.748 141.276 156.131 143.612C162.683 147.106 177.717 148.837 189.055 137.028C190.309 135.722 191.236 134.511 191.824 133.683C190.843 132.929 189.873 132.175 188.892 131.421L188.902 131.432Z" fill="#F1F1E6" stroke="black" stroke-miterlimit="10"/>
<path opacity="0.2" d="M143.822 136.971C143.309 138.33 150.505 142.089 157.515 144.277C164.95 146.603 178.218 145.636 173.05 145.753C167.85 145.88 161.505 144.468 157.177 142.111C152.816 139.742 144.726 138.234 143.822 136.971Z" fill="black"/>
<path d="M166.55 125.401C159.704 125.316 139.589 121.068 138.924 123.84C138.259 126.612 147.679 131.125 152.192 132.654C157.785 134.555 171.173 138.389 186.033 131.815C187.657 131.093 187.984 126.282 188.605 125.475C187.646 124.615 173.342 125.486 166.561 125.401H166.55Z" fill="#F1F1E6" stroke="black" stroke-miterlimit="10"/>
<path opacity="0.2" d="M139.329 124.6C139.678 127.085 147.462 130.748 151.965 132.288C157.558 134.189 160.043 135.941 165.68 135.251C165.68 135.251 160 134.911 150.776 130.493C141.422 126.012 141.815 126.267 139.329 124.6Z" fill="black"/>
<path d="M176.721 117.264C152.867 112.177 132.087 109.469 132.316 114.152C132.447 116.828 141.42 121.724 143.916 122.478C167.988 129.752 185.77 127.055 188.277 124.188C188.604 123.816 187.612 120.152 186.282 119.037C183.077 118.443 179.893 117.859 176.721 117.275V117.264Z" fill="#F1F1E6" stroke="black" stroke-miterlimit="10"/>
<path opacity="0.2" d="M132.323 113.623C132.399 117.573 142.865 124.625 164.168 126.409C164.168 126.409 148.403 123.149 141.677 119.665C134.885 116.15 132.323 113.634 132.323 113.634V113.623Z" fill="black"/>
<path d="M177.062 111.04C151.421 98.1803 128.33 90.3644 126.945 95.2705C126.16 98.0741 134.664 107.132 137.237 108.683C162.192 123.731 183.342 119.706 187.321 117.561C187.834 117.285 188.161 110.732 187.038 109.161C183.538 107.504 180.497 112.644 177.052 111.03L177.062 111.04Z" fill="#F1F1E6" stroke="black" stroke-miterlimit="10"/>
<path opacity="0.2" d="M126.948 95.2676C128.987 104.337 143.497 116.804 167.766 119.055C167.766 119.055 146.212 112.418 139.202 107.374C132.225 102.351 127.951 98.1136 126.948 95.2676Z" fill="black"/>
<path d="M176.72 100.922C152.07 83.8672 129.601 70.5824 127.268 75.0637C125.949 77.6124 131.378 87.669 133.417 90.207C153.673 115.29 182.858 112.179 187.437 110.862C188.036 110.692 187.622 109.195 186.739 107.506C183.381 105.297 180.034 103.11 176.709 100.922H176.72Z" fill="#F1F1E6" stroke="black" stroke-miterlimit="10"/>
<path opacity="0.2" d="M127.267 75.0497C127.43 84.0656 139.641 107.439 173.906 111.527C173.906 111.527 158.436 106.865 147.261 99.8035C143.489 97.4248 137.351 91.5629 136.13 89.9381C131.235 83.4178 128.51 79.7647 127.267 75.0391V75.0497Z" fill="black"/>
<path d="M172.844 90.3901C160.1 84.3795 150.985 77.6574 145.087 72.6982C134.076 63.4593 124.907 52.5638 123.49 54.1036C123.163 54.4646 123.25 55.4947 124.373 58.1283C128.81 68.5247 136.965 74.5566 141.642 78.1035C161.593 93.2361 163.468 95.0839 167.11 98.7901C175.581 107.424 181.86 105.045 183.496 108.294C187.693 116.673 186.079 109.133 187.061 109.155C188.598 109.197 188.249 117.024 183.474 104.387C181.915 100.277 180.105 97.0166 178.677 94.7547C176.725 93.2892 174.796 91.8344 172.855 90.3901H172.844Z" fill="#F1F1E6" stroke="black" stroke-miterlimit="10"/>
<path opacity="0.2" d="M123.393 53.9355C123.066 54.2966 123.164 54.2966 124.363 57.9815C128.789 71.5319 153.712 86.7602 158.258 90.2115C158.258 90.2115 140.171 74.7815 134.491 68.6965C128.746 62.5585 123.393 53.9355 123.393 53.9355Z" fill="black"/>
<path d="M159.216 68.546C159.369 68.4398 163.087 75.969 170.238 84.3265C177.794 93.1406 180.519 92.7902 184.509 99.0131C189.622 106.978 188.162 112.192 191.127 123.013C193.046 129.99 194.06 136.914 203.25 146.747C212.233 156.347 214.054 155.413 218.655 165.289C220.072 168.337 220.694 173.115 218.906 174.432C218.262 174.91 216.093 175.823 207.164 168.496C198.006 160.977 192.446 156.475 186.788 138.602C183.408 127.93 186.613 126.655 182.231 113.381C180.279 107.456 177.805 102.656 172.964 93.3318C165.583 79.1124 159.02 68.6735 159.205 68.546H159.216Z" fill="#F1F1E6" stroke="black" stroke-miterlimit="10"/>
<path opacity="0.2" d="M219.766 173.103C218.763 175.089 216.103 175.832 207.174 168.505C198.016 160.986 192.456 156.483 186.798 138.611C183.418 127.938 186.623 126.664 182.24 113.39C180.289 107.464 177.814 102.664 172.974 93.3404C165.593 79.121 159.03 68.6821 159.215 68.5547C159.215 68.5547 171.458 85.9918 174.773 92.2678C178.054 98.5014 184.672 109.312 186.59 123.075C187.146 127.036 187.713 136.466 190.45 142.593C191.714 145.429 192.892 148.699 194.702 151.779C196.239 154.37 198.365 156.802 200.011 158.99C205.702 166.551 212.112 170.65 215.972 172.423C217.945 173.326 219.766 173.113 219.766 173.113V173.103Z" fill="black"/>
<path d="M161.248 92.4662C191.998 90.3162 217.788 83.5062 226.888 75.9062C228.538 78.3463 229.768 81.1163 230.508 84.2663C231.998 95.7263 234.958 108.106 229.698 119.236C228.888 120.946 228.398 122.796 228.418 124.696C229.038 177.386 231.958 270.506 284.538 308.736C312.568 330.756 326.818 349.056 334.198 355.286C341.908 361.786 371.338 384.026 383.188 390.006C476.978 437.376 403.698 509.826 333.608 507.676C214.818 504.596 238.748 425.526 176.828 406.446C176.518 406.346 176.198 406.276 175.878 406.236C136.618 400.796 99.4775 399.556 96.8475 349.806C96.7975 337.186 98.4975 324.666 103.458 313.256C119.668 275.996 110.028 179.226 104.718 140.726C104.348 138.546 103.988 136.196 102.228 134.886C90.6275 123.746 91.2075 105.316 92.0175 90.2362C92.3575 88.3362 92.8475 86.5763 93.4375 84.9263C103.148 91.3763 129.978 94.6562 161.218 92.4662H161.248Z" fill="#FAF9F6"/>
<path fill-rule="evenodd" clip-rule="evenodd" d="M226.992 75.1719L226.567 75.5266C222.108 79.2505 213.479 82.8314 202.062 85.7497C190.672 88.6612 176.573 90.8966 161.23 91.9704H161.2L161.182 91.9716C145.588 93.0648 131.101 92.792 119.31 91.4436C107.494 90.0922 98.4627 87.6683 93.714 84.5139L93.1817 84.1603L92.9665 84.762C92.368 86.4358 91.8705 88.2226 91.5251 90.1523L91.5197 90.1827L91.5181 90.2135C91.1132 97.7504 90.7618 106.176 91.9743 114.118C93.1875 122.065 95.9733 129.578 101.881 135.251L101.904 135.273L101.929 135.291C102.701 135.866 103.185 136.681 103.521 137.648C103.846 138.582 104.022 139.617 104.2 140.671L104.222 140.799C104.222 140.801 104.223 140.804 104.223 140.807C106.876 160.046 110.611 193.841 111.658 227.476C112.181 244.296 112.032 261.067 110.741 275.954C109.45 290.851 107.019 303.821 102.999 313.061C98.0024 324.555 96.2971 337.149 96.3473 349.812L96.3474 349.825L96.348 349.837C97.0088 362.335 99.8393 371.828 104.359 379.114C108.882 386.404 115.075 391.451 122.404 395.089C129.725 398.724 138.183 400.954 147.246 402.616C153.813 403.821 160.722 404.73 167.76 405.657C170.428 406.008 173.115 406.362 175.809 406.736L175.815 406.736C176.105 406.773 176.394 406.836 176.674 406.926L176.68 406.928C192.043 411.662 202.08 420.112 210.355 430.201C214.497 435.251 218.197 440.71 221.906 446.328C222.469 447.182 223.034 448.04 223.6 448.901C226.752 453.695 229.961 458.574 233.489 463.362C241.819 474.667 251.952 485.498 267.47 493.689C282.983 501.878 303.84 507.408 333.592 508.18C368.78 509.259 404.803 491.624 420.272 467.687C428.02 455.698 430.624 442.1 425.33 428.501C420.045 414.923 406.92 401.437 383.413 389.564C377.53 386.595 367.241 379.565 357.434 372.441C347.635 365.324 338.362 358.147 334.52 354.908C332.698 353.371 330.442 351.078 327.627 348.139C326.937 347.418 326.213 346.658 325.454 345.863C323.13 343.424 320.481 340.644 317.467 337.586C309.468 329.469 298.882 319.374 284.846 308.347L284.839 308.341L284.831 308.336C258.692 289.33 244.853 256.643 237.481 222.039C230.113 187.447 229.227 151.039 228.917 124.694C228.898 122.885 229.365 121.11 230.149 119.454C232.827 113.789 233.404 107.82 233.133 101.856C232.94 97.5973 232.31 93.3045 231.697 89.1197C231.454 87.4619 231.213 85.821 231.003 84.2059L231 84.1807L230.994 84.156C230.24 80.9479 228.986 78.1216 227.301 75.6303L226.992 75.1719ZM226.774 76.6463C228.234 78.9165 229.334 81.4733 230.015 84.3603C230.229 86.002 230.471 87.6552 230.714 89.316C231.325 93.4817 231.943 97.696 232.134 101.902C232.401 107.775 231.828 113.562 229.245 119.026C228.41 120.791 227.896 122.716 227.917 124.706C228.227 151.051 229.112 187.549 236.503 222.247C243.891 256.93 257.8 289.914 284.236 309.139C298.226 320.13 308.778 330.193 316.755 338.288C319.762 341.339 322.402 344.109 324.725 346.547C325.485 347.344 326.211 348.106 326.905 348.831C329.714 351.764 332.006 354.095 333.875 355.672C337.743 358.934 347.04 366.127 356.846 373.25C366.643 380.366 376.995 387.446 382.962 390.457C406.35 402.269 419.236 415.603 424.399 428.864C429.553 442.106 427.042 455.368 419.432 467.144C404.186 490.737 368.525 508.251 333.623 507.181L333.62 507.181C303.978 506.412 283.281 500.904 267.937 492.805C252.597 484.707 242.57 474.001 234.294 462.769C230.783 458.004 227.591 453.151 224.439 448.357C223.872 447.495 223.306 446.635 222.74 445.777C219.03 440.158 215.306 434.66 211.128 429.567C202.763 419.368 192.572 410.779 176.977 405.973C176.639 405.865 176.292 405.788 175.944 405.745C175.943 405.745 175.941 405.744 175.939 405.744L175.877 406.24L175.946 405.745C175.945 405.745 175.945 405.745 175.944 405.745C173.235 405.369 170.539 405.014 167.866 404.662C160.838 403.737 153.967 402.832 147.426 401.632C138.401 399.977 130.048 397.768 122.848 394.194C115.656 390.623 109.617 385.692 105.209 378.587C100.801 371.481 98.0027 362.166 97.3473 349.796C97.3473 349.8 97.3473 349.804 97.3473 349.808L96.8473 349.81L97.3466 349.784C97.3468 349.788 97.347 349.792 97.3473 349.796C97.2986 337.224 98.9938 324.782 103.916 313.46C108.001 304.07 110.443 290.971 111.738 276.041C113.033 261.101 113.181 244.287 112.657 227.445C111.609 193.76 107.869 159.924 105.213 140.662L105.212 140.654L105.21 140.647L105.182 140.477C105.007 139.447 104.819 138.335 104.466 137.32C104.093 136.249 103.524 135.242 102.552 134.509C102.559 134.516 102.566 134.523 102.574 134.53L102.227 134.89L102.526 134.489C102.535 134.496 102.543 134.502 102.552 134.509C96.8744 129.044 94.1556 121.78 92.9629 113.967C91.7695 106.151 92.1105 97.8332 92.5149 90.2983C92.5131 90.3083 92.5113 90.3184 92.5095 90.3284L92.0173 90.2403L92.5166 90.2672C92.5161 90.2775 92.5155 90.2879 92.5149 90.2983C92.8088 88.6651 93.2153 87.1366 93.7019 85.6926C93.5162 85.5784 93.3358 85.4631 93.1607 85.3468L93.4373 84.9304L93.9081 85.0987C93.8379 85.2951 93.7691 85.493 93.7019 85.6926C98.7773 88.8134 107.779 91.1313 119.197 92.4371C131.054 93.7932 145.596 94.0657 161.235 92.9704H161.217V92.4704L161.252 92.9691C161.251 92.9692 161.249 92.9694 161.247 92.9695C161.243 92.9698 161.239 92.9701 161.235 92.9704H161.265L161.282 92.9691C176.682 91.8924 190.847 89.6484 202.31 86.7185C213.403 83.8831 222.029 80.3895 226.774 76.6463Z" fill="black"/>
<path d="M161.259 93.1381C192.009 90.9881 217.799 84.1781 226.899 76.5781C228.549 79.0181 229.779 81.7881 230.519 84.9381C232.009 96.3981 234.969 108.778 229.709 119.908C228.899 121.618 228.409 123.468 228.429 125.368C229.049 178.058 231.969 271.178 284.549 309.408C312.579 331.428 326.829 349.728 334.209 355.958C341.919 362.458 371.349 384.698 383.199 390.678C476.989 438.048 403.709 510.498 333.619 508.348C214.829 505.268 238.759 426.198 176.839 407.118C176.529 407.018 176.209 406.948 175.889 406.908C136.629 401.468 99.4893 400.228 96.8593 350.478C96.8093 337.858 98.5092 325.338 103.469 313.928C119.679 276.668 110.039 179.898 104.729 141.398C104.359 139.218 103.999 136.868 102.239 135.558C90.6392 124.418 91.2192 105.988 92.0292 90.9081C92.3692 89.0081 92.8592 87.2481 93.4492 85.5981C103.159 92.0481 129.989 95.3281 161.229 93.1381H161.259Z" fill="#FAF9F6"/>
<path fill-rule="evenodd" clip-rule="evenodd" d="M227.003 75.8438L226.579 76.1985C222.12 79.9223 213.491 83.5032 202.074 86.4215C190.683 89.3331 176.585 91.5685 161.242 92.6422H161.212L161.194 92.6434C145.599 93.7367 131.113 93.4639 119.322 92.1155C107.505 90.764 98.4744 88.3401 93.7257 85.1857L93.1934 84.8322L92.9782 85.4339C92.3797 87.1077 91.8821 88.8945 91.5368 90.8242L91.5314 90.8546L91.5298 90.8854C91.1249 98.4222 90.7735 106.848 91.986 114.79C93.1992 122.737 95.985 130.249 101.893 135.923L101.915 135.945L101.94 135.963C102.713 136.538 103.196 137.353 103.533 138.32C103.858 139.254 104.033 140.289 104.212 141.342L104.234 141.471C104.234 141.473 104.234 141.476 104.235 141.479C106.888 160.718 110.623 194.513 111.669 228.148C112.193 244.968 112.044 261.739 110.753 276.626C109.462 291.523 107.03 304.493 103.011 313.733C98.0142 325.226 96.3089 337.821 96.359 350.484L96.3591 350.496L96.3597 350.509C97.0205 363.007 99.851 372.5 104.371 379.786C108.894 387.076 115.087 392.123 122.415 395.761C129.737 399.396 138.195 401.626 147.257 403.288C153.825 404.492 160.734 405.402 167.771 406.329C170.44 406.68 173.127 407.034 175.82 407.408L175.827 407.408C176.117 407.445 176.406 407.508 176.686 407.598L176.692 407.6C192.055 412.334 202.092 420.784 210.367 430.873C214.509 435.923 218.209 441.382 221.917 447C222.481 447.854 223.046 448.713 223.612 449.573C226.764 454.367 229.972 459.246 233.5 464.034C241.83 475.339 251.964 486.17 267.482 494.361C282.995 502.55 303.852 508.08 333.604 508.852C368.791 509.931 404.815 492.296 420.284 468.359C428.032 456.369 430.636 442.772 425.342 429.173C420.056 415.595 406.931 402.108 383.424 390.236C377.541 387.267 367.253 380.236 357.445 373.113C347.647 365.996 338.373 358.819 334.532 355.58C332.71 354.043 330.454 351.75 327.639 348.811C326.948 348.09 326.224 347.33 325.466 346.534C323.141 344.095 320.493 341.316 317.479 338.258C309.48 330.141 298.894 320.046 284.858 309.019L284.851 309.013L284.843 309.008C258.703 290.002 244.864 257.315 237.493 222.711C230.124 188.119 229.239 151.711 228.929 125.366C228.91 123.556 229.377 121.782 230.161 120.126C232.839 114.461 233.416 108.492 233.145 102.528C232.951 98.2692 232.322 93.9764 231.708 89.7915C231.465 88.1337 231.225 86.4929 231.015 84.8778L231.012 84.8526L231.006 84.8279C230.252 81.6198 228.998 78.7935 227.313 76.3021L227.003 75.8438ZM226.786 77.3181C228.246 79.5884 229.346 82.1452 230.027 85.0321C230.24 86.6739 230.483 88.327 230.726 89.9879C231.337 94.1536 231.955 98.3679 232.146 102.574C232.412 108.447 231.839 114.234 229.257 119.698C228.421 121.463 227.908 123.388 227.929 125.377C228.239 151.723 229.124 188.221 236.515 222.919C243.903 257.602 257.812 290.586 284.247 309.811C298.238 320.802 308.789 330.865 316.767 338.959C319.774 342.011 322.414 344.781 324.737 347.219C325.497 348.016 326.223 348.778 326.917 349.503C329.725 352.435 332.018 354.767 333.887 356.344C337.755 359.606 347.051 366.799 356.858 373.922C366.655 381.038 377.007 388.117 382.974 391.129C406.362 402.941 419.248 416.275 424.41 429.536C429.565 442.778 427.054 456.04 419.444 467.816C404.198 491.408 368.537 508.923 333.634 507.852L333.632 507.852C303.99 507.084 283.293 501.576 267.949 493.477C252.608 485.379 242.581 474.673 234.305 463.441C230.795 458.676 227.603 453.822 224.45 449.028C223.883 448.166 223.318 447.306 222.752 446.449C219.042 440.829 215.318 435.332 211.14 430.239C202.775 420.04 192.584 411.451 176.989 406.645C176.651 406.536 176.303 406.46 175.956 406.417C175.954 406.417 175.953 406.416 175.951 406.416L175.889 406.912L175.958 406.417C175.957 406.417 175.956 406.417 175.956 406.417C173.247 406.041 170.551 405.686 167.878 405.334C160.85 404.409 153.979 403.504 147.438 402.304C138.413 400.649 130.06 398.44 122.86 394.866C115.668 391.295 109.629 386.364 105.221 379.259C100.812 372.153 98.0145 362.838 97.359 350.468C97.359 350.472 97.359 350.476 97.359 350.48L96.859 350.482L97.3583 350.456C97.3586 350.46 97.3588 350.464 97.359 350.468C97.3103 337.895 99.0056 325.454 103.928 314.132C108.013 304.742 110.455 291.643 111.749 276.713C113.044 261.773 113.193 244.959 112.669 228.117C111.621 194.431 107.881 160.595 105.224 141.334L105.223 141.326L105.222 141.319L105.193 141.149C105.019 140.119 104.831 139.007 104.478 137.992C104.105 136.921 103.535 135.914 102.563 135.181C102.571 135.188 102.578 135.195 102.585 135.202L102.239 135.562L102.538 135.161C102.546 135.168 102.555 135.174 102.563 135.181C96.886 129.716 94.1673 122.452 92.9745 114.639C91.7812 106.822 92.1222 98.5051 92.5266 90.9701C92.5248 90.9802 92.523 90.9902 92.5212 91.0003L92.029 90.9122L92.5283 90.939C92.5277 90.9494 92.5272 90.9598 92.5266 90.9701C92.8205 89.337 93.227 87.8085 93.7136 86.3644C93.5279 86.2503 93.3475 86.135 93.1724 86.0187L93.449 85.6022L93.9198 85.7706C93.8496 85.967 93.7808 86.1649 93.7136 86.3644C98.7891 89.4853 107.791 91.8032 119.208 93.109C131.066 94.465 145.608 94.7376 161.247 93.6422H161.229V93.1422L161.264 93.641C161.262 93.6411 161.261 93.6412 161.259 93.6413C161.255 93.6416 161.251 93.6419 161.247 93.6422H161.276L161.294 93.641C176.694 92.5643 190.859 90.3203 202.322 87.3904C213.415 84.5549 222.041 81.0614 226.786 77.3181Z" fill="black"/>
<path d="M394.899 397C325.779 411.24 287.129 445.97 280.849 499.24C293.929 503.5 310.349 507.12 330.569 507.65C398.049 510.41 471.689 444.65 394.899 397.01V397Z" fill="#DCDCE0"/>
<path fill-rule="evenodd" clip-rule="evenodd" d="M395.399 396.391L394.798 396.514C360.182 403.646 333.148 415.918 313.975 433.116C294.793 450.322 283.506 472.435 280.353 499.186L280.305 499.593L280.694 499.72C293.813 503.992 310.28 507.622 330.552 508.154C364.431 509.538 399.872 493.734 417.229 471.542C425.918 460.434 430.102 447.684 427.221 434.68C424.353 421.735 414.51 408.649 395.399 396.736V396.391ZM394.793 397.537C413.818 409.378 423.451 422.286 426.245 434.896C429.044 447.534 424.999 459.985 416.442 470.926C399.307 492.833 364.19 508.529 330.59 507.155L330.582 507.154C310.617 506.631 294.371 503.087 281.394 498.895C284.587 472.559 295.747 450.809 314.643 433.86C333.607 416.85 360.389 404.651 394.793 397.537Z" fill="black"/>
<path d="M103.539 313.197C99.5394 324.977 96.8694 337.127 96.9294 349.747C99.4694 397.797 134.199 400.597 171.939 405.627C191.719 337.377 166.729 308.487 103.549 313.187L103.539 313.197Z" fill="#DCDCE0"/>
<path fill-rule="evenodd" clip-rule="evenodd" d="M171.579 405.074C170.381 404.915 169.187 404.758 167.998 404.601C150.563 402.307 134.123 400.144 121.47 393.378C114.68 389.747 108.994 384.795 104.844 377.787C100.694 370.777 98.0624 361.68 97.4294 349.732C97.372 337.297 99.9801 325.308 103.91 313.661C135.279 311.38 156.985 317.447 168.458 332.355C179.932 347.263 181.327 371.205 171.579 405.074ZM169.251 331.745C157.419 316.372 135.149 310.334 103.512 312.688L103.327 312.702L103.104 312.925L103.066 313.036C99.0545 324.85 96.3691 337.057 96.4295 349.749L96.4295 349.761L96.4302 349.773C97.0683 361.844 99.7302 371.112 103.984 378.296C108.24 385.484 114.072 390.556 120.999 394.26C133.82 401.116 150.441 403.301 167.815 405.586C169.164 405.763 170.517 405.941 171.873 406.122L172.3 406.179L172.42 405.766C182.32 371.604 181.076 347.11 169.251 331.745Z" fill="black"/>
<path d="M161.249 92.4741C191.999 90.3241 217.789 83.5141 226.889 75.9141C228.539 78.3541 229.769 81.1241 230.509 84.2741C231.999 95.7341 234.959 108.114 229.699 119.244C189.759 135.284 147.169 138.554 102.239 134.894C90.639 123.754 91.2191 105.324 92.0291 90.2441C92.3691 88.3441 92.8591 86.5841 93.4491 84.9341C103.159 91.3841 129.989 94.6641 161.229 92.4741H161.249Z" fill="#DCDCE0"/>
<path fill-rule="evenodd" clip-rule="evenodd" d="M226.993 75.1719L226.569 75.5266C222.11 79.2505 213.481 82.8314 202.064 85.7497C190.673 88.6612 176.575 90.8966 161.232 91.9704H161.212L161.194 91.9716C145.599 93.0648 131.113 92.792 119.322 91.4436C107.505 90.0922 98.4744 87.6683 93.7257 84.5139L93.1934 84.1603L92.9783 84.762C92.3798 86.4358 91.8822 88.2226 91.5369 90.1523L91.5314 90.1827L91.5298 90.2135C91.1249 97.7504 90.7735 106.176 91.986 114.118C93.1993 122.065 95.985 129.578 101.893 135.251L102.021 135.374L102.198 135.389C147.177 139.053 189.85 135.782 229.885 119.704L230.067 119.631L230.151 119.454C232.829 113.788 233.406 107.82 233.135 101.856C232.941 97.5974 232.312 93.3046 231.699 89.1198C231.455 87.462 231.215 85.821 231.005 84.2059L231.002 84.1807L230.996 84.156C230.242 80.9479 228.988 78.1216 227.303 75.6303L226.993 75.1719ZM226.776 76.6463C228.236 78.9164 229.336 81.4732 230.017 84.3601C230.23 86.0019 230.473 87.6551 230.716 89.316C231.327 93.4817 231.945 97.696 232.136 101.902C232.4 107.712 231.842 113.437 229.33 118.85C189.59 134.767 147.205 138.034 102.458 134.406C96.8523 128.954 94.1599 121.732 92.9746 113.967C91.7812 106.15 92.1222 97.8331 92.5267 90.2982C92.8205 88.665 93.227 87.1366 93.7136 85.6926C98.7891 88.8134 107.791 91.1313 119.209 92.4371C131.066 93.7932 145.608 94.0657 161.247 92.9704H161.267L161.284 92.9691C176.684 91.8924 190.849 89.6484 202.312 86.7185C213.405 83.8831 222.031 80.3895 226.776 76.6463Z" fill="black"/>
<path d="M93.63 84.4437C93.63 89.6437 126.2 96.1737 161.6 93.3537C197.01 90.5437 227.07 79.6937 226.6 75.5837C226.37 73.5637 207.46 68.1037 162.16 69.8337C116.86 71.5637 93.62 81.7937 93.62 84.4337L93.63 84.4437Z" fill="#DCDCE0"/>
<path fill-rule="evenodd" clip-rule="evenodd" d="M226.105 75.6583C226.111 75.757 226.077 75.9169 225.92 76.1533C225.754 76.4025 225.479 76.6951 225.077 77.0258C224.273 77.6863 223.038 78.4386 221.399 79.2511C218.129 80.8731 213.338 82.6931 207.411 84.4775C195.561 88.045 179.229 91.4532 161.56 92.8553L161.56 92.8553C143.899 94.2622 126.945 93.3362 114.416 91.412C108.148 90.4495 103.006 89.24 99.4416 87.9558C97.6563 87.3126 96.2926 86.6597 95.385 86.0254C94.4471 85.3699 94.13 84.8299 94.13 84.4437V84.4019C94.1451 84.3626 94.1831 84.287 94.2782 84.1714C94.4236 83.9946 94.66 83.7762 95.0045 83.5213C95.6913 83.013 96.7433 82.4062 98.1718 81.7345C101.024 80.3932 105.315 78.822 111.033 77.2751C122.465 74.1824 139.562 71.1971 162.179 70.3334C184.808 69.4692 200.831 70.4015 211.215 71.798C216.408 72.4965 220.18 73.3097 222.658 74.0679C223.9 74.4478 224.799 74.8087 225.385 75.1256C225.68 75.2847 225.876 75.4229 225.996 75.5338C226.071 75.6037 226.097 75.6453 226.105 75.6583ZM211.348 70.8069C200.894 69.401 184.812 68.4683 162.141 69.3341C139.458 70.2004 122.285 73.1951 110.772 76.3098C105.017 77.8667 100.667 79.4561 97.7463 80.8295C96.2882 81.5152 95.1707 82.1542 94.4096 82.7175C94.0301 82.9983 93.723 83.2721 93.5059 83.5361C93.2987 83.788 93.12 84.0952 93.12 84.4337V84.641L93.1437 84.6647C93.2459 85.4873 93.9106 86.215 94.8122 86.8451C95.824 87.5522 97.2815 88.2405 99.1027 88.8966C102.751 90.2112 107.964 91.4329 114.264 92.4004C126.869 94.3363 143.901 95.2653 161.64 93.8522C179.381 92.4443 195.784 89.0225 207.699 85.435C213.655 83.6419 218.504 81.8031 221.844 80.147C223.51 79.3204 224.823 78.5288 225.712 77.7983C226.156 77.4335 226.512 77.0688 226.753 76.7062C226.992 76.3456 227.144 75.9441 227.097 75.5272M211.348 70.8069C216.573 71.5097 220.403 72.3321 222.951 73.1117ZM222.951 73.1117C224.222 73.5007 225.192 73.8843 225.861 74.2459ZM225.861 74.2459C226.194 74.426 226.471 74.6106 226.676 74.8008ZM226.676 74.8008C226.87 74.9806 227.062 75.2235 227.097 75.5269Z" fill="black"/>
<path opacity="0.2" d="M384.129 496.865C368.869 504.095 351.149 508.225 333.619 507.685C214.829 504.605 238.759 425.535 176.839 406.455C176.529 406.355 176.209 406.285 175.889 406.245C136.629 400.805 99.4887 399.565 96.8587 349.815C96.8087 337.195 98.7587 324.775 103.469 313.265C119.049 275.225 110.039 179.235 104.729 140.735C104.359 138.555 103.999 136.205 102.239 134.895C92.5687 125.605 91.3687 111.245 91.6987 97.9953C91.7687 95.3553 93.3187 87.4553 93.4587 84.9453C93.4587 84.9453 101.529 86.4953 110.009 101.225C118.489 115.955 117.189 129.445 120.809 134.935C124.429 140.425 117.129 224.915 124.269 269.305C131.409 313.695 101.309 329.415 121.919 363.235C142.529 397.055 159.499 375.925 188.479 391.665C217.459 407.405 255.439 454.375 284.679 473.465C331.399 498.105 365.489 486.075 374.569 482.745C381.459 480.215 426.369 455.895 423.949 461.155C413.509 483.845 384.119 496.875 384.119 496.875L384.129 496.865Z" fill="black"/>
<path opacity="0.2" d="M93.6186 83.7625C92.9286 87.2825 114.029 94.4225 151.309 93.9225C142.199 91.7525 118.069 87.1625 115.439 84.8225C110.189 80.1425 116.079 75.5525 111.869 76.5525C101.089 79.1125 93.7386 83.1825 93.6286 83.7725L93.6186 83.7625Z" fill="black"/>
<path d="M146.556 178.678C144.528 178.986 148.649 194.288 143.329 206.171C140.996 211.375 137.954 222.451 139.077 224.617C141.334 228.982 145.117 221.347 148.191 218.076C152.988 212.968 154.744 204.918 154.798 203.771C155.376 191.559 148.42 178.402 146.556 178.688V178.678Z" fill="#F1F1E6" stroke="black" stroke-miterlimit="10"/>
<path opacity="0.2" d="M138.848 223.423C140.003 231.547 147.144 218.421 150.219 215.15C150.219 215.15 143.928 222.234 141.791 223.518C139.644 224.803 138.848 223.423 138.848 223.423Z" fill="black"/>
<path d="M126.465 183.631C99.9838 196.331 72.2924 211.241 74.7563 218.261C76.1626 222.296 86.7486 221.499 89.9865 222.423C107.866 227.489 145.021 189.078 140.234 180.424C139.766 179.585 138.861 178.671 136.953 178.119C133.432 179.967 129.943 181.804 126.465 183.631Z" fill="#F1F1E6" stroke="black" stroke-miterlimit="10"/>
<path d="M137.455 174.022C125.343 191.608 108.641 204.691 103.07 207.102C94.4133 210.84 80.7966 215.576 73.7211 211.148C67.4197 207.208 57.6295 204.84 57.2153 201.006C56.6483 195.803 73.3722 195.654 91.4262 190.536C104.934 186.702 115.007 179.268 138.916 168.182L142.121 172.971L137.466 174.022H137.455Z" fill="#F1F1E6" stroke="black" stroke-miterlimit="10"/>
<path opacity="0.2" d="M116.309 197.598C104 208.844 83.1661 219.155 66.0934 207.325C66.0934 207.325 71.4245 209.534 84.6815 209.693C97.7205 209.852 116.309 197.598 116.309 197.598Z" fill="black"/>
<path opacity="0.2" d="M121.637 208.314C113.613 214.155 104.509 222.077 94.9156 222.81C84.4277 221.387 81.5605 223.139 75.1064 218.955C78.377 220.729 79.9906 220.41 93.2039 220.336C106.068 220.261 121.626 208.314 121.626 208.314H121.637Z" fill="black"/>
<path d="M140.999 184.44C123.6 211.446 104.401 219.081 105.709 227.545C106.407 232.1 117.843 227.237 120.525 225.357C143.158 209.534 146.985 201.463 152.436 181.255C152.654 180.447 151.64 179.747 149.71 179.619C146.592 182.306 143.354 180.787 140.999 184.44Z" fill="#F1F1E6" stroke="black" stroke-miterlimit="10"/>
<path opacity="0.2" d="M105.22 227.307C107.128 233.721 125.771 225.396 136.945 211.145C136.945 211.145 125.095 220.67 117.093 224.132C109.276 227.52 105.22 227.307 105.22 227.307Z" fill="black"/>
<path d="M139.501 182.153C137.222 182.365 141.518 196.16 135.38 206.407C132.72 210.846 129.22 220.276 130.408 222.167C132.807 225.99 137.07 219.618 140.504 216.931C145.911 212.705 148.059 205.738 148.146 204.74C149.106 193.972 141.605 181.961 139.501 182.153Z" fill="#F1F1E6" stroke="black" stroke-miterlimit="10"/>
<path opacity="0.2" d="M130.248 221.013C131.611 226.79 137.062 219.622 140.507 216.935C145.915 212.709 144.486 213.282 145.816 210.574C145.816 210.574 142.262 213.303 138.85 216.203C136.866 217.891 134.413 220.333 133.486 220.663C130.957 221.555 130.248 221.013 130.248 221.013Z" fill="black"/>
<path d="M134.898 171.851C116.605 186.665 94.1354 194.63 87.1144 195.862C76.3213 197.752 64.5579 200.258 52.2167 190.743C45.3919 185.487 34.9586 179.062 35.2529 174.91C35.6454 169.271 55.0185 174.389 77.0844 174.708C93.7102 174.952 107.174 170.269 137.973 166.074L140.688 172.223L134.909 171.851H134.898Z" fill="#F1F1E6" stroke="black" stroke-miterlimit="10"/>
<path opacity="0.2" d="M109.237 187.807C77.7952 201.007 64.56 199.849 52.2078 190.323C45.3831 185.067 41.0986 183.718 37.6208 179.279C37.6208 179.279 49.2207 188.083 64.4182 192.946C76.3997 196.78 108.855 187.616 112.78 186.575C118.678 185.003 109.237 187.807 109.237 187.807Z" fill="black"/>
<path d="M131.717 160.245C110.708 173.095 86.0913 178.978 78.6125 179.307C71.7986 179.604 51.4661 178.648 42.2756 171.056C35.4182 165.385 25.0503 158.026 25.6935 153.98C26.5657 148.468 46.6147 155.296 69.9344 157.665C87.5522 159.449 102.314 156.093 135.609 154.819L137.844 161.148L131.717 160.245Z" fill="#F1F1E6" stroke="black" stroke-miterlimit="10"/>
<path opacity="0.2" d="M94.0948 176.264C78.0796 181.404 51.4566 178.653 42.277 171.06C35.4195 165.39 28.4967 159.22 25.782 155.174C25.782 155.174 37.9706 167.057 54.7381 173.227C64.5064 176.827 86.4415 175.276 94.8035 174.204C100.603 173.46 94.0839 176.264 94.0839 176.264H94.0948Z" fill="black"/>
<path d="M119.924 156.6C99.1004 149.007 91.7633 151.449 74.8432 142.327C68.4218 138.865 67.8767 137.644 58.0539 130.975C51.3927 126.451 10.0954 98.4052 5.58191 106.391C2.88908 111.148 11.9706 126.398 19.8964 135.807C37.6778 156.897 61.2809 162.1 80.1634 166.253C98.2501 170.235 98.2065 166.964 133.235 173.134C144.617 175.141 138.566 172.635 138.991 170.798C139.624 168.09 136.887 162.78 119.924 156.6Z" fill="#F1F1E6" stroke="black" stroke-miterlimit="10"/>
<path opacity="0.2" d="M7.11753 115.02C9.91938 122.177 11.9908 126.51 19.9275 135.919C37.7089 157.009 63.2853 164.187 102.468 169.741C102.468 169.741 105.062 169.264 94.629 166.768C76.9021 162.541 45.8528 154.439 34.6781 144.934C16.2317 129.26 7.12842 115.02 7.12842 115.02H7.11753Z" fill="black"/>
<path d="M114.608 140.997C94.4168 130.017 86.8071 131.248 70.6719 119.365C64.5449 114.852 64.1306 113.546 54.9074 105.273C48.6496 99.6663 9.92521 64.9302 4.55046 72.1302C1.34523 76.4204 8.92222 93.1248 15.9541 103.829C31.7404 127.85 55.0383 136.919 73.6591 144.172C91.4841 151.117 91.7675 147.825 126.393 159.719C137.633 163.574 131.8 160.091 132.4 158.317C133.294 155.716 131.048 149.949 114.608 141.008V140.997Z" fill="#F1F1E6" stroke="black" stroke-miterlimit="10"/>
<path opacity="0.2" d="M5.20777 80.9727C7.29008 88.5655 8.93629 93.2381 15.9682 103.942C31.7545 127.953 56.8512 139.337 95.7718 151.294C95.7718 151.294 98.4319 151.231 88.173 147.036C70.7405 139.91 40.2363 126.71 29.9229 115.369C12.9156 96.6682 5.19687 80.9727 5.19687 80.9727H5.20777Z" fill="black"/>
<path d="M103.353 126.947C84.5691 111.4 76.7196 110.858 62.1543 95.3538C56.6269 89.4707 56.398 88.0795 48.2868 77.7787C42.7921 70.7911 8.85376 27.6019 2.35609 33.4108C-1.52507 36.8727 3.63164 55.0744 9.14812 67.2761C21.5656 94.7167 43.806 109.117 61.5874 120.639C78.6056 131.662 79.3579 128.455 112.598 148.26C123.392 154.685 131.546 159.92 132.408 158.327C134.708 154.037 118.66 139.637 103.353 126.968V126.947Z" fill="#F1F1E6" stroke="black" stroke-miterlimit="10"/>
<path opacity="0.2" d="M1.70329 42.2617C2.67358 50.2263 3.64387 55.2068 9.16035 67.3979C21.5779 94.8278 45.3009 111.946 82.9133 132.835C82.9133 132.835 85.6061 133.387 75.8487 126.845C59.2557 115.737 30.3432 95.5712 21.5779 81.9465C7.15435 59.5183 1.70329 42.2617 1.70329 42.2617Z" fill="black"/>
<path d="M116.369 127.771C85.9415 105.885 66.5357 84.1257 54.3253 68.0372C37.9067 46.4161 26.6448 24.7737 22.4475 27.1843C19.3731 28.9578 21.8042 42.6144 24.5407 51.4816C29.4575 67.4426 35.2248 78.7204 44.0119 88.4796C49.6701 94.7557 72.7063 115.485 96.3748 126.37C101.226 128.6 108.454 131.382 117.111 138.869C126.432 146.918 129.888 153.874 131.774 152.961C134.489 151.644 132.101 135.014 123.423 129.534C120.708 127.814 118.081 127.655 116.358 127.771H116.369Z" fill="#F1F1E6" stroke="black" stroke-miterlimit="10"/>
<path opacity="0.2" d="M22.9499 43.8223C24.28 50.6824 24.8251 53.9107 25.9589 56.6293C31.9333 70.9336 37.3408 81.5637 45.9316 90.6327C51.4699 96.4733 73.1325 116.204 96.3867 126.367C96.3867 126.367 54.1627 98.6822 40.655 77.8681C26.8093 56.5231 22.9499 43.8223 22.9499 43.8223Z" fill="black"/>
<path d="M147.686 176.964C145.004 175.679 139.716 183.93 137.154 189.484C136.783 190.281 131.627 201.622 134.156 203.693C136.38 205.52 144.764 200.337 147.936 191.927C150.171 186.001 149.975 178.058 147.686 176.964Z" fill="#F1F1E6" stroke="black" stroke-miterlimit="10"/>
<path opacity="0.2" d="M133.568 200.201C132.881 207.964 141.81 201.55 145.004 197.238C145.004 197.238 142.671 199.829 138.288 201.327C133.906 202.824 133.568 200.201 133.568 200.201Z" fill="black"/>
<path d="M153.379 184.554C151.275 183.555 147.1 190.076 145.083 194.462C144.799 195.088 140.733 204.04 142.706 205.676C144.45 207.12 151.046 203.01 153.554 196.362C155.32 191.679 155.167 185.403 153.368 184.554H153.379Z" fill="#F1F1E6" stroke="black" stroke-miterlimit="10"/>
<path opacity="0.2" d="M142.256 202.924C141.711 209.051 148.732 203.975 151.25 200.566C151.25 200.566 149.408 202.616 145.962 203.805C142.517 204.995 142.256 202.924 142.256 202.924Z" fill="black"/>
<path d="M160.061 189.122C158.415 188.092 154.621 192.998 152.702 196.364C152.43 196.842 148.559 203.745 150.053 205.274C151.372 206.633 156.987 203.947 159.451 198.775C161.184 195.132 161.467 189.993 160.061 189.122Z" fill="#F1F1E6" stroke="black" stroke-miterlimit="10"/>
<path opacity="0.2" d="M149.858 202.976C149.018 207.924 155.036 204.494 157.293 201.967C157.293 201.967 155.669 203.454 152.801 204.08C149.934 204.707 149.858 202.976 149.858 202.976Z" fill="black"/>
<path d="M141.655 181.862C139.475 179.908 132.17 184.57 128.224 188.053C127.657 188.553 119.676 195.657 121.486 198.174C123.089 200.383 132.399 199.236 137.72 193.745C141.481 189.869 143.509 183.53 141.655 181.862Z" fill="#F1F1E6" stroke="black" stroke-miterlimit="10"/>
<path opacity="0.2" d="M121.282 195.98C120.89 201.311 132.402 199.24 137.723 193.75C137.723 193.75 131.203 197.446 126.94 197.35C122.656 197.254 121.282 195.98 121.282 195.98Z" fill="black"/>
<path d="M138.784 170.812C124.774 172.278 117.077 175.06 111.212 177.885C108.672 179.117 104.529 184.182 105.26 185.924C106.132 188.005 112.717 189.11 116.598 189.375C121.406 189.704 135.011 190.352 140.484 176.334C141.084 174.795 141.455 173.414 141.684 172.469L138.773 170.791L138.784 170.812Z" fill="#F1F1E6" stroke="black" stroke-miterlimit="10"/>
<path opacity="0.2" d="M105.15 185.146C106.207 187.716 115.594 192.368 131.348 186.973C131.348 186.973 122.342 188.152 116.194 187.249C109.99 186.325 105.15 185.157 105.15 185.157V185.146Z" fill="black"/>
<path d="M135.476 164.506C118.261 166.375 92.3687 173.458 93.4153 178.927C93.8187 181.062 101.777 180.117 106.182 181.317C113.562 183.334 125.762 178.46 133.797 173.235C135.236 172.301 137.656 170.326 138.125 169.423C137.122 168.765 136.588 164.389 135.476 164.506Z" fill="#F1F1E6" stroke="black" stroke-miterlimit="10"/>
<path opacity="0.2" d="M93.7179 177.498C92.8022 181.247 101.709 180.578 106.179 181.31C113.484 182.489 110.943 181.767 117.07 180.737C117.07 180.737 109.482 180.971 105.798 179.93C102.091 178.879 94.7209 179.622 93.7179 177.498Z" fill="black"/>
<path d="M131.902 157.432C114.252 156.03 103.797 157.315 95.8927 158.589C92.4694 159.141 86.5387 161.977 86.833 163.761C87.1819 165.895 94.748 167.276 99.1306 169.612C105.683 173.106 120.717 174.837 132.055 163.028C133.309 161.722 134.236 160.511 134.824 159.683C133.843 158.929 132.873 158.175 131.892 157.421L131.902 157.432Z" fill="#F1F1E6" stroke="black" stroke-miterlimit="10"/>
<path opacity="0.2" d="M86.8216 162.971C86.3092 164.33 93.5046 168.089 100.515 170.277C107.95 172.603 121.218 171.636 116.05 171.753C110.85 171.88 104.505 170.468 100.177 168.111C95.8158 165.742 87.7265 164.234 86.8216 162.971Z" fill="black"/>
<path d="M109.55 151.401C102.704 151.316 82.5895 147.068 81.9244 149.84C81.2594 152.612 90.6789 157.125 95.1923 158.654C100.785 160.555 114.173 164.389 129.033 157.815C130.657 157.093 130.984 152.282 131.605 151.475C130.646 150.615 116.342 151.486 109.561 151.401H109.55Z" fill="#F1F1E6" stroke="black" stroke-miterlimit="10"/>
<path opacity="0.2" d="M82.3292 150.6C82.6781 153.085 90.4622 156.748 94.9648 158.288C100.558 160.189 103.043 161.941 108.68 161.251C108.68 161.251 103 160.911 93.7765 156.493C84.4224 152.012 84.8149 152.267 82.3292 150.6Z" fill="black"/>
<path d="M119.721 143.264C95.8669 138.177 75.0874 135.469 75.3163 140.152C75.4472 142.828 84.4196 147.724 86.9162 148.478C110.988 155.752 128.77 153.055 131.277 150.188C131.604 149.816 130.612 146.152 129.282 145.037C126.077 144.443 122.893 143.859 119.721 143.275V143.264Z" fill="#F1F1E6" stroke="black" stroke-miterlimit="10"/>
<path opacity="0.2" d="M75.3228 139.623C75.3991 143.573 85.8652 150.625 107.168 152.409C107.168 152.409 91.4035 149.149 84.6769 145.665C77.8848 142.15 75.3228 139.634 75.3228 139.634V139.623Z" fill="black"/>
<path d="M120.062 137.04C94.4206 124.18 71.3299 116.364 69.9453 121.271C69.1604 124.074 77.664 133.132 80.2369 134.683C105.192 149.731 126.342 145.706 130.321 143.561C130.834 143.285 131.161 136.732 130.038 135.161C126.538 133.504 123.497 138.644 120.052 137.03L120.062 137.04Z" fill="#F1F1E6" stroke="black" stroke-miterlimit="10"/>
<path opacity="0.2" d="M69.948 121.268C71.9867 130.337 86.4975 142.804 110.766 145.055C110.766 145.055 89.2121 138.418 82.202 133.374C75.2247 128.351 70.951 124.114 69.948 121.268Z" fill="black"/>
<path d="M119.72 126.922C95.0702 109.867 72.6009 96.5824 70.2678 101.064C68.9486 103.612 74.3779 113.669 76.4166 116.207C96.6728 141.29 125.858 138.179 130.437 136.862C131.036 136.692 130.622 135.195 129.739 133.506C126.381 131.297 123.034 129.11 119.709 126.922H119.72Z" fill="#F1F1E6" stroke="black" stroke-miterlimit="10"/>
<path opacity="0.2" d="M70.2669 101.05C70.4304 110.066 82.6408 133.439 116.906 137.527C116.906 137.527 101.436 132.865 90.2614 125.804C86.4893 123.425 80.3514 117.563 79.1303 115.938C74.2353 109.418 71.5098 105.765 70.2669 101.039V101.05Z" fill="black"/>
<path d="M115.844 116.39C103.1 110.38 93.9854 103.657 88.0873 98.6982C77.0762 89.4593 67.9075 78.5638 66.4902 80.1036C66.1632 80.4646 66.2504 81.4947 67.3733 84.1283C71.8105 94.5247 79.9653 100.557 84.6423 104.103C104.593 119.236 106.468 121.084 110.11 124.79C118.581 133.424 124.86 131.045 126.496 134.294C130.693 142.673 129.079 135.133 130.061 135.155C131.598 135.197 131.249 143.024 126.474 130.387C124.915 126.277 123.105 123.017 121.677 120.755C119.725 119.289 117.796 117.834 115.855 116.39H115.844Z" fill="#F1F1E6" stroke="black" stroke-miterlimit="10"/>
<path opacity="0.2" d="M66.3928 79.9355C66.0657 80.2966 66.1638 80.2966 67.3631 83.9815C71.7893 97.5319 96.7116 112.76 101.258 116.211C101.258 116.211 83.1712 100.781 77.4912 94.6965C71.7457 88.5585 66.3928 79.9355 66.3928 79.9355Z" fill="black"/>
<path d="M102.216 94.546C102.369 94.4398 106.087 101.969 113.238 110.326C120.794 119.141 123.519 118.79 127.509 125.013C132.622 132.978 131.162 138.192 134.127 149.013C136.046 155.99 137.06 162.914 146.25 172.747C155.233 182.347 157.054 181.413 161.655 191.289C163.072 194.337 163.694 199.115 161.906 200.432C161.262 200.91 159.093 201.823 150.164 194.496C141.006 186.977 135.446 182.475 129.788 164.602C126.408 153.93 129.613 152.655 125.231 139.381C123.279 133.456 120.805 128.656 115.964 119.332C108.583 105.112 102.02 94.6735 102.205 94.546H102.216Z" fill="#F1F1E6" stroke="black" stroke-miterlimit="10"/>
<path opacity="0.2" d="M162.766 199.103C161.763 201.089 159.103 201.832 150.174 194.505C141.016 186.986 135.456 182.483 129.798 164.611C126.418 153.938 129.623 152.664 125.24 139.39C123.289 133.464 120.814 128.664 115.974 119.34C108.593 105.121 102.03 94.6821 102.215 94.5547C102.215 94.5547 114.458 111.992 117.773 118.268C121.054 124.501 127.672 135.312 129.59 149.075C130.146 153.036 130.713 162.466 133.45 168.593C134.714 171.429 135.892 174.699 137.702 177.779C139.239 180.37 141.365 182.802 143.011 184.99C148.702 192.551 155.112 196.65 158.972 198.423C160.945 199.326 162.766 199.113 162.766 199.113V199.103Z" fill="black"/>
</svg>
