<svg width="468" height="489" viewBox="0 0 468 489" fill="none" xmlns="http://www.w3.org/2000/svg">
<path d="M203.685 152.678C201.657 152.986 205.778 168.288 200.458 180.171C198.125 185.375 195.083 196.451 196.206 198.617C198.463 202.982 202.246 195.347 205.32 192.076C210.117 186.968 211.872 178.918 211.927 177.771C212.505 165.559 205.549 152.402 203.685 152.688V152.678Z" fill="#F1F1E6" stroke="black" stroke-miterlimit="10"/>
<path opacity="0.2" d="M195.977 197.423C197.132 205.547 204.273 192.421 207.348 189.15C207.348 189.15 201.057 196.234 198.92 197.518C196.773 198.803 195.977 197.423 195.977 197.423Z" fill="black"/>
<path d="M183.594 157.631C157.113 170.331 129.421 185.241 131.885 192.261C133.292 196.296 143.878 195.499 147.115 196.423C164.995 201.489 202.149 163.078 197.363 154.424C196.895 153.585 195.99 152.671 194.082 152.119C190.56 153.967 187.072 155.804 183.594 157.631Z" fill="#F1F1E6" stroke="black" stroke-miterlimit="10"/>
<path d="M194.584 148.022C182.472 165.608 165.77 178.691 160.199 181.102C151.542 184.84 137.925 189.576 130.85 185.148C124.549 181.208 114.758 178.84 114.344 175.006C113.777 169.803 130.501 169.654 148.555 164.536C162.063 160.702 172.136 153.268 196.045 142.182L199.25 146.971L194.595 148.022H194.584Z" fill="#F1F1E6" stroke="black" stroke-miterlimit="10"/>
<path opacity="0.2" d="M173.438 171.598C161.129 182.844 140.295 193.155 123.222 181.325C123.222 181.325 128.553 183.534 141.81 183.693C154.849 183.852 173.438 171.598 173.438 171.598Z" fill="black"/>
<path opacity="0.2" d="M178.766 182.314C170.742 188.155 161.638 196.077 152.044 196.81C141.557 195.387 138.689 197.139 132.235 192.955C135.506 194.729 137.119 194.41 150.333 194.336C163.197 194.261 178.755 182.314 178.755 182.314H178.766Z" fill="black"/>
<path d="M198.128 158.44C180.728 185.446 161.53 193.081 162.838 201.545C163.536 206.1 174.972 201.237 177.654 199.357C200.287 183.534 204.114 175.463 209.565 155.255C209.783 154.447 208.769 153.747 206.839 153.619C203.721 156.306 200.483 154.787 198.128 158.44Z" fill="#F1F1E6" stroke="black" stroke-miterlimit="10"/>
<path opacity="0.2" d="M162.349 201.307C164.257 207.721 182.9 199.396 194.074 185.145C194.074 185.145 182.224 194.67 174.221 198.132C166.405 201.52 162.349 201.307 162.349 201.307Z" fill="black"/>
<path d="M196.63 156.153C194.351 156.365 198.647 170.16 192.509 180.407C189.849 184.846 186.349 194.276 187.537 196.167C189.936 199.99 194.198 193.618 197.633 190.931C203.04 186.705 205.188 179.738 205.275 178.74C206.234 167.972 198.734 155.961 196.63 156.153Z" fill="#F1F1E6" stroke="black" stroke-miterlimit="10"/>
<path opacity="0.2" d="M187.377 195.013C188.74 200.79 194.191 193.622 197.636 190.935C203.043 186.709 201.615 187.282 202.945 184.574C202.945 184.574 199.391 187.303 195.979 190.203C193.995 191.891 191.542 194.333 190.615 194.663C188.086 195.555 187.377 195.013 187.377 195.013Z" fill="black"/>
<path d="M192.027 145.851C173.734 160.665 151.264 168.63 144.243 169.862C133.45 171.752 121.687 174.258 109.346 164.743C102.521 159.487 92.0875 153.062 92.3819 148.91C92.7743 143.271 112.147 148.389 134.213 148.708C150.839 148.952 164.303 144.269 195.102 140.074L197.816 146.223L192.038 145.851H192.027Z" fill="#F1F1E6" stroke="black" stroke-miterlimit="10"/>
<path opacity="0.2" d="M166.366 161.807C134.924 175.007 121.689 173.849 109.337 164.323C102.512 159.067 98.2275 157.718 94.7497 153.279C94.7497 153.279 106.35 162.083 121.547 166.946C133.529 170.78 165.984 161.616 169.909 160.575C175.807 159.003 166.366 161.807 166.366 161.807Z" fill="black"/>
<path d="M188.846 134.245C167.837 147.095 143.22 152.978 135.741 153.307C128.928 153.604 108.595 152.648 99.4045 145.056C92.5471 139.385 82.1792 132.026 82.8224 127.98C83.6946 122.468 103.744 129.296 127.063 131.665C144.681 133.449 159.443 130.093 192.738 128.819L194.973 135.148L188.846 134.245Z" fill="#F1F1E6" stroke="black" stroke-miterlimit="10"/>
<path opacity="0.2" d="M151.224 150.264C135.208 155.404 108.585 152.653 99.4059 145.06C92.5484 139.39 85.6256 133.22 82.9109 129.174C82.9109 129.174 95.0995 141.057 111.867 147.227C121.635 150.827 143.57 149.276 151.932 148.204C157.732 147.46 151.213 150.264 151.213 150.264H151.224Z" fill="black"/>
<path d="M177.052 130.6C156.229 123.007 148.892 125.449 131.972 116.327C125.551 112.865 125.006 111.644 115.183 104.975C108.522 100.451 67.2243 72.4052 62.7108 80.391C60.018 85.1485 69.0995 100.398 77.0253 109.807C94.8067 130.897 118.41 136.1 137.292 140.253C155.379 144.235 155.335 140.964 190.364 147.134C201.746 149.141 195.695 146.635 196.12 144.798C196.753 142.09 194.016 136.78 177.052 130.6Z" fill="#F1F1E6" stroke="black" stroke-miterlimit="10"/>
<path opacity="0.2" d="M64.2464 89.0195C67.0483 96.177 69.1197 100.51 77.0564 109.919C94.8378 131.009 120.414 138.187 159.597 143.741C159.597 143.741 162.191 143.264 151.758 140.768C134.031 136.541 102.982 128.439 91.807 118.934C73.3606 103.26 64.2573 89.0195 64.2573 89.0195H64.2464Z" fill="black"/>
<path d="M171.736 114.997C151.546 104.017 143.936 105.248 127.801 93.3654C121.674 88.8521 121.26 87.5459 112.036 79.2734C105.779 73.6663 67.0541 38.9302 61.6794 46.1302C58.4741 50.4204 66.0511 67.1248 73.083 77.8291C88.8693 101.85 112.167 110.919 130.788 118.172C148.613 125.117 148.896 121.825 183.522 133.719C194.762 137.574 188.929 134.091 189.529 132.317C190.423 129.716 188.177 123.949 171.736 115.008V114.997Z" fill="#F1F1E6" stroke="black" stroke-miterlimit="10"/>
<path opacity="0.2" d="M62.3367 54.9727C64.419 62.5655 66.0652 67.2381 73.0971 77.9425C88.8834 101.953 113.98 113.337 152.901 125.294C152.901 125.294 155.561 125.231 145.302 121.036C127.869 113.91 97.3652 100.71 87.0518 89.3689C70.0445 70.6682 62.3258 54.9727 62.3258 54.9727H62.3367Z" fill="black"/>
<path d="M160.482 100.947C141.698 85.3998 133.848 84.8582 119.283 69.3538C113.756 63.4707 113.527 62.0795 105.416 51.7787C99.921 44.7911 65.9827 1.60194 59.485 7.41076C55.6038 10.8727 60.7605 29.0744 66.277 41.2761C78.6946 68.7167 100.935 83.1166 118.716 94.6387C135.735 105.662 136.487 102.455 169.727 122.26C180.52 128.685 188.675 133.92 189.537 132.327C191.837 128.037 175.789 113.637 160.482 100.968V100.947Z" fill="#F1F1E6" stroke="black" stroke-miterlimit="10"/>
<path opacity="0.2" d="M58.8322 16.2617C59.8025 24.2263 60.7728 29.2068 66.2893 41.3979C78.7068 68.8278 102.43 85.9463 140.042 106.835C140.042 106.835 142.735 107.387 132.978 100.845C116.385 89.7375 87.4721 69.5712 78.7068 55.9465C64.2833 33.5183 58.8322 16.2617 58.8322 16.2617Z" fill="black"/>
<path d="M173.498 101.771C143.07 79.8848 123.665 58.1257 111.454 42.0372C95.0356 20.4161 83.7737 -1.22626 79.5764 1.18434C76.502 2.95779 78.9332 16.6144 81.6696 25.4816C86.5864 41.4426 92.3537 52.7204 101.141 62.4796C106.799 68.7557 129.835 89.4848 153.504 100.37C158.355 102.6 165.583 105.382 174.24 112.869C183.561 120.918 187.017 127.874 188.903 126.961C191.618 125.644 189.23 109.014 180.552 103.534C177.837 101.814 175.21 101.655 173.487 101.771H173.498Z" fill="#F1F1E6" stroke="black" stroke-miterlimit="10"/>
<path opacity="0.2" d="M80.0788 17.8223C81.4089 24.6824 81.954 27.9107 83.0878 30.6293C89.0622 44.9336 94.4697 55.5637 103.061 64.6327C108.599 70.4733 130.261 90.2042 153.516 100.367C153.516 100.367 111.292 72.6822 97.7839 51.8681C83.9382 30.5231 80.0788 17.8223 80.0788 17.8223Z" fill="black"/>
<path d="M204.814 150.964C202.133 149.679 196.845 157.93 194.283 163.484C193.912 164.281 188.756 175.622 191.285 177.693C193.509 179.52 201.893 174.337 205.065 165.927C207.3 160.001 207.104 152.058 204.814 150.964Z" fill="#F1F1E6" stroke="black" stroke-miterlimit="10"/>
<path opacity="0.2" d="M190.696 174.201C190.01 181.964 198.938 175.55 202.133 171.238C202.133 171.238 199.8 173.829 195.417 175.327C191.034 176.824 190.696 174.201 190.696 174.201Z" fill="black"/>
<path d="M210.508 158.554C208.404 157.555 204.228 164.076 202.212 168.462C201.928 169.088 197.862 178.04 199.835 179.676C201.579 181.12 208.175 177.01 210.682 170.362C212.449 165.679 212.296 159.403 210.497 158.554H210.508Z" fill="#F1F1E6" stroke="black" stroke-miterlimit="10"/>
<path opacity="0.2" d="M199.385 176.924C198.84 183.051 205.861 177.975 208.379 174.566C208.379 174.566 206.536 176.616 203.091 177.805C199.646 178.995 199.385 176.924 199.385 176.924Z" fill="black"/>
<path d="M217.19 163.122C215.544 162.092 211.75 166.998 209.831 170.364C209.558 170.842 205.688 177.745 207.182 179.274C208.501 180.633 214.116 177.947 216.579 172.775C218.313 169.132 218.596 163.993 217.19 163.122Z" fill="#F1F1E6" stroke="black" stroke-miterlimit="10"/>
<path opacity="0.2" d="M206.987 176.976C206.147 181.924 212.165 178.494 214.422 175.967C214.422 175.967 212.797 177.454 209.93 178.08C207.063 178.707 206.987 176.976 206.987 176.976Z" fill="black"/>
<path d="M198.784 155.862C196.604 153.908 189.299 158.57 185.353 162.053C184.786 162.553 176.805 169.657 178.615 172.174C180.218 174.383 189.528 173.236 194.848 167.745C198.61 163.869 200.637 157.53 198.784 155.862Z" fill="#F1F1E6" stroke="black" stroke-miterlimit="10"/>
<path opacity="0.2" d="M178.411 169.98C178.019 175.311 189.531 173.24 194.852 167.75C194.852 167.75 188.332 171.446 184.069 171.35C179.785 171.254 178.411 169.98 178.411 169.98Z" fill="black"/>
<path d="M195.913 144.812C181.903 146.278 174.206 149.06 168.341 151.885C165.801 153.117 161.658 158.182 162.388 159.924C163.261 162.005 169.846 163.11 173.727 163.375C178.535 163.704 192.14 164.352 197.613 150.334C198.213 148.795 198.584 147.414 198.812 146.469L195.902 144.791L195.913 144.812Z" fill="#F1F1E6" stroke="black" stroke-miterlimit="10"/>
<path opacity="0.2" d="M162.279 159.146C163.336 161.716 172.723 166.368 188.477 160.973C188.477 160.973 179.471 162.152 173.323 161.249C167.119 160.325 162.279 159.157 162.279 159.157V159.146Z" fill="black"/>
<path d="M192.605 138.506C175.39 140.375 149.498 147.458 150.544 152.927C150.948 155.062 158.906 154.117 163.311 155.317C170.691 157.334 182.891 152.46 190.926 147.235C192.365 146.301 194.785 144.326 195.254 143.423C194.251 142.765 193.717 138.389 192.605 138.506Z" fill="#F1F1E6" stroke="black" stroke-miterlimit="10"/>
<path opacity="0.2" d="M150.847 151.498C149.931 155.247 158.838 154.578 163.308 155.31C170.612 156.489 168.072 155.767 174.199 154.737C174.199 154.737 166.611 154.971 162.926 153.93C159.22 152.879 151.85 153.622 150.847 151.498Z" fill="black"/>
<path d="M189.031 131.432C171.381 130.03 160.926 131.315 153.022 132.589C149.598 133.141 143.668 135.977 143.962 137.761C144.311 139.895 151.877 141.276 156.26 143.612C162.812 147.106 177.846 148.837 189.184 137.028C190.438 135.722 191.364 134.511 191.953 133.683C190.972 132.929 190.002 132.175 189.02 131.421L189.031 131.432Z" fill="#F1F1E6" stroke="black" stroke-miterlimit="10"/>
<path opacity="0.2" d="M143.95 136.971C143.438 138.33 150.633 142.089 157.644 144.277C165.079 146.603 178.347 145.636 173.179 145.753C167.979 145.88 161.634 144.468 157.306 142.111C152.945 139.742 144.855 138.234 143.95 136.971Z" fill="black"/>
<path d="M166.679 125.401C159.833 125.316 139.718 121.068 139.053 123.84C138.388 126.612 147.808 131.125 152.321 132.654C157.914 134.555 171.302 138.389 186.161 131.815C187.786 131.093 188.113 126.282 188.734 125.475C187.775 124.615 173.471 125.486 166.69 125.401H166.679Z" fill="#F1F1E6" stroke="black" stroke-miterlimit="10"/>
<path opacity="0.2" d="M139.458 124.6C139.807 127.085 147.591 130.748 152.094 132.288C157.687 134.189 160.172 135.941 165.809 135.251C165.809 135.251 160.129 134.911 150.905 130.493C141.551 126.012 141.944 126.267 139.458 124.6Z" fill="black"/>
<path d="M176.85 117.264C152.996 112.177 132.216 109.469 132.445 114.152C132.576 116.828 141.549 121.724 144.045 122.478C168.117 129.752 185.898 127.055 188.406 124.188C188.733 123.816 187.741 120.152 186.411 119.037C183.206 118.443 180.022 117.859 176.85 117.275V117.264Z" fill="#F1F1E6" stroke="black" stroke-miterlimit="10"/>
<path opacity="0.2" d="M132.452 113.623C132.528 117.573 142.994 124.625 164.297 126.409C164.297 126.409 148.532 123.149 141.806 119.665C135.014 116.15 132.452 113.634 132.452 113.634V113.623Z" fill="black"/>
<path d="M177.191 111.04C151.55 98.1803 128.459 90.3644 127.074 95.2705C126.289 98.0741 134.793 107.132 137.366 108.683C162.321 123.731 183.471 119.706 187.45 117.561C187.963 117.285 188.29 110.732 187.167 109.161C183.667 107.504 180.626 112.644 177.18 111.03L177.191 111.04Z" fill="#F1F1E6" stroke="black" stroke-miterlimit="10"/>
<path opacity="0.2" d="M127.077 95.2676C129.116 104.337 143.626 116.804 167.895 119.055C167.895 119.055 146.341 112.418 139.331 107.374C132.354 102.351 128.08 98.1136 127.077 95.2676Z" fill="black"/>
<path d="M176.849 100.922C152.199 83.8672 129.73 70.5824 127.397 75.0637C126.078 77.6124 131.507 87.669 133.546 90.207C153.802 115.29 182.987 112.179 187.566 110.862C188.165 110.692 187.751 109.195 186.868 107.506C183.51 105.297 180.163 103.11 176.838 100.922H176.849Z" fill="#F1F1E6" stroke="black" stroke-miterlimit="10"/>
<path opacity="0.2" d="M127.396 75.0497C127.559 84.0656 139.77 107.439 174.035 111.527C174.035 111.527 158.565 106.865 147.39 99.8035C143.618 97.4248 137.48 91.5629 136.259 89.9381C131.364 83.4178 128.639 79.7647 127.396 75.0391V75.0497Z" fill="black"/>
<path d="M172.973 90.3901C160.228 84.3795 151.114 77.6574 145.216 72.6982C134.205 63.4593 125.036 52.5638 123.619 54.1036C123.292 54.4646 123.379 55.4947 124.502 58.1283C128.939 68.5247 137.094 74.5566 141.771 78.1035C161.722 93.2361 163.597 95.0839 167.239 98.7901C175.71 107.424 181.989 105.045 183.624 108.294C187.822 116.673 186.208 109.133 187.189 109.155C188.727 109.197 188.378 117.024 183.603 104.387C182.044 100.277 180.234 97.0166 178.806 94.7547C176.854 93.2892 174.925 91.8344 172.984 90.3901H172.973Z" fill="#F1F1E6" stroke="black" stroke-miterlimit="10"/>
<path opacity="0.2" d="M123.522 53.9355C123.195 54.2966 123.293 54.2966 124.492 57.9815C128.918 71.5319 153.841 86.7602 158.387 90.2115C158.387 90.2115 140.3 74.7815 134.62 68.6965C128.875 62.5585 123.522 53.9355 123.522 53.9355Z" fill="black"/>
<path d="M159.345 68.546C159.498 68.4398 163.216 75.969 170.367 84.3265C177.923 93.1406 180.648 92.7902 184.638 99.0131C189.751 106.978 188.29 112.192 191.256 123.013C193.175 129.99 194.188 136.914 203.379 146.747C212.362 156.347 214.183 155.413 218.784 165.289C220.201 168.337 220.822 173.115 219.034 174.432C218.391 174.91 216.222 175.823 207.293 168.496C198.135 160.977 192.575 156.475 186.917 138.602C183.537 127.93 186.742 126.655 182.36 113.381C180.408 107.456 177.933 102.656 173.093 93.3318C165.712 79.1124 159.149 68.6735 159.334 68.546H159.345Z" fill="#F1F1E6" stroke="black" stroke-miterlimit="10"/>
<path opacity="0.2" d="M219.895 173.103C218.892 175.089 216.231 175.832 207.303 168.505C198.145 160.986 192.585 156.483 186.926 138.611C183.547 127.938 186.752 126.664 182.369 113.39C180.418 107.464 177.943 102.664 173.103 93.3404C165.722 79.121 159.159 68.6821 159.344 68.5547C159.344 68.5547 171.587 85.9918 174.901 92.2678C178.183 98.5014 184.801 109.312 186.719 123.075C187.275 127.036 187.842 136.466 190.579 142.593C191.843 145.429 193.021 148.699 194.831 151.779C196.368 154.37 198.494 156.802 200.14 158.99C205.831 166.551 212.241 170.65 216.101 172.423C218.074 173.326 219.895 173.113 219.895 173.113V173.103Z" fill="black"/>
<path d="M327.966 352.192C316.316 337.362 314.416 331.632 284.766 308.682C231.926 268.812 226.756 173.542 229.926 119.182C235.146 106.182 233.366 87.9516 227.106 75.8516C211.136 92.5016 111.226 99.4916 93.686 84.8716C90.076 100.972 90.326 122.432 102.466 134.822C104.226 136.132 104.586 138.482 104.956 140.662C110.266 179.162 119.896 275.932 103.696 313.192C98.736 324.602 97.026 337.122 97.086 349.742C99.676 400.012 137.676 400.622 177.066 406.382C216.496 418.532 227.856 429.912 261.006 449.702C325.356 488.102 344.516 473.702 383.966 485.442C405.376 491.812 418.806 483.982 458.696 486.832C466.016 487.352 468.796 482.942 461.286 479.582C452.176 475.502 396.146 443.302 360.556 400.882C347.416 385.222 341.146 368.962 327.976 352.192H327.966Z" fill="#FAF9F6"/>
<path fill-rule="evenodd" clip-rule="evenodd" d="M227.232 75L226.748 75.5044C224.825 77.5101 221.594 79.4083 217.321 81.1553C213.06 82.898 207.806 84.4726 201.878 85.8531C190.024 88.6138 175.518 90.5886 160.954 91.5879C146.39 92.5872 131.786 92.6098 119.737 91.4726C113.712 90.9039 108.337 90.0462 103.931 88.88C99.5131 87.7108 96.1179 86.2438 94.0095 84.4864L93.3806 83.9622L93.2014 84.7611C91.3867 92.8548 90.5396 102.304 91.677 111.299C92.8143 120.293 95.9411 128.872 102.112 135.17L102.139 135.198L102.171 135.222C102.943 135.797 103.427 136.611 103.763 137.579C104.088 138.512 104.264 139.547 104.442 140.601L104.464 140.729C104.464 140.731 104.465 140.734 104.465 140.737C107.118 159.977 110.85 193.771 111.896 227.406C112.419 244.226 112.269 260.997 110.979 275.885C109.688 290.781 107.258 303.751 103.241 312.991C98.2445 324.485 96.5291 337.079 96.5893 349.743L96.5894 349.755L96.59 349.766C97.2407 362.396 100.118 371.948 104.716 379.255C109.317 386.564 115.62 391.591 123.061 395.202C130.495 398.809 139.07 401.006 148.23 402.662C154.33 403.764 160.712 404.631 167.2 405.511C170.434 405.95 173.695 406.393 176.959 406.87C206.744 416.051 220.44 424.775 239.754 437.077C245.94 441.016 252.702 445.323 260.753 450.13C292.978 469.36 313.917 475.384 331.753 478.062C337.702 478.956 343.316 479.478 348.872 479.994C351.621 480.249 354.355 480.503 357.109 480.8C365.442 481.7 374.004 482.997 383.827 485.92L383.969 485.441L383.827 485.92C394.625 489.133 403.413 488.76 414.441 487.954C415.298 487.892 416.168 487.826 417.055 487.76C427.57 486.972 440.307 486.018 458.664 487.329L458.664 487.329C460.542 487.463 462.157 487.283 463.407 486.864C464.645 486.449 465.593 485.775 466.01 484.87C466.444 483.927 466.24 482.88 465.477 481.897C464.726 480.929 463.409 479.981 461.494 479.124C456.98 477.103 440.725 468.053 421.143 454.2C401.566 440.35 378.699 421.723 360.942 400.559C354.401 392.763 349.566 384.814 344.71 376.695C344.486 376.321 344.262 375.947 344.038 375.572C339.403 367.817 334.676 359.908 328.373 351.882L328.222 351.691H328.213C326.383 349.357 324.789 347.242 323.283 345.244C320.092 341.01 317.296 337.3 313.488 333.143C307.823 326.958 299.91 319.768 285.075 308.285L285.07 308.281C258.793 288.454 244.327 254.812 236.835 219.261C229.353 183.758 228.846 146.438 230.424 119.291C235.668 106.143 233.859 87.8085 227.553 75.6207L227.232 75ZM226.973 76.6876C232.925 88.673 234.538 106.362 229.465 118.994L229.435 119.07L229.43 119.151C227.844 146.358 228.343 183.813 235.856 219.467C243.367 255.108 257.905 289.035 284.466 309.078C299.279 320.544 307.141 327.694 312.751 333.818C316.526 337.94 319.278 341.592 322.451 345.802C324.002 347.861 325.654 350.053 327.576 352.499L327.726 352.691H327.736C333.924 360.6 338.584 368.397 343.187 376.098C343.409 376.468 343.63 376.838 343.851 377.208C348.707 385.327 353.578 393.338 360.176 401.202C378.01 422.458 400.953 441.141 420.566 455.016C440.174 468.888 456.488 477.978 461.085 480.037L461.085 480.037C462.925 480.86 464.077 481.724 464.687 482.51C465.287 483.284 465.339 483.936 465.101 484.451C464.847 485.004 464.197 485.545 463.089 485.915C461.994 486.282 460.517 486.458 458.735 486.332C440.304 485.015 427.505 485.974 416.983 486.763C416.096 486.829 415.225 486.894 414.368 486.957C403.356 487.761 394.724 488.119 384.112 484.961C374.21 482.014 365.583 480.709 357.217 479.806C354.432 479.506 351.683 479.25 348.927 478.994C343.388 478.48 337.824 477.963 331.901 477.074C314.207 474.417 293.391 468.442 261.266 449.271C253.257 444.49 246.516 440.197 240.339 436.262C220.986 423.934 207.164 415.131 177.217 405.903L177.18 405.891L177.142 405.886C173.842 405.403 170.557 404.957 167.305 404.516C160.831 403.638 154.487 402.777 148.408 401.678C139.283 400.028 130.811 397.851 123.498 394.302C116.191 390.757 110.046 385.845 105.563 378.722C101.079 371.598 98.2348 362.226 97.5893 349.727C97.5306 337.154 99.2357 324.713 104.158 313.39C108.24 304 110.682 290.901 111.975 275.971C113.27 261.031 113.419 244.217 112.895 227.375C111.848 193.69 108.111 159.854 105.455 140.592L105.454 140.584L105.452 140.577L105.424 140.408C105.249 139.377 105.061 138.266 104.708 137.25C104.336 136.182 103.768 135.177 102.8 134.444C96.8485 128.354 93.7878 120.02 92.6691 111.174C91.585 102.6 92.3307 93.5829 94.0079 85.7525C96.2878 87.419 99.6074 88.7702 103.675 89.8467C108.152 91.0316 113.585 91.8963 119.643 92.4681C131.76 93.6118 146.42 93.5875 161.022 92.5856C175.625 91.5836 190.186 89.6028 202.105 86.827C208.064 85.4392 213.373 83.8503 217.7 82.0809C221.687 80.4507 224.879 78.6522 226.973 76.6876Z" fill="black"/>
<path d="M327.966 352.192C316.316 337.362 314.416 331.632 284.766 308.682C231.926 268.812 226.756 173.542 229.926 119.182C235.146 106.182 233.366 87.9516 227.106 75.8516C211.136 92.5016 111.226 99.4916 93.686 84.8716C90.076 100.972 90.326 122.432 102.466 134.822C104.226 136.132 104.586 138.482 104.956 140.662C110.266 179.162 119.896 275.932 103.696 313.192C98.736 324.602 97.026 337.122 97.086 349.742C99.676 400.012 137.676 400.622 177.066 406.382C216.496 418.532 227.856 429.912 261.006 449.702C325.356 488.102 344.516 473.702 383.966 485.442C405.376 491.812 418.806 483.982 458.696 486.832C466.016 487.352 468.796 482.942 461.286 479.582C452.176 475.502 396.146 443.302 360.556 400.882C347.416 385.222 341.146 368.962 327.976 352.192H327.966Z" fill="#FAF9F6"/>
<path fill-rule="evenodd" clip-rule="evenodd" d="M227.232 75L226.748 75.5044C224.825 77.5101 221.594 79.4083 217.321 81.1553C213.06 82.898 207.806 84.4726 201.878 85.8531C190.024 88.6138 175.518 90.5886 160.954 91.5879C146.39 92.5872 131.786 92.6098 119.737 91.4726C113.712 90.9039 108.337 90.0462 103.931 88.88C99.5131 87.7108 96.1179 86.2438 94.0095 84.4864L93.3806 83.9622L93.2014 84.7611C91.3867 92.8548 90.5396 102.304 91.677 111.299C92.8143 120.293 95.9411 128.872 102.112 135.17L102.139 135.198L102.171 135.222C102.943 135.797 103.427 136.611 103.763 137.579C104.088 138.512 104.264 139.547 104.442 140.601L104.464 140.729C104.464 140.731 104.465 140.734 104.465 140.737C107.118 159.977 110.85 193.771 111.896 227.406C112.419 244.226 112.269 260.997 110.979 275.885C109.688 290.781 107.258 303.751 103.241 312.991C98.2445 324.485 96.5291 337.079 96.5893 349.743L96.5894 349.755L96.59 349.766C97.2407 362.396 100.118 371.948 104.716 379.255C109.317 386.564 115.62 391.591 123.061 395.202C130.495 398.809 139.07 401.006 148.23 402.662C154.33 403.764 160.712 404.631 167.2 405.511C170.434 405.95 173.695 406.393 176.959 406.87C206.744 416.051 220.44 424.775 239.754 437.077C245.94 441.016 252.702 445.323 260.753 450.13C292.978 469.36 313.917 475.384 331.753 478.062C337.702 478.956 343.316 479.478 348.872 479.994C351.621 480.249 354.355 480.503 357.109 480.8C365.442 481.7 374.004 482.997 383.827 485.92L383.969 485.441L383.827 485.92C394.625 489.133 403.413 488.76 414.441 487.954C415.298 487.892 416.168 487.826 417.055 487.76C427.57 486.972 440.307 486.018 458.664 487.329L458.664 487.329C460.542 487.463 462.157 487.283 463.407 486.864C464.645 486.449 465.593 485.775 466.01 484.87C466.444 483.927 466.24 482.88 465.477 481.897C464.726 480.929 463.409 479.981 461.494 479.124C456.98 477.103 440.725 468.053 421.143 454.2C401.566 440.35 378.699 421.723 360.942 400.559C354.401 392.763 349.566 384.814 344.71 376.695C344.486 376.321 344.262 375.947 344.038 375.572C339.403 367.817 334.676 359.908 328.373 351.882L328.222 351.691H328.213C326.383 349.357 324.789 347.242 323.283 345.244C320.092 341.01 317.296 337.3 313.488 333.143C307.823 326.958 299.91 319.768 285.075 308.285L285.07 308.281C258.793 288.454 244.327 254.812 236.835 219.261C229.353 183.758 228.846 146.438 230.424 119.291C235.668 106.143 233.859 87.8085 227.553 75.6207L227.232 75ZM226.973 76.6876C232.925 88.673 234.538 106.362 229.465 118.994L229.435 119.07L229.43 119.151C227.844 146.358 228.343 183.813 235.856 219.467C243.367 255.108 257.905 289.035 284.466 309.078C299.279 320.544 307.141 327.694 312.751 333.818C316.526 337.94 319.278 341.592 322.451 345.802C324.002 347.861 325.654 350.053 327.576 352.499L327.726 352.691H327.736C333.924 360.6 338.584 368.397 343.187 376.098C343.409 376.468 343.63 376.838 343.851 377.208C348.707 385.327 353.578 393.338 360.176 401.202C378.01 422.458 400.953 441.141 420.566 455.016C440.174 468.888 456.488 477.978 461.085 480.037L461.085 480.037C462.925 480.86 464.077 481.724 464.687 482.51C465.287 483.284 465.339 483.936 465.101 484.451C464.847 485.004 464.197 485.545 463.089 485.915C461.994 486.282 460.517 486.458 458.735 486.332C440.304 485.015 427.505 485.974 416.983 486.763C416.096 486.829 415.225 486.894 414.368 486.957C403.356 487.761 394.724 488.119 384.112 484.961C374.21 482.014 365.583 480.709 357.217 479.806C354.432 479.506 351.683 479.25 348.927 478.994C343.388 478.48 337.824 477.963 331.901 477.074C314.207 474.417 293.391 468.442 261.266 449.271C253.257 444.49 246.516 440.197 240.339 436.262C220.986 423.934 207.164 415.131 177.217 405.903L177.18 405.891L177.142 405.886C173.842 405.403 170.557 404.957 167.305 404.516C160.831 403.638 154.487 402.777 148.408 401.678C139.283 400.028 130.811 397.851 123.498 394.302C116.191 390.757 110.046 385.845 105.563 378.722C101.079 371.598 98.2348 362.226 97.5893 349.727C97.5306 337.154 99.2357 324.713 104.158 313.39C108.24 304 110.682 290.901 111.975 275.971C113.27 261.031 113.419 244.217 112.895 227.375C111.848 193.69 108.111 159.854 105.455 140.592L105.454 140.584L105.452 140.577L105.424 140.408C105.249 139.377 105.061 138.266 104.708 137.25C104.336 136.182 103.768 135.177 102.8 134.444C96.8485 128.354 93.7878 120.02 92.6691 111.174C91.585 102.6 92.3307 93.5829 94.0079 85.7525C96.2878 87.419 99.6074 88.7702 103.675 89.8467C108.152 91.0316 113.585 91.8963 119.643 92.4681C131.76 93.6118 146.42 93.5875 161.022 92.5856C175.625 91.5836 190.186 89.6028 202.105 86.827C208.064 85.4392 213.373 83.8503 217.7 82.0809C221.687 80.4507 224.879 78.6522 226.973 76.6876Z" fill="black"/>
<path d="M93.7388 84.4372C100.789 101.767 221.479 91.6272 226.719 75.5772C226.489 73.5572 207.579 68.0972 162.279 69.8372C116.979 71.5672 93.7388 81.7972 93.7388 84.4372Z" fill="#DCDCE0"/>
<path fill-rule="evenodd" clip-rule="evenodd" d="M226.18 75.5955C225.862 76.4171 225.183 77.2641 224.123 78.1237C222.992 79.0407 221.463 79.9439 219.577 80.8237C215.805 82.5831 210.669 84.2188 204.603 85.6837C192.475 88.6124 176.705 90.84 160.869 92.0261C145.032 93.2124 129.152 93.3552 116.803 92.1234C110.625 91.5073 105.355 90.5493 101.421 89.2169C99.4545 88.5507 97.8401 87.7968 96.6181 86.9578C95.4516 86.1568 94.6674 85.2953 94.2575 84.3818C94.2774 84.3389 94.3169 84.2706 94.3957 84.1749C94.5411 83.9981 94.7775 83.7797 95.122 83.5248C95.8088 83.0165 96.8608 82.4097 98.2893 81.738C101.142 80.3967 105.433 78.8255 111.151 77.2786C122.582 74.1859 139.68 71.2006 162.297 70.3369L162.297 70.3369C184.926 69.4677 200.949 70.3975 211.332 71.7928C216.526 72.4907 220.298 73.3036 222.776 74.0616C224.017 74.4414 224.917 74.8022 225.503 75.1191C225.797 75.2782 225.994 75.4164 226.113 75.5273C226.142 75.5542 226.164 75.5769 226.18 75.5955ZM211.465 70.8017C201.011 69.397 184.929 68.4668 162.258 69.3376C139.575 70.2039 122.403 73.1986 110.889 76.3133C105.135 77.8702 100.784 79.4596 97.8638 80.833C96.4057 81.5187 95.2882 82.1577 94.5271 82.721C94.1476 83.0018 93.8405 83.2756 93.6234 83.5396C93.4162 83.7915 93.2375 84.0987 93.2375 84.4372V84.535L93.2743 84.6256C93.7638 85.8289 94.7301 86.8743 96.0521 87.7821C97.3752 88.6906 99.0817 89.4802 101.1 90.164C105.137 91.5314 110.493 92.499 116.703 93.1185C129.13 94.358 145.072 94.2121 160.944 93.0233C176.816 91.8345 192.642 89.6008 204.837 86.6558C210.933 85.1838 216.141 83.5295 220 81.73C221.929 80.8303 223.536 79.8869 224.753 78.9004C225.965 77.9173 226.824 76.863 227.193 75.7324L227.227 75.6289L227.214 75.5207C227.18 75.2172 226.987 74.9741 226.794 74.7943C226.589 74.6041 226.312 74.4195 225.978 74.2394C225.309 73.8779 224.34 73.4943 223.068 73.1054C220.52 72.3259 216.69 71.5038 211.465 70.8017Z" fill="black"/>
<path d="M102.95 312.821C81.7602 373.131 110.21 402.451 171.53 404.601C191.31 336.351 166.13 308.121 102.95 312.821Z" fill="#DCDCE0"/>
<path fill-rule="evenodd" clip-rule="evenodd" d="M171.158 404.087C140.749 402.961 118.63 395.111 106.689 380.208C94.7572 365.316 92.8661 343.219 103.314 313.295C134.685 311.013 156.437 316.918 167.956 331.662C179.478 346.41 180.919 370.198 171.158 404.087ZM168.744 331.047C156.864 315.84 134.546 309.969 102.913 312.322L102.587 312.346L102.479 312.655C91.8573 342.885 93.6244 365.502 105.909 380.833C118.175 396.142 140.803 404.024 171.513 405.1L171.902 405.114L172.011 404.74C181.911 370.579 180.62 346.247 168.744 331.047Z" fill="black"/>
<path d="M161.437 92.3491C192.187 90.1991 217.977 83.3891 227.077 75.7891C233.347 87.9591 235.107 106.059 229.897 119.119C189.957 135.159 147.367 138.429 102.437 134.769C90.317 122.419 90.037 100.889 93.657 84.8191C103.367 91.2691 130.197 94.5491 161.437 92.3591V92.3491Z" fill="#DCDCE0"/>
<path fill-rule="evenodd" clip-rule="evenodd" d="M227.236 75.0078L226.756 75.4079C222.298 79.1318 213.669 82.7127 202.252 85.631C190.857 88.5437 176.752 90.7797 161.402 91.8529L160.937 91.8854V91.8951C145.519 92.9506 131.204 92.67 119.53 91.3349C107.713 89.9835 98.6823 87.5596 93.9336 84.4052L93.3287 84.0034L93.1692 84.7118C91.3492 92.7912 90.5072 102.251 91.6484 111.255C92.7894 120.256 95.9186 128.843 102.08 135.122L102.211 135.255L102.396 135.27C147.374 138.934 190.048 135.664 230.083 119.586L230.282 119.506L230.361 119.307C235.632 106.095 233.849 87.8438 227.521 75.5627L227.236 75.0078ZM226.91 76.5696C232.865 88.5565 234.488 106.04 229.511 118.738C189.779 134.648 147.402 137.914 102.664 134.289C96.7907 128.228 93.7563 119.933 92.6405 111.129C91.5491 102.519 92.2985 93.4609 93.9913 85.6267C99.0793 88.7259 108.051 91.0286 119.416 92.3285C131.278 93.685 145.827 93.9572 161.472 92.8605L161.937 92.8279V92.8176C177.157 91.7285 191.153 89.5002 202.5 86.5999C213.551 83.775 222.154 80.297 226.91 76.5696Z" fill="black"/>
<path d="M407.819 487.872C417.329 487.222 443.279 485.792 458.719 486.902C466.039 487.422 468.819 483.012 461.309 479.652C455.469 477.202 431.279 462.792 417.189 451.992C408.799 458.822 403.279 470.742 407.809 487.872H407.819Z" fill="#DCDCE0"/>
<path fill-rule="evenodd" clip-rule="evenodd" d="M417.18 451.352L416.873 451.601C408.323 458.561 402.748 470.686 407.326 487.997L407.424 488.369H407.836L407.853 488.368C417.367 487.717 443.283 486.29 458.683 487.397C460.561 487.531 462.176 487.351 463.427 486.932C464.665 486.517 465.612 485.843 466.029 484.938C466.463 483.996 466.259 482.948 465.497 481.966C464.745 480.997 463.428 480.049 461.513 479.192L461.502 479.188C458.624 477.98 451.149 473.786 442.605 468.524C434.072 463.269 424.519 456.977 417.493 451.592L417.18 451.352ZM461.11 480.107C462.947 480.93 464.097 481.792 464.707 482.579C465.307 483.352 465.358 484.004 465.121 484.52C464.867 485.072 464.216 485.613 463.109 485.984C462.014 486.35 460.537 486.527 458.754 486.4C443.488 485.303 418.007 486.681 408.188 487.342C403.949 470.816 409.205 459.313 417.201 452.627C424.233 457.987 433.662 464.191 442.08 469.376C450.608 474.628 458.144 478.862 461.11 480.107Z" fill="black"/>
<path fill-rule="evenodd" clip-rule="evenodd" d="M314.526 334.445C314.258 334.377 313.986 334.539 313.918 334.807C310.498 348.248 306.347 357.685 299.952 365.424C293.553 373.167 284.875 379.25 272.327 385.928C272.084 386.058 271.991 386.361 272.121 386.605C272.251 386.848 272.553 386.941 272.797 386.811C285.389 380.109 294.201 373.953 300.723 366.061C307.247 358.165 311.447 348.572 314.887 335.053C314.955 334.785 314.793 334.513 314.526 334.445Z" fill="black"/>
<path fill-rule="evenodd" clip-rule="evenodd" d="M354.154 391.828C353.887 391.76 353.615 391.922 353.547 392.189C351.661 399.596 349.381 404.772 345.878 409.012C342.372 413.255 337.609 416.598 330.686 420.281C330.443 420.411 330.35 420.714 330.48 420.957C330.609 421.201 330.912 421.294 331.156 421.164C338.123 417.457 343.02 414.04 346.649 409.649C350.281 405.253 352.611 399.92 354.516 392.436C354.584 392.168 354.422 391.896 354.154 391.828Z" fill="black"/>
<path opacity="0.2" d="M348.406 479.463C334.806 478.603 326.346 476.193 315.256 473.783C304.166 471.373 281.076 460.913 272.696 456.393C264.316 451.873 253.256 445.163 247.976 441.893C242.696 438.623 239.346 435.443 224.686 427.063C210.026 418.683 196.896 412.413 177.076 406.303C137.686 400.543 97.1262 399.463 96.5662 349.173C96.4262 336.553 98.7862 324.043 103.496 312.533C116.346 284.563 113.346 213.563 108.346 169.563C106.086 149.713 104.486 135.533 102.276 134.153C89.3462 121.563 90.7462 100.733 93.4962 84.2031C140.256 112.853 112.166 193.203 124.296 268.563C131.436 312.953 101.336 328.673 121.946 362.493C142.556 396.313 184.686 399.213 198.916 404.533C209.036 408.613 216.176 412.263 229.506 418.983C236.706 422.463 255.886 433.993 271.176 442.973C286.466 451.953 301.306 462.243 316.496 466.403C332.756 470.853 338.176 472.993 371.276 476.913C380.396 477.993 388.766 481.713 401.886 483.113C425.576 485.633 455.116 485.603 461.346 486.503C469.026 487.613 441.306 485.993 437.136 485.993C432.966 485.993 403.986 487.813 399.386 487.903C394.786 488.003 382.606 485.173 380.686 484.713C369.996 482.163 362.006 480.313 348.406 479.453V479.463Z" fill="black"/>
<path opacity="0.2" d="M93.7162 83.7625C96.4662 90.8625 114.126 94.4225 151.406 93.9225C142.296 91.7525 118.166 87.1625 115.536 84.8225C110.286 80.1425 116.176 75.5525 111.966 76.5525C101.186 79.1125 93.8363 83.1825 93.7263 83.7725L93.7162 83.7625Z" fill="black"/>
<path d="M146.685 178.678C144.657 178.986 148.778 194.288 143.458 206.171C141.125 211.375 138.083 222.451 139.206 224.617C141.463 228.982 145.246 221.347 148.32 218.076C153.117 212.968 154.872 204.918 154.927 203.771C155.505 191.559 148.549 178.402 146.685 178.688V178.678Z" fill="#F1F1E6" stroke="black" stroke-miterlimit="10"/>
<path opacity="0.2" d="M138.977 223.423C140.132 231.547 147.273 218.421 150.348 215.15C150.348 215.15 144.057 222.234 141.92 223.518C139.773 224.803 138.977 223.423 138.977 223.423Z" fill="black"/>
<path d="M126.594 183.631C100.113 196.331 72.4213 211.241 74.8852 218.261C76.2915 222.296 86.8775 221.499 90.1154 222.423C107.995 227.489 145.149 189.078 140.363 180.424C139.895 179.585 138.99 178.671 137.082 178.119C133.56 179.967 130.072 181.804 126.594 183.631Z" fill="#F1F1E6" stroke="black" stroke-miterlimit="10"/>
<path d="M137.584 174.022C125.472 191.608 108.77 204.691 103.199 207.102C94.5423 210.84 80.9255 215.576 73.85 211.148C67.5486 207.208 57.7584 204.84 57.3442 201.006C56.7773 195.803 73.5011 195.654 91.5551 190.536C105.063 186.702 115.136 179.268 139.045 168.182L142.25 172.971L137.595 174.022H137.584Z" fill="#F1F1E6" stroke="black" stroke-miterlimit="10"/>
<path opacity="0.2" d="M116.438 197.598C104.129 208.844 83.295 219.155 66.2223 207.325C66.2223 207.325 71.5534 209.534 84.8104 209.693C97.8494 209.852 116.438 197.598 116.438 197.598Z" fill="black"/>
<path opacity="0.2" d="M121.766 208.314C113.742 214.155 104.638 222.077 95.0445 222.81C84.5566 221.387 81.6894 223.139 75.2353 218.955C78.506 220.729 80.1195 220.41 93.3329 220.336C106.197 220.261 121.755 208.314 121.755 208.314H121.766Z" fill="black"/>
<path d="M141.128 184.44C123.728 211.446 104.53 219.081 105.838 227.545C106.536 232.1 117.972 227.237 120.654 225.357C143.287 209.534 147.114 201.463 152.565 181.255C152.783 180.447 151.769 179.747 149.839 179.619C146.721 182.306 143.483 180.787 141.128 184.44Z" fill="#F1F1E6" stroke="black" stroke-miterlimit="10"/>
<path opacity="0.2" d="M105.349 227.307C107.257 233.721 125.9 225.396 137.074 211.145C137.074 211.145 125.224 220.67 117.221 224.132C109.405 227.52 105.349 227.307 105.349 227.307Z" fill="black"/>
<path d="M139.63 182.153C137.351 182.365 141.647 196.16 135.509 206.407C132.849 210.846 129.349 220.276 130.537 222.167C132.936 225.99 137.198 219.618 140.633 216.931C146.04 212.705 148.188 205.738 148.275 204.74C149.234 193.972 141.734 181.961 139.63 182.153Z" fill="#F1F1E6" stroke="black" stroke-miterlimit="10"/>
<path opacity="0.2" d="M130.377 221.013C131.74 226.79 137.191 219.622 140.636 216.935C146.043 212.709 144.615 213.282 145.945 210.574C145.945 210.574 142.391 213.303 138.979 216.203C136.995 217.891 134.542 220.333 133.615 220.663C131.086 221.555 130.377 221.013 130.377 221.013Z" fill="black"/>
<path d="M135.027 171.851C116.734 186.665 94.2643 194.63 87.2433 195.862C76.4502 197.752 64.6868 200.258 52.3456 190.743C45.5209 185.487 35.0875 179.062 35.3819 174.91C35.7743 169.271 55.1474 174.389 77.2133 174.708C93.8391 174.952 107.303 170.269 138.102 166.074L140.816 172.223L135.038 171.851H135.027Z" fill="#F1F1E6" stroke="black" stroke-miterlimit="10"/>
<path opacity="0.2" d="M109.366 187.807C77.9241 201.007 64.6889 199.849 52.3368 190.323C45.512 185.067 41.2275 183.718 37.7497 179.279C37.7497 179.279 49.3496 188.083 64.5471 192.946C76.5286 196.78 108.984 187.616 112.909 186.575C118.807 185.003 109.366 187.807 109.366 187.807Z" fill="black"/>
<path d="M131.846 160.245C110.837 173.095 86.2202 178.978 78.7414 179.307C71.9275 179.604 51.595 178.648 42.4045 171.056C35.5471 165.385 25.1792 158.026 25.8224 153.98C26.6946 148.468 46.7436 155.296 70.0633 157.665C87.6811 159.449 102.443 156.093 135.738 154.819L137.973 161.148L131.846 160.245Z" fill="#F1F1E6" stroke="black" stroke-miterlimit="10"/>
<path opacity="0.2" d="M94.2237 176.264C78.2085 181.404 51.5855 178.653 42.4059 171.06C35.5484 165.39 28.6256 159.22 25.9109 155.174C25.9109 155.174 38.0995 167.057 54.867 173.227C64.6353 176.827 86.5704 175.276 94.9324 174.204C100.732 173.46 94.2128 176.264 94.2128 176.264H94.2237Z" fill="black"/>
<path d="M120.052 156.6C99.2293 149.007 91.8922 151.449 74.9721 142.327C68.5507 138.865 68.0056 137.644 58.1828 130.975C51.5216 126.451 10.2243 98.4052 5.71082 106.391C3.01799 111.148 12.0995 126.398 20.0253 135.807C37.8067 156.897 61.4098 162.1 80.2923 166.253C98.379 170.235 98.3354 166.964 133.364 173.134C144.746 175.141 138.695 172.635 139.12 170.798C139.753 168.09 137.016 162.78 120.052 156.6Z" fill="#F1F1E6" stroke="black" stroke-miterlimit="10"/>
<path opacity="0.2" d="M7.24643 115.02C10.0483 122.177 12.1197 126.51 20.0564 135.919C37.8378 157.009 63.4142 164.187 102.597 169.741C102.597 169.741 105.191 169.264 94.7579 166.768C77.031 162.541 45.9817 154.439 34.807 144.934C16.3606 129.26 7.25733 115.02 7.25733 115.02H7.24643Z" fill="black"/>
<path d="M114.736 140.997C94.5457 130.017 86.936 131.248 70.8008 119.365C64.6738 114.852 64.2595 113.546 55.0363 105.273C48.7785 99.6663 10.0541 64.9302 4.67937 72.1302C1.47414 76.4204 9.05112 93.1248 16.083 103.829C31.8693 127.85 55.1672 136.919 73.788 144.172C91.613 151.117 91.8965 147.825 126.522 159.719C137.762 163.574 131.929 160.091 132.529 158.317C133.423 155.716 131.177 149.949 114.736 141.008V140.997Z" fill="#F1F1E6" stroke="black" stroke-miterlimit="10"/>
<path opacity="0.2" d="M5.33668 80.9727C7.41898 88.5655 9.0652 93.2381 16.0971 103.942C31.8834 127.953 56.9801 139.337 95.9007 151.294C95.9007 151.294 98.5608 151.231 88.3019 147.036C70.8694 139.91 40.3652 126.71 30.0518 115.369C13.0445 96.6682 5.32578 80.9727 5.32578 80.9727H5.33668Z" fill="black"/>
<path d="M103.482 126.947C84.698 111.4 76.8485 110.858 62.2832 95.3538C56.7558 89.4707 56.5269 88.0795 48.4157 77.7787C42.921 70.7911 8.98267 27.6019 2.485 33.4108C-1.39616 36.8727 3.76054 55.0744 9.27702 67.2761C21.6946 94.7167 43.9349 109.117 61.7163 120.639C78.7345 131.662 79.4868 128.455 112.727 148.26C123.52 154.685 131.675 159.92 132.537 158.327C134.837 154.037 118.789 139.637 103.482 126.968V126.947Z" fill="#F1F1E6" stroke="black" stroke-miterlimit="10"/>
<path opacity="0.2" d="M1.8322 42.2617C2.80249 50.2263 3.77277 55.2068 9.28925 67.3979C21.7068 94.8278 45.4298 111.946 83.0422 132.835C83.0422 132.835 85.735 133.387 75.9776 126.845C59.3846 115.737 30.4721 95.5712 21.7068 81.9465C7.28326 59.5183 1.8322 42.2617 1.8322 42.2617Z" fill="black"/>
<path d="M116.498 127.771C86.0704 105.885 66.6646 84.1257 54.4542 68.0372C38.0356 46.4161 26.7737 24.7737 22.5764 27.1843C19.502 28.9578 21.9332 42.6144 24.6696 51.4816C29.5864 67.4426 35.3537 78.7204 44.1408 88.4796C49.799 94.7557 72.8352 115.485 96.5038 126.37C101.355 128.6 108.583 131.382 117.24 138.869C126.561 146.918 130.017 153.874 131.903 152.961C134.618 151.644 132.23 135.014 123.552 129.534C120.837 127.814 118.21 127.655 116.487 127.771H116.498Z" fill="#F1F1E6" stroke="black" stroke-miterlimit="10"/>
<path opacity="0.2" d="M23.0788 43.8223C24.4089 50.6824 24.954 53.9107 26.0878 56.6293C32.0622 70.9336 37.4697 81.5637 46.0605 90.6327C51.5988 96.4733 73.2614 116.204 96.5156 126.367C96.5156 126.367 54.2917 98.6822 40.7839 77.8681C26.9382 56.5231 23.0788 43.8223 23.0788 43.8223Z" fill="black"/>
<path d="M147.814 176.964C145.133 175.679 139.845 183.93 137.283 189.484C136.912 190.281 131.756 201.622 134.285 203.693C136.509 205.52 144.893 200.337 148.065 191.927C150.3 186.001 150.104 178.058 147.814 176.964Z" fill="#F1F1E6" stroke="black" stroke-miterlimit="10"/>
<path opacity="0.2" d="M133.696 200.201C133.01 207.964 141.938 201.55 145.133 197.238C145.133 197.238 142.8 199.829 138.417 201.327C134.034 202.824 133.696 200.201 133.696 200.201Z" fill="black"/>
<path d="M153.508 184.554C151.404 183.555 147.228 190.076 145.212 194.462C144.928 195.088 140.862 204.04 142.835 205.676C144.579 207.12 151.175 203.01 153.682 196.362C155.449 191.679 155.296 185.403 153.497 184.554H153.508Z" fill="#F1F1E6" stroke="black" stroke-miterlimit="10"/>
<path opacity="0.2" d="M142.385 202.924C141.84 209.051 148.861 203.975 151.379 200.566C151.379 200.566 149.536 202.616 146.091 203.805C142.646 204.995 142.385 202.924 142.385 202.924Z" fill="black"/>
<path d="M160.19 189.122C158.544 188.092 154.75 192.998 152.831 196.364C152.558 196.842 148.688 203.745 150.182 205.274C151.501 206.633 157.116 203.947 159.579 198.775C161.313 195.132 161.596 189.993 160.19 189.122Z" fill="#F1F1E6" stroke="black" stroke-miterlimit="10"/>
<path opacity="0.2" d="M149.987 202.976C149.147 207.924 155.165 204.494 157.422 201.967C157.422 201.967 155.797 203.454 152.93 204.08C150.063 204.707 149.987 202.976 149.987 202.976Z" fill="black"/>
<path d="M141.784 181.862C139.604 179.908 132.299 184.57 128.353 188.053C127.786 188.553 119.805 195.657 121.615 198.174C123.218 200.383 132.528 199.236 137.848 193.745C141.61 189.869 143.637 183.53 141.784 181.862Z" fill="#F1F1E6" stroke="black" stroke-miterlimit="10"/>
<path opacity="0.2" d="M121.411 195.98C121.019 201.311 132.531 199.24 137.852 193.75C137.852 193.75 131.332 197.446 127.069 197.35C122.785 197.254 121.411 195.98 121.411 195.98Z" fill="black"/>
<path d="M138.913 170.812C124.903 172.278 117.206 175.06 111.341 177.885C108.801 179.117 104.658 184.182 105.388 185.924C106.261 188.005 112.846 189.11 116.727 189.375C121.535 189.704 135.14 190.352 140.613 176.334C141.213 174.795 141.584 173.414 141.812 172.469L138.902 170.791L138.913 170.812Z" fill="#F1F1E6" stroke="black" stroke-miterlimit="10"/>
<path opacity="0.2" d="M105.279 185.146C106.336 187.716 115.723 192.368 131.477 186.973C131.477 186.973 122.471 188.152 116.323 187.249C110.119 186.325 105.279 185.157 105.279 185.157V185.146Z" fill="black"/>
<path d="M135.605 164.506C118.39 166.375 92.4977 173.458 93.5443 178.927C93.9476 181.062 101.906 180.117 106.311 181.317C113.691 183.334 125.891 178.46 133.926 173.235C135.365 172.301 137.785 170.326 138.254 169.423C137.251 168.765 136.717 164.389 135.605 164.506Z" fill="#F1F1E6" stroke="black" stroke-miterlimit="10"/>
<path opacity="0.2" d="M93.8468 177.498C92.9311 181.247 101.838 180.578 106.308 181.31C113.612 182.489 111.072 181.767 117.199 180.737C117.199 180.737 109.611 180.971 105.926 179.93C102.22 178.879 94.8498 179.622 93.8468 177.498Z" fill="black"/>
<path d="M132.031 157.432C114.381 156.03 103.926 157.315 96.0216 158.589C92.5983 159.141 86.6676 161.977 86.9619 163.761C87.3108 165.895 94.8769 167.276 99.2595 169.612C105.812 173.106 120.846 174.837 132.184 163.028C133.438 161.722 134.364 160.511 134.953 159.683C133.972 158.929 133.002 158.175 132.02 157.421L132.031 157.432Z" fill="#F1F1E6" stroke="black" stroke-miterlimit="10"/>
<path opacity="0.2" d="M86.9505 162.971C86.4381 164.33 93.6335 168.089 100.644 170.277C108.079 172.603 121.347 171.636 116.179 171.753C110.979 171.88 104.634 170.468 100.306 168.111C95.9447 165.742 87.8554 164.234 86.9505 162.971Z" fill="black"/>
<path d="M109.679 151.401C102.833 151.316 82.7184 147.068 82.0533 149.84C81.3883 152.612 90.8078 157.125 95.3212 158.654C100.914 160.555 114.302 164.389 129.161 157.815C130.786 157.093 131.113 152.282 131.734 151.475C130.775 150.615 116.471 151.486 109.69 151.401H109.679Z" fill="#F1F1E6" stroke="black" stroke-miterlimit="10"/>
<path opacity="0.2" d="M82.4581 150.6C82.807 153.085 90.5911 156.748 95.0937 158.288C100.687 160.189 103.172 161.941 108.809 161.251C108.809 161.251 103.129 160.911 93.9054 156.493C84.5513 152.012 84.9438 152.267 82.4581 150.6Z" fill="black"/>
<path d="M119.85 143.264C95.9958 138.177 75.2163 135.469 75.4453 140.152C75.5761 142.828 84.5485 147.724 87.0451 148.478C111.117 155.752 128.898 153.055 131.406 150.188C131.733 149.816 130.741 146.152 129.411 145.037C126.206 144.443 123.022 143.859 119.85 143.275V143.264Z" fill="#F1F1E6" stroke="black" stroke-miterlimit="10"/>
<path opacity="0.2" d="M75.4517 139.623C75.528 143.573 85.9941 150.625 107.297 152.409C107.297 152.409 91.5324 149.149 84.8058 145.665C78.0137 142.15 75.4517 139.634 75.4517 139.634V139.623Z" fill="black"/>
<path d="M120.191 137.04C94.5495 124.18 71.4588 116.364 70.0742 121.271C69.2893 124.074 77.7929 133.132 80.3658 134.683C105.321 149.731 126.471 145.706 130.45 143.561C130.963 143.285 131.29 136.732 130.167 135.161C126.667 133.504 123.626 138.644 120.18 137.03L120.191 137.04Z" fill="#F1F1E6" stroke="black" stroke-miterlimit="10"/>
<path opacity="0.2" d="M70.0769 121.268C72.1156 130.337 86.6264 142.804 110.895 145.055C110.895 145.055 89.341 138.418 82.3309 133.374C75.3536 128.351 71.0799 124.114 70.0769 121.268Z" fill="black"/>
<path d="M119.849 126.922C95.1991 109.867 72.7298 96.5824 70.3967 101.064C69.0775 103.612 74.5068 113.669 76.5455 116.207C96.8017 141.29 125.987 138.179 130.566 136.862C131.165 136.692 130.751 135.195 129.868 133.506C126.51 131.297 123.163 129.11 119.838 126.922H119.849Z" fill="#F1F1E6" stroke="black" stroke-miterlimit="10"/>
<path opacity="0.2" d="M70.3958 101.05C70.5594 110.066 82.7697 133.439 117.035 137.527C117.035 137.527 101.565 132.865 90.3903 125.804C86.6182 123.425 80.4803 117.563 79.2593 115.938C74.3642 109.418 71.6387 105.765 70.3958 101.039V101.05Z" fill="black"/>
<path d="M115.973 116.39C103.228 110.38 94.1143 103.657 88.2162 98.6982C77.2051 89.4593 68.0364 78.5638 66.6191 80.1036C66.2921 80.4646 66.3793 81.4947 67.5022 84.1283C71.9394 94.5247 80.0942 100.557 84.7712 104.103C104.722 119.236 106.597 121.084 110.239 124.79C118.71 133.424 124.989 131.045 126.624 134.294C130.822 142.673 129.208 135.133 130.189 135.155C131.727 135.197 131.378 143.024 126.603 130.387C125.044 126.277 123.234 123.017 121.806 120.755C119.854 119.289 117.925 117.834 115.984 116.39H115.973Z" fill="#F1F1E6" stroke="black" stroke-miterlimit="10"/>
<path opacity="0.2" d="M66.5217 79.9355C66.1946 80.2966 66.2927 80.2966 67.492 83.9815C71.9183 97.5319 96.8405 112.76 101.387 116.211C101.387 116.211 83.3001 100.781 77.6201 94.6965C71.8746 88.5585 66.5217 79.9355 66.5217 79.9355Z" fill="black"/>
<path d="M102.345 94.546C102.498 94.4398 106.216 101.969 113.367 110.326C120.923 119.141 123.648 118.79 127.638 125.013C132.751 132.978 131.29 138.192 134.256 149.013C136.175 155.99 137.188 162.914 146.379 172.747C155.362 182.347 157.183 181.413 161.784 191.289C163.201 194.337 163.822 199.115 162.034 200.432C161.391 200.91 159.222 201.823 150.293 194.496C141.135 186.977 135.575 182.475 129.917 164.602C126.537 153.93 129.742 152.655 125.36 139.381C123.408 133.456 120.933 128.656 116.093 119.332C108.712 105.112 102.149 94.6735 102.334 94.546H102.345Z" fill="#F1F1E6" stroke="black" stroke-miterlimit="10"/>
<path opacity="0.2" d="M162.895 199.103C161.892 201.089 159.231 201.832 150.303 194.505C141.145 186.986 135.585 182.483 129.926 164.611C126.547 153.938 129.752 152.664 125.369 139.39C123.418 133.464 120.943 128.664 116.103 119.34C108.722 105.121 102.159 94.6821 102.344 94.5547C102.344 94.5547 114.587 111.992 117.901 118.268C121.183 124.501 127.801 135.312 129.719 149.075C130.275 153.036 130.842 162.466 133.579 168.593C134.843 171.429 136.021 174.699 137.831 177.779C139.368 180.37 141.494 182.802 143.14 184.99C148.831 192.551 155.241 196.65 159.101 198.423C161.074 199.326 162.895 199.113 162.895 199.113V199.103Z" fill="black"/>
</svg>
