<svg width="460" height="702" viewBox="0 0 460 702" fill="none" xmlns="http://www.w3.org/2000/svg">
<path d="M203.685 152.68C201.657 152.988 205.778 168.29 200.458 180.173C198.125 185.377 195.083 196.453 196.206 198.619C198.463 202.984 202.246 195.349 205.32 192.078C210.117 186.97 211.872 178.92 211.927 177.773C212.505 165.561 205.549 152.404 203.685 152.69V152.68Z" fill="#F1F1E6" stroke="black" stroke-miterlimit="10"/>
<path opacity="0.2" d="M195.977 197.425C197.132 205.549 204.273 192.423 207.348 189.152C207.348 189.152 201.057 196.236 198.92 197.52C196.773 198.805 195.977 197.425 195.977 197.425Z" fill="black"/>
<path d="M183.594 157.633C157.113 170.333 129.421 185.243 131.885 192.263C133.292 196.298 143.878 195.501 147.115 196.425C164.995 201.491 202.149 163.08 197.363 154.426C196.895 153.587 195.99 152.673 194.082 152.121C190.56 153.969 187.072 155.806 183.594 157.633Z" fill="#F1F1E6" stroke="black" stroke-miterlimit="10"/>
<path d="M194.584 148.024C182.472 165.61 165.77 178.693 160.199 181.104C151.542 184.842 137.925 189.578 130.85 185.15C124.549 181.21 114.758 178.842 114.344 175.008C113.777 169.805 130.501 169.656 148.555 164.537C162.063 160.704 172.136 153.27 196.045 142.184L199.25 146.973L194.595 148.024H194.584Z" fill="#F1F1E6" stroke="black" stroke-miterlimit="10"/>
<path opacity="0.2" d="M173.438 171.602C161.129 182.848 140.295 193.159 123.222 181.329C123.222 181.329 128.553 183.538 141.81 183.697C154.849 183.856 173.438 171.602 173.438 171.602Z" fill="black"/>
<path opacity="0.2" d="M178.766 182.316C170.742 188.157 161.638 196.079 152.044 196.812C141.557 195.389 138.689 197.141 132.235 192.957C135.506 194.731 137.119 194.412 150.333 194.338C163.197 194.263 178.755 182.316 178.755 182.316H178.766Z" fill="black"/>
<path d="M198.128 158.438C180.728 185.444 161.53 193.079 162.838 201.543C163.536 206.098 174.972 201.235 177.654 199.355C200.287 183.532 204.114 175.461 209.565 155.253C209.783 154.445 208.769 153.745 206.839 153.617C203.721 156.304 200.483 154.785 198.128 158.438Z" fill="#F1F1E6" stroke="black" stroke-miterlimit="10"/>
<path opacity="0.2" d="M162.349 201.307C164.257 207.721 182.9 199.396 194.074 185.145C194.074 185.145 182.224 194.67 174.221 198.132C166.405 201.52 162.349 201.307 162.349 201.307Z" fill="black"/>
<path d="M196.63 156.151C194.351 156.363 198.647 170.158 192.509 180.405C189.849 184.844 186.349 194.274 187.537 196.165C189.936 199.988 194.198 193.616 197.633 190.929C203.04 186.703 205.188 179.736 205.275 178.738C206.234 167.97 198.734 155.96 196.63 156.151Z" fill="#F1F1E6" stroke="black" stroke-miterlimit="10"/>
<path opacity="0.2" d="M187.377 195.013C188.74 200.79 194.191 193.622 197.636 190.935C203.043 186.709 201.615 187.282 202.945 184.574C202.945 184.574 199.391 187.303 195.979 190.203C193.995 191.891 191.542 194.333 190.615 194.663C188.086 195.555 187.377 195.013 187.377 195.013Z" fill="black"/>
<path d="M192.027 145.851C173.734 160.665 151.264 168.63 144.243 169.862C133.45 171.752 121.687 174.258 109.346 164.743C102.521 159.487 92.0875 153.062 92.3818 148.91C92.7743 143.271 112.147 148.389 134.213 148.708C150.839 148.952 164.303 144.269 195.102 140.074L197.816 146.223L192.038 145.851H192.027Z" fill="#F1F1E6" stroke="black" stroke-miterlimit="10"/>
<path opacity="0.2" d="M166.366 161.809C134.924 175.009 121.689 173.851 109.337 164.325C102.512 159.069 98.2275 157.72 94.7497 153.281C94.7497 153.281 106.35 162.085 121.547 166.948C133.529 170.782 165.984 161.617 169.909 160.577C175.807 159.005 166.366 161.809 166.366 161.809Z" fill="black"/>
<path d="M188.846 134.245C167.837 147.095 143.22 152.978 135.741 153.307C128.928 153.604 108.595 152.648 99.4045 145.056C92.5471 139.385 82.1792 132.026 82.8224 127.98C83.6946 122.468 103.744 129.296 127.063 131.665C144.681 133.449 159.443 130.093 192.738 128.819L194.973 135.148L188.846 134.245Z" fill="#F1F1E6" stroke="black" stroke-miterlimit="10"/>
<path opacity="0.2" d="M151.224 150.262C135.208 155.402 108.585 152.651 99.4059 145.059C92.5484 139.388 85.6256 133.218 82.9109 129.172C82.9109 129.172 95.0995 141.055 111.867 147.225C121.635 150.825 143.57 149.274 151.932 148.202C157.732 147.459 151.213 150.262 151.213 150.262H151.224Z" fill="black"/>
<path d="M177.052 130.6C156.229 123.007 148.892 125.449 131.972 116.327C125.551 112.865 125.006 111.644 115.183 104.975C108.522 100.451 67.2243 72.4052 62.7108 80.391C60.018 85.1485 69.0995 100.398 77.0253 109.807C94.8067 130.897 118.41 136.1 137.292 140.253C155.379 144.235 155.335 140.964 190.364 147.134C201.746 149.141 195.695 146.635 196.12 144.798C196.753 142.09 194.016 136.78 177.052 130.6Z" fill="#F1F1E6" stroke="black" stroke-miterlimit="10"/>
<path opacity="0.2" d="M64.2464 89.0195C67.0483 96.177 69.1197 100.51 77.0564 109.919C94.8378 131.009 120.414 138.187 159.597 143.741C159.597 143.741 162.191 143.264 151.758 140.768C134.031 136.541 102.982 128.439 91.807 118.934C73.3606 103.26 64.2573 89.0195 64.2573 89.0195H64.2464Z" fill="black"/>
<path d="M171.736 114.997C151.546 104.017 143.936 105.248 127.801 93.3654C121.674 88.8521 121.26 87.5459 112.036 79.2734C105.779 73.6663 67.0541 38.9302 61.6794 46.1302C58.4741 50.4204 66.0511 67.1248 73.083 77.8291C88.8693 101.85 112.167 110.919 130.788 118.172C148.613 125.117 148.896 121.825 183.522 133.719C194.762 137.574 188.929 134.091 189.529 132.317C190.423 129.716 188.177 123.949 171.736 115.008V114.997Z" fill="#F1F1E6" stroke="black" stroke-miterlimit="10"/>
<path opacity="0.2" d="M62.3367 54.9727C64.419 62.5655 66.0652 67.2381 73.0971 77.9425C88.8834 101.953 113.98 113.337 152.901 125.294C152.901 125.294 155.561 125.231 145.302 121.036C127.869 113.91 97.3652 100.71 87.0518 89.3689C70.0445 70.6682 62.3258 54.9727 62.3258 54.9727H62.3367Z" fill="black"/>
<path d="M160.482 100.947C141.698 85.3998 133.848 84.8582 119.283 69.3538C113.756 63.4707 113.527 62.0795 105.416 51.7787C99.921 44.7911 65.9827 1.60194 59.485 7.41076C55.6038 10.8727 60.7605 29.0744 66.277 41.2761C78.6946 68.7167 100.935 83.1166 118.716 94.6387C135.735 105.662 136.487 102.455 169.727 122.26C180.52 128.685 188.675 133.92 189.537 132.327C191.837 128.037 175.789 113.637 160.482 100.968V100.947Z" fill="#F1F1E6" stroke="black" stroke-miterlimit="10"/>
<path opacity="0.2" d="M58.8322 16.2617C59.8025 24.2263 60.7728 29.2068 66.2893 41.3979C78.7068 68.8278 102.43 85.9463 140.042 106.835C140.042 106.835 142.735 107.387 132.978 100.845C116.385 89.7375 87.4721 69.5712 78.7068 55.9465C64.2833 33.5183 58.8322 16.2617 58.8322 16.2617Z" fill="black"/>
<path d="M173.498 101.771C143.07 79.8848 123.665 58.1257 111.454 42.0372C95.0356 20.4161 83.7737 -1.22626 79.5764 1.18434C76.502 2.95779 78.9331 16.6144 81.6696 25.4816C86.5864 41.4426 92.3537 52.7204 101.141 62.4796C106.799 68.7557 129.835 89.4848 153.504 100.37C158.355 102.6 165.583 105.382 174.24 112.869C183.561 120.918 187.017 127.874 188.903 126.961C191.618 125.644 189.23 109.014 180.552 103.534C177.837 101.814 175.21 101.655 173.487 101.771H173.498Z" fill="#F1F1E6" stroke="black" stroke-miterlimit="10"/>
<path opacity="0.2" d="M80.0788 17.8242C81.4089 24.6844 81.954 27.9127 83.0878 30.6312C89.0622 44.9356 94.4697 55.5656 103.061 64.6346C108.599 70.4753 130.261 90.2062 153.516 100.369C153.516 100.369 111.292 72.6841 97.7839 51.8701C83.9382 30.525 80.0788 17.8242 80.0788 17.8242Z" fill="black"/>
<path d="M204.814 150.966C202.133 149.681 196.845 157.932 194.283 163.486C193.912 164.283 188.756 175.624 191.285 177.695C193.509 179.522 201.893 174.339 205.065 165.929C207.3 160.003 207.104 152.06 204.814 150.966Z" fill="#F1F1E6" stroke="black" stroke-miterlimit="10"/>
<path opacity="0.2" d="M190.696 174.205C190.01 181.968 198.938 175.554 202.133 171.242C202.133 171.242 199.8 173.833 195.417 175.331C191.034 176.828 190.696 174.205 190.696 174.205Z" fill="black"/>
<path d="M210.508 158.556C208.404 157.557 204.228 164.078 202.212 168.463C201.928 169.09 197.862 178.042 199.835 179.678C201.579 181.122 208.175 177.012 210.682 170.364C212.449 165.681 212.296 159.405 210.497 158.556H210.508Z" fill="#F1F1E6" stroke="black" stroke-miterlimit="10"/>
<path opacity="0.2" d="M199.385 176.928C198.84 183.055 205.861 177.979 208.379 174.57C208.379 174.57 206.536 176.62 203.091 177.809C199.646 178.999 199.385 176.928 199.385 176.928Z" fill="black"/>
<path d="M217.19 163.124C215.544 162.094 211.75 167 209.831 170.366C209.558 170.844 205.688 177.747 207.182 179.276C208.501 180.635 214.116 177.948 216.579 172.777C218.313 169.134 218.596 163.995 217.19 163.124Z" fill="#F1F1E6" stroke="black" stroke-miterlimit="10"/>
<path opacity="0.2" d="M206.987 176.978C206.147 181.926 212.165 178.496 214.422 175.969C214.422 175.969 212.797 177.455 209.93 178.082C207.063 178.709 206.987 176.978 206.987 176.978Z" fill="black"/>
<path d="M198.784 155.86C196.604 153.906 189.299 158.568 185.353 162.051C184.786 162.551 176.805 169.655 178.615 172.172C180.218 174.381 189.528 173.234 194.848 167.743C198.61 163.867 200.637 157.528 198.784 155.86Z" fill="#F1F1E6" stroke="black" stroke-miterlimit="10"/>
<path opacity="0.2" d="M178.411 169.98C178.019 175.311 189.531 173.24 194.852 167.75C194.852 167.75 188.332 171.446 184.069 171.35C179.785 171.254 178.411 169.98 178.411 169.98Z" fill="black"/>
<path d="M195.913 144.81C181.903 146.276 174.206 149.058 168.341 151.883C165.801 153.115 161.658 158.18 162.388 159.922C163.261 162.003 169.846 163.108 173.727 163.373C178.535 163.702 192.14 164.35 197.613 150.332C198.213 148.793 198.584 147.412 198.812 146.467L195.902 144.789L195.913 144.81Z" fill="#F1F1E6" stroke="black" stroke-miterlimit="10"/>
<path opacity="0.2" d="M162.279 159.145C163.336 161.714 172.723 166.366 188.477 160.971C188.477 160.971 179.471 162.15 173.323 161.247C167.119 160.323 162.279 159.155 162.279 159.155V159.145Z" fill="black"/>
<path d="M192.605 138.506C175.39 140.375 149.498 147.458 150.544 152.927C150.948 155.062 158.906 154.117 163.311 155.317C170.691 157.334 182.891 152.46 190.926 147.235C192.365 146.301 194.785 144.326 195.254 143.423C194.251 142.765 193.717 138.389 192.605 138.506Z" fill="#F1F1E6" stroke="black" stroke-miterlimit="10"/>
<path opacity="0.2" d="M150.847 151.496C149.931 155.245 158.838 154.576 163.308 155.308C170.612 156.487 168.072 155.765 174.199 154.735C174.199 154.735 166.611 154.969 162.926 153.928C159.22 152.877 151.85 153.62 150.847 151.496Z" fill="black"/>
<path d="M189.031 131.434C171.381 130.032 160.926 131.317 153.022 132.591C149.598 133.143 143.668 135.979 143.962 137.763C144.311 139.897 151.877 141.278 156.26 143.614C162.812 147.108 177.846 148.839 189.184 137.03C190.438 135.724 191.364 134.513 191.953 133.685C190.972 132.931 190.002 132.177 189.02 131.423L189.031 131.434Z" fill="#F1F1E6" stroke="black" stroke-miterlimit="10"/>
<path opacity="0.2" d="M143.95 136.973C143.438 138.332 150.633 142.091 157.644 144.279C165.079 146.604 178.347 145.638 173.179 145.755C167.979 145.882 161.634 144.47 157.306 142.112C152.945 139.744 144.855 138.236 143.95 136.973Z" fill="black"/>
<path d="M166.679 125.401C159.833 125.316 139.718 121.068 139.053 123.84C138.388 126.612 147.808 131.125 152.321 132.654C157.914 134.555 171.302 138.389 186.161 131.815C187.786 131.093 188.113 126.282 188.734 125.475C187.775 124.615 173.471 125.486 166.69 125.401H166.679Z" fill="#F1F1E6" stroke="black" stroke-miterlimit="10"/>
<path opacity="0.2" d="M139.458 124.602C139.807 127.087 147.591 130.75 152.094 132.29C157.687 134.191 160.172 135.943 165.809 135.253C165.809 135.253 160.129 134.913 150.905 130.495C141.551 126.014 141.944 126.269 139.458 124.602Z" fill="black"/>
<path d="M176.85 117.264C152.996 112.177 132.216 109.469 132.445 114.152C132.576 116.828 141.549 121.724 144.045 122.478C168.117 129.752 185.898 127.055 188.406 124.188C188.733 123.816 187.741 120.152 186.411 119.037C183.206 118.443 180.022 117.859 176.85 117.275V117.264Z" fill="#F1F1E6" stroke="black" stroke-miterlimit="10"/>
<path opacity="0.2" d="M132.452 113.621C132.528 117.572 142.994 124.623 164.297 126.407C164.297 126.407 148.532 123.147 141.806 119.664C135.014 116.149 132.452 113.632 132.452 113.632V113.621Z" fill="black"/>
<path d="M177.191 111.042C151.55 98.1822 128.459 90.3663 127.074 95.2725C126.289 98.076 134.793 107.134 137.366 108.685C162.321 123.733 183.471 119.708 187.45 117.563C187.963 117.287 188.29 110.734 187.167 109.163C183.667 107.506 180.626 112.646 177.18 111.032L177.191 111.042Z" fill="#F1F1E6" stroke="black" stroke-miterlimit="10"/>
<path opacity="0.2" d="M127.077 95.2695C129.116 104.339 143.626 116.806 167.895 119.057C167.895 119.057 146.341 112.42 139.331 107.376C132.354 102.353 128.08 98.1155 127.077 95.2695Z" fill="black"/>
<path d="M176.849 100.924C152.199 83.8692 129.73 70.5843 127.397 75.0657C126.078 77.6144 131.507 87.671 133.546 90.209C153.802 115.292 182.987 112.181 187.566 110.864C188.165 110.694 187.751 109.197 186.868 107.508C183.51 105.299 180.163 103.112 176.838 100.924H176.849Z" fill="#F1F1E6" stroke="black" stroke-miterlimit="10"/>
<path opacity="0.2" d="M127.396 75.0536C127.559 84.0695 139.77 107.443 174.035 111.531C174.035 111.531 158.565 106.869 147.39 99.8075C143.618 97.4287 137.48 91.5668 136.259 89.942C131.364 83.4217 128.639 79.7686 127.396 75.043V75.0536Z" fill="black"/>
<path d="M172.973 90.3862C160.228 84.3756 151.114 77.6535 145.216 72.6943C134.205 63.4554 125.036 52.5598 123.619 54.0997C123.292 54.4607 123.379 55.4908 124.502 58.1244C128.939 68.5208 137.094 74.5527 141.771 78.0995C161.722 93.2322 163.597 95.08 167.239 98.7862C175.71 107.42 181.989 105.041 183.624 108.291C187.822 116.669 186.208 109.129 187.189 109.151C188.727 109.193 188.378 117.02 183.603 104.383C182.044 100.273 180.234 97.0127 178.806 94.7508C176.854 93.2853 174.925 91.8305 172.984 90.3862H172.973Z" fill="#F1F1E6" stroke="black" stroke-miterlimit="10"/>
<path opacity="0.2" d="M123.522 53.9336C123.195 54.2947 123.293 54.2947 124.492 57.9796C128.918 71.53 153.841 86.7582 158.387 90.2095C158.387 90.2095 140.3 74.7795 134.62 68.6946C128.875 62.5566 123.522 53.9336 123.522 53.9336Z" fill="black"/>
<path d="M159.345 68.5441C159.498 68.4379 163.216 75.9671 170.367 84.3245C177.923 93.1387 180.648 92.7882 184.638 99.0112C189.751 106.976 188.29 112.19 191.256 123.011C193.175 129.988 194.188 136.912 203.379 146.745C212.362 156.345 214.183 155.411 218.784 165.287C220.201 168.335 220.822 173.113 219.034 174.43C218.391 174.908 216.222 175.821 207.293 168.494C198.135 160.975 192.575 156.473 186.917 138.6C183.537 127.928 186.742 126.654 182.36 113.379C180.408 107.454 177.933 102.654 173.093 93.3298C165.712 79.1104 159.149 68.6715 159.334 68.5441H159.345Z" fill="#F1F1E6" stroke="black" stroke-miterlimit="10"/>
<path opacity="0.2" d="M219.895 173.103C218.892 175.089 216.231 175.832 207.303 168.505C198.145 160.986 192.585 156.483 186.926 138.611C183.547 127.938 186.752 126.664 182.369 113.39C180.418 107.464 177.943 102.664 173.103 93.3404C165.722 79.121 159.159 68.6821 159.344 68.5547C159.344 68.5547 171.587 85.9918 174.901 92.2678C178.183 98.5014 184.801 109.312 186.719 123.075C187.275 127.036 187.842 136.466 190.579 142.593C191.843 145.429 193.021 148.699 194.831 151.779C196.368 154.37 198.494 156.802 200.14 158.99C205.831 166.551 212.241 170.65 216.101 172.423C218.074 173.326 219.895 173.113 219.895 173.113V173.103Z" fill="black"/>
<path d="M161.248 92.4702C191.998 90.3202 217.788 83.5102 226.888 75.9102C228.538 78.3502 229.768 81.1202 230.508 84.2702C231.998 95.7302 234.958 108.11 229.698 119.24C228.888 120.95 228.398 122.8 228.418 124.7C229.038 177.39 231.958 270.51 284.538 308.74C312.568 330.76 327.906 326.998 356.625 336.004C392.237 347.171 443.128 349.504 449.628 358.004C456.832 367.424 439.623 370.698 431.625 391.504C427.119 403.223 445.639 409.004 436.625 424.004C427.611 439.004 407.646 437.798 400.632 447.004C392.425 457.774 406.625 473.504 392.125 488.004C377.625 502.504 355.67 490.071 343.632 497.004C330.369 504.642 324.095 529.386 311.629 529.004C294.125 528.467 238.748 425.53 176.828 406.45C176.518 406.35 176.198 406.28 175.878 406.24C136.618 400.8 99.4776 399.56 96.8476 349.81C96.7976 337.19 98.4976 324.67 103.458 313.26C119.668 276 110.028 179.23 104.718 140.73C104.348 138.55 103.988 136.2 102.228 134.89C90.6276 123.75 91.2076 105.32 92.0176 90.2402C92.3576 88.3402 92.8476 86.5802 93.4376 84.9302C103.148 91.3802 129.978 94.6602 161.218 92.4702H161.248Z" fill="#E1E6AE"/>
<path fill-rule="evenodd" clip-rule="evenodd" d="M226.992 75.1719L226.567 75.5266C222.108 79.2505 213.48 82.8314 202.063 85.7497C190.672 88.6612 176.573 90.8966 161.23 91.9704H161.2L161.183 91.9716C145.588 93.0648 131.102 92.792 119.311 91.4436C107.494 90.0922 98.463 87.6683 93.7143 84.5139L93.182 84.1603L92.9668 84.762C92.3683 86.4358 91.8708 88.2226 91.5255 90.1523L91.52 90.1827L91.5184 90.2135C91.1135 97.7504 90.7621 106.176 91.9746 114.118C93.1878 122.065 95.9736 129.578 101.881 135.251L101.904 135.273L101.929 135.291C102.702 135.866 103.185 136.681 103.522 137.648C103.847 138.582 104.022 139.617 104.2 140.671L104.222 140.799C104.223 140.801 104.223 140.804 104.223 140.807C106.877 160.046 110.611 193.841 111.658 227.476C112.181 244.296 112.032 261.067 110.742 275.954C109.45 290.851 107.019 303.821 102.999 313.061C98.0027 324.555 96.2975 337.149 96.3476 349.812L96.3477 349.825L96.3483 349.837C97.0091 362.335 99.8396 371.828 104.36 379.114C108.882 386.404 115.075 391.451 122.404 395.089C129.725 398.724 138.183 400.954 147.246 402.616C153.814 403.821 160.723 404.73 167.76 405.657C170.428 406.008 173.115 406.362 175.809 406.736L175.816 406.736C176.105 406.773 176.395 406.836 176.674 406.926L176.68 406.928C192.066 411.669 207.076 421.63 221.223 433.95C235.367 446.267 248.622 460.917 260.502 475.003C266.326 481.909 271.817 488.675 276.92 494.964L277.223 495.337C282.41 501.729 287.194 507.619 291.51 512.638C295.824 517.654 299.683 521.815 303.021 524.742C304.69 526.206 306.241 527.372 307.663 528.183C309.081 528.992 310.405 529.467 311.614 529.504C314.914 529.605 317.766 528.037 320.365 525.605C322.96 523.176 325.355 519.837 327.746 516.291C328.277 515.505 328.807 514.709 329.339 513.909C331.22 511.084 333.131 508.214 335.183 505.588C337.815 502.221 340.647 499.3 343.881 497.437C346.78 495.768 350.306 495.248 354.253 495.212C356.849 495.188 359.58 495.373 362.405 495.564C363.889 495.664 365.4 495.766 366.931 495.841C375.757 496.271 385.067 495.769 392.479 488.358C399.889 480.947 399.953 473.197 399.236 466.055C399.139 465.089 399.028 464.139 398.92 463.204C398.625 460.668 398.343 458.244 398.379 455.923C398.427 452.772 399.064 449.887 401.029 447.307C402.712 445.099 405.19 443.491 408.161 442.088C410.291 441.082 412.636 440.199 415.089 439.275C416.065 438.908 417.057 438.534 418.06 438.143C425.067 435.414 432.454 431.915 437.054 424.262C439.358 420.427 439.924 417.139 439.508 414.176C439.095 411.234 437.718 408.665 436.242 406.262C435.911 405.723 435.576 405.195 435.245 404.672C434.083 402.837 432.97 401.078 432.238 399.233C431.311 396.898 431.019 394.472 432.091 391.684C435.755 382.153 441.366 376.344 445.678 371.879C446.024 371.521 446.361 371.172 446.689 370.83C448.875 368.547 450.681 366.531 451.448 364.46C451.839 363.407 451.965 362.331 451.742 361.198C451.52 360.071 450.958 358.92 450.025 357.7C449.133 356.533 447.528 355.525 445.424 354.617C443.306 353.703 440.617 352.864 437.485 352.066C431.221 350.472 423.117 349.032 414.127 347.511C412.534 347.242 410.913 346.97 409.269 346.694C392.335 343.854 372.968 340.605 356.774 335.527C349.573 333.269 343.212 331.811 337.291 330.552C336.075 330.294 334.878 330.044 333.697 329.797C329.122 328.841 324.782 327.934 320.453 326.77C309.587 323.849 298.806 319.314 284.847 308.347L284.839 308.341L284.832 308.336C258.692 289.33 244.853 256.643 237.482 222.039C230.113 187.447 229.228 151.039 228.918 124.694C228.899 122.885 229.365 121.11 230.15 119.454C232.827 113.789 233.404 107.82 233.133 101.856C232.94 97.5973 232.311 93.3045 231.697 89.1197C231.454 87.4619 231.214 85.821 231.004 84.2059L231 84.1807L230.994 84.156C230.241 80.9479 228.987 78.1216 227.302 75.6303L226.992 75.1719ZM226.774 76.6463C228.235 78.9165 229.334 81.4733 230.015 84.3603C230.229 86.002 230.471 87.6552 230.715 89.316C231.326 93.4817 231.944 97.696 232.134 101.902C232.401 107.775 231.828 113.562 229.246 119.026C228.41 120.791 227.897 122.716 227.918 124.706C228.228 151.051 229.112 187.549 236.504 222.247C243.892 256.93 257.801 289.914 284.236 309.139C298.303 320.189 309.205 324.782 320.193 327.735C324.552 328.907 328.928 329.822 333.505 330.778C334.683 331.025 335.875 331.274 337.083 331.531C342.992 332.787 349.318 334.237 356.475 336.481C372.739 341.581 392.175 344.841 409.096 347.679C410.743 347.955 412.366 348.228 413.96 348.497C422.957 350.019 431.02 351.453 437.239 353.036C440.348 353.827 442.98 354.651 445.028 355.535C447.091 356.426 448.499 357.35 449.231 358.308C450.099 359.443 450.576 360.455 450.761 361.391C450.944 362.322 450.845 363.21 450.51 364.113C449.827 365.956 448.182 367.825 445.966 370.139C445.639 370.481 445.3 370.831 444.952 371.192C440.636 375.659 434.897 381.598 431.158 391.325C429.977 394.396 430.311 397.087 431.308 399.601C432.078 401.543 433.26 403.408 434.431 405.256C434.754 405.767 435.077 406.276 435.39 406.786C436.854 409.168 438.135 411.589 438.518 414.315C438.898 417.022 438.399 420.081 436.197 423.747C431.782 431.093 424.679 434.492 417.697 437.211C416.72 437.592 415.743 437.96 414.776 438.324C412.307 439.254 409.903 440.16 407.734 441.184C404.706 442.613 402.059 444.306 400.234 446.701C398.096 449.507 397.43 452.626 397.379 455.907C397.342 458.3 397.635 460.821 397.933 463.38C398.04 464.301 398.148 465.228 398.241 466.155C398.947 473.196 398.861 480.561 391.772 487.651C384.683 494.739 375.765 495.27 366.98 494.842C365.492 494.77 364.003 494.669 362.527 494.57C359.676 494.377 356.876 494.188 354.244 494.212C350.235 494.248 346.503 494.774 343.382 496.571C339.985 498.527 337.059 501.564 334.395 504.972C332.317 507.631 330.378 510.544 328.494 513.374C327.965 514.169 327.44 514.958 326.917 515.732C324.524 519.28 322.184 522.532 319.682 524.874C317.184 527.212 314.577 528.594 311.644 528.504C310.665 528.474 309.505 528.082 308.158 527.315C306.816 526.549 305.322 525.43 303.681 523.991C300.398 521.111 296.575 516.994 292.268 511.986C287.964 506.98 283.189 501.102 278 494.707L277.694 494.331C272.593 488.044 267.097 481.271 261.267 474.359C249.374 460.258 236.081 445.563 221.88 433.196C207.682 420.833 192.551 410.773 176.977 405.973C176.639 405.865 176.292 405.789 175.944 405.745C175.943 405.745 175.941 405.744 175.94 405.744L175.878 406.24L175.946 405.745C175.946 405.745 175.945 405.745 175.944 405.745C173.235 405.369 170.539 405.014 167.866 404.662C160.838 403.737 153.967 402.832 147.426 401.632C138.401 399.977 130.049 397.768 122.849 394.194C115.656 390.623 109.617 385.692 105.21 378.587C100.801 371.481 98.0031 362.166 97.3476 349.796C97.3476 349.8 97.3476 349.804 97.3476 349.808L96.8476 349.81L97.3469 349.784C97.3471 349.788 97.3474 349.792 97.3476 349.796C97.2989 337.224 98.9941 324.782 103.916 313.46C108.001 304.07 110.444 290.971 111.738 276.041C113.033 261.101 113.181 244.287 112.657 227.445C111.609 193.76 107.87 159.924 105.213 140.662L105.212 140.654L105.211 140.647L105.182 140.477C105.008 139.447 104.82 138.335 104.466 137.32C104.094 136.249 103.524 135.242 102.552 134.509C102.559 134.516 102.567 134.523 102.574 134.53L102.228 134.89L102.526 134.489C102.535 134.496 102.543 134.502 102.552 134.509C96.8747 129.044 94.1559 121.78 92.9632 113.967C91.7698 106.151 92.1108 97.8332 92.5152 90.2983C92.5134 90.3083 92.5116 90.3184 92.5098 90.3284L92.0176 90.2403L92.5169 90.2672C92.5164 90.2775 92.5158 90.2879 92.5152 90.2983C92.8091 88.6651 93.2156 87.1366 93.7022 85.6926C93.5165 85.5784 93.3361 85.4631 93.161 85.3468L93.4376 84.9304L93.9084 85.0987C93.8382 85.2951 93.7694 85.493 93.7022 85.6926C98.7776 88.8134 107.779 91.1313 119.197 92.4371C131.054 93.7932 145.597 94.0657 161.235 92.9704H161.218V92.4704L161.253 92.9691C161.251 92.9692 161.249 92.9694 161.248 92.9695C161.243 92.9698 161.239 92.9701 161.235 92.9704H161.265L161.283 92.9691C176.682 91.8924 190.848 89.6484 202.31 86.7185C213.403 83.8831 222.03 80.3895 226.774 76.6463Z" fill="black"/>
<path d="M103.539 313.189C99.5394 324.969 96.8694 337.119 96.9294 349.739C99.4694 397.789 134.199 400.589 171.939 405.619C191.719 337.369 166.729 308.479 103.549 313.179L103.539 313.189Z" fill="#C3CE5F"/>
<path fill-rule="evenodd" clip-rule="evenodd" d="M171.579 405.066C170.381 404.907 169.187 404.75 167.998 404.593C150.563 402.299 134.123 400.136 121.47 393.37C114.68 389.739 108.994 384.787 104.844 377.779C100.694 370.769 98.0624 361.672 97.4294 349.724C97.372 337.289 99.9801 325.3 103.91 313.653C135.279 311.372 156.985 317.44 168.458 332.347C179.932 347.255 181.327 371.197 171.579 405.066ZM169.251 331.737C157.419 316.364 135.149 310.327 103.512 312.68L103.327 312.694L103.104 312.917L103.066 313.028C99.0545 324.842 96.3691 337.049 96.4295 349.741L96.4295 349.753L96.4302 349.765C97.0683 361.837 99.7302 371.104 103.984 378.288C108.24 385.476 114.072 390.548 120.999 394.252C133.82 401.108 150.441 403.294 167.815 405.578C169.164 405.755 170.517 405.933 171.873 406.114L172.3 406.171L172.42 405.758C182.32 371.596 181.076 347.102 169.251 331.737Z" fill="black"/>
<path d="M161.249 92.4702C191.999 90.3202 217.789 83.5102 226.889 75.9102C228.539 78.3502 229.769 81.1202 230.509 84.2702C231.999 95.7302 234.959 108.11 229.699 119.24C189.759 135.28 147.169 138.55 102.239 134.89C90.639 123.75 91.2191 105.32 92.0291 90.2402C92.3691 88.3402 92.8591 86.5802 93.4491 84.9302C103.159 91.3802 129.989 94.6602 161.229 92.4702H161.249Z" fill="#C3CE5F"/>
<path fill-rule="evenodd" clip-rule="evenodd" d="M226.993 75.1719L226.569 75.5266C222.11 79.2505 213.481 82.8314 202.064 85.7497C190.673 88.6612 176.575 90.8966 161.232 91.9704H161.212L161.194 91.9716C145.599 93.0648 131.113 92.792 119.322 91.4436C107.505 90.0922 98.4744 87.6683 93.7257 84.5139L93.1934 84.1603L92.9783 84.762C92.3798 86.4358 91.8822 88.2226 91.5369 90.1523L91.5314 90.1827L91.5298 90.2135C91.1249 97.7504 90.7735 106.176 91.986 114.118C93.1993 122.065 95.985 129.578 101.893 135.251L102.021 135.374L102.198 135.389C147.177 139.053 189.85 135.782 229.885 119.704L230.067 119.631L230.151 119.454C232.829 113.788 233.406 107.82 233.135 101.856C232.941 97.5974 232.312 93.3046 231.699 89.1198C231.455 87.462 231.215 85.821 231.005 84.2059L231.002 84.1807L230.996 84.156C230.242 80.9479 228.988 78.1216 227.303 75.6303L226.993 75.1719ZM226.776 76.6463C228.236 78.9164 229.336 81.4732 230.017 84.3601C230.23 86.0019 230.473 87.6551 230.716 89.316C231.327 93.4817 231.945 97.696 232.136 101.902C232.4 107.712 231.842 113.437 229.33 118.85C189.59 134.767 147.205 138.034 102.458 134.406C96.8523 128.954 94.1599 121.732 92.9746 113.967C91.7812 106.15 92.1222 97.8331 92.5267 90.2982C92.8205 88.665 93.227 87.1366 93.7136 85.6926C98.7891 88.8134 107.791 91.1313 119.209 92.4371C131.066 93.7932 145.608 94.0657 161.247 92.9704H161.267L161.284 92.9691C176.684 91.8924 190.849 89.6484 202.312 86.7185C213.405 83.8831 222.031 80.3895 226.776 76.6463Z" fill="black"/>
<path d="M93.63 84.4398C93.63 89.6398 126.2 96.1698 161.6 93.3498C197.01 90.5398 227.07 79.6898 226.6 75.5798C226.37 73.5598 207.46 68.0998 162.16 69.8298C116.86 71.5598 93.62 81.7898 93.62 84.4298L93.63 84.4398Z" fill="#C3CE5F"/>
<path fill-rule="evenodd" clip-rule="evenodd" d="M226.105 75.6544C226.111 75.7531 226.077 75.913 225.92 76.1494C225.754 76.3986 225.479 76.6912 225.077 77.0219C224.273 77.6824 223.038 78.4347 221.399 79.2472C218.129 80.8692 213.338 82.6892 207.411 84.4736C195.561 88.0411 179.229 91.4493 161.56 92.8514L161.56 92.8514C143.899 94.2583 126.945 93.3323 114.416 91.4081C108.148 90.4456 103.006 89.2361 99.4416 87.9519C97.6563 87.3087 96.2926 86.6558 95.385 86.0215C94.4471 85.366 94.13 84.826 94.13 84.4398V84.398C94.1451 84.3587 94.1831 84.2831 94.2782 84.1674C94.4236 83.9907 94.66 83.7723 95.0045 83.5174C95.6913 83.0091 96.7433 82.4023 98.1718 81.7306C101.024 80.3893 105.315 78.8181 111.033 77.2712C122.465 74.1785 139.562 71.1932 162.179 70.3295C184.808 69.4653 200.831 70.3976 211.215 71.7941C216.408 72.4926 220.18 73.3058 222.658 74.064C223.9 74.4439 224.799 74.8048 225.385 75.1217C225.68 75.2808 225.876 75.419 225.996 75.5298C226.071 75.5998 226.097 75.6414 226.105 75.6544ZM211.348 70.803C200.894 69.3971 184.812 68.4644 162.141 69.3302C139.458 70.1965 122.285 73.1912 110.772 76.3059C105.017 77.8628 100.667 79.4522 97.7463 80.8256C96.2882 81.5113 95.1707 82.1503 94.4096 82.7136C94.0301 82.9944 93.723 83.2682 93.5059 83.5322C93.2987 83.7841 93.12 84.0913 93.12 84.4298V84.6371L93.1437 84.6608C93.2459 85.4834 93.9106 86.2111 94.8122 86.8411C95.824 87.5483 97.2815 88.2366 99.1027 88.8927C102.751 90.2073 107.964 91.429 114.264 92.3965C126.869 94.3324 143.901 95.2613 161.64 93.8482C179.381 92.4403 195.784 89.0186 207.699 85.4311C213.655 83.638 218.504 81.7992 221.844 80.1431C223.51 79.3165 224.823 78.5249 225.712 77.7944C226.156 77.4296 226.512 77.0649 226.753 76.7023C226.992 76.3417 227.144 75.9401 227.097 75.5233M211.348 70.803C216.573 71.5058 220.403 72.3282 222.951 73.1078ZM222.951 73.1078C224.222 73.4968 225.192 73.8804 225.861 74.242ZM225.861 74.242C226.194 74.4221 226.471 74.6067 226.676 74.7969ZM226.676 74.7969C226.87 74.9767 227.062 75.2196 227.097 75.523Z" fill="black"/>
<path opacity="0.2" d="M279.134 496.992C267.134 482.862 242.636 449.492 215.136 427.492C205.136 419.492 204.633 418.492 176.842 406.448C176.532 406.348 176.212 406.277 175.892 406.237C136.633 400.797 99.4926 399.557 96.8626 349.807C96.8126 337.187 98.7626 324.767 103.473 313.257C119.053 275.217 110.043 179.228 104.733 140.728C104.363 138.548 104.003 136.198 102.243 134.888C92.5726 125.598 91.3727 111.238 91.7027 97.9875C91.7727 95.3475 93.3227 87.4475 93.4627 84.9375C93.4627 84.9375 101.533 86.4875 110.013 101.218C118.493 115.948 117.192 129.438 120.812 134.928C124.432 140.418 117.132 224.908 124.272 269.298C131.412 313.688 101.312 329.408 121.922 363.228C142.532 397.048 159.503 375.918 188.482 391.658C217.462 407.398 233.636 423.992 251.136 442.492C268.636 460.992 285.636 489.992 295.636 501.492C301.136 506.992 305.11 518.957 313.636 518.492C323.136 517.492 330.136 498.992 340.129 493.492C346.866 489.784 377.129 494.992 381.631 493.992C383.897 494.604 372.63 496.492 365.13 494.992C357.634 494.992 349.629 492.492 339.634 499.492C331.634 506.492 322.136 530.507 312.636 528.992C303.04 527.462 290.928 511.697 284.134 502.992C281.369 499.449 279.134 496.992 279.134 496.992Z" fill="black"/>
<path opacity="0.2" d="M93.6186 83.7585C92.9286 87.2785 114.029 94.4185 151.309 93.9185C142.199 91.7485 118.069 87.1585 115.439 84.8185C110.189 80.1385 116.079 75.5485 111.869 76.5485C101.089 79.1085 93.7386 83.1785 93.6286 83.7685L93.6186 83.7585Z" fill="black"/>
<path fill-rule="evenodd" clip-rule="evenodd" d="M335.878 375.067C335.639 374.929 335.333 375.011 335.196 375.251C335.058 375.49 335.14 375.796 335.379 375.933L335.629 375.5L335.878 375.067ZM436.629 423.5C436.811 423.035 436.811 423.035 436.811 423.034L436.486 422.907C436.272 422.822 435.955 422.697 435.544 422.535C434.722 422.21 433.526 421.736 432.027 421.138C429.028 419.942 424.817 418.251 419.968 416.269C410.27 412.306 398.027 407.184 387.836 402.545C377.735 397.947 364.748 391.08 354.279 385.357C349.047 382.497 344.446 379.924 341.154 378.066C339.507 377.137 338.188 376.387 337.281 375.87C336.827 375.611 336.476 375.41 336.239 375.274L335.88 375.068L335.878 375.067C335.878 375.067 335.878 375.067 335.629 375.5C335.379 375.933 335.379 375.933 335.379 375.933L335.742 376.141C335.98 376.278 336.331 376.479 336.785 376.738C337.694 377.257 339.014 378.007 340.662 378.937C343.957 380.796 348.562 383.371 353.8 386.235C364.271 391.959 377.285 398.841 387.422 403.455C397.631 408.102 409.888 413.23 419.59 417.195C424.441 419.178 428.655 420.87 431.656 422.067C433.157 422.666 434.354 423.14 435.176 423.465C435.587 423.628 435.905 423.753 436.12 423.837L436.445 423.965L436.446 423.965C436.446 423.966 436.446 423.966 436.629 423.5ZM436.629 423.5L436.811 423.034C437.068 423.135 437.195 423.426 437.094 423.683C436.993 423.94 436.703 424.066 436.446 423.965L436.629 423.5Z" fill="black"/>
<path fill-rule="evenodd" clip-rule="evenodd" d="M295.464 413.634C295.26 413.447 294.944 413.461 294.757 413.665C294.571 413.869 294.585 414.185 294.789 414.371L295.126 414.002L295.464 413.634ZM391.626 488.39C391.89 487.965 391.89 487.965 391.89 487.965L391.558 487.758C391.339 487.622 391.017 487.419 390.599 487.157C389.765 486.633 388.553 485.869 387.042 484.909C384.022 482.989 379.809 480.288 375.039 477.162C365.498 470.908 353.741 462.96 344.851 456.166C336.033 449.427 323.689 438.798 313.542 429.845C308.471 425.37 303.951 421.317 300.699 418.383C299.073 416.916 297.764 415.728 296.862 414.908C296.41 414.497 296.061 414.179 295.824 413.963L295.464 413.634C295.464 413.633 295.464 413.634 295.126 414.002C294.789 414.371 294.788 414.371 294.789 414.371L295.15 414.701C295.387 414.918 295.737 415.237 296.189 415.647C297.092 416.469 298.402 417.657 300.029 419.125C303.283 422.061 307.806 426.117 312.881 430.595C323.028 439.547 335.395 450.198 344.244 456.961C353.164 463.777 364.946 471.742 374.491 477.999C379.265 481.128 383.482 483.832 386.506 485.753C388.018 486.714 389.232 487.479 390.067 488.004C390.485 488.267 390.809 488.469 391.028 488.606L391.36 488.814L391.361 488.814C391.361 488.814 391.362 488.814 391.626 488.39ZM391.626 488.39L391.89 487.965C392.124 488.111 392.196 488.42 392.05 488.654C391.904 488.889 391.596 488.96 391.361 488.814L391.626 488.39Z" fill="black"/>
<path d="M146.685 178.68C144.657 178.988 148.778 194.29 143.458 206.173C141.125 211.377 138.083 222.453 139.206 224.619C141.463 228.984 145.246 221.349 148.32 218.078C153.117 212.97 154.872 204.92 154.927 203.773C155.505 191.561 148.549 178.404 146.685 178.69V178.68Z" fill="#F1F1E6" stroke="black" stroke-miterlimit="10"/>
<path opacity="0.2" d="M138.977 223.425C140.132 231.549 147.273 218.423 150.348 215.152C150.348 215.152 144.057 222.236 141.92 223.52C139.773 224.805 138.977 223.425 138.977 223.425Z" fill="black"/>
<path d="M126.594 183.633C100.113 196.333 72.4213 211.243 74.8852 218.263C76.2915 222.298 86.8775 221.501 90.1154 222.425C107.995 227.491 145.149 189.08 140.363 180.426C139.895 179.587 138.99 178.673 137.082 178.121C133.56 179.969 130.072 181.806 126.594 183.633Z" fill="#F1F1E6" stroke="black" stroke-miterlimit="10"/>
<path d="M137.584 174.024C125.472 191.61 108.77 204.693 103.199 207.104C94.5423 210.842 80.9255 215.578 73.85 211.15C67.5486 207.21 57.7584 204.842 57.3442 201.008C56.7773 195.805 73.5011 195.656 91.5551 190.537C105.063 186.704 115.136 179.27 139.045 168.184L142.25 172.973L137.595 174.024H137.584Z" fill="#F1F1E6" stroke="black" stroke-miterlimit="10"/>
<path opacity="0.2" d="M116.438 197.602C104.129 208.848 83.295 219.159 66.2223 207.329C66.2223 207.329 71.5534 209.538 84.8104 209.697C97.8494 209.856 116.438 197.602 116.438 197.602Z" fill="black"/>
<path opacity="0.2" d="M121.766 208.316C113.742 214.157 104.638 222.079 95.0445 222.812C84.5566 221.389 81.6894 223.141 75.2353 218.957C78.506 220.731 80.1195 220.412 93.3329 220.338C106.197 220.263 121.755 208.316 121.755 208.316H121.766Z" fill="black"/>
<path d="M141.128 184.438C123.728 211.444 104.53 219.079 105.838 227.543C106.536 232.098 117.972 227.235 120.654 225.355C143.287 209.532 147.114 201.461 152.565 181.253C152.783 180.445 151.769 179.745 149.839 179.617C146.721 182.304 143.483 180.785 141.128 184.438Z" fill="#F1F1E6" stroke="black" stroke-miterlimit="10"/>
<path opacity="0.2" d="M105.349 227.307C107.257 233.721 125.9 225.396 137.074 211.145C137.074 211.145 125.224 220.67 117.221 224.132C109.405 227.52 105.349 227.307 105.349 227.307Z" fill="black"/>
<path d="M139.63 182.151C137.351 182.363 141.647 196.158 135.509 206.405C132.849 210.844 129.349 220.274 130.537 222.165C132.936 225.988 137.198 219.616 140.633 216.929C146.04 212.703 148.188 205.736 148.275 204.738C149.234 193.97 141.734 181.96 139.63 182.151Z" fill="#F1F1E6" stroke="black" stroke-miterlimit="10"/>
<path opacity="0.2" d="M130.377 221.013C131.74 226.79 137.191 219.622 140.636 216.935C146.043 212.709 144.615 213.282 145.945 210.574C145.945 210.574 142.391 213.303 138.979 216.203C136.995 217.891 134.542 220.333 133.615 220.663C131.086 221.555 130.377 221.013 130.377 221.013Z" fill="black"/>
<path d="M135.027 171.851C116.734 186.665 94.2643 194.63 87.2433 195.862C76.4502 197.752 64.6868 200.258 52.3456 190.743C45.5208 185.487 35.0875 179.062 35.3818 174.91C35.7743 169.271 55.1474 174.389 77.2133 174.708C93.8391 174.952 107.303 170.269 138.102 166.074L140.816 172.223L135.038 171.851H135.027Z" fill="#F1F1E6" stroke="black" stroke-miterlimit="10"/>
<path opacity="0.2" d="M109.366 187.809C77.9241 201.009 64.6889 199.851 52.3367 190.325C45.512 185.069 41.2275 183.72 37.7497 179.281C37.7497 179.281 49.3496 188.085 64.5471 192.948C76.5286 196.782 108.984 187.617 112.909 186.577C118.807 185.005 109.366 187.809 109.366 187.809Z" fill="black"/>
<path d="M131.846 160.245C110.837 173.095 86.2202 178.978 78.7414 179.307C71.9275 179.604 51.595 178.648 42.4045 171.056C35.5471 165.385 25.1792 158.026 25.8224 153.98C26.6946 148.468 46.7436 155.296 70.0633 157.665C87.6811 159.449 102.443 156.093 135.738 154.819L137.973 161.148L131.846 160.245Z" fill="#F1F1E6" stroke="black" stroke-miterlimit="10"/>
<path opacity="0.2" d="M94.2237 176.262C78.2085 181.402 51.5855 178.651 42.4059 171.059C35.5484 165.388 28.6256 159.218 25.9109 155.172C25.9109 155.172 38.0995 167.055 54.867 173.225C64.6353 176.825 86.5704 175.274 94.9324 174.202C100.732 173.459 94.2128 176.262 94.2128 176.262H94.2237Z" fill="black"/>
<path d="M120.052 156.6C99.2293 149.007 91.8922 151.449 74.9721 142.327C68.5507 138.865 68.0056 137.644 58.1828 130.975C51.5216 126.451 10.2243 98.4052 5.71081 106.391C3.01799 111.148 12.0995 126.398 20.0253 135.807C37.8067 156.897 61.4098 162.1 80.2923 166.253C98.379 170.235 98.3354 166.964 133.364 173.134C144.746 175.141 138.695 172.635 139.12 170.798C139.753 168.09 137.016 162.78 120.052 156.6Z" fill="#F1F1E6" stroke="black" stroke-miterlimit="10"/>
<path opacity="0.2" d="M7.24643 115.02C10.0483 122.177 12.1197 126.51 20.0564 135.919C37.8378 157.009 63.4142 164.187 102.597 169.741C102.597 169.741 105.191 169.264 94.7579 166.768C77.031 162.541 45.9817 154.439 34.807 144.934C16.3606 129.26 7.25733 115.02 7.25733 115.02H7.24643Z" fill="black"/>
<path d="M114.736 140.997C94.5457 130.017 86.936 131.248 70.8008 119.365C64.6738 114.852 64.2595 113.546 55.0363 105.273C48.7785 99.6663 10.0541 64.9302 4.67936 72.1302C1.47413 76.4204 9.05113 93.1248 16.083 103.829C31.8693 127.85 55.1672 136.919 73.788 144.172C91.613 151.117 91.8965 147.825 126.522 159.719C137.762 163.574 131.929 160.091 132.529 158.317C133.423 155.716 131.177 149.949 114.736 141.008V140.997Z" fill="#F1F1E6" stroke="black" stroke-miterlimit="10"/>
<path opacity="0.2" d="M5.33668 80.9727C7.41898 88.5655 9.0652 93.2381 16.0971 103.942C31.8834 127.953 56.9801 139.337 95.9007 151.294C95.9007 151.294 98.5608 151.231 88.3019 147.036C70.8694 139.91 40.3652 126.71 30.0518 115.369C13.0445 96.6682 5.32578 80.9727 5.32578 80.9727H5.33668Z" fill="black"/>
<path d="M103.482 126.947C84.698 111.4 76.8485 110.858 62.2832 95.3538C56.7558 89.4707 56.5269 88.0795 48.4157 77.7787C42.921 70.7911 8.98267 27.6019 2.485 33.4108C-1.39616 36.8727 3.76054 55.0744 9.27702 67.2761C21.6946 94.7167 43.9349 109.117 61.7163 120.639C78.7345 131.662 79.4868 128.455 112.727 148.26C123.52 154.685 131.675 159.92 132.537 158.327C134.837 154.037 118.789 139.637 103.482 126.968V126.947Z" fill="#F1F1E6" stroke="black" stroke-miterlimit="10"/>
<path opacity="0.2" d="M1.8322 42.2617C2.80249 50.2263 3.77278 55.2068 9.28926 67.3979C21.7068 94.8278 45.4298 111.946 83.0422 132.835C83.0422 132.835 85.735 133.387 75.9776 126.845C59.3846 115.737 30.4721 95.5712 21.7068 81.9465C7.28326 59.5183 1.8322 42.2617 1.8322 42.2617Z" fill="black"/>
<path d="M116.498 127.771C86.0704 105.885 66.6646 84.1257 54.4542 68.0372C38.0356 46.4161 26.7737 24.7737 22.5764 27.1843C19.502 28.9578 21.9331 42.6144 24.6696 51.4816C29.5864 67.4426 35.3537 78.7204 44.1408 88.4796C49.799 94.7557 72.8352 115.485 96.5038 126.37C101.355 128.6 108.583 131.382 117.24 138.869C126.561 146.918 130.017 153.874 131.903 152.961C134.618 151.644 132.23 135.014 123.552 129.534C120.837 127.814 118.21 127.655 116.487 127.771H116.498Z" fill="#F1F1E6" stroke="black" stroke-miterlimit="10"/>
<path opacity="0.2" d="M23.0788 43.8242C24.4089 50.6844 24.954 53.9127 26.0878 56.6312C32.0622 70.9356 37.4697 81.5656 46.0605 90.6346C51.5988 96.4753 73.2614 116.206 96.5156 126.369C96.5156 126.369 54.2917 98.6841 40.7839 77.8701C26.9382 56.525 23.0788 43.8242 23.0788 43.8242Z" fill="black"/>
<path d="M147.814 176.966C145.133 175.681 139.845 183.932 137.283 189.486C136.912 190.283 131.756 201.624 134.285 203.695C136.509 205.522 144.893 200.339 148.065 191.929C150.3 186.003 150.104 178.06 147.814 176.966Z" fill="#F1F1E6" stroke="black" stroke-miterlimit="10"/>
<path opacity="0.2" d="M133.696 200.205C133.01 207.968 141.938 201.554 145.133 197.242C145.133 197.242 142.8 199.833 138.417 201.331C134.034 202.828 133.696 200.205 133.696 200.205Z" fill="black"/>
<path d="M153.508 184.556C151.404 183.557 147.228 190.078 145.212 194.463C144.928 195.09 140.862 204.042 142.835 205.678C144.579 207.122 151.175 203.012 153.682 196.364C155.449 191.681 155.296 185.405 153.497 184.556H153.508Z" fill="#F1F1E6" stroke="black" stroke-miterlimit="10"/>
<path opacity="0.2" d="M142.385 202.928C141.84 209.055 148.861 203.979 151.379 200.57C151.379 200.57 149.536 202.62 146.091 203.809C142.646 204.999 142.385 202.928 142.385 202.928Z" fill="black"/>
<path d="M160.19 189.124C158.544 188.094 154.75 193 152.831 196.366C152.558 196.844 148.688 203.747 150.182 205.276C151.501 206.635 157.116 203.948 159.579 198.777C161.313 195.134 161.596 189.995 160.19 189.124Z" fill="#F1F1E6" stroke="black" stroke-miterlimit="10"/>
<path opacity="0.2" d="M149.987 202.978C149.147 207.926 155.165 204.496 157.422 201.969C157.422 201.969 155.797 203.455 152.93 204.082C150.063 204.709 149.987 202.978 149.987 202.978Z" fill="black"/>
<path d="M141.784 181.86C139.604 179.906 132.299 184.568 128.353 188.051C127.786 188.551 119.805 195.655 121.615 198.172C123.218 200.381 132.528 199.234 137.848 193.743C141.61 189.867 143.637 183.528 141.784 181.86Z" fill="#F1F1E6" stroke="black" stroke-miterlimit="10"/>
<path opacity="0.2" d="M121.411 195.98C121.019 201.311 132.531 199.24 137.852 193.75C137.852 193.75 131.332 197.446 127.069 197.35C122.785 197.254 121.411 195.98 121.411 195.98Z" fill="black"/>
<path d="M138.913 170.81C124.903 172.276 117.206 175.058 111.341 177.883C108.801 179.115 104.658 184.18 105.388 185.922C106.261 188.003 112.846 189.108 116.727 189.373C121.535 189.702 135.14 190.35 140.613 176.332C141.213 174.793 141.584 173.412 141.812 172.467L138.902 170.789L138.913 170.81Z" fill="#F1F1E6" stroke="black" stroke-miterlimit="10"/>
<path opacity="0.2" d="M105.279 185.145C106.336 187.714 115.723 192.366 131.477 186.971C131.477 186.971 122.471 188.15 116.323 187.247C110.119 186.323 105.279 185.155 105.279 185.155V185.145Z" fill="black"/>
<path d="M135.605 164.506C118.39 166.375 92.4977 173.458 93.5443 178.927C93.9476 181.062 101.906 180.117 106.311 181.317C113.691 183.334 125.891 178.46 133.926 173.235C135.365 172.301 137.785 170.326 138.254 169.423C137.251 168.765 136.717 164.389 135.605 164.506Z" fill="#F1F1E6" stroke="black" stroke-miterlimit="10"/>
<path opacity="0.2" d="M93.8468 177.496C92.9311 181.245 101.838 180.576 106.308 181.308C113.612 182.487 111.072 181.765 117.199 180.735C117.199 180.735 109.611 180.969 105.926 179.928C102.22 178.877 94.8498 179.62 93.8468 177.496Z" fill="black"/>
<path d="M132.031 157.434C114.381 156.032 103.926 157.317 96.0216 158.591C92.5983 159.143 86.6676 161.979 86.9619 163.763C87.3108 165.897 94.8769 167.278 99.2595 169.614C105.812 173.108 120.846 174.839 132.184 163.03C133.438 161.724 134.364 160.513 134.953 159.685C133.972 158.931 133.002 158.177 132.02 157.423L132.031 157.434Z" fill="#F1F1E6" stroke="black" stroke-miterlimit="10"/>
<path opacity="0.2" d="M86.9505 162.973C86.4381 164.332 93.6335 168.091 100.644 170.279C108.079 172.604 121.347 171.638 116.179 171.755C110.979 171.882 104.634 170.47 100.306 168.112C95.9448 165.744 87.8554 164.236 86.9505 162.973Z" fill="black"/>
<path d="M109.679 151.401C102.833 151.316 82.7184 147.068 82.0533 149.84C81.3883 152.612 90.8078 157.125 95.3212 158.654C100.914 160.555 114.302 164.389 129.161 157.815C130.786 157.093 131.113 152.282 131.734 151.475C130.775 150.615 116.471 151.486 109.69 151.401H109.679Z" fill="#F1F1E6" stroke="black" stroke-miterlimit="10"/>
<path opacity="0.2" d="M82.4581 150.602C82.807 153.087 90.5911 156.75 95.0937 158.29C100.687 160.191 103.172 161.943 108.809 161.253C108.809 161.253 103.129 160.913 93.9054 156.495C84.5513 152.014 84.9438 152.269 82.4581 150.602Z" fill="black"/>
<path d="M119.85 143.264C95.9958 138.177 75.2163 135.469 75.4453 140.152C75.5761 142.828 84.5485 147.724 87.0451 148.478C111.117 155.752 128.898 153.055 131.406 150.188C131.733 149.816 130.741 146.152 129.411 145.037C126.206 144.443 123.022 143.859 119.85 143.275V143.264Z" fill="#F1F1E6" stroke="black" stroke-miterlimit="10"/>
<path opacity="0.2" d="M75.4517 139.621C75.528 143.572 85.9941 150.623 107.297 152.407C107.297 152.407 91.5324 149.147 84.8058 145.664C78.0137 142.149 75.4517 139.632 75.4517 139.632V139.621Z" fill="black"/>
<path d="M120.191 137.042C94.5495 124.182 71.4588 116.366 70.0742 121.272C69.2893 124.076 77.7929 133.134 80.3658 134.685C105.321 149.733 126.471 145.708 130.45 143.563C130.963 143.287 131.29 136.734 130.167 135.163C126.667 133.506 123.626 138.646 120.18 137.032L120.191 137.042Z" fill="#F1F1E6" stroke="black" stroke-miterlimit="10"/>
<path opacity="0.2" d="M70.0769 121.27C72.1156 130.339 86.6264 142.806 110.895 145.057C110.895 145.057 89.341 138.42 82.3309 133.376C75.3536 128.353 71.0799 124.116 70.0769 121.27Z" fill="black"/>
<path d="M119.849 126.924C95.1991 109.869 72.7298 96.5843 70.3967 101.066C69.0775 103.614 74.5068 113.671 76.5455 116.209C96.8017 141.292 125.987 138.181 130.566 136.864C131.165 136.694 130.751 135.197 129.868 133.508C126.51 131.299 123.163 129.112 119.838 126.924H119.849Z" fill="#F1F1E6" stroke="black" stroke-miterlimit="10"/>
<path opacity="0.2" d="M70.3958 101.054C70.5594 110.069 82.7697 133.443 117.035 137.531C117.035 137.531 101.565 132.869 90.3903 125.807C86.6182 123.429 80.4803 117.567 79.2593 115.942C74.3642 109.422 71.6387 105.769 70.3958 101.043V101.054Z" fill="black"/>
<path d="M115.973 116.386C103.228 110.376 94.1143 103.654 88.2162 98.6943C77.2051 89.4554 68.0364 78.5598 66.6191 80.0997C66.2921 80.4607 66.3793 81.4908 67.5022 84.1244C71.9394 94.5208 80.0942 100.553 84.7712 104.1C104.722 119.232 106.597 121.08 110.239 124.786C118.71 133.42 124.989 131.041 126.624 134.291C130.822 142.669 129.208 135.129 130.189 135.151C131.727 135.193 131.378 143.02 126.603 130.383C125.044 126.273 123.234 123.013 121.806 120.751C119.854 119.285 117.925 117.83 115.984 116.386H115.973Z" fill="#F1F1E6" stroke="black" stroke-miterlimit="10"/>
<path opacity="0.2" d="M66.5217 79.9336C66.1946 80.2947 66.2927 80.2947 67.492 83.9796C71.9183 97.53 96.8405 112.758 101.387 116.21C101.387 116.21 83.3001 100.78 77.6201 94.6946C71.8746 88.5566 66.5217 79.9336 66.5217 79.9336Z" fill="black"/>
<path d="M102.345 94.5441C102.498 94.4379 106.216 101.967 113.367 110.325C120.923 119.139 123.648 118.788 127.638 125.011C132.751 132.976 131.29 138.19 134.256 149.011C136.175 155.988 137.188 162.912 146.379 172.745C155.362 182.345 157.183 181.411 161.784 191.287C163.201 194.335 163.822 199.113 162.034 200.43C161.391 200.908 159.222 201.821 150.293 194.494C141.135 186.975 135.575 182.473 129.917 164.6C126.537 153.928 129.742 152.654 125.36 139.379C123.408 133.454 120.933 128.654 116.093 119.33C108.712 105.11 102.149 94.6715 102.334 94.5441H102.345Z" fill="#F1F1E6" stroke="black" stroke-miterlimit="10"/>
<path opacity="0.2" d="M162.895 199.103C161.892 201.089 159.231 201.832 150.303 194.505C141.145 186.986 135.585 182.483 129.926 164.611C126.547 153.938 129.752 152.664 125.369 139.39C123.418 133.464 120.943 128.664 116.103 119.34C108.722 105.121 102.159 94.6821 102.344 94.5547C102.344 94.5547 114.587 111.992 117.901 118.268C121.183 124.501 127.801 135.312 129.719 149.075C130.275 153.036 130.842 162.466 133.579 168.593C134.843 171.429 136.021 174.699 137.831 177.779C139.368 180.37 141.494 182.802 143.14 184.99C148.831 192.551 155.241 196.65 159.101 198.423C161.074 199.326 162.895 199.113 162.895 199.113V199.103Z" fill="black"/>
</svg>
