<svg width="376" height="498" viewBox="0 0 376 498" fill="none" xmlns="http://www.w3.org/2000/svg">
<path d="M236.837 283.192C225.187 268.362 223.287 262.632 193.637 239.682C140.797 199.812 135.627 104.542 138.797 50.1816C144.017 37.1816 142.237 18.9516 135.977 6.85156C120.007 23.5016 20.0971 30.4916 2.55707 15.8716C-1.05292 31.9716 -0.802948 53.4316 11.3371 65.8216C13.0971 67.1316 13.4571 69.4816 13.8271 71.6616C19.1371 110.162 28.7671 206.932 12.5671 244.192C7.60709 255.602 5.89706 268.122 5.95706 280.742C8.54706 331.012 46.5471 331.622 85.9371 337.382C125.367 349.532 136.727 360.912 169.877 380.702C234.227 419.102 253.387 404.702 292.837 416.442C314.247 422.812 327.677 414.982 367.567 417.832C374.887 418.352 377.667 413.942 370.157 410.582C361.047 406.502 305.017 374.302 269.427 331.882C256.287 316.222 250.017 299.962 236.847 283.192H236.837Z" fill="#F5D3AD"/>
<path fill-rule="evenodd" clip-rule="evenodd" d="M136.103 6L135.62 6.50439C133.696 8.51006 130.465 10.4083 126.193 12.1553C121.931 13.898 116.677 15.4726 110.749 16.8531C98.8954 19.6138 84.3889 21.5886 69.825 22.5879C55.261 23.5872 40.657 23.6098 28.6082 22.4726C22.5833 21.9039 17.2085 21.0462 12.8021 19.88C8.38416 18.7108 4.98898 17.2438 2.88055 15.4864L2.25168 14.9622L2.07254 15.7611C0.257751 23.8548 -0.589355 33.3041 0.548126 42.2995C1.68536 51.2929 4.81216 59.8722 10.9833 66.1704L11.0106 66.1983L11.0419 66.2216C11.8143 66.7965 12.2978 67.6111 12.6345 68.5786C12.9594 69.5123 13.1347 70.5473 13.3132 71.6007L13.3351 71.7288C13.3355 71.7315 13.3359 71.7341 13.3362 71.7368C15.9896 90.9766 19.7216 124.771 20.7669 158.406C21.2897 175.226 21.1403 191.997 19.8503 206.885C18.5594 221.781 16.1293 234.751 12.1119 243.991C7.11557 255.485 5.40021 268.079 5.46042 280.743L5.46048 280.755L5.46109 280.766C6.11179 293.396 8.98886 302.948 13.5876 310.255C18.1885 317.564 24.4908 322.591 31.9321 326.202C39.3661 329.809 47.9416 332.006 57.1012 333.662C63.2007 334.764 69.5834 335.631 76.071 336.511C79.3053 336.95 82.5656 337.393 85.83 337.87C115.615 347.051 129.311 355.775 148.625 368.077C154.811 372.016 161.573 376.323 169.624 381.13C201.849 400.36 222.788 406.384 240.624 409.062C246.574 409.956 252.187 410.478 257.743 410.994C260.492 411.249 263.227 411.503 265.981 411.8C274.313 412.7 282.875 413.997 292.698 416.92L292.84 416.441L292.698 416.92C303.496 420.133 312.284 419.76 323.312 418.954C324.169 418.892 325.039 418.826 325.926 418.76C336.441 417.972 349.178 417.018 367.535 418.329L367.535 418.329C369.413 418.463 371.028 418.283 372.278 417.864C373.516 417.449 374.464 416.775 374.881 415.87C375.315 414.927 375.111 413.88 374.348 412.897C373.597 411.929 372.28 410.981 370.365 410.124C365.851 408.103 349.596 399.053 330.014 385.2C310.437 371.35 287.57 352.723 269.813 331.559C263.272 323.763 258.437 315.814 253.581 307.695C253.357 307.321 253.133 306.947 252.909 306.572C248.274 298.817 243.547 290.908 237.244 282.882L237.094 282.691H237.084C235.254 280.357 233.66 278.242 232.154 276.244C228.963 272.01 226.167 268.3 222.359 264.143C216.694 257.958 208.781 250.768 193.946 239.285L193.942 239.281C167.664 219.454 153.198 185.812 145.706 150.261C138.224 114.758 137.717 77.4377 139.295 50.2908C144.539 37.1434 142.73 18.8085 136.425 6.62074L136.103 6ZM135.844 7.6876C141.796 19.673 143.409 37.362 138.336 49.9942L138.306 50.0699L138.301 50.1514C136.715 77.3578 137.214 114.813 144.727 150.467C152.238 186.108 166.776 220.035 193.337 240.078C208.15 251.544 216.012 258.694 221.622 264.818C225.397 268.94 228.149 272.592 231.322 276.802C232.874 278.861 234.526 281.053 236.447 283.499L236.597 283.691H236.607C242.795 291.6 247.455 299.397 252.059 307.098C252.28 307.468 252.501 307.838 252.723 308.208C257.578 316.327 262.449 324.338 269.047 332.202C286.881 353.458 309.824 372.141 329.437 386.016C349.045 399.888 365.359 408.978 369.956 411.037L369.956 411.037C371.796 411.86 372.948 412.724 373.558 413.51C374.158 414.284 374.21 414.936 373.973 415.451C373.718 416.004 373.068 416.545 371.961 416.915C370.865 417.282 369.388 417.458 367.606 417.332C349.175 416.015 336.376 416.974 325.854 417.763C324.967 417.829 324.096 417.894 323.239 417.957C312.227 418.761 303.595 419.119 292.983 415.961C283.081 413.014 274.454 411.709 266.088 410.806C263.303 410.506 260.554 410.25 257.798 409.994C252.259 409.48 246.695 408.963 240.772 408.074C223.078 405.417 202.262 399.442 170.137 380.271C162.128 375.49 155.388 371.197 149.21 367.262C129.857 354.934 116.035 346.131 86.0877 336.903L86.0509 336.891L86.0128 336.886C82.7127 336.403 79.4282 335.957 76.1763 335.516C69.7023 334.638 63.3579 333.777 57.2791 332.678C48.1543 331.028 39.6823 328.851 32.3687 325.302C25.0626 321.757 18.9173 316.845 14.4339 309.722C9.94968 302.598 7.10587 293.226 6.46036 280.727C6.40167 268.154 8.10678 255.713 13.029 244.39C17.1115 235 19.5527 221.901 20.8465 206.971C22.1412 192.031 22.2899 175.217 21.7664 158.375C20.7195 124.69 16.9824 90.8537 14.3257 71.5922L14.3247 71.5845L14.3234 71.5768L14.2947 71.4076C14.1204 70.377 13.9323 69.2655 13.5789 68.2499C13.2072 67.1817 12.6391 66.1766 11.6711 65.4436C5.7196 59.3541 2.65884 51.02 1.54022 42.174C0.456055 33.6003 1.20181 24.5829 2.87897 16.7525C5.15887 18.419 8.47849 19.7702 12.5463 20.8467C17.0233 22.0316 22.4564 22.8963 28.5142 23.4681C40.6308 24.6118 55.2912 24.5875 69.8934 23.5856C84.4958 22.5836 99.0574 20.6028 110.976 17.827C116.935 16.4392 122.244 14.8503 126.571 13.0809C130.558 11.4507 133.75 9.65217 135.844 7.6876Z" fill="black"/>
<path d="M236.837 283.192C225.187 268.362 223.287 262.632 193.637 239.682C140.797 199.812 135.627 104.542 138.797 50.1816C144.017 37.1816 142.237 18.9516 135.977 6.85156C120.007 23.5016 20.0971 30.4916 2.55707 15.8716C-1.05292 31.9716 -0.802948 53.4316 11.3371 65.8216C13.0971 67.1316 13.4571 69.4816 13.8271 71.6616C19.1371 110.162 28.7671 206.932 12.5671 244.192C7.60709 255.602 5.89706 268.122 5.95706 280.742C8.54706 331.012 46.5471 331.622 85.9371 337.382C125.367 349.532 136.727 360.912 169.877 380.702C234.227 419.102 253.387 404.702 292.837 416.442C314.247 422.812 327.677 414.982 367.567 417.832C374.887 418.352 377.667 413.942 370.157 410.582C361.047 406.502 305.017 374.302 269.427 331.882C256.287 316.222 250.017 299.962 236.847 283.192H236.837Z" fill="#F5D3AD"/>
<path fill-rule="evenodd" clip-rule="evenodd" d="M136.103 6L135.62 6.50439C133.696 8.51006 130.465 10.4083 126.193 12.1553C121.931 13.898 116.677 15.4726 110.749 16.8531C98.8954 19.6138 84.3889 21.5886 69.825 22.5879C55.261 23.5872 40.657 23.6098 28.6082 22.4726C22.5833 21.9039 17.2085 21.0462 12.8021 19.88C8.38416 18.7108 4.98898 17.2438 2.88055 15.4864L2.25168 14.9622L2.07254 15.7611C0.257751 23.8548 -0.589355 33.3041 0.548126 42.2995C1.68536 51.2929 4.81216 59.8722 10.9833 66.1704L11.0106 66.1983L11.0419 66.2216C11.8143 66.7965 12.2978 67.6111 12.6345 68.5786C12.9594 69.5123 13.1347 70.5473 13.3132 71.6007L13.3351 71.7288C13.3355 71.7315 13.3359 71.7341 13.3362 71.7368C15.9896 90.9766 19.7216 124.771 20.7669 158.406C21.2897 175.226 21.1403 191.997 19.8503 206.885C18.5594 221.781 16.1293 234.751 12.1119 243.991C7.11557 255.485 5.40021 268.079 5.46042 280.743L5.46048 280.755L5.46109 280.766C6.11179 293.396 8.98886 302.948 13.5876 310.255C18.1885 317.564 24.4908 322.591 31.9321 326.202C39.3661 329.809 47.9416 332.006 57.1012 333.662C63.2007 334.764 69.5834 335.631 76.071 336.511C79.3053 336.95 82.5656 337.393 85.83 337.87C115.615 347.051 129.311 355.775 148.625 368.077C154.811 372.016 161.573 376.323 169.624 381.13C201.849 400.36 222.788 406.384 240.624 409.062C246.574 409.956 252.187 410.478 257.743 410.994C260.492 411.249 263.227 411.503 265.981 411.8C274.313 412.7 282.875 413.997 292.698 416.92L292.84 416.441L292.698 416.92C303.496 420.133 312.284 419.76 323.312 418.954C324.169 418.892 325.039 418.826 325.926 418.76C336.441 417.972 349.178 417.018 367.535 418.329L367.535 418.329C369.413 418.463 371.028 418.283 372.278 417.864C373.516 417.449 374.464 416.775 374.881 415.87C375.315 414.927 375.111 413.88 374.348 412.897C373.597 411.929 372.28 410.981 370.365 410.124C365.851 408.103 349.596 399.053 330.014 385.2C310.437 371.35 287.57 352.723 269.813 331.559C263.272 323.763 258.437 315.814 253.581 307.695C253.357 307.321 253.133 306.947 252.909 306.572C248.274 298.817 243.547 290.908 237.244 282.882L237.094 282.691H237.084C235.254 280.357 233.66 278.242 232.154 276.244C228.963 272.01 226.167 268.3 222.359 264.143C216.694 257.958 208.781 250.768 193.946 239.285L193.942 239.281C167.664 219.454 153.198 185.812 145.706 150.261C138.224 114.758 137.717 77.4377 139.295 50.2908C144.539 37.1434 142.73 18.8085 136.425 6.62074L136.103 6ZM135.844 7.6876C141.796 19.673 143.409 37.362 138.336 49.9942L138.306 50.0699L138.301 50.1514C136.715 77.3578 137.214 114.813 144.727 150.467C152.238 186.108 166.776 220.035 193.337 240.078C208.15 251.544 216.012 258.694 221.622 264.818C225.397 268.94 228.149 272.592 231.322 276.802C232.874 278.861 234.526 281.053 236.447 283.499L236.597 283.691H236.607C242.795 291.6 247.455 299.397 252.059 307.098C252.28 307.468 252.501 307.838 252.723 308.208C257.578 316.327 262.449 324.338 269.047 332.202C286.881 353.458 309.824 372.141 329.437 386.016C349.045 399.888 365.359 408.978 369.956 411.037L369.956 411.037C371.796 411.86 372.948 412.724 373.558 413.51C374.158 414.284 374.21 414.936 373.973 415.451C373.718 416.004 373.068 416.545 371.961 416.915C370.865 417.282 369.388 417.458 367.606 417.332C349.175 416.015 336.376 416.974 325.854 417.763C324.967 417.829 324.096 417.894 323.239 417.957C312.227 418.761 303.595 419.119 292.983 415.961C283.081 413.014 274.454 411.709 266.088 410.806C263.303 410.506 260.554 410.25 257.798 409.994C252.259 409.48 246.695 408.963 240.772 408.074C223.078 405.417 202.262 399.442 170.137 380.271C162.128 375.49 155.388 371.197 149.21 367.262C129.857 354.934 116.035 346.131 86.0877 336.903L86.0509 336.891L86.0128 336.886C82.7127 336.403 79.4282 335.957 76.1763 335.516C69.7023 334.638 63.3579 333.777 57.2791 332.678C48.1543 331.028 39.6823 328.851 32.3687 325.302C25.0626 321.757 18.9173 316.845 14.4339 309.722C9.94968 302.598 7.10587 293.226 6.46036 280.727C6.40167 268.154 8.10678 255.713 13.029 244.39C17.1115 235 19.5527 221.901 20.8465 206.971C22.1412 192.031 22.2899 175.217 21.7664 158.375C20.7195 124.69 16.9824 90.8537 14.3257 71.5922L14.3247 71.5845L14.3234 71.5768L14.2947 71.4076C14.1204 70.377 13.9323 69.2655 13.5789 68.2499C13.2072 67.1817 12.6391 66.1766 11.6711 65.4436C5.7196 59.3541 2.65884 51.02 1.54022 42.174C0.456055 33.6003 1.20181 24.5829 2.87897 16.7525C5.15887 18.419 8.47849 19.7702 12.5463 20.8467C17.0233 22.0316 22.4564 22.8963 28.5142 23.4681C40.6308 24.6118 55.2912 24.5875 69.8934 23.5856C84.4958 22.5836 99.0574 20.6028 110.976 17.827C116.935 16.4392 122.244 14.8503 126.571 13.0809C130.558 11.4507 133.75 9.65217 135.844 7.6876Z" fill="black"/>
<path d="M2.60985 15.4372C9.65985 32.7672 130.35 22.6272 135.59 6.57723C135.36 4.55723 116.45 -0.902768 71.1498 0.837232C25.8498 2.56723 2.60985 12.7972 2.60985 15.4372Z" fill="#EAA252"/>
<path fill-rule="evenodd" clip-rule="evenodd" d="M135.051 6.59545C134.733 7.41708 134.054 8.26406 132.994 9.12374C131.863 10.0407 130.334 10.9439 128.448 11.8237C124.676 13.5831 119.54 15.2188 113.474 16.6837C101.346 19.6124 85.5766 21.84 69.74 23.0261C53.9026 24.2124 38.0229 24.3552 25.6736 23.1234C19.4964 22.5073 14.2257 21.5493 10.2922 20.2169C8.32559 19.5507 6.71118 18.7968 5.48924 17.9578C4.32272 17.1568 3.53847 16.2953 3.12859 15.3818C3.14845 15.3389 3.18802 15.2706 3.26675 15.1749C3.41217 14.9981 3.64862 14.7797 3.99306 14.5248C4.67986 14.0165 5.73189 13.4097 7.16037 12.738C10.0128 11.3967 14.304 9.82547 20.0216 8.27863C31.4535 5.18588 48.5506 2.20061 71.1676 1.33687L71.1677 1.33686C93.7968 0.467666 109.82 1.39751 120.203 2.79278C125.397 3.49065 129.169 4.30355 131.647 5.06161C132.888 5.44141 133.788 5.80223 134.374 6.11912C134.668 6.2782 134.865 6.41641 134.985 6.52726C135.014 6.55419 135.035 6.57693 135.051 6.59545ZM120.336 1.80169C109.882 0.396956 93.8003 -0.533199 71.1294 0.337596C48.4464 1.20386 31.2736 4.19859 19.7605 7.31333C14.0056 8.87024 9.65556 10.4596 6.73485 11.833C5.27678 12.5187 4.15927 13.1577 3.39818 13.721C3.01868 14.0018 2.71159 14.2756 2.49446 14.5396C2.28726 14.7915 2.10855 15.0987 2.10855 15.4372V15.535L2.1454 15.6256C2.63492 16.8289 3.60115 17.8743 4.92319 18.7821C6.24626 19.6906 7.95282 20.4802 9.97131 21.164C14.0079 22.5314 19.3637 23.499 25.5744 24.1185C38.0011 25.358 53.9432 25.2121 69.8146 24.0233C85.6868 22.8345 101.513 20.6008 113.709 17.6558C119.804 16.1838 125.012 14.5295 128.871 12.73C130.8 11.8303 132.408 10.8869 133.624 9.90043C134.836 8.91734 135.695 7.863 136.064 6.73241L136.098 6.62888L136.085 6.52067C136.051 6.21716 135.859 5.97414 135.665 5.79428C135.46 5.60407 135.183 5.41954 134.849 5.23941C134.181 4.87786 133.211 4.49431 131.939 4.10535C129.391 3.32591 125.562 2.50381 120.336 1.80169Z" fill="black"/>
<path d="M11.8213 243.821C-9.36874 304.131 19.0813 333.451 80.4013 335.601C100.181 267.351 75.0013 239.121 11.8213 243.821Z" fill="#EAA252"/>
<path fill-rule="evenodd" clip-rule="evenodd" d="M80.0293 335.087C49.6202 333.961 27.5008 326.111 15.5603 311.208C3.62826 296.316 1.73724 274.219 12.1849 244.295C43.5561 242.013 65.308 247.918 76.8274 262.662C88.3493 277.41 89.7901 301.198 80.0293 335.087ZM77.6154 262.047C65.7346 246.84 43.4176 240.969 11.7843 243.322L11.4581 243.346L11.3496 243.655C0.728401 273.885 2.49551 296.502 14.7799 311.833C27.046 327.142 49.6736 335.024 80.3838 336.1L80.7732 336.114L80.8816 335.74C90.7821 301.579 89.4911 277.247 77.6154 262.047Z" fill="black"/>
<path d="M70.3081 23.3491C101.058 21.1991 126.848 14.3891 135.948 6.78906C142.218 18.9591 143.978 37.0591 138.768 50.1191C98.8281 66.1591 56.2381 69.4291 11.3081 65.7691C-0.811905 53.4191 -1.0919 31.8891 2.52809 15.8191C12.2381 22.2691 39.0681 25.5491 70.3081 23.3591V23.3491Z" fill="#EAA252"/>
<path fill-rule="evenodd" clip-rule="evenodd" d="M136.107 6.00781L135.628 6.40794C131.169 10.1318 122.54 13.7127 111.123 16.631C99.7279 19.5437 85.6232 21.7797 70.2731 22.8529L69.808 22.8854V22.8951C54.3903 23.9506 40.0746 23.67 28.4011 22.3349C16.5842 20.9835 7.55341 18.5596 2.80469 15.4052L2.19983 15.0034L2.04025 15.7118C0.220261 23.7912 -0.62175 33.2506 0.519501 42.2546C1.66046 51.2563 4.78966 59.8435 10.9512 66.1219L11.0817 66.2549L11.2674 66.2701C56.2455 69.934 98.9194 66.6638 138.954 50.5857L139.153 50.5059L139.232 50.307C144.503 37.0951 142.72 18.8438 136.393 6.56271L136.107 6.00781ZM135.781 7.56955C141.736 19.5565 143.359 37.0398 138.382 49.7377C98.65 65.6484 56.2735 68.9143 11.5352 65.2885C5.66179 59.2283 2.62743 50.9325 1.51157 42.1288C0.420227 33.5186 1.16963 24.4609 2.86243 16.6267C7.95038 19.7259 16.9217 22.0286 28.2875 23.3285C40.1491 24.685 54.6978 24.9572 70.343 23.8605L70.808 23.8279V23.8176C86.028 22.7285 100.024 20.5002 111.371 17.5999C122.422 14.775 131.025 11.297 135.781 7.56955Z" fill="black"/>
<path d="M316.691 418.872C326.201 418.222 352.151 416.792 367.591 417.902C374.911 418.422 377.691 414.012 370.181 410.652C364.341 408.202 340.151 393.792 326.061 382.992C317.671 389.822 312.151 401.742 316.681 418.872H316.691Z" fill="#EAA252"/>
<path fill-rule="evenodd" clip-rule="evenodd" d="M326.051 382.352L325.744 382.601C317.194 389.561 311.619 401.686 316.197 418.997L316.295 419.369H316.707L316.724 419.368C326.238 418.717 352.154 417.29 367.554 418.397C369.432 418.531 371.047 418.351 372.298 417.932C373.536 417.517 374.483 416.843 374.9 415.938C375.334 414.996 375.13 413.948 374.368 412.966C373.616 411.997 372.299 411.049 370.384 410.192L370.373 410.188C367.495 408.98 360.02 404.786 351.476 399.524C342.944 394.269 333.39 387.977 326.364 382.592L326.051 382.352ZM369.981 411.107C371.818 411.93 372.968 412.792 373.578 413.579C374.178 414.352 374.229 415.004 373.992 415.52C373.738 416.072 373.087 416.613 371.98 416.984C370.885 417.35 369.408 417.527 367.625 417.4C352.359 416.303 326.878 417.681 317.06 418.342C312.821 401.816 318.076 390.313 326.072 383.627C333.104 388.987 342.533 395.191 350.952 400.376C359.48 405.628 367.015 409.862 369.981 411.107Z" fill="black"/>
<path fill-rule="evenodd" clip-rule="evenodd" d="M223.397 265.445C223.129 265.377 222.857 265.539 222.789 265.807C219.369 279.248 215.218 288.685 208.823 296.424C202.424 304.167 193.746 310.25 181.198 316.928C180.955 317.058 180.862 317.361 180.992 317.605C181.122 317.848 181.424 317.941 181.668 317.811C194.26 311.109 203.072 304.953 209.594 297.061C216.118 289.165 220.318 279.572 223.758 266.053C223.826 265.785 223.664 265.513 223.397 265.445Z" fill="black"/>
<path fill-rule="evenodd" clip-rule="evenodd" d="M263.026 322.828C262.758 322.76 262.486 322.922 262.418 323.189C260.533 330.596 258.252 335.772 254.749 340.012C251.243 344.255 246.48 347.598 239.557 351.281C239.314 351.411 239.221 351.714 239.351 351.957C239.481 352.201 239.783 352.294 240.027 352.164C246.994 348.457 251.891 345.04 255.52 340.649C259.152 336.253 261.482 330.92 263.387 323.436C263.455 323.168 263.293 322.896 263.026 322.828Z" fill="black"/>
<path opacity="0.2" d="M257.277 410.463C243.677 409.603 235.217 407.193 224.127 404.783C213.037 402.373 189.947 391.913 181.567 387.393C173.187 382.873 162.127 376.163 156.847 372.893C151.567 369.623 148.217 366.443 133.557 358.063C118.897 349.683 105.767 343.413 85.9473 337.303C46.5573 331.543 5.99728 330.463 5.43729 280.173C5.29727 267.553 7.65729 255.043 12.3673 243.533C25.2173 215.563 22.2173 144.563 17.2173 100.563C14.9573 80.7131 13.3573 66.5331 11.1473 65.1531C-1.78271 52.5631 -0.382721 31.7331 2.36728 15.2031C49.1273 43.8531 21.0373 124.203 33.1673 199.563C40.3073 243.953 10.2073 259.673 30.8173 293.493C51.4273 327.313 93.5573 330.213 107.787 335.533C117.907 339.613 125.047 343.263 138.377 349.983C145.577 353.463 164.757 364.993 180.047 373.973C195.337 382.953 210.177 393.243 225.367 397.403C241.627 401.853 247.047 403.993 280.147 407.913C289.267 408.993 297.637 412.713 310.757 414.113C334.447 416.633 363.987 416.603 370.217 417.503C377.897 418.613 350.177 416.993 346.007 416.993C341.837 416.993 312.857 418.813 308.257 418.903C303.657 419.003 291.477 416.173 289.557 415.713C278.867 413.163 270.877 411.313 257.277 410.453V410.463Z" fill="black"/>
<path opacity="0.2" d="M2.58734 14.7625C5.33734 21.8625 22.9973 25.4225 60.2773 24.9225C51.1673 22.7525 27.0373 18.1625 24.4073 15.8225C19.1573 11.1425 25.0473 6.55245 20.8373 7.55245C10.0573 10.1125 2.70735 14.1825 2.59735 14.7725L2.58734 14.7625Z" fill="black"/>
<g clip-path="url(#clip0_4775_423467)">
<path d="M207.863 223.432C187.353 222.964 175.591 231.483 173.47 246.17C173.159 248.318 174.297 250.506 175.444 252.008C177.983 255.351 180.473 258.572 186.428 258.936C193.644 259.372 206.471 259.937 204.456 252.791" fill="#F7931E"/>
<path d="M207.863 223.432C187.353 222.964 175.591 231.483 173.47 246.17C173.159 248.318 174.297 250.506 175.444 252.008C177.983 255.351 180.473 258.572 186.428 258.936C193.644 259.372 206.471 259.937 204.456 252.791" stroke="black" stroke-width="0.338972" stroke-miterlimit="10" stroke-linecap="round"/>
<path opacity="0.2" d="M186.408 258.946C193.608 259.544 213.167 259.915 198.35 250.734C198.35 250.734 201.831 254.893 197.621 257.008C192.887 259.398 186.4 258.946 186.4 258.946H186.408Z" fill="black"/>
<path d="M196.073 240.273C196.073 252.239 203.06 259.054 211.332 256.438C217.59 254.468 221.645 247.379 221.645 240.217C221.645 233.055 217.59 225.965 211.332 223.987C203.06 221.371 196.073 228.307 196.073 240.273Z" fill="#FFF383" stroke="black" stroke-width="0.338972" stroke-miterlimit="10" stroke-linecap="round"/>
<path d="M217.305 233.415C215.626 229.127 212.456 225.607 208.336 224.307C207.304 223.984 206.288 223.806 205.305 223.766" stroke="black" stroke-width="0.338972" stroke-miterlimit="10" stroke-linecap="round"/>
<path d="M217.215 248.758C215.429 252.327 212.554 255.161 208.942 256.299C207.91 256.622 206.894 256.8 205.912 256.84" stroke="black" stroke-width="0.338972" stroke-miterlimit="10" stroke-linecap="round"/>
<path d="M194.209 240.308C194.201 221.858 208.125 223.44 208.125 223.44C201.368 223.351 196.15 229.932 196.15 240.275C196.15 250.619 201.581 257.377 208.543 256.981C208.543 256.981 194.217 258.636 194.209 240.308Z" fill="#C4711E" stroke="black" stroke-width="0.338972" stroke-miterlimit="10" stroke-linecap="round"/>
</g>
<g clip-path="url(#clip1_4775_423467)">
<path d="M138.863 260.432C118.353 259.964 106.591 268.483 104.47 283.17C104.159 285.318 105.297 287.506 106.444 289.008C108.983 292.351 111.473 295.572 117.428 295.936C124.644 296.372 137.471 296.937 135.456 289.791" fill="#F7931E"/>
<path d="M138.863 260.432C118.353 259.964 106.591 268.483 104.47 283.17C104.159 285.318 105.297 287.506 106.444 289.008C108.983 292.351 111.473 295.572 117.428 295.936C124.644 296.372 137.471 296.937 135.456 289.791" stroke="black" stroke-width="0.338972" stroke-miterlimit="10" stroke-linecap="round"/>
<path opacity="0.2" d="M117.408 295.946C124.608 296.544 144.167 296.915 129.35 287.734C129.35 287.734 132.831 291.893 128.621 294.008C123.887 296.398 117.4 295.946 117.4 295.946H117.408Z" fill="black"/>
<path d="M127.073 277.273C127.073 289.239 134.06 296.054 142.332 293.438C148.59 291.468 152.645 284.379 152.645 277.217C152.645 270.055 148.59 262.965 142.332 260.987C134.06 258.371 127.073 265.307 127.073 277.273Z" fill="#FFF383" stroke="black" stroke-width="0.338972" stroke-miterlimit="10" stroke-linecap="round"/>
<path d="M148.305 270.415C146.626 266.127 143.456 262.607 139.336 261.307C138.304 260.984 137.288 260.806 136.305 260.766" stroke="black" stroke-width="0.338972" stroke-miterlimit="10" stroke-linecap="round"/>
<path d="M148.215 285.758C146.429 289.327 143.554 292.161 139.942 293.299C138.91 293.622 137.894 293.8 136.912 293.84" stroke="black" stroke-width="0.338972" stroke-miterlimit="10" stroke-linecap="round"/>
<path d="M125.209 277.308C125.201 258.858 139.125 260.44 139.125 260.44C132.368 260.351 127.15 266.932 127.15 277.275C127.15 287.619 132.581 294.377 139.543 293.981C139.543 293.981 125.217 295.636 125.209 277.308Z" fill="#C4711E" stroke="black" stroke-width="0.338972" stroke-miterlimit="10" stroke-linecap="round"/>
</g>
<defs>
<clipPath id="clip0_4775_423467">
<rect width="49.0385" height="36.9565" fill="white" transform="matrix(-1 0 0 1 222.035 223)"/>
</clipPath>
<clipPath id="clip1_4775_423467">
<rect width="49.0385" height="36.9565" fill="white" transform="matrix(-1 0 0 1 153.035 260)"/>
</clipPath>
</defs>
</svg>
