<svg width="377" height="420" viewBox="0 0 377 420" fill="none" xmlns="http://www.w3.org/2000/svg">
<path d="M236.966 283.192C225.316 268.362 223.416 262.632 193.766 239.682C140.926 199.812 135.756 104.542 138.926 50.1816C144.146 37.1816 142.366 18.9516 136.106 6.85156C120.136 23.5016 20.226 30.4916 2.68597 15.8716C-0.924011 31.9716 -0.674042 53.4316 11.466 65.8216C13.226 67.1316 13.586 69.4816 13.956 71.6616C19.266 110.162 28.896 206.932 12.696 244.192C7.73599 255.602 6.02597 268.122 6.08597 280.742C8.67596 331.012 46.676 331.622 86.066 337.382C125.496 349.532 136.856 360.912 170.006 380.702C234.356 419.102 253.516 404.702 292.966 416.442C314.376 422.812 327.806 414.982 367.696 417.832C375.016 418.352 377.796 413.942 370.286 410.582C361.176 406.502 305.146 374.302 269.556 331.882C256.416 316.222 250.146 299.962 236.976 283.192H236.966Z" fill="#ABDEB7"/>
<path fill-rule="evenodd" clip-rule="evenodd" d="M136.232 6L135.748 6.50439C133.825 8.51006 130.594 10.4083 126.321 12.1553C122.06 13.898 116.806 15.4726 110.878 16.8531C99.0243 19.6138 84.5178 21.5886 69.9539 22.5879C55.3899 23.5872 40.7859 23.6098 28.7371 22.4726C22.7122 21.9039 17.3374 21.0462 12.931 19.88C8.51306 18.7108 5.11789 17.2438 3.00946 15.4864L2.38058 14.9622L2.20145 15.7611C0.386658 23.8548 -0.460449 33.3041 0.677032 42.2995C1.81427 51.2929 4.94107 59.8722 11.1122 66.1704L11.1395 66.1983L11.1708 66.2216C11.9432 66.7965 12.4267 67.6111 12.7634 68.5786C13.0883 69.5123 13.2636 70.5473 13.4421 71.6007L13.4641 71.7288C13.4644 71.7315 13.4648 71.7341 13.4651 71.7368C16.1185 90.9766 19.8505 124.771 20.8958 158.406C21.4186 175.226 21.2692 191.997 19.9792 206.885C18.6883 221.781 16.2582 234.751 12.2408 243.991C7.24448 255.485 5.52911 268.079 5.58932 280.743L5.58939 280.755L5.59 280.766C6.24069 293.396 9.11777 302.948 13.7165 310.255C18.3174 317.564 24.6197 322.591 32.061 326.202C39.495 329.809 48.0705 332.006 57.2301 333.662C63.3296 334.764 69.7123 335.631 76.1999 336.511C79.4342 336.95 82.6945 337.393 85.9589 337.87C115.744 347.051 129.44 355.775 148.754 368.077C154.94 372.016 161.702 376.323 169.753 381.13C201.978 400.36 222.917 406.384 240.753 409.062C246.702 409.956 252.316 410.478 257.872 410.994C260.621 411.249 263.355 411.503 266.109 411.8C274.442 412.7 283.004 413.997 292.827 416.92L292.969 416.441L292.827 416.92C303.625 420.133 312.413 419.76 323.441 418.954C324.298 418.892 325.168 418.826 326.055 418.76C336.57 417.972 349.307 417.018 367.664 418.329L367.664 418.329C369.542 418.463 371.157 418.283 372.407 417.864C373.645 417.449 374.593 416.775 375.01 415.87C375.444 414.927 375.24 413.88 374.477 412.897C373.726 411.929 372.409 410.981 370.494 410.124C365.98 408.103 349.725 399.053 330.143 385.2C310.566 371.35 287.699 352.723 269.942 331.559C263.401 323.763 258.566 315.814 253.71 307.695C253.486 307.321 253.262 306.947 253.038 306.572C248.403 298.817 243.676 290.908 237.373 282.882L237.222 282.691H237.213C235.383 280.357 233.789 278.242 232.283 276.244C229.092 272.01 226.296 268.3 222.488 264.143C216.823 257.958 208.91 250.768 194.075 239.285L194.07 239.281C167.793 219.454 153.327 185.812 145.835 150.261C138.353 114.758 137.846 77.4377 139.424 50.2908C144.668 37.1434 142.859 18.8085 136.553 6.62074L136.232 6ZM135.973 7.6876C141.925 19.673 143.538 37.362 138.465 49.9942L138.435 50.0699L138.43 50.1514C136.844 77.3578 137.343 114.813 144.856 150.467C152.367 186.108 166.905 220.035 193.466 240.078C208.279 251.544 216.141 258.694 221.751 264.818C225.526 268.94 228.278 272.592 231.451 276.802C233.002 278.861 234.654 281.053 236.576 283.499L236.726 283.691H236.736C242.924 291.6 247.584 299.397 252.187 307.098C252.409 307.468 252.63 307.838 252.851 308.208C257.707 316.327 262.578 324.338 269.176 332.202C287.01 353.458 309.953 372.141 329.566 386.016C349.174 399.888 365.488 408.978 370.085 411.037L370.085 411.037C371.925 411.86 373.077 412.724 373.687 413.51C374.287 414.284 374.339 414.936 374.101 415.451C373.847 416.004 373.197 416.545 372.089 416.915C370.994 417.282 369.517 417.458 367.735 417.332C349.304 416.015 336.505 416.974 325.983 417.763C325.096 417.829 324.225 417.894 323.368 417.957C312.356 418.761 303.724 419.119 293.112 415.961C283.21 413.014 274.583 411.709 266.217 410.806C263.432 410.506 260.683 410.25 257.927 409.994C252.388 409.48 246.824 408.963 240.901 408.074C223.207 405.417 202.391 399.442 170.266 380.271C162.257 375.49 155.516 371.197 149.339 367.262C129.986 354.934 116.164 346.131 86.2166 336.903L86.1798 336.891L86.1417 336.886C82.8416 336.403 79.5571 335.957 76.3052 335.516C69.8312 334.638 63.4868 333.777 57.408 332.678C48.2832 331.028 39.8112 328.851 32.4976 325.302C25.1915 321.757 19.0462 316.845 14.5628 309.722C10.0786 302.598 7.23477 293.226 6.58926 280.727C6.53058 268.154 8.23569 255.713 13.1579 244.39C17.2404 235 19.6816 221.901 20.9754 206.971C22.2701 192.031 22.4188 175.217 21.8954 158.375C20.8484 124.69 17.1113 90.8537 14.4547 71.5922L14.4536 71.5845L14.4523 71.5768L14.4236 71.4076C14.2493 70.377 14.0612 69.2655 13.7078 68.2499C13.3361 67.1817 12.768 66.1766 11.8 65.4436C5.84851 59.3541 2.78775 51.02 1.66913 42.174C0.584961 33.6003 1.33072 24.5829 3.00787 16.7525C5.28778 18.419 8.60739 19.7702 12.6752 20.8467C17.1523 22.0316 22.5853 22.8963 28.6431 23.4681C40.7597 24.6118 55.4201 24.5875 70.0223 23.5856C84.6247 22.5836 99.1863 20.6028 111.105 17.827C117.064 16.4392 122.373 14.8503 126.7 13.0809C130.687 11.4507 133.879 9.65217 135.973 7.6876Z" fill="black"/>
<path d="M236.966 283.192C225.316 268.362 223.416 262.632 193.766 239.682C140.926 199.812 135.756 104.542 138.926 50.1816C144.146 37.1816 142.366 18.9516 136.106 6.85156C120.136 23.5016 20.226 30.4916 2.68597 15.8716C-0.924011 31.9716 -0.674042 53.4316 11.466 65.8216C13.226 67.1316 13.586 69.4816 13.956 71.6616C19.266 110.162 28.896 206.932 12.696 244.192C7.73599 255.602 6.02597 268.122 6.08597 280.742C8.67596 331.012 46.676 331.622 86.066 337.382C125.496 349.532 136.856 360.912 170.006 380.702C234.356 419.102 253.516 404.702 292.966 416.442C314.376 422.812 327.806 414.982 367.696 417.832C375.016 418.352 377.796 413.942 370.286 410.582C361.176 406.502 305.146 374.302 269.556 331.882C256.416 316.222 250.146 299.962 236.976 283.192H236.966Z" fill="#ABDEB7"/>
<path fill-rule="evenodd" clip-rule="evenodd" d="M136.232 6L135.748 6.50439C133.825 8.51006 130.594 10.4083 126.321 12.1553C122.06 13.898 116.806 15.4726 110.878 16.8531C99.0243 19.6138 84.5178 21.5886 69.9539 22.5879C55.3899 23.5872 40.7859 23.6098 28.7371 22.4726C22.7122 21.9039 17.3374 21.0462 12.931 19.88C8.51306 18.7108 5.11789 17.2438 3.00946 15.4864L2.38058 14.9622L2.20145 15.7611C0.386658 23.8548 -0.460449 33.3041 0.677032 42.2995C1.81427 51.2929 4.94107 59.8722 11.1122 66.1704L11.1395 66.1983L11.1708 66.2216C11.9432 66.7965 12.4267 67.6111 12.7634 68.5786C13.0883 69.5123 13.2636 70.5473 13.4421 71.6007L13.4641 71.7288C13.4644 71.7315 13.4648 71.7341 13.4651 71.7368C16.1185 90.9766 19.8505 124.771 20.8958 158.406C21.4186 175.226 21.2692 191.997 19.9792 206.885C18.6883 221.781 16.2582 234.751 12.2408 243.991C7.24448 255.485 5.52911 268.079 5.58932 280.743L5.58939 280.755L5.59 280.766C6.24069 293.396 9.11777 302.948 13.7165 310.255C18.3174 317.564 24.6197 322.591 32.061 326.202C39.495 329.809 48.0705 332.006 57.2301 333.662C63.3296 334.764 69.7123 335.631 76.1999 336.511C79.4342 336.95 82.6945 337.393 85.9589 337.87C115.744 347.051 129.44 355.775 148.754 368.077C154.94 372.016 161.702 376.323 169.753 381.13C201.978 400.36 222.917 406.384 240.753 409.062C246.702 409.956 252.316 410.478 257.872 410.994C260.621 411.249 263.355 411.503 266.109 411.8C274.442 412.7 283.004 413.997 292.827 416.92L292.969 416.441L292.827 416.92C303.625 420.133 312.413 419.76 323.441 418.954C324.298 418.892 325.168 418.826 326.055 418.76C336.57 417.972 349.307 417.018 367.664 418.329L367.664 418.329C369.542 418.463 371.157 418.283 372.407 417.864C373.645 417.449 374.593 416.775 375.01 415.87C375.444 414.927 375.24 413.88 374.477 412.897C373.726 411.929 372.409 410.981 370.494 410.124C365.98 408.103 349.725 399.053 330.143 385.2C310.566 371.35 287.699 352.723 269.942 331.559C263.401 323.763 258.566 315.814 253.71 307.695C253.486 307.321 253.262 306.947 253.038 306.572C248.403 298.817 243.676 290.908 237.373 282.882L237.222 282.691H237.213C235.383 280.357 233.789 278.242 232.283 276.244C229.092 272.01 226.296 268.3 222.488 264.143C216.823 257.958 208.91 250.768 194.075 239.285L194.07 239.281C167.793 219.454 153.327 185.812 145.835 150.261C138.353 114.758 137.846 77.4377 139.424 50.2908C144.668 37.1434 142.859 18.8085 136.553 6.62074L136.232 6ZM135.973 7.6876C141.925 19.673 143.538 37.362 138.465 49.9942L138.435 50.0699L138.43 50.1514C136.844 77.3578 137.343 114.813 144.856 150.467C152.367 186.108 166.905 220.035 193.466 240.078C208.279 251.544 216.141 258.694 221.751 264.818C225.526 268.94 228.278 272.592 231.451 276.802C233.002 278.861 234.654 281.053 236.576 283.499L236.726 283.691H236.736C242.924 291.6 247.584 299.397 252.187 307.098C252.409 307.468 252.63 307.838 252.851 308.208C257.707 316.327 262.578 324.338 269.176 332.202C287.01 353.458 309.953 372.141 329.566 386.016C349.174 399.888 365.488 408.978 370.085 411.037L370.085 411.037C371.925 411.86 373.077 412.724 373.687 413.51C374.287 414.284 374.339 414.936 374.101 415.451C373.847 416.004 373.197 416.545 372.089 416.915C370.994 417.282 369.517 417.458 367.735 417.332C349.304 416.015 336.505 416.974 325.983 417.763C325.096 417.829 324.225 417.894 323.368 417.957C312.356 418.761 303.724 419.119 293.112 415.961C283.21 413.014 274.583 411.709 266.217 410.806C263.432 410.506 260.683 410.25 257.927 409.994C252.388 409.48 246.824 408.963 240.901 408.074C223.207 405.417 202.391 399.442 170.266 380.271C162.257 375.49 155.516 371.197 149.339 367.262C129.986 354.934 116.164 346.131 86.2166 336.903L86.1798 336.891L86.1417 336.886C82.8416 336.403 79.5571 335.957 76.3052 335.516C69.8312 334.638 63.4868 333.777 57.408 332.678C48.2832 331.028 39.8112 328.851 32.4976 325.302C25.1915 321.757 19.0462 316.845 14.5628 309.722C10.0786 302.598 7.23477 293.226 6.58926 280.727C6.53058 268.154 8.23569 255.713 13.1579 244.39C17.2404 235 19.6816 221.901 20.9754 206.971C22.2701 192.031 22.4188 175.217 21.8954 158.375C20.8484 124.69 17.1113 90.8537 14.4547 71.5922L14.4536 71.5845L14.4523 71.5768L14.4236 71.4076C14.2493 70.377 14.0612 69.2655 13.7078 68.2499C13.3361 67.1817 12.768 66.1766 11.8 65.4436C5.84851 59.3541 2.78775 51.02 1.66913 42.174C0.584961 33.6003 1.33072 24.5829 3.00787 16.7525C5.28778 18.419 8.60739 19.7702 12.6752 20.8467C17.1523 22.0316 22.5853 22.8963 28.6431 23.4681C40.7597 24.6118 55.4201 24.5875 70.0223 23.5856C84.6247 22.5836 99.1863 20.6028 111.105 17.827C117.064 16.4392 122.373 14.8503 126.7 13.0809C130.687 11.4507 133.879 9.65217 135.973 7.6876Z" fill="black"/>
<path d="M2.73875 15.4372C9.78876 32.7672 130.479 22.6272 135.719 6.57723C135.489 4.55723 116.579 -0.902768 71.2787 0.837232C25.9787 2.56723 2.73875 12.7972 2.73875 15.4372Z" fill="#62C178"/>
<path fill-rule="evenodd" clip-rule="evenodd" d="M135.18 6.59545C134.862 7.41708 134.183 8.26406 133.123 9.12374C131.992 10.0407 130.463 10.9439 128.577 11.8237C124.805 13.5831 119.669 15.2188 113.603 16.6837C101.475 19.6124 85.7055 21.84 69.8689 23.0261C54.0315 24.2124 38.1518 24.3552 25.8026 23.1234C19.6253 22.5073 14.3546 21.5493 10.4211 20.2169C8.4545 19.5507 6.84009 18.7968 5.61815 17.9578C4.45163 17.1568 3.66737 16.2953 3.25749 15.3818C3.27736 15.3389 3.31693 15.2706 3.39566 15.1749C3.54108 14.9981 3.77753 14.7797 4.12196 14.5248C4.80876 14.0165 5.86079 13.4097 7.28928 12.738C10.1417 11.3967 14.4329 9.82547 20.1505 8.27863C31.5824 5.18588 48.6796 2.20061 71.2965 1.33687L71.2966 1.33686C93.9257 0.467666 109.949 1.39751 120.332 2.79278C125.526 3.49065 129.298 4.30355 131.776 5.06161C133.017 5.44141 133.917 5.80223 134.503 6.11912C134.797 6.2782 134.994 6.41641 135.113 6.52726C135.142 6.55419 135.164 6.57693 135.18 6.59545ZM120.465 1.80169C110.011 0.396956 93.9292 -0.533199 71.2584 0.337596C48.5753 1.20386 31.4025 4.19859 19.8894 7.31333C14.1345 8.87024 9.78447 10.4596 6.86375 11.833C5.40569 12.5187 4.28818 13.1577 3.52708 13.721C3.14758 14.0018 2.8405 14.2756 2.62337 14.5396C2.41617 14.7915 2.23746 15.0987 2.23746 15.4372V15.535L2.27431 15.6256C2.76382 16.8289 3.73006 17.8743 5.05209 18.7821C6.37517 19.6906 8.08173 20.4802 10.1002 21.164C14.1368 22.5314 19.4926 23.499 25.7033 24.1185C38.13 25.358 54.0721 25.2121 69.9436 24.0233C85.8157 22.8345 101.642 20.6008 113.837 17.6558C119.933 16.1838 125.141 14.5295 129 12.73C130.929 11.8303 132.536 10.8869 133.753 9.90043C134.965 8.91734 135.824 7.863 136.193 6.73241L136.227 6.62888L136.214 6.52067C136.18 6.21716 135.987 5.97414 135.794 5.79428C135.589 5.60407 135.312 5.41954 134.978 5.23941C134.309 4.87786 133.34 4.49431 132.068 4.10535C129.52 3.32591 125.69 2.50381 120.465 1.80169Z" fill="black"/>
<path d="M11.9502 243.821C-9.23983 304.131 19.2102 333.451 80.5302 335.601C100.31 267.351 75.1302 239.121 11.9502 243.821Z" fill="#62C178"/>
<path fill-rule="evenodd" clip-rule="evenodd" d="M80.1583 335.087C49.7491 333.961 27.6297 326.111 15.6892 311.208C3.75716 296.316 1.86615 274.219 12.3138 244.295C43.685 242.013 65.437 247.918 76.9563 262.662C88.4782 277.41 89.919 301.198 80.1583 335.087ZM77.7443 262.047C65.8635 246.84 43.5465 240.969 11.9132 243.322L11.587 243.346L11.4786 243.655C0.857307 273.885 2.62442 296.502 14.9088 311.833C27.1749 327.142 49.8026 335.024 80.5128 336.1L80.9021 336.114L81.0105 335.74C90.9111 301.579 89.62 277.247 77.7443 262.047Z" fill="black"/>
<path d="M70.437 23.3491C101.187 21.1991 126.977 14.3891 136.077 6.78906C142.347 18.9591 144.107 37.0591 138.897 50.1191C98.957 66.1591 56.367 69.4291 11.437 65.7691C-0.682999 53.4191 -0.962997 31.8891 2.657 15.8191C12.367 22.2691 39.197 25.5491 70.437 23.3591V23.3491Z" fill="#62C178"/>
<path fill-rule="evenodd" clip-rule="evenodd" d="M136.236 6.00781L135.756 6.40794C131.298 10.1318 122.669 13.7127 111.252 16.631C99.8568 19.5437 85.7521 21.7797 70.4021 22.8529L69.9369 22.8854V22.8951C54.5192 23.9506 40.2036 23.67 28.53 22.3349C16.7131 20.9835 7.68231 18.5596 2.93359 15.4052L2.32874 15.0034L2.16916 15.7118C0.349167 23.7912 -0.492844 33.2506 0.648407 42.2546C1.78937 51.2563 4.91856 59.8435 11.0801 66.1219L11.2106 66.2549L11.3963 66.2701C56.3744 69.934 99.0483 66.6638 139.083 50.5857L139.282 50.5059L139.361 50.307C144.632 37.0951 142.849 18.8438 136.521 6.56271L136.236 6.00781ZM135.91 7.56955C141.865 19.5565 143.488 37.0398 138.511 49.7377C98.7789 65.6484 56.4024 68.9143 11.6641 65.2885C5.7907 59.2283 2.75633 50.9325 1.64047 42.1288C0.549133 33.5186 1.29854 24.4609 2.99133 16.6267C8.07928 19.7259 17.0506 22.0286 28.4164 23.3285C40.278 24.685 54.8267 24.9572 70.4719 23.8605L70.9369 23.8279V23.8176C86.1569 22.7285 100.153 20.5002 111.5 17.5999C122.551 14.775 131.154 11.297 135.91 7.56955Z" fill="black"/>
<path d="M316.819 418.872C326.329 418.222 352.279 416.792 367.719 417.902C375.039 418.422 377.819 414.012 370.309 410.652C364.469 408.202 340.279 393.792 326.189 382.992C317.799 389.822 312.279 401.742 316.809 418.872H316.819Z" fill="#62C178"/>
<path fill-rule="evenodd" clip-rule="evenodd" d="M326.18 382.352L325.873 382.601C317.323 389.561 311.748 401.686 316.326 418.997L316.424 419.369H316.836L316.853 419.368C326.367 418.717 352.283 417.29 367.683 418.397C369.561 418.531 371.176 418.351 372.427 417.932C373.665 417.517 374.612 416.843 375.029 415.938C375.463 414.996 375.259 413.948 374.497 412.966C373.745 411.997 372.428 411.049 370.513 410.192L370.502 410.188C367.624 408.98 360.149 404.786 351.605 399.524C343.072 394.269 333.519 387.977 326.493 382.592L326.18 382.352ZM370.11 411.107C371.947 411.93 373.097 412.792 373.707 413.579C374.307 414.352 374.358 415.004 374.121 415.52C373.867 416.072 373.216 416.613 372.109 416.984C371.014 417.35 369.537 417.527 367.754 417.4C352.488 416.303 327.007 417.681 317.188 418.342C312.949 401.816 318.205 390.313 326.201 383.627C333.233 388.987 342.662 395.191 351.08 400.376C359.608 405.628 367.144 409.862 370.11 411.107Z" fill="black"/>
<path fill-rule="evenodd" clip-rule="evenodd" d="M223.526 265.445C223.258 265.377 222.986 265.539 222.918 265.807C219.498 279.248 215.347 288.685 208.952 296.424C202.553 304.167 193.875 310.25 181.327 316.928C181.084 317.058 180.991 317.361 181.121 317.605C181.251 317.848 181.553 317.941 181.797 317.811C194.389 311.109 203.201 304.953 209.723 297.061C216.247 289.165 220.447 279.572 223.887 266.053C223.955 265.785 223.793 265.513 223.526 265.445Z" fill="black"/>
<path fill-rule="evenodd" clip-rule="evenodd" d="M263.154 322.828C262.887 322.76 262.615 322.922 262.547 323.189C260.661 330.596 258.381 335.772 254.878 340.012C251.372 344.255 246.609 347.598 239.686 351.281C239.443 351.411 239.35 351.714 239.48 351.957C239.609 352.201 239.912 352.294 240.156 352.164C247.123 348.457 252.02 345.04 255.649 340.649C259.281 336.253 261.611 330.92 263.516 323.436C263.584 323.168 263.422 322.896 263.154 322.828Z" fill="black"/>
<path opacity="0.2" d="M257.406 410.463C243.806 409.603 235.346 407.193 224.256 404.783C213.166 402.373 190.076 391.913 181.696 387.393C173.316 382.873 162.256 376.163 156.976 372.893C151.696 369.623 148.346 366.443 133.686 358.063C119.026 349.683 105.896 343.413 86.0762 337.303C46.6862 331.543 6.12619 330.463 5.56619 280.173C5.42618 267.553 7.78619 255.043 12.4962 243.533C25.3462 215.563 22.3462 144.563 17.3462 100.563C15.0862 80.7131 13.4862 66.5331 11.2762 65.1531C-1.65381 52.5631 -0.253815 31.7331 2.49619 15.2031C49.2562 43.8531 21.1662 124.203 33.2962 199.563C40.4362 243.953 10.3362 259.673 30.9462 293.493C51.5562 327.313 93.6862 330.213 107.916 335.533C118.036 339.613 125.176 343.263 138.506 349.983C145.706 353.463 164.886 364.993 180.176 373.973C195.466 382.953 210.306 393.243 225.496 397.403C241.756 401.853 247.176 403.993 280.276 407.913C289.396 408.993 297.766 412.713 310.886 414.113C334.576 416.633 364.116 416.603 370.346 417.503C378.026 418.613 350.306 416.993 346.136 416.993C341.966 416.993 312.986 418.813 308.386 418.903C303.786 419.003 291.606 416.173 289.686 415.713C278.996 413.163 271.006 411.313 257.406 410.453V410.463Z" fill="black"/>
<path opacity="0.2" d="M2.71625 14.7625C5.46625 21.8625 23.1263 25.4225 60.4062 24.9225C51.2963 22.7525 27.1663 18.1625 24.5363 15.8225C19.2863 11.1425 25.1762 6.55245 20.9662 7.55245C10.1862 10.1125 2.83626 14.1825 2.72626 14.7725L2.71625 14.7625Z" fill="black"/>
</svg>
