<svg width="467" height="567" viewBox="0 0 467 567" fill="none" xmlns="http://www.w3.org/2000/svg">
<path d="M203.556 152.68C201.528 152.988 205.649 168.29 200.329 180.173C197.996 185.377 194.954 196.453 196.077 198.619C198.334 202.984 202.117 195.349 205.191 192.078C209.988 186.97 211.744 178.92 211.798 177.773C212.376 165.561 205.42 152.404 203.556 152.69V152.68Z" fill="#F1F1E6" stroke="black" stroke-miterlimit="10"/>
<path opacity="0.2" d="M195.848 197.425C197.003 205.549 204.144 192.423 207.219 189.152C207.219 189.152 200.928 196.236 198.791 197.52C196.644 198.805 195.848 197.425 195.848 197.425Z" fill="black"/>
<path d="M183.465 157.633C156.984 170.333 129.292 185.243 131.756 192.263C133.163 196.298 143.749 195.501 146.987 196.425C164.866 201.491 202.021 163.08 197.234 154.426C196.766 153.587 195.861 152.673 193.953 152.121C190.432 153.969 186.943 155.806 183.465 157.633Z" fill="#F1F1E6" stroke="black" stroke-miterlimit="10"/>
<path d="M194.455 148.024C182.343 165.61 165.641 178.693 160.07 181.104C151.413 184.842 137.797 189.578 130.721 185.15C124.42 181.21 114.63 178.842 114.215 175.008C113.648 169.805 130.372 169.656 148.426 164.537C161.934 160.704 172.007 153.27 195.916 142.184L199.121 146.973L194.466 148.024H194.455Z" fill="#F1F1E6" stroke="black" stroke-miterlimit="10"/>
<path opacity="0.2" d="M173.309 171.602C161 182.848 140.166 193.159 123.093 181.329C123.093 181.329 128.424 183.538 141.681 183.697C154.72 183.856 173.309 171.602 173.309 171.602Z" fill="black"/>
<path opacity="0.2" d="M178.637 182.316C170.613 188.157 161.509 196.079 151.916 196.812C141.428 195.389 138.56 197.141 132.106 192.957C135.377 194.731 136.991 194.412 150.204 194.338C163.068 194.263 178.626 182.316 178.626 182.316H178.637Z" fill="black"/>
<path d="M197.999 158.438C180.6 185.444 161.401 193.079 162.709 201.543C163.407 206.098 174.843 201.235 177.525 199.355C200.158 183.532 203.985 175.461 209.436 155.253C209.654 154.445 208.64 153.745 206.71 153.617C203.592 156.304 200.354 154.785 197.999 158.438Z" fill="#F1F1E6" stroke="black" stroke-miterlimit="10"/>
<path opacity="0.2" d="M162.22 201.307C164.128 207.721 182.771 199.396 193.945 185.145C193.945 185.145 182.095 194.67 174.093 198.132C166.276 201.52 162.22 201.307 162.22 201.307Z" fill="black"/>
<path d="M196.501 156.151C194.222 156.363 198.518 170.158 192.38 180.405C189.72 184.844 186.22 194.274 187.408 196.165C189.807 199.988 194.07 193.616 197.504 190.929C202.911 186.703 205.059 179.736 205.146 178.738C206.106 167.97 198.605 155.96 196.501 156.151Z" fill="#F1F1E6" stroke="black" stroke-miterlimit="10"/>
<path opacity="0.2" d="M187.248 195.013C188.611 200.79 194.062 193.622 197.507 190.935C202.915 186.709 201.486 187.282 202.816 184.574C202.816 184.574 199.262 187.303 195.85 190.203C193.866 191.891 191.413 194.333 190.486 194.663C187.957 195.555 187.248 195.013 187.248 195.013Z" fill="black"/>
<path d="M191.898 145.851C173.605 160.665 151.135 168.63 144.114 169.862C133.321 171.752 121.558 174.258 109.217 164.743C102.392 159.487 91.9586 153.062 92.2529 148.91C92.6454 143.271 112.019 148.389 134.084 148.708C150.71 148.952 164.174 144.269 194.973 140.074L197.688 146.223L191.909 145.851H191.898Z" fill="#F1F1E6" stroke="black" stroke-miterlimit="10"/>
<path opacity="0.2" d="M166.237 161.809C134.795 175.009 121.56 173.851 109.208 164.325C102.383 159.069 98.0986 157.72 94.6208 153.281C94.6208 153.281 106.221 162.085 121.418 166.948C133.4 170.782 165.855 161.617 169.78 160.577C175.678 159.005 166.237 161.809 166.237 161.809Z" fill="black"/>
<path d="M188.717 134.245C167.708 147.095 143.091 152.978 135.612 153.307C128.799 153.604 108.466 152.648 99.2756 145.056C92.4182 139.385 82.0503 132.026 82.6935 127.98C83.5657 122.468 103.615 129.296 126.934 131.665C144.552 133.449 159.314 130.093 192.609 128.819L194.844 135.148L188.717 134.245Z" fill="#F1F1E6" stroke="black" stroke-miterlimit="10"/>
<path opacity="0.2" d="M151.095 150.262C135.08 155.402 108.457 152.651 99.277 145.059C92.4195 139.388 85.4967 133.218 82.782 129.172C82.782 129.172 94.9706 141.055 111.738 147.225C121.506 150.825 143.442 149.274 151.803 148.202C157.603 147.459 151.084 150.262 151.084 150.262H151.095Z" fill="black"/>
<path d="M176.924 130.6C156.1 123.007 148.763 125.449 131.843 116.327C125.422 112.865 124.877 111.644 115.054 104.975C108.393 100.451 67.0954 72.4052 62.5819 80.391C59.8891 85.1485 68.9706 100.398 76.8964 109.807C94.6778 130.897 118.281 136.1 137.163 140.253C155.25 144.235 155.206 140.964 190.235 147.134C201.617 149.141 195.566 146.635 195.991 144.798C196.624 142.09 193.887 136.78 176.924 130.6Z" fill="#F1F1E6" stroke="black" stroke-miterlimit="10"/>
<path opacity="0.2" d="M64.1175 89.0195C66.9194 96.177 68.9908 100.51 76.9275 109.919C94.7089 131.009 120.285 138.187 159.468 143.741C159.468 143.741 162.062 143.264 151.629 140.768C133.902 136.541 102.853 128.439 91.6781 118.934C73.2317 103.26 64.1284 89.0195 64.1284 89.0195H64.1175Z" fill="black"/>
<path d="M171.608 114.997C151.417 104.017 143.807 105.248 127.672 93.3654C121.545 88.8521 121.131 87.5459 111.907 79.2734C105.65 73.6663 66.9252 38.9302 61.5505 46.1302C58.3452 50.4204 65.9222 67.1248 72.9541 77.8291C88.7404 101.85 112.038 110.919 130.659 118.172C148.484 125.117 148.768 121.825 183.393 133.719C194.633 137.574 188.8 134.091 189.4 132.317C190.294 129.716 188.048 123.949 171.608 115.008V114.997Z" fill="#F1F1E6" stroke="black" stroke-miterlimit="10"/>
<path opacity="0.2" d="M62.2078 54.9727C64.2901 62.5655 65.9363 67.2381 72.9682 77.9425C88.7545 101.953 113.851 113.337 152.772 125.294C152.772 125.294 155.432 125.231 145.173 121.036C127.741 113.91 97.2363 100.71 86.9229 89.3689C69.9156 70.6682 62.1969 54.9727 62.1969 54.9727H62.2078Z" fill="black"/>
<path d="M160.353 100.947C141.569 85.3998 133.72 84.8582 119.154 69.3538C113.627 63.4707 113.398 62.0795 105.287 51.7787C99.7921 44.7911 65.8538 1.60194 59.3561 7.41076C55.4749 10.8727 60.6316 29.0744 66.1481 41.2761C78.5657 68.7167 100.806 83.1166 118.587 94.6387C135.606 105.662 136.358 102.455 169.598 122.26C180.392 128.685 188.546 133.92 189.408 132.327C191.708 128.037 175.66 113.637 160.353 100.968V100.947Z" fill="#F1F1E6" stroke="black" stroke-miterlimit="10"/>
<path opacity="0.2" d="M58.7033 16.2617C59.6736 24.2263 60.6439 29.2068 66.1603 41.3979C78.5779 68.8278 102.301 85.9463 139.913 106.835C139.913 106.835 142.606 107.387 132.849 100.845C116.256 89.7375 87.3432 69.5712 78.5779 55.9465C64.1544 33.5183 58.7033 16.2617 58.7033 16.2617Z" fill="black"/>
<path d="M173.369 101.771C142.942 79.8848 123.536 58.1257 111.325 42.0372C94.9067 20.4161 83.6448 -1.22626 79.4475 1.18434C76.3731 2.95779 78.8042 16.6144 81.5407 25.4816C86.4575 41.4426 92.2248 52.7204 101.012 62.4796C106.67 68.7557 129.706 89.4848 153.375 100.37C158.226 102.6 165.454 105.382 174.111 112.869C183.432 120.918 186.888 127.874 188.774 126.961C191.489 125.644 189.101 109.014 180.423 103.534C177.708 101.814 175.081 101.655 173.358 101.771H173.369Z" fill="#F1F1E6" stroke="black" stroke-miterlimit="10"/>
<path opacity="0.2" d="M79.9499 17.8242C81.28 24.6844 81.8251 27.9127 82.9589 30.6312C88.9333 44.9356 94.3408 55.5656 102.932 64.6346C108.47 70.4753 130.132 90.2062 153.387 100.369C153.387 100.369 111.163 72.6841 97.655 51.8701C83.8093 30.525 79.9499 17.8242 79.9499 17.8242Z" fill="black"/>
<path d="M204.686 150.966C202.004 149.681 196.716 157.932 194.154 163.486C193.783 164.283 188.627 175.624 191.156 177.695C193.38 179.522 201.764 174.339 204.936 165.929C207.171 160.003 206.975 152.06 204.686 150.966Z" fill="#F1F1E6" stroke="black" stroke-miterlimit="10"/>
<path opacity="0.2" d="M190.568 174.205C189.881 181.968 198.81 175.554 202.004 171.242C202.004 171.242 199.671 173.833 195.288 175.331C190.906 176.828 190.568 174.205 190.568 174.205Z" fill="black"/>
<path d="M210.379 158.556C208.275 157.557 204.1 164.078 202.083 168.463C201.799 169.09 197.733 178.042 199.706 179.678C201.45 181.122 208.046 177.012 210.554 170.364C212.32 165.681 212.167 159.405 210.368 158.556H210.379Z" fill="#F1F1E6" stroke="black" stroke-miterlimit="10"/>
<path opacity="0.2" d="M199.256 176.928C198.711 183.055 205.732 177.979 208.25 174.57C208.25 174.57 206.408 176.62 202.962 177.809C199.517 178.999 199.256 176.928 199.256 176.928Z" fill="black"/>
<path d="M217.061 163.124C215.415 162.094 211.621 167 209.702 170.366C209.43 170.844 205.559 177.747 207.053 179.276C208.372 180.635 213.987 177.948 216.451 172.777C218.184 169.134 218.467 163.995 217.061 163.124Z" fill="#F1F1E6" stroke="black" stroke-miterlimit="10"/>
<path opacity="0.2" d="M206.858 176.978C206.018 181.926 212.036 178.496 214.293 175.969C214.293 175.969 212.669 177.455 209.801 178.082C206.934 178.709 206.858 176.978 206.858 176.978Z" fill="black"/>
<path d="M198.655 155.86C196.475 153.906 189.17 158.568 185.224 162.051C184.657 162.551 176.676 169.655 178.486 172.172C180.089 174.381 189.399 173.234 194.72 167.743C198.481 163.867 200.509 157.528 198.655 155.86Z" fill="#F1F1E6" stroke="black" stroke-miterlimit="10"/>
<path opacity="0.2" d="M178.282 169.98C177.89 175.311 189.402 173.24 194.723 167.75C194.723 167.75 188.203 171.446 183.94 171.35C179.656 171.254 178.282 169.98 178.282 169.98Z" fill="black"/>
<path d="M195.784 144.81C181.774 146.276 174.077 149.058 168.212 151.883C165.672 153.115 161.529 158.18 162.26 159.922C163.132 162.003 169.717 163.108 173.598 163.373C178.406 163.702 192.011 164.35 197.484 150.332C198.084 148.793 198.455 147.412 198.684 146.467L195.773 144.789L195.784 144.81Z" fill="#F1F1E6" stroke="black" stroke-miterlimit="10"/>
<path opacity="0.2" d="M162.15 159.145C163.207 161.714 172.594 166.366 188.348 160.971C188.348 160.971 179.342 162.15 173.194 161.247C166.99 160.323 162.15 159.155 162.15 159.155V159.145Z" fill="black"/>
<path d="M192.476 138.506C175.261 140.375 149.369 147.458 150.415 152.927C150.819 155.062 158.777 154.117 163.182 155.317C170.562 157.334 182.762 152.46 190.797 147.235C192.236 146.301 194.656 144.326 195.125 143.423C194.122 142.765 193.588 138.389 192.476 138.506Z" fill="#F1F1E6" stroke="black" stroke-miterlimit="10"/>
<path opacity="0.2" d="M150.718 151.496C149.802 155.245 158.709 154.576 163.179 155.308C170.484 156.487 167.943 155.765 174.07 154.735C174.07 154.735 166.482 154.969 162.798 153.928C159.091 152.877 151.721 153.62 150.718 151.496Z" fill="black"/>
<path d="M188.902 131.434C171.252 130.032 160.797 131.317 152.893 132.591C149.469 133.143 143.539 135.979 143.833 137.763C144.182 139.897 151.748 141.278 156.131 143.614C162.683 147.108 177.717 148.839 189.055 137.03C190.309 135.724 191.236 134.513 191.824 133.685C190.843 132.931 189.873 132.177 188.892 131.423L188.902 131.434Z" fill="#F1F1E6" stroke="black" stroke-miterlimit="10"/>
<path opacity="0.2" d="M143.822 136.973C143.309 138.332 150.505 142.091 157.515 144.279C164.95 146.604 178.218 145.638 173.05 145.755C167.85 145.882 161.505 144.47 157.177 142.112C152.816 139.744 144.726 138.236 143.822 136.973Z" fill="black"/>
<path d="M166.55 125.401C159.704 125.316 139.589 121.068 138.924 123.84C138.259 126.612 147.679 131.125 152.192 132.654C157.785 134.555 171.173 138.389 186.033 131.815C187.657 131.093 187.984 126.282 188.605 125.475C187.646 124.615 173.342 125.486 166.561 125.401H166.55Z" fill="#F1F1E6" stroke="black" stroke-miterlimit="10"/>
<path opacity="0.2" d="M139.329 124.602C139.678 127.087 147.462 130.75 151.965 132.29C157.558 134.191 160.043 135.943 165.68 135.253C165.68 135.253 160 134.913 150.776 130.495C141.422 126.014 141.815 126.269 139.329 124.602Z" fill="black"/>
<path d="M176.721 117.264C152.867 112.177 132.087 109.469 132.316 114.152C132.447 116.828 141.42 121.724 143.916 122.478C167.988 129.752 185.77 127.055 188.277 124.188C188.604 123.816 187.612 120.152 186.282 119.037C183.077 118.443 179.893 117.859 176.721 117.275V117.264Z" fill="#F1F1E6" stroke="black" stroke-miterlimit="10"/>
<path opacity="0.2" d="M132.323 113.621C132.399 117.572 142.865 124.623 164.168 126.407C164.168 126.407 148.403 123.147 141.677 119.664C134.885 116.149 132.323 113.632 132.323 113.632V113.621Z" fill="black"/>
<path d="M177.062 111.042C151.421 98.1822 128.33 90.3663 126.945 95.2725C126.16 98.076 134.664 107.134 137.237 108.685C162.192 123.733 183.342 119.708 187.321 117.563C187.834 117.287 188.161 110.734 187.038 109.163C183.538 107.506 180.497 112.646 177.052 111.032L177.062 111.042Z" fill="#F1F1E6" stroke="black" stroke-miterlimit="10"/>
<path opacity="0.2" d="M126.948 95.2695C128.987 104.339 143.497 116.806 167.766 119.057C167.766 119.057 146.212 112.42 139.202 107.376C132.225 102.353 127.951 98.1155 126.948 95.2695Z" fill="black"/>
<path d="M176.72 100.924C152.07 83.8692 129.601 70.5843 127.268 75.0657C125.949 77.6144 131.378 87.671 133.417 90.209C153.673 115.292 182.858 112.181 187.437 110.864C188.036 110.694 187.622 109.197 186.739 107.508C183.381 105.299 180.034 103.112 176.709 100.924H176.72Z" fill="#F1F1E6" stroke="black" stroke-miterlimit="10"/>
<path opacity="0.2" d="M127.267 75.0536C127.43 84.0695 139.641 107.443 173.906 111.531C173.906 111.531 158.436 106.869 147.261 99.8075C143.489 97.4287 137.351 91.5668 136.13 89.942C131.235 83.4217 128.51 79.7686 127.267 75.043V75.0536Z" fill="black"/>
<path d="M172.844 90.3862C160.1 84.3756 150.985 77.6535 145.087 72.6943C134.076 63.4554 124.907 52.5598 123.49 54.0997C123.163 54.4607 123.25 55.4908 124.373 58.1244C128.81 68.5208 136.965 74.5527 141.642 78.0995C161.593 93.2322 163.468 95.08 167.11 98.7862C175.581 107.42 181.86 105.041 183.496 108.291C187.693 116.669 186.079 109.129 187.061 109.151C188.598 109.193 188.249 117.02 183.474 104.383C181.915 100.273 180.105 97.0127 178.677 94.7508C176.725 93.2853 174.796 91.8305 172.855 90.3862H172.844Z" fill="#F1F1E6" stroke="black" stroke-miterlimit="10"/>
<path opacity="0.2" d="M123.393 53.9336C123.066 54.2947 123.164 54.2947 124.363 57.9796C128.789 71.53 153.712 86.7582 158.258 90.2095C158.258 90.2095 140.171 74.7795 134.491 68.6946C128.746 62.5566 123.393 53.9336 123.393 53.9336Z" fill="black"/>
<path d="M159.216 68.5441C159.369 68.4379 163.087 75.9671 170.238 84.3245C177.794 93.1387 180.519 92.7882 184.509 99.0112C189.622 106.976 188.162 112.19 191.127 123.011C193.046 129.988 194.06 136.912 203.25 146.745C212.233 156.345 214.054 155.411 218.655 165.287C220.072 168.335 220.694 173.113 218.906 174.43C218.262 174.908 216.093 175.821 207.164 168.494C198.006 160.975 192.446 156.473 186.788 138.6C183.408 127.928 186.613 126.654 182.231 113.379C180.279 107.454 177.805 102.654 172.964 93.3298C165.583 79.1104 159.02 68.6715 159.205 68.5441H159.216Z" fill="#F1F1E6" stroke="black" stroke-miterlimit="10"/>
<path opacity="0.2" d="M219.766 173.103C218.763 175.089 216.103 175.832 207.174 168.505C198.016 160.986 192.456 156.483 186.798 138.611C183.418 127.938 186.623 126.664 182.24 113.39C180.289 107.464 177.814 102.664 172.974 93.3404C165.593 79.121 159.03 68.6821 159.215 68.5547C159.215 68.5547 171.458 85.9918 174.773 92.2678C178.054 98.5014 184.672 109.312 186.59 123.075C187.146 127.036 187.713 136.466 190.45 142.593C191.714 145.429 192.892 148.699 194.702 151.779C196.239 154.37 198.365 156.802 200.011 158.99C205.702 166.551 212.112 170.65 215.972 172.423C217.945 173.326 219.766 173.113 219.766 173.113V173.103Z" fill="black"/>
<path d="M327.837 352.192C316.187 337.362 314.287 331.632 284.637 308.682C231.797 268.812 226.627 173.542 229.797 119.182C235.017 106.182 233.237 87.9516 226.977 75.8516C211.007 92.5016 111.097 99.4916 93.5571 84.8716C89.9471 100.972 90.1971 122.432 102.337 134.822C104.097 136.132 104.457 138.482 104.827 140.662C110.137 179.162 119.767 275.932 103.567 313.192C98.6071 324.602 96.8971 337.122 96.9571 349.742C99.5471 400.012 137.547 400.622 176.937 406.382C216.367 418.532 227.727 429.912 260.877 449.702C325.227 488.102 344.387 473.702 383.837 485.442C405.247 491.812 418.677 483.982 458.567 486.832C465.887 487.352 468.667 482.942 461.157 479.582C452.047 475.502 396.017 443.302 360.427 400.882C347.287 385.222 341.017 368.962 327.847 352.192H327.837Z" fill="#F5D3AD"/>
<path fill-rule="evenodd" clip-rule="evenodd" d="M227.103 75L226.62 75.5044C224.696 77.5101 221.465 79.4083 217.193 81.1553C212.931 82.898 207.677 84.4726 201.749 85.8531C189.895 88.6138 175.389 90.5886 160.825 91.5879C146.261 92.5872 131.657 92.6098 119.608 91.4726C113.583 90.9039 108.209 90.0462 103.802 88.88C99.3842 87.7108 95.989 86.2438 93.8806 84.4864L93.2517 83.9622L93.0725 84.7611C91.2578 92.8548 90.4106 102.304 91.5481 111.299C92.6854 120.293 95.8122 128.872 101.983 135.17L102.011 135.198L102.042 135.222C102.814 135.797 103.298 136.611 103.634 137.579C103.959 138.512 104.135 139.547 104.313 140.601L104.335 140.729C104.336 140.731 104.336 140.734 104.336 140.737C106.99 159.977 110.722 193.771 111.767 227.406C112.29 244.226 112.14 260.997 110.85 275.885C109.559 290.781 107.129 303.751 103.112 312.991C98.1156 324.485 96.4002 337.079 96.4604 349.743L96.4605 349.755L96.4611 349.766C97.1118 362.396 99.9889 371.948 104.588 379.255C109.189 386.564 115.491 391.591 122.932 395.202C130.366 398.809 138.942 401.006 148.101 402.662C154.201 403.764 160.583 404.631 167.071 405.511C170.305 405.95 173.566 406.393 176.83 406.87C206.615 416.051 220.311 424.775 239.625 437.077C245.811 441.016 252.573 445.323 260.624 450.13C292.849 469.36 313.788 475.384 331.624 478.062C337.574 478.956 343.187 479.478 348.743 479.994C351.492 480.249 354.227 480.503 356.981 480.8C365.313 481.7 373.875 482.997 383.698 485.92L383.84 485.441L383.698 485.92C394.496 489.133 403.284 488.76 414.312 487.954C415.169 487.892 416.039 487.826 416.926 487.76C427.441 486.972 440.178 486.018 458.535 487.329L458.535 487.329C460.413 487.463 462.028 487.283 463.278 486.864C464.516 486.449 465.464 485.775 465.881 484.87C466.315 483.927 466.111 482.88 465.348 481.897C464.597 480.929 463.28 479.981 461.365 479.124C456.851 477.103 440.596 468.053 421.014 454.2C401.437 440.35 378.57 421.723 360.813 400.559C354.272 392.763 349.437 384.814 344.581 376.695C344.357 376.321 344.133 375.947 343.909 375.572C339.274 367.817 334.547 359.908 328.244 351.882L328.094 351.691H328.084C326.254 349.357 324.66 347.242 323.154 345.244C319.963 341.01 317.167 337.3 313.359 333.143C307.694 326.958 299.781 319.768 284.946 308.285L284.942 308.281C258.664 288.454 244.198 254.812 236.706 219.261C229.224 183.758 228.717 146.438 230.295 119.291C235.539 106.143 233.73 87.8085 227.425 75.6207L227.103 75ZM226.844 76.6876C232.796 88.673 234.409 106.362 229.336 118.994L229.306 119.07L229.301 119.151C227.715 146.358 228.214 183.813 235.727 219.467C243.238 255.108 257.776 289.035 284.337 309.078C299.15 320.544 307.012 327.694 312.622 333.818C316.397 337.94 319.149 341.592 322.322 345.802C323.874 347.861 325.526 350.053 327.447 352.499L327.597 352.691H327.607C333.795 360.6 338.455 368.397 343.059 376.098C343.28 376.468 343.501 376.838 343.723 377.208C348.578 385.327 353.449 393.338 360.047 401.202C377.881 422.458 400.824 441.141 420.437 455.016C440.045 468.888 456.359 477.978 460.956 480.037L460.956 480.037C462.796 480.86 463.948 481.724 464.558 482.51C465.158 483.284 465.21 483.936 464.973 484.451C464.718 485.004 464.068 485.545 462.961 485.915C461.865 486.282 460.388 486.458 458.606 486.332C440.175 485.015 427.376 485.974 416.854 486.763C415.967 486.829 415.096 486.894 414.239 486.957C403.227 487.761 394.595 488.119 383.983 484.961C374.081 482.014 365.454 480.709 357.088 479.806C354.303 479.506 351.554 479.25 348.798 478.994C343.259 478.48 337.695 477.963 331.772 477.074C314.078 474.417 293.262 468.442 261.137 449.271C253.128 444.49 246.388 440.197 240.21 436.262C220.857 423.934 207.035 415.131 177.088 405.903L177.051 405.891L177.013 405.886C173.713 405.403 170.428 404.957 167.176 404.516C160.702 403.638 154.358 402.777 148.279 401.678C139.154 400.028 130.682 397.851 123.369 394.302C116.063 390.757 109.917 385.845 105.434 378.722C100.95 371.598 98.1059 362.226 97.4604 349.727C97.4017 337.154 99.1068 324.713 104.029 313.39C108.112 304 110.553 290.901 111.847 275.971C113.141 261.031 113.29 244.217 112.766 227.375C111.719 193.69 107.982 159.854 105.326 140.592L105.325 140.584L105.323 140.577L105.295 140.408C105.12 139.377 104.932 138.266 104.579 137.25C104.207 136.182 103.639 135.177 102.671 134.444C96.7196 128.354 93.6588 120.02 92.5402 111.174C91.4561 102.6 92.2018 93.5829 93.879 85.7525C96.1589 87.419 99.4785 88.7702 103.546 89.8467C108.023 91.0316 113.456 91.8963 119.514 92.4681C131.631 93.6118 146.291 93.5875 160.893 92.5856C175.496 91.5836 190.057 89.6028 201.976 86.827C207.935 85.4392 213.244 83.8503 217.571 82.0809C221.558 80.4507 224.75 78.6522 226.844 76.6876Z" fill="black"/>
<path d="M327.837 352.192C316.187 337.362 314.287 331.632 284.637 308.682C231.797 268.812 226.627 173.542 229.797 119.182C235.017 106.182 233.237 87.9516 226.977 75.8516C211.007 92.5016 111.097 99.4916 93.5571 84.8716C89.9471 100.972 90.1971 122.432 102.337 134.822C104.097 136.132 104.457 138.482 104.827 140.662C110.137 179.162 119.767 275.932 103.567 313.192C98.6071 324.602 96.8971 337.122 96.9571 349.742C99.5471 400.012 137.547 400.622 176.937 406.382C216.367 418.532 227.727 429.912 260.877 449.702C325.227 488.102 344.387 473.702 383.837 485.442C405.247 491.812 418.677 483.982 458.567 486.832C465.887 487.352 468.667 482.942 461.157 479.582C452.047 475.502 396.017 443.302 360.427 400.882C347.287 385.222 341.017 368.962 327.847 352.192H327.837Z" fill="#F5D3AD"/>
<path fill-rule="evenodd" clip-rule="evenodd" d="M227.103 75L226.62 75.5044C224.696 77.5101 221.465 79.4083 217.193 81.1553C212.931 82.898 207.677 84.4726 201.749 85.8531C189.895 88.6138 175.389 90.5886 160.825 91.5879C146.261 92.5872 131.657 92.6098 119.608 91.4726C113.583 90.9039 108.209 90.0462 103.802 88.88C99.3842 87.7108 95.989 86.2438 93.8806 84.4864L93.2517 83.9622L93.0725 84.7611C91.2578 92.8548 90.4106 102.304 91.5481 111.299C92.6854 120.293 95.8122 128.872 101.983 135.17L102.011 135.198L102.042 135.222C102.814 135.797 103.298 136.611 103.634 137.579C103.959 138.512 104.135 139.547 104.313 140.601L104.335 140.729C104.336 140.731 104.336 140.734 104.336 140.737C106.99 159.977 110.722 193.771 111.767 227.406C112.29 244.226 112.14 260.997 110.85 275.885C109.559 290.781 107.129 303.751 103.112 312.991C98.1156 324.485 96.4002 337.079 96.4604 349.743L96.4605 349.755L96.4611 349.766C97.1118 362.396 99.9889 371.948 104.588 379.255C109.189 386.564 115.491 391.591 122.932 395.202C130.366 398.809 138.942 401.006 148.101 402.662C154.201 403.764 160.583 404.631 167.071 405.511C170.305 405.95 173.566 406.393 176.83 406.87C206.615 416.051 220.311 424.775 239.625 437.077C245.811 441.016 252.573 445.323 260.624 450.13C292.849 469.36 313.788 475.384 331.624 478.062C337.574 478.956 343.187 479.478 348.743 479.994C351.492 480.249 354.227 480.503 356.981 480.8C365.313 481.7 373.875 482.997 383.698 485.92L383.84 485.441L383.698 485.92C394.496 489.133 403.284 488.76 414.312 487.954C415.169 487.892 416.039 487.826 416.926 487.76C427.441 486.972 440.178 486.018 458.535 487.329L458.535 487.329C460.413 487.463 462.028 487.283 463.278 486.864C464.516 486.449 465.464 485.775 465.881 484.87C466.315 483.927 466.111 482.88 465.348 481.897C464.597 480.929 463.28 479.981 461.365 479.124C456.851 477.103 440.596 468.053 421.014 454.2C401.437 440.35 378.57 421.723 360.813 400.559C354.272 392.763 349.437 384.814 344.581 376.695C344.357 376.321 344.133 375.947 343.909 375.572C339.274 367.817 334.547 359.908 328.244 351.882L328.094 351.691H328.084C326.254 349.357 324.66 347.242 323.154 345.244C319.963 341.01 317.167 337.3 313.359 333.143C307.694 326.958 299.781 319.768 284.946 308.285L284.942 308.281C258.664 288.454 244.198 254.812 236.706 219.261C229.224 183.758 228.717 146.438 230.295 119.291C235.539 106.143 233.73 87.8085 227.425 75.6207L227.103 75ZM226.844 76.6876C232.796 88.673 234.409 106.362 229.336 118.994L229.306 119.07L229.301 119.151C227.715 146.358 228.214 183.813 235.727 219.467C243.238 255.108 257.776 289.035 284.337 309.078C299.15 320.544 307.012 327.694 312.622 333.818C316.397 337.94 319.149 341.592 322.322 345.802C323.874 347.861 325.526 350.053 327.447 352.499L327.597 352.691H327.607C333.795 360.6 338.455 368.397 343.059 376.098C343.28 376.468 343.501 376.838 343.723 377.208C348.578 385.327 353.449 393.338 360.047 401.202C377.881 422.458 400.824 441.141 420.437 455.016C440.045 468.888 456.359 477.978 460.956 480.037L460.956 480.037C462.796 480.86 463.948 481.724 464.558 482.51C465.158 483.284 465.21 483.936 464.973 484.451C464.718 485.004 464.068 485.545 462.961 485.915C461.865 486.282 460.388 486.458 458.606 486.332C440.175 485.015 427.376 485.974 416.854 486.763C415.967 486.829 415.096 486.894 414.239 486.957C403.227 487.761 394.595 488.119 383.983 484.961C374.081 482.014 365.454 480.709 357.088 479.806C354.303 479.506 351.554 479.25 348.798 478.994C343.259 478.48 337.695 477.963 331.772 477.074C314.078 474.417 293.262 468.442 261.137 449.271C253.128 444.49 246.388 440.197 240.21 436.262C220.857 423.934 207.035 415.131 177.088 405.903L177.051 405.891L177.013 405.886C173.713 405.403 170.428 404.957 167.176 404.516C160.702 403.638 154.358 402.777 148.279 401.678C139.154 400.028 130.682 397.851 123.369 394.302C116.063 390.757 109.917 385.845 105.434 378.722C100.95 371.598 98.1059 362.226 97.4604 349.727C97.4017 337.154 99.1068 324.713 104.029 313.39C108.112 304 110.553 290.901 111.847 275.971C113.141 261.031 113.29 244.217 112.766 227.375C111.719 193.69 107.982 159.854 105.326 140.592L105.325 140.584L105.323 140.577L105.295 140.408C105.12 139.377 104.932 138.266 104.579 137.25C104.207 136.182 103.639 135.177 102.671 134.444C96.7196 128.354 93.6588 120.02 92.5402 111.174C91.4561 102.6 92.2018 93.5829 93.879 85.7525C96.1589 87.419 99.4785 88.7702 103.546 89.8467C108.023 91.0316 113.456 91.8963 119.514 92.4681C131.631 93.6118 146.291 93.5875 160.893 92.5856C175.496 91.5836 190.057 89.6028 201.976 86.827C207.935 85.4392 213.244 83.8503 217.571 82.0809C221.558 80.4507 224.75 78.6522 226.844 76.6876Z" fill="black"/>
<path d="M93.6098 84.4372C100.66 101.767 221.35 91.6272 226.59 75.5772C226.36 73.5572 207.45 68.0972 162.15 69.8372C116.85 71.5672 93.6098 81.7972 93.6098 84.4372Z" fill="#EAA252"/>
<path fill-rule="evenodd" clip-rule="evenodd" d="M226.051 75.5955C225.733 76.4171 225.054 77.2641 223.994 78.1237C222.863 79.0407 221.334 79.9439 219.448 80.8237C215.676 82.5831 210.54 84.2188 204.474 85.6837C192.346 88.6124 176.577 90.84 160.74 92.0261C144.903 93.2124 129.023 93.3552 116.674 92.1234C110.496 91.5073 105.226 90.5493 101.292 89.2169C99.3256 88.5507 97.7112 87.7968 96.4892 86.9578C95.3227 86.1568 94.5385 85.2953 94.1286 84.3818C94.1485 84.3389 94.188 84.2706 94.2668 84.1749C94.4122 83.9981 94.6486 83.7797 94.9931 83.5248C95.6799 83.0165 96.7319 82.4097 98.1604 81.738C101.013 80.3967 105.304 78.8255 111.022 77.2786C122.453 74.1859 139.551 71.2006 162.168 70.3369L162.168 70.3369C184.797 69.4677 200.82 70.3975 211.203 71.7928C216.397 72.4907 220.169 73.3036 222.647 74.0616C223.888 74.4414 224.788 74.8022 225.374 75.1191C225.668 75.2782 225.865 75.4164 225.985 75.5273C226.014 75.5542 226.035 75.5769 226.051 75.5955ZM211.336 70.8017C200.882 69.397 184.8 68.4668 162.129 69.3376C139.446 70.2039 122.274 73.1986 110.76 76.3133C105.006 77.8702 100.656 79.4596 97.7348 80.833C96.2768 81.5187 95.1593 82.1577 94.3982 82.721C94.0187 83.0018 93.7116 83.2756 93.4945 83.5396C93.2873 83.7915 93.1086 84.0987 93.1086 84.4372V84.535L93.1454 84.6256C93.6349 85.8289 94.6012 86.8743 95.9232 87.7821C97.2463 88.6906 98.9528 89.4802 100.971 90.164C105.008 91.5314 110.364 92.499 116.574 93.1185C129.001 94.358 144.943 94.2121 160.815 93.0233C176.687 91.8345 192.513 89.6008 204.709 86.6558C210.804 85.1838 216.012 83.5295 219.871 81.73C221.8 80.8303 223.408 79.8869 224.624 78.9004C225.836 77.9173 226.695 76.863 227.064 75.7324L227.098 75.6289L227.085 75.5207C227.051 75.2172 226.859 74.9741 226.665 74.7943C226.46 74.6041 226.183 74.4195 225.849 74.2394C225.181 73.8779 224.211 73.4943 222.939 73.1054C220.391 72.3259 216.562 71.5038 211.336 70.8017Z" fill="black"/>
<path d="M102.821 312.821C81.6313 373.131 110.081 402.451 171.401 404.601C191.181 336.351 166.001 308.121 102.821 312.821Z" fill="#EAA252"/>
<path fill-rule="evenodd" clip-rule="evenodd" d="M171.029 404.087C140.62 402.961 118.501 395.111 106.56 380.208C94.6283 365.316 92.7372 343.219 103.185 313.295C134.556 311.013 156.308 316.918 167.827 331.662C179.349 346.41 180.79 370.198 171.029 404.087ZM168.615 331.047C156.735 315.84 134.418 309.969 102.784 312.322L102.458 312.346L102.35 312.655C91.7284 342.885 93.4955 365.502 105.78 380.833C118.046 396.142 140.674 404.024 171.384 405.1L171.773 405.114L171.882 404.74C181.782 370.579 180.491 346.247 168.615 331.047Z" fill="black"/>
<path d="M161.308 92.3491C192.058 90.1991 217.848 83.3891 226.948 75.7891C233.218 87.9591 234.978 106.059 229.768 119.119C189.828 135.159 147.238 138.429 102.308 134.769C90.1881 122.419 89.9081 100.889 93.5281 84.8191C103.238 91.2691 130.068 94.5491 161.308 92.3591V92.3491Z" fill="#EAA252"/>
<path fill-rule="evenodd" clip-rule="evenodd" d="M227.107 75.0078L226.628 75.4079C222.169 79.1318 213.54 82.7127 202.123 85.631C190.728 88.5437 176.623 90.7797 161.273 91.8529L160.808 91.8854V91.8951C145.39 92.9506 131.075 92.67 119.401 91.3349C107.584 89.9835 98.5534 87.5596 93.8047 84.4052L93.1998 84.0034L93.0403 84.7118C91.2203 92.7912 90.3783 102.251 91.5195 111.255C92.6605 120.256 95.7897 128.843 101.951 135.122L102.082 135.255L102.267 135.27C147.246 138.934 189.919 135.664 229.954 119.586L230.153 119.506L230.232 119.307C235.503 106.095 233.72 87.8438 227.393 75.5627L227.107 75.0078ZM226.781 76.5696C232.736 88.5565 234.359 106.04 229.382 118.738C189.65 134.648 147.273 137.914 102.535 134.289C96.6618 128.228 93.6274 119.933 92.5116 111.129C91.4202 102.519 92.1696 93.4609 93.8624 85.6267C98.9504 88.7259 107.922 91.0286 119.287 92.3285C131.149 93.685 145.698 93.9572 161.343 92.8605L161.808 92.8279V92.8176C177.028 91.7285 191.024 89.5002 202.371 86.5999C213.422 83.775 222.025 80.297 226.781 76.5696Z" fill="black"/>
<path d="M407.691 487.872C417.201 487.222 443.151 485.792 458.591 486.902C465.911 487.422 468.691 483.012 461.181 479.652C455.341 477.202 431.151 462.792 417.061 451.992C408.671 458.822 403.151 470.742 407.681 487.872H407.691Z" fill="#EAA252"/>
<path fill-rule="evenodd" clip-rule="evenodd" d="M417.051 451.352L416.744 451.601C408.194 458.561 402.619 470.686 407.197 487.997L407.295 488.369H407.707L407.724 488.368C417.238 487.717 443.154 486.29 458.554 487.397C460.432 487.531 462.047 487.351 463.298 486.932C464.536 486.517 465.483 485.843 465.9 484.938C466.334 483.996 466.13 482.948 465.368 481.966C464.616 480.997 463.299 480.049 461.384 479.192L461.373 479.188C458.495 477.98 451.02 473.786 442.476 468.524C433.944 463.269 424.39 456.977 417.364 451.592L417.051 451.352ZM460.981 480.107C462.818 480.93 463.968 481.792 464.578 482.579C465.178 483.352 465.229 484.004 464.992 484.52C464.738 485.072 464.087 485.613 462.98 485.984C461.885 486.35 460.408 486.527 458.625 486.4C443.359 485.303 417.878 486.681 408.06 487.342C403.821 470.816 409.076 459.313 417.072 452.627C424.104 457.987 433.533 464.191 441.952 469.376C450.48 474.628 458.015 478.862 460.981 480.107Z" fill="black"/>
<path fill-rule="evenodd" clip-rule="evenodd" d="M314.397 334.445C314.129 334.377 313.857 334.539 313.789 334.807C310.369 348.248 306.218 357.685 299.823 365.424C293.424 373.167 284.746 379.25 272.198 385.928C271.955 386.058 271.862 386.361 271.992 386.605C272.122 386.848 272.424 386.941 272.668 386.811C285.26 380.109 294.072 373.953 300.594 366.061C307.118 358.165 311.318 348.572 314.758 335.053C314.826 334.785 314.664 334.513 314.397 334.445Z" fill="black"/>
<path fill-rule="evenodd" clip-rule="evenodd" d="M354.026 391.828C353.758 391.76 353.486 391.922 353.418 392.189C351.533 399.596 349.252 404.772 345.749 409.012C342.243 413.255 337.48 416.598 330.557 420.281C330.314 420.411 330.221 420.714 330.351 420.957C330.481 421.201 330.783 421.294 331.027 421.164C337.994 417.457 342.891 414.04 346.52 409.649C350.152 405.253 352.482 399.92 354.387 392.436C354.455 392.168 354.293 391.896 354.026 391.828Z" fill="black"/>
<path opacity="0.2" d="M348.277 479.463C334.677 478.603 326.217 476.193 315.127 473.783C304.037 471.373 280.947 460.913 272.567 456.393C264.187 451.873 253.127 445.163 247.847 441.893C242.567 438.623 239.217 435.443 224.557 427.063C209.897 418.683 196.767 412.413 176.947 406.303C137.557 400.543 96.9973 399.463 96.4373 349.173C96.2973 336.553 98.6573 324.043 103.367 312.533C116.217 284.563 113.217 213.563 108.217 169.563C105.957 149.713 104.357 135.533 102.147 134.153C89.2173 121.563 90.6173 100.733 93.3673 84.2031C140.127 112.853 112.037 193.203 124.167 268.563C131.307 312.953 101.207 328.673 121.817 362.493C142.427 396.313 184.557 399.213 198.787 404.533C208.907 408.613 216.047 412.263 229.377 418.983C236.577 422.463 255.757 433.993 271.047 442.973C286.337 451.953 301.177 462.243 316.367 466.403C332.627 470.853 338.047 472.993 371.147 476.913C380.267 477.993 388.637 481.713 401.757 483.113C425.447 485.633 454.987 485.603 461.217 486.503C468.897 487.613 441.177 485.993 437.007 485.993C432.837 485.993 403.857 487.813 399.257 487.903C394.657 488.003 382.477 485.173 380.557 484.713C369.867 482.163 361.877 480.313 348.277 479.453V479.463Z" fill="black"/>
<path opacity="0.2" d="M93.5873 83.7625C96.3373 90.8625 113.997 94.4225 151.277 93.9225C142.167 91.7525 118.037 87.1625 115.407 84.8225C110.157 80.1425 116.047 75.5525 111.837 76.5525C101.057 79.1125 93.7074 83.1825 93.5974 83.7725L93.5873 83.7625Z" fill="black"/>
<path d="M146.556 178.68C144.528 178.988 148.649 194.29 143.329 206.173C140.996 211.377 137.954 222.453 139.077 224.619C141.334 228.984 145.117 221.349 148.191 218.078C152.988 212.97 154.744 204.92 154.798 203.773C155.376 191.561 148.42 178.404 146.556 178.69V178.68Z" fill="#F1F1E6" stroke="black" stroke-miterlimit="10"/>
<path opacity="0.2" d="M138.848 223.425C140.003 231.549 147.144 218.423 150.219 215.152C150.219 215.152 143.928 222.236 141.791 223.52C139.644 224.805 138.848 223.425 138.848 223.425Z" fill="black"/>
<path d="M126.465 183.633C99.9838 196.333 72.2924 211.243 74.7562 218.263C76.1626 222.298 86.7486 221.501 89.9865 222.425C107.866 227.491 145.021 189.08 140.234 180.426C139.766 179.587 138.861 178.673 136.953 178.121C133.432 179.969 129.943 181.806 126.465 183.633Z" fill="#F1F1E6" stroke="black" stroke-miterlimit="10"/>
<path d="M137.455 174.024C125.343 191.61 108.641 204.693 103.07 207.104C94.4133 210.842 80.7966 215.578 73.7211 211.15C67.4197 207.21 57.6295 204.842 57.2153 201.008C56.6483 195.805 73.3722 195.656 91.4262 190.537C104.934 186.704 115.007 179.27 138.916 168.184L142.121 172.973L137.466 174.024H137.455Z" fill="#F1F1E6" stroke="black" stroke-miterlimit="10"/>
<path opacity="0.2" d="M116.309 197.602C104 208.848 83.1661 219.159 66.0934 207.329C66.0934 207.329 71.4245 209.538 84.6815 209.697C97.7205 209.856 116.309 197.602 116.309 197.602Z" fill="black"/>
<path opacity="0.2" d="M121.637 208.316C113.613 214.157 104.509 222.079 94.9156 222.812C84.4277 221.389 81.5605 223.141 75.1064 218.957C78.377 220.731 79.9906 220.412 93.2039 220.338C106.068 220.263 121.626 208.316 121.626 208.316H121.637Z" fill="black"/>
<path d="M140.999 184.438C123.6 211.444 104.401 219.079 105.709 227.543C106.407 232.098 117.843 227.235 120.525 225.355C143.158 209.532 146.985 201.461 152.436 181.253C152.654 180.445 151.64 179.745 149.71 179.617C146.592 182.304 143.354 180.785 140.999 184.438Z" fill="#F1F1E6" stroke="black" stroke-miterlimit="10"/>
<path opacity="0.2" d="M105.22 227.307C107.128 233.721 125.771 225.396 136.945 211.145C136.945 211.145 125.095 220.67 117.093 224.132C109.276 227.52 105.22 227.307 105.22 227.307Z" fill="black"/>
<path d="M139.501 182.151C137.222 182.363 141.518 196.158 135.38 206.405C132.72 210.844 129.22 220.274 130.408 222.165C132.807 225.988 137.07 219.616 140.504 216.929C145.911 212.703 148.059 205.736 148.146 204.738C149.106 193.97 141.605 181.96 139.501 182.151Z" fill="#F1F1E6" stroke="black" stroke-miterlimit="10"/>
<path opacity="0.2" d="M130.248 221.013C131.611 226.79 137.062 219.622 140.507 216.935C145.915 212.709 144.486 213.282 145.816 210.574C145.816 210.574 142.262 213.303 138.85 216.203C136.866 217.891 134.413 220.333 133.486 220.663C130.957 221.555 130.248 221.013 130.248 221.013Z" fill="black"/>
<path d="M134.898 171.851C116.605 186.665 94.1354 194.63 87.1144 195.862C76.3213 197.752 64.5579 200.258 52.2167 190.743C45.3919 185.487 34.9586 179.062 35.2529 174.91C35.6454 169.271 55.0185 174.389 77.0844 174.708C93.7102 174.952 107.174 170.269 137.973 166.074L140.688 172.223L134.909 171.851H134.898Z" fill="#F1F1E6" stroke="black" stroke-miterlimit="10"/>
<path opacity="0.2" d="M109.237 187.809C77.7952 201.009 64.56 199.851 52.2078 190.325C45.3831 185.069 41.0986 183.72 37.6208 179.281C37.6208 179.281 49.2207 188.085 64.4182 192.948C76.3997 196.782 108.855 187.617 112.78 186.577C118.678 185.005 109.237 187.809 109.237 187.809Z" fill="black"/>
<path d="M131.717 160.245C110.708 173.095 86.0913 178.978 78.6124 179.307C71.7986 179.604 51.4661 178.648 42.2756 171.056C35.4182 165.385 25.0503 158.026 25.6935 153.98C26.5657 148.468 46.6147 155.296 69.9343 157.665C87.5522 159.449 102.314 156.093 135.609 154.819L137.844 161.148L131.717 160.245Z" fill="#F1F1E6" stroke="black" stroke-miterlimit="10"/>
<path opacity="0.2" d="M94.0948 176.262C78.0796 181.402 51.4566 178.651 42.277 171.059C35.4195 165.388 28.4967 159.218 25.782 155.172C25.782 155.172 37.9706 167.055 54.7381 173.225C64.5064 176.825 86.4415 175.274 94.8035 174.202C100.603 173.459 94.0839 176.262 94.0839 176.262H94.0948Z" fill="black"/>
<path d="M119.924 156.6C99.1004 149.007 91.7633 151.449 74.8432 142.327C68.4218 138.865 67.8767 137.644 58.0539 130.975C51.3927 126.451 10.0954 98.4052 5.58191 106.391C2.88908 111.148 11.9706 126.398 19.8964 135.807C37.6778 156.897 61.2809 162.1 80.1634 166.253C98.2501 170.235 98.2065 166.964 133.235 173.134C144.617 175.141 138.566 172.635 138.991 170.798C139.624 168.09 136.887 162.78 119.924 156.6Z" fill="#F1F1E6" stroke="black" stroke-miterlimit="10"/>
<path opacity="0.2" d="M7.11752 115.02C9.91937 122.177 11.9908 126.51 19.9275 135.919C37.7089 157.009 63.2853 164.187 102.468 169.741C102.468 169.741 105.062 169.264 94.629 166.768C76.9021 162.541 45.8528 154.439 34.6781 144.934C16.2317 129.26 7.12843 115.02 7.12843 115.02H7.11752Z" fill="black"/>
<path d="M114.608 140.997C94.4168 130.017 86.8071 131.248 70.6719 119.365C64.5449 114.852 64.1306 113.546 54.9074 105.273C48.6496 99.6663 9.92521 64.9302 4.55046 72.1302C1.34523 76.4204 8.92222 93.1248 15.9541 103.829C31.7404 127.85 55.0383 136.919 73.6591 144.172C91.4841 151.117 91.7675 147.825 126.393 159.719C137.633 163.574 131.8 160.091 132.4 158.317C133.294 155.716 131.048 149.949 114.608 141.008V140.997Z" fill="#F1F1E6" stroke="black" stroke-miterlimit="10"/>
<path opacity="0.2" d="M5.20777 80.9727C7.29008 88.5655 8.93629 93.2381 15.9682 103.942C31.7545 127.953 56.8512 139.337 95.7718 151.294C95.7718 151.294 98.4319 151.231 88.173 147.036C70.7405 139.91 40.2363 126.71 29.9229 115.369C12.9156 96.6682 5.19688 80.9727 5.19688 80.9727H5.20777Z" fill="black"/>
<path d="M103.353 126.947C84.5691 111.4 76.7196 110.858 62.1543 95.3538C56.6269 89.4707 56.398 88.0795 48.2868 77.7787C42.7921 70.7911 8.85376 27.6019 2.35609 33.4108C-1.52507 36.8727 3.63164 55.0744 9.14812 67.2761C21.5657 94.7167 43.806 109.117 61.5874 120.639C78.6056 131.662 79.3579 128.455 112.598 148.26C123.392 154.685 131.546 159.92 132.408 158.327C134.708 154.037 118.66 139.637 103.353 126.968V126.947Z" fill="#F1F1E6" stroke="black" stroke-miterlimit="10"/>
<path opacity="0.2" d="M1.70329 42.2617C2.67358 50.2263 3.64387 55.2068 9.16035 67.3979C21.5779 94.8278 45.3009 111.946 82.9133 132.835C82.9133 132.835 85.6061 133.387 75.8487 126.845C59.2557 115.737 30.3432 95.5712 21.5779 81.9465C7.15435 59.5183 1.70329 42.2617 1.70329 42.2617Z" fill="black"/>
<path d="M116.369 127.771C85.9415 105.885 66.5357 84.1257 54.3253 68.0372C37.9067 46.4161 26.6448 24.7737 22.4475 27.1843C19.3731 28.9578 21.8042 42.6144 24.5407 51.4816C29.4575 67.4426 35.2248 78.7204 44.0119 88.4796C49.6701 94.7557 72.7063 115.485 96.3748 126.37C101.226 128.6 108.454 131.382 117.111 138.869C126.432 146.918 129.888 153.874 131.774 152.961C134.489 151.644 132.101 135.014 123.423 129.534C120.708 127.814 118.081 127.655 116.358 127.771H116.369Z" fill="#F1F1E6" stroke="black" stroke-miterlimit="10"/>
<path opacity="0.2" d="M22.9499 43.8242C24.28 50.6844 24.8251 53.9127 25.9589 56.6312C31.9333 70.9356 37.3408 81.5656 45.9316 90.6346C51.4699 96.4753 73.1325 116.206 96.3867 126.369C96.3867 126.369 54.1628 98.6841 40.655 77.8701C26.8093 56.525 22.9499 43.8242 22.9499 43.8242Z" fill="black"/>
<path d="M147.686 176.966C145.004 175.681 139.716 183.932 137.154 189.486C136.783 190.283 131.627 201.624 134.156 203.695C136.38 205.522 144.764 200.339 147.936 191.929C150.171 186.003 149.975 178.06 147.686 176.966Z" fill="#F1F1E6" stroke="black" stroke-miterlimit="10"/>
<path opacity="0.2" d="M133.568 200.205C132.881 207.968 141.81 201.554 145.004 197.242C145.004 197.242 142.671 199.833 138.288 201.331C133.906 202.828 133.568 200.205 133.568 200.205Z" fill="black"/>
<path d="M153.379 184.556C151.275 183.557 147.1 190.078 145.083 194.463C144.799 195.09 140.733 204.042 142.706 205.678C144.45 207.122 151.046 203.012 153.554 196.364C155.32 191.681 155.167 185.405 153.368 184.556H153.379Z" fill="#F1F1E6" stroke="black" stroke-miterlimit="10"/>
<path opacity="0.2" d="M142.256 202.928C141.711 209.055 148.732 203.979 151.25 200.57C151.25 200.57 149.408 202.62 145.962 203.809C142.517 204.999 142.256 202.928 142.256 202.928Z" fill="black"/>
<path d="M160.061 189.124C158.415 188.094 154.621 193 152.702 196.366C152.43 196.844 148.559 203.747 150.053 205.276C151.372 206.635 156.987 203.948 159.451 198.777C161.184 195.134 161.467 189.995 160.061 189.124Z" fill="#F1F1E6" stroke="black" stroke-miterlimit="10"/>
<path opacity="0.2" d="M149.858 202.978C149.018 207.926 155.036 204.496 157.293 201.969C157.293 201.969 155.669 203.455 152.801 204.082C149.934 204.709 149.858 202.978 149.858 202.978Z" fill="black"/>
<path d="M141.655 181.86C139.475 179.906 132.17 184.568 128.224 188.051C127.657 188.551 119.676 195.655 121.486 198.172C123.089 200.381 132.399 199.234 137.72 193.743C141.481 189.867 143.509 183.528 141.655 181.86Z" fill="#F1F1E6" stroke="black" stroke-miterlimit="10"/>
<path opacity="0.2" d="M121.282 195.98C120.89 201.311 132.402 199.24 137.723 193.75C137.723 193.75 131.203 197.446 126.94 197.35C122.656 197.254 121.282 195.98 121.282 195.98Z" fill="black"/>
<path d="M138.784 170.81C124.774 172.276 117.077 175.058 111.212 177.883C108.672 179.115 104.529 184.18 105.26 185.922C106.132 188.003 112.717 189.108 116.598 189.373C121.406 189.702 135.011 190.35 140.484 176.332C141.084 174.793 141.455 173.412 141.684 172.467L138.773 170.789L138.784 170.81Z" fill="#F1F1E6" stroke="black" stroke-miterlimit="10"/>
<path opacity="0.2" d="M105.15 185.145C106.207 187.714 115.594 192.366 131.348 186.971C131.348 186.971 122.342 188.15 116.194 187.247C109.99 186.323 105.15 185.155 105.15 185.155V185.145Z" fill="black"/>
<path d="M135.476 164.506C118.261 166.375 92.3687 173.458 93.4153 178.927C93.8187 181.062 101.777 180.117 106.182 181.317C113.562 183.334 125.762 178.46 133.797 173.235C135.236 172.301 137.656 170.326 138.125 169.423C137.122 168.765 136.588 164.389 135.476 164.506Z" fill="#F1F1E6" stroke="black" stroke-miterlimit="10"/>
<path opacity="0.2" d="M93.7179 177.496C92.8022 181.245 101.709 180.576 106.179 181.308C113.484 182.487 110.943 181.765 117.07 180.735C117.07 180.735 109.482 180.969 105.798 179.928C102.091 178.877 94.7209 179.62 93.7179 177.496Z" fill="black"/>
<path d="M131.902 157.434C114.252 156.032 103.797 157.317 95.8927 158.591C92.4694 159.143 86.5387 161.979 86.833 163.763C87.1819 165.897 94.748 167.278 99.1306 169.614C105.683 173.108 120.717 174.839 132.055 163.03C133.309 161.724 134.236 160.513 134.824 159.685C133.843 158.931 132.873 158.177 131.892 157.423L131.902 157.434Z" fill="#F1F1E6" stroke="black" stroke-miterlimit="10"/>
<path opacity="0.2" d="M86.8216 162.973C86.3092 164.332 93.5046 168.091 100.515 170.279C107.95 172.604 121.218 171.638 116.05 171.755C110.85 171.882 104.505 170.47 100.177 168.112C95.8158 165.744 87.7265 164.236 86.8216 162.973Z" fill="black"/>
<path d="M109.55 151.401C102.704 151.316 82.5895 147.068 81.9244 149.84C81.2594 152.612 90.6789 157.125 95.1923 158.654C100.785 160.555 114.173 164.389 129.033 157.815C130.657 157.093 130.984 152.282 131.605 151.475C130.646 150.615 116.342 151.486 109.561 151.401H109.55Z" fill="#F1F1E6" stroke="black" stroke-miterlimit="10"/>
<path opacity="0.2" d="M82.3292 150.602C82.6781 153.087 90.4622 156.75 94.9648 158.29C100.558 160.191 103.043 161.943 108.68 161.253C108.68 161.253 103 160.913 93.7765 156.495C84.4224 152.014 84.8149 152.269 82.3292 150.602Z" fill="black"/>
<path d="M119.721 143.264C95.8669 138.177 75.0874 135.469 75.3163 140.152C75.4472 142.828 84.4196 147.724 86.9162 148.478C110.988 155.752 128.77 153.055 131.277 150.188C131.604 149.816 130.612 146.152 129.282 145.037C126.077 144.443 122.893 143.859 119.721 143.275V143.264Z" fill="#F1F1E6" stroke="black" stroke-miterlimit="10"/>
<path opacity="0.2" d="M75.3228 139.621C75.3991 143.572 85.8652 150.623 107.168 152.407C107.168 152.407 91.4035 149.147 84.6769 145.664C77.8848 142.149 75.3228 139.632 75.3228 139.632V139.621Z" fill="black"/>
<path d="M120.062 137.042C94.4206 124.182 71.3299 116.366 69.9453 121.272C69.1604 124.076 77.664 133.134 80.2369 134.685C105.192 149.733 126.342 145.708 130.321 143.563C130.834 143.287 131.161 136.734 130.038 135.163C126.538 133.506 123.497 138.646 120.052 137.032L120.062 137.042Z" fill="#F1F1E6" stroke="black" stroke-miterlimit="10"/>
<path opacity="0.2" d="M69.948 121.27C71.9867 130.339 86.4975 142.806 110.766 145.057C110.766 145.057 89.2121 138.42 82.202 133.376C75.2247 128.353 70.951 124.116 69.948 121.27Z" fill="black"/>
<path d="M119.72 126.924C95.0702 109.869 72.6009 96.5843 70.2678 101.066C68.9486 103.614 74.3779 113.671 76.4166 116.209C96.6728 141.292 125.858 138.181 130.437 136.864C131.036 136.694 130.622 135.197 129.739 133.508C126.381 131.299 123.034 129.112 119.709 126.924H119.72Z" fill="#F1F1E6" stroke="black" stroke-miterlimit="10"/>
<path opacity="0.2" d="M70.2669 101.054C70.4304 110.069 82.6408 133.443 116.906 137.531C116.906 137.531 101.436 132.869 90.2614 125.807C86.4893 123.429 80.3514 117.567 79.1303 115.942C74.2353 109.422 71.5098 105.769 70.2669 101.043V101.054Z" fill="black"/>
<path d="M115.844 116.386C103.1 110.376 93.9854 103.654 88.0873 98.6943C77.0762 89.4554 67.9075 78.5598 66.4902 80.0997C66.1631 80.4607 66.2504 81.4908 67.3733 84.1244C71.8105 94.5208 79.9653 100.553 84.6423 104.1C104.593 119.232 106.468 121.08 110.11 124.786C118.581 133.42 124.86 131.041 126.496 134.291C130.693 142.669 129.079 135.129 130.061 135.151C131.598 135.193 131.249 143.02 126.474 130.383C124.915 126.273 123.105 123.013 121.677 120.751C119.725 119.285 117.796 117.83 115.855 116.386H115.844Z" fill="#F1F1E6" stroke="black" stroke-miterlimit="10"/>
<path opacity="0.2" d="M66.3928 79.9336C66.0657 80.2947 66.1638 80.2947 67.3631 83.9796C71.7893 97.53 96.7116 112.758 101.258 116.21C101.258 116.21 83.1712 100.78 77.4912 94.6946C71.7457 88.5566 66.3928 79.9336 66.3928 79.9336Z" fill="black"/>
<path d="M102.216 94.5441C102.369 94.4379 106.087 101.967 113.238 110.325C120.794 119.139 123.519 118.788 127.509 125.011C132.622 132.976 131.162 138.19 134.127 149.011C136.046 155.988 137.06 162.912 146.25 172.745C155.233 182.345 157.054 181.411 161.655 191.287C163.072 194.335 163.694 199.113 161.906 200.43C161.262 200.908 159.093 201.821 150.164 194.494C141.006 186.975 135.446 182.473 129.788 164.6C126.408 153.928 129.613 152.654 125.231 139.379C123.279 133.454 120.805 128.654 115.964 119.33C108.583 105.11 102.02 94.6715 102.205 94.5441H102.216Z" fill="#F1F1E6" stroke="black" stroke-miterlimit="10"/>
<path opacity="0.2" d="M162.766 199.103C161.763 201.089 159.103 201.832 150.174 194.505C141.016 186.986 135.456 182.483 129.798 164.611C126.418 153.938 129.623 152.664 125.24 139.39C123.289 133.464 120.814 128.664 115.974 119.34C108.593 105.121 102.03 94.6821 102.215 94.5547C102.215 94.5547 114.458 111.992 117.773 118.268C121.054 124.501 127.672 135.312 129.59 149.075C130.146 153.036 130.713 162.466 133.45 168.593C134.714 171.429 135.892 174.699 137.702 177.779C139.239 180.37 141.365 182.802 143.011 184.99C148.702 192.551 155.112 196.65 158.972 198.423C160.945 199.326 162.766 199.113 162.766 199.113V199.103Z" fill="black"/>
</svg>
