<svg width="369" height="633" viewBox="0 0 369 633" fill="none" xmlns="http://www.w3.org/2000/svg">
<path d="M70.2476 23.4702C100.998 21.3202 126.788 14.5102 135.888 6.91016C137.538 9.35016 138.768 12.1202 139.508 15.2702C140.998 26.7302 143.958 39.1102 138.698 50.2402C137.888 51.9502 137.398 53.8002 137.418 55.7002C138.038 108.39 140.958 201.51 193.538 239.74C221.568 261.76 236.906 257.998 265.625 267.004C301.237 278.171 352.128 280.504 358.628 289.004C365.832 298.424 348.623 301.698 340.625 322.504C336.119 334.223 354.639 340.004 345.625 355.004C336.611 370.004 316.646 368.798 309.632 378.004C301.425 388.774 315.625 404.504 301.125 419.004C286.625 433.504 264.67 421.071 252.632 428.004C239.369 435.642 233.095 460.386 220.629 460.004C203.125 459.467 147.748 356.53 85.8276 337.45C85.5176 337.35 85.1976 337.28 84.8776 337.24C45.6176 331.8 8.47763 330.56 5.84763 280.81C5.79763 268.19 7.49761 255.67 12.4576 244.26C28.6676 207 19.0276 110.23 13.7176 71.7302C13.3476 69.5502 12.9876 67.2002 11.2276 65.8902C-0.37237 54.7502 0.207639 36.3202 1.01764 21.2402C1.35764 19.3402 1.84762 17.5802 2.43762 15.9302C12.1476 22.3802 38.9776 25.6602 70.2176 23.4702H70.2476Z" fill="#DCDCE0"/>
<path fill-rule="evenodd" clip-rule="evenodd" d="M135.992 6.17188L135.567 6.52659C131.108 10.2505 122.48 13.8314 111.063 16.7497C99.6718 19.6612 85.5735 21.8966 70.2301 22.9704H70.2001L70.1826 22.9716C54.5879 24.0648 40.1015 23.792 28.3107 22.4436C16.4938 21.0922 7.46301 18.6683 2.71426 15.5139L2.18198 15.1603L1.96683 15.762C1.36832 17.4358 0.870758 19.2226 0.525452 21.1523L0.52002 21.1827L0.518372 21.2135C0.113525 28.7504 -0.237885 37.1759 0.974609 45.1183C2.18784 53.0655 4.9736 60.5776 10.8813 66.251L10.9039 66.2727L10.9291 66.2914C11.7015 66.8664 12.185 67.681 12.5216 68.6484C12.8466 69.5821 13.0219 70.6172 13.2004 71.6706L13.2223 71.7987C13.2227 71.8013 13.2231 71.804 13.2234 71.8066C15.8768 91.0464 19.6112 124.841 20.6579 158.476C21.1812 175.296 21.0322 192.067 19.7417 206.954C18.4503 221.851 16.019 234.821 11.9991 244.061C7.00275 255.555 5.29745 268.149 5.34763 280.812L5.34769 280.825L5.34833 280.837C6.00906 293.335 8.83957 302.828 13.3598 310.114C17.8823 317.404 24.0754 322.451 31.404 326.089C38.7254 329.724 47.1832 331.954 56.246 333.616C62.8138 334.821 69.7227 335.73 76.7599 336.657C79.4283 337.008 82.1152 337.362 84.809 337.736L84.8156 337.736C85.1053 337.773 85.3946 337.836 85.6741 337.926L85.6804 337.928C101.066 342.669 116.076 352.63 130.223 364.95C144.367 377.267 157.622 391.917 169.502 406.003C175.326 412.909 180.817 419.675 185.92 425.964L186.223 426.337C191.41 432.729 196.194 438.619 200.51 443.638C204.824 448.654 208.683 452.815 212.021 455.742C213.69 457.206 215.241 458.372 216.663 459.183C218.081 459.992 219.405 460.467 220.614 460.504C223.914 460.605 226.766 459.037 229.365 456.605C231.96 454.176 234.355 450.837 236.746 447.291C237.277 446.505 237.807 445.709 238.339 444.909C240.22 442.084 242.131 439.214 244.183 436.588C246.815 433.221 249.647 430.3 252.881 428.437C255.78 426.768 259.306 426.248 263.253 426.212C265.849 426.188 268.58 426.373 271.405 426.564C272.889 426.664 274.4 426.766 275.931 426.841C284.757 427.271 294.067 426.769 301.479 419.358C308.889 411.947 308.953 404.197 308.236 397.055C308.139 396.089 308.028 395.139 307.92 394.204C307.625 391.668 307.343 389.244 307.379 386.923C307.427 383.772 308.064 380.887 310.029 378.307C311.712 376.099 314.19 374.491 317.161 373.088C319.291 372.082 321.636 371.199 324.089 370.275C325.065 369.908 326.057 369.534 327.06 369.143C334.067 366.414 341.454 362.915 346.054 355.262C348.358 351.427 348.924 348.139 348.508 345.176C348.095 342.234 346.718 339.665 345.242 337.262C344.911 336.723 344.576 336.195 344.245 335.672C343.083 333.837 341.97 332.078 341.238 330.233C340.311 327.898 340.019 325.472 341.091 322.684C344.755 313.153 350.366 307.344 354.678 302.879C355.024 302.521 355.361 302.172 355.689 301.83C357.875 299.547 359.681 297.531 360.448 295.46C360.839 294.407 360.965 293.331 360.742 292.198C360.52 291.071 359.958 289.92 359.025 288.7C358.133 287.533 356.528 286.525 354.424 285.617C352.306 284.703 349.617 283.864 346.485 283.066C340.221 281.472 332.117 280.032 323.127 278.511C321.534 278.242 319.913 277.97 318.269 277.694C301.335 274.854 281.968 271.605 265.774 266.527C258.573 264.269 252.212 262.811 246.291 261.552C245.075 261.294 243.878 261.044 242.697 260.797C238.122 259.841 233.782 258.934 229.453 257.77C218.587 254.849 207.806 250.314 193.847 239.347L193.839 239.341L193.832 239.336C167.692 220.33 153.853 187.643 146.482 153.039C139.113 118.447 138.228 82.0389 137.918 55.6945C137.899 53.8846 138.365 52.1097 139.15 50.4544C141.827 44.7887 142.404 38.8204 142.133 32.8564C141.94 28.5973 141.311 24.3045 140.697 20.1197C140.454 18.4619 140.214 16.821 140.004 15.2059L140 15.1807L139.994 15.156C139.241 11.9479 137.987 9.1216 136.302 6.63026L135.992 6.17188ZM135.774 7.64626C137.235 9.91649 138.334 12.4733 139.015 15.3603C139.229 17.002 139.471 18.6552 139.715 20.316C140.326 24.4817 140.944 28.696 141.134 32.9018C141.401 38.7751 140.828 44.5621 138.246 50.0263C137.41 51.7908 136.897 53.7157 136.918 55.7056C137.228 82.0512 138.112 118.549 145.504 153.247C152.892 187.93 166.801 220.914 193.236 240.139C207.303 251.189 218.205 255.782 229.193 258.735C233.552 259.907 237.928 260.822 242.505 261.778C243.683 262.025 244.875 262.274 246.083 262.531C251.992 263.787 258.318 265.237 265.475 267.481C281.739 272.581 301.175 275.841 318.096 278.679C319.743 278.955 321.366 279.228 322.96 279.497C331.957 281.019 340.02 282.453 346.239 284.036C349.348 284.827 351.98 285.651 354.028 286.535C356.091 287.426 357.499 288.35 358.231 289.308C359.099 290.443 359.576 291.455 359.761 292.391C359.944 293.322 359.845 294.21 359.51 295.113C358.827 296.956 357.182 298.825 354.966 301.139C354.639 301.481 354.3 301.831 353.952 302.192C349.636 306.659 343.897 312.598 340.158 322.325C338.977 325.396 339.311 328.087 340.308 330.601C341.078 332.543 342.26 334.408 343.431 336.256C343.754 336.767 344.077 337.276 344.39 337.786C345.854 340.168 347.135 342.589 347.518 345.315C347.898 348.022 347.399 351.081 345.197 354.747C340.782 362.093 333.679 365.492 326.697 368.211C325.72 368.592 324.743 368.96 323.776 369.324C321.307 370.254 318.903 371.16 316.734 372.184C313.706 373.613 311.059 375.306 309.234 377.701C307.096 380.507 306.43 383.626 306.379 386.907C306.342 389.3 306.635 391.821 306.933 394.38C307.04 395.301 307.148 396.228 307.241 397.155C307.947 404.196 307.861 411.561 300.772 418.651C293.683 425.739 284.765 426.27 275.98 425.842C274.492 425.77 273.003 425.669 271.527 425.57C268.676 425.377 265.876 425.188 263.244 425.212C259.235 425.248 255.503 425.774 252.382 427.571C248.985 429.527 246.059 432.564 243.395 435.972C241.317 438.631 239.378 441.544 237.494 444.374C236.965 445.169 236.44 445.958 235.917 446.732C233.524 450.28 231.184 453.532 228.682 455.874C226.184 458.212 223.577 459.594 220.644 459.504C219.665 459.474 218.505 459.082 217.158 458.315C215.816 457.549 214.322 456.43 212.681 454.991C209.398 452.111 205.575 447.994 201.268 442.986C196.964 437.98 192.189 432.102 187 425.707L186.694 425.331C181.593 419.044 176.097 412.271 170.267 405.359C158.374 391.258 145.081 376.563 130.88 364.196C116.682 351.833 101.551 341.773 85.9771 336.973C85.6394 336.865 85.2918 336.789 84.9445 336.745C84.9429 336.745 84.9412 336.744 84.9396 336.744L84.8776 337.24L84.9462 336.745C84.9456 336.745 84.9451 336.745 84.9445 336.745C82.2353 336.369 79.5393 336.014 76.8661 335.662C69.8382 334.737 62.9675 333.832 56.4264 332.632C47.4014 330.977 39.0486 328.768 31.8487 325.194C24.6561 321.623 18.6173 316.692 14.2095 309.587C9.8009 302.481 7.00305 293.166 6.34756 280.796C6.34756 280.8 6.34763 280.804 6.34763 280.808L5.84763 280.81L6.34692 280.784C6.34714 280.788 6.34735 280.792 6.34756 280.796C6.29886 268.224 7.99414 255.782 12.9161 244.46C17.0012 235.07 19.4437 221.971 20.7379 207.041C22.033 192.101 22.1815 175.287 21.6574 158.445C20.6092 124.76 16.8695 90.9236 14.2129 71.662L14.2119 71.6543L14.2106 71.6467L14.1819 71.4774C14.0076 70.4469 13.8195 69.3354 13.4661 68.3198C13.0936 67.2492 12.5238 66.2421 11.5521 65.5087C11.5594 65.5157 11.5667 65.5227 11.574 65.5297L11.2276 65.8904L11.5262 65.4893C11.5349 65.4957 11.5435 65.5022 11.5521 65.5087C5.87466 60.0445 3.15588 52.7802 1.96317 44.9674C0.769806 37.1505 1.11081 28.8332 1.51523 21.2983C1.51343 21.3083 1.51163 21.3184 1.50983 21.3284L1.01764 21.2403L1.51691 21.2672C1.51636 21.2775 1.51578 21.2879 1.51523 21.2983C1.80908 19.6651 2.21558 18.1366 2.70218 16.6926C2.51651 16.5784 2.33609 16.4631 2.16098 16.3468L2.43762 15.9304L2.90842 16.0987C2.8382 16.2951 2.76941 16.493 2.70218 16.6926C7.77765 19.8134 16.7791 22.1313 28.1971 23.4371C40.0543 24.7932 54.5966 25.0657 70.2351 23.9704H70.2176V23.4704L70.2526 23.9691C70.2509 23.9692 70.2493 23.9694 70.2476 23.9695C70.2434 23.9698 70.2393 23.9701 70.2351 23.9704H70.2651L70.2825 23.9691C85.6824 22.8924 99.8477 20.6484 111.31 17.7185C122.403 14.8831 131.03 11.3895 135.774 7.64626Z" fill="black"/>
<path d="M12.5394 244.191C8.53938 255.971 5.86937 268.121 5.92937 280.741C8.46937 328.791 43.1994 331.591 80.9394 336.621C100.719 268.371 75.7294 239.481 12.5494 244.181L12.5394 244.191Z" fill="#DCDCE0"/>
<path fill-rule="evenodd" clip-rule="evenodd" d="M80.5786 336.068C79.3811 335.909 78.1873 335.752 76.9982 335.595C59.563 333.301 43.1228 331.138 30.4702 324.372C23.6798 320.741 17.994 315.789 13.8444 308.781C9.69383 301.771 7.06241 292.674 6.42941 280.726C6.37202 268.291 8.98012 256.302 12.91 244.655C44.2794 242.374 65.9847 248.442 77.4583 263.349C88.9315 278.257 90.3273 302.199 80.5786 336.068ZM78.2507 262.739C66.4187 247.366 44.1488 241.328 12.5124 243.682L12.3272 243.696L12.1035 243.919L12.066 244.03C8.05454 255.844 5.36913 268.051 5.42948 280.743L5.42953 280.755L5.43017 280.767C6.06829 292.838 8.73025 302.106 12.9839 309.29C17.2399 316.478 23.0716 321.55 29.9987 325.254C42.8202 332.11 59.4411 334.296 76.8147 336.58C78.1635 336.757 79.5169 336.935 80.8734 337.116L81.2999 337.173L81.4197 336.76C91.3204 302.598 90.0759 278.104 78.2507 262.739Z" fill="black"/>
<path d="M70.2491 23.4702C100.999 21.3202 126.789 14.5102 135.889 6.91016C137.539 9.35016 138.769 12.1202 139.509 15.2702C140.999 26.7302 143.959 39.1102 138.699 50.2402C98.7591 66.2802 56.169 69.5502 11.239 65.8902C-0.360956 54.7502 0.219053 36.3202 1.02905 21.2402C1.36905 19.3402 1.85907 17.5802 2.44907 15.9302C12.1591 22.3802 38.9891 25.6602 70.2291 23.4702H70.2491Z" fill="#DCDCE0"/>
<path fill-rule="evenodd" clip-rule="evenodd" d="M135.993 6.17188L135.569 6.52659C131.11 10.2505 122.481 13.8314 111.064 16.7497C99.6732 19.6612 85.5749 21.8966 70.2316 22.9704H70.2116L70.1941 22.9716C54.5993 24.0648 40.113 23.792 28.3221 22.4436C16.5053 21.0922 7.47444 18.6683 2.72572 15.5139L2.19342 15.1603L1.97826 15.762C1.37976 17.4358 0.882172 19.2226 0.536865 21.1523L0.531433 21.1827L0.52977 21.2135C0.124939 28.7504 -0.226486 37.1759 0.986023 45.1183C2.19926 53.0655 4.98502 60.5776 10.8927 66.251L11.0211 66.3743L11.1985 66.3887C56.1765 70.0526 98.8505 66.7825 138.885 50.7043L139.067 50.6313L139.151 50.454C141.829 44.7883 142.406 38.8204 142.135 32.8564C141.941 28.5974 141.312 24.3046 140.699 20.1198C140.455 18.462 140.215 16.821 140.005 15.2059L140.002 15.1807L139.996 15.156C139.242 11.9479 137.988 9.1216 136.303 6.63026L135.993 6.17188ZM135.776 7.64626C137.236 9.91645 138.336 12.4732 139.017 15.3601C139.23 17.0019 139.473 18.6551 139.716 20.316C140.327 24.4817 140.945 28.696 141.136 32.9018C141.4 38.7119 140.842 44.4375 138.33 49.8497C98.5904 65.7671 56.2055 69.0338 11.4579 65.4065C5.85231 59.9541 3.15988 52.7316 1.97458 44.9674C0.781219 37.1505 1.12224 28.8331 1.52667 21.2982C1.82053 19.665 2.22701 18.1366 2.71362 16.6926C7.78908 19.8134 16.7906 22.1313 28.2085 23.4371C40.0657 24.7932 54.608 25.0657 70.2466 23.9704H70.2665L70.2839 23.9691C85.6839 22.8924 99.8492 20.6484 111.312 17.7185C122.405 14.8831 131.031 11.3895 135.776 7.64626Z" fill="black"/>
<path d="M2.63004 15.4398C2.63004 20.6398 35.2 27.1698 70.6 24.3498C106.01 21.5398 136.07 10.6898 135.6 6.57982C135.37 4.55982 116.46 -0.900176 71.16 0.829824C25.86 2.55982 2.62003 12.7898 2.62003 15.4298L2.63004 15.4398Z" fill="#DCDCE0"/>
<path fill-rule="evenodd" clip-rule="evenodd" d="M135.105 6.6544C135.111 6.75307 135.077 6.91295 134.92 7.14938C134.754 7.39857 134.479 7.6912 134.077 8.02189C133.273 8.6824 132.038 9.43469 130.399 10.2472C127.129 11.8692 122.338 13.6892 116.411 15.4736C104.561 19.0411 88.2289 22.4493 70.5604 23.8514L70.5603 23.8514C52.8992 25.2583 35.9454 24.3323 23.4159 22.4081C17.1484 21.4456 12.006 20.2361 8.44163 18.9519C6.65629 18.3087 5.29265 17.6558 4.38503 17.0215C3.4471 16.366 3.12997 15.826 3.12997 15.4398V15.398C3.1451 15.3587 3.18306 15.2831 3.27817 15.1674C3.42358 14.9907 3.66003 14.7723 4.00447 14.5174C4.69127 14.0091 5.7433 13.4023 7.1718 12.7306C10.0242 11.3893 14.3154 9.81806 20.033 8.27122C31.4649 5.17847 48.5621 2.1932 71.179 1.32946C93.8082 0.465258 109.831 1.3976 120.215 2.79411C125.408 3.49261 129.18 4.30582 131.658 5.06404C132.9 5.44391 133.799 5.80477 134.385 6.12169C134.68 6.28078 134.876 6.41899 134.996 6.52984C135.071 6.59975 135.097 6.64143 135.105 6.6544ZM120.348 1.80304C109.894 0.397053 93.8117 -0.535608 71.1409 0.330189C48.4578 1.19645 31.285 4.19118 19.7719 7.30593C14.017 8.86284 9.66698 10.4522 6.74626 11.8256C5.28819 12.5113 4.17068 13.1503 3.40959 13.7136C3.03009 13.9944 2.72301 14.2682 2.50587 14.5322C2.29868 14.7841 2.11996 15.0913 2.11996 15.4298V15.6371L2.14368 15.6608C2.24593 16.4834 2.91058 17.2111 3.81219 17.8411C4.82402 18.5483 6.28146 19.2366 8.10268 19.8927C11.7515 21.2073 16.964 22.429 23.2641 23.3965C35.8695 25.3324 52.9008 26.2613 70.6397 24.8482C88.3811 23.4403 104.784 20.0186 116.699 16.4311C122.655 14.638 127.504 12.7992 130.844 11.1431C132.51 10.3165 133.823 9.5249 134.712 8.7944C135.156 8.42959 135.512 8.06493 135.753 7.70227C135.992 7.34169 136.144 6.94015 136.097 6.52326M120.348 1.80304C125.573 2.50579 129.403 3.3282 131.951 4.1078ZM131.951 4.1078C133.222 4.49683 134.192 4.88042 134.861 5.24199ZM134.861 5.24199C135.194 5.42213 135.471 5.60666 135.676 5.79687ZM135.676 5.79687C135.87 5.97669 136.062 6.21962 136.097 6.52302Z" fill="black"/>
<path opacity="0.2" d="M188.134 427.996C176.134 413.866 151.636 380.496 124.136 358.496C114.136 350.496 113.633 349.496 85.8425 337.451C85.5325 337.351 85.2125 337.281 84.8925 337.241C45.6326 331.801 8.49264 330.561 5.86264 280.811C5.81264 268.191 7.76264 255.771 12.4726 244.261C28.0526 206.221 19.0427 110.231 13.7327 71.7314C13.3627 69.5514 13.0026 67.2014 11.2426 65.8914C1.57264 56.6014 0.372672 42.2414 0.702672 28.9914C0.772671 26.3514 2.32265 18.4514 2.46265 15.9414C2.46265 15.9414 10.5326 17.4914 19.0126 32.2214C27.4926 46.9514 26.1923 60.4414 29.8123 65.9314C33.4323 71.4214 26.1324 155.911 33.2723 200.301C40.4123 244.691 10.3124 260.411 30.9223 294.231C51.5323 328.051 68.5026 306.921 97.4825 322.661C126.462 338.401 142.636 354.996 160.136 373.496C177.636 391.996 194.636 420.996 204.636 432.496C210.136 437.996 214.11 449.961 222.636 449.496C232.136 448.496 239.136 429.996 249.129 424.496C255.866 420.788 286.129 425.996 290.631 424.996C292.897 425.608 281.63 427.496 274.13 425.996C266.634 425.996 258.629 423.496 248.634 430.496C240.634 437.496 231.136 461.511 221.636 459.996C212.04 458.466 199.928 442.701 193.134 433.996C190.369 430.452 188.134 427.996 188.134 427.996Z" fill="black"/>
<path opacity="0.2" d="M2.61859 14.7605C1.92859 18.2805 23.0286 25.4205 60.3086 24.9205C51.1986 22.7505 27.0686 18.1605 24.4386 15.8205C19.1886 11.1405 25.0786 6.5505 20.8686 7.5505C10.0886 10.1105 2.7386 14.1805 2.6286 14.7705L2.61859 14.7605Z" fill="#DCDCE0"/>
<path fill-rule="evenodd" clip-rule="evenodd" d="M244.878 306.067C244.639 305.929 244.333 306.011 244.196 306.251C244.058 306.49 244.14 306.796 244.379 306.933L244.629 306.5L244.878 306.067ZM345.629 354.5C345.811 354.035 345.811 354.035 345.811 354.034L345.486 353.907C345.272 353.822 344.955 353.697 344.544 353.535C343.722 353.21 342.526 352.736 341.027 352.138C338.028 350.942 333.817 349.251 328.968 347.269C319.27 343.306 307.027 338.184 296.836 333.545C286.735 328.947 273.748 322.08 263.279 316.357C258.047 313.497 253.446 310.924 250.154 309.066C248.507 308.137 247.188 307.387 246.281 306.87C245.827 306.611 245.476 306.41 245.239 306.274L244.88 306.068L244.878 306.067C244.878 306.067 244.878 306.067 244.629 306.5C244.379 306.933 244.379 306.933 244.379 306.933L244.742 307.141C244.98 307.278 245.331 307.479 245.785 307.738C246.694 308.257 248.014 309.007 249.662 309.937C252.957 311.796 257.562 314.371 262.8 317.235C273.271 322.959 286.285 329.841 296.422 334.455C306.631 339.102 318.888 344.23 328.59 348.195C333.441 350.178 337.655 351.87 340.656 353.067C342.157 353.666 343.354 354.14 344.176 354.465C344.587 354.628 344.905 354.753 345.12 354.837L345.445 354.965L345.446 354.965C345.446 354.966 345.446 354.966 345.629 354.5ZM345.629 354.5L345.811 354.034C346.068 354.135 346.195 354.426 346.094 354.683C345.993 354.94 345.703 355.066 345.446 354.965L345.629 354.5Z" fill="black"/>
<path fill-rule="evenodd" clip-rule="evenodd" d="M204.464 344.634C204.26 344.447 203.944 344.461 203.757 344.665C203.571 344.869 203.585 345.185 203.789 345.371L204.126 345.002L204.464 344.634ZM300.626 419.39C300.89 418.965 300.89 418.965 300.89 418.965L300.558 418.758C300.339 418.622 300.017 418.419 299.599 418.157C298.765 417.633 297.553 416.869 296.042 415.909C293.022 413.989 288.809 411.288 284.039 408.162C274.498 401.908 262.741 393.96 253.851 387.166C245.033 380.427 232.689 369.798 222.542 360.845C217.471 356.37 212.951 352.317 209.699 349.383C208.073 347.916 206.764 346.728 205.862 345.908C205.41 345.497 205.061 345.179 204.824 344.963L204.464 344.634C204.464 344.633 204.464 344.634 204.126 345.002C203.789 345.371 203.788 345.371 203.789 345.371L204.15 345.701C204.387 345.918 204.737 346.237 205.189 346.647C206.092 347.469 207.402 348.657 209.029 350.125C212.283 353.061 216.806 357.117 221.881 361.595C232.028 370.547 244.395 381.198 253.244 387.961C262.164 394.777 273.946 402.742 283.491 408.999C288.265 412.128 292.482 414.832 295.506 416.753C297.018 417.714 298.232 418.479 299.067 419.004C299.485 419.267 299.809 419.469 300.028 419.606L300.36 419.814L300.361 419.814C300.361 419.814 300.362 419.814 300.626 419.39ZM300.626 419.39L300.89 418.965C301.124 419.111 301.196 419.42 301.05 419.654C300.904 419.889 300.596 419.96 300.361 419.814L300.626 419.39Z" fill="black"/>
<g clip-path="url(#clip0_4969_315647)">
<path d="M114.947 116.42C117.516 142.803 122.724 153.223 121.251 162.79C119.787 170.339 103.486 175.672 85.7153 177.283C67.8991 178.279 50.9945 175.385 48.443 168.139C45.588 158.882 49.2177 147.82 47.9036 121.344L114.947 116.42Z" fill="#DCDCE0" stroke="#231F20" stroke-miterlimit="10"/>
<path opacity="0.2" d="M84.1614 177.361C113.643 172.744 118.852 160.905 118.423 157.376C117.993 153.847 113.827 128.96 111.863 124.399C109.898 119.839 95.503 120.726 90.6413 120.898C85.7796 121.07 56.1322 121.592 48.5343 121.553L114.946 116.419C117.515 142.803 121.786 154.656 121.25 162.79C120.976 167.259 108.341 176.189 84.1614 177.361Z" fill="#231F20"/>
<path d="M117.309 99.2617C118.182 99.1975 118.91 99.9329 118.825 100.806C118.375 105.395 118.708 109.926 119.823 114.399C120.035 115.251 119.423 116.084 118.549 116.149C118.549 116.149 98.5923 118.965 81.5177 120.219C64.4431 121.473 44.2891 121.603 44.2891 121.603C43.4153 121.667 42.6882 120.932 42.7728 120.059C43.2222 115.47 42.8894 110.939 41.7744 106.466C41.563 105.614 42.1749 104.78 43.0487 104.716C43.0487 104.716 63.6537 104.553 80.2773 103.332C96.9009 102.111 117.309 99.2617 117.309 99.2617Z" fill="#DCDCE0" stroke="#231F20" stroke-miterlimit="10"/>
<path d="M43.0547 104.715C43.0609 104.8 63.6597 104.552 80.2833 103.331C96.9069 102.109 117.319 99.3238 117.315 99.2602" stroke="#231F20" stroke-miterlimit="10"/>
<path d="M80.7305 109.396L82.1398 109.293" stroke="black" stroke-opacity="0.6" stroke-miterlimit="10"/>
<path d="M84.9414 109.088L106.012 107.54" stroke="black" stroke-opacity="0.6" stroke-miterlimit="10" stroke-dasharray="3.99 3.99"/>
<path d="M107.414 107.438L108.823 107.334L108.927 108.748" stroke="#BCBEC0" stroke-miterlimit="10"/>
<path d="M109.134 111.538L109.878 121.668C112.019 143.669 116.13 152.379 114.902 160.358C113.673 166.673 100.226 171.108 85.3602 172.441C70.4595 173.294 56.5086 170.872 54.3695 164.804C51.9887 157.083 54.7838 147.874 53.6863 125.795L52.84 114.273" stroke="black" stroke-opacity="0.6" stroke-miterlimit="10" stroke-dasharray="3.95 3.95"/>
<path d="M52.7288 112.875L52.625 111.461L54.0344 111.357" stroke="#BCBEC0" stroke-miterlimit="10"/>
<path d="M56.8477 111.15L77.9108 109.603" stroke="black" stroke-opacity="0.6" stroke-miterlimit="10" stroke-dasharray="3.99 3.99"/>
<path d="M79.3203 109.5L80.7297 109.396" stroke="black" stroke-opacity="0.6" stroke-miterlimit="10"/>
<path d="M52.5872 115.158C54.611 115.01 56.1307 113.244 55.9816 111.214C55.8324 109.184 54.071 107.658 52.0472 107.807C50.0234 107.956 48.5037 109.722 48.6528 111.752C48.8019 113.782 50.5634 115.307 52.5872 115.158Z" fill="#9891A1" stroke="#231F20" stroke-miterlimit="10"/>
<path d="M109.411 110.985C111.435 110.836 112.955 109.07 112.806 107.04C112.657 105.01 110.895 103.485 108.871 103.633C106.848 103.782 105.328 105.548 105.477 107.578C105.626 109.608 107.388 111.133 109.411 110.985Z" fill="#9891A1" stroke="#231F20" stroke-miterlimit="10"/>
</g>
<defs>
<clipPath id="clip0_4969_315647">
<rect width="78" height="78" fill="white" transform="translate(41.1289 102.711) rotate(-4.20104)"/>
</clipPath>
</defs>
</svg>
