<svg width="430" height="509" viewBox="0 0 430 509" fill="none" xmlns="http://www.w3.org/2000/svg">
<path d="M203.685 152.678C201.657 152.986 205.778 168.288 200.458 180.171C198.125 185.375 195.083 196.451 196.206 198.617C198.463 202.982 202.246 195.347 205.32 192.076C210.117 186.968 211.872 178.918 211.927 177.771C212.505 165.559 205.549 152.402 203.685 152.688V152.678Z" fill="#F1F1E6" stroke="black" stroke-miterlimit="10"/>
<path opacity="0.2" d="M195.977 197.423C197.132 205.547 204.273 192.421 207.348 189.15C207.348 189.15 201.057 196.234 198.92 197.518C196.773 198.803 195.977 197.423 195.977 197.423Z" fill="black"/>
<path d="M183.594 157.631C157.113 170.331 129.421 185.241 131.885 192.261C133.292 196.296 143.878 195.499 147.115 196.423C164.995 201.489 202.149 163.078 197.363 154.424C196.895 153.585 195.99 152.671 194.082 152.119C190.56 153.967 187.072 155.804 183.594 157.631Z" fill="#F1F1E6" stroke="black" stroke-miterlimit="10"/>
<path d="M194.584 148.022C182.472 165.608 165.77 178.691 160.199 181.102C151.542 184.84 137.925 189.576 130.85 185.148C124.549 181.208 114.758 178.84 114.344 175.006C113.777 169.803 130.501 169.654 148.555 164.536C162.063 160.702 172.136 153.268 196.045 142.182L199.25 146.971L194.595 148.022H194.584Z" fill="#F1F1E6" stroke="black" stroke-miterlimit="10"/>
<path opacity="0.2" d="M173.438 171.598C161.129 182.844 140.295 193.155 123.222 181.325C123.222 181.325 128.553 183.534 141.81 183.693C154.849 183.852 173.438 171.598 173.438 171.598Z" fill="black"/>
<path opacity="0.2" d="M178.766 182.314C170.742 188.155 161.638 196.077 152.044 196.81C141.557 195.387 138.689 197.139 132.235 192.955C135.506 194.729 137.119 194.41 150.333 194.336C163.197 194.261 178.755 182.314 178.755 182.314H178.766Z" fill="black"/>
<path d="M198.128 158.44C180.728 185.446 161.53 193.081 162.838 201.545C163.536 206.1 174.972 201.237 177.654 199.357C200.287 183.534 204.114 175.463 209.565 155.255C209.783 154.447 208.769 153.747 206.839 153.619C203.721 156.306 200.483 154.787 198.128 158.44Z" fill="#F1F1E6" stroke="black" stroke-miterlimit="10"/>
<path opacity="0.2" d="M162.349 201.307C164.257 207.721 182.9 199.396 194.074 185.145C194.074 185.145 182.224 194.67 174.221 198.132C166.405 201.52 162.349 201.307 162.349 201.307Z" fill="black"/>
<path d="M196.63 156.153C194.351 156.365 198.647 170.16 192.509 180.407C189.849 184.846 186.349 194.276 187.537 196.167C189.936 199.99 194.198 193.618 197.633 190.931C203.04 186.705 205.188 179.738 205.275 178.74C206.234 167.972 198.734 155.961 196.63 156.153Z" fill="#F1F1E6" stroke="black" stroke-miterlimit="10"/>
<path opacity="0.2" d="M187.377 195.013C188.74 200.79 194.191 193.622 197.636 190.935C203.043 186.709 201.615 187.282 202.945 184.574C202.945 184.574 199.391 187.303 195.979 190.203C193.995 191.891 191.542 194.333 190.615 194.663C188.086 195.555 187.377 195.013 187.377 195.013Z" fill="black"/>
<path d="M192.027 145.851C173.734 160.665 151.264 168.63 144.243 169.862C133.45 171.752 121.687 174.258 109.346 164.743C102.521 159.487 92.0875 153.062 92.3819 148.91C92.7743 143.271 112.147 148.389 134.213 148.708C150.839 148.952 164.303 144.269 195.102 140.074L197.816 146.223L192.038 145.851H192.027Z" fill="#F1F1E6" stroke="black" stroke-miterlimit="10"/>
<path opacity="0.2" d="M166.366 161.807C134.924 175.007 121.689 173.849 109.337 164.323C102.512 159.067 98.2275 157.718 94.7497 153.279C94.7497 153.279 106.35 162.083 121.547 166.946C133.529 170.78 165.984 161.616 169.909 160.575C175.807 159.003 166.366 161.807 166.366 161.807Z" fill="black"/>
<path d="M188.846 134.245C167.837 147.095 143.22 152.978 135.741 153.307C128.928 153.604 108.595 152.648 99.4045 145.056C92.5471 139.385 82.1792 132.026 82.8224 127.98C83.6946 122.468 103.744 129.296 127.063 131.665C144.681 133.449 159.443 130.093 192.738 128.819L194.973 135.148L188.846 134.245Z" fill="#F1F1E6" stroke="black" stroke-miterlimit="10"/>
<path opacity="0.2" d="M151.224 150.264C135.208 155.404 108.585 152.653 99.4059 145.06C92.5484 139.39 85.6256 133.22 82.9109 129.174C82.9109 129.174 95.0995 141.057 111.867 147.227C121.635 150.827 143.57 149.276 151.932 148.204C157.732 147.46 151.213 150.264 151.213 150.264H151.224Z" fill="black"/>
<path d="M177.052 130.6C156.229 123.007 148.892 125.449 131.972 116.327C125.551 112.865 125.006 111.644 115.183 104.975C108.522 100.451 67.2243 72.4052 62.7108 80.391C60.018 85.1485 69.0995 100.398 77.0253 109.807C94.8067 130.897 118.41 136.1 137.292 140.253C155.379 144.235 155.335 140.964 190.364 147.134C201.746 149.141 195.695 146.635 196.12 144.798C196.753 142.09 194.016 136.78 177.052 130.6Z" fill="#F1F1E6" stroke="black" stroke-miterlimit="10"/>
<path opacity="0.2" d="M64.2464 89.0195C67.0483 96.177 69.1197 100.51 77.0564 109.919C94.8378 131.009 120.414 138.187 159.597 143.741C159.597 143.741 162.191 143.264 151.758 140.768C134.031 136.541 102.982 128.439 91.807 118.934C73.3606 103.26 64.2573 89.0195 64.2573 89.0195H64.2464Z" fill="black"/>
<path d="M171.736 114.997C151.546 104.017 143.936 105.248 127.801 93.3654C121.674 88.8521 121.26 87.5459 112.036 79.2734C105.779 73.6663 67.0541 38.9302 61.6794 46.1302C58.4741 50.4204 66.0511 67.1248 73.083 77.8291C88.8693 101.85 112.167 110.919 130.788 118.172C148.613 125.117 148.896 121.825 183.522 133.719C194.762 137.574 188.929 134.091 189.529 132.317C190.423 129.716 188.177 123.949 171.736 115.008V114.997Z" fill="#F1F1E6" stroke="black" stroke-miterlimit="10"/>
<path opacity="0.2" d="M62.3367 54.9727C64.419 62.5655 66.0652 67.2381 73.0971 77.9425C88.8834 101.953 113.98 113.337 152.901 125.294C152.901 125.294 155.561 125.231 145.302 121.036C127.869 113.91 97.3652 100.71 87.0518 89.3689C70.0445 70.6682 62.3258 54.9727 62.3258 54.9727H62.3367Z" fill="black"/>
<path d="M160.482 100.947C141.698 85.3998 133.848 84.8582 119.283 69.3538C113.756 63.4707 113.527 62.0795 105.416 51.7787C99.921 44.7911 65.9827 1.60194 59.485 7.41076C55.6038 10.8727 60.7605 29.0744 66.277 41.2761C78.6946 68.7167 100.935 83.1166 118.716 94.6387C135.735 105.662 136.487 102.455 169.727 122.26C180.52 128.685 188.675 133.92 189.537 132.327C191.837 128.037 175.789 113.637 160.482 100.968V100.947Z" fill="#F1F1E6" stroke="black" stroke-miterlimit="10"/>
<path opacity="0.2" d="M58.8322 16.2617C59.8025 24.2263 60.7728 29.2068 66.2893 41.3979C78.7068 68.8278 102.43 85.9463 140.042 106.835C140.042 106.835 142.735 107.387 132.978 100.845C116.385 89.7375 87.4721 69.5712 78.7068 55.9465C64.2833 33.5183 58.8322 16.2617 58.8322 16.2617Z" fill="black"/>
<path d="M173.498 101.771C143.07 79.8848 123.665 58.1257 111.454 42.0372C95.0356 20.4161 83.7737 -1.22626 79.5764 1.18434C76.502 2.95779 78.9332 16.6144 81.6696 25.4816C86.5864 41.4426 92.3537 52.7204 101.141 62.4796C106.799 68.7557 129.835 89.4848 153.504 100.37C158.355 102.6 165.583 105.382 174.24 112.869C183.561 120.918 187.017 127.874 188.903 126.961C191.618 125.644 189.23 109.014 180.552 103.534C177.837 101.814 175.21 101.655 173.487 101.771H173.498Z" fill="#F1F1E6" stroke="black" stroke-miterlimit="10"/>
<path opacity="0.2" d="M80.0788 17.8223C81.4089 24.6824 81.954 27.9107 83.0878 30.6293C89.0622 44.9336 94.4697 55.5637 103.061 64.6327C108.599 70.4733 130.261 90.2042 153.516 100.367C153.516 100.367 111.292 72.6822 97.7839 51.8681C83.9382 30.5231 80.0788 17.8223 80.0788 17.8223Z" fill="black"/>
<path d="M204.814 150.964C202.133 149.679 196.845 157.93 194.283 163.484C193.912 164.281 188.756 175.622 191.285 177.693C193.509 179.52 201.893 174.337 205.065 165.927C207.3 160.001 207.104 152.058 204.814 150.964Z" fill="#F1F1E6" stroke="black" stroke-miterlimit="10"/>
<path opacity="0.2" d="M190.696 174.201C190.01 181.964 198.938 175.55 202.133 171.238C202.133 171.238 199.8 173.829 195.417 175.327C191.034 176.824 190.696 174.201 190.696 174.201Z" fill="black"/>
<path d="M210.508 158.554C208.404 157.555 204.228 164.076 202.212 168.462C201.928 169.088 197.862 178.04 199.835 179.676C201.579 181.12 208.175 177.01 210.682 170.362C212.449 165.679 212.296 159.403 210.497 158.554H210.508Z" fill="#F1F1E6" stroke="black" stroke-miterlimit="10"/>
<path opacity="0.2" d="M199.385 176.924C198.84 183.051 205.861 177.975 208.379 174.566C208.379 174.566 206.536 176.616 203.091 177.805C199.646 178.995 199.385 176.924 199.385 176.924Z" fill="black"/>
<path d="M217.19 163.122C215.544 162.092 211.75 166.998 209.831 170.364C209.558 170.842 205.688 177.745 207.182 179.274C208.501 180.633 214.116 177.947 216.579 172.775C218.313 169.132 218.596 163.993 217.19 163.122Z" fill="#F1F1E6" stroke="black" stroke-miterlimit="10"/>
<path opacity="0.2" d="M206.987 176.976C206.147 181.924 212.165 178.494 214.422 175.967C214.422 175.967 212.797 177.454 209.93 178.08C207.063 178.707 206.987 176.976 206.987 176.976Z" fill="black"/>
<path d="M198.784 155.862C196.604 153.908 189.299 158.57 185.353 162.053C184.786 162.553 176.805 169.657 178.615 172.174C180.218 174.383 189.528 173.236 194.848 167.745C198.61 163.869 200.637 157.53 198.784 155.862Z" fill="#F1F1E6" stroke="black" stroke-miterlimit="10"/>
<path opacity="0.2" d="M178.411 169.98C178.019 175.311 189.531 173.24 194.852 167.75C194.852 167.75 188.332 171.446 184.069 171.35C179.785 171.254 178.411 169.98 178.411 169.98Z" fill="black"/>
<path d="M195.913 144.812C181.903 146.278 174.206 149.06 168.341 151.885C165.801 153.117 161.658 158.182 162.388 159.924C163.261 162.005 169.846 163.11 173.727 163.375C178.535 163.704 192.14 164.352 197.613 150.334C198.213 148.795 198.584 147.414 198.812 146.469L195.902 144.791L195.913 144.812Z" fill="#F1F1E6" stroke="black" stroke-miterlimit="10"/>
<path opacity="0.2" d="M162.279 159.146C163.336 161.716 172.723 166.368 188.477 160.973C188.477 160.973 179.471 162.152 173.323 161.249C167.119 160.325 162.279 159.157 162.279 159.157V159.146Z" fill="black"/>
<path d="M192.605 138.506C175.39 140.375 149.498 147.458 150.544 152.927C150.948 155.062 158.906 154.117 163.311 155.317C170.691 157.334 182.891 152.46 190.926 147.235C192.365 146.301 194.785 144.326 195.254 143.423C194.251 142.765 193.717 138.389 192.605 138.506Z" fill="#F1F1E6" stroke="black" stroke-miterlimit="10"/>
<path opacity="0.2" d="M150.847 151.498C149.931 155.247 158.838 154.578 163.308 155.31C170.612 156.489 168.072 155.767 174.199 154.737C174.199 154.737 166.611 154.971 162.926 153.93C159.22 152.879 151.85 153.622 150.847 151.498Z" fill="black"/>
<path d="M189.031 131.432C171.381 130.03 160.926 131.315 153.022 132.589C149.598 133.141 143.668 135.977 143.962 137.761C144.311 139.895 151.877 141.276 156.26 143.612C162.812 147.106 177.846 148.837 189.184 137.028C190.438 135.722 191.364 134.511 191.953 133.683C190.972 132.929 190.002 132.175 189.02 131.421L189.031 131.432Z" fill="#F1F1E6" stroke="black" stroke-miterlimit="10"/>
<path opacity="0.2" d="M143.95 136.971C143.438 138.33 150.633 142.089 157.644 144.277C165.079 146.603 178.347 145.636 173.179 145.753C167.979 145.88 161.634 144.468 157.306 142.111C152.945 139.742 144.855 138.234 143.95 136.971Z" fill="black"/>
<path d="M166.679 125.401C159.833 125.316 139.718 121.068 139.053 123.84C138.388 126.612 147.808 131.125 152.321 132.654C157.914 134.555 171.302 138.389 186.161 131.815C187.786 131.093 188.113 126.282 188.734 125.475C187.775 124.615 173.471 125.486 166.69 125.401H166.679Z" fill="#F1F1E6" stroke="black" stroke-miterlimit="10"/>
<path opacity="0.2" d="M139.458 124.6C139.807 127.085 147.591 130.748 152.094 132.288C157.687 134.189 160.172 135.941 165.809 135.251C165.809 135.251 160.129 134.911 150.905 130.493C141.551 126.012 141.944 126.267 139.458 124.6Z" fill="black"/>
<path d="M176.85 117.264C152.996 112.177 132.216 109.469 132.445 114.152C132.576 116.828 141.549 121.724 144.045 122.478C168.117 129.752 185.898 127.055 188.406 124.188C188.733 123.816 187.741 120.152 186.411 119.037C183.206 118.443 180.022 117.859 176.85 117.275V117.264Z" fill="#F1F1E6" stroke="black" stroke-miterlimit="10"/>
<path opacity="0.2" d="M132.452 113.623C132.528 117.573 142.994 124.625 164.297 126.409C164.297 126.409 148.532 123.149 141.806 119.665C135.014 116.15 132.452 113.634 132.452 113.634V113.623Z" fill="black"/>
<path d="M177.191 111.04C151.55 98.1803 128.459 90.3644 127.074 95.2705C126.289 98.0741 134.793 107.132 137.366 108.683C162.321 123.731 183.471 119.706 187.45 117.561C187.963 117.285 188.29 110.732 187.167 109.161C183.667 107.504 180.626 112.644 177.18 111.03L177.191 111.04Z" fill="#F1F1E6" stroke="black" stroke-miterlimit="10"/>
<path opacity="0.2" d="M127.077 95.2676C129.116 104.337 143.626 116.804 167.895 119.055C167.895 119.055 146.341 112.418 139.331 107.374C132.354 102.351 128.08 98.1136 127.077 95.2676Z" fill="black"/>
<path d="M176.849 100.922C152.199 83.8672 129.73 70.5824 127.397 75.0637C126.078 77.6124 131.507 87.669 133.546 90.207C153.802 115.29 182.987 112.179 187.566 110.862C188.165 110.692 187.751 109.195 186.868 107.506C183.51 105.297 180.163 103.11 176.838 100.922H176.849Z" fill="#F1F1E6" stroke="black" stroke-miterlimit="10"/>
<path opacity="0.2" d="M127.396 75.0497C127.559 84.0656 139.77 107.439 174.035 111.527C174.035 111.527 158.565 106.865 147.39 99.8035C143.618 97.4248 137.48 91.5629 136.259 89.9381C131.364 83.4178 128.639 79.7647 127.396 75.0391V75.0497Z" fill="black"/>
<path d="M172.973 90.3901C160.228 84.3795 151.114 77.6574 145.216 72.6982C134.205 63.4593 125.036 52.5638 123.619 54.1036C123.292 54.4646 123.379 55.4947 124.502 58.1283C128.939 68.5247 137.094 74.5566 141.771 78.1035C161.722 93.2361 163.597 95.0839 167.239 98.7901C175.71 107.424 181.989 105.045 183.624 108.294C187.822 116.673 186.208 109.133 187.189 109.155C188.727 109.197 188.378 117.024 183.603 104.387C182.044 100.277 180.234 97.0166 178.806 94.7547C176.854 93.2892 174.925 91.8344 172.984 90.3901H172.973Z" fill="#F1F1E6" stroke="black" stroke-miterlimit="10"/>
<path opacity="0.2" d="M123.522 53.9355C123.195 54.2966 123.293 54.2966 124.492 57.9815C128.918 71.5319 153.841 86.7602 158.387 90.2115C158.387 90.2115 140.3 74.7815 134.62 68.6965C128.875 62.5585 123.522 53.9355 123.522 53.9355Z" fill="black"/>
<path d="M159.345 68.546C159.498 68.4398 163.216 75.969 170.367 84.3265C177.923 93.1406 180.648 92.7902 184.638 99.0131C189.751 106.978 188.29 112.192 191.256 123.013C193.175 129.99 194.188 136.914 203.379 146.747C212.362 156.347 214.183 155.413 218.784 165.289C220.201 168.337 220.822 173.115 219.034 174.432C218.391 174.91 216.222 175.823 207.293 168.496C198.135 160.977 192.575 156.475 186.917 138.602C183.537 127.93 186.742 126.655 182.36 113.381C180.408 107.456 177.933 102.656 173.093 93.3318C165.712 79.1124 159.149 68.6735 159.334 68.546H159.345Z" fill="#F1F1E6" stroke="black" stroke-miterlimit="10"/>
<path opacity="0.2" d="M219.895 173.103C218.892 175.089 216.231 175.832 207.303 168.505C198.145 160.986 192.585 156.483 186.926 138.611C183.547 127.938 186.752 126.664 182.369 113.39C180.418 107.464 177.943 102.664 173.103 93.3404C165.722 79.121 159.159 68.6821 159.344 68.5547C159.344 68.5547 171.587 85.9918 174.901 92.2678C178.183 98.5014 184.801 109.312 186.719 123.075C187.275 127.036 187.842 136.466 190.579 142.593C191.843 145.429 193.021 148.699 194.831 151.779C196.368 154.37 198.494 156.802 200.14 158.99C205.831 166.551 212.241 170.65 216.101 172.423C218.074 173.326 219.895 173.113 219.895 173.113V173.103Z" fill="black"/>
<path d="M161.376 92.4662C192.126 90.3162 217.916 83.5062 227.016 75.9062C228.666 78.3463 229.896 81.1163 230.636 84.2663C232.126 95.7262 235.086 108.106 229.826 119.236C229.016 120.946 228.526 122.796 228.546 124.696C229.166 177.386 232.086 270.506 284.666 308.736C312.696 330.756 326.946 349.056 334.326 355.286C342.036 361.786 371.466 384.026 383.316 390.006C477.106 437.376 403.826 509.826 333.736 507.676C214.946 504.596 238.876 425.526 176.956 406.446C176.646 406.346 176.326 406.276 176.006 406.236C136.746 400.796 99.6064 399.556 96.9764 349.806C96.9265 337.186 98.6264 324.666 103.586 313.256C119.796 275.996 110.156 179.226 104.846 140.726C104.476 138.546 104.116 136.196 102.356 134.886C90.7564 123.746 91.3365 105.316 92.1465 90.2362C92.4865 88.3363 92.9764 86.5763 93.5664 84.9263C103.276 91.3763 130.106 94.6562 161.346 92.4662H161.376Z" fill="#FAF9F6"/>
<path fill-rule="evenodd" clip-rule="evenodd" d="M227.12 75.1719L226.696 75.5266C222.237 79.2505 213.608 82.8314 202.191 85.7497C190.8 88.6612 176.702 90.8966 161.359 91.9704H161.329L161.311 91.9716C145.716 93.0648 131.23 92.792 119.439 91.4436C107.622 90.0922 98.5916 87.6683 93.8429 84.5139L93.3106 84.1603L93.0954 84.762C92.4969 86.4358 91.9994 88.2226 91.6541 90.1523L91.6486 90.1827L91.647 90.2135C91.2421 97.7504 90.8907 106.176 92.1032 114.118C93.3164 122.065 96.1022 129.578 102.01 135.251L102.033 135.273L102.058 135.291C102.83 135.866 103.314 136.681 103.65 137.648C103.975 138.582 104.15 139.617 104.329 140.671L104.351 140.799C104.351 140.801 104.352 140.804 104.352 140.807C107.005 160.046 110.74 193.841 111.786 227.476C112.31 244.296 112.161 261.067 110.87 275.954C109.579 290.851 107.148 303.821 103.128 313.061C98.1313 324.555 96.4261 337.149 96.4762 349.812L96.4763 349.825L96.4769 349.837C97.1377 362.335 99.9682 371.828 104.488 379.114C109.011 386.404 115.204 391.451 122.533 395.089C129.854 398.724 138.312 400.954 147.375 402.616C153.942 403.821 160.851 404.73 167.888 405.657C170.557 406.008 173.244 406.362 175.938 406.736L175.944 406.736C176.234 406.773 176.523 406.836 176.803 406.926L176.809 406.928C192.172 411.662 202.209 420.112 210.484 430.201C214.626 435.251 218.326 440.71 222.034 446.328C222.598 447.182 223.163 448.04 223.729 448.901C226.881 453.695 230.089 458.574 233.617 463.362C241.948 474.667 252.081 485.498 267.599 493.689C283.112 501.878 303.969 507.408 333.721 508.18C368.909 509.259 404.932 491.624 420.401 467.687C428.149 455.698 430.753 442.1 425.459 428.501C420.174 414.923 407.049 401.437 383.542 389.564C377.658 386.595 367.37 379.565 357.563 372.441C347.764 365.324 338.49 358.147 334.649 354.908C332.827 353.371 330.571 351.078 327.756 348.139C327.065 347.418 326.342 346.658 325.583 345.863C323.259 343.424 320.61 340.644 317.596 337.586C309.597 329.469 299.011 319.374 284.975 308.347L284.968 308.341L284.96 308.336C258.821 289.33 244.982 256.643 237.61 222.039C230.242 187.447 229.356 151.039 229.046 124.694C229.027 122.885 229.494 121.11 230.278 119.454C232.956 113.789 233.533 107.82 233.262 101.856C233.069 97.5973 232.439 93.3045 231.826 89.1197C231.583 87.4619 231.342 85.821 231.132 84.2059L231.129 84.1807L231.123 84.156C230.369 80.9479 229.115 78.1216 227.43 75.6303L227.12 75.1719ZM226.903 76.6463C228.363 78.9165 229.463 81.4733 230.144 84.3603C230.357 86.002 230.6 87.6552 230.843 89.316C231.454 93.4817 232.072 97.696 232.263 101.902C232.53 107.775 231.957 113.562 229.374 119.026C228.539 120.791 228.025 122.716 228.046 124.706C228.356 151.051 229.241 187.549 236.632 222.247C244.02 256.93 257.929 289.914 284.365 309.139C298.355 320.13 308.907 330.193 316.884 338.288C319.891 341.339 322.531 344.109 324.854 346.547C325.614 347.344 326.34 348.106 327.034 348.831C329.843 351.764 332.135 354.095 334.004 355.672C337.872 358.934 347.169 366.127 356.975 373.25C366.772 380.366 377.124 387.446 383.091 390.457C406.479 402.269 419.365 415.603 424.527 428.864C429.682 442.106 427.171 455.368 419.561 467.144C404.315 490.737 368.654 508.251 333.752 507.181L333.749 507.181C304.107 506.412 283.41 500.904 268.066 492.805C252.725 484.707 242.699 474.001 234.422 462.769C230.912 458.004 227.72 453.151 224.567 448.357C224.001 447.495 223.435 446.635 222.869 445.777C219.159 440.158 215.435 434.66 211.257 429.567C202.892 419.368 192.701 410.779 177.106 405.973C176.768 405.865 176.42 405.788 176.073 405.745C176.071 405.745 176.07 405.744 176.068 405.744L176.006 406.24L176.075 405.745C176.074 405.745 176.074 405.745 176.073 405.745C173.364 405.369 170.668 405.014 167.995 404.662C160.967 403.737 154.096 402.832 147.555 401.632C138.53 399.977 130.177 397.768 122.977 394.194C115.785 390.623 109.746 385.692 105.338 378.587C100.93 371.481 98.1317 362.166 97.4762 349.796C97.4762 349.8 97.4762 349.804 97.4762 349.808L96.9762 349.81L97.4755 349.784C97.4757 349.788 97.476 349.792 97.4762 349.796C97.4275 337.224 99.1227 324.782 104.045 313.46C108.13 304.07 110.572 290.971 111.867 276.041C113.162 261.101 113.31 244.287 112.786 227.445C111.738 193.76 107.998 159.924 105.342 140.662L105.34 140.654L105.339 140.647L105.311 140.477C105.136 139.447 104.948 138.335 104.595 137.32C104.222 136.249 103.652 135.242 102.681 134.509C102.688 134.516 102.695 134.523 102.703 134.53L102.356 134.89L102.655 134.489C102.663 134.496 102.672 134.502 102.681 134.509C97.0033 129.044 94.2845 121.78 93.0918 113.967C91.8984 106.151 92.2394 97.8332 92.6438 90.2983C92.642 90.3083 92.6402 90.3184 92.6384 90.3284L92.1462 90.2403L92.6455 90.2672C92.645 90.2775 92.6444 90.2879 92.6438 90.2983C92.9377 88.6651 93.3442 87.1366 93.8308 85.6926C93.6451 85.5784 93.4647 85.4631 93.2896 85.3468L93.5662 84.9304L94.037 85.0987C93.9668 85.2951 93.898 85.493 93.8308 85.6926C98.9062 88.8134 107.908 91.1313 119.326 92.4371C131.183 93.7932 145.725 94.0657 161.364 92.9704H161.346V92.4704L161.381 92.9691C161.38 92.9692 161.378 92.9694 161.376 92.9695C161.372 92.9698 161.368 92.9701 161.364 92.9704H161.394L161.411 92.9691C176.811 91.8924 190.976 89.6484 202.439 86.7185C213.532 83.8831 222.158 80.3895 226.903 76.6463Z" fill="black"/>
<path d="M161.388 93.1381C192.138 90.9881 217.928 84.1781 227.028 76.5781C228.678 79.0181 229.908 81.7881 230.648 84.9381C232.138 96.3981 235.098 108.778 229.838 119.908C229.028 121.618 228.538 123.468 228.558 125.368C229.178 178.058 232.098 271.178 284.678 309.408C312.708 331.428 326.958 349.728 334.338 355.958C342.048 362.458 371.478 384.698 383.328 390.678C477.118 438.048 403.838 510.498 333.748 508.348C214.958 505.268 238.888 426.198 176.968 407.118C176.658 407.018 176.338 406.948 176.018 406.908C136.758 401.468 99.6182 400.228 96.9882 350.478C96.9382 337.858 98.6382 325.338 103.598 313.928C119.808 276.668 110.168 179.898 104.858 141.398C104.488 139.218 104.128 136.868 102.368 135.558C90.7681 124.418 91.3481 105.988 92.1581 90.9081C92.4981 89.0081 92.9882 87.2481 93.5782 85.5981C103.288 92.0481 130.118 95.3281 161.358 93.1381H161.388Z" fill="#FAF9F6"/>
<path fill-rule="evenodd" clip-rule="evenodd" d="M227.132 75.8438L226.707 76.1985C222.249 79.9223 213.62 83.5032 202.203 86.4215C190.812 89.3331 176.714 91.5685 161.37 92.6422H161.34L161.323 92.6434C145.728 93.7367 131.242 93.4639 119.451 92.1155C107.634 90.764 98.6033 88.3401 93.8546 85.1857L93.3223 84.8322L93.1071 85.4339C92.5086 87.1077 92.011 88.8945 91.6657 90.8242L91.6603 90.8546L91.6587 90.8854C91.2538 98.4222 90.9024 106.848 92.1149 114.79C93.3281 122.737 96.1139 130.249 102.022 135.923L102.044 135.945L102.069 135.963C102.842 136.538 103.325 137.353 103.662 138.32C103.987 139.254 104.162 140.289 104.341 141.342L104.363 141.471C104.363 141.473 104.363 141.476 104.364 141.479C107.017 160.718 110.752 194.513 111.798 228.148C112.322 244.968 112.173 261.739 110.882 276.626C109.591 291.523 107.159 304.493 103.139 313.733C98.1431 325.226 96.4378 337.821 96.4879 350.484L96.488 350.496L96.4886 350.509C97.1494 363.007 99.9799 372.5 104.5 379.786C109.023 387.076 115.216 392.123 122.544 395.761C129.866 399.396 138.323 401.626 147.386 403.288C153.954 404.492 160.863 405.402 167.9 406.329C170.569 406.68 173.256 407.034 175.949 407.408L175.956 407.408C176.246 407.445 176.535 407.508 176.814 407.598L176.821 407.6C192.184 412.334 202.221 420.784 210.496 430.873C214.638 435.923 218.337 441.382 222.046 447C222.61 447.854 223.174 448.713 223.741 449.573C226.893 454.367 230.101 459.246 233.629 464.034C241.959 475.339 252.093 486.17 267.611 494.361C283.124 502.55 303.981 508.08 333.733 508.852C368.92 509.931 404.944 492.296 420.413 468.359C428.161 456.369 430.764 442.772 425.471 429.173C420.185 415.595 407.06 402.108 383.553 390.236C377.67 387.267 367.382 380.236 357.574 373.113C347.776 365.996 338.502 358.819 334.66 355.58C332.839 354.043 330.583 351.75 327.768 348.811C327.077 348.09 326.353 347.33 325.595 346.534C323.27 344.095 320.622 341.316 317.608 338.258C309.609 330.141 299.023 320.046 284.987 309.019L284.979 309.013L284.972 309.008C258.832 290.002 244.993 257.315 237.622 222.711C230.253 188.119 229.368 151.711 229.058 125.366C229.039 123.556 229.506 121.782 230.29 120.126C232.967 114.461 233.544 108.492 233.274 102.528C233.08 98.2692 232.451 93.9764 231.837 89.7915C231.594 88.1337 231.354 86.4929 231.144 84.8778L231.14 84.8526L231.135 84.8279C230.381 81.6198 229.127 78.7935 227.442 76.3021L227.132 75.8438ZM226.914 77.3181C228.375 79.5884 229.474 82.1452 230.155 85.0321C230.369 86.6739 230.612 88.327 230.855 89.9879C231.466 94.1536 232.084 98.3679 232.275 102.574C232.541 108.447 231.968 114.234 229.386 119.698C228.55 121.463 228.037 123.388 228.058 125.377C228.368 151.723 229.253 188.221 236.644 222.919C244.032 257.602 257.941 290.586 284.376 309.811C298.367 320.802 308.918 330.865 316.896 338.959C319.903 342.011 322.543 344.781 324.866 347.219C325.626 348.016 326.352 348.778 327.046 349.503C329.854 352.435 332.147 354.767 334.015 356.344C337.884 359.606 347.18 366.799 356.987 373.922C366.784 381.038 377.136 388.117 383.103 391.129C406.491 402.941 419.377 416.275 424.539 429.536C429.694 442.778 427.183 456.04 419.573 467.816C404.327 491.408 368.666 508.923 333.763 507.852L333.761 507.852C304.119 507.084 283.422 501.576 268.077 493.477C252.737 485.379 242.71 474.673 234.434 463.441C230.923 458.676 227.732 453.822 224.579 449.028C224.012 448.166 223.447 447.306 222.881 446.449C219.171 440.829 215.447 435.332 211.269 430.239C202.904 420.04 192.713 411.451 177.118 406.645C176.78 406.536 176.432 406.46 176.085 406.417C176.083 406.417 176.081 406.416 176.08 406.416L176.018 406.912L176.087 406.417C176.086 406.417 176.085 406.417 176.085 406.417C173.376 406.041 170.68 405.686 168.007 405.334C160.979 404.409 154.108 403.504 147.567 402.304C138.542 400.649 130.189 398.44 122.989 394.866C115.796 391.295 109.758 386.364 105.35 379.259C100.941 372.153 98.1434 362.838 97.4879 350.468C97.4879 350.472 97.4879 350.476 97.4879 350.48L96.9879 350.482L97.4872 350.456C97.4875 350.46 97.4877 350.464 97.4879 350.468C97.4392 337.895 99.1345 325.454 104.056 314.132C108.142 304.742 110.584 291.643 111.878 276.713C113.173 261.773 113.322 244.959 112.798 228.117C111.749 194.431 108.01 160.595 105.353 141.334L105.352 141.326L105.351 141.319L105.322 141.149C105.148 140.119 104.96 139.007 104.606 137.992C104.234 136.921 103.664 135.914 102.692 135.181C102.7 135.188 102.707 135.195 102.714 135.202L102.368 135.562L102.666 135.161C102.675 135.168 102.684 135.174 102.692 135.181C97.015 129.716 94.2962 122.452 93.1035 114.639C91.9101 106.822 92.2511 98.5051 92.6555 90.9701C92.6537 90.9802 92.6519 90.9902 92.6501 91.0003L92.1579 90.9122L92.6572 90.939C92.6566 90.9494 92.6561 90.9598 92.6555 90.9701C92.9494 89.337 93.3559 87.8085 93.8425 86.3644C93.6568 86.2503 93.4764 86.135 93.3013 86.0187L93.5779 85.6022L94.0487 85.7706C93.9785 85.967 93.9097 86.1649 93.8425 86.3644C98.918 89.4853 107.919 91.8032 119.337 93.109C131.195 94.465 145.737 94.7376 161.375 93.6422H161.358V93.1422L161.393 93.641C161.391 93.6411 161.39 93.6412 161.388 93.6413C161.384 93.6416 161.38 93.6419 161.375 93.6422H161.405L161.423 93.641C176.823 92.5643 190.988 90.3203 202.451 87.3904C213.544 84.5549 222.17 81.0614 226.914 77.3181Z" fill="black"/>
<path d="M395.028 397C325.908 411.24 287.258 445.97 280.978 499.24C294.058 503.5 310.478 507.12 330.698 507.65C398.178 510.41 471.818 444.65 395.028 397.01V397Z" fill="#DCDCE0"/>
<path fill-rule="evenodd" clip-rule="evenodd" d="M395.528 396.391L394.927 396.514C360.311 403.646 333.277 415.918 314.104 433.116C294.922 450.322 283.635 472.435 280.481 499.186L280.433 499.593L280.823 499.72C293.942 503.992 310.409 507.622 330.681 508.154C364.56 509.538 400.001 493.734 417.358 471.542C426.047 460.434 430.231 447.684 427.35 434.68C424.482 421.735 414.638 408.649 395.528 396.736V396.391ZM394.922 397.537C413.947 409.378 423.58 422.286 426.373 434.896C429.173 447.534 425.128 459.985 416.57 470.926C399.436 492.833 364.319 508.529 330.718 507.155L330.711 507.154C310.746 506.631 294.5 503.087 281.523 498.895C284.716 472.559 295.876 450.809 314.772 433.86C333.736 416.85 360.518 404.651 394.922 397.537Z" fill="black"/>
<path d="M103.668 313.197C99.6683 324.977 96.9983 337.127 97.0583 349.747C99.5983 397.797 134.328 400.597 172.068 405.627C191.848 337.377 166.858 308.487 103.678 313.187L103.668 313.197Z" fill="#DCDCE0"/>
<path fill-rule="evenodd" clip-rule="evenodd" d="M171.708 405.074C170.51 404.915 169.316 404.758 168.127 404.601C150.692 402.307 134.252 400.144 121.599 393.378C114.809 389.747 109.123 384.795 104.973 377.787C100.823 370.777 98.1913 361.68 97.5583 349.732C97.5009 337.297 100.109 325.308 104.039 313.661C135.408 311.38 157.114 317.447 168.587 332.355C180.06 347.263 181.456 371.205 171.708 405.074ZM169.38 331.745C157.548 316.372 135.278 310.334 103.641 312.688L103.456 312.702L103.232 312.925L103.195 313.036C99.1834 324.85 96.498 337.057 96.5584 349.749L96.5584 349.761L96.5591 349.773C97.1972 361.844 99.8592 371.112 104.113 378.296C108.369 385.484 114.201 390.556 121.128 394.26C133.949 401.116 150.57 403.301 167.944 405.586C169.292 405.763 170.646 405.941 172.002 406.122L172.429 406.179L172.549 405.766C182.449 371.604 181.205 347.11 169.38 331.745Z" fill="black"/>
<path d="M161.378 92.4741C192.128 90.3241 217.918 83.5141 227.018 75.9141C228.668 78.3541 229.898 81.1241 230.638 84.2741C232.128 95.7341 235.088 108.114 229.828 119.244C189.888 135.284 147.298 138.554 102.368 134.894C90.7679 123.754 91.348 105.324 92.158 90.2441C92.498 88.3441 92.988 86.5841 93.578 84.9341C103.288 91.3841 130.118 94.6641 161.358 92.4741H161.378Z" fill="#DCDCE0"/>
<path fill-rule="evenodd" clip-rule="evenodd" d="M227.122 75.1719L226.697 75.5266C222.239 79.2505 213.61 82.8314 202.193 85.7497C190.802 88.6612 176.704 90.8966 161.36 91.9704H161.34L161.323 91.9716C145.728 93.0648 131.242 92.792 119.451 91.4436C107.634 90.0922 98.6033 87.6683 93.8546 84.5139L93.3223 84.1603L93.1072 84.762C92.5087 86.4358 92.0111 88.2226 91.6658 90.1523L91.6603 90.1827L91.6587 90.2135C91.2538 97.7504 90.9024 106.176 92.1149 114.118C93.3282 122.065 96.1139 129.578 102.022 135.251L102.15 135.374L102.327 135.389C147.305 139.053 189.979 135.782 230.014 119.704L230.196 119.631L230.28 119.454C232.958 113.788 233.535 107.82 233.264 101.856C233.07 97.5974 232.441 93.3046 231.827 89.1198C231.584 87.462 231.344 85.821 231.134 84.2059L231.131 84.1807L231.125 84.156C230.371 80.9479 229.117 78.1216 227.432 75.6303L227.122 75.1719ZM226.904 76.6463C228.365 78.9164 229.464 81.4732 230.145 84.3601C230.359 86.0019 230.602 87.6551 230.845 89.316C231.456 93.4817 232.074 97.696 232.265 101.902C232.529 107.712 231.971 113.437 229.459 118.85C189.719 134.767 147.334 138.034 102.587 134.406C96.9812 128.954 94.2888 121.732 93.1035 113.967C91.9101 106.15 92.2511 97.8331 92.6556 90.2982C92.9494 88.665 93.3559 87.1366 93.8425 85.6926C98.918 88.8134 107.919 91.1313 119.337 92.4371C131.195 93.7932 145.737 94.0657 161.375 92.9704H161.395L161.413 92.9691C176.813 91.8924 190.978 89.6484 202.441 86.7185C213.534 83.8831 222.16 80.3895 226.904 76.6463Z" fill="black"/>
<path d="M93.7589 84.4437C93.7589 89.6437 126.329 96.1737 161.729 93.3537C197.139 90.5437 227.199 79.6937 226.729 75.5837C226.499 73.5637 207.589 68.1037 162.289 69.8337C116.989 71.5637 93.7489 81.7937 93.7489 84.4337L93.7589 84.4437Z" fill="#DCDCE0"/>
<path fill-rule="evenodd" clip-rule="evenodd" d="M226.234 75.6583C226.239 75.757 226.206 75.9169 226.049 76.1533C225.883 76.4025 225.608 76.6951 225.206 77.0258C224.402 77.6863 223.167 78.4386 221.528 79.2511C218.257 80.8731 213.466 82.6931 207.54 84.4775C195.69 88.045 179.358 91.4532 161.689 92.8553L161.689 92.8553C144.028 94.2622 127.074 93.3362 114.545 91.412C108.277 90.4495 103.135 89.24 99.5705 87.9558C97.7852 87.3126 96.4216 86.6597 95.5139 86.0254C94.576 85.3699 94.2589 84.8299 94.2589 84.4437V84.4019C94.274 84.3626 94.312 84.287 94.4071 84.1714C94.5525 83.9946 94.7889 83.7762 95.1334 83.5213C95.8202 83.013 96.8722 82.4062 98.3007 81.7345C101.153 80.3932 105.444 78.822 111.162 77.2751C122.594 74.1824 139.691 71.1971 162.308 70.3334C184.937 69.4692 200.96 70.4015 211.343 71.798C216.537 72.4965 220.309 73.3097 222.787 74.0679C224.029 74.4478 224.928 74.8087 225.514 75.1256C225.808 75.2847 226.005 75.4229 226.125 75.5338C226.2 75.6037 226.226 75.6453 226.234 75.6583ZM211.477 70.8069C201.023 69.401 184.941 68.4683 162.27 69.3341C139.587 70.2004 122.414 73.1951 110.901 76.3098C105.146 77.8667 100.796 79.4561 97.8752 80.8295C96.4171 81.5152 95.2996 82.1542 94.5385 82.7175C94.159 82.9983 93.8519 83.2721 93.6348 83.5361C93.4276 83.788 93.2489 84.0952 93.2489 84.4337V84.641L93.2726 84.6647C93.3748 85.4873 94.0395 86.215 94.9411 86.8451C95.9529 87.5522 97.4104 88.2405 99.2316 88.8966C102.88 90.2112 108.093 91.4329 114.393 92.4004C126.998 94.3363 144.03 95.2653 161.769 93.8522C179.51 92.4443 195.912 89.0225 207.828 85.435C213.784 83.6419 218.633 81.8031 221.973 80.147C223.639 79.3204 224.952 78.5288 225.841 77.7983C226.285 77.4335 226.641 77.0688 226.882 76.7062C227.121 76.3456 227.273 75.9441 227.226 75.5272M211.477 70.8069C216.702 71.5097 220.532 72.3321 223.08 73.1117L211.477 70.8069ZM223.08 73.1117C224.351 73.5007 225.321 73.8843 225.99 74.2459L223.08 73.1117ZM225.99 74.2459C226.323 74.426 226.6 74.6106 226.805 74.8008L225.99 74.2459ZM226.805 74.8008C226.999 74.9806 227.191 75.2235 227.226 75.5269L226.805 74.8008Z" fill="black"/>
<path opacity="0.2" d="M384.258 496.865C368.998 504.095 351.278 508.225 333.748 507.685C214.958 504.605 238.888 425.535 176.968 406.455C176.658 406.355 176.338 406.285 176.018 406.245C136.758 400.805 99.6176 399.565 96.9876 349.815C96.9376 337.195 98.8876 324.775 103.598 313.265C119.178 275.225 110.168 179.235 104.858 140.735C104.488 138.555 104.128 136.205 102.368 134.895C92.6976 125.605 91.4976 111.245 91.8276 97.9953C91.8976 95.3553 93.4476 87.4553 93.5876 84.9453C93.5876 84.9453 101.658 86.4953 110.138 101.225C118.618 115.955 117.318 129.445 120.938 134.935C124.558 140.425 117.258 224.915 124.398 269.305C131.538 313.695 101.438 329.415 122.048 363.235C142.658 397.055 159.628 375.925 188.608 391.665C217.588 407.405 255.568 454.375 284.808 473.465C331.528 498.105 365.618 486.075 374.698 482.745C381.588 480.215 426.498 455.895 424.078 461.155C413.638 483.845 384.248 496.875 384.248 496.875L384.258 496.865Z" fill="black"/>
<path opacity="0.2" d="M93.7475 83.7625C93.0575 87.2825 114.158 94.4225 151.438 93.9225C142.328 91.7525 118.198 87.1625 115.568 84.8225C110.318 80.1425 116.207 75.5525 111.997 76.5525C101.217 79.1125 93.8675 83.1825 93.7575 83.7725L93.7475 83.7625Z" fill="black"/>
<path d="M146.685 178.678C144.657 178.986 148.778 194.288 143.458 206.171C141.125 211.375 138.083 222.451 139.206 224.617C141.463 228.982 145.246 221.347 148.32 218.076C153.117 212.968 154.872 204.918 154.927 203.771C155.505 191.559 148.549 178.402 146.685 178.688V178.678Z" fill="#F1F1E6" stroke="black" stroke-miterlimit="10"/>
<path opacity="0.2" d="M138.977 223.423C140.132 231.547 147.273 218.421 150.348 215.15C150.348 215.15 144.057 222.234 141.92 223.518C139.773 224.803 138.977 223.423 138.977 223.423Z" fill="black"/>
<path d="M126.594 183.631C100.113 196.331 72.4213 211.241 74.8852 218.261C76.2915 222.296 86.8775 221.499 90.1154 222.423C107.995 227.489 145.149 189.078 140.363 180.424C139.895 179.585 138.99 178.671 137.082 178.119C133.56 179.967 130.072 181.804 126.594 183.631Z" fill="#F1F1E6" stroke="black" stroke-miterlimit="10"/>
<path d="M137.584 174.022C125.472 191.608 108.77 204.691 103.199 207.102C94.5423 210.84 80.9255 215.576 73.85 211.148C67.5486 207.208 57.7584 204.84 57.3442 201.006C56.7773 195.803 73.5011 195.654 91.5551 190.536C105.063 186.702 115.136 179.268 139.045 168.182L142.25 172.971L137.595 174.022H137.584Z" fill="#F1F1E6" stroke="black" stroke-miterlimit="10"/>
<path opacity="0.2" d="M116.438 197.598C104.129 208.844 83.295 219.155 66.2223 207.325C66.2223 207.325 71.5534 209.534 84.8104 209.693C97.8494 209.852 116.438 197.598 116.438 197.598Z" fill="black"/>
<path opacity="0.2" d="M121.766 208.314C113.742 214.155 104.638 222.077 95.0445 222.81C84.5566 221.387 81.6894 223.139 75.2353 218.955C78.506 220.729 80.1195 220.41 93.3329 220.336C106.197 220.261 121.755 208.314 121.755 208.314H121.766Z" fill="black"/>
<path d="M141.128 184.44C123.728 211.446 104.53 219.081 105.838 227.545C106.536 232.1 117.972 227.237 120.654 225.357C143.287 209.534 147.114 201.463 152.565 181.255C152.783 180.447 151.769 179.747 149.839 179.619C146.721 182.306 143.483 180.787 141.128 184.44Z" fill="#F1F1E6" stroke="black" stroke-miterlimit="10"/>
<path opacity="0.2" d="M105.349 227.307C107.257 233.721 125.9 225.396 137.074 211.145C137.074 211.145 125.224 220.67 117.221 224.132C109.405 227.52 105.349 227.307 105.349 227.307Z" fill="black"/>
<path d="M139.63 182.153C137.351 182.365 141.647 196.16 135.509 206.407C132.849 210.846 129.349 220.276 130.537 222.167C132.936 225.99 137.198 219.618 140.633 216.931C146.04 212.705 148.188 205.738 148.275 204.74C149.234 193.972 141.734 181.961 139.63 182.153Z" fill="#F1F1E6" stroke="black" stroke-miterlimit="10"/>
<path opacity="0.2" d="M130.377 221.013C131.74 226.79 137.191 219.622 140.636 216.935C146.043 212.709 144.615 213.282 145.945 210.574C145.945 210.574 142.391 213.303 138.979 216.203C136.995 217.891 134.542 220.333 133.615 220.663C131.086 221.555 130.377 221.013 130.377 221.013Z" fill="black"/>
<path d="M135.027 171.851C116.734 186.665 94.2643 194.63 87.2433 195.862C76.4502 197.752 64.6868 200.258 52.3456 190.743C45.5209 185.487 35.0875 179.062 35.3819 174.91C35.7743 169.271 55.1474 174.389 77.2133 174.708C93.8391 174.952 107.303 170.269 138.102 166.074L140.816 172.223L135.038 171.851H135.027Z" fill="#F1F1E6" stroke="black" stroke-miterlimit="10"/>
<path opacity="0.2" d="M109.366 187.807C77.9241 201.007 64.6889 199.849 52.3368 190.323C45.512 185.067 41.2275 183.718 37.7497 179.279C37.7497 179.279 49.3496 188.083 64.5471 192.946C76.5286 196.78 108.984 187.616 112.909 186.575C118.807 185.003 109.366 187.807 109.366 187.807Z" fill="black"/>
<path d="M131.846 160.245C110.837 173.095 86.2202 178.978 78.7414 179.307C71.9275 179.604 51.595 178.648 42.4045 171.056C35.5471 165.385 25.1792 158.026 25.8224 153.98C26.6946 148.468 46.7436 155.296 70.0633 157.665C87.6811 159.449 102.443 156.093 135.738 154.819L137.973 161.148L131.846 160.245Z" fill="#F1F1E6" stroke="black" stroke-miterlimit="10"/>
<path opacity="0.2" d="M94.2237 176.264C78.2085 181.404 51.5855 178.653 42.4059 171.06C35.5484 165.39 28.6256 159.22 25.9109 155.174C25.9109 155.174 38.0995 167.057 54.867 173.227C64.6353 176.827 86.5704 175.276 94.9324 174.204C100.732 173.46 94.2128 176.264 94.2128 176.264H94.2237Z" fill="black"/>
<path d="M120.052 156.6C99.2293 149.007 91.8922 151.449 74.9721 142.327C68.5507 138.865 68.0056 137.644 58.1828 130.975C51.5216 126.451 10.2243 98.4052 5.71082 106.391C3.01799 111.148 12.0995 126.398 20.0253 135.807C37.8067 156.897 61.4098 162.1 80.2923 166.253C98.379 170.235 98.3354 166.964 133.364 173.134C144.746 175.141 138.695 172.635 139.12 170.798C139.753 168.09 137.016 162.78 120.052 156.6Z" fill="#F1F1E6" stroke="black" stroke-miterlimit="10"/>
<path opacity="0.2" d="M7.24643 115.02C10.0483 122.177 12.1197 126.51 20.0564 135.919C37.8378 157.009 63.4142 164.187 102.597 169.741C102.597 169.741 105.191 169.264 94.7579 166.768C77.031 162.541 45.9817 154.439 34.807 144.934C16.3606 129.26 7.25733 115.02 7.25733 115.02H7.24643Z" fill="black"/>
<path d="M114.736 140.997C94.5457 130.017 86.936 131.248 70.8008 119.365C64.6738 114.852 64.2595 113.546 55.0363 105.273C48.7785 99.6663 10.0541 64.9302 4.67937 72.1302C1.47414 76.4204 9.05112 93.1248 16.083 103.829C31.8693 127.85 55.1672 136.919 73.788 144.172C91.613 151.117 91.8965 147.825 126.522 159.719C137.762 163.574 131.929 160.091 132.529 158.317C133.423 155.716 131.177 149.949 114.736 141.008V140.997Z" fill="#F1F1E6" stroke="black" stroke-miterlimit="10"/>
<path opacity="0.2" d="M5.33668 80.9727C7.41898 88.5655 9.0652 93.2381 16.0971 103.942C31.8834 127.953 56.9801 139.337 95.9007 151.294C95.9007 151.294 98.5608 151.231 88.3019 147.036C70.8694 139.91 40.3652 126.71 30.0518 115.369C13.0445 96.6682 5.32578 80.9727 5.32578 80.9727H5.33668Z" fill="black"/>
<path d="M103.482 126.947C84.698 111.4 76.8485 110.858 62.2832 95.3538C56.7558 89.4707 56.5269 88.0795 48.4157 77.7787C42.921 70.7911 8.98267 27.6019 2.485 33.4108C-1.39616 36.8727 3.76054 55.0744 9.27702 67.2761C21.6946 94.7167 43.9349 109.117 61.7163 120.639C78.7345 131.662 79.4868 128.455 112.727 148.26C123.52 154.685 131.675 159.92 132.537 158.327C134.837 154.037 118.789 139.637 103.482 126.968V126.947Z" fill="#F1F1E6" stroke="black" stroke-miterlimit="10"/>
<path opacity="0.2" d="M1.8322 42.2617C2.80249 50.2263 3.77277 55.2068 9.28925 67.3979C21.7068 94.8278 45.4298 111.946 83.0422 132.835C83.0422 132.835 85.735 133.387 75.9776 126.845C59.3846 115.737 30.4721 95.5712 21.7068 81.9465C7.28326 59.5183 1.8322 42.2617 1.8322 42.2617Z" fill="black"/>
<path d="M116.498 127.771C86.0704 105.885 66.6646 84.1257 54.4542 68.0372C38.0356 46.4161 26.7737 24.7737 22.5764 27.1843C19.502 28.9578 21.9332 42.6144 24.6696 51.4816C29.5864 67.4426 35.3537 78.7204 44.1408 88.4796C49.799 94.7557 72.8352 115.485 96.5038 126.37C101.355 128.6 108.583 131.382 117.24 138.869C126.561 146.918 130.017 153.874 131.903 152.961C134.618 151.644 132.23 135.014 123.552 129.534C120.837 127.814 118.21 127.655 116.487 127.771H116.498Z" fill="#F1F1E6" stroke="black" stroke-miterlimit="10"/>
<path opacity="0.2" d="M23.0788 43.8223C24.4089 50.6824 24.954 53.9107 26.0878 56.6293C32.0622 70.9336 37.4697 81.5637 46.0605 90.6327C51.5988 96.4733 73.2614 116.204 96.5156 126.367C96.5156 126.367 54.2917 98.6822 40.7839 77.8681C26.9382 56.5231 23.0788 43.8223 23.0788 43.8223Z" fill="black"/>
<path d="M147.814 176.964C145.133 175.679 139.845 183.93 137.283 189.484C136.912 190.281 131.756 201.622 134.285 203.693C136.509 205.52 144.893 200.337 148.065 191.927C150.3 186.001 150.104 178.058 147.814 176.964Z" fill="#F1F1E6" stroke="black" stroke-miterlimit="10"/>
<path opacity="0.2" d="M133.696 200.201C133.01 207.964 141.938 201.55 145.133 197.238C145.133 197.238 142.8 199.829 138.417 201.327C134.034 202.824 133.696 200.201 133.696 200.201Z" fill="black"/>
<path d="M153.508 184.554C151.404 183.555 147.228 190.076 145.212 194.462C144.928 195.088 140.862 204.04 142.835 205.676C144.579 207.12 151.175 203.01 153.682 196.362C155.449 191.679 155.296 185.403 153.497 184.554H153.508Z" fill="#F1F1E6" stroke="black" stroke-miterlimit="10"/>
<path opacity="0.2" d="M142.385 202.924C141.84 209.051 148.861 203.975 151.379 200.566C151.379 200.566 149.536 202.616 146.091 203.805C142.646 204.995 142.385 202.924 142.385 202.924Z" fill="black"/>
<path d="M160.19 189.122C158.544 188.092 154.75 192.998 152.831 196.364C152.558 196.842 148.688 203.745 150.182 205.274C151.501 206.633 157.116 203.947 159.579 198.775C161.313 195.132 161.596 189.993 160.19 189.122Z" fill="#F1F1E6" stroke="black" stroke-miterlimit="10"/>
<path opacity="0.2" d="M149.987 202.976C149.147 207.924 155.165 204.494 157.422 201.967C157.422 201.967 155.797 203.454 152.93 204.08C150.063 204.707 149.987 202.976 149.987 202.976Z" fill="black"/>
<path d="M141.784 181.862C139.604 179.908 132.299 184.57 128.353 188.053C127.786 188.553 119.805 195.657 121.615 198.174C123.218 200.383 132.528 199.236 137.848 193.745C141.61 189.869 143.637 183.53 141.784 181.862Z" fill="#F1F1E6" stroke="black" stroke-miterlimit="10"/>
<path opacity="0.2" d="M121.411 195.98C121.019 201.311 132.531 199.24 137.852 193.75C137.852 193.75 131.332 197.446 127.069 197.35C122.785 197.254 121.411 195.98 121.411 195.98Z" fill="black"/>
<path d="M138.913 170.812C124.903 172.278 117.206 175.06 111.341 177.885C108.801 179.117 104.658 184.182 105.388 185.924C106.261 188.005 112.846 189.11 116.727 189.375C121.535 189.704 135.14 190.352 140.613 176.334C141.213 174.795 141.584 173.414 141.812 172.469L138.902 170.791L138.913 170.812Z" fill="#F1F1E6" stroke="black" stroke-miterlimit="10"/>
<path opacity="0.2" d="M105.279 185.146C106.336 187.716 115.723 192.368 131.477 186.973C131.477 186.973 122.471 188.152 116.323 187.249C110.119 186.325 105.279 185.157 105.279 185.157V185.146Z" fill="black"/>
<path d="M135.605 164.506C118.39 166.375 92.4977 173.458 93.5443 178.927C93.9476 181.062 101.906 180.117 106.311 181.317C113.691 183.334 125.891 178.46 133.926 173.235C135.365 172.301 137.785 170.326 138.254 169.423C137.251 168.765 136.717 164.389 135.605 164.506Z" fill="#F1F1E6" stroke="black" stroke-miterlimit="10"/>
<path opacity="0.2" d="M93.8468 177.498C92.9311 181.247 101.838 180.578 106.308 181.31C113.612 182.489 111.072 181.767 117.199 180.737C117.199 180.737 109.611 180.971 105.926 179.93C102.22 178.879 94.8498 179.622 93.8468 177.498Z" fill="black"/>
<path d="M132.031 157.432C114.381 156.03 103.926 157.315 96.0216 158.589C92.5983 159.141 86.6676 161.977 86.9619 163.761C87.3108 165.895 94.8769 167.276 99.2595 169.612C105.812 173.106 120.846 174.837 132.184 163.028C133.438 161.722 134.364 160.511 134.953 159.683C133.972 158.929 133.002 158.175 132.02 157.421L132.031 157.432Z" fill="#F1F1E6" stroke="black" stroke-miterlimit="10"/>
<path opacity="0.2" d="M86.9505 162.971C86.4381 164.33 93.6335 168.089 100.644 170.277C108.079 172.603 121.347 171.636 116.179 171.753C110.979 171.88 104.634 170.468 100.306 168.111C95.9447 165.742 87.8554 164.234 86.9505 162.971Z" fill="black"/>
<path d="M109.679 151.401C102.833 151.316 82.7184 147.068 82.0533 149.84C81.3883 152.612 90.8078 157.125 95.3212 158.654C100.914 160.555 114.302 164.389 129.161 157.815C130.786 157.093 131.113 152.282 131.734 151.475C130.775 150.615 116.471 151.486 109.69 151.401H109.679Z" fill="#F1F1E6" stroke="black" stroke-miterlimit="10"/>
<path opacity="0.2" d="M82.4581 150.6C82.807 153.085 90.5911 156.748 95.0937 158.288C100.687 160.189 103.172 161.941 108.809 161.251C108.809 161.251 103.129 160.911 93.9054 156.493C84.5513 152.012 84.9438 152.267 82.4581 150.6Z" fill="black"/>
<path d="M119.85 143.264C95.9958 138.177 75.2163 135.469 75.4453 140.152C75.5761 142.828 84.5485 147.724 87.0451 148.478C111.117 155.752 128.898 153.055 131.406 150.188C131.733 149.816 130.741 146.152 129.411 145.037C126.206 144.443 123.022 143.859 119.85 143.275V143.264Z" fill="#F1F1E6" stroke="black" stroke-miterlimit="10"/>
<path opacity="0.2" d="M75.4517 139.623C75.528 143.573 85.9941 150.625 107.297 152.409C107.297 152.409 91.5324 149.149 84.8058 145.665C78.0137 142.15 75.4517 139.634 75.4517 139.634V139.623Z" fill="black"/>
<path d="M120.191 137.04C94.5495 124.18 71.4588 116.364 70.0742 121.271C69.2893 124.074 77.7929 133.132 80.3658 134.683C105.321 149.731 126.471 145.706 130.45 143.561C130.963 143.285 131.29 136.732 130.167 135.161C126.667 133.504 123.626 138.644 120.18 137.03L120.191 137.04Z" fill="#F1F1E6" stroke="black" stroke-miterlimit="10"/>
<path opacity="0.2" d="M70.0769 121.268C72.1156 130.337 86.6264 142.804 110.895 145.055C110.895 145.055 89.341 138.418 82.3309 133.374C75.3536 128.351 71.0799 124.114 70.0769 121.268Z" fill="black"/>
<path d="M119.849 126.922C95.1991 109.867 72.7298 96.5824 70.3967 101.064C69.0775 103.612 74.5068 113.669 76.5455 116.207C96.8017 141.29 125.987 138.179 130.566 136.862C131.165 136.692 130.751 135.195 129.868 133.506C126.51 131.297 123.163 129.11 119.838 126.922H119.849Z" fill="#F1F1E6" stroke="black" stroke-miterlimit="10"/>
<path opacity="0.2" d="M70.3958 101.05C70.5594 110.066 82.7697 133.439 117.035 137.527C117.035 137.527 101.565 132.865 90.3903 125.804C86.6182 123.425 80.4803 117.563 79.2593 115.938C74.3642 109.418 71.6387 105.765 70.3958 101.039V101.05Z" fill="black"/>
<path d="M115.973 116.39C103.228 110.38 94.1143 103.657 88.2162 98.6982C77.2051 89.4593 68.0364 78.5638 66.6191 80.1036C66.2921 80.4646 66.3793 81.4947 67.5022 84.1283C71.9394 94.5247 80.0942 100.557 84.7712 104.103C104.722 119.236 106.597 121.084 110.239 124.79C118.71 133.424 124.989 131.045 126.624 134.294C130.822 142.673 129.208 135.133 130.189 135.155C131.727 135.197 131.378 143.024 126.603 130.387C125.044 126.277 123.234 123.017 121.806 120.755C119.854 119.289 117.925 117.834 115.984 116.39H115.973Z" fill="#F1F1E6" stroke="black" stroke-miterlimit="10"/>
<path opacity="0.2" d="M66.5217 79.9355C66.1946 80.2966 66.2927 80.2966 67.492 83.9815C71.9183 97.5319 96.8405 112.76 101.387 116.211C101.387 116.211 83.3001 100.781 77.6201 94.6965C71.8746 88.5585 66.5217 79.9355 66.5217 79.9355Z" fill="black"/>
<path d="M102.345 94.546C102.498 94.4398 106.216 101.969 113.367 110.326C120.923 119.141 123.648 118.79 127.638 125.013C132.751 132.978 131.29 138.192 134.256 149.013C136.175 155.99 137.188 162.914 146.379 172.747C155.362 182.347 157.183 181.413 161.784 191.289C163.201 194.337 163.822 199.115 162.034 200.432C161.391 200.91 159.222 201.823 150.293 194.496C141.135 186.977 135.575 182.475 129.917 164.602C126.537 153.93 129.742 152.655 125.36 139.381C123.408 133.456 120.933 128.656 116.093 119.332C108.712 105.112 102.149 94.6735 102.334 94.546H102.345Z" fill="#F1F1E6" stroke="black" stroke-miterlimit="10"/>
<path opacity="0.2" d="M162.895 199.103C161.892 201.089 159.231 201.832 150.303 194.505C141.145 186.986 135.585 182.483 129.926 164.611C126.547 153.938 129.752 152.664 125.369 139.39C123.418 133.464 120.943 128.664 116.103 119.34C108.722 105.121 102.159 94.6821 102.344 94.5547C102.344 94.5547 114.587 111.992 117.901 118.268C121.183 124.501 127.801 135.312 129.719 149.075C130.275 153.036 130.842 162.466 133.579 168.593C134.843 171.429 136.021 174.699 137.831 177.779C139.368 180.37 141.494 182.802 143.14 184.99C148.831 192.551 155.241 196.65 159.101 198.423C161.074 199.326 162.895 199.113 162.895 199.113V199.103Z" fill="black"/>
</svg>
