<svg width="369" height="633" viewBox="0 0 369 633" fill="none" xmlns="http://www.w3.org/2000/svg">
<path d="M70.3765 23.4702C101.127 21.3202 126.917 14.5102 136.017 6.91016C137.667 9.35016 138.897 12.1202 139.637 15.2702C141.127 26.7302 144.087 39.1102 138.827 50.2402C138.017 51.9502 137.527 53.8002 137.547 55.7002C138.167 108.39 141.087 201.51 193.667 239.74C221.697 261.76 237.035 257.998 265.754 267.004C301.366 278.171 352.257 280.504 358.757 289.004C365.961 298.424 348.752 301.698 340.754 322.504C336.248 334.223 354.768 340.004 345.754 355.004C336.74 370.004 316.775 368.798 309.761 378.004C301.553 388.774 315.754 404.504 301.254 419.004C286.754 433.504 264.799 421.071 252.761 428.004C239.498 435.642 233.224 460.386 220.758 460.004C203.254 459.467 147.877 356.53 85.9565 337.45C85.6465 337.35 85.3265 337.28 85.0065 337.24C45.7465 331.8 8.60653 330.56 5.97653 280.81C5.92653 268.19 7.62652 255.67 12.5865 244.26C28.7965 207 19.1565 110.23 13.8465 71.7302C13.4765 69.5502 13.1165 67.2002 11.3565 65.8902C-0.243464 54.7502 0.336545 36.3202 1.14655 21.2402C1.48655 19.3402 1.97653 17.5802 2.56653 15.9302C12.2765 22.3802 39.1065 25.6602 70.3465 23.4702H70.3765Z" fill="#DCDCE0"/>
<path fill-rule="evenodd" clip-rule="evenodd" d="M136.121 6.17188L135.696 6.52659C131.237 10.2505 122.609 13.8314 111.191 16.7497C99.8007 19.6612 85.7024 21.8966 70.359 22.9704H70.329L70.3116 22.9716C54.7168 24.0648 40.2304 23.792 28.4396 22.4436C16.6227 21.0922 7.59192 18.6683 2.84317 15.5139L2.31088 15.1603L2.09573 15.762C1.49722 17.4358 0.999664 19.2226 0.654358 21.1523L0.648926 21.1827L0.647278 21.2135C0.242432 28.7504 -0.108978 37.1759 1.10352 45.1183C2.31674 53.0655 5.10251 60.5776 11.0102 66.251L11.0328 66.2727L11.058 66.2914C11.8304 66.8664 12.3139 67.681 12.6505 68.6484C12.9755 69.5821 13.1508 70.6172 13.3293 71.6706L13.3512 71.7987C13.3516 71.8013 13.352 71.804 13.3523 71.8066C16.0057 91.0464 19.7401 124.841 20.7868 158.476C21.3102 175.296 21.1611 192.067 19.8706 206.954C18.5792 221.851 16.1479 234.821 12.128 244.061C7.13165 255.555 5.42636 268.149 5.47653 280.812L5.47659 280.825L5.47723 280.837C6.13797 293.335 8.96848 302.828 13.4887 310.114C18.0112 317.404 24.2043 322.451 31.5329 326.089C38.8543 329.724 47.3121 331.954 56.3749 333.616C62.9427 334.821 69.8516 335.73 76.8888 336.657C79.5572 337.008 82.2441 337.362 84.9379 337.736L84.9445 337.736C85.2342 337.773 85.5235 337.836 85.803 337.926L85.8093 337.928C101.195 342.669 116.204 352.63 130.352 364.95C144.496 377.267 157.751 391.917 169.631 406.003C175.455 412.909 180.946 419.675 186.049 425.964L186.352 426.337C191.539 432.729 196.323 438.619 200.639 443.638C204.953 448.654 208.812 452.815 212.15 455.742C213.819 457.206 215.37 458.372 216.792 459.183C218.21 459.992 219.534 460.467 220.743 460.504C224.043 460.605 226.895 459.037 229.494 456.605C232.089 454.176 234.484 450.837 236.875 447.291C237.405 446.505 237.936 445.709 238.468 444.909C240.349 442.084 242.26 439.214 244.312 436.588C246.944 433.221 249.776 430.3 253.01 428.437C255.909 426.768 259.435 426.248 263.382 426.212C265.978 426.188 268.709 426.373 271.534 426.564C273.018 426.664 274.529 426.766 276.06 426.841C284.886 427.271 294.196 426.769 301.608 419.358C309.018 411.947 309.081 404.197 308.365 397.055C308.268 396.089 308.157 395.139 308.049 394.204C307.754 391.668 307.472 389.244 307.508 386.923C307.556 383.772 308.193 380.887 310.158 378.307C311.841 376.099 314.319 374.491 317.29 373.088C319.42 372.082 321.765 371.199 324.218 370.275C325.193 369.908 326.186 369.534 327.189 369.143C334.196 366.414 341.583 362.915 346.183 355.262C348.487 351.427 349.053 348.139 348.637 345.176C348.224 342.234 346.847 339.665 345.371 337.262C345.04 336.723 344.705 336.195 344.374 335.672C343.212 333.837 342.099 332.078 341.366 330.233C340.44 327.898 340.148 325.472 341.22 322.684C344.884 313.153 350.495 307.344 354.807 302.879C355.153 302.521 355.49 302.172 355.818 301.83C358.004 299.547 359.809 297.531 360.577 295.46C360.968 294.407 361.094 293.331 360.871 292.198C360.649 291.071 360.087 289.92 359.154 288.7C358.261 287.533 356.657 286.525 354.553 285.617C352.435 284.703 349.746 283.864 346.614 283.066C340.35 281.472 332.246 280.032 323.256 278.511C321.663 278.242 320.042 277.97 318.398 277.694C301.464 274.854 282.097 271.605 265.903 266.527C258.702 264.269 252.34 262.811 246.42 261.552C245.204 261.294 244.007 261.044 242.826 260.797C238.251 259.841 233.911 258.934 229.582 257.77C218.715 254.849 207.935 250.314 193.975 239.347L193.968 239.341L193.961 239.336C167.821 220.33 153.982 187.643 146.611 153.039C139.242 118.447 138.357 82.0389 138.047 55.6945C138.028 53.8846 138.494 52.1097 139.278 50.4544C141.956 44.7887 142.533 38.8204 142.262 32.8564C142.069 28.5973 141.44 24.3045 140.826 20.1197C140.583 18.4619 140.342 16.821 140.132 15.2059L140.129 15.1807L140.123 15.156C139.37 11.9479 138.116 9.1216 136.431 6.63026L136.121 6.17188ZM135.903 7.64626C137.364 9.91649 138.463 12.4733 139.144 15.3603C139.358 17.002 139.6 18.6552 139.844 20.316C140.455 24.4817 141.072 28.696 141.263 32.9018C141.53 38.7751 140.957 44.5621 138.375 50.0263C137.539 51.7908 137.026 53.7157 137.047 55.7056C137.357 82.0512 138.241 118.549 145.633 153.247C153.021 187.93 166.93 220.914 193.365 240.139C207.432 251.189 218.334 255.782 229.322 258.735C233.681 259.907 238.056 260.822 242.634 261.778C243.812 262.025 245.004 262.274 246.212 262.531C252.121 263.787 258.446 265.237 265.604 267.481C281.868 272.581 301.304 275.841 318.224 278.679C319.872 278.955 321.495 279.228 323.089 279.497C332.085 281.019 340.149 282.453 346.368 284.036C349.477 284.827 352.109 285.651 354.157 286.535C356.22 287.426 357.628 288.35 358.36 289.308C359.228 290.443 359.705 291.455 359.889 292.391C360.073 293.322 359.974 294.21 359.639 295.113C358.956 296.956 357.311 298.825 355.095 301.139C354.768 301.481 354.429 301.831 354.081 302.192C349.765 306.659 344.026 312.598 340.287 322.325C339.106 325.396 339.44 328.087 340.437 330.601C341.207 332.543 342.389 334.408 343.559 336.256C343.883 336.767 344.206 337.276 344.519 337.786C345.983 340.168 347.264 342.589 347.647 345.315C348.027 348.022 347.528 351.081 345.325 354.747C340.911 362.093 333.808 365.492 326.826 368.211C325.849 368.592 324.872 368.96 323.904 369.324C321.436 370.254 319.032 371.16 316.863 372.184C313.835 373.613 311.188 375.306 309.363 377.701C307.225 380.507 306.559 383.626 306.508 386.907C306.471 389.3 306.764 391.821 307.062 394.38C307.169 395.301 307.277 396.228 307.37 397.155C308.076 404.196 307.99 411.561 300.9 418.651C293.812 425.739 284.894 426.27 276.108 425.842C274.621 425.77 273.132 425.669 271.656 425.57C268.805 425.377 266.005 425.188 263.373 425.212C259.364 425.248 255.632 425.774 252.511 427.571C249.114 429.527 246.188 432.564 243.524 435.972C241.446 438.631 239.507 441.544 237.623 444.374C237.094 445.169 236.569 445.958 236.046 446.732C233.653 450.28 231.313 453.532 228.811 455.874C226.313 458.212 223.706 459.594 220.773 459.504C219.794 459.474 218.634 459.082 217.287 458.315C215.945 457.549 214.451 456.43 212.809 454.991C209.527 452.111 205.704 447.994 201.397 442.986C197.093 437.98 192.318 432.102 187.129 425.707L186.823 425.331C181.722 419.044 176.226 412.271 170.395 405.359C158.503 391.258 145.21 376.563 131.009 364.196C116.811 351.833 101.68 341.773 86.106 336.973C85.7683 336.865 85.4207 336.789 85.0734 336.745C85.0718 336.745 85.0701 336.744 85.0685 336.744L85.0065 337.24L85.0751 336.745C85.0746 336.745 85.074 336.745 85.0734 336.745C82.3642 336.369 79.6682 336.014 76.9951 335.662C69.9671 334.737 63.0964 333.832 56.5553 332.632C47.5303 330.977 39.1775 328.768 31.9776 325.194C24.785 321.623 18.7462 316.692 14.3384 309.587C9.92981 302.481 7.13196 293.166 6.47647 280.796C6.47647 280.8 6.47653 280.804 6.47653 280.808L5.97653 280.81L6.47583 280.784C6.47604 280.788 6.47626 280.792 6.47647 280.796C6.42776 268.224 8.12305 255.782 13.045 244.46C17.1301 235.07 19.5726 221.971 20.8669 207.041C22.1619 192.101 22.3104 175.287 21.7863 158.445C20.7381 124.76 16.9984 90.9236 14.3418 71.662L14.3408 71.6543L14.3395 71.6467L14.3108 71.4774C14.1365 70.4469 13.9484 69.3354 13.595 68.3198C13.2225 67.2492 12.6527 66.2421 11.681 65.5087C11.6883 65.5157 11.6956 65.5227 11.7029 65.5297L11.3565 65.8904L11.6551 65.4893C11.6638 65.4957 11.6724 65.5022 11.681 65.5087C6.00357 60.0445 3.28479 52.7802 2.09207 44.9674C0.898712 37.1505 1.23972 28.8332 1.64413 21.2983C1.64233 21.3083 1.64053 21.3184 1.63873 21.3284L1.14655 21.2403L1.64581 21.2672C1.64526 21.2775 1.64468 21.2879 1.64413 21.2983C1.93799 19.6651 2.34448 18.1366 2.83109 16.6926C2.64542 16.5784 2.465 16.4631 2.28989 16.3468L2.56653 15.9304L3.03732 16.0987C2.9671 16.2951 2.89832 16.493 2.83109 16.6926C7.90656 19.8134 16.9081 22.1313 28.326 23.4371C40.1832 24.7932 54.7255 25.0657 70.364 23.9704H70.3465V23.4704L70.3815 23.9691C70.3799 23.9692 70.3782 23.9694 70.3765 23.9695C70.3723 23.9698 70.3682 23.9701 70.364 23.9704H70.394L70.4114 23.9691C85.8113 22.8924 99.9766 20.6484 111.439 17.7185C122.532 14.8831 131.158 11.3895 135.903 7.64626Z" fill="black"/>
<path d="M12.6683 244.191C8.66829 255.971 5.99827 268.121 6.05827 280.741C8.59827 328.791 43.3283 331.591 81.0683 336.621C100.848 268.371 75.8583 239.481 12.6783 244.181L12.6683 244.191Z" fill="#DCDCE0"/>
<path fill-rule="evenodd" clip-rule="evenodd" d="M80.7075 336.068C79.51 335.909 78.3162 335.752 77.1271 335.595C59.692 333.301 43.2517 331.138 30.5992 324.372C23.8087 320.741 18.1229 315.789 13.9733 308.781C9.82274 301.771 7.19131 292.674 6.55832 280.726C6.50093 268.291 9.10902 256.302 13.0389 244.655C44.4083 242.374 66.1136 248.442 77.5872 263.349C89.0604 278.257 90.4563 302.199 80.7075 336.068ZM78.3796 262.739C66.5476 247.366 44.2777 241.328 12.6413 243.682L12.4561 243.696L12.2324 243.919L12.1949 244.03C8.18345 255.844 5.49804 268.051 5.55839 280.743L5.55844 280.755L5.55907 280.767C6.1972 292.838 8.85915 302.106 13.1128 309.29C17.3689 316.478 23.2005 321.55 30.1276 325.254C42.9492 332.11 59.57 334.296 76.9436 336.58C78.2924 336.757 79.6458 336.935 81.0023 337.116L81.4289 337.173L81.5486 336.76C91.4494 302.598 90.2048 278.104 78.3796 262.739Z" fill="black"/>
<path d="M70.378 23.4702C101.128 21.3202 126.918 14.5102 136.018 6.91016C137.668 9.35016 138.898 12.1202 139.638 15.2702C141.128 26.7302 144.088 39.1102 138.828 50.2402C98.888 66.2802 56.298 69.5502 11.368 65.8902C-0.23205 54.7502 0.347959 36.3202 1.15796 21.2402C1.49796 19.3402 1.98797 17.5802 2.57797 15.9302C12.288 22.3802 39.118 25.6602 70.358 23.4702H70.378Z" fill="#DCDCE0"/>
<path fill-rule="evenodd" clip-rule="evenodd" d="M136.122 6.17188L135.697 6.52659C131.239 10.2505 122.61 13.8314 111.193 16.7497C99.8022 19.6612 85.7038 21.8966 70.3605 22.9704H70.3405L70.323 22.9716C54.7282 24.0648 40.2419 23.792 28.451 22.4436C16.6342 21.0922 7.60335 18.6683 2.85463 15.5139L2.32233 15.1603L2.10716 15.762C1.50867 17.4358 1.01108 19.2226 0.665771 21.1523L0.660339 21.1827L0.658676 21.2135C0.253845 28.7504 -0.09758 37.1759 1.11493 45.1183C2.32817 53.0655 5.11392 60.5776 11.0216 66.251L11.15 66.3743L11.3274 66.3887C56.3054 70.0526 98.9794 66.7825 139.014 50.7043L139.196 50.6313L139.28 50.454C141.958 44.7883 142.535 38.8204 142.264 32.8564C142.07 28.5974 141.441 24.3046 140.827 20.1198C140.584 18.462 140.344 16.821 140.134 15.2059L140.131 15.1807L140.125 15.156C139.371 11.9479 138.117 9.1216 136.432 6.63026L136.122 6.17188ZM135.904 7.64626C137.365 9.91645 138.464 12.4732 139.145 15.3601C139.359 17.0019 139.602 18.6551 139.845 20.316C140.456 24.4817 141.074 28.696 141.265 32.9018C141.529 38.7119 140.971 44.4375 138.459 49.8497C98.7193 65.7671 56.3344 69.0338 11.5868 65.4065C5.98122 59.9541 3.28879 52.7316 2.10349 44.9674C0.910126 37.1505 1.25114 28.8331 1.65558 21.2982C1.94943 19.665 2.35591 18.1366 2.84253 16.6926C7.91798 19.8134 16.9195 22.1313 28.3374 23.4371C40.1946 24.7932 54.7369 25.0657 70.3755 23.9704H70.3954L70.4128 23.9691C85.8128 22.8924 99.9781 20.6484 111.441 17.7185C122.534 14.8831 131.16 11.3895 135.904 7.64626Z" fill="black"/>
<path d="M2.75894 15.4398C2.75894 20.6398 35.3289 27.1698 70.7289 24.3498C106.139 21.5398 136.199 10.6898 135.729 6.57982C135.499 4.55982 116.589 -0.900176 71.2889 0.829824C25.9889 2.55982 2.74893 12.7898 2.74893 15.4298L2.75894 15.4398Z" fill="#DCDCE0"/>
<path fill-rule="evenodd" clip-rule="evenodd" d="M135.234 6.6544C135.239 6.75307 135.206 6.91295 135.049 7.14938C134.883 7.39857 134.608 7.6912 134.206 8.02189C133.402 8.6824 132.167 9.43469 130.528 10.2472C127.257 11.8692 122.466 13.6892 116.54 15.4736C104.69 19.0411 88.3579 22.4493 70.6893 23.8514L70.6892 23.8514C53.0281 25.2583 36.0744 24.3323 23.5448 22.4081C17.2774 21.4456 12.1349 20.2361 8.57053 18.9519C6.78519 18.3087 5.42155 17.6558 4.51393 17.0215C3.576 16.366 3.25888 15.826 3.25888 15.4398V15.398C3.274 15.3587 3.31197 15.2831 3.40707 15.1674C3.55249 14.9907 3.78894 14.7723 4.13338 14.5174C4.82018 14.0091 5.87221 13.4023 7.3007 12.7306C10.1531 11.3893 14.4443 9.81806 20.1619 8.27122C31.5938 5.17847 48.691 2.1932 71.3079 1.32946C93.9371 0.465258 109.96 1.3976 120.343 2.79411C125.537 3.49261 129.309 4.30582 131.787 5.06404C133.029 5.44391 133.928 5.80477 134.514 6.12169C134.808 6.28078 135.005 6.41899 135.125 6.52984C135.2 6.59975 135.226 6.64143 135.234 6.6544ZM120.477 1.80304C110.023 0.397053 93.9407 -0.535608 71.2698 0.330189C48.5868 1.19645 31.4139 4.19118 19.9008 7.30593C14.1459 8.86284 9.79589 10.4522 6.87517 11.8256C5.4171 12.5113 4.29959 13.1503 3.5385 13.7136C3.159 13.9944 2.85191 14.2682 2.63478 14.5322C2.42758 14.7841 2.24887 15.0913 2.24887 15.4298V15.6371L2.27258 15.6608C2.37483 16.4834 3.03949 17.2111 3.9411 17.8411C4.95293 18.5483 6.41036 19.2366 8.23158 19.8927C11.8804 21.2073 17.0929 22.429 23.393 23.3965C35.9984 25.3324 53.0297 26.2613 70.7686 24.8482C88.51 23.4403 104.912 20.0186 116.828 16.4311C122.784 14.638 127.633 12.7992 130.973 11.1431C132.639 10.3165 133.952 9.5249 134.841 8.7944C135.285 8.42959 135.641 8.06493 135.882 7.70227C136.121 7.34169 136.273 6.94015 136.226 6.52326M120.477 1.80304C125.702 2.50579 129.532 3.3282 132.08 4.1078ZM132.08 4.1078C133.351 4.49683 134.321 4.88042 134.99 5.24199ZM134.99 5.24199C135.323 5.42213 135.6 5.60666 135.805 5.79687ZM135.805 5.79687C135.999 5.97669 136.191 6.21962 136.226 6.52302Z" fill="black"/>
<path opacity="0.2" d="M188.263 427.996C176.263 413.866 151.765 380.496 124.265 358.496C114.265 350.496 113.762 349.496 85.9714 337.451C85.6614 337.351 85.3414 337.281 85.0214 337.241C45.7615 331.801 8.62154 330.561 5.99155 280.811C5.94155 268.191 7.89155 255.771 12.6015 244.261C28.1815 206.221 19.1716 110.231 13.8616 71.7314C13.4916 69.5514 13.1315 67.2014 11.3715 65.8914C1.70155 56.6014 0.501579 42.2414 0.831578 28.9914C0.901578 26.3514 2.45156 18.4514 2.59156 15.9414C2.59156 15.9414 10.6615 17.4914 19.1415 32.2214C27.6215 46.9514 26.3212 60.4414 29.9412 65.9314C33.5612 71.4214 26.2613 155.911 33.4012 200.301C40.5412 244.691 10.4413 260.411 31.0512 294.231C51.6612 328.051 68.6315 306.921 97.6114 322.661C126.591 338.401 142.765 354.996 160.265 373.496C177.765 391.996 194.765 420.996 204.765 432.496C210.265 437.996 214.239 449.961 222.765 449.496C232.265 448.496 239.265 429.996 249.257 424.496C255.995 420.788 286.258 425.996 290.76 424.996C293.026 425.608 281.759 427.496 274.259 425.996C266.763 425.996 258.758 423.496 248.763 430.496C240.763 437.496 231.265 461.511 221.765 459.996C212.169 458.466 200.057 442.701 193.263 433.996C190.498 430.452 188.263 427.996 188.263 427.996Z" fill="black"/>
<path opacity="0.2" d="M2.7475 14.7605C2.0575 18.2805 23.1575 25.4205 60.4375 24.9205C51.3275 22.7505 27.1975 18.1605 24.5675 15.8205C19.3175 11.1405 25.2075 6.5505 20.9975 7.5505C10.2175 10.1105 2.86751 14.1805 2.75751 14.7705L2.7475 14.7605Z" fill="#DCDCE0"/>
<path fill-rule="evenodd" clip-rule="evenodd" d="M245.007 306.067C244.768 305.929 244.462 306.011 244.324 306.251C244.187 306.49 244.269 306.796 244.508 306.933L244.758 306.5L245.007 306.067ZM345.758 354.5C345.94 354.035 345.94 354.035 345.94 354.034L345.615 353.907C345.4 353.822 345.083 353.697 344.673 353.535C343.851 353.21 342.655 352.736 341.156 352.138C338.157 350.942 333.946 349.251 329.097 347.269C319.399 343.306 307.156 338.184 296.965 333.545C286.863 328.947 273.877 322.08 263.408 316.357C258.176 313.497 253.575 310.924 250.282 309.066C248.636 308.137 247.317 307.387 246.41 306.87C245.956 306.611 245.605 306.41 245.368 306.274L245.009 306.068L245.007 306.067C245.007 306.067 245.007 306.067 244.758 306.5C244.508 306.933 244.508 306.933 244.508 306.933L244.871 307.141C245.109 307.278 245.46 307.479 245.914 307.738C246.823 308.257 248.143 309.007 249.791 309.937C253.086 311.796 257.691 314.371 262.929 317.235C273.4 322.959 286.414 329.841 296.551 334.455C306.76 339.102 319.017 344.23 328.719 348.195C333.57 350.178 337.784 351.87 340.785 353.067C342.286 353.666 343.483 354.14 344.305 354.465C344.716 354.628 345.034 354.753 345.248 354.837L345.574 354.965L345.575 354.965C345.575 354.966 345.575 354.966 345.758 354.5ZM345.758 354.5L345.94 354.034C346.197 354.135 346.324 354.426 346.223 354.683C346.122 354.94 345.832 355.066 345.575 354.965L345.758 354.5Z" fill="black"/>
<path fill-rule="evenodd" clip-rule="evenodd" d="M204.593 344.634C204.389 344.447 204.073 344.461 203.886 344.665C203.7 344.869 203.714 345.185 203.918 345.371L204.255 345.002L204.593 344.634ZM300.755 419.39C301.019 418.965 301.019 418.965 301.019 418.965L300.687 418.758C300.468 418.622 300.145 418.419 299.728 418.157C298.894 417.633 297.682 416.869 296.171 415.909C293.151 413.989 288.938 411.288 284.168 408.162C274.627 401.908 262.87 393.96 253.98 387.166C245.162 380.427 232.818 369.798 222.671 360.845C217.6 356.37 213.08 352.317 209.828 349.383C208.202 347.916 206.893 346.728 205.99 345.908C205.539 345.497 205.19 345.179 204.953 344.963L204.593 344.634C204.592 344.633 204.593 344.634 204.255 345.002C203.918 345.371 203.917 345.371 203.918 345.371L204.279 345.701C204.516 345.918 204.866 346.237 205.318 346.647C206.221 347.469 207.531 348.657 209.158 350.125C212.412 353.061 216.935 357.117 222.01 361.595C232.157 370.547 244.524 381.198 253.373 387.961C262.293 394.777 274.075 402.742 283.62 408.999C288.394 412.128 292.611 414.832 295.635 416.753C297.147 417.714 298.36 418.479 299.196 419.004C299.614 419.267 299.938 419.469 300.157 419.606L300.489 419.814L300.49 419.814C300.49 419.814 300.49 419.814 300.755 419.39ZM300.755 419.39L301.019 418.965C301.253 419.111 301.325 419.42 301.179 419.654C301.033 419.889 300.725 419.96 300.49 419.814L300.755 419.39Z" fill="black"/>
<g clip-path="url(#clip0_4969_302687)">
<path d="M208.121 223.432C187.611 222.964 175.849 231.483 173.728 246.17C173.417 248.318 174.555 250.506 175.702 252.008C178.241 255.351 180.731 258.572 186.686 258.936C193.902 259.372 206.729 259.937 204.714 252.791" fill="#9891A1"/>
<path d="M208.121 223.432C187.611 222.964 175.849 231.483 173.728 246.17C173.417 248.318 174.555 250.506 175.702 252.008C178.241 255.351 180.731 258.572 186.686 258.936C193.902 259.372 206.729 259.937 204.714 252.791" stroke="black" stroke-width="0.338972" stroke-miterlimit="10" stroke-linecap="round"/>
<path opacity="0.2" d="M186.666 258.946C193.866 259.544 213.425 259.915 198.608 250.734C198.608 250.734 202.089 254.893 197.879 257.008C193.145 259.398 186.658 258.946 186.658 258.946H186.666Z" fill="#DCDCE0"/>
<path d="M196.331 240.273C196.331 252.239 203.317 259.054 211.59 256.438C217.848 254.468 221.902 247.379 221.902 240.217C221.902 233.055 217.848 225.965 211.59 223.987C203.317 221.371 196.331 228.307 196.331 240.273Z" fill="#DCDCE0" stroke="black" stroke-width="0.338972" stroke-miterlimit="10" stroke-linecap="round"/>
<path d="M217.562 233.415C215.883 229.127 212.714 225.607 208.594 224.307C207.562 223.984 206.546 223.806 205.563 223.766" fill="#DCDCE0"/>
<path d="M217.562 233.415C215.883 229.127 212.714 225.607 208.594 224.307C207.562 223.984 206.546 223.806 205.563 223.766" stroke="black" stroke-width="0.338972" stroke-miterlimit="10" stroke-linecap="round"/>
<path d="M217.473 248.758C215.687 252.327 212.812 255.161 209.2 256.299C208.168 256.622 207.152 256.8 206.169 256.84" stroke="black" stroke-width="0.338972" stroke-miterlimit="10" stroke-linecap="round"/>
<path d="M194.467 240.308C194.459 221.858 208.383 223.44 208.383 223.44C201.626 223.351 196.408 229.932 196.408 240.275C196.408 250.619 201.839 257.377 208.801 256.981C208.801 256.981 194.475 258.636 194.467 240.308Z" fill="#9891A1" stroke="black" stroke-width="0.338972" stroke-miterlimit="10" stroke-linecap="round"/>
</g>
<g clip-path="url(#clip1_4969_302687)">
<path d="M139.121 260.432C118.611 259.964 106.849 268.483 104.728 283.17C104.417 285.318 105.555 287.506 106.702 289.008C109.241 292.351 111.731 295.572 117.686 295.936C124.902 296.372 137.729 296.937 135.714 289.791" fill="#9891A1"/>
<path d="M139.121 260.432C118.611 259.964 106.849 268.483 104.728 283.17C104.417 285.318 105.555 287.506 106.702 289.008C109.241 292.351 111.731 295.572 117.686 295.936C124.902 296.372 137.729 296.937 135.714 289.791" stroke="black" stroke-width="0.338972" stroke-miterlimit="10" stroke-linecap="round"/>
<path opacity="0.2" d="M117.666 295.946C124.866 296.544 144.425 296.915 129.608 287.734C129.608 287.734 133.089 291.893 128.879 294.008C124.145 296.398 117.658 295.946 117.658 295.946H117.666Z" fill="black"/>
<path d="M127.331 277.273C127.331 289.239 134.317 296.054 142.59 293.438C148.848 291.468 152.902 284.379 152.902 277.217C152.902 270.055 148.848 262.965 142.59 260.987C134.317 258.371 127.331 265.307 127.331 277.273Z" fill="#FAF9F6" stroke="black" stroke-width="0.338972" stroke-miterlimit="10" stroke-linecap="round"/>
<path d="M148.562 270.415C146.883 266.127 143.714 262.607 139.594 261.307C138.562 260.984 137.546 260.806 136.563 260.766" stroke="black" stroke-width="0.338972" stroke-miterlimit="10" stroke-linecap="round"/>
<path d="M148.473 285.758C146.687 289.327 143.812 292.161 140.2 293.299C139.168 293.622 138.152 293.8 137.169 293.84" stroke="black" stroke-width="0.338972" stroke-miterlimit="10" stroke-linecap="round"/>
<path d="M125.467 277.308C125.459 258.858 139.383 260.44 139.383 260.44C132.626 260.351 127.408 266.932 127.408 277.275C127.408 287.619 132.839 294.377 139.801 293.981C139.801 293.981 125.475 295.636 125.467 277.308Z" fill="#9891A1" stroke="black" stroke-width="0.338972" stroke-miterlimit="10" stroke-linecap="round"/>
</g>
<defs>
<clipPath id="clip0_4969_302687">
<rect width="49.0385" height="36.9565" fill="white" transform="matrix(-1 0 0 1 222.293 223)"/>
</clipPath>
<clipPath id="clip1_4969_302687">
<rect width="49.0385" height="36.9565" fill="white" transform="matrix(-1 0 0 1 153.293 260)"/>
</clipPath>
</defs>
</svg>
