<svg width="467" height="567" viewBox="0 0 467 567" fill="none" xmlns="http://www.w3.org/2000/svg">
<path d="M203.556 152.68C201.528 152.988 205.649 168.29 200.329 180.173C197.996 185.377 194.954 196.453 196.077 198.619C198.334 202.984 202.117 195.349 205.191 192.078C209.988 186.97 211.744 178.92 211.798 177.773C212.376 165.561 205.42 152.404 203.556 152.69V152.68Z" fill="#F1F1E6" stroke="black" stroke-miterlimit="10"/>
<path opacity="0.2" d="M195.848 197.425C197.003 205.549 204.144 192.423 207.219 189.152C207.219 189.152 200.928 196.236 198.791 197.52C196.644 198.805 195.848 197.425 195.848 197.425Z" fill="black"/>
<path d="M183.465 157.633C156.984 170.333 129.292 185.243 131.756 192.263C133.163 196.298 143.749 195.501 146.987 196.425C164.866 201.491 202.021 163.08 197.234 154.426C196.766 153.587 195.861 152.673 193.953 152.121C190.432 153.969 186.943 155.806 183.465 157.633Z" fill="#F1F1E6" stroke="black" stroke-miterlimit="10"/>
<path d="M194.455 148.024C182.343 165.61 165.641 178.693 160.07 181.104C151.413 184.842 137.797 189.578 130.721 185.15C124.42 181.21 114.63 178.842 114.215 175.008C113.648 169.805 130.372 169.656 148.426 164.537C161.934 160.704 172.007 153.27 195.916 142.184L199.121 146.973L194.466 148.024H194.455Z" fill="#F1F1E6" stroke="black" stroke-miterlimit="10"/>
<path opacity="0.2" d="M173.309 171.602C161 182.848 140.166 193.159 123.093 181.329C123.093 181.329 128.424 183.538 141.681 183.697C154.72 183.856 173.309 171.602 173.309 171.602Z" fill="black"/>
<path opacity="0.2" d="M178.637 182.316C170.613 188.157 161.509 196.079 151.916 196.812C141.428 195.389 138.56 197.141 132.106 192.957C135.377 194.731 136.991 194.412 150.204 194.338C163.068 194.263 178.626 182.316 178.626 182.316H178.637Z" fill="black"/>
<path d="M197.999 158.438C180.6 185.444 161.401 193.079 162.709 201.543C163.407 206.098 174.843 201.235 177.525 199.355C200.158 183.532 203.985 175.461 209.436 155.253C209.654 154.445 208.64 153.745 206.71 153.617C203.592 156.304 200.354 154.785 197.999 158.438Z" fill="#F1F1E6" stroke="black" stroke-miterlimit="10"/>
<path opacity="0.2" d="M162.22 201.307C164.128 207.721 182.771 199.396 193.945 185.145C193.945 185.145 182.095 194.67 174.093 198.132C166.276 201.52 162.22 201.307 162.22 201.307Z" fill="black"/>
<path d="M196.501 156.151C194.222 156.363 198.518 170.158 192.38 180.405C189.72 184.844 186.22 194.274 187.408 196.165C189.807 199.988 194.07 193.616 197.504 190.929C202.911 186.703 205.059 179.736 205.146 178.738C206.106 167.97 198.605 155.96 196.501 156.151Z" fill="#F1F1E6" stroke="black" stroke-miterlimit="10"/>
<path opacity="0.2" d="M187.248 195.013C188.611 200.79 194.062 193.622 197.507 190.935C202.915 186.709 201.486 187.282 202.816 184.574C202.816 184.574 199.262 187.303 195.85 190.203C193.866 191.891 191.413 194.333 190.486 194.663C187.957 195.555 187.248 195.013 187.248 195.013Z" fill="black"/>
<path d="M191.898 145.851C173.605 160.665 151.135 168.63 144.114 169.862C133.321 171.752 121.558 174.258 109.217 164.743C102.392 159.487 91.9586 153.062 92.2529 148.91C92.6454 143.271 112.019 148.389 134.084 148.708C150.71 148.952 164.174 144.269 194.973 140.074L197.688 146.223L191.909 145.851H191.898Z" fill="#F1F1E6" stroke="black" stroke-miterlimit="10"/>
<path opacity="0.2" d="M166.237 161.809C134.795 175.009 121.56 173.851 109.208 164.325C102.383 159.069 98.0986 157.72 94.6208 153.281C94.6208 153.281 106.221 162.085 121.418 166.948C133.4 170.782 165.855 161.617 169.78 160.577C175.678 159.005 166.237 161.809 166.237 161.809Z" fill="black"/>
<path d="M188.717 134.245C167.708 147.095 143.091 152.978 135.612 153.307C128.799 153.604 108.466 152.648 99.2756 145.056C92.4182 139.385 82.0503 132.026 82.6935 127.98C83.5657 122.468 103.615 129.296 126.934 131.665C144.552 133.449 159.314 130.093 192.609 128.819L194.844 135.148L188.717 134.245Z" fill="#F1F1E6" stroke="black" stroke-miterlimit="10"/>
<path opacity="0.2" d="M151.095 150.262C135.08 155.402 108.457 152.651 99.277 145.059C92.4195 139.388 85.4967 133.218 82.782 129.172C82.782 129.172 94.9706 141.055 111.738 147.225C121.506 150.825 143.442 149.274 151.803 148.202C157.603 147.459 151.084 150.262 151.084 150.262H151.095Z" fill="black"/>
<path d="M176.924 130.6C156.1 123.007 148.763 125.449 131.843 116.327C125.422 112.865 124.877 111.644 115.054 104.975C108.393 100.451 67.0954 72.4052 62.5819 80.391C59.8891 85.1485 68.9706 100.398 76.8964 109.807C94.6778 130.897 118.281 136.1 137.163 140.253C155.25 144.235 155.206 140.964 190.235 147.134C201.617 149.141 195.566 146.635 195.991 144.798C196.624 142.09 193.887 136.78 176.924 130.6Z" fill="#F1F1E6" stroke="black" stroke-miterlimit="10"/>
<path opacity="0.2" d="M64.1175 89.0195C66.9194 96.177 68.9908 100.51 76.9275 109.919C94.7089 131.009 120.285 138.187 159.468 143.741C159.468 143.741 162.062 143.264 151.629 140.768C133.902 136.541 102.853 128.439 91.6781 118.934C73.2317 103.26 64.1284 89.0195 64.1284 89.0195H64.1175Z" fill="black"/>
<path d="M171.608 114.997C151.417 104.017 143.807 105.248 127.672 93.3654C121.545 88.8521 121.131 87.5459 111.907 79.2734C105.65 73.6663 66.9252 38.9302 61.5505 46.1302C58.3452 50.4204 65.9222 67.1248 72.9541 77.8291C88.7404 101.85 112.038 110.919 130.659 118.172C148.484 125.117 148.768 121.825 183.393 133.719C194.633 137.574 188.8 134.091 189.4 132.317C190.294 129.716 188.048 123.949 171.608 115.008V114.997Z" fill="#F1F1E6" stroke="black" stroke-miterlimit="10"/>
<path opacity="0.2" d="M62.2078 54.9727C64.2901 62.5655 65.9363 67.2381 72.9682 77.9425C88.7545 101.953 113.851 113.337 152.772 125.294C152.772 125.294 155.432 125.231 145.173 121.036C127.741 113.91 97.2363 100.71 86.9229 89.3689C69.9156 70.6682 62.1969 54.9727 62.1969 54.9727H62.2078Z" fill="black"/>
<path d="M160.353 100.947C141.569 85.3998 133.72 84.8582 119.154 69.3538C113.627 63.4707 113.398 62.0795 105.287 51.7787C99.7921 44.7911 65.8538 1.60194 59.3561 7.41076C55.4749 10.8727 60.6316 29.0744 66.1481 41.2761C78.5657 68.7167 100.806 83.1166 118.587 94.6387C135.606 105.662 136.358 102.455 169.598 122.26C180.392 128.685 188.546 133.92 189.408 132.327C191.708 128.037 175.66 113.637 160.353 100.968V100.947Z" fill="#F1F1E6" stroke="black" stroke-miterlimit="10"/>
<path opacity="0.2" d="M58.7033 16.2617C59.6736 24.2263 60.6439 29.2068 66.1603 41.3979C78.5779 68.8278 102.301 85.9463 139.913 106.835C139.913 106.835 142.606 107.387 132.849 100.845C116.256 89.7375 87.3432 69.5712 78.5779 55.9465C64.1544 33.5183 58.7033 16.2617 58.7033 16.2617Z" fill="black"/>
<path d="M173.369 101.771C142.942 79.8848 123.536 58.1257 111.325 42.0372C94.9067 20.4161 83.6448 -1.22626 79.4475 1.18434C76.3731 2.95779 78.8042 16.6144 81.5407 25.4816C86.4575 41.4426 92.2248 52.7204 101.012 62.4796C106.67 68.7557 129.706 89.4848 153.375 100.37C158.226 102.6 165.454 105.382 174.111 112.869C183.432 120.918 186.888 127.874 188.774 126.961C191.489 125.644 189.101 109.014 180.423 103.534C177.708 101.814 175.081 101.655 173.358 101.771H173.369Z" fill="#F1F1E6" stroke="black" stroke-miterlimit="10"/>
<path opacity="0.2" d="M79.9499 17.8242C81.28 24.6844 81.8251 27.9127 82.9589 30.6312C88.9333 44.9356 94.3408 55.5656 102.932 64.6346C108.47 70.4753 130.132 90.2062 153.387 100.369C153.387 100.369 111.163 72.6841 97.655 51.8701C83.8093 30.525 79.9499 17.8242 79.9499 17.8242Z" fill="black"/>
<path d="M204.686 150.966C202.004 149.681 196.716 157.932 194.154 163.486C193.783 164.283 188.627 175.624 191.156 177.695C193.38 179.522 201.764 174.339 204.936 165.929C207.171 160.003 206.975 152.06 204.686 150.966Z" fill="#F1F1E6" stroke="black" stroke-miterlimit="10"/>
<path opacity="0.2" d="M190.568 174.205C189.881 181.968 198.81 175.554 202.004 171.242C202.004 171.242 199.671 173.833 195.288 175.331C190.906 176.828 190.568 174.205 190.568 174.205Z" fill="black"/>
<path d="M210.379 158.556C208.275 157.557 204.1 164.078 202.083 168.463C201.799 169.09 197.733 178.042 199.706 179.678C201.45 181.122 208.046 177.012 210.554 170.364C212.32 165.681 212.167 159.405 210.368 158.556H210.379Z" fill="#F1F1E6" stroke="black" stroke-miterlimit="10"/>
<path opacity="0.2" d="M199.256 176.928C198.711 183.055 205.732 177.979 208.25 174.57C208.25 174.57 206.408 176.62 202.962 177.809C199.517 178.999 199.256 176.928 199.256 176.928Z" fill="black"/>
<path d="M217.061 163.124C215.415 162.094 211.621 167 209.702 170.366C209.43 170.844 205.559 177.747 207.053 179.276C208.372 180.635 213.987 177.948 216.451 172.777C218.184 169.134 218.467 163.995 217.061 163.124Z" fill="#F1F1E6" stroke="black" stroke-miterlimit="10"/>
<path opacity="0.2" d="M206.858 176.978C206.018 181.926 212.036 178.496 214.293 175.969C214.293 175.969 212.669 177.455 209.801 178.082C206.934 178.709 206.858 176.978 206.858 176.978Z" fill="black"/>
<path d="M198.655 155.86C196.475 153.906 189.17 158.568 185.224 162.051C184.657 162.551 176.676 169.655 178.486 172.172C180.089 174.381 189.399 173.234 194.72 167.743C198.481 163.867 200.509 157.528 198.655 155.86Z" fill="#F1F1E6" stroke="black" stroke-miterlimit="10"/>
<path opacity="0.2" d="M178.282 169.98C177.89 175.311 189.402 173.24 194.723 167.75C194.723 167.75 188.203 171.446 183.94 171.35C179.656 171.254 178.282 169.98 178.282 169.98Z" fill="black"/>
<path d="M195.784 144.81C181.774 146.276 174.077 149.058 168.212 151.883C165.672 153.115 161.529 158.18 162.26 159.922C163.132 162.003 169.717 163.108 173.598 163.373C178.406 163.702 192.011 164.35 197.484 150.332C198.084 148.793 198.455 147.412 198.684 146.467L195.773 144.789L195.784 144.81Z" fill="#F1F1E6" stroke="black" stroke-miterlimit="10"/>
<path opacity="0.2" d="M162.15 159.145C163.207 161.714 172.594 166.366 188.348 160.971C188.348 160.971 179.342 162.15 173.194 161.247C166.99 160.323 162.15 159.155 162.15 159.155V159.145Z" fill="black"/>
<path d="M192.476 138.506C175.261 140.375 149.369 147.458 150.415 152.927C150.819 155.062 158.777 154.117 163.182 155.317C170.562 157.334 182.762 152.46 190.797 147.235C192.236 146.301 194.656 144.326 195.125 143.423C194.122 142.765 193.588 138.389 192.476 138.506Z" fill="#F1F1E6" stroke="black" stroke-miterlimit="10"/>
<path opacity="0.2" d="M150.718 151.496C149.802 155.245 158.709 154.576 163.179 155.308C170.484 156.487 167.943 155.765 174.07 154.735C174.07 154.735 166.482 154.969 162.798 153.928C159.091 152.877 151.721 153.62 150.718 151.496Z" fill="black"/>
<path d="M188.902 131.434C171.252 130.032 160.797 131.317 152.893 132.591C149.469 133.143 143.539 135.979 143.833 137.763C144.182 139.897 151.748 141.278 156.131 143.614C162.683 147.108 177.717 148.839 189.055 137.03C190.309 135.724 191.236 134.513 191.824 133.685C190.843 132.931 189.873 132.177 188.892 131.423L188.902 131.434Z" fill="#F1F1E6" stroke="black" stroke-miterlimit="10"/>
<path opacity="0.2" d="M143.822 136.973C143.309 138.332 150.505 142.091 157.515 144.279C164.95 146.604 178.218 145.638 173.05 145.755C167.85 145.882 161.505 144.47 157.177 142.112C152.816 139.744 144.726 138.236 143.822 136.973Z" fill="black"/>
<path d="M166.55 125.401C159.704 125.316 139.589 121.068 138.924 123.84C138.259 126.612 147.679 131.125 152.192 132.654C157.785 134.555 171.173 138.389 186.033 131.815C187.657 131.093 187.984 126.282 188.605 125.475C187.646 124.615 173.342 125.486 166.561 125.401H166.55Z" fill="#F1F1E6" stroke="black" stroke-miterlimit="10"/>
<path opacity="0.2" d="M139.329 124.602C139.678 127.087 147.462 130.75 151.965 132.29C157.558 134.191 160.043 135.943 165.68 135.253C165.68 135.253 160 134.913 150.776 130.495C141.422 126.014 141.815 126.269 139.329 124.602Z" fill="black"/>
<path d="M176.721 117.264C152.867 112.177 132.087 109.469 132.316 114.152C132.447 116.828 141.42 121.724 143.916 122.478C167.988 129.752 185.77 127.055 188.277 124.188C188.604 123.816 187.612 120.152 186.282 119.037C183.077 118.443 179.893 117.859 176.721 117.275V117.264Z" fill="#F1F1E6" stroke="black" stroke-miterlimit="10"/>
<path opacity="0.2" d="M132.323 113.621C132.399 117.572 142.865 124.623 164.168 126.407C164.168 126.407 148.403 123.147 141.677 119.664C134.885 116.149 132.323 113.632 132.323 113.632V113.621Z" fill="black"/>
<path d="M177.062 111.042C151.421 98.1822 128.33 90.3663 126.945 95.2725C126.16 98.076 134.664 107.134 137.237 108.685C162.192 123.733 183.342 119.708 187.321 117.563C187.834 117.287 188.161 110.734 187.038 109.163C183.538 107.506 180.497 112.646 177.052 111.032L177.062 111.042Z" fill="#F1F1E6" stroke="black" stroke-miterlimit="10"/>
<path opacity="0.2" d="M126.948 95.2695C128.987 104.339 143.497 116.806 167.766 119.057C167.766 119.057 146.212 112.42 139.202 107.376C132.225 102.353 127.951 98.1155 126.948 95.2695Z" fill="black"/>
<path d="M176.72 100.924C152.07 83.8692 129.601 70.5843 127.268 75.0657C125.949 77.6144 131.378 87.671 133.417 90.209C153.673 115.292 182.858 112.181 187.437 110.864C188.036 110.694 187.622 109.197 186.739 107.508C183.381 105.299 180.034 103.112 176.709 100.924H176.72Z" fill="#F1F1E6" stroke="black" stroke-miterlimit="10"/>
<path opacity="0.2" d="M127.267 75.0536C127.43 84.0695 139.641 107.443 173.906 111.531C173.906 111.531 158.436 106.869 147.261 99.8075C143.489 97.4287 137.351 91.5668 136.13 89.942C131.235 83.4217 128.51 79.7686 127.267 75.043V75.0536Z" fill="black"/>
<path d="M172.844 90.3862C160.1 84.3756 150.985 77.6535 145.087 72.6943C134.076 63.4554 124.907 52.5598 123.49 54.0997C123.163 54.4607 123.25 55.4908 124.373 58.1244C128.81 68.5208 136.965 74.5527 141.642 78.0995C161.593 93.2322 163.468 95.08 167.11 98.7862C175.581 107.42 181.86 105.041 183.496 108.291C187.693 116.669 186.079 109.129 187.061 109.151C188.598 109.193 188.249 117.02 183.474 104.383C181.915 100.273 180.105 97.0127 178.677 94.7508C176.725 93.2853 174.796 91.8305 172.855 90.3862H172.844Z" fill="#F1F1E6" stroke="black" stroke-miterlimit="10"/>
<path opacity="0.2" d="M123.393 53.9336C123.066 54.2947 123.164 54.2947 124.363 57.9796C128.789 71.53 153.712 86.7582 158.258 90.2095C158.258 90.2095 140.171 74.7795 134.491 68.6946C128.746 62.5566 123.393 53.9336 123.393 53.9336Z" fill="black"/>
<path d="M159.216 68.5441C159.369 68.4379 163.087 75.9671 170.238 84.3245C177.794 93.1387 180.519 92.7882 184.509 99.0112C189.622 106.976 188.162 112.19 191.127 123.011C193.046 129.988 194.06 136.912 203.25 146.745C212.233 156.345 214.054 155.411 218.655 165.287C220.072 168.335 220.694 173.113 218.906 174.43C218.262 174.908 216.093 175.821 207.164 168.494C198.006 160.975 192.446 156.473 186.788 138.6C183.408 127.928 186.613 126.654 182.231 113.379C180.279 107.454 177.805 102.654 172.964 93.3298C165.583 79.1104 159.02 68.6715 159.205 68.5441H159.216Z" fill="#F1F1E6" stroke="black" stroke-miterlimit="10"/>
<path opacity="0.2" d="M219.766 173.103C218.763 175.089 216.103 175.832 207.174 168.505C198.016 160.986 192.456 156.483 186.798 138.611C183.418 127.938 186.623 126.664 182.24 113.39C180.289 107.464 177.814 102.664 172.974 93.3404C165.593 79.121 159.03 68.6821 159.215 68.5547C159.215 68.5547 171.458 85.9918 174.773 92.2678C178.054 98.5014 184.672 109.312 186.59 123.075C187.146 127.036 187.713 136.466 190.45 142.593C191.714 145.429 192.892 148.699 194.702 151.779C196.239 154.37 198.365 156.802 200.011 158.99C205.702 166.551 212.112 170.65 215.972 172.423C217.945 173.326 219.766 173.113 219.766 173.113V173.103Z" fill="black"/>
<g clip-path="url(#clip0_4775_428544)">
<path d="M93.938 85.0857C100.988 102.416 221.678 92.2757 226.918 76.2257C226.688 74.2057 207.778 68.7457 162.478 70.4857C117.178 72.2157 93.938 82.4457 93.938 85.0857Z" fill="#C3CE5F"/>
<path fill-rule="evenodd" clip-rule="evenodd" d="M226.383 76.2439C226.065 77.0655 225.386 77.9125 224.326 78.7722C223.195 79.6891 221.666 80.5924 219.78 81.4721C216.008 83.2315 210.872 84.8672 204.806 86.3321C192.678 89.2608 176.909 91.4884 161.072 92.6746C145.235 93.8608 129.355 94.0036 117.006 92.7719C110.828 92.1557 105.558 91.1978 101.624 89.8653C99.6576 89.1991 98.0432 88.4453 96.8213 87.6062C95.6547 86.8052 94.8705 85.9437 94.4606 85.0303C94.4805 84.9873 94.52 84.919 94.5988 84.8233C94.7442 84.6465 94.9806 84.4281 95.3251 84.1732C96.0119 83.6649 97.0639 83.0581 98.4924 82.3864C101.345 81.0451 105.636 79.4739 111.354 77.9271C122.786 74.8343 139.883 71.849 162.5 70.9853L162.5 70.9853C185.129 70.1161 201.152 71.0459 211.535 72.4412C216.729 73.1391 220.501 73.952 222.979 74.71C224.22 75.0898 225.12 75.4507 225.706 75.7676C226 75.9266 226.197 76.0648 226.317 76.1757C226.346 76.2026 226.367 76.2254 226.383 76.2439ZM211.668 71.4501C201.214 70.0454 185.132 69.1152 162.462 69.986C139.778 70.8523 122.606 73.847 111.092 76.9618C105.338 78.5187 100.988 80.1081 98.0669 81.4815C96.6088 82.1671 95.4913 82.8062 94.7302 83.3694C94.3507 83.6503 94.0436 83.9241 93.8265 84.188C93.6193 84.4399 93.4406 84.7471 93.4406 85.0857V85.1835L93.4774 85.2741C93.9669 86.4774 94.9332 87.5228 96.2552 88.4306C97.5783 89.3391 99.2848 90.1287 101.303 90.8124C105.34 92.1798 110.696 93.1475 116.906 93.767C129.333 95.0064 145.275 94.8605 161.147 93.6718C177.019 92.4829 192.845 90.2493 205.041 87.3042C211.136 85.8322 216.344 84.178 220.203 82.3784C222.132 81.4787 223.74 80.5353 224.956 79.5489C226.168 78.5658 227.027 77.5114 227.396 76.3808L227.43 76.2773L227.417 76.1691C227.383 75.8656 227.191 75.6226 226.997 75.4427C226.792 75.2525 226.515 75.068 226.181 74.8878C225.513 74.5263 224.543 74.1427 223.271 73.7538C220.723 72.9743 216.894 72.1523 211.668 71.4501Z" fill="black"/>
<path opacity="0.2" d="M93.9311 84.4109C96.6809 91.5094 114.341 95.0709 151.621 94.5709C142.511 92.4009 118.381 87.8109 115.751 85.4709C110.501 80.7909 116.391 76.2009 112.181 77.2009C101.401 79.7609 94.0511 83.8309 93.9411 84.4209L93.9311 84.4109Z" fill="black"/>
</g>
<path d="M380.087 525.499C411.087 562.499 355.087 579.499 338.087 553.499C317.827 522.519 277.087 493.499 243.087 465.499C213.287 440.959 216.547 419.539 177.117 407.389C137.727 401.629 99.7275 401.019 97.1375 350.749C97.0875 338.129 98.7875 325.609 103.747 314.199C119.957 276.939 110.317 180.169 105.007 141.669C104.637 139.489 104.277 137.139 102.517 135.829C90.3775 123.429 90.1275 101.979 93.7375 85.8794C111.287 100.499 211.197 93.5094 227.157 76.8594C233.407 88.9494 235.197 107.189 229.977 120.189C226.807 174.559 231.977 269.819 284.817 309.689C314.457 332.639 327.557 348.529 336.037 357.099C372.077 393.509 360.077 396.509 441.077 474.509C452.287 485.299 436.077 520.509 404.077 494.509C443.077 526.509 403.077 552.509 380.077 525.509L380.087 525.499Z" fill="#E1E6AE"/>
<path fill-rule="evenodd" clip-rule="evenodd" d="M227.281 76.0078L226.797 76.5127C224.874 78.5183 221.645 80.4165 217.373 82.1635C213.112 83.9062 207.859 85.4808 201.932 86.8612C190.079 89.622 175.574 91.5968 161.01 92.5961C146.446 93.5954 131.841 93.618 119.791 92.4807C113.766 91.9121 108.39 91.0544 103.983 89.8882C99.5637 88.719 96.1673 87.252 94.0576 85.4945L93.4288 84.9707L93.2497 85.7693C91.4349 93.8629 90.5878 103.31 91.7253 112.304C92.8626 121.296 95.9894 129.875 102.16 136.178L102.188 136.206L102.219 136.23C102.992 136.805 103.475 137.619 103.812 138.587C104.137 139.52 104.312 140.556 104.49 141.609L104.512 141.737C104.513 141.74 104.513 141.742 104.513 141.745C107.167 160.985 110.901 194.779 111.948 228.414C112.471 245.234 112.322 262.006 111.032 276.893C109.74 291.789 107.309 304.759 103.289 313.999C98.2928 325.493 96.5875 338.087 96.6376 350.751L96.6377 350.763L96.6383 350.774C97.289 363.404 100.166 372.956 104.765 380.263C109.366 387.572 115.668 392.599 123.109 396.21C130.543 399.817 139.119 402.014 148.278 403.67C154.378 404.773 160.761 405.639 167.248 406.519C170.482 406.958 173.743 407.401 177.007 407.878C196.585 413.918 205.54 422.239 213.321 432.107C215.135 434.407 216.888 436.797 218.7 439.267C224.68 447.419 231.292 456.433 242.77 465.885C249.324 471.282 256.119 476.711 262.967 482.181C273.907 490.919 284.979 499.765 295.414 508.76C312.372 523.38 327.579 538.343 337.669 553.772C346.34 567.033 364.885 569.277 377.296 563.578C383.524 560.718 388.293 555.823 389.486 549.228C390.445 543.928 389.078 537.621 384.446 530.509C395.392 539.461 408.481 538.901 415.66 532.507C419.797 528.823 421.916 523.233 420.504 516.546C419.417 511.394 416.242 505.615 410.332 499.544C415.731 502.78 420.616 504.232 424.919 504.37C430.916 504.561 435.726 502.196 439.141 498.652C442.549 495.116 444.569 490.409 445.023 485.892C445.476 481.381 444.371 476.985 441.424 474.149C400.937 435.16 383.704 414.928 372.093 399.902C369.407 396.425 367.018 393.223 364.71 390.128C357.044 379.849 350.265 370.762 336.393 356.747C334.821 355.158 333.087 353.314 331.115 351.217C322.479 342.033 309.283 328 285.124 309.293L285.119 309.29C258.842 289.462 244.375 255.823 236.883 220.273C229.402 184.772 228.894 147.451 230.472 120.299C235.716 107.151 233.897 88.8066 227.602 76.6291L227.281 76.0078ZM380.125 526.327C379.982 526.164 379.839 526 379.697 525.833L379.398 525.482L380.12 524.759L380.471 525.178C380.611 525.345 380.75 525.513 380.887 525.68C392.204 538.522 407.347 538.572 414.995 531.76C418.858 528.32 420.865 523.097 419.526 516.753C418.183 510.388 413.46 502.854 403.76 494.895L404.393 494.121C412.338 500.576 419.249 503.188 424.951 503.37C430.643 503.552 435.186 501.315 438.421 497.958C441.665 494.592 443.595 490.099 444.028 485.792C444.461 481.479 443.389 477.427 440.731 474.869C400.219 435.857 382.951 415.589 371.302 400.513C368.601 397.018 366.205 393.805 363.893 390.706C356.235 380.439 349.502 371.412 335.682 357.45C334.099 355.85 332.357 353.998 330.38 351.895C321.741 342.709 308.603 328.738 284.514 310.086C257.953 290.043 243.415 256.118 235.905 220.479C228.391 184.826 227.892 147.371 229.478 120.16L229.483 120.078L229.514 120.002C234.586 107.371 232.963 89.6726 227.021 77.6961C224.928 79.6606 221.737 81.459 217.752 83.0891C213.425 84.8584 208.117 86.4474 202.159 87.8352C190.241 90.611 175.68 92.5918 161.078 93.5938C146.476 94.5957 131.815 94.62 119.697 93.4763C113.639 92.9045 108.205 92.0398 103.727 90.8549C99.6579 89.7783 96.3372 88.4271 94.0562 86.7605C92.379 94.5908 91.6332 103.606 92.7174 112.178C93.836 121.023 96.8968 129.357 102.848 135.452C103.816 136.185 104.384 137.19 104.756 138.258C105.11 139.274 105.298 140.385 105.472 141.416L105.501 141.585L105.502 141.593L105.503 141.6C108.16 160.862 111.899 194.698 112.947 228.383C113.471 245.226 113.323 262.039 112.028 276.979C110.734 291.909 108.291 305.008 104.206 314.398C99.2841 325.721 97.5889 338.162 97.6376 350.735C98.2831 363.234 101.127 372.606 105.611 379.73C110.095 386.853 116.24 391.765 123.546 395.31C130.859 398.859 139.331 401.036 148.456 402.686C154.535 403.785 160.879 404.646 167.353 405.524C170.605 405.966 173.89 406.411 177.19 406.894L177.228 406.9L177.265 406.911C197.091 413.02 206.215 421.48 214.107 431.488C215.95 433.825 217.722 436.241 219.545 438.725C225.515 446.862 232.034 455.748 243.405 465.113C249.934 470.489 256.719 475.91 263.564 481.377C274.518 490.128 285.623 498.999 296.067 508.002C313.043 522.638 328.337 537.675 338.506 553.225C346.836 565.964 364.79 568.22 376.879 562.669C382.901 559.904 387.383 555.237 388.502 549.05C389.601 542.974 387.482 535.295 380.125 526.327Z" fill="black"/>
<path fill-rule="evenodd" clip-rule="evenodd" d="M259.521 343.77C259.411 344.024 259.527 344.318 259.781 344.428C285.524 355.568 296.991 369.006 309.372 383.517C311.946 386.533 314.559 389.596 317.348 392.693L317.348 392.693C328.047 404.573 336.686 415.714 345.926 427.629C348.531 430.989 351.183 434.41 353.944 437.926C366.491 453.912 381.236 471.842 403.752 494.859C403.945 495.056 404.262 495.059 404.459 494.866C404.656 494.673 404.66 494.357 404.467 494.159C381.983 471.176 367.263 453.276 354.73 437.309C351.978 433.802 349.33 430.388 346.728 427.032C337.484 415.111 328.817 403.933 318.091 392.024C315.324 388.951 312.725 385.904 310.159 382.896C297.764 368.365 286.147 354.748 260.178 343.51C259.925 343.4 259.63 343.517 259.521 343.77Z" fill="black"/>
<path fill-rule="evenodd" clip-rule="evenodd" d="M207.03 360.932C206.97 361.201 207.141 361.468 207.411 361.527C228.591 366.187 253.126 381.126 282.713 412.83L283.078 412.489L282.713 412.83C293.924 424.842 303.206 436.53 313.731 449.782C316.333 453.058 319.011 456.43 321.813 459.927C335.944 477.56 353.205 498.322 379.718 525.836C379.91 526.035 380.226 526.041 380.425 525.849C380.624 525.658 380.63 525.341 380.438 525.142C353.952 497.656 336.712 476.918 322.593 459.301C319.798 455.814 317.124 452.447 314.525 449.173C303.997 435.917 294.685 424.192 283.444 412.148C253.79 380.372 229.086 365.272 207.626 360.551C207.356 360.492 207.089 360.662 207.03 360.932Z" fill="black"/>
<path d="M380.089 525.498C411.089 562.498 355.339 579.488 338.339 553.488C329.559 539.128 366.419 511.308 380.089 525.498Z" fill="#C3CE5F"/>
<path fill-rule="evenodd" clip-rule="evenodd" d="M338.798 540.819C336.324 545.298 335.582 549.938 337.913 553.749L337.916 553.755L337.921 553.762C346.591 567.022 365.073 569.27 377.424 563.572C383.621 560.713 388.358 555.818 389.527 549.224C390.695 542.636 388.276 534.491 380.472 525.177L380.461 525.164L380.449 525.151C376.88 521.446 371.823 520.519 366.485 521.372C361.149 522.224 355.463 524.86 350.506 528.379C345.549 531.899 341.278 536.332 338.798 540.819ZM379.717 525.833C376.452 522.453 371.78 521.539 366.643 522.36C361.497 523.181 355.954 525.738 351.085 529.195C346.216 532.651 342.063 536.979 339.674 541.303C337.281 545.633 336.706 549.853 338.762 553.221C347.094 565.955 364.982 568.21 377.005 562.664C382.994 559.901 387.445 555.235 388.542 549.05C389.639 542.863 387.405 535.013 379.717 525.833Z" fill="black"/>
<path d="M103.517 314.899C82.3266 375.209 110.777 404.529 172.097 406.679C191.877 338.429 166.697 310.199 103.517 314.899Z" fill="#C3CE5F"/>
<path fill-rule="evenodd" clip-rule="evenodd" d="M171.725 406.165C141.316 405.039 119.196 397.189 107.256 382.286C95.3236 367.394 93.4326 345.297 103.88 315.373C135.251 313.092 157.003 318.996 168.523 333.74C180.045 348.488 181.485 372.276 171.725 406.165ZM169.311 333.125C157.43 317.918 135.113 312.047 103.48 314.4L103.153 314.425L103.045 314.733C92.4237 344.963 94.1908 367.58 106.475 382.912C118.741 398.22 141.369 406.102 172.079 407.179L172.468 407.192L172.577 406.818C182.477 372.657 181.186 348.325 169.311 333.125Z" fill="black"/>
<path d="M440.96 474.359C452.17 485.149 435.96 520.359 403.96 494.359C395.36 487.069 428.56 457.819 440.96 474.359Z" fill="#C3CE5F"/>
<path fill-rule="evenodd" clip-rule="evenodd" d="M402.074 490.691C401.956 492.283 402.417 493.706 403.637 494.74L403.645 494.747L403.645 494.747C411.7 501.292 418.815 504.028 424.802 504.22C430.799 504.411 435.609 502.046 439.024 498.502C442.432 494.966 444.452 490.259 444.906 485.742C445.358 481.246 444.261 476.864 441.336 474.027C438.108 469.744 433.526 468.44 428.683 468.984C423.849 469.526 418.727 471.906 414.298 475.013C409.869 478.121 406.082 481.992 403.941 485.576C402.871 487.365 402.191 489.118 402.074 490.691ZM428.794 469.978C433.383 469.462 437.59 470.697 440.56 474.659L440.585 474.691L440.614 474.719C443.272 477.277 444.344 481.329 443.911 485.642C443.478 489.949 441.548 494.442 438.304 497.808C435.069 501.165 430.526 503.402 424.834 503.22C419.133 503.038 412.223 500.427 404.28 493.974C403.353 493.186 402.972 492.101 403.071 490.765C403.172 489.407 403.772 487.808 404.799 486.089C406.851 482.655 410.527 478.88 414.873 475.832C419.219 472.782 424.184 470.495 428.794 469.978Z" fill="black"/>
<path d="M403.959 494.363C442.959 526.363 402.829 552.233 379.829 525.233C365.979 511.503 396.399 487.873 403.959 494.363Z" fill="#C3CE5F"/>
<path fill-rule="evenodd" clip-rule="evenodd" d="M379.462 525.573C375.871 522.003 375.15 517.769 376.208 513.582C377.26 509.419 380.066 505.304 383.511 501.862C386.961 498.416 391.093 495.601 394.861 494.055C396.745 493.282 398.56 492.818 400.166 492.763C401.77 492.709 403.21 493.063 404.28 493.98C414.077 502.02 418.971 509.727 420.365 516.381C421.764 523.057 419.628 528.63 415.475 532.298C407.191 539.612 391.101 539.222 379.462 525.573ZM400.2 493.763C401.65 493.713 402.814 494.039 403.633 494.742L403.641 494.75L403.641 494.749C413.341 502.708 418.055 510.234 419.386 516.586C420.713 522.917 418.692 528.123 414.813 531.548C407.034 538.416 391.569 538.244 380.209 524.909L380.196 524.893L380.181 524.878C376.86 521.586 376.193 517.723 377.178 513.827C378.17 509.901 380.845 505.939 384.218 502.569C387.588 499.203 391.612 496.469 395.241 494.98C397.056 494.236 398.75 493.812 400.2 493.763Z" fill="black"/>
<path d="M161.699 93.4116C192.449 91.2616 218.239 84.4516 227.339 76.8516C233.609 89.0216 235.369 107.122 230.159 120.182C190.219 136.222 147.629 139.492 102.699 135.832C90.5787 123.482 90.2987 101.952 93.9187 85.8816C103.629 92.3316 130.459 95.6116 161.699 93.4216V93.4116Z" fill="#C3CE5F"/>
<path fill-rule="evenodd" clip-rule="evenodd" d="M227.497 76.0703L227.018 76.4704C222.559 80.1943 213.931 83.7752 202.514 86.6935C191.119 89.6062 177.014 91.8422 161.664 92.9154L161.199 92.9479V92.9576C145.781 94.0131 131.465 93.7325 119.792 92.3974C107.975 91.046 98.9441 88.6221 94.1953 85.4677L93.5905 85.0659L93.4309 85.7743C91.6109 93.8537 90.7689 103.313 91.9102 112.317C93.0511 121.319 96.1803 129.906 102.342 136.184L102.472 136.317L102.658 136.333C147.636 139.996 190.31 136.726 230.345 120.648L230.544 120.568L230.623 120.369C235.894 107.158 234.11 88.9062 227.783 76.6252L227.497 76.0703ZM227.172 77.6321C233.127 89.619 234.749 107.102 229.773 119.8C190.041 135.711 147.664 138.977 102.926 135.351C97.0524 129.291 94.0181 120.995 92.9022 112.191C91.8109 103.581 92.5603 94.5234 94.2531 86.6892C99.341 89.7884 108.312 92.0911 119.678 93.391C131.54 94.7475 146.088 95.0197 161.734 93.923L162.199 93.8904V93.8801C177.419 92.791 191.414 90.5627 202.761 87.6624C213.813 84.8375 222.416 81.3595 227.172 77.6321Z" fill="black"/>
<path opacity="0.2" d="M372.592 564.821C360.592 567.821 351.592 564.821 344.592 559.821C337.592 554.821 339.592 550.821 318.592 529.821C304.082 515.311 279.592 494.821 261.592 479.821C251.792 471.661 242.272 465.981 235.592 458.821C226.302 448.851 220.662 441.721 218.592 437.821C208.592 423.821 196.922 413.091 177.102 406.981C137.712 401.221 97.3621 400.721 96.8021 350.431C96.6621 337.811 99.0221 325.301 103.732 313.791C116.582 285.821 113.582 214.821 108.582 170.821C106.322 150.971 104.722 136.791 102.512 135.411C89.5821 122.821 90.9821 101.991 93.7321 85.4609C140.492 114.111 112.402 194.461 124.532 269.821C131.672 314.211 101.572 329.931 122.182 363.751C142.792 397.571 181.682 394.461 199.582 402.821C214.582 409.821 228.742 432.681 236.582 441.821C239.362 445.071 259.882 464.271 270.582 471.821C281.282 479.371 305.872 500.261 310.582 504.821C324.412 518.191 336.082 530.321 338.582 533.821C344.872 542.621 356.182 551.611 359.582 552.821C373.582 557.821 381.582 547.821 388.582 548.821C387.582 559.821 372.582 564.821 372.582 564.821H372.592Z" fill="black"/>
<path opacity="0.2" d="M380.08 525.489C327.08 470.489 311.08 442.489 283.08 412.489C253.46 380.749 226.42 364.199 207.52 361.039C210.99 359.489 234.52 369.379 240.25 372.849C255.38 382.039 273.16 396.179 293.81 420.369C320.84 452.039 348.99 491.619 375.01 516.739C379.46 521.039 391.76 525.489 399.39 527.369C407.02 529.249 414.72 522.469 420 524.459C414.66 539.929 397.59 535.929 397.04 535.949C390.37 536.169 380.09 525.499 380.09 525.499L380.08 525.489Z" fill="black"/>
<path opacity="0.2" d="M404.108 494.509C359.108 448.509 345.178 422.849 317.718 392.359C301.548 374.399 291.198 357.479 259.978 343.969C259.978 343.969 281.718 351.449 294.538 363.709C299.088 368.059 309.128 378.879 324.318 396.949C332.978 407.249 340.668 416.439 349.998 428.199C355.038 434.559 366.258 448.329 376.618 460.999C379.518 464.549 388.988 476.379 399.888 485.809C406.218 491.289 410.818 492.349 421.018 494.519C431.218 496.689 441.028 487.679 443.828 489.509C431.858 518.149 404.118 494.519 404.118 494.519L404.108 494.509Z" fill="black"/>
<path d="M146.556 178.68C144.528 178.988 148.649 194.29 143.329 206.173C140.996 211.377 137.954 222.453 139.077 224.619C141.334 228.984 145.117 221.349 148.191 218.078C152.988 212.97 154.744 204.92 154.798 203.773C155.376 191.561 148.42 178.404 146.556 178.69V178.68Z" fill="#F1F1E6" stroke="black" stroke-miterlimit="10"/>
<path opacity="0.2" d="M138.848 223.425C140.003 231.549 147.144 218.423 150.219 215.152C150.219 215.152 143.928 222.236 141.791 223.52C139.644 224.805 138.848 223.425 138.848 223.425Z" fill="black"/>
<path d="M126.465 183.633C99.9838 196.333 72.2924 211.243 74.7562 218.263C76.1626 222.298 86.7486 221.501 89.9865 222.425C107.866 227.491 145.021 189.08 140.234 180.426C139.766 179.587 138.861 178.673 136.953 178.121C133.432 179.969 129.943 181.806 126.465 183.633Z" fill="#F1F1E6" stroke="black" stroke-miterlimit="10"/>
<path d="M137.455 174.024C125.343 191.61 108.641 204.693 103.07 207.104C94.4133 210.842 80.7966 215.578 73.7211 211.15C67.4197 207.21 57.6295 204.842 57.2153 201.008C56.6483 195.805 73.3722 195.656 91.4262 190.537C104.934 186.704 115.007 179.27 138.916 168.184L142.121 172.973L137.466 174.024H137.455Z" fill="#F1F1E6" stroke="black" stroke-miterlimit="10"/>
<path opacity="0.2" d="M116.309 197.602C104 208.848 83.1661 219.159 66.0934 207.329C66.0934 207.329 71.4245 209.538 84.6815 209.697C97.7205 209.856 116.309 197.602 116.309 197.602Z" fill="black"/>
<path opacity="0.2" d="M121.637 208.316C113.613 214.157 104.509 222.079 94.9156 222.812C84.4277 221.389 81.5605 223.141 75.1064 218.957C78.377 220.731 79.9906 220.412 93.2039 220.338C106.068 220.263 121.626 208.316 121.626 208.316H121.637Z" fill="black"/>
<path d="M140.999 184.438C123.6 211.444 104.401 219.079 105.709 227.543C106.407 232.098 117.843 227.235 120.525 225.355C143.158 209.532 146.985 201.461 152.436 181.253C152.654 180.445 151.64 179.745 149.71 179.617C146.592 182.304 143.354 180.785 140.999 184.438Z" fill="#F1F1E6" stroke="black" stroke-miterlimit="10"/>
<path opacity="0.2" d="M105.22 227.307C107.128 233.721 125.771 225.396 136.945 211.145C136.945 211.145 125.095 220.67 117.093 224.132C109.276 227.52 105.22 227.307 105.22 227.307Z" fill="black"/>
<path d="M139.501 182.151C137.222 182.363 141.518 196.158 135.38 206.405C132.72 210.844 129.22 220.274 130.408 222.165C132.807 225.988 137.07 219.616 140.504 216.929C145.911 212.703 148.059 205.736 148.146 204.738C149.106 193.97 141.605 181.96 139.501 182.151Z" fill="#F1F1E6" stroke="black" stroke-miterlimit="10"/>
<path opacity="0.2" d="M130.248 221.013C131.611 226.79 137.062 219.622 140.507 216.935C145.915 212.709 144.486 213.282 145.816 210.574C145.816 210.574 142.262 213.303 138.85 216.203C136.866 217.891 134.413 220.333 133.486 220.663C130.957 221.555 130.248 221.013 130.248 221.013Z" fill="black"/>
<path d="M134.898 171.851C116.605 186.665 94.1354 194.63 87.1144 195.862C76.3213 197.752 64.5579 200.258 52.2167 190.743C45.3919 185.487 34.9586 179.062 35.2529 174.91C35.6454 169.271 55.0185 174.389 77.0844 174.708C93.7102 174.952 107.174 170.269 137.973 166.074L140.688 172.223L134.909 171.851H134.898Z" fill="#F1F1E6" stroke="black" stroke-miterlimit="10"/>
<path opacity="0.2" d="M109.237 187.809C77.7952 201.009 64.56 199.851 52.2078 190.325C45.3831 185.069 41.0986 183.72 37.6208 179.281C37.6208 179.281 49.2207 188.085 64.4182 192.948C76.3997 196.782 108.855 187.617 112.78 186.577C118.678 185.005 109.237 187.809 109.237 187.809Z" fill="black"/>
<path d="M131.717 160.245C110.708 173.095 86.0913 178.978 78.6124 179.307C71.7986 179.604 51.4661 178.648 42.2756 171.056C35.4182 165.385 25.0503 158.026 25.6935 153.98C26.5657 148.468 46.6147 155.296 69.9343 157.665C87.5522 159.449 102.314 156.093 135.609 154.819L137.844 161.148L131.717 160.245Z" fill="#F1F1E6" stroke="black" stroke-miterlimit="10"/>
<path opacity="0.2" d="M94.0948 176.262C78.0796 181.402 51.4566 178.651 42.277 171.059C35.4195 165.388 28.4967 159.218 25.782 155.172C25.782 155.172 37.9706 167.055 54.7381 173.225C64.5064 176.825 86.4415 175.274 94.8035 174.202C100.603 173.459 94.0839 176.262 94.0839 176.262H94.0948Z" fill="black"/>
<path d="M119.924 156.6C99.1004 149.007 91.7633 151.449 74.8432 142.327C68.4218 138.865 67.8767 137.644 58.0539 130.975C51.3927 126.451 10.0954 98.4052 5.58191 106.391C2.88908 111.148 11.9706 126.398 19.8964 135.807C37.6778 156.897 61.2809 162.1 80.1634 166.253C98.2501 170.235 98.2065 166.964 133.235 173.134C144.617 175.141 138.566 172.635 138.991 170.798C139.624 168.09 136.887 162.78 119.924 156.6Z" fill="#F1F1E6" stroke="black" stroke-miterlimit="10"/>
<path opacity="0.2" d="M7.11752 115.02C9.91937 122.177 11.9908 126.51 19.9275 135.919C37.7089 157.009 63.2853 164.187 102.468 169.741C102.468 169.741 105.062 169.264 94.629 166.768C76.9021 162.541 45.8528 154.439 34.6781 144.934C16.2317 129.26 7.12843 115.02 7.12843 115.02H7.11752Z" fill="black"/>
<path d="M114.608 140.997C94.4168 130.017 86.8071 131.248 70.6719 119.365C64.5449 114.852 64.1306 113.546 54.9074 105.273C48.6496 99.6663 9.92521 64.9302 4.55046 72.1302C1.34523 76.4204 8.92222 93.1248 15.9541 103.829C31.7404 127.85 55.0383 136.919 73.6591 144.172C91.4841 151.117 91.7675 147.825 126.393 159.719C137.633 163.574 131.8 160.091 132.4 158.317C133.294 155.716 131.048 149.949 114.608 141.008V140.997Z" fill="#F1F1E6" stroke="black" stroke-miterlimit="10"/>
<path opacity="0.2" d="M5.20777 80.9727C7.29008 88.5655 8.93629 93.2381 15.9682 103.942C31.7545 127.953 56.8512 139.337 95.7718 151.294C95.7718 151.294 98.4319 151.231 88.173 147.036C70.7405 139.91 40.2363 126.71 29.9229 115.369C12.9156 96.6682 5.19688 80.9727 5.19688 80.9727H5.20777Z" fill="black"/>
<path d="M103.353 126.947C84.5691 111.4 76.7196 110.858 62.1543 95.3538C56.6269 89.4707 56.398 88.0795 48.2868 77.7787C42.7921 70.7911 8.85376 27.6019 2.35609 33.4108C-1.52507 36.8727 3.63164 55.0744 9.14812 67.2761C21.5657 94.7167 43.806 109.117 61.5874 120.639C78.6056 131.662 79.3579 128.455 112.598 148.26C123.392 154.685 131.546 159.92 132.408 158.327C134.708 154.037 118.66 139.637 103.353 126.968V126.947Z" fill="#F1F1E6" stroke="black" stroke-miterlimit="10"/>
<path opacity="0.2" d="M1.70329 42.2617C2.67358 50.2263 3.64387 55.2068 9.16035 67.3979C21.5779 94.8278 45.3009 111.946 82.9133 132.835C82.9133 132.835 85.6061 133.387 75.8487 126.845C59.2557 115.737 30.3432 95.5712 21.5779 81.9465C7.15435 59.5183 1.70329 42.2617 1.70329 42.2617Z" fill="black"/>
<path d="M116.369 127.771C85.9415 105.885 66.5357 84.1257 54.3253 68.0372C37.9067 46.4161 26.6448 24.7737 22.4475 27.1843C19.3731 28.9578 21.8042 42.6144 24.5407 51.4816C29.4575 67.4426 35.2248 78.7204 44.0119 88.4796C49.6701 94.7557 72.7063 115.485 96.3748 126.37C101.226 128.6 108.454 131.382 117.111 138.869C126.432 146.918 129.888 153.874 131.774 152.961C134.489 151.644 132.101 135.014 123.423 129.534C120.708 127.814 118.081 127.655 116.358 127.771H116.369Z" fill="#F1F1E6" stroke="black" stroke-miterlimit="10"/>
<path opacity="0.2" d="M22.9499 43.8242C24.28 50.6844 24.8251 53.9127 25.9589 56.6312C31.9333 70.9356 37.3408 81.5656 45.9316 90.6346C51.4699 96.4753 73.1325 116.206 96.3867 126.369C96.3867 126.369 54.1628 98.6841 40.655 77.8701C26.8093 56.525 22.9499 43.8242 22.9499 43.8242Z" fill="black"/>
<path d="M147.686 176.966C145.004 175.681 139.716 183.932 137.154 189.486C136.783 190.283 131.627 201.624 134.156 203.695C136.38 205.522 144.764 200.339 147.936 191.929C150.171 186.003 149.975 178.06 147.686 176.966Z" fill="#F1F1E6" stroke="black" stroke-miterlimit="10"/>
<path opacity="0.2" d="M133.568 200.205C132.881 207.968 141.81 201.554 145.004 197.242C145.004 197.242 142.671 199.833 138.288 201.331C133.906 202.828 133.568 200.205 133.568 200.205Z" fill="black"/>
<path d="M153.379 184.556C151.275 183.557 147.1 190.078 145.083 194.463C144.799 195.09 140.733 204.042 142.706 205.678C144.45 207.122 151.046 203.012 153.554 196.364C155.32 191.681 155.167 185.405 153.368 184.556H153.379Z" fill="#F1F1E6" stroke="black" stroke-miterlimit="10"/>
<path opacity="0.2" d="M142.256 202.928C141.711 209.055 148.732 203.979 151.25 200.57C151.25 200.57 149.408 202.62 145.962 203.809C142.517 204.999 142.256 202.928 142.256 202.928Z" fill="black"/>
<path d="M160.061 189.124C158.415 188.094 154.621 193 152.702 196.366C152.43 196.844 148.559 203.747 150.053 205.276C151.372 206.635 156.987 203.948 159.451 198.777C161.184 195.134 161.467 189.995 160.061 189.124Z" fill="#F1F1E6" stroke="black" stroke-miterlimit="10"/>
<path opacity="0.2" d="M149.858 202.978C149.018 207.926 155.036 204.496 157.293 201.969C157.293 201.969 155.669 203.455 152.801 204.082C149.934 204.709 149.858 202.978 149.858 202.978Z" fill="black"/>
<path d="M141.655 181.86C139.475 179.906 132.17 184.568 128.224 188.051C127.657 188.551 119.676 195.655 121.486 198.172C123.089 200.381 132.399 199.234 137.72 193.743C141.481 189.867 143.509 183.528 141.655 181.86Z" fill="#F1F1E6" stroke="black" stroke-miterlimit="10"/>
<path opacity="0.2" d="M121.282 195.98C120.89 201.311 132.402 199.24 137.723 193.75C137.723 193.75 131.203 197.446 126.94 197.35C122.656 197.254 121.282 195.98 121.282 195.98Z" fill="black"/>
<path d="M138.784 170.81C124.774 172.276 117.077 175.058 111.212 177.883C108.672 179.115 104.529 184.18 105.26 185.922C106.132 188.003 112.717 189.108 116.598 189.373C121.406 189.702 135.011 190.35 140.484 176.332C141.084 174.793 141.455 173.412 141.684 172.467L138.773 170.789L138.784 170.81Z" fill="#F1F1E6" stroke="black" stroke-miterlimit="10"/>
<path opacity="0.2" d="M105.15 185.145C106.207 187.714 115.594 192.366 131.348 186.971C131.348 186.971 122.342 188.15 116.194 187.247C109.99 186.323 105.15 185.155 105.15 185.155V185.145Z" fill="black"/>
<path d="M135.476 164.506C118.261 166.375 92.3687 173.458 93.4153 178.927C93.8187 181.062 101.777 180.117 106.182 181.317C113.562 183.334 125.762 178.46 133.797 173.235C135.236 172.301 137.656 170.326 138.125 169.423C137.122 168.765 136.588 164.389 135.476 164.506Z" fill="#F1F1E6" stroke="black" stroke-miterlimit="10"/>
<path opacity="0.2" d="M93.7179 177.496C92.8022 181.245 101.709 180.576 106.179 181.308C113.484 182.487 110.943 181.765 117.07 180.735C117.07 180.735 109.482 180.969 105.798 179.928C102.091 178.877 94.7209 179.62 93.7179 177.496Z" fill="black"/>
<path d="M131.902 157.434C114.252 156.032 103.797 157.317 95.8927 158.591C92.4694 159.143 86.5387 161.979 86.833 163.763C87.1819 165.897 94.748 167.278 99.1306 169.614C105.683 173.108 120.717 174.839 132.055 163.03C133.309 161.724 134.236 160.513 134.824 159.685C133.843 158.931 132.873 158.177 131.892 157.423L131.902 157.434Z" fill="#F1F1E6" stroke="black" stroke-miterlimit="10"/>
<path opacity="0.2" d="M86.8216 162.973C86.3092 164.332 93.5046 168.091 100.515 170.279C107.95 172.604 121.218 171.638 116.05 171.755C110.85 171.882 104.505 170.47 100.177 168.112C95.8158 165.744 87.7265 164.236 86.8216 162.973Z" fill="black"/>
<path d="M109.55 151.401C102.704 151.316 82.5895 147.068 81.9244 149.84C81.2594 152.612 90.6789 157.125 95.1923 158.654C100.785 160.555 114.173 164.389 129.033 157.815C130.657 157.093 130.984 152.282 131.605 151.475C130.646 150.615 116.342 151.486 109.561 151.401H109.55Z" fill="#F1F1E6" stroke="black" stroke-miterlimit="10"/>
<path opacity="0.2" d="M82.3292 150.602C82.6781 153.087 90.4622 156.75 94.9648 158.29C100.558 160.191 103.043 161.943 108.68 161.253C108.68 161.253 103 160.913 93.7765 156.495C84.4224 152.014 84.8149 152.269 82.3292 150.602Z" fill="black"/>
<path d="M119.721 143.264C95.8669 138.177 75.0874 135.469 75.3163 140.152C75.4472 142.828 84.4196 147.724 86.9162 148.478C110.988 155.752 128.77 153.055 131.277 150.188C131.604 149.816 130.612 146.152 129.282 145.037C126.077 144.443 122.893 143.859 119.721 143.275V143.264Z" fill="#F1F1E6" stroke="black" stroke-miterlimit="10"/>
<path opacity="0.2" d="M75.3228 139.621C75.3991 143.572 85.8652 150.623 107.168 152.407C107.168 152.407 91.4035 149.147 84.6769 145.664C77.8848 142.149 75.3228 139.632 75.3228 139.632V139.621Z" fill="black"/>
<path d="M120.062 137.042C94.4206 124.182 71.3299 116.366 69.9453 121.272C69.1604 124.076 77.664 133.134 80.2369 134.685C105.192 149.733 126.342 145.708 130.321 143.563C130.834 143.287 131.161 136.734 130.038 135.163C126.538 133.506 123.497 138.646 120.052 137.032L120.062 137.042Z" fill="#F1F1E6" stroke="black" stroke-miterlimit="10"/>
<path opacity="0.2" d="M69.948 121.27C71.9867 130.339 86.4975 142.806 110.766 145.057C110.766 145.057 89.2121 138.42 82.202 133.376C75.2247 128.353 70.951 124.116 69.948 121.27Z" fill="black"/>
<path d="M119.72 126.924C95.0702 109.869 72.6009 96.5843 70.2678 101.066C68.9486 103.614 74.3779 113.671 76.4166 116.209C96.6728 141.292 125.858 138.181 130.437 136.864C131.036 136.694 130.622 135.197 129.739 133.508C126.381 131.299 123.034 129.112 119.709 126.924H119.72Z" fill="#F1F1E6" stroke="black" stroke-miterlimit="10"/>
<path opacity="0.2" d="M70.2669 101.054C70.4304 110.069 82.6408 133.443 116.906 137.531C116.906 137.531 101.436 132.869 90.2614 125.807C86.4893 123.429 80.3514 117.567 79.1303 115.942C74.2353 109.422 71.5098 105.769 70.2669 101.043V101.054Z" fill="black"/>
<path d="M115.844 116.386C103.1 110.376 93.9854 103.654 88.0873 98.6943C77.0762 89.4554 67.9075 78.5598 66.4902 80.0997C66.1631 80.4607 66.2504 81.4908 67.3733 84.1244C71.8105 94.5208 79.9653 100.553 84.6423 104.1C104.593 119.232 106.468 121.08 110.11 124.786C118.581 133.42 124.86 131.041 126.496 134.291C130.693 142.669 129.079 135.129 130.061 135.151C131.598 135.193 131.249 143.02 126.474 130.383C124.915 126.273 123.105 123.013 121.677 120.751C119.725 119.285 117.796 117.83 115.855 116.386H115.844Z" fill="#F1F1E6" stroke="black" stroke-miterlimit="10"/>
<path opacity="0.2" d="M66.3928 79.9336C66.0657 80.2947 66.1638 80.2947 67.3631 83.9796C71.7893 97.53 96.7116 112.758 101.258 116.21C101.258 116.21 83.1712 100.78 77.4912 94.6946C71.7457 88.5566 66.3928 79.9336 66.3928 79.9336Z" fill="black"/>
<path d="M102.216 94.5441C102.369 94.4379 106.087 101.967 113.238 110.325C120.794 119.139 123.519 118.788 127.509 125.011C132.622 132.976 131.162 138.19 134.127 149.011C136.046 155.988 137.06 162.912 146.25 172.745C155.233 182.345 157.054 181.411 161.655 191.287C163.072 194.335 163.694 199.113 161.906 200.43C161.262 200.908 159.093 201.821 150.164 194.494C141.006 186.975 135.446 182.473 129.788 164.6C126.408 153.928 129.613 152.654 125.231 139.379C123.279 133.454 120.805 128.654 115.964 119.33C108.583 105.11 102.02 94.6715 102.205 94.5441H102.216Z" fill="#F1F1E6" stroke="black" stroke-miterlimit="10"/>
<path opacity="0.2" d="M162.766 199.103C161.763 201.089 159.103 201.832 150.174 194.505C141.016 186.986 135.456 182.483 129.798 164.611C126.418 153.938 129.623 152.664 125.24 139.39C123.289 133.464 120.814 128.664 115.974 119.34C108.593 105.121 102.03 94.6821 102.215 94.5547C102.215 94.5547 114.458 111.992 117.773 118.268C121.054 124.501 127.672 135.312 129.59 149.075C130.146 153.036 130.713 162.466 133.45 168.593C134.714 171.429 135.892 174.699 137.702 177.779C139.239 180.37 141.365 182.802 143.011 184.99C148.702 192.551 155.112 196.65 158.972 198.423C160.945 199.326 162.766 199.113 162.766 199.113V199.103Z" fill="black"/>
<defs>
<clipPath id="clip0_4775_428544">
<rect width="133.99" height="24.99" fill="white" transform="matrix(-1 0 0 1 227.43 69.6484)"/>
</clipPath>
</defs>
</svg>
