<svg width="376" height="498" viewBox="0 0 376 498" fill="none" xmlns="http://www.w3.org/2000/svg">
<g clip-path="url(#clip0_4775_423472)">
<path d="M2.93796 16.0857C9.98796 33.4157 130.678 23.2757 135.918 7.22567C135.688 5.20567 116.778 -0.254331 71.478 1.48567C26.178 3.21567 2.93796 13.4457 2.93796 16.0857Z" fill="#EAA252"/>
<path fill-rule="evenodd" clip-rule="evenodd" d="M135.383 7.24389C135.065 8.06551 134.386 8.9125 133.326 9.77217C132.195 10.6891 130.666 11.5924 128.78 12.4721C125.008 14.2315 119.872 15.8672 113.806 17.3321C101.678 20.2608 85.9086 22.4884 70.072 23.6746C54.2346 24.8608 38.3549 25.0036 26.0057 23.7719C19.8284 23.1557 14.5577 22.1978 10.6242 20.8653C8.65761 20.1991 7.0432 19.4453 5.82126 18.6062C4.65474 17.8052 3.87048 16.9437 3.4606 16.0303C3.48047 15.9873 3.52003 15.919 3.59877 15.8233C3.74419 15.6465 3.98064 15.4281 4.32507 15.1732C5.01187 14.6649 6.0639 14.0581 7.4924 13.3864C10.3448 12.0451 14.636 10.4739 20.3537 8.92707C31.7855 5.83431 48.8827 2.84904 71.4997 1.98531L71.4998 1.9853C94.1289 1.1161 110.152 2.04595 120.535 3.44122C125.729 4.13909 129.501 4.95199 131.979 5.71005C133.22 6.08984 134.12 6.45066 134.706 6.76755C135 6.92664 135.197 7.06485 135.317 7.17569C135.346 7.20262 135.367 7.22537 135.383 7.24389ZM120.668 2.45012C110.214 1.04539 94.1323 0.115239 71.4615 0.986034C48.7785 1.8523 31.6056 4.84703 20.0925 7.96177C14.3376 9.51868 9.98759 11.1081 7.06686 12.4815C5.6088 13.1671 4.49129 13.8062 3.73019 14.3694C3.35069 14.6503 3.04361 14.9241 2.82648 15.188C2.61928 15.4399 2.44057 15.7471 2.44057 16.0857V16.1835L2.47742 16.2741C2.96693 17.4774 3.93317 18.5228 5.2552 19.4306C6.57828 20.3391 8.28484 21.1287 10.3033 21.8124C14.3399 23.1798 19.6957 24.1475 25.9064 24.767C38.3331 26.0064 54.2752 25.8605 70.1467 24.6718C86.0188 23.4829 101.845 21.2493 114.041 18.3042C120.136 16.8322 125.344 15.178 129.203 13.3784C131.132 12.4787 132.74 11.5353 133.956 10.5489C135.168 9.56578 136.027 8.51144 136.396 7.38085L136.43 7.27732L136.417 7.1691C136.383 6.86559 136.191 6.62258 135.997 6.44272C135.792 6.25251 135.515 6.06798 135.181 5.88785C134.513 5.5263 133.543 5.14275 132.271 4.75379C129.723 3.97435 125.894 3.15225 120.668 2.45012Z" fill="black"/>
<path opacity="0.2" d="M2.93109 15.4109C5.68088 22.5094 23.3411 26.0709 60.6211 25.5709C51.5111 23.4009 27.3811 18.8109 24.7511 16.4709C19.5011 11.7909 25.3911 7.20089 21.1811 8.20089C10.4011 10.7609 3.05109 14.8309 2.94109 15.4209L2.93109 15.4109Z" fill="black"/>
</g>
<path d="M289.087 456.499C320.087 493.499 264.087 510.499 247.087 484.499C226.827 453.519 186.087 424.499 152.087 396.499C122.287 371.959 125.547 350.539 86.1175 338.389C46.7275 332.629 8.72748 332.019 6.13748 281.749C6.08749 269.129 7.78748 256.609 12.7475 245.199C28.9575 207.939 19.3175 111.169 14.0075 72.6694C13.6375 70.4894 13.2775 68.1394 11.5175 66.8294C-0.622528 54.4294 -0.872528 32.9794 2.73746 16.8794C20.2874 31.4994 120.197 24.5094 136.157 7.85938C142.407 19.9494 144.197 38.1894 138.977 51.1894C135.807 105.559 140.977 200.819 193.817 240.689C223.457 263.639 236.557 279.529 245.037 288.099C281.077 324.509 269.077 327.509 350.077 405.509C361.287 416.299 345.077 451.509 313.077 425.509C352.077 457.509 312.077 483.509 289.077 456.509L289.087 456.499Z" fill="#F5D3AD"/>
<path fill-rule="evenodd" clip-rule="evenodd" d="M136.281 7.00781L135.797 7.51269C133.874 9.51828 130.645 11.4165 126.373 13.1635C122.112 14.9062 116.859 16.4808 110.932 17.8612C99.0794 20.622 84.5735 22.5968 70.0096 23.5961C55.4456 24.5954 40.841 24.618 28.791 23.4807C22.7655 22.9121 17.3899 22.0544 12.9825 20.8882C8.56366 19.719 5.16733 18.252 3.05765 16.4945L2.4288 15.9707L2.24973 16.7693C0.434937 24.8629 -0.41217 34.3098 0.725311 43.3039C1.86258 52.2961 4.98941 60.8754 11.1604 67.1785L11.1877 67.2064L11.2191 67.2298C11.9915 67.8047 12.475 68.6193 12.8116 69.5868C13.1366 70.5204 13.3119 71.5555 13.4904 72.6089L13.5123 72.737C13.5127 72.7396 13.5131 72.7423 13.5134 72.7449C16.1668 91.9848 19.9012 125.779 20.9479 159.414C21.4713 176.234 21.3222 193.006 20.0317 207.893C18.7403 222.789 16.309 235.759 12.2891 244.999C7.29276 256.493 5.58746 269.087 5.63763 281.751L5.6377 281.763L5.63831 281.774C6.289 294.404 9.16605 303.956 13.7648 311.263C18.3657 318.572 24.668 323.599 32.1093 327.21C39.5433 330.817 48.1188 333.014 57.2784 334.67C63.3778 335.773 69.7606 336.639 76.2482 337.519C79.4825 337.958 82.7428 338.401 86.0071 338.878C105.585 344.918 114.54 353.239 122.321 363.107C124.135 365.407 125.888 367.797 127.7 370.267C133.68 378.419 140.292 387.433 151.77 396.885C158.324 402.282 165.119 407.711 171.967 413.181C182.907 421.919 193.979 430.765 204.414 439.76C221.372 454.38 236.579 469.343 246.669 484.772C255.34 498.033 273.885 500.277 286.296 494.578C292.524 491.718 297.293 486.823 298.486 480.228C299.445 474.928 298.078 468.621 293.446 461.509C304.392 470.461 317.481 469.901 324.66 463.507C328.797 459.823 330.916 454.233 329.504 447.546C328.417 442.394 325.242 436.615 319.332 430.544C324.731 433.78 329.616 435.232 333.919 435.37C339.916 435.561 344.726 433.196 348.141 429.652C351.549 426.116 353.569 421.409 354.023 416.892C354.476 412.381 353.371 407.985 350.424 405.149C309.937 366.16 292.704 345.928 281.093 330.902C278.407 327.425 276.018 324.223 273.71 321.128C266.044 310.849 259.265 301.762 245.393 287.747C243.821 286.158 242.087 284.314 240.115 282.217C231.479 273.033 218.283 259 194.124 240.293L194.119 240.29C167.842 220.462 153.375 186.823 145.883 151.273C138.402 115.772 137.894 78.4508 139.472 51.2989C144.716 38.1514 142.897 19.8066 136.602 7.62907L136.281 7.00781ZM289.125 457.327C288.982 457.164 288.839 457 288.697 456.833L288.398 456.482L289.12 455.759L289.471 456.178C289.611 456.345 289.75 456.513 289.887 456.68C301.204 469.522 316.347 469.572 323.995 462.76C327.858 459.32 329.865 454.097 328.526 447.753C327.183 441.388 322.46 433.854 312.76 425.895L313.393 425.121C321.338 431.576 328.249 434.188 333.951 434.37C339.643 434.552 344.186 432.315 347.421 428.958C350.665 425.592 352.595 421.099 353.028 416.792C353.461 412.479 352.389 408.427 349.731 405.869C309.219 366.857 291.951 346.589 280.302 331.513C277.601 328.018 275.205 324.805 272.893 321.706C265.235 311.439 258.502 302.412 244.682 288.45C243.099 286.85 241.357 284.998 239.38 282.895C230.741 273.709 217.603 259.738 193.514 241.086C166.953 221.043 152.415 187.118 144.905 151.479C137.391 115.826 136.892 78.3709 138.478 51.1596L138.483 51.0781L138.514 51.0024C143.586 38.3707 141.963 20.6726 136.021 8.69613C133.928 10.6606 130.737 12.459 126.752 14.0891C122.425 15.8584 117.117 17.4474 111.159 18.8352C99.2414 21.611 84.6805 23.5918 70.0781 24.5938C55.4759 25.5957 40.8148 25.62 28.6971 24.4763C22.6386 23.9045 17.2047 23.0398 12.7268 21.8549C8.6579 20.7783 5.33719 19.4271 3.05618 17.7605C1.379 25.5908 0.63324 34.6059 1.71744 43.1784C2.83603 52.0231 5.89679 60.3573 11.8484 66.4518C12.8163 67.1848 13.3844 68.1898 13.7561 69.2581C14.1095 70.2737 14.2976 71.3852 14.4719 72.4158L14.5006 72.585L14.5019 72.5927L14.5029 72.6004C17.1595 91.8619 20.8992 125.698 21.9474 159.383C22.4715 176.226 22.323 193.039 21.028 207.979C19.7337 222.909 17.2912 236.008 13.2061 245.398C8.28409 256.721 6.58887 269.162 6.6376 281.735C7.28314 294.234 10.1269 303.606 14.6111 310.73C19.0945 317.853 25.2397 322.765 32.5459 326.31C39.8595 329.859 48.3315 332.036 57.4562 333.686C63.5351 334.785 69.8795 335.646 76.3535 336.524C79.6053 336.966 82.8899 337.411 86.19 337.894L86.2281 337.9L86.2649 337.911C106.091 344.02 115.215 352.48 123.107 362.488C124.95 364.825 126.722 367.241 128.545 369.725C134.515 377.862 141.034 386.748 152.405 396.113C158.934 401.489 165.719 406.91 172.564 412.377C183.518 421.128 194.623 429.999 205.067 439.002C222.043 453.638 237.337 468.675 247.506 484.225C255.836 496.964 273.79 499.22 285.879 493.669C291.901 490.904 296.383 486.237 297.502 480.05C298.601 473.974 296.482 466.295 289.125 457.327Z" fill="black"/>
<path fill-rule="evenodd" clip-rule="evenodd" d="M168.521 274.77C168.411 275.024 168.527 275.318 168.781 275.428C194.524 286.568 205.991 300.006 218.372 314.517C220.946 317.533 223.559 320.596 226.348 323.693L226.348 323.693C237.047 335.573 245.686 346.714 254.926 358.629C257.531 361.989 260.183 365.41 262.944 368.926C275.491 384.912 290.236 402.842 312.752 425.859C312.945 426.056 313.262 426.059 313.459 425.866C313.656 425.673 313.66 425.357 313.467 425.159C290.983 402.176 276.263 384.276 263.73 368.309C260.978 364.802 258.33 361.388 255.728 358.032C246.484 346.111 237.817 334.933 227.091 323.024C224.324 319.951 221.725 316.904 219.159 313.896C206.764 299.365 195.147 285.748 169.178 274.51C168.925 274.4 168.63 274.517 168.521 274.77Z" fill="black"/>
<path fill-rule="evenodd" clip-rule="evenodd" d="M116.03 291.932C115.97 292.201 116.141 292.468 116.411 292.527C137.591 297.187 162.126 312.126 191.713 343.83L192.078 343.489L191.713 343.83C202.924 355.842 212.206 367.53 222.731 380.782C225.333 384.058 228.011 387.43 230.813 390.927C244.944 408.56 262.205 429.322 288.718 456.836C288.91 457.035 289.226 457.041 289.425 456.849C289.624 456.658 289.63 456.341 289.438 456.142C262.952 428.656 245.712 407.918 231.593 390.301C228.798 386.814 226.124 383.447 223.525 380.173C212.997 366.917 203.685 355.192 192.444 343.148C162.79 311.372 138.086 296.272 116.626 291.551C116.356 291.492 116.089 291.662 116.03 291.932Z" fill="black"/>
<path d="M289.089 456.498C320.089 493.498 264.339 510.488 247.339 484.488C238.559 470.128 275.419 442.308 289.089 456.498Z" fill="#EAA252"/>
<path fill-rule="evenodd" clip-rule="evenodd" d="M247.798 471.819C245.324 476.298 244.582 480.938 246.913 484.749L246.916 484.755L246.921 484.762C255.591 498.022 274.073 500.27 286.424 494.572C292.621 491.713 297.358 486.818 298.527 480.224C299.695 473.636 297.276 465.491 289.472 456.177L289.461 456.164L289.449 456.151C285.88 452.446 280.823 451.519 275.485 452.372C270.149 453.224 264.463 455.86 259.506 459.379C254.549 462.899 250.278 467.332 247.798 471.819ZM288.717 456.833C285.452 453.453 280.78 452.539 275.643 453.36C270.497 454.181 264.954 456.738 260.085 460.195C255.216 463.651 251.063 467.979 248.674 472.303C246.281 476.633 245.706 480.853 247.762 484.221C256.094 496.955 273.982 499.21 286.005 493.664C291.994 490.901 296.445 486.235 297.542 480.05C298.639 473.863 296.405 466.013 288.717 456.833Z" fill="black"/>
<path d="M12.5166 245.899C-8.67342 306.209 19.7766 335.529 81.0966 337.679C100.877 269.429 75.6966 241.199 12.5166 245.899Z" fill="#EAA252"/>
<path fill-rule="evenodd" clip-rule="evenodd" d="M80.7247 337.165C50.3155 336.039 28.1961 328.189 16.2556 313.286C4.32357 298.394 2.43256 276.297 12.8802 246.373C44.2514 244.092 66.0034 249.996 77.5227 264.74C89.0446 279.488 90.4854 303.276 80.7247 337.165ZM78.3107 264.125C66.4299 248.918 44.1129 243.047 12.4796 245.4L12.1534 245.425L12.045 245.733C1.42371 275.963 3.19083 298.58 15.4752 313.912C27.7413 329.22 50.369 337.102 81.0792 338.179L81.4685 338.192L81.5769 337.818C91.4775 303.657 90.1864 279.325 78.3107 264.125Z" fill="black"/>
<path d="M349.96 405.359C361.17 416.149 344.96 451.359 312.96 425.359C304.36 418.069 337.56 388.819 349.96 405.359Z" fill="#EAA252"/>
<path fill-rule="evenodd" clip-rule="evenodd" d="M311.074 421.691C310.956 423.283 311.417 424.706 312.637 425.74L312.645 425.747L312.645 425.747C320.7 432.292 327.815 435.028 333.802 435.22C339.799 435.411 344.609 433.046 348.024 429.502C351.432 425.966 353.452 421.259 353.906 416.742C354.358 412.246 353.261 407.864 350.336 405.027C347.108 400.744 342.526 399.44 337.683 399.984C332.849 400.526 327.727 402.906 323.298 406.013C318.869 409.121 315.082 412.992 312.941 416.576C311.871 418.365 311.191 420.118 311.074 421.691ZM337.794 400.978C342.383 400.462 346.59 401.697 349.56 405.659L349.585 405.691L349.614 405.719C352.272 408.277 353.344 412.329 352.911 416.642C352.478 420.949 350.548 425.442 347.304 428.808C344.069 432.165 339.526 434.402 333.834 434.22C328.133 434.038 321.223 431.427 313.28 424.974C312.353 424.186 311.972 423.101 312.071 421.765C312.172 420.407 312.772 418.808 313.799 417.089C315.851 413.655 319.527 409.88 323.873 406.832C328.219 403.782 333.184 401.495 337.794 400.978Z" fill="black"/>
<path d="M312.959 425.363C351.959 457.363 311.829 483.233 288.829 456.233C274.979 442.503 305.399 418.873 312.959 425.363Z" fill="#EAA252"/>
<path fill-rule="evenodd" clip-rule="evenodd" d="M288.462 456.573C284.871 453.003 284.15 448.769 285.208 444.582C286.26 440.419 289.066 436.304 292.511 432.862C295.961 429.416 300.093 426.601 303.861 425.055C305.745 424.282 307.56 423.818 309.166 423.763C310.77 423.709 312.21 424.063 313.28 424.98C323.077 433.02 327.971 440.727 329.365 447.381C330.764 454.057 328.628 459.63 324.475 463.298C316.191 470.612 300.101 470.222 288.462 456.573ZM309.2 424.763C310.65 424.713 311.814 425.039 312.633 425.742L312.641 425.75L312.641 425.749C322.341 433.708 327.055 441.234 328.386 447.586C329.713 453.917 327.692 459.123 323.813 462.548C316.034 469.416 300.569 469.244 289.209 455.909L289.196 455.893L289.181 455.878C285.86 452.586 285.193 448.723 286.178 444.827C287.17 440.901 289.845 436.939 293.218 433.569C296.588 430.203 300.612 427.469 304.241 425.98C306.056 425.236 307.75 424.812 309.2 424.763Z" fill="black"/>
<path d="M70.6987 24.4116C101.449 22.2616 127.239 15.4516 136.339 7.85156C142.609 20.0216 144.369 38.1216 139.159 51.1816C99.2187 67.2216 56.6287 70.4916 11.6987 66.8316C-0.421265 54.4816 -0.701263 32.9516 2.91873 16.8816C12.6287 23.3316 39.4587 26.6116 70.6987 24.4216V24.4116Z" fill="#EAA252"/>
<path fill-rule="evenodd" clip-rule="evenodd" d="M136.497 7.07031L136.018 7.47044C131.559 11.1943 122.931 14.7752 111.514 17.6935C100.119 20.6062 86.0139 22.8422 70.6638 23.9154L70.1987 23.9479V23.9576C54.781 25.0131 40.4653 24.7325 28.7917 23.3974C16.9749 22.046 7.94406 19.6221 3.19534 16.4677L2.59048 16.0659L2.43091 16.7743C0.610916 24.8537 -0.231094 34.3131 0.910156 43.3171C2.05112 52.3188 5.18031 60.906 11.3418 67.1844L11.4724 67.3174L11.6581 67.3326C56.6362 70.9965 99.3101 67.7263 139.345 51.6482L139.544 51.5684L139.623 51.3695C144.894 38.1576 143.11 19.9062 136.783 7.62521L136.497 7.07031ZM136.172 8.63205C142.127 20.619 143.749 38.1023 138.773 50.8002C99.0406 66.7109 56.6641 69.9768 11.9259 66.351C6.05244 60.2908 3.01808 51.995 1.90222 43.1913C0.810883 34.5811 1.56029 25.5234 3.25308 17.6892C8.34103 20.7884 17.3124 23.0911 28.6781 24.391C40.5398 25.7475 55.0884 26.0197 70.7336 24.923L71.1987 24.8904V24.8801C86.4187 23.791 100.414 21.5627 111.761 18.6624C122.813 15.8375 131.416 12.3595 136.172 8.63205Z" fill="black"/>
<path opacity="0.2" d="M281.592 495.821C269.592 498.821 260.592 495.821 253.592 490.821C246.592 485.821 248.592 481.821 227.592 460.821C213.082 446.311 188.592 425.821 170.592 410.821C160.792 402.661 151.272 396.981 144.592 389.821C135.302 379.851 129.662 372.721 127.592 368.821C117.592 354.821 105.922 344.091 86.1021 337.981C46.7121 332.221 6.36206 331.721 5.80206 281.431C5.66208 268.811 8.02206 256.301 12.7321 244.791C25.5821 216.821 22.5821 145.821 17.5821 101.821C15.3221 81.9709 13.722 67.7909 11.5121 66.4109C-1.41794 53.8209 -0.0179443 32.9909 2.73206 16.4609C49.4921 45.1109 21.402 125.461 33.532 200.821C40.6721 245.211 10.5721 260.931 31.182 294.751C51.792 328.571 90.6821 325.461 108.582 333.821C123.582 340.821 137.742 363.681 145.582 372.821C148.362 376.071 168.882 395.271 179.582 402.821C190.282 410.371 214.872 431.261 219.582 435.821C233.412 449.191 245.082 461.321 247.582 464.821C253.872 473.621 265.182 482.611 268.582 483.821C282.582 488.821 290.582 478.821 297.582 479.821C296.582 490.821 281.582 495.821 281.582 495.821H281.592Z" fill="black"/>
<path opacity="0.2" d="M289.08 456.489C236.08 401.489 220.08 373.489 192.08 343.489C162.46 311.749 135.42 295.199 116.52 292.039C119.99 290.489 143.52 300.379 149.25 303.849C164.38 313.039 182.16 327.179 202.81 351.369C229.84 383.039 257.99 422.619 284.01 447.739C288.46 452.039 300.76 456.489 308.39 458.369C316.02 460.249 323.72 453.469 329 455.459C323.66 470.929 306.59 466.929 306.04 466.949C299.37 467.169 289.09 456.499 289.09 456.499L289.08 456.489Z" fill="black"/>
<path opacity="0.2" d="M313.108 425.509C268.108 379.509 254.178 353.849 226.718 323.359C210.548 305.399 200.198 288.479 168.978 274.969C168.978 274.969 190.718 282.449 203.538 294.709C208.088 299.059 218.128 309.879 233.318 327.949C241.978 338.249 249.668 347.439 258.998 359.199C264.038 365.559 275.258 379.329 285.618 391.999C288.518 395.549 297.988 407.379 308.888 416.809C315.218 422.289 319.818 423.349 330.018 425.519C340.218 427.689 350.028 418.679 352.828 420.509C340.858 449.149 313.118 425.519 313.118 425.519L313.108 425.509Z" fill="black"/>
<g clip-path="url(#clip1_4775_423472)">
<path d="M207.863 223.432C187.353 222.964 175.591 231.483 173.47 246.17C173.159 248.318 174.297 250.506 175.444 252.008C177.983 255.351 180.473 258.572 186.428 258.936C193.644 259.372 206.471 259.937 204.456 252.791" fill="#F7931E"/>
<path d="M207.863 223.432C187.353 222.964 175.591 231.483 173.47 246.17C173.159 248.318 174.297 250.506 175.444 252.008C177.983 255.351 180.473 258.572 186.428 258.936C193.644 259.372 206.471 259.937 204.456 252.791" stroke="black" stroke-width="0.338972" stroke-miterlimit="10" stroke-linecap="round"/>
<path opacity="0.2" d="M186.408 258.946C193.608 259.544 213.167 259.915 198.35 250.734C198.35 250.734 201.831 254.893 197.621 257.008C192.887 259.398 186.4 258.946 186.4 258.946H186.408Z" fill="black"/>
<path d="M196.073 240.273C196.073 252.239 203.06 259.054 211.332 256.438C217.59 254.468 221.645 247.379 221.645 240.217C221.645 233.055 217.59 225.965 211.332 223.987C203.06 221.371 196.073 228.307 196.073 240.273Z" fill="#FFF383" stroke="black" stroke-width="0.338972" stroke-miterlimit="10" stroke-linecap="round"/>
<path d="M217.305 233.415C215.626 229.127 212.456 225.607 208.336 224.307C207.304 223.984 206.288 223.806 205.305 223.766" stroke="black" stroke-width="0.338972" stroke-miterlimit="10" stroke-linecap="round"/>
<path d="M217.215 248.758C215.429 252.327 212.554 255.161 208.942 256.299C207.91 256.622 206.894 256.8 205.912 256.84" stroke="black" stroke-width="0.338972" stroke-miterlimit="10" stroke-linecap="round"/>
<path d="M194.209 240.308C194.201 221.858 208.125 223.44 208.125 223.44C201.368 223.351 196.15 229.932 196.15 240.275C196.15 250.619 201.581 257.377 208.543 256.981C208.543 256.981 194.217 258.636 194.209 240.308Z" fill="#C4711E" stroke="black" stroke-width="0.338972" stroke-miterlimit="10" stroke-linecap="round"/>
</g>
<g clip-path="url(#clip2_4775_423472)">
<path d="M138.863 260.432C118.353 259.964 106.591 268.483 104.47 283.17C104.159 285.318 105.297 287.506 106.444 289.008C108.983 292.351 111.473 295.572 117.428 295.936C124.644 296.372 137.471 296.937 135.456 289.791" fill="#F7931E"/>
<path d="M138.863 260.432C118.353 259.964 106.591 268.483 104.47 283.17C104.159 285.318 105.297 287.506 106.444 289.008C108.983 292.351 111.473 295.572 117.428 295.936C124.644 296.372 137.471 296.937 135.456 289.791" stroke="black" stroke-width="0.338972" stroke-miterlimit="10" stroke-linecap="round"/>
<path opacity="0.2" d="M117.408 295.946C124.608 296.544 144.167 296.915 129.35 287.734C129.35 287.734 132.831 291.893 128.621 294.008C123.887 296.398 117.4 295.946 117.4 295.946H117.408Z" fill="black"/>
<path d="M127.073 277.273C127.073 289.239 134.06 296.054 142.332 293.438C148.59 291.468 152.645 284.379 152.645 277.217C152.645 270.055 148.59 262.965 142.332 260.987C134.06 258.371 127.073 265.307 127.073 277.273Z" fill="#FFF383" stroke="black" stroke-width="0.338972" stroke-miterlimit="10" stroke-linecap="round"/>
<path d="M148.305 270.415C146.626 266.127 143.456 262.607 139.336 261.307C138.304 260.984 137.288 260.806 136.305 260.766" stroke="black" stroke-width="0.338972" stroke-miterlimit="10" stroke-linecap="round"/>
<path d="M148.215 285.758C146.429 289.327 143.554 292.161 139.942 293.299C138.91 293.622 137.894 293.8 136.912 293.84" stroke="black" stroke-width="0.338972" stroke-miterlimit="10" stroke-linecap="round"/>
<path d="M125.209 277.308C125.201 258.858 139.125 260.44 139.125 260.44C132.368 260.351 127.15 266.932 127.15 277.275C127.15 287.619 132.581 294.377 139.543 293.981C139.543 293.981 125.217 295.636 125.209 277.308Z" fill="#C4711E" stroke="black" stroke-width="0.338972" stroke-miterlimit="10" stroke-linecap="round"/>
</g>
<defs>
<clipPath id="clip0_4775_423472">
<rect width="133.99" height="24.99" fill="white" transform="matrix(-1 0 0 1 136.43 0.648438)"/>
</clipPath>
<clipPath id="clip1_4775_423472">
<rect width="49.0385" height="36.9565" fill="white" transform="matrix(-1 0 0 1 222.035 223)"/>
</clipPath>
<clipPath id="clip2_4775_423472">
<rect width="49.0385" height="36.9565" fill="white" transform="matrix(-1 0 0 1 153.035 260)"/>
</clipPath>
</defs>
</svg>
