<svg width="14" height="12" viewBox="0 0 14 12" fill="none" xmlns="http://www.w3.org/2000/svg">
<g clip-path="url(#clip0_3318_11997)">
<path d="M1 5.25002C0.585786 5.25002 0.25 5.58581 0.25 6.00002C0.25 6.41423 0.585786 6.75002 1 6.75002V5.25002ZM13.5303 6.53035C13.8232 6.23746 13.8232 5.76258 13.5303 5.46969L8.75736 0.696721C8.46447 0.403828 7.98959 0.403828 7.6967 0.696721C7.40381 0.989615 7.40381 1.46449 7.6967 1.75738L11.9393 6.00002L7.6967 10.2426C7.40381 10.5355 7.40381 11.0104 7.6967 11.3033C7.98959 11.5962 8.46447 11.5962 8.75736 11.3033L13.5303 6.53035ZM1 6.75002H13V5.25002H1V6.75002Z" fill="#FAF9F6"/>
</g>
<defs>
<clipPath id="clip0_3318_11997">
<rect width="14" height="12" fill="white"/>
</clipPath>
</defs>
</svg>
