<svg width="19" height="16" viewBox="0 0 19 16" fill="none" xmlns="http://www.w3.org/2000/svg">
<path d="M1.16797 7.3125C0.615684 7.3125 0.167969 7.76022 0.167969 8.3125C0.167969 8.86478 0.615684 9.3125 1.16797 9.3125V7.3125ZM17.8751 9.01961C18.2656 8.62908 18.2656 7.99592 17.8751 7.60539L11.5111 1.24143C11.1206 0.850908 10.4874 0.850908 10.0969 1.24143C9.70638 1.63196 9.70638 2.26512 10.0969 2.65565L15.7538 8.3125L10.0969 13.9694C9.70638 14.3599 9.70638 14.993 10.0969 15.3836C10.4874 15.7741 11.1206 15.7741 11.5111 15.3836L17.8751 9.01961ZM1.16797 9.3125H17.168V7.3125H1.16797V9.3125Z" fill="#2E2D33"/>
</svg>
