<svg width="16" height="9" viewBox="0 0 16 9" fill="none" xmlns="http://www.w3.org/2000/svg">
<path d="M8.1589 8.40345C8.115 8.44802 8.05608 8.47296 7.99473 8.47296C7.93339 8.47296 7.87447 8.44802 7.83057 8.40345L7.25686 7.80679L1.07742 1.38017C1.05307 1.35758 1.03358 1.32989 1.02024 1.29892C1.0069 1.26795 1 1.2344 1 1.20046C1 1.16652 1.0069 1.13297 1.02024 1.10199C1.03358 1.07102 1.05307 1.04333 1.07742 1.02074L1.48524 0.596615C1.52914 0.552048 1.58805 0.5271 1.6494 0.5271C1.71075 0.5271 1.76966 0.552048 1.81356 0.596615L7.83057 6.86868C7.87447 6.91325 7.93339 6.93819 7.99473 6.93819C8.05608 6.93819 8.115 6.91325 8.1589 6.86868L14.1724 0.610993C14.1947 0.586632 14.2215 0.567236 14.2512 0.553982C14.2809 0.540729 14.3129 0.533895 14.3452 0.533895C14.3776 0.533895 14.4096 0.540729 14.4393 0.553982C14.469 0.567236 14.4958 0.586632 14.5181 0.610993L14.9259 1.03512C14.9493 1.05829 14.9679 1.08616 14.9807 1.11706C14.9934 1.14795 15 1.18122 15 1.21484C15 1.24845 14.9934 1.28172 14.9807 1.31261C14.9679 1.34351 14.9493 1.37138 14.9259 1.39455L8.7326 7.80679L8.1589 8.40345Z" fill="#2E2D33" stroke="#2E2D33" stroke-width="0.5" stroke-miterlimit="10"/>
</svg>
