<svg width="16" height="9" viewBox="0 0 16 9" fill="none" xmlns="http://www.w3.org/2000/svg">
<path d="M8.1589 0.596552C8.115 0.551984 8.05608 0.527038 7.99473 0.527038C7.93339 0.527038 7.87447 0.551984 7.83057 0.596552L7.25686 1.19321L1.07742 7.61983C1.05307 7.64242 1.03358 7.67011 1.02024 7.70108C1.0069 7.73205 1 7.7656 1 7.79954C1 7.83348 1.0069 7.86703 1.02024 7.89801C1.03358 7.92898 1.05307 7.95667 1.07742 7.97926L1.48524 8.40338C1.52914 8.44795 1.58805 8.4729 1.6494 8.4729C1.71075 8.4729 1.76966 8.44795 1.81356 8.40338L7.83057 2.13132C7.87447 2.08675 7.93339 2.06181 7.99473 2.06181C8.05608 2.06181 8.115 2.08675 8.1589 2.13132L14.1724 8.38901C14.1947 8.41337 14.2215 8.43276 14.2512 8.44602C14.2809 8.45927 14.3129 8.46611 14.3452 8.46611C14.3776 8.46611 14.4096 8.45927 14.4393 8.44602C14.469 8.43276 14.4958 8.41337 14.5181 8.38901L14.9259 7.96488C14.9493 7.94171 14.9679 7.91384 14.9807 7.88294C14.9934 7.85205 15 7.81878 15 7.78516C15 7.75155 14.9934 7.71828 14.9807 7.68739C14.9679 7.65649 14.9493 7.62862 14.9259 7.60545L8.7326 1.19321L8.1589 0.596552Z" fill="#2E2D33" stroke="#2E2D33" stroke-width="0.5" stroke-miterlimit="10"/>
</svg>
