<svg width="9" height="24" viewBox="0 0 9 24" fill="none" xmlns="http://www.w3.org/2000/svg">
<path d="M4.37598 24C2.41017 24 1.29905 22.0342 1.38452 20.0684C1.46999 18.1026 1.29913 16.5641 1.12819 14.8547C0.957245 13.1453 -0.149468 12.3939 0.0170011 9.65886C0.202994 6.60304 -0.220507 2.92179 1.11111 1.53225C3.16239 -0.17707 2.05128 9.65886 2.47863 9.48106C2.90598 9.30325 1.7094 0.424864 3.67522 0.294697C5.64103 0.16453 4.8718 8.79702 5.21368 8.79702C5.55556 8.79702 4.35898 -0.0926041 6.49573 0.000729839C8.2906 0.0787682 9.42495 5.5563 8.48478 8.54775C7.54461 11.5392 5.48709 11.4359 5.40162 14.0855C5.31615 16.7351 6.68367 19.1282 6.5982 20.4103C6.51273 21.6923 6.34179 24 4.37598 24Z" fill="#2E2D33"/>
</svg>
