<svg width="9" height="24" viewBox="0 0 9 24" fill="none" xmlns="http://www.w3.org/2000/svg">
<path d="M4.41384 24C2.42582 24 1.30215 22.0575 1.38859 20.115C1.47503 18.1724 1.30223 17.7431 1.12936 16.054C0.956484 14.3648 -0.149112 14.1044 0.0169334 11.4017C0.135769 9.36972 1.18505 7.3389 1.5 6C1.81495 4.6611 4.49389 0 5.46238 0C6.25587 0 6.5 3.5 7 5C7.5 6.5 8.5 8.5 8 11C7.5 13.5 6.13974 13.2669 6.05331 15.8851C5.96687 18.5032 6.7476 19.1859 6.66117 20.4528C6.57473 21.7197 6.40186 24 4.41384 24Z" fill="#2E2D33"/>
</svg>
