<svg width="12" height="24" viewBox="0 0 12 24" fill="none" xmlns="http://www.w3.org/2000/svg">
<path d="M6.99408 23.5065C4.82185 23.5065 3.59406 21.3342 3.68851 19.162C3.78295 16.9898 3.59414 16.3807 3.40525 14.4918C3.21636 12.6029 2.6362 11.0078 1.6345 8.50781C0.632812 6.00781 -0.865099 0.507794 0.634858 0.507812C1.86535 0.507827 2.44635 1.50328 3.63393 1.50487C4.83117 1.50648 4.6341 0.00260535 6.1341 0.00486869C7.63412 0.00713205 7.2972 1.88818 8.6341 1.50487C9.73565 1.18904 9.99235 -0.080253 11.1341 0.00400637C12.6341 0.114704 11.7584 4.55464 11.1341 7.50781C10.5098 10.461 9.20185 10.8676 9.13281 13.0078C9.06377 15.148 9.5441 18.1231 9.44965 19.5398C9.35521 20.9565 9.16632 23.5065 6.99408 23.5065Z" fill="#2E2D33"/>
</svg>
