<svg width="30" height="40" viewBox="0 0 30 40" fill="none" xmlns="http://www.w3.org/2000/svg">
<rect width="30" height="11" fill="#FAF9F6"/>
<rect y="34" width="30" height="6" fill="#FAF9F6"/>
<g clip-path="url(#clip0_4536_21864)">
<path d="M26.4258 7.5H22.6172C22.6172 3.35625 19.2085 0 15 0C10.7915 0 7.38281 3.35625 7.38281 7.5H3.57422C1.47949 7.5 -0.234375 9.1875 -0.234375 11.25V33.75C-0.234375 35.8125 1.47949 37.5 3.57422 37.5H26.4258C28.5205 37.5 30.2344 35.8125 30.2344 33.75V11.25C30.2344 9.1875 28.5205 7.5 26.4258 7.5ZM15 3.75C17.0947 3.75 18.8086 5.4375 18.8086 7.5H11.1914C11.1914 5.4375 12.9053 3.75 15 3.75ZM26.4258 33.75H3.57422V11.25H7.38281V15C7.38281 16.0313 8.23975 16.875 9.28711 16.875C10.3345 16.875 11.1914 16.0313 11.1914 15V11.25H18.8086V15C18.8086 16.0313 19.6655 16.875 20.7129 16.875C21.7603 16.875 22.6172 16.0313 22.6172 15V11.25H26.4258V33.75Z" fill="#2E2D33"/>
</g>
<defs>
<clipPath id="clip0_4536_21864">
<rect width="30" height="40" fill="white"/>
</clipPath>
</defs>
</svg>
