<svg width="49" height="46" viewBox="0 0 49 46" fill="none" xmlns="http://www.w3.org/2000/svg">
<path d="M47.4453 23C47.4453 35.7025 37.1479 46 24.4453 46C11.7428 46 1.44531 35.7025 1.44531 23C1.44531 10.2975 11.7428 0 24.4453 0C37.1479 0 47.4453 10.2975 47.4453 23Z" fill="#FAF9F6"/>
<path fill-rule="evenodd" clip-rule="evenodd" d="M24.4453 45C36.5956 45 46.4453 35.1503 46.4453 23C46.4453 10.8497 36.5956 1 24.4453 1C12.295 1 2.44531 10.8497 2.44531 23C2.44531 35.1503 12.295 45 24.4453 45ZM24.4453 46C37.1479 46 47.4453 35.7025 47.4453 23C47.4453 10.2975 37.1479 0 24.4453 0C11.7428 0 1.44531 10.2975 1.44531 23C1.44531 35.7025 11.7428 46 24.4453 46Z" fill="black"/>
<path d="M8.44531 12C8.44531 14.2091 6.65445 16 4.44531 16C2.23617 16 0.445312 14.2091 0.445312 12C0.445312 9.79086 2.23617 8 4.44531 8C6.65445 8 8.44531 9.79086 8.44531 12Z" fill="#F8D047"/>
<path fill-rule="evenodd" clip-rule="evenodd" d="M4.44531 15C6.10217 15 7.44531 13.6569 7.44531 12C7.44531 10.3431 6.10217 9 4.44531 9C2.78846 9 1.44531 10.3431 1.44531 12C1.44531 13.6569 2.78846 15 4.44531 15ZM4.44531 16C6.65445 16 8.44531 14.2091 8.44531 12C8.44531 9.79086 6.65445 8 4.44531 8C2.23617 8 0.445312 9.79086 0.445312 12C0.445312 14.2091 2.23617 16 4.44531 16Z" fill="black"/>
<path d="M39.4453 4C39.4453 6.20914 37.6545 8 35.4453 8C33.2362 8 31.4453 6.20914 31.4453 4C31.4453 1.79086 33.2362 0 35.4453 0C37.6545 0 39.4453 1.79086 39.4453 4Z" fill="#F8D047"/>
<path fill-rule="evenodd" clip-rule="evenodd" d="M35.4453 7C37.1022 7 38.4453 5.65685 38.4453 4C38.4453 2.34315 37.1022 1 35.4453 1C33.7885 1 32.4453 2.34315 32.4453 4C32.4453 5.65685 33.7885 7 35.4453 7ZM35.4453 8C37.6545 8 39.4453 6.20914 39.4453 4C39.4453 1.79086 37.6545 0 35.4453 0C33.2362 0 31.4453 1.79086 31.4453 4C31.4453 6.20914 33.2362 8 35.4453 8Z" fill="black"/>
<path d="M48.4453 34C48.4453 36.2091 46.6545 38 44.4453 38C42.2362 38 40.4453 36.2091 40.4453 34C40.4453 31.7909 42.2362 30 44.4453 30C46.6545 30 48.4453 31.7909 48.4453 34Z" fill="#F8D047"/>
<path fill-rule="evenodd" clip-rule="evenodd" d="M44.4453 37C46.1022 37 47.4453 35.6569 47.4453 34C47.4453 32.3431 46.1022 31 44.4453 31C42.7885 31 41.4453 32.3431 41.4453 34C41.4453 35.6569 42.7885 37 44.4453 37ZM44.4453 38C46.6545 38 48.4453 36.2091 48.4453 34C48.4453 31.7909 46.6545 30 44.4453 30C42.2362 30 40.4453 31.7909 40.4453 34C40.4453 36.2091 42.2362 38 44.4453 38Z" fill="black"/>
<path d="M17.4453 42C17.4453 44.2091 15.6545 46 13.4453 46C11.2362 46 9.44531 44.2091 9.44531 42C9.44531 39.7909 11.2362 38 13.4453 38C15.6545 38 17.4453 39.7909 17.4453 42Z" fill="#F8D047"/>
<path fill-rule="evenodd" clip-rule="evenodd" d="M13.4453 45C15.1022 45 16.4453 43.6569 16.4453 42C16.4453 40.3431 15.1022 39 13.4453 39C11.7885 39 10.4453 40.3431 10.4453 42C10.4453 43.6569 11.7885 45 13.4453 45ZM13.4453 46C15.6545 46 17.4453 44.2091 17.4453 42C17.4453 39.7909 15.6545 38 13.4453 38C11.2362 38 9.44531 39.7909 9.44531 42C9.44531 44.2091 11.2362 46 13.4453 46Z" fill="black"/>
<path d="M38.4453 23C38.4453 30.732 32.1773 37 24.4453 37C16.7133 37 10.4453 30.732 10.4453 23C10.4453 15.268 16.7133 9 24.4453 9C32.1773 9 38.4453 15.268 38.4453 23Z" fill="#F8D047"/>
<path fill-rule="evenodd" clip-rule="evenodd" d="M24.4453 36C31.625 36 37.4453 30.1797 37.4453 23C37.4453 15.8203 31.625 10 24.4453 10C17.2656 10 11.4453 15.8203 11.4453 23C11.4453 30.1797 17.2656 36 24.4453 36ZM24.4453 37C32.1773 37 38.4453 30.732 38.4453 23C38.4453 15.268 32.1773 9 24.4453 9C16.7133 9 10.4453 15.268 10.4453 23C10.4453 30.732 16.7133 37 24.4453 37Z" fill="black"/>
<path d="M29.4453 23.5C29.4453 26.5376 26.9829 29 23.9453 29C20.9077 29 18.4453 26.5376 18.4453 23.5C18.4453 20.4624 20.9077 18 23.9453 18C26.9829 18 29.4453 20.4624 29.4453 23.5Z" fill="#FAF9F6"/>
<path fill-rule="evenodd" clip-rule="evenodd" d="M23.9453 28C26.4306 28 28.4453 25.9853 28.4453 23.5C28.4453 21.0147 26.4306 19 23.9453 19C21.46 19 19.4453 21.0147 19.4453 23.5C19.4453 25.9853 21.46 28 23.9453 28ZM23.9453 29C26.9829 29 29.4453 26.5376 29.4453 23.5C29.4453 20.4624 26.9829 18 23.9453 18C20.9077 18 18.4453 20.4624 18.4453 23.5C18.4453 26.5376 20.9077 29 23.9453 29Z" fill="black"/>
<path d="M41.4453 19C41.4453 21.2091 39.6545 23 37.4453 23C35.2362 23 33.4453 21.2091 33.4453 19C33.4453 16.7909 35.2362 15 37.4453 15C39.6545 15 41.4453 16.7909 41.4453 19Z" fill="#F8D047"/>
<path fill-rule="evenodd" clip-rule="evenodd" d="M37.4453 22C39.1022 22 40.4453 20.6569 40.4453 19C40.4453 17.3431 39.1022 16 37.4453 16C35.7885 16 34.4453 17.3431 34.4453 19C34.4453 20.6569 35.7885 22 37.4453 22ZM37.4453 23C39.6545 23 41.4453 21.2091 41.4453 19C41.4453 16.7909 39.6545 15 37.4453 15C35.2362 15 33.4453 16.7909 33.4453 19C33.4453 21.2091 35.2362 23 37.4453 23Z" fill="black"/>
<path d="M15.4453 27C15.4453 29.2091 13.6545 31 11.4453 31C9.23617 31 7.44531 29.2091 7.44531 27C7.44531 24.7909 9.23617 23 11.4453 23C13.6545 23 15.4453 24.7909 15.4453 27Z" fill="#F8D047"/>
<path fill-rule="evenodd" clip-rule="evenodd" d="M11.4453 30C13.1022 30 14.4453 28.6569 14.4453 27C14.4453 25.3431 13.1022 24 11.4453 24C9.78846 24 8.44531 25.3431 8.44531 27C8.44531 28.6569 9.78846 30 11.4453 30ZM11.4453 31C13.6545 31 15.4453 29.2091 15.4453 27C15.4453 24.7909 13.6545 23 11.4453 23C9.23617 23 7.44531 24.7909 7.44531 27C7.44531 29.2091 9.23617 31 11.4453 31Z" fill="black"/>
</svg>
