<svg width="17" height="15" viewBox="0 0 17 15" fill="none" xmlns="http://www.w3.org/2000/svg">
<path d="M1 2C0.723858 2 0.5 2.22386 0.5 2.5C0.5 2.77614 0.723858 3 1 3V2ZM1 3H10V2H1V3Z" fill="black"/>
<path d="M1 12C0.723858 12 0.5 12.2239 0.5 12.5C0.5 12.7761 0.723858 13 1 13V12ZM1 13H10V12H1V13Z" fill="black"/>
<path d="M16.5 7C16.7761 7 17 7.22386 17 7.5C17 7.77614 16.7761 8 16.5 8V7ZM16.5 8H7.5V7H16.5V8Z" fill="black"/>
<circle cx="11.5" cy="2.5" r="2" stroke="black"/>
<circle cx="11.5" cy="12.5" r="2" stroke="black"/>
<circle cx="2.5" cy="2.5" r="2" transform="matrix(-1 0 0 1 8.5 5)" stroke="black"/>
<path d="M16.5 3C16.7761 3 17 2.77614 17 2.5C17 2.22386 16.7761 2 16.5 2V3ZM13.5 3H16.5V2H13.5V3Z" fill="black"/>
<path d="M16.5 13C16.7761 13 17 12.7761 17 12.5C17 12.2239 16.7761 12 16.5 12V13ZM13.5 13H16.5V12H13.5V13Z" fill="black"/>
<path d="M1 8C0.723858 8 0.5 7.77614 0.5 7.5C0.5 7.22386 0.723858 7 1 7V8ZM4 8H1V7H4V8Z" fill="black"/>
</svg>
