<svg width="47" height="46" viewBox="0 0 47 46" fill="none" xmlns="http://www.w3.org/2000/svg">
<path d="M46.4453 23C46.4453 35.7025 36.1479 46 23.4453 46C10.7428 46 0.445312 35.7025 0.445312 23C0.445312 10.2975 10.7428 0 23.4453 0C36.1479 0 46.4453 10.2975 46.4453 23Z" fill="#FAF9F6"/>
<path fill-rule="evenodd" clip-rule="evenodd" d="M23.4453 45C35.5956 45 45.4453 35.1503 45.4453 23C45.4453 10.8497 35.5956 1 23.4453 1C11.295 1 1.44531 10.8497 1.44531 23C1.44531 35.1503 11.295 45 23.4453 45ZM23.4453 46C36.1479 46 46.4453 35.7025 46.4453 23C46.4453 10.2975 36.1479 0 23.4453 0C10.7428 0 0.445312 10.2975 0.445312 23C0.445312 35.7025 10.7428 46 23.4453 46Z" fill="black"/>
<path d="M23.8526 28C20.2364 26.4149 18.8246 24.9816 17.3526 21.5C17.2552 21.0124 17.6469 20.5473 18.8516 19.4998C21.0408 17.3777 19.9243 16.7613 18.3516 14.9998L16.8518 13.5C14.9672 11.9957 13.9311 12.1523 12.3526 13.5C8.77302 17.0616 9.00959 19.0307 10.3526 22.5C12.8389 27.7556 14.9453 30.5 20.3526 33.5C26.9453 37 29.158 36.3439 31.3526 33.5C33.5248 31.0695 33.4868 30.1889 32.3526 29L28.3526 26C27.1931 25.2038 26.2328 25.916 23.8526 28Z" fill="#F8D047"/>
<path fill-rule="evenodd" clip-rule="evenodd" d="M12.6917 13.868C10.9401 15.6136 10.1954 16.9003 10.0003 18.114C9.80384 19.3361 10.146 20.5789 10.8124 22.3026C12.0447 24.9058 13.1676 26.8523 14.6324 28.5153C16.0967 30.1778 17.9236 31.5802 20.5913 33.0606C23.8776 34.8049 25.9726 35.4543 27.4771 35.3796C28.9175 35.3081 29.8994 34.5648 30.9568 33.1945L30.9678 33.1802L30.9798 33.1668C32.0694 31.9476 32.5077 31.2145 32.6003 30.6964C32.6763 30.2712 32.5284 29.9157 32.0188 29.3746L28.0614 26.4066C27.8327 26.2511 27.6466 26.1906 27.4733 26.1831C27.2935 26.1752 27.0757 26.2222 26.7828 26.3677C26.1709 26.6717 25.3886 27.3197 24.182 28.3762L23.9429 28.5855L23.6519 28.4579C21.8178 27.654 20.4965 26.8691 19.4445 25.8143C18.3914 24.7583 17.6401 23.4639 16.8921 21.6947L16.8723 21.6478L16.8623 21.598C16.7742 21.1569 16.9351 20.7733 17.2171 20.4056C17.4867 20.054 17.9193 19.6482 18.5131 19.1315C19.5839 18.091 19.6428 17.6048 19.5355 17.2652C19.4666 17.047 19.305 16.8024 19.0222 16.4739C18.8636 16.2898 18.7001 16.1148 18.5177 15.9197C18.3586 15.7495 18.1851 15.5639 17.9881 15.3434L16.5182 13.8735C15.6146 13.156 15.0082 12.916 14.5016 12.9303C13.9928 12.9447 13.4552 13.2184 12.6917 13.868ZM14.4733 11.9307C15.3465 11.906 16.1948 12.3358 17.1637 13.1092L17.1856 13.1267L18.7151 14.6563L18.7245 14.6668C18.8856 14.8472 19.0575 15.0319 19.2239 15.2105C19.4279 15.4296 19.6234 15.6396 19.7799 15.8214C20.0804 16.1703 20.356 16.5427 20.4891 16.964C20.7856 17.9025 20.3088 18.7836 19.1996 19.8588L19.1899 19.8682L19.1796 19.8771C18.5742 20.4036 18.2121 20.7514 18.0106 21.0141C17.8606 21.2096 17.8371 21.3087 17.8384 21.3648C18.5532 23.0447 19.2385 24.1915 20.1526 25.1081C21.0275 25.9854 22.1407 26.6805 23.7641 27.4134C24.8197 26.4937 25.6371 25.8202 26.3379 25.4721C26.7275 25.2786 27.116 25.1666 27.5168 25.184C27.922 25.2016 28.2884 25.3493 28.6357 25.5878L28.6443 25.5937L32.6858 28.6249L32.7144 28.6548C33.3165 29.286 33.7478 29.9601 33.5847 30.8724C33.4374 31.6964 32.8127 32.615 31.7374 33.8198C30.6033 35.2856 29.3834 36.2862 27.5267 36.3784C25.7287 36.4676 23.4222 35.6957 20.1182 33.9416L20.11 33.9373C17.3725 32.4185 15.4436 30.9492 13.882 29.1763C12.3233 27.4067 11.1515 25.358 9.90067 22.7138L9.89291 22.6974L9.88637 22.6805C9.21401 20.9437 8.76923 19.4715 9.01298 17.9553C9.25821 16.4298 10.1817 14.9547 12 13.1455L12.0135 13.1321L12.028 13.1197C12.8352 12.4305 13.6014 11.9554 14.4733 11.9307Z" fill="black"/>
<path d="M29.9195 10.7418C30.1124 10.4107 30.5908 10.4107 30.7836 10.7418L32.1804 13.1399C32.251 13.2612 32.3694 13.3472 32.5066 13.3769L35.2189 13.9642C35.5934 14.0453 35.7413 14.5003 35.4859 14.786L33.6369 16.8555C33.5433 16.9601 33.4981 17.0993 33.5122 17.239L33.7918 20C33.8304 20.3813 33.4434 20.6625 33.0927 20.5079L30.5532 19.3888C30.4247 19.3322 30.2784 19.3322 30.1499 19.3888L27.6104 20.5079C27.2597 20.6625 26.8727 20.3813 26.9113 20L27.1909 17.239C27.205 17.0993 27.1598 16.9601 27.0663 16.8555L25.2172 14.786C24.9619 14.5003 25.1097 14.0453 25.4842 13.9642L28.1965 13.3769C28.3337 13.3472 28.4521 13.2612 28.5228 13.1399L29.9195 10.7418Z" fill="black"/>
</svg>
