<svg width="47" height="46" viewBox="0 0 47 46" fill="none" xmlns="http://www.w3.org/2000/svg">
<path d="M46.4453 23C46.4453 35.7025 36.1479 46 23.4453 46C10.7428 46 0.445312 35.7025 0.445312 23C0.445312 10.2975 10.7428 0 23.4453 0C36.1479 0 46.4453 10.2975 46.4453 23Z" fill="#FAF9F6"/>
<path fill-rule="evenodd" clip-rule="evenodd" d="M23.4453 45C35.5956 45 45.4453 35.1503 45.4453 23C45.4453 10.8497 35.5956 1 23.4453 1C11.295 1 1.44531 10.8497 1.44531 23C1.44531 35.1503 11.295 45 23.4453 45ZM23.4453 46C36.1479 46 46.4453 35.7025 46.4453 23C46.4453 10.2975 36.1479 0 23.4453 0C10.7428 0 0.445312 10.2975 0.445312 23C0.445312 35.7025 10.7428 46 23.4453 46Z" fill="black"/>
<path d="M17.2804 21.2267C17.4615 20.8472 18.0018 20.8472 18.1829 21.2267L19.1373 23.2268C19.2102 23.3796 19.3554 23.4851 19.5232 23.5072L21.7203 23.7968C22.1373 23.8518 22.3043 24.3656 21.9992 24.6552L20.3919 26.1809C20.2692 26.2975 20.2137 26.4682 20.2445 26.6346L20.648 28.8137C20.7246 29.2273 20.2875 29.5448 19.9179 29.3442L17.9701 28.2871C17.8214 28.2063 17.6419 28.2063 17.4931 28.2871L15.5453 29.3442C15.1757 29.5448 14.7386 29.2273 14.8152 28.8137L15.2187 26.6346C15.2495 26.4682 15.194 26.2975 15.0713 26.1809L13.464 24.6552C13.159 24.3656 13.3259 23.8518 13.7429 23.7968L15.94 23.5072C16.1078 23.4851 16.2531 23.3796 16.326 23.2268L17.2804 21.2267Z" fill="#D3B039"/>
<path fill-rule="evenodd" clip-rule="evenodd" d="M18.6341 21.0114L19.5885 23.0115L21.7857 23.3011C22.6196 23.4111 22.9535 24.4387 22.3435 25.0178L20.7362 26.5436L21.1397 28.7227C21.2928 29.5498 20.4186 30.1849 19.6794 29.7837L17.7316 28.7265L15.7838 29.7837C15.0446 30.1849 14.1704 29.5497 14.3235 28.7227L14.7271 26.5436L13.1198 25.0178C12.5097 24.4387 12.8436 23.4111 13.6775 23.3011L15.8747 23.0115L16.8291 21.0114C17.1913 20.2523 18.2719 20.2523 18.6341 21.0114ZM18.1829 21.2267C18.0018 20.8472 17.4615 20.8472 17.2804 21.2267L16.326 23.2268C16.2531 23.3796 16.1078 23.4851 15.94 23.5072L13.7429 23.7968C13.3259 23.8518 13.159 24.3656 13.464 24.6552L15.0713 26.1809C15.194 26.2975 15.2495 26.4682 15.2187 26.6346L14.8152 28.8137C14.7386 29.2273 15.1757 29.5448 15.5453 29.3442L17.4931 28.2871C17.6419 28.2063 17.8214 28.2063 17.9701 28.2871L19.9179 29.3442C20.2875 29.5448 20.7246 29.2273 20.648 28.8137L20.2445 26.6346C20.2137 26.4682 20.2692 26.2975 20.3919 26.1809L21.9992 24.6552C22.3043 24.3656 22.1373 23.8518 21.7203 23.7968L19.5232 23.5072C19.3554 23.4851 19.2102 23.3796 19.1373 23.2268L18.1829 21.2267Z" fill="black"/>
<path d="M27.8506 21.2267C28.0317 20.8472 28.572 20.8472 28.7531 21.2267L29.7075 23.2268C29.7804 23.3796 29.9257 23.4851 30.0935 23.5072L32.2906 23.7968C32.7076 23.8518 32.8745 24.3656 32.5695 24.6552L30.9622 26.1809C30.8395 26.2975 30.784 26.4682 30.8148 26.6346L31.2183 28.8137C31.2949 29.2273 30.8578 29.5448 30.4882 29.3442L28.5404 28.2871C28.3916 28.2063 28.2121 28.2063 28.0634 28.2871L26.1156 29.3442C25.746 29.5448 25.3089 29.2273 25.3855 28.8137L25.789 26.6346C25.8198 26.4682 25.7643 26.2975 25.6416 26.1809L24.0343 24.6552C23.7292 24.3656 23.8962 23.8518 24.3131 23.7968L26.5103 23.5072C26.6781 23.4851 26.8233 23.3796 26.8962 23.2268L27.8506 21.2267Z" fill="#D3B039"/>
<path fill-rule="evenodd" clip-rule="evenodd" d="M29.2044 21.0114L30.1588 23.0115L32.356 23.3011C33.1899 23.4111 33.5238 24.4387 32.9137 25.0178L31.3064 26.5436L31.7099 28.7227C31.8631 29.5498 30.9889 30.1849 30.2496 29.7837L28.3019 28.7265L26.3541 29.7837C25.6149 30.1849 24.7407 29.5497 24.8938 28.7227L25.2973 26.5436L23.69 25.0178C23.08 24.4387 23.4139 23.4111 24.2478 23.3011L26.445 23.0115L27.3994 21.0114C27.7616 20.2523 28.8422 20.2523 29.2044 21.0114ZM28.7531 21.2267C28.572 20.8472 28.0317 20.8472 27.8506 21.2267L26.8962 23.2268C26.8233 23.3796 26.6781 23.4851 26.5103 23.5072L24.3131 23.7968C23.8962 23.8518 23.7292 24.3656 24.0343 24.6552L25.6416 26.1809C25.7643 26.2975 25.8198 26.4682 25.789 26.6346L25.3855 28.8137C25.3089 29.2273 25.746 29.5448 26.1156 29.3442L28.0634 28.2871C28.2121 28.2063 28.3916 28.2063 28.5404 28.2871L30.4882 29.3442C30.8578 29.5448 31.2949 29.2273 31.2183 28.8137L30.8148 26.6346C30.784 26.4682 30.8395 26.2975 30.9622 26.1809L32.5695 24.6552C32.8745 24.3656 32.7076 23.8518 32.2906 23.7968L30.0935 23.5072C29.9257 23.4851 29.7804 23.3796 29.7075 23.2268L28.7531 21.2267Z" fill="black"/>
<path d="M22.58 15.852C22.7668 15.4931 23.2802 15.4931 23.467 15.852L25.1855 19.1533C25.2617 19.2997 25.4052 19.3991 25.5691 19.4189L29.4478 19.8875C29.8779 19.9395 30.0429 20.4767 29.716 20.7611L26.9382 23.1783C26.8026 23.2963 26.7407 23.4782 26.7764 23.6545L27.4819 27.1471C27.5643 27.555 27.1416 27.8791 26.7691 27.6938L23.2462 25.9411C23.1059 25.8713 22.941 25.8713 22.8008 25.9411L19.2779 27.6938C18.9054 27.8791 18.4827 27.555 18.5651 27.1471L19.2706 23.6545C19.3062 23.4782 19.2444 23.2963 19.1087 23.1783L16.3309 20.7611C16.0041 20.4767 16.169 19.9395 16.5992 19.8875L20.4779 19.4189C20.6417 19.3991 20.7852 19.2997 20.8614 19.1533L22.58 15.852Z" fill="#F8D047"/>
<path fill-rule="evenodd" clip-rule="evenodd" d="M23.9105 15.6211L25.629 18.9225L29.5078 19.3912C30.3681 19.4951 30.698 20.5695 30.0443 21.1383L27.2665 23.5555L27.972 27.0481C28.1368 27.8638 27.2914 28.5121 26.5464 28.1415L23.0235 26.3888L19.5006 28.1415C18.7556 28.5121 17.9102 27.8638 18.075 27.0481L18.7805 23.5555L16.0027 21.1383C15.349 20.5695 15.6789 19.4951 16.5392 19.3912L20.4179 18.9225L22.1365 15.6211C22.5101 14.9034 23.5369 14.9034 23.9105 15.6211ZM23.467 15.852C23.2802 15.4931 22.7668 15.4931 22.58 15.852L20.8614 19.1533C20.7852 19.2997 20.6417 19.3991 20.4779 19.4189L16.5992 19.8875C16.169 19.9395 16.0041 20.4767 16.3309 20.7611L19.1087 23.1783C19.2444 23.2963 19.3062 23.4782 19.2706 23.6545L18.5651 27.1471C18.4827 27.555 18.9054 27.8791 19.2779 27.6938L22.8008 25.9411C22.941 25.8713 23.1059 25.8713 23.2462 25.9411L26.7691 27.6938C27.1416 27.8791 27.5643 27.555 27.4819 27.1471L26.7764 23.6545C26.7407 23.4782 26.8026 23.2963 26.9382 23.1783L29.716 20.7611C30.0429 20.4767 29.8779 19.9395 29.4478 19.8875L25.5691 19.4189C25.4052 19.3991 25.2617 19.2997 25.1855 19.1533L23.467 15.852Z" fill="black"/>
<path fill-rule="evenodd" clip-rule="evenodd" d="M36.4453 13H10.4453C9.34074 13 8.44531 13.8954 8.44531 15V31C8.44531 32.1046 9.34074 33 10.4453 33H36.4453C37.5499 33 38.4453 32.1046 38.4453 31V15C38.4453 13.8954 37.5499 13 36.4453 13ZM10.4453 12C8.78846 12 7.44531 13.3431 7.44531 15V31C7.44531 32.6569 8.78846 34 10.4453 34H36.4453C38.1022 34 39.4453 32.6569 39.4453 31V15C39.4453 13.3431 38.1022 12 36.4453 12H10.4453Z" fill="black"/>
<path fill-rule="evenodd" clip-rule="evenodd" d="M29.4453 34H16.4453V32H29.4453V34Z" fill="#FAF9F6"/>
<path fill-rule="evenodd" clip-rule="evenodd" d="M26.4506 34.7526C25.546 35.3277 24.8541 36.2908 24.0603 37.8817C23.8093 38.3847 23.1049 38.3999 22.8234 37.9257C21.6926 36.0204 20.7293 35.0819 19.7167 34.5914C18.6913 34.0947 17.5478 34.0203 15.939 34.0001L15.9516 33.0002C17.5462 33.0202 18.9021 33.0857 20.1526 33.6914C21.3167 34.2553 22.3329 35.2562 23.4074 36.9635C24.1385 35.5793 24.8836 34.5638 25.9141 33.9087C27.0636 33.178 28.4906 32.9436 30.4597 33.0003L30.4309 33.9999C28.5362 33.9453 27.3499 34.1809 26.4506 34.7526Z" fill="black"/>
</svg>
