<svg width="47" height="46" viewBox="0 0 47 46" fill="none" xmlns="http://www.w3.org/2000/svg">
<path d="M46.4453 23C46.4453 35.7025 36.1479 46 23.4453 46C10.7428 46 0.445312 35.7025 0.445312 23C0.445312 10.2975 10.7428 0 23.4453 0C36.1479 0 46.4453 10.2975 46.4453 23Z" fill="#FAF9F6"/>
<path fill-rule="evenodd" clip-rule="evenodd" d="M23.4453 45C35.5956 45 45.4453 35.1503 45.4453 23C45.4453 10.8497 35.5956 1 23.4453 1C11.295 1 1.44531 10.8497 1.44531 23C1.44531 35.1503 11.295 45 23.4453 45ZM23.4453 46C36.1479 46 46.4453 35.7025 46.4453 23C46.4453 10.2975 36.1479 0 23.4453 0C10.7428 0 0.445312 10.2975 0.445312 23C0.445312 35.7025 10.7428 46 23.4453 46Z" fill="black"/>
<path d="M10.6038 15.5552C10.7849 15.1756 11.3252 15.1756 11.5063 15.5552L13.1299 18.9577C13.2028 19.1104 13.348 19.216 13.5159 19.2381L17.2535 19.7308C17.6705 19.7857 17.8375 20.2996 17.5324 20.5891L14.7982 23.1847C14.6754 23.3012 14.62 23.4719 14.6508 23.6383L15.3372 27.3454C15.4138 27.7589 14.9767 28.0765 14.6071 27.8758L11.2936 26.0775C11.1448 25.9967 10.9653 25.9967 10.8166 26.0775L7.50311 27.8758C7.13349 28.0765 6.69639 27.7589 6.77296 27.3454L7.45939 23.6383C7.49021 23.4719 7.43474 23.3012 7.31199 23.1847L4.57773 20.5891C4.27271 20.2996 4.43967 19.7857 4.85662 19.7308L8.59432 19.2381C8.76212 19.216 8.90734 19.1104 8.98023 18.9577L10.6038 15.5552Z" fill="#D3B039"/>
<path fill-rule="evenodd" clip-rule="evenodd" d="M13.7148 18.5581L12.138 15.2535C11.7033 14.3426 10.4066 14.3426 9.97194 15.2535L8.3951 18.5581L4.76502 19.0366C3.76433 19.1685 3.36364 20.4017 4.09568 21.0966L6.75121 23.6174L6.08455 27.2177C5.90077 28.2102 6.9498 28.9723 7.83691 28.4909L11.055 26.7443L14.273 28.4909C15.1601 28.9723 16.2092 28.2102 16.0254 27.2177L15.3587 23.6174L18.0143 21.0966C18.7463 20.4017 18.3456 19.1685 17.3449 19.0366L13.7148 18.5581ZM11.5063 15.5552C11.3252 15.1756 10.7849 15.1756 10.6038 15.5552L8.98023 18.9577C8.90734 19.1104 8.76212 19.216 8.59432 19.2381L4.85662 19.7308C4.43967 19.7857 4.27271 20.2996 4.57773 20.5891L7.31199 23.1847C7.43474 23.3012 7.49021 23.4719 7.45939 23.6383L6.77296 27.3454C6.69639 27.7589 7.13349 28.0765 7.50311 27.8758L10.8166 26.0775C10.9653 25.9967 11.1448 25.9967 11.2936 26.0775L14.6071 27.8758C14.9767 28.0765 15.4138 27.7589 15.3372 27.3454L14.6508 23.6383C14.62 23.4719 14.6754 23.3012 14.7982 23.1847L17.5324 20.5891C17.8375 20.2996 17.6705 19.7857 17.2535 19.7308L13.5159 19.2381C13.348 19.216 13.2028 19.1104 13.1299 18.9577L11.5063 15.5552Z" fill="black"/>
<path d="M34.3851 15.5552C34.5662 15.1756 35.1065 15.1756 35.2876 15.5552L36.9112 18.9577C36.9841 19.1104 37.1293 19.216 37.2971 19.2381L41.0348 19.7308C41.4517 19.7857 41.6187 20.2996 41.3137 20.5891L38.5794 23.1847C38.4567 23.3012 38.4012 23.4719 38.432 23.6383L39.1185 27.3454C39.195 27.7589 38.7579 28.0765 38.3883 27.8758L35.0748 26.0775C34.9261 25.9967 34.7466 25.9967 34.5978 26.0775L31.2844 27.8758C30.9147 28.0765 30.4776 27.7589 30.5542 27.3454L31.2406 23.6383C31.2715 23.4719 31.216 23.3012 31.0932 23.1847L28.359 20.5891C28.054 20.2996 28.2209 19.7857 28.6379 19.7308L32.3756 19.2381C32.5434 19.216 32.6886 19.1104 32.7615 18.9577L34.3851 15.5552Z" fill="#D3B039"/>
<path fill-rule="evenodd" clip-rule="evenodd" d="M37.4961 18.5581L35.9192 15.2535C35.4845 14.3426 34.1879 14.3426 33.7532 15.2535L32.1763 18.5581L28.5463 19.0366C27.5456 19.1685 27.1449 20.4017 27.8769 21.0966L30.5325 23.6174L29.8658 27.2177C29.682 28.2102 30.731 28.9723 31.6182 28.4909L34.8362 26.7443L38.0543 28.4909C38.9414 28.9723 39.9904 28.2102 39.8066 27.2177L39.14 23.6174L41.7955 21.0966C42.5275 20.4017 42.1268 19.1685 41.1262 19.0366L37.4961 18.5581ZM35.2876 15.5552C35.1065 15.1756 34.5662 15.1756 34.3851 15.5552L32.7615 18.9577C32.6886 19.1104 32.5434 19.216 32.3756 19.2381L28.6379 19.7308C28.2209 19.7857 28.054 20.2996 28.359 20.5891L31.0932 23.1847C31.216 23.3012 31.2715 23.4719 31.2406 23.6383L30.5542 27.3454C30.4776 27.7589 30.9147 28.0765 31.2844 27.8758L34.5978 26.0775C34.7466 25.9967 34.9261 25.9967 35.0748 26.0775L38.3883 27.8758C38.7579 28.0765 39.195 27.7589 39.1185 27.3454L38.432 23.6383C38.4012 23.4719 38.4567 23.3012 38.5794 23.1847L41.3137 20.5891C41.6187 20.2996 41.4517 19.7857 41.0348 19.7308L37.2971 19.2381C37.1293 19.216 36.9841 19.1104 36.9112 18.9577L35.2876 15.5552Z" fill="black"/>
<path d="M22.4976 7.9458C22.6787 7.56624 23.219 7.56624 23.4001 7.9458L25.7086 12.7837C25.7815 12.9364 25.9267 13.0419 26.0945 13.064L31.4089 13.7646C31.8259 13.8195 31.9928 14.3334 31.6878 14.6229L27.8001 18.3134C27.6774 18.43 27.6219 18.6007 27.6527 18.7671L28.6287 24.0379C28.7053 24.4514 28.2682 24.769 27.8986 24.5684L23.1873 22.0114C23.0386 21.9307 22.8591 21.9307 22.7103 22.0114L17.9991 24.5684C17.6294 24.769 17.1923 24.4514 17.2689 24.0379L18.2449 18.7671C18.2757 18.6007 18.2203 18.43 18.0975 18.3134L14.2098 14.6229C13.9048 14.3334 14.0717 13.8195 14.4887 13.7646L19.8031 13.064C19.9709 13.0419 20.1162 12.9364 20.1891 12.7837L22.4976 7.9458Z" fill="#F8D047"/>
<path fill-rule="evenodd" clip-rule="evenodd" d="M26.2935 12.384L24.0317 7.64415C23.597 6.7332 22.3004 6.7332 21.8657 7.64415L19.6039 12.384L14.3971 13.0704C13.3964 13.2023 12.9957 14.4355 13.7278 15.1304L17.5367 18.7462L16.5805 23.9103C16.3967 24.9027 17.4458 25.6649 18.3329 25.1834L22.9487 22.6782L27.5645 25.1834C28.4516 25.6649 29.5007 24.9027 29.3169 23.9103L28.3607 18.7462L32.1696 15.1304C32.9017 14.4355 32.501 13.2023 31.5003 13.0704L26.2935 12.384ZM23.4001 7.9458C23.219 7.56624 22.6787 7.56624 22.4976 7.9458L20.1891 12.7837C20.1162 12.9364 19.9709 13.0419 19.8031 13.064L14.4887 13.7646C14.0717 13.8195 13.9048 14.3334 14.2098 14.6229L18.0975 18.3134C18.2203 18.43 18.2757 18.6007 18.2449 18.7671L17.2689 24.0379C17.1923 24.4514 17.6294 24.769 17.9991 24.5684L22.7103 22.0114C22.8591 21.9307 23.0386 21.9307 23.1873 22.0114L27.8986 24.5684C28.2682 24.769 28.7053 24.4514 28.6287 24.0379L27.6527 18.7671C27.6219 18.6007 27.6774 18.43 27.8001 18.3134L31.6878 14.6229C31.9928 14.3334 31.8259 13.8195 31.4089 13.7646L26.0945 13.064C25.9267 13.0419 25.7815 12.9364 25.7086 12.7837L23.4001 7.9458Z" fill="black"/>
<path d="M29.1315 31.2532C29.1315 34.668 26.3633 37.4362 22.9486 37.4362C19.5338 37.4362 16.7656 34.668 16.7656 31.2532C16.7656 27.8385 19.5338 25.0703 22.9486 25.0703C26.3633 25.0703 29.1315 27.8385 29.1315 31.2532Z" fill="#FAF9F6"/>
<path fill-rule="evenodd" clip-rule="evenodd" d="M22.9486 35.7362C25.4244 35.7362 27.4315 33.7291 27.4315 31.2532C27.4315 28.7774 25.4244 26.7703 22.9486 26.7703C20.4727 26.7703 18.4656 28.7774 18.4656 31.2532C18.4656 33.7291 20.4727 35.7362 22.9486 35.7362ZM22.9486 37.4362C26.3633 37.4362 29.1315 34.668 29.1315 31.2532C29.1315 27.8385 26.3633 25.0703 22.9486 25.0703C19.5338 25.0703 16.7656 27.8385 16.7656 31.2532C16.7656 34.668 19.5338 37.4362 22.9486 37.4362Z" fill="black"/>
<path d="M25.2147 31.4987C22.9746 33.3608 21.7244 33.3929 20.126 31.4987C18.6014 29.7235 19.9743 30.1967 20.9741 30.7182C22.3173 31.4189 22.2937 30.9611 23.5185 30.3287L27.4453 27.8257C29.7878 26.4436 30.9453 26.8216 28.6072 28.7718L25.2147 31.4987Z" fill="#F8D047"/>
<path fill-rule="evenodd" clip-rule="evenodd" d="M29.9944 27.7681C29.7856 28.0956 29.3911 28.5086 28.7994 29.0022L28.7952 29.0056L25.4046 31.731C24.2802 32.6654 23.3366 33.2027 22.4312 33.2073C21.503 33.212 20.714 32.6605 19.8975 31.6932C19.5161 31.2489 19.2824 30.9092 19.192 30.6549C19.1479 30.5307 19.1148 30.3635 19.1896 30.2057C19.2735 30.0285 19.4397 29.9669 19.5623 29.95C19.6824 29.9333 19.8112 29.9496 19.9273 29.9745C20.0479 30.0004 20.1779 30.0409 20.3086 30.0888C20.5703 30.1847 20.8559 30.3182 21.1128 30.4522C21.7749 30.7976 22.0055 30.8027 22.1951 30.7389C22.3125 30.6995 22.4359 30.6259 22.6326 30.5013C22.6454 30.4932 22.6584 30.485 22.6716 30.4766C22.8523 30.3621 23.0765 30.2199 23.3686 30.0684L27.2928 27.5671C27.8909 27.2142 28.4234 26.9677 28.8524 26.8304C29.0665 26.762 29.2635 26.7178 29.4354 26.7044C29.5988 26.6915 29.7803 26.703 29.9302 26.7886C30.0105 26.8344 30.0816 26.9018 30.1287 26.9929C30.1752 27.0829 30.1892 27.1783 30.1842 27.2676C30.1749 27.4366 30.0968 27.6076 29.9944 27.7681ZM27.6022 28.0814L23.6682 30.5889L23.6561 30.5952C23.3822 30.7366 23.1742 30.8684 22.991 30.9845C22.9784 30.9925 22.9659 31.0005 22.9535 31.0083C22.7683 31.1256 22.584 31.2412 22.3863 31.3077C21.9457 31.4558 21.5165 31.3395 20.8353 30.9842C20.5923 30.8574 20.3314 30.7362 20.1021 30.6521C19.9897 30.6109 19.8899 30.5805 19.8066 30.5623C19.8885 30.7166 20.055 30.9556 20.3536 31.3032L20.3552 31.3052C21.1369 32.2314 21.772 32.6106 22.4282 32.6073C23.1071 32.6039 23.9081 32.1947 25.0229 31.268L25.0267 31.2648L28.4171 28.5397C28.9932 28.059 29.3301 27.6939 29.4885 27.4456C29.5284 27.3829 29.5522 27.335 29.5662 27.3004C29.5445 27.2995 29.5169 27.2998 29.4823 27.3025C29.3719 27.3112 29.2227 27.3419 29.0353 27.4019C28.6625 27.5212 28.1734 27.7447 27.6022 28.0814ZM19.7452 30.4083C19.7452 30.4084 19.7453 30.409 19.7453 30.4103Z" fill="black"/>
</svg>
