<svg width="24" height="19" viewBox="0 0 24 19" fill="none" xmlns="http://www.w3.org/2000/svg">
<path fill-rule="evenodd" clip-rule="evenodd" d="M8.68832 17.0478C7.96522 17.4359 7.17835 17.6489 6.3553 17.6489C2.81085 17.6489 -0.0625 13.6981 -0.0625 8.82447C-0.0625 3.95085 2.81085 0 6.3553 0C6.85182 0 7.33517 0.07753 7.7993 0.224266C15.902 0.224263 23.3623 5.29468 23.8437 9.94759C24.325 14.6005 22.9612 16.4457 19.5917 17.8897C16.2733 19.3118 10.6217 17.9328 8.68832 17.0478ZM6.19922 17C9.23678 17 11.6992 13.4183 11.6992 9C11.6992 4.58172 9.23678 1 6.19922 1C3.16165 1 0.699219 4.58172 0.699219 9C0.699219 13.4183 3.16165 17 6.19922 17Z" fill="#2E2D33"/>
</svg>
