<svg width="44" height="44" viewBox="0 0 44 44" fill="none" xmlns="http://www.w3.org/2000/svg">
<path d="M21.0699 17.4748C22.1105 17.6506 25.5546 9.94171 26.4486 6.24846C26.815 4.73892 27.4452 3.53714 29.1306 3.288C32.2669 2.67246 33.5859 6.82003 31.2703 8.63735C28.6909 11.3926 24.2649 15.5402 27.0934 19.0283C31.8272 25.8872 40.694 9.76584 43.2001 17.5774C40.9138 22.7362 31.5781 18.2808 31.3143 30.4744C32.1936 47.2699 10.6204 48.4863 7.61595 33.772C5.02188 26.3122 5.54949 18.0024 1.28466 10.9969C-0.166255 8.50545 4.34772 6.24846 5.41759 9.16495C7.07369 12.6677 7.08834 19.5412 12.2765 18.6619C17.2887 17.9438 16.2922 7.90456 16.0723 3.90354C15.8525 1.70518 16.4387 -0.288007 18.9742 0.0344195C21.4656 0.34219 21.5682 2.45262 20.938 4.51908C19.7509 8.46148 19.4138 17.1084 21.0699 17.4748Z" fill="#2E2D33"/>
</svg>
