<svg width="23" height="24" viewBox="0 0 23 24" fill="none" xmlns="http://www.w3.org/2000/svg">
<path d="M0 5.9609C0.000153438 5.21757 0.000351879 1.71328 0 0.863755C2.65476 0.213321 7.96428 0.0142162 11.2562 0.000940345C14.5481 -0.0123355 19.9638 0.107124 22.9371 0.863755C22.9368 1.71328 22.937 5.21757 22.9371 5.9609C22.2996 6.27947 21.3443 6.38566 21.3443 6.38566C21.3443 6.38566 22.3003 16.049 22.5124 19.8719C22.7244 23.6947 12.9548 24 11.15 24C9.34518 24 0.212703 23.6947 0.424762 19.8719C0.636821 16.049 1.59286 6.38566 1.59286 6.38566C1.59286 6.38566 0.637557 6.27947 0 5.9609Z" fill="#2E2D33"/>
</svg>
