<svg width="44" height="44" viewBox="0 0 44 44" fill="none" xmlns="http://www.w3.org/2000/svg">
<g clip-path="url(#clip0_1873_24073)">
<path d="M21.7294 14.5203C21.7301 10.7241 20.239 7.52477 18.2479 4.51111C17.7638 3.78727 17.7401 2.96237 18.1752 2.29885C19.9515 0.493948 23.2541 0.233867 25.649 0.0254881C40.287 -0.663885 38.8632 12.8024 29.321 19.5982C29.2017 19.6804 29.1864 19.7517 29.2498 19.8826C29.7729 20.9542 30.013 22.0909 29.9801 23.2887C29.9648 23.83 29.8868 24.3627 29.7484 24.8852C29.7178 25.0004 29.7339 25.0724 29.8356 25.1429C32.7428 27.1664 36.1639 28.6916 39.7441 28.4746C46.1612 26.8531 43.8733 33.0308 42.1513 36.5098C40.3834 39.8728 37.6298 42.841 33.9288 43.8531C31.2946 44.5394 28.869 42.7078 27.2151 40.7948C24.6963 37.8815 23.7313 34.0672 23.2342 30.2999C23.2121 30.1244 23.1539 30.0359 22.9651 30.0273C21.5451 29.9803 20.1473 29.45 19.0416 28.535C18.0299 27.9976 16.1657 29.3262 15.3314 29.9427C12.9197 31.8925 11.2497 34.6116 9.86944 37.384C6.90636 42.5535 -5.5416 24.7654 2.87582 19.3929C7.11894 16.4185 12.714 17.7502 17.0305 19.8739C17.188 19.9515 17.2645 19.946 17.357 19.776C18.2624 18.1223 19.5807 16.988 21.3761 16.4702C21.7814 16.3276 21.6965 14.8008 21.7294 14.5203ZM27.4537 23.0733C27.3481 17.494 19.2572 17.4792 19.118 23.0827C19.1823 28.6893 27.3787 28.6932 27.4537 23.0733Z" fill="#2E2D33"/>
</g>
<defs>
<clipPath id="clip0_1873_24073">
<rect width="44" height="44" fill="white"/>
</clipPath>
</defs>
</svg>
