<svg width="24" height="28" viewBox="0 0 24 28" fill="none" xmlns="http://www.w3.org/2000/svg">
<rect width="24" height="28" fill="#FAF9F6"/>
<rect width="24" height="6.6" fill="#FAF9F6"/>
<rect y="20.6016" width="24" height="3.6" fill="#FAF9F6"/>
<g clip-path="url(#clip0_4537_26522)">
<path d="M18.8555 6.5H16.5703C16.5703 4.01375 14.5251 2 12 2C9.4749 2 7.42969 4.01375 7.42969 6.5H5.14453C3.8877 6.5 2.85938 7.5125 2.85938 8.75V22.25C2.85938 23.4875 3.8877 24.5 5.14453 24.5H18.8555C20.1123 24.5 21.1406 23.4875 21.1406 22.25V8.75C21.1406 7.5125 20.1123 6.5 18.8555 6.5ZM12 4.25C13.2568 4.25 14.2852 5.2625 14.2852 6.5H9.71485C9.71485 5.2625 10.7432 4.25 12 4.25ZM18.8555 22.25H5.14453V8.75H7.42969V11C7.42969 11.6188 7.94385 12.125 8.57227 12.125C9.20068 12.125 9.71485 11.6188 9.71485 11V8.75H14.2852V11C14.2852 11.6188 14.7993 12.125 15.4277 12.125C16.0562 12.125 16.5703 11.6188 16.5703 11V8.75H18.8555V22.25Z" fill="#2E2D33"/>
</g>
<defs>
<clipPath id="clip0_4537_26522">
<rect width="18" height="24" fill="white" transform="translate(3 2)"/>
</clipPath>
</defs>
</svg>
