<svg width="24" height="28" viewBox="0 0 24 28" fill="none" xmlns="http://www.w3.org/2000/svg">
<path d="M18.875 6.8H16.4643C16.4643 4.148 14.3067 2 11.6429 2C8.97902 2 6.82143 4.148 6.82143 6.8H4.41071C3.08482 6.8 2 7.88 2 9.2V23.6C2 24.92 3.08482 26 4.41071 26H18.875C20.2009 26 21.2857 24.92 21.2857 23.6V9.2C21.2857 7.88 20.2009 6.8 18.875 6.8ZM11.6429 4.4C12.9688 4.4 14.0536 5.48 14.0536 6.8H9.23214C9.23214 5.48 10.317 4.4 11.6429 4.4ZM18.875 23.6H4.41071V9.2H6.82143V11.6C6.82143 12.26 7.36384 12.8 8.02679 12.8C8.68973 12.8 9.23214 12.26 9.23214 11.6V9.2H14.0536V11.6C14.0536 12.26 14.596 12.8 15.2589 12.8C15.9219 12.8 16.4643 12.26 16.4643 11.6V9.2H18.875V23.6Z" fill="#2E2D33"/>
</svg>
