<svg width="32" height="32" viewBox="0 0 32 32" fill="none" xmlns="http://www.w3.org/2000/svg">
<path d="M5.08594 8.48438H26.9141V30.3125H5.08594V8.48438Z" fill="#F8D047"/>
<path d="M25.75 6.4H22.5C22.5 2.864 19.5913 0 16 0C12.4087 0 9.5 2.864 9.5 6.4H6.25C4.4625 6.4 3 7.84 3 9.6V28.8C3 30.56 4.4625 32 6.25 32H25.75C27.5375 32 29 30.56 29 28.8V9.6C29 7.84 27.5375 6.4 25.75 6.4ZM16 3.2C17.7875 3.2 19.25 4.64 19.25 6.4H12.75C12.75 4.64 14.2125 3.2 16 3.2ZM25.75 28.8H6.25V9.6H9.5V12.8C9.5 13.68 10.2312 14.4 11.125 14.4C12.0188 14.4 12.75 13.68 12.75 12.8V9.6H19.25V12.8C19.25 13.68 19.9813 14.4 20.875 14.4C21.7688 14.4 22.5 13.68 22.5 12.8V9.6H25.75V28.8Z" fill="#2E2D33"/>
</svg>
