<svg width="17" height="12" viewBox="0 0 17 12" fill="none" xmlns="http://www.w3.org/2000/svg">
<circle cx="8.67578" cy="6" r="5.5" transform="rotate(-90 8.67578 6)" fill="#F8D047" stroke="black"/>
<mask id="path-2-inside-1_3018_3011" fill="white">
<path fill-rule="evenodd" clip-rule="evenodd" d="M14.2766 6.21791C14.2774 6.27645 14.2778 6.33513 14.2778 6.39396C14.2778 6.48592 14.2768 6.57753 14.2748 6.66877C14.7781 6.97971 15.167 7.28602 15.4313 7.57091C15.7551 7.9198 15.8357 8.17188 15.8188 8.33797C15.802 8.50406 15.675 8.70957 15.2965 8.90091C14.9251 9.08868 14.3756 9.22707 13.6708 9.29601C12.2658 9.43342 10.3339 9.28653 8.21389 8.81088C6.09384 8.33523 4.21879 7.62801 2.90355 6.88029C2.24375 6.50519 1.74614 6.13187 1.42846 5.78949C1.10473 5.4406 1.02414 5.18852 1.04098 5.02244C1.05782 4.85635 1.1848 4.65084 1.5633 4.4595C1.93473 4.27173 2.48422 4.13333 3.18903 4.0644C3.23531 4.05987 3.28215 4.05566 3.32956 4.05175C3.35777 3.90925 3.38848 3.76835 3.42163 3.62915C1.78854 3.73692 0.722765 4.18565 0.646894 4.93402C0.505096 6.33268 3.87472 8.24832 8.17315 9.21271C12.4716 10.1771 16.0711 9.82505 16.2129 8.42639C16.281 7.7552 15.5404 6.96496 14.2766 6.21791ZM14.2706 6.81973C14.9755 7.25934 15.3697 7.68702 15.3335 8.04408C15.2368 8.99725 12.1094 9.08624 8.34817 8.24285C4.58695 7.39945 1.61626 5.94305 1.71295 4.98988C1.75401 4.58508 2.34171 4.33614 3.29243 4.2483C3.26719 4.3886 3.24436 4.53037 3.22401 4.67351C2.92098 4.70876 2.67184 4.76179 2.4808 4.82931C2.13609 4.95115 2.1078 5.07088 2.10705 5.07825C2.1063 5.08562 2.10958 5.21244 2.4148 5.48001C2.69462 5.72532 3.13425 6.00247 3.71846 6.28889C4.88096 6.85881 6.5307 7.42435 8.38893 7.84103C10.2472 8.2577 11.9357 8.44073 13.1595 8.4059C13.7746 8.3884 14.2496 8.31635 14.5657 8.20465C14.9104 8.08282 14.9387 7.96308 14.9394 7.95571C14.9402 7.94834 14.9369 7.82153 14.6317 7.55395C14.5261 7.46138 14.3977 7.36427 14.2474 7.26384C14.2577 7.11691 14.2655 6.96884 14.2706 6.81973Z"/>
</mask>
<path fill-rule="evenodd" clip-rule="evenodd" d="M14.2766 6.21791C14.2774 6.27645 14.2778 6.33513 14.2778 6.39396C14.2778 6.48592 14.2768 6.57753 14.2748 6.66877C14.7781 6.97971 15.167 7.28602 15.4313 7.57091C15.7551 7.9198 15.8357 8.17188 15.8188 8.33797C15.802 8.50406 15.675 8.70957 15.2965 8.90091C14.9251 9.08868 14.3756 9.22707 13.6708 9.29601C12.2658 9.43342 10.3339 9.28653 8.21389 8.81088C6.09384 8.33523 4.21879 7.62801 2.90355 6.88029C2.24375 6.50519 1.74614 6.13187 1.42846 5.78949C1.10473 5.4406 1.02414 5.18852 1.04098 5.02244C1.05782 4.85635 1.1848 4.65084 1.5633 4.4595C1.93473 4.27173 2.48422 4.13333 3.18903 4.0644C3.23531 4.05987 3.28215 4.05566 3.32956 4.05175C3.35777 3.90925 3.38848 3.76835 3.42163 3.62915C1.78854 3.73692 0.722765 4.18565 0.646894 4.93402C0.505096 6.33268 3.87472 8.24832 8.17315 9.21271C12.4716 10.1771 16.0711 9.82505 16.2129 8.42639C16.281 7.7552 15.5404 6.96496 14.2766 6.21791ZM14.2706 6.81973C14.9755 7.25934 15.3697 7.68702 15.3335 8.04408C15.2368 8.99725 12.1094 9.08624 8.34817 8.24285C4.58695 7.39945 1.61626 5.94305 1.71295 4.98988C1.75401 4.58508 2.34171 4.33614 3.29243 4.2483C3.26719 4.3886 3.24436 4.53037 3.22401 4.67351C2.92098 4.70876 2.67184 4.76179 2.4808 4.82931C2.13609 4.95115 2.1078 5.07088 2.10705 5.07825C2.1063 5.08562 2.10958 5.21244 2.4148 5.48001C2.69462 5.72532 3.13425 6.00247 3.71846 6.28889C4.88096 6.85881 6.5307 7.42435 8.38893 7.84103C10.2472 8.2577 11.9357 8.44073 13.1595 8.4059C13.7746 8.3884 14.2496 8.31635 14.5657 8.20465C14.9104 8.08282 14.9387 7.96308 14.9394 7.95571C14.9402 7.94834 14.9369 7.82153 14.6317 7.55395C14.5261 7.46138 14.3977 7.36427 14.2474 7.26384C14.2577 7.11691 14.2655 6.96884 14.2706 6.81973Z" fill="black"/>
<path d="M14.2766 6.21791L14.7854 5.35706L13.2517 4.45046L13.2767 6.23194L14.2766 6.21791ZM14.2748 6.66877L13.275 6.64684L13.2625 7.2188L13.7492 7.5195L14.2748 6.66877ZM15.4313 7.57091L16.1644 6.89073L16.1644 6.89073L15.4313 7.57091ZM15.8188 8.33797L14.8239 8.2371L14.8239 8.23711L15.8188 8.33797ZM15.2965 8.90091L15.7477 9.79336L15.7477 9.79336L15.2965 8.90091ZM13.6708 9.29601L13.7681 10.2913L13.6708 9.29601ZM8.21389 8.81088L8.43281 7.83514L8.21389 8.81088ZM2.90355 6.88029L3.39777 6.01095L3.39777 6.01095L2.90355 6.88029ZM1.42846 5.78949L0.695415 6.46967L0.695415 6.46968L1.42846 5.78949ZM1.04098 5.02244L2.03588 5.1233L1.04098 5.02244ZM1.5633 4.4595L2.01445 5.35195L2.01445 5.35195L1.5633 4.4595ZM3.18903 4.0644L3.09169 3.06915L3.09169 3.06915L3.18903 4.0644ZM3.32956 4.05175L3.41171 5.04837L4.16395 4.98637L4.31052 4.24593L3.32956 4.05175ZM3.42163 3.62915L4.39443 3.86081L4.70847 2.54206L3.35578 2.63132L3.42163 3.62915ZM0.646894 4.93402L1.64179 5.03488L0.646894 4.93402ZM8.17315 9.21271L7.95424 10.1885L8.17315 9.21271ZM16.2129 8.42639L17.2078 8.52725L16.2129 8.42639ZM14.2706 6.81973L14.7997 5.97119L13.3301 5.05475L13.2711 6.78568L14.2706 6.81973ZM15.3335 8.04408L14.3386 7.94316L15.3335 8.04408ZM8.34817 8.24285L8.56697 7.26708L8.34817 8.24285ZM1.71295 4.98988L2.70784 5.0908V5.0908L1.71295 4.98988ZM3.29243 4.2483L4.27663 4.42538L4.50941 3.13158L3.20042 3.25254L3.29243 4.2483ZM3.22401 4.67351L3.33957 5.66681L4.10556 5.5777L4.21407 4.81421L3.22401 4.67351ZM2.4808 4.82931L2.81404 5.77215L2.81404 5.77215L2.4808 4.82931ZM2.10705 5.07825L1.11215 4.97733L1.11215 4.97733L2.10705 5.07825ZM2.4148 5.48001L1.75558 6.23197L2.4148 5.48001ZM3.71846 6.28889L3.27826 7.18679L3.71846 6.28889ZM8.38893 7.84103L8.60773 6.86526L8.38893 7.84103ZM13.1595 8.4059L13.188 9.4055H13.188L13.1595 8.4059ZM14.5657 8.20465L14.8989 9.1475L14.5657 8.20465ZM14.9394 7.95571L15.9343 8.05667V8.05666L14.9394 7.95571ZM14.6317 7.55395L15.2909 6.802L15.2909 6.802L14.6317 7.55395ZM14.2474 7.26384L13.2499 7.1938L13.2092 7.77281L13.6918 8.0953L14.2474 7.26384ZM15.2778 6.39396C15.2778 6.33045 15.2773 6.26709 15.2765 6.20389L13.2767 6.23194C13.2774 6.2858 13.2778 6.33981 13.2778 6.39396H15.2778ZM15.2745 6.69069C15.2767 6.59215 15.2778 6.49323 15.2778 6.39396H13.2778C13.2778 6.4786 13.2769 6.5629 13.275 6.64684L15.2745 6.69069ZM13.7492 7.5195C14.2065 7.80205 14.5155 8.05408 14.6983 8.2511L16.1644 6.89073C15.8185 6.51796 15.3496 6.15737 14.8004 5.81803L13.7492 7.5195ZM14.6983 8.25109C14.8101 8.37159 14.8416 8.43496 14.8441 8.44035C14.8453 8.443 14.8106 8.36814 14.8239 8.2371L16.8137 8.43884C16.8734 7.84976 16.5646 7.32207 16.1644 6.89073L14.6983 8.25109ZM14.8239 8.23711C14.8305 8.1722 14.847 8.11375 14.8689 8.0644C14.8905 8.01559 14.9141 7.98273 14.9294 7.96457C14.9577 7.93117 14.951 7.95506 14.8454 8.00846L15.7477 9.79336C16.2833 9.52259 16.7486 9.081 16.8137 8.43884L14.8239 8.23711ZM14.8454 8.00846C14.6299 8.1174 14.2184 8.23767 13.5734 8.30076L13.7681 10.2913C14.5327 10.2165 15.2203 10.06 15.7477 9.79336L14.8454 8.00846ZM13.5734 8.30076C12.3038 8.42493 10.4827 8.29505 8.43281 7.83514L7.99497 9.78663C10.1852 10.278 12.2278 10.4419 13.7681 10.2913L13.5734 8.30076ZM8.43281 7.83514C6.38567 7.37585 4.60824 6.6991 3.39777 6.01095L2.40933 7.74963C3.82934 8.55691 5.80201 9.29462 7.99497 9.78663L8.43281 7.83514ZM3.39777 6.01095C2.78623 5.66329 2.38385 5.34894 2.1615 5.10931L0.695415 6.46968C1.10844 6.9148 1.70127 7.34709 2.40934 7.74963L3.39777 6.01095ZM2.1615 5.10931C2.0497 4.98881 2.01823 4.92545 2.01575 4.92005C2.01453 4.91741 2.04917 4.99227 2.03588 5.1233L0.0460818 4.92157C-0.0136394 5.51065 0.295184 6.03834 0.695415 6.46967L2.1615 5.10931ZM2.03588 5.1233C2.0293 5.18821 2.01277 5.24665 1.99092 5.29601C1.96932 5.34482 1.9457 5.37768 1.93036 5.39584C1.90213 5.42924 1.9088 5.40535 2.01445 5.35195L1.11215 3.56705C0.576529 3.83781 0.111185 4.27941 0.0460818 4.92157L2.03588 5.1233ZM2.01445 5.35195C2.22995 5.24301 2.64137 5.12273 3.28637 5.05965L3.09169 3.06915C2.32706 3.14393 1.63951 3.30046 1.11215 3.56705L2.01445 5.35195ZM3.28637 5.05965C3.32748 5.05563 3.36926 5.05187 3.41171 5.04837L3.24741 3.05513C3.19505 3.05944 3.14314 3.06412 3.09169 3.06915L3.28637 5.05965ZM2.44883 3.39749C2.41271 3.5492 2.37927 3.7026 2.34859 3.85756L4.31052 4.24593C4.33626 4.1159 4.36426 3.98749 4.39443 3.86081L2.44883 3.39749ZM1.64179 5.03488C1.62747 5.17614 1.52637 5.10594 1.86566 4.95102C2.18998 4.80293 2.72903 4.67703 3.48748 4.62698L3.35578 2.63132C2.48115 2.68904 1.67076 2.84139 1.03495 3.1317C0.414116 3.41518 -0.257814 3.94352 -0.348006 4.83315L1.64179 5.03488ZM8.39207 8.23696C6.31576 7.77113 4.49637 7.08161 3.23915 6.36688C2.60647 6.0072 2.15944 5.66545 1.89163 5.37683C1.60197 5.06465 1.6495 4.95885 1.64179 5.03488L-0.348006 4.83315C-0.426614 5.60852 -0.0110503 6.26667 0.425539 6.73719C0.883977 7.23126 1.52141 7.69094 2.25072 8.10555C3.71747 8.93941 5.73211 9.6899 7.95424 10.1885L8.39207 8.23696ZM15.218 8.32552C15.2312 8.19535 15.3226 8.2448 15.0502 8.38248C14.7815 8.5183 14.322 8.64515 13.6544 8.71044C12.3348 8.8395 10.4711 8.70342 8.39207 8.23696L7.95424 10.1885C10.1736 10.6864 12.2589 10.8565 13.8491 10.7009C14.6364 10.6239 15.372 10.4608 15.9525 10.1674C16.5292 9.87582 17.1237 9.35676 17.2078 8.52725L15.218 8.32552ZM13.7677 7.07877C14.3512 7.42366 14.7575 7.74691 14.9982 8.01654C15.2564 8.30585 15.2105 8.39989 15.218 8.32552L17.2078 8.52725C17.2834 7.78169 16.9012 7.14502 16.4902 6.68465C16.0616 6.2046 15.4657 5.75921 14.7854 5.35706L13.7677 7.07877ZM13.7414 7.66826C14.0525 7.86227 14.2376 8.01956 14.33 8.12436C14.3744 8.17465 14.3767 8.18974 14.367 8.16767C14.3555 8.14171 14.3267 8.06091 14.3386 7.94316L16.3284 8.145C16.3882 7.55615 16.0837 7.08907 15.8299 6.80136C15.5581 6.49316 15.1936 6.2168 14.7997 5.97119L13.7414 7.66826ZM14.3386 7.94316C14.377 7.5649 14.6858 7.55093 14.397 7.65302C14.1736 7.73196 13.7751 7.80083 13.1866 7.81758C12.0294 7.85051 10.3936 7.67667 8.56697 7.26708L8.12937 9.21862C10.064 9.65242 11.8725 9.85578 13.2435 9.81677C13.9191 9.79755 14.5557 9.71817 15.0634 9.5387C15.5057 9.38239 16.2417 8.99984 16.3284 8.145L14.3386 7.94316ZM8.56697 7.26708C6.74222 6.85791 5.13747 6.3055 4.02405 5.75963C3.46158 5.48388 3.06925 5.23139 2.83921 5.02972C2.54552 4.77225 2.73708 4.80258 2.70784 5.0908L0.718056 4.88896C0.640475 5.65377 1.16712 6.22359 1.52078 6.53363C1.93809 6.89947 2.50537 7.24251 3.14364 7.55543C4.4317 8.18691 6.1929 8.7844 8.12937 9.21862L8.56697 7.26708ZM2.70784 5.0908C2.69321 5.23505 2.62752 5.34068 2.57652 5.39566C2.5355 5.43988 2.51922 5.43626 2.57726 5.40974C2.70048 5.35342 2.95726 5.28353 3.38444 5.24405L3.20042 3.25254C2.67688 3.30091 2.16445 3.39941 1.74587 3.59073C1.3475 3.77281 0.791797 4.162 0.718056 4.88896L2.70784 5.0908ZM2.30823 4.07121C2.28081 4.22366 2.25603 4.37756 2.23396 4.5328L4.21407 4.81421C4.23269 4.68319 4.25356 4.55355 4.27663 4.42538L2.30823 4.07121ZM2.81404 5.77215C2.91121 5.73781 3.08117 5.69687 3.33957 5.66681L3.10846 3.68021C2.76079 3.72065 2.43247 3.78577 2.14757 3.88647L2.81404 5.77215ZM3.10194 5.17917C3.09516 5.24609 3.08299 5.29738 3.07693 5.32128C3.06879 5.3534 3.05958 5.38274 3.05006 5.40919C3.03085 5.46255 3.00821 5.51008 2.98423 5.55178C2.93578 5.63607 2.88261 5.69539 2.8408 5.73374C2.76153 5.80642 2.72297 5.80434 2.81404 5.77215L2.14757 3.88647C1.70986 4.04117 1.17443 4.36337 1.11215 4.97733L3.10194 5.17917ZM3.07401 4.72806C2.97425 4.64059 2.97708 4.62179 3.00805 4.67441C3.0246 4.70254 3.05078 4.75384 3.07217 4.82743C3.08283 4.86414 3.09262 4.90748 3.09909 4.95693C3.1023 4.98148 3.10492 5.00928 3.10618 5.03998C3.10708 5.06181 3.10862 5.11335 3.10194 5.17917L1.11215 4.97733C1.08175 5.27708 1.19044 5.52914 1.28433 5.6887C1.39305 5.87346 1.55013 6.05185 1.75558 6.23197L3.07401 4.72806ZM4.15866 5.39099C3.61227 5.12312 3.26016 4.89124 3.07401 4.72806L1.75558 6.23197C2.12908 6.5594 2.65622 6.88183 3.27826 7.18679L4.15866 5.39099ZM8.60773 6.86526C6.80536 6.4611 5.23385 5.91811 4.15866 5.39099L3.27826 7.18679C4.52807 7.79952 6.25605 8.38759 8.17013 8.8168L8.60773 6.86526ZM13.1311 7.40631C12.0142 7.43809 10.412 7.26983 8.60773 6.86526L8.17013 8.8168C10.0824 9.24558 11.8572 9.44336 13.188 9.4055L13.1311 7.40631ZM14.2324 7.26181C14.0587 7.32323 13.7027 7.39004 13.1311 7.40631L13.188 9.4055C13.8464 9.38676 14.4406 9.30948 14.8989 9.1475L14.2324 7.26181ZM13.9445 7.85475C13.9513 7.78786 13.9635 7.73658 13.9696 7.71267C13.9777 7.68056 13.9869 7.65122 13.9964 7.62477C14.0156 7.57141 14.0383 7.52388 14.0622 7.48218C14.1107 7.3979 14.1639 7.33857 14.2057 7.30023C14.2849 7.22754 14.3235 7.22962 14.2324 7.26181L14.8989 9.1475C15.3366 8.99279 15.872 8.67059 15.9343 8.05667L13.9445 7.85475ZM13.9725 8.30591C14.0722 8.39337 14.0694 8.41218 14.0384 8.35956C14.0219 8.33142 13.9957 8.28012 13.9743 8.20653C13.9636 8.16982 13.9539 8.12648 13.9474 8.07703C13.9442 8.05248 13.9416 8.02468 13.9403 7.99397C13.9394 7.97215 13.9379 7.9206 13.9445 7.85476L15.9343 8.05666C15.9647 7.75689 15.856 7.50481 15.7622 7.34526C15.6534 7.1605 15.4963 6.98211 15.2909 6.802L13.9725 8.30591ZM13.6918 8.0953C13.8147 8.17739 13.9067 8.24828 13.9725 8.30591L15.2909 6.802C15.1454 6.67448 14.9808 6.55116 14.803 6.43238L13.6918 8.0953ZM15.245 7.33388C15.2561 7.17496 15.2645 7.01488 15.27 6.85377L13.2711 6.78568C13.2665 6.92279 13.2594 7.05886 13.2499 7.1938L15.245 7.33388Z" fill="black" mask="url(#path-2-inside-1_3018_3011)"/>
</svg>
