<svg width="44" height="44" viewBox="0 0 44 44" fill="none" xmlns="http://www.w3.org/2000/svg">
<g clip-path="url(#clip0_1873_24071)">
<path d="M32.2519 23.7191C34.1356 25.6028 36.0198 27.4853 37.9027 29.3699C42.8974 34.4112 35.821 42.299 30.2594 37.8904C26.0165 33.9137 22.1633 29.404 17.7695 25.6389C15.7316 24.8096 13.5341 24.2445 11.5813 23.261C10.5169 22.1207 9.38312 21.0489 8.28975 19.9376C7.86137 19.5027 7.8519 19.1731 8.27571 18.7493C11.9157 15.1076 15.5561 11.4664 19.1981 7.82685C19.6069 7.41814 19.9504 7.42603 20.3668 7.84245C21.3329 8.80778 22.2815 9.79149 23.2718 10.7319C23.7095 11.1476 23.9872 11.6213 24.1873 12.1774C24.818 13.9334 25.4724 15.6812 26.1132 17.4335C27.9529 19.6765 30.2548 21.5914 32.2531 23.7195L32.2519 23.7191Z" fill="#2E2D33"/>
<path d="M28.5953 26.8224L28.5945 26.8232C28.1217 26.3504 27.6493 25.878 27.1765 25.4052C26.7195 24.8755 25.809 25.0347 25.5294 25.6558C25.3313 26.0621 25.4077 26.5215 25.7583 26.8819C26.6788 27.8106 27.5998 28.7396 28.5329 29.6557C29.5218 30.6723 31.0364 29.1989 29.9709 28.2004C29.5154 27.7383 29.0537 27.2816 28.5949 26.8228" fill="#FAF9F6"/>
<path d="M5.20552 13.7367L5.20511 13.7372C4.53986 13.735 3.87421 13.7332 3.20854 13.7298C2.51317 13.6755 1.98695 14.4329 2.23044 15.0733C2.37885 15.5026 2.75741 15.7758 3.25791 15.7848C4.56015 15.796 5.86362 15.8067 7.16579 15.7991C8.57835 15.8242 8.59964 13.7036 7.14594 13.7451C6.49953 13.7381 5.85274 13.7388 5.20634 13.7367" fill="#2E2D33"/>
<path d="M16.2156 4.77725C16.2131 4.13044 16.2143 3.48406 16.2073 2.83765C16.2487 1.38395 14.1277 1.40483 14.1532 2.8178C14.1456 4.11997 14.1564 5.42344 14.1676 6.72568C14.1765 7.22618 14.4497 7.60474 14.879 7.75315C15.5198 7.99623 16.2765 7.47001 16.2225 6.77505C16.2191 6.10938 16.2169 5.44331 16.2144 4.77765L16.2148 4.77725" fill="#2E2D33"/>
<path d="M9.54454 7.7755L9.54372 7.77632C9.07093 7.30353 8.59856 6.83115 8.12577 6.35836C7.66874 5.82866 6.75819 5.98785 6.4786 6.60897C6.28056 7.01522 6.35694 7.47458 6.70756 7.835C7.62807 8.76368 8.54899 9.69277 9.48216 10.6088C10.4711 11.6254 11.9856 10.152 10.9201 9.15354C10.4646 8.69147 10.0029 8.23471 9.54413 7.77591" fill="#2E2D33"/>
</g>
<defs>
<clipPath id="clip0_1873_24071">
<rect width="44" height="44" fill="white"/>
</clipPath>
</defs>
</svg>
