<svg width="44" height="44" viewBox="0 0 44 44" fill="none" xmlns="http://www.w3.org/2000/svg">
<path d="M27.2571 29.408C26.4941 29.3547 25.9189 29.6657 25.3407 29.9086C22.2409 31.2178 18.9863 31.28 15.7107 31.0816C15.0371 31.0401 14.3725 30.7469 13.7197 30.5247C13.3502 30.4003 12.9329 30.2374 12.8733 29.7871C12.8018 29.2303 13.2876 29.0525 13.6721 28.8541C16.2621 27.5211 18.8581 26.1941 21.4571 24.8759C21.7969 24.7041 22.2141 24.6479 22.4853 24.0288C19.9013 24.4464 17.4096 24.3931 14.9268 24.325C12.7302 24.2657 10.5873 23.8866 8.77811 22.5033C8.40555 22.2189 7.85714 21.9405 8.03895 21.351C8.21182 20.7853 8.78705 20.8208 9.27287 20.729C12.1788 20.1751 15.0818 19.6034 18.408 18.9547C16.2025 18.6614 14.3784 18.4955 12.5872 18.1608C10.176 17.7106 7.90185 16.9019 6.19999 15.0032C5.93771 14.71 5.68139 14.4078 5.46679 14.079C5.11808 13.5399 4.6859 12.9149 4.94521 12.3106C5.26114 11.5731 6.09269 11.8574 6.68283 11.9048C8.99568 12.0944 11.2996 12.364 13.6095 12.6039C14.2413 12.6691 14.8702 12.7253 15.8299 12.8172C14.8195 11.7567 13.7048 11.736 12.7481 11.4309C8.69168 10.1424 4.93925 8.34437 1.84848 5.36448C1.24047 4.77798 0.730804 4.11447 0.331419 3.3769C0.15259 3.0481 -0.163341 2.67192 0.101922 2.28684C0.420834 1.82475 0.909633 2.03506 1.32988 2.13873C3.58611 2.68969 5.83637 3.25249 8.08962 3.80937C11.9732 4.77206 15.8508 5.77029 19.7433 6.69447C26.0679 8.19626 29.7279 12.0914 31.2509 18.3771C32.923 25.2788 36.8721 30.7439 43.0477 34.491C43.8554 34.9797 44.1952 35.4833 43.8882 36.3986C43.5454 37.4205 43.301 38.478 42.9404 39.491C42.541 40.6077 41.7512 41.4016 40.6276 41.8341C40.1566 42.0148 39.647 42.1273 39.2297 41.7393C38.8303 41.372 39.0688 40.9158 39.1641 40.4952C39.2088 40.3056 39.2953 40.1249 39.337 39.9324C39.4085 39.6184 39.6529 39.2215 39.2088 39.0408C38.8959 38.9164 38.6873 39.2511 38.5144 39.4821C37.6739 40.6077 36.5681 41.289 35.1524 41.4016C33.838 41.5082 33.5549 41.061 34.0645 39.8376C34.2791 39.3252 34.8246 38.9105 34.5712 38.1107C33.5668 38.709 32.6458 39.3429 31.6474 39.8198C30.944 40.1545 30.1452 40.3115 29.3762 40.4833C28.8338 40.6018 28.2466 40.5722 27.8741 40.0983C27.4747 39.5888 27.9188 39.1652 28.1781 38.7831C28.8934 37.7256 29.6594 36.7007 30.3896 35.6521C30.6549 35.273 31.0751 34.9649 31.0781 34.4021C30.3002 34.2777 29.9753 34.879 29.5282 35.1989C27.2124 36.8607 24.7118 37.9241 21.782 37.5479C21.1739 37.4709 20.3662 37.4649 20.1337 36.7659C19.9102 36.0964 20.6225 35.7588 21.0219 35.3589C22.8043 33.5875 24.6641 31.8962 26.6193 30.3114C26.8756 30.1041 27.2303 29.9589 27.2482 29.4169L27.2571 29.408Z" fill="#2E2D33"/>
</svg>
