<svg width="280" height="107" viewBox="0 0 280 107" fill="none" xmlns="http://www.w3.org/2000/svg">
<g filter="url(#filter0_d_3565_12039)">
<path d="M99.8335 104.079L83.7188 96.8387L194.187 96.8387L179.24 104.079L99.8335 104.079Z" fill="#1D1C22" stroke="black" stroke-width="0.627083"/>
<path d="M205.12 96.7544L74.8832 96.7544L2.55488 78.2202L275.024 77.0725L205.12 96.7544Z" fill="#6C6A78" stroke="black" stroke-width="0.627083"/>
<path d="M91.1905 27.7053L80.4473 44.7542L198.077 44.7542L183.909 27.7053L91.1905 27.7053Z" fill="#E4E4E7" stroke="black" stroke-width="0.627083"/>
<path d="M198.096 44.8346L275.745 76.4438L1.69655 77.5981L80.5123 44.8346L198.096 44.8346Z" fill="#C5C4CB" stroke="black" stroke-width="0.627083"/>
<path d="M103.336 8.7905L91.1914 27.7079L183.91 27.7079L168.029 8.7905L136.033 0.616334L103.336 8.7905Z" fill="#D9D9D9" stroke="black" stroke-width="0.627083"/>
<path d="M83.1118 62.3873C83.206 66.0825 80.2869 69.1544 76.5917 69.2487C72.8965 69.3429 69.8246 66.4238 69.7303 62.7286C69.6361 59.0334 72.5552 55.9615 76.2504 55.8672C79.9456 55.773 83.0175 58.6921 83.1118 62.3873Z" fill="#FAF9F6" stroke="black" stroke-width="0.627083"/>
<path d="M124.683 62.3851C124.777 66.0803 121.858 69.1522 118.163 69.2465C114.468 69.3407 111.396 66.4216 111.302 62.7264C111.207 59.0312 114.127 55.9593 117.822 55.865C121.517 55.7708 124.589 58.69 124.683 62.3851Z" fill="#FAF9F6" stroke="black" stroke-width="0.627083"/>
<path d="M166.255 62.3881C166.35 66.0832 163.43 69.1552 159.735 69.2494C156.04 69.3436 152.968 66.4245 152.874 62.7293C152.78 59.0341 155.699 55.9622 159.394 55.868C163.089 55.7737 166.161 58.6929 166.255 62.3881Z" fill="#FAF9F6" stroke="black" stroke-width="0.627083"/>
<path d="M207.828 62.3859C207.922 66.081 205.003 69.153 201.307 69.2472C197.612 69.3414 194.54 66.4223 194.446 62.7271C194.352 59.0319 197.271 55.96 200.966 55.8658C204.661 55.7715 207.733 58.6907 207.828 62.3859Z" fill="#FAF9F6" stroke="black" stroke-width="0.627083"/>
</g>
<defs>
<filter id="filter0_d_3565_12039" x="0.108398" y="0.292908" width="279.73" height="106.608" filterUnits="userSpaceOnUse" color-interpolation-filters="sRGB">
<feFlood flood-opacity="0" result="BackgroundImageFix"/>
<feColorMatrix in="SourceAlpha" type="matrix" values="0 0 0 0 0 0 0 0 0 0 0 0 0 0 0 0 0 0 127 0" result="hardAlpha"/>
<feOffset dx="2.50833" dy="2.50833"/>
<feComposite in2="hardAlpha" operator="out"/>
<feColorMatrix type="matrix" values="0 0 0 0 0 0 0 0 0 0 0 0 0 0 0 0 0 0 1 0"/>
<feBlend mode="normal" in2="BackgroundImageFix" result="effect1_dropShadow_3565_12039"/>
<feBlend mode="normal" in="SourceGraphic" in2="effect1_dropShadow_3565_12039" result="shape"/>
</filter>
</defs>
</svg>
