<svg width="334" height="36" viewBox="0 0 334 36" fill="none" xmlns="http://www.w3.org/2000/svg">
<path d="M238.408 33.9529C233.069 33.9529 228.659 32.4759 225.176 29.5222C221.725 26.5685 220 22.3865 220 16.9764C220 11.5664 221.725 7.38443 225.176 4.43067C228.659 1.47689 233.069 0 238.408 0C243.714 0 248.092 1.47689 251.542 4.43067C254.993 7.38443 256.718 11.5664 256.718 16.9764C256.718 22.3865 254.993 26.5685 251.542 29.5222C248.092 32.4759 243.714 33.9529 238.408 33.9529ZM238.408 25.6511C240.361 25.6511 241.972 24.8894 243.242 23.3659C244.511 21.8113 245.146 19.6815 245.146 16.9764C245.146 14.2714 244.511 12.1571 243.242 10.6336C241.972 9.11005 240.361 8.34829 238.408 8.34829C236.422 8.34829 234.795 9.11005 233.525 10.6336C232.255 12.1571 231.621 14.2714 231.621 16.9764C231.621 19.6815 232.255 21.8113 233.525 23.3659C234.795 24.8894 236.422 25.6511 238.408 25.6511ZM290.27 33.9994C288.121 33.9994 286.378 33.5019 285.045 32.5071C283.71 31.4811 282.733 30.2529 282.114 28.8227C281.53 27.3925 280.974 25.962 280.455 24.5319C279.934 23.1016 279.186 21.889 278.209 20.8941C277.264 19.868 275.994 19.355 274.401 19.355C273.424 19.355 272.724 19.4327 272.3 19.5882V21.5003C272.3 26.1952 272.674 30.1284 273.424 33.2999H260.045C260.793 30.1284 261.168 26.1952 261.168 21.5003V12.4525C261.168 7.75755 260.793 3.82436 260.045 0.652939H280.797C284.703 0.652939 287.892 1.38361 290.367 2.84495C292.874 4.2752 294.125 6.3273 294.125 9.00124C294.125 11.7374 292.906 13.8516 290.464 15.3441C288.055 16.8054 284.929 17.5361 281.09 17.5361H280.65V17.8159H280.747C281.69 17.8159 282.57 18.018 283.383 18.4222C284.197 18.7953 284.848 19.2306 285.337 19.7281C285.859 20.1945 286.493 20.6298 287.241 21.034C287.989 21.4071 288.755 21.5936 289.537 21.5936C292.595 21.5936 294.794 20.0079 296.129 16.8365L296.274 30.8281C295.818 31.6987 295.004 32.445 293.832 33.0667C292.695 33.6885 291.505 33.9994 290.27 33.9994ZM272.3 16.0903H278.599C279.902 16.0903 280.927 15.8571 281.674 15.3907C282.425 14.9243 282.799 14.2558 282.799 13.3852C282.799 12.5769 282.425 11.9395 281.674 11.4731C280.958 10.9756 280.015 10.7269 278.844 10.7269H272.3V16.0903ZM299.384 33.2999C300.131 29.8799 300.505 25.9467 300.505 21.5003V12.4525C300.505 8.00629 300.131 4.0731 299.384 0.652939H315.984C321.485 0.652939 325.864 2.05209 329.119 4.8504C332.374 7.64871 334.001 11.6907 334.001 16.9764C334.001 22.2621 332.374 26.3041 329.119 29.1024C325.864 31.9006 321.485 33.2999 315.984 33.2999H299.384ZM311.589 22.8062H316.471C318.133 22.8062 319.531 22.2932 320.671 21.2672C321.843 20.21 322.43 18.7798 322.43 16.9764C322.43 15.2042 321.843 13.7895 320.671 12.7323C319.531 11.6752 318.133 11.1466 316.471 11.1466H311.589V22.8062Z" fill="#2E2D33"/>
<path d="M17.0407 33.9529C14.5993 33.9529 11.7185 33.6885 8.39826 33.16C5.11057 32.6004 2.31116 31.9474 0 31.2011L0.439445 18.9352C2.42508 20.5209 4.86644 21.7335 7.76349 22.573C10.6606 23.3814 13.5902 23.7856 16.5524 23.7856C20.8166 23.7856 22.9487 23.055 22.9487 21.5936C22.9487 20.9407 22.3953 20.4432 21.2886 20.1012C20.1818 19.7592 18.7984 19.5415 17.1383 19.4483C15.5107 19.355 13.7367 19.1529 11.8162 18.842C9.89562 18.531 8.1053 18.1268 6.44517 17.6294C4.81761 17.1319 3.45044 16.2457 2.34371 14.971C1.23695 13.6962 0.68358 12.1105 0.68358 10.2138C0.68358 6.94913 2.26231 4.43067 5.4198 2.65839C8.5773 0.886132 12.6788 0 17.7242 0C22.5093 0 27.0503 0.715125 31.3471 2.14537V13.9449C29.9148 12.95 27.978 12.126 25.5366 11.4731C23.1277 10.789 20.6864 10.447 18.2125 10.447C16.3571 10.447 14.8434 10.6336 13.6716 11.0067C12.4997 11.3798 11.9138 11.9395 11.9138 12.6857C11.9138 13.6184 12.6788 14.2869 14.2087 14.6911C15.7712 15.0953 17.6428 15.4063 19.8238 15.6239C22.0373 15.8104 24.2345 16.1058 26.4154 16.51C28.5963 16.8831 30.4517 17.7071 31.9817 18.9819C33.5443 20.2567 34.3254 21.9823 34.3254 24.1588C34.3254 27.4546 32.7467 29.9108 29.5893 31.5276C26.4317 33.1445 22.2489 33.9529 17.0407 33.9529ZM54.6431 33.9529C49.3048 33.9529 44.894 32.4759 41.4111 29.5222C37.9607 26.5685 36.2353 22.3865 36.2353 16.9764C36.2353 11.5664 37.9607 7.38443 41.4111 4.43067C44.894 1.47689 49.3048 0 54.6431 0C59.949 0 64.3271 1.47689 67.7776 4.43067C71.2281 7.38443 72.9534 11.5664 72.9534 16.9764C72.9534 22.3865 71.2281 26.5685 67.7776 29.5222C64.3271 32.4759 59.949 33.9529 54.6431 33.9529ZM54.6431 25.6511C56.5962 25.6511 58.2076 24.8894 59.4771 23.3659C60.7466 21.8113 61.3812 19.6815 61.3812 16.9764C61.3812 14.2714 60.7466 12.1571 59.4771 10.6336C58.2076 9.11005 56.5962 8.34829 54.6431 8.34829C52.6576 8.34829 51.0299 9.11005 49.7606 10.6336C48.4911 12.1571 47.8562 14.2714 47.8562 16.9764C47.8562 19.6815 48.4911 21.8113 49.7606 23.3659C51.0299 24.8894 52.6576 25.6511 54.6431 25.6511ZM96.1206 33.9529C93.5492 33.9529 91.0915 33.6108 88.7478 32.9269C86.4042 32.2427 84.2556 31.2323 82.3025 29.8952C80.382 28.5583 78.836 26.786 77.6639 24.5785C76.5247 22.3399 75.9551 19.8058 75.9551 16.9764C75.9551 14.1781 76.541 11.6752 77.7129 9.46762C78.8847 7.22896 80.431 5.44116 82.3515 4.10418C84.3046 2.76723 86.4529 1.75672 88.7966 1.07269C91.1729 0.357563 93.6306 0 96.1696 0C101.247 0 105.349 0.668486 108.474 2.00546L108.376 13.3386C107.27 12.5302 105.788 11.8462 103.933 11.2865C102.077 10.7269 100.206 10.447 98.3179 10.447C95.1279 10.447 92.5074 11.0378 90.4566 12.2193C88.4384 13.4008 87.4293 15.0176 87.4293 17.0697C87.4293 19.2151 88.4711 20.8319 90.5543 21.9201C92.6702 22.9773 95.3069 23.5058 98.4643 23.5058C100.873 23.5058 103.136 23.1482 105.251 22.4331C107.367 21.718 109.125 20.7852 110.525 19.6348V31.8541C105.967 33.2534 101.166 33.9529 96.1206 33.9529ZM143.82 33.9529C141.769 33.9529 140.093 33.5331 138.791 32.6937C137.489 31.8541 136.61 30.8125 136.154 29.5687C135.699 28.294 135.292 26.9259 134.934 25.4648C134.576 24.0033 134.283 22.6508 134.055 21.4071C133.827 20.1323 133.29 19.0751 132.443 18.2357C131.63 17.3962 130.523 16.9764 129.123 16.9764C128.082 16.9764 127.268 17.1008 126.682 17.3495V21.5003C126.682 26.413 127.056 30.3462 127.805 33.2999H114.426C115.175 30.1284 115.549 26.1952 115.549 21.5003V12.4525C115.549 7.75755 115.175 3.82436 114.426 0.652939H127.805C127.056 3.60671 126.682 7.29116 126.682 11.7063V13.5252H129.465C131.483 13.5252 133.013 12.9344 134.055 11.7529C135.129 10.5403 135.666 8.79913 135.666 6.52938C135.666 4.44621 135.064 2.48738 133.859 0.652939H146.408C147.352 2.45629 147.824 4.49285 147.824 6.76258C147.824 10.0584 146.815 12.2659 144.797 13.3852C142.778 14.4735 139.247 15.0176 134.201 15.0176H131.272V15.5306H131.858C133.257 15.5306 134.543 15.7949 135.715 16.3235C136.887 16.821 137.798 17.3651 138.449 17.9558C139.1 18.5466 139.898 19.1062 140.842 19.6348C141.818 20.1323 142.811 20.381 143.82 20.381C145.383 20.381 146.587 20.1012 147.433 19.5415C148.312 18.9508 149.045 18.0336 149.631 16.7899L149.728 30.595C149.305 31.4964 148.508 32.2895 147.336 32.9734C146.196 33.6264 145.024 33.9529 143.82 33.9529ZM168.385 33.9529C165.944 33.9529 163.063 33.6885 159.743 33.16C156.455 32.6004 153.656 31.9474 151.345 31.2011L151.784 18.9352C153.77 20.5209 156.211 21.7335 159.108 22.573C162.005 23.3814 164.935 23.7856 167.897 23.7856C172.161 23.7856 174.294 23.055 174.294 21.5936C174.294 20.9407 173.74 20.4432 172.634 20.1012C171.527 19.7592 170.143 19.5415 168.483 19.4483C166.856 19.355 165.081 19.1529 163.161 18.842C161.24 18.531 159.45 18.1268 157.79 17.6294C156.162 17.1319 154.795 16.2457 153.689 14.971C152.582 13.6962 152.028 12.1105 152.028 10.2138C152.028 6.94913 153.607 4.43067 156.765 2.65839C159.922 0.886132 164.024 0 169.069 0C173.854 0 178.395 0.715125 182.692 2.14537V13.9449C181.26 12.95 179.323 12.126 176.881 11.4731C174.473 10.789 172.031 10.447 169.557 10.447C167.702 10.447 166.188 10.6336 165.016 11.0067C163.845 11.3798 163.259 11.9395 163.259 12.6857C163.259 13.6184 164.024 14.2869 165.554 14.6911C167.116 15.0953 168.988 15.4063 171.169 15.6239C173.382 15.8104 175.579 16.1058 177.76 16.51C179.941 16.8831 181.797 17.7071 183.326 18.9819C184.889 20.2567 185.67 21.9823 185.67 24.1588C185.67 27.4546 184.091 29.9108 180.934 31.5276C177.776 33.1445 173.594 33.9529 168.385 33.9529Z" fill="#2E2D33"/>
<g filter="url(#filter0_d_2778_24933)">
<path d="M212.351 34.0027C210.431 34.0027 207.908 33.6609 204.783 32.9767C201.658 32.2928 198.907 31.9507 196.531 31.9507C192.885 31.9507 189.76 32.6347 187.156 34.0027C187.905 30.5827 188.279 26.4163 188.279 21.5037V12.4558C188.279 8.0096 187.905 4.07641 187.156 0.65625H200.535C199.754 3.95205 199.363 7.83858 199.363 12.3159V22.8562H209.08C212.921 22.8562 215.899 22.2343 218.015 20.9906L217.917 32.6502C217.885 32.6502 217.673 32.728 217.283 32.8834C216.924 33.0389 216.518 33.1943 216.062 33.3497C215.639 33.5052 215.085 33.6453 214.402 33.7696C213.718 33.925 213.035 34.0027 212.351 34.0027Z" fill="#F8D047"/>
<mask id="mask0_2778_24933" style="mask-type:luminance" maskUnits="userSpaceOnUse" x="187" y="0" width="32" height="34">
<path d="M212.343 33.9949C210.423 33.9949 207.9 33.6531 204.775 32.9689C201.65 32.285 198.9 31.9429 196.523 31.9429C192.877 31.9429 189.753 32.6268 187.148 33.9949C187.897 30.5749 188.272 26.4085 188.272 21.4958V12.448C188.272 8.00179 187.897 4.06859 187.148 0.648438H200.527C199.746 3.94424 199.355 7.83077 199.355 12.3081V22.8484H209.072C212.913 22.8484 215.891 22.2265 218.007 20.9828L217.91 32.6424C217.877 32.6424 217.665 32.7202 217.275 32.8756C216.917 33.031 216.51 33.1865 216.054 33.3419C215.631 33.4974 215.078 33.6375 214.394 33.7617C213.711 33.9172 213.027 33.9949 212.343 33.9949Z" fill="white"/>
</mask>
<g mask="url(#mask0_2778_24933)">
<path d="M187.148 33.9964L186.891 33.9451L186.773 34.4806L187.275 34.217L187.148 33.9964ZM187.148 0.649967V0.398438H186.825L186.891 0.701448L187.148 0.649967ZM200.527 0.649967L200.784 0.705512L200.857 0.398438H200.527V0.649967ZM199.355 22.8499H199.092V23.1014H199.355V22.8499ZM218.007 20.9844L218.27 20.9864L218.274 20.532L217.869 20.7702L218.007 20.9844ZM217.91 32.644V32.8955H218.171L218.173 32.646L217.91 32.644ZM217.275 32.8771L217.174 32.645L217.17 32.6465L217.166 32.6482L217.275 32.8771ZM216.054 33.3435L215.965 33.1068L215.963 33.1078L215.96 33.1088L216.054 33.3435ZM214.394 33.7633L214.345 33.5163L214.339 33.5173L214.333 33.5185L214.394 33.7633ZM212.343 33.7449C210.451 33.7449 207.95 33.4076 204.834 32.7252L204.716 33.2157C207.85 33.9016 210.394 34.248 212.343 34.248V33.7449ZM204.834 32.7252C201.696 32.0383 198.925 31.6929 196.523 31.6929V32.196C198.874 32.196 201.604 32.5345 204.716 33.2157L204.834 32.7252ZM196.523 31.6929C192.843 31.6929 189.672 32.3834 187.021 33.7761L187.275 34.217C189.833 32.8734 192.912 32.196 196.523 32.196V31.6929ZM187.406 34.048C188.16 30.6056 188.535 26.4209 188.535 21.4974H188.008C188.008 26.399 187.635 30.547 186.891 33.9451L187.406 34.048ZM188.535 21.4974V12.4495H188.008V21.4974H188.535ZM188.535 12.4495C188.535 7.99044 188.159 4.03944 187.406 0.598489L186.891 0.701448C187.635 4.10083 188.008 8.01617 188.008 12.4495H188.535ZM187.148 0.901497H200.527V0.398438H187.148V0.901497ZM200.27 0.594422C199.483 3.91322 199.092 7.81925 199.092 12.3096H199.619C199.619 7.84536 200.008 3.97829 200.784 0.705512L200.27 0.594422ZM199.092 12.3096V22.8499H199.619V12.3096H199.092ZM199.355 23.1014H209.072V22.5984H199.355V23.1014ZM209.072 23.1014C212.937 23.1014 215.971 22.4766 218.145 21.1986L217.869 20.7702C215.812 21.9796 212.889 22.5984 209.072 22.5984V23.1014ZM217.744 20.9823L217.646 32.6419L218.173 32.646L218.27 20.9864L217.744 20.9823ZM217.91 32.3924C217.868 32.3924 217.831 32.4022 217.822 32.4045C217.805 32.4088 217.786 32.4143 217.768 32.4198C217.732 32.4314 217.686 32.4475 217.632 32.4676C217.523 32.5076 217.37 32.567 217.174 32.645L217.376 33.1093C217.571 33.0318 217.719 32.9747 217.821 32.937C217.873 32.9181 217.91 32.905 217.935 32.8972C217.948 32.8932 217.954 32.8915 217.956 32.891C217.966 32.8882 217.943 32.8955 217.91 32.8955V32.3924ZM217.166 32.6482C216.816 32.8002 216.416 32.9531 215.965 33.1068L216.143 33.5804C216.604 33.4232 217.018 33.265 217.384 33.1063L217.166 32.6482ZM215.96 33.1088C215.557 33.2569 215.02 33.3933 214.345 33.5163L214.443 34.0105C215.135 33.8845 215.705 33.7411 216.149 33.5784L215.96 33.1088ZM214.333 33.5185C213.669 33.6697 213.006 33.7449 212.343 33.7449V34.248C213.048 34.248 213.752 34.168 214.455 34.008L214.333 33.5185Z" fill="black"/>
</g>
</g>
<defs>
<filter id="filter0_d_2778_24933" x="187.148" y="0.648438" width="32.1132" height="34.5976" filterUnits="userSpaceOnUse" color-interpolation-filters="sRGB">
<feFlood flood-opacity="0" result="BackgroundImageFix"/>
<feColorMatrix in="SourceAlpha" type="matrix" values="0 0 0 0 0 0 0 0 0 0 0 0 0 0 0 0 0 0 127 0" result="hardAlpha"/>
<feOffset dx="1.24604" dy="1.24604"/>
<feComposite in2="hardAlpha" operator="out"/>
<feColorMatrix type="matrix" values="0 0 0 0 0.180392 0 0 0 0 0.176471 0 0 0 0 0.2 0 0 0 1 0"/>
<feBlend mode="normal" in2="BackgroundImageFix" result="effect1_dropShadow_2778_24933"/>
<feBlend mode="normal" in="SourceGraphic" in2="effect1_dropShadow_2778_24933" result="shape"/>
</filter>
</defs>
</svg>
