<svg width="1278" height="138" viewBox="0 0 1278 138" fill="none" xmlns="http://www.w3.org/2000/svg">
<path d="M911.724 135.971C891.309 135.971 874.441 130.056 861.121 118.227C847.925 106.399 841.328 89.6511 841.328 67.9854C841.328 46.3198 847.925 29.5724 861.121 17.7435C874.441 5.91448 891.309 0 911.724 0C932.015 0 948.758 5.91448 961.953 17.7435C975.149 29.5724 981.747 46.3198 981.747 67.9854C981.747 89.6511 975.149 106.399 961.953 118.227C948.758 130.056 932.015 135.971 911.724 135.971ZM911.724 102.725C919.193 102.725 925.355 99.6746 930.21 93.5733C935.065 87.3476 937.492 78.8183 937.492 67.9854C937.492 57.1526 935.065 48.6855 930.21 42.5843C925.355 36.483 919.193 33.4324 911.724 33.4324C904.131 33.4324 897.906 36.483 893.051 42.5843C888.196 48.6855 885.769 57.1526 885.769 67.9854C885.769 78.8183 888.196 87.3476 893.051 93.5733C897.906 99.6746 904.131 102.725 911.724 102.725ZM1110.06 136.157C1101.84 136.157 1095.17 134.165 1090.08 130.181C1084.97 126.072 1081.23 121.154 1078.87 115.426C1076.63 109.699 1074.51 103.97 1072.52 98.2426C1070.53 92.5149 1067.67 87.6588 1063.93 83.6743C1060.32 79.5654 1055.46 77.5108 1049.37 77.5108C1045.63 77.5108 1042.96 77.8221 1041.33 78.4446V86.1023C1041.33 104.904 1042.76 120.655 1045.63 133.356H994.469C997.332 120.655 998.763 104.904 998.763 86.1023V49.8684C998.763 31.0666 997.332 15.3154 994.469 2.61482H1073.83C1088.77 2.61482 1100.96 5.54094 1110.43 11.3932C1120.02 17.1209 1124.8 25.3389 1124.8 36.0472C1124.8 47.0045 1120.14 55.4716 1110.8 61.4483C1101.59 67.3006 1089.63 70.2267 1074.95 70.2267H1073.27V71.3473H1073.64C1077.25 71.3473 1080.61 72.1567 1083.72 73.7753C1086.83 75.2695 1089.32 77.0128 1091.19 79.005C1093.19 80.8727 1095.61 82.616 1098.47 84.2346C1101.33 85.7288 1104.27 86.4759 1107.26 86.4759C1118.95 86.4759 1127.36 80.1256 1132.46 67.4251L1133.02 123.457C1131.27 126.943 1128.16 129.932 1123.68 132.422C1119.33 134.912 1114.78 136.157 1110.06 136.157ZM1041.33 64.4367H1065.42C1070.41 64.4367 1074.33 63.5029 1077.19 61.6351C1080.06 59.7674 1081.49 57.0903 1081.49 53.6038C1081.49 50.3665 1080.06 47.8139 1077.19 45.9461C1074.45 43.9539 1070.84 42.9578 1066.36 42.9578H1041.33V64.4367ZM1144.91 133.356C1147.77 119.66 1149.2 103.909 1149.2 86.1023V49.8684C1149.2 32.0627 1147.77 16.3115 1144.91 2.61482H1208.39C1229.43 2.61482 1246.18 8.21801 1258.63 19.4244C1271.07 30.6308 1277.3 46.8178 1277.3 67.9854C1277.3 89.153 1271.07 105.34 1258.63 116.546C1246.18 127.752 1229.43 133.356 1208.39 133.356H1144.91ZM1191.59 91.332H1210.26C1216.61 91.332 1221.96 89.2775 1226.32 85.1685C1230.8 80.935 1233.05 75.2073 1233.05 67.9854C1233.05 60.888 1230.8 55.2226 1226.32 50.9891C1221.96 46.7555 1216.61 44.6388 1210.26 44.6388H1191.59V91.332Z" fill="#2E2D33"/>
<path d="M65.1675 135.971C55.8312 135.971 44.8143 134.912 32.1169 132.796C19.5441 130.555 8.83843 127.94 0 124.951L1.68054 75.8299C9.27407 82.1801 18.6104 87.0362 29.6895 90.3982C40.7686 93.6355 51.9722 95.2542 63.3003 95.2542C79.6077 95.2542 87.7614 92.3281 87.7614 86.4759C87.7614 83.8611 85.6452 81.8689 81.4127 80.4991C77.1802 79.1295 71.8897 78.2579 65.541 77.8844C59.3168 77.5108 52.5323 76.7015 45.1878 75.4563C37.8432 74.2112 30.9966 72.5924 24.6479 70.6002C18.4237 68.608 13.1953 65.0592 8.9629 59.9541C4.7304 54.8491 2.61418 48.4987 2.61418 40.9033C2.61418 27.8292 8.65162 17.7435 20.7266 10.646C32.8016 3.54869 48.4866 0 67.7817 0C86.0809 0 103.447 2.86386 119.879 8.59156V55.8452C114.401 51.8606 106.995 48.561 97.6582 45.9461C88.4461 43.2068 79.1097 41.8372 69.6489 41.8372C62.5533 41.8372 56.7648 42.5843 52.2834 44.0784C47.802 45.5726 45.5612 47.8139 45.5612 50.8022C45.5612 54.5377 48.4866 57.2148 54.3373 58.8335C60.3127 60.4522 67.4705 61.6974 75.8109 62.569C84.2759 63.316 92.6786 64.499 101.019 66.1176C109.359 67.6118 116.455 70.9115 122.306 76.0166C128.282 81.1217 131.268 88.0323 131.268 96.7485C131.268 109.947 125.231 119.784 113.157 126.259C101.081 132.733 85.085 135.971 65.1675 135.971ZM208.968 135.971C188.553 135.971 171.685 130.056 158.366 118.227C145.171 106.399 138.573 89.651 138.573 67.9854C138.573 46.3198 145.171 29.5724 158.366 17.7435C171.685 5.91448 188.553 0 208.968 0C229.259 0 246.002 5.91448 259.198 17.7435C272.393 29.5724 278.991 46.3198 278.991 67.9854C278.991 89.651 272.393 106.399 259.198 118.227C246.002 130.056 229.259 135.971 208.968 135.971ZM208.968 102.725C216.438 102.725 222.6 99.6746 227.455 93.5733C232.31 87.3475 234.737 78.8182 234.737 67.9854C234.737 57.1525 232.31 48.6855 227.455 42.5843C222.6 36.483 216.438 33.4324 208.968 33.4324C201.375 33.4324 195.151 36.483 190.297 42.5843C185.442 48.6855 183.014 57.1525 183.014 67.9854C183.014 78.8182 185.442 87.3475 190.297 93.5733C195.151 99.6746 201.375 102.725 208.968 102.725ZM367.588 135.971C357.755 135.971 348.356 134.601 339.393 131.862C330.43 129.122 322.214 125.076 314.745 119.721C307.4 114.367 301.488 107.27 297.005 98.4294C292.649 89.4643 290.471 79.3163 290.471 67.9854C290.471 56.779 292.711 46.7555 297.193 37.9149C301.674 28.9498 307.587 21.7902 314.932 16.436C322.401 11.0819 330.617 7.03512 339.579 4.29578C348.667 1.43193 358.066 0 367.776 0C387.195 0 402.879 2.67708 414.83 8.03125L414.456 53.4171C410.225 50.1797 404.56 47.4404 397.464 45.199C390.369 42.9578 383.212 41.8372 375.991 41.8372C363.792 41.8372 353.771 44.2029 345.928 48.9345C338.21 53.6661 334.351 60.1409 334.351 68.3589C334.351 76.9505 338.335 83.4253 346.301 87.7833C354.393 92.0169 364.477 94.1336 376.551 94.1336C385.764 94.1336 394.415 92.7017 402.507 89.8378C410.597 86.9739 417.32 83.2385 422.673 78.6315V127.566C405.245 133.17 386.883 135.971 367.588 135.971ZM550.003 135.971C542.16 135.971 535.749 134.29 530.769 130.928C525.79 127.566 522.429 123.395 520.687 118.414C518.944 113.309 517.388 107.83 516.018 101.979C514.65 96.1259 513.529 90.7094 512.658 85.7288C511.785 80.6237 509.732 76.3901 506.495 73.0283C503.384 69.6663 499.151 67.9854 493.798 67.9854C489.815 67.9854 486.702 68.4835 484.461 69.4796V86.1023C484.461 105.776 485.893 121.527 488.756 133.356H437.593C440.456 120.655 441.888 104.904 441.888 86.1023V49.8684C441.888 31.0666 440.456 15.3154 437.593 2.61482H488.756C485.893 14.4438 484.461 29.1989 484.461 46.88V54.1642H495.105C502.823 54.1642 508.674 51.7984 512.658 47.0668C516.765 42.2107 518.82 35.2378 518.82 26.1482C518.82 17.8057 516.517 9.96119 511.91 2.61482H559.899C563.509 9.83668 565.314 17.9925 565.314 27.0821C565.314 40.2807 561.455 49.1214 553.737 53.6038C546.019 57.9619 532.513 60.1409 513.218 60.1409H502.014V62.1954H504.255C509.607 62.1954 514.525 63.2538 519.006 65.3706C523.487 67.3628 526.973 69.5418 529.463 71.9076C531.953 74.2734 535.002 76.5146 538.612 78.6315C542.346 80.6237 546.144 81.6198 550.003 81.6198C555.978 81.6198 560.584 80.4992 563.821 78.2579C567.181 75.8921 569.983 72.2189 572.223 67.2383L572.596 122.523C570.978 126.134 567.928 129.31 563.447 132.048C559.09 134.663 554.608 135.971 550.003 135.971ZM643.946 135.971C634.61 135.971 623.593 134.912 610.896 132.796C598.323 130.555 587.617 127.94 578.779 124.951L580.459 75.8299C588.053 82.1801 597.39 87.0362 608.468 90.3982C619.548 93.6355 630.751 95.2542 642.079 95.2542C658.386 95.2542 666.541 92.3281 666.541 86.4759C666.541 83.8611 664.424 81.8689 660.192 80.4991C655.959 79.1295 650.668 78.2579 644.32 77.8844C638.095 77.5108 631.311 76.7015 623.967 75.4563C616.622 74.2112 609.775 72.5924 603.427 70.6002C597.202 68.608 591.975 65.0592 587.742 59.9541C583.509 54.8491 581.393 48.4987 581.393 40.9033C581.393 27.8292 587.431 17.7435 599.505 10.646C611.581 3.54869 627.266 0 646.561 0C664.86 0 682.225 2.86386 698.657 8.59156V55.8452C693.18 51.8606 685.773 48.561 676.437 45.9461C667.225 43.2068 657.889 41.8372 648.428 41.8372C641.332 41.8372 635.544 42.5843 631.062 44.0784C626.581 45.5726 624.34 47.8139 624.34 50.8022C624.34 54.5377 627.266 57.2148 633.117 58.8335C639.091 60.4522 646.25 61.6974 654.59 62.569C663.055 63.316 671.457 64.499 679.798 66.1176C688.139 67.6118 695.234 70.9115 701.084 76.0166C707.06 81.1217 710.048 88.0323 710.048 96.7485C710.048 109.947 704.01 119.784 691.935 126.259C679.86 132.733 663.864 135.971 643.946 135.971Z" fill="#2E2D33"/>
<g filter="url(#filter0_d_1524_13789)">
<path d="M812.109 136.16C804.765 136.16 795.117 134.791 783.167 132.051C771.216 129.312 760.697 127.942 751.61 127.942C737.667 127.942 725.717 130.681 715.758 136.16C718.621 122.463 720.053 105.778 720.053 86.1047V49.8707C720.053 32.0651 718.621 16.3139 715.758 2.61719H766.921C763.933 15.8159 762.439 31.3802 762.439 49.3105V91.5212H799.599C814.287 91.5212 825.678 89.0308 833.769 84.0502L833.396 130.743C833.271 130.743 832.462 131.055 830.968 131.677C829.599 132.3 828.043 132.922 826.3 133.545C824.682 134.167 822.565 134.728 819.951 135.226C817.338 135.848 814.723 136.16 812.109 136.16Z" fill="#F8D047"/>
<mask id="mask0_1524_13789" style="mask-type:luminance" maskUnits="userSpaceOnUse" x="715" y="2" width="119" height="135">
<path d="M812.109 136.16C804.765 136.16 795.117 134.791 783.167 132.051C771.216 129.312 760.697 127.942 751.61 127.942C737.667 127.942 725.717 130.681 715.758 136.16C718.621 122.463 720.053 105.778 720.053 86.1047V49.8707C720.053 32.0651 718.621 16.3139 715.758 2.61719H766.921C763.933 15.8159 762.439 31.3802 762.439 49.3105V91.5212H799.599C814.287 91.5212 825.678 89.0308 833.769 84.0502L833.396 130.743C833.271 130.743 832.462 131.055 830.968 131.677C829.599 132.3 828.043 132.922 826.3 133.545C824.682 134.167 822.565 134.728 819.951 135.226C817.338 135.848 814.723 136.16 812.109 136.16Z" fill="white"/>
</mask>
<g mask="url(#mask0_1524_13789)">
<path d="M715.754 136.159L714.768 135.954L714.32 138.098L716.24 137.042L715.754 136.159ZM715.754 2.61667V1.60938H714.516L714.768 2.82284L715.754 2.61667ZM766.917 2.61667L767.9 2.83912L768.178 1.60938H766.917V2.61667ZM762.436 91.5206H761.429V92.5279H762.436V91.5206ZM833.765 84.0497L834.772 84.0577L834.787 82.2382L833.238 83.1919L833.765 84.0497ZM833.393 130.743V131.75H834.392L834.4 130.751L833.393 130.743ZM830.965 131.677L830.578 130.747L830.563 130.753L830.548 130.76L830.965 131.677ZM826.297 133.544L825.958 132.596L825.946 132.6L825.935 132.604L826.297 133.544ZM819.948 135.225L819.759 134.236L819.737 134.24L819.715 134.245L819.948 135.225ZM812.106 135.152C804.87 135.152 795.306 133.801 783.388 131.068L782.937 133.032C794.92 135.779 804.652 137.166 812.106 137.166V135.152ZM783.388 131.068C771.388 128.317 760.79 126.934 751.606 126.934V128.949C760.597 128.949 771.037 130.305 782.937 133.032L783.388 131.068ZM751.606 126.934C737.532 126.934 725.407 129.699 715.269 135.277L716.24 137.042C726.02 131.662 737.796 128.949 751.606 128.949V126.934ZM716.74 136.366C719.622 122.58 721.056 105.821 721.056 86.1042H719.042C719.042 105.734 717.613 122.345 714.768 135.954L716.74 136.366ZM721.056 86.1042V49.8702H719.042V86.1042H721.056ZM721.056 49.8702C721.056 32.013 719.62 16.1905 716.74 2.41052L714.768 2.82284C717.614 16.4363 719.042 32.1161 719.042 49.8702H721.056ZM715.754 3.62397H766.917V1.60938H715.754V3.62397ZM765.936 2.39423C762.926 15.685 761.429 31.3275 761.429 49.31H763.443C763.443 31.432 764.933 15.9456 767.9 2.83912L765.936 2.39423ZM761.429 49.31V91.5206H763.443V49.31H761.429ZM762.436 92.5279H799.595V90.5133H762.436V92.5279ZM799.595 92.5279C814.377 92.5279 825.979 90.0255 834.294 84.9076L833.238 83.1919C825.369 88.0352 814.191 90.5133 799.595 90.5133V92.5279ZM832.758 84.0416L832.386 130.735L834.4 130.751L834.772 84.0577L832.758 84.0416ZM833.393 129.736C833.232 129.736 833.092 129.775 833.057 129.784C832.991 129.801 832.92 129.823 832.852 129.845C832.714 129.892 832.538 129.956 832.33 130.037C831.913 130.197 831.327 130.435 830.578 130.747L831.352 132.606C832.097 132.296 832.662 132.067 833.053 131.916C833.251 131.841 833.394 131.788 833.489 131.757C833.538 131.741 833.563 131.734 833.57 131.732C833.609 131.721 833.522 131.75 833.393 131.75V129.736ZM830.548 130.76C829.209 131.368 827.68 131.981 825.958 132.596L826.635 134.493C828.399 133.863 829.982 133.23 831.382 132.594L830.548 130.76ZM825.935 132.604C824.395 133.198 822.342 133.744 819.759 134.236L820.136 136.216C822.781 135.711 824.963 135.137 826.659 134.485L825.935 132.604ZM819.715 134.245C817.175 134.851 814.638 135.152 812.106 135.152V137.166C814.801 137.166 817.492 136.846 820.181 136.205L819.715 134.245Z" fill="black"/>
</g>
</g>
<defs>
<filter id="filter0_d_1524_13789" x="715.758" y="2.61719" width="119.094" height="134.626" filterUnits="userSpaceOnUse" color-interpolation-filters="sRGB">
<feFlood flood-opacity="0" result="BackgroundImageFix"/>
<feColorMatrix in="SourceAlpha" type="matrix" values="0 0 0 0 0 0 0 0 0 0 0 0 0 0 0 0 0 0 127 0" result="hardAlpha"/>
<feOffset dx="1.08644" dy="1.08644"/>
<feComposite in2="hardAlpha" operator="out"/>
<feColorMatrix type="matrix" values="0 0 0 0 0.180392 0 0 0 0 0.176471 0 0 0 0 0.2 0 0 0 1 0"/>
<feBlend mode="normal" in2="BackgroundImageFix" result="effect1_dropShadow_1524_13789"/>
<feBlend mode="normal" in="SourceGraphic" in2="effect1_dropShadow_1524_13789" result="shape"/>
</filter>
</defs>
</svg>
