<svg width="1487" height="4314" viewBox="0 0 1487 4314" fill="none" xmlns="http://www.w3.org/2000/svg">
<g id="aircraft-path">
<path id="path" d="M1350 194.5C949 1310 84.3761 1520 84.3761 2015.5C84.3761 2511 640.876 2242.5 636.876 2639.5C632.876 3036.5 133.876 2858.5 12.8761 3278.5C-108.124 3698.5 810.876 4224.5 1260.88 4311.5" stroke="white" stroke-width="4"/>
<g id="aircraft">
<path id="back" d="M1405.53 130.757L1425.88 41.0648L1430.12 143.486L1301.65 111.274L1351.58 22.8075L1330.73 109.568L1330.51 110.501L1331.43 110.764L1404.28 131.498L1405.3 131.787L1405.53 130.757Z" fill="#1D1C22" stroke="black" stroke-width="2"/>
<path id="body" d="M1386.53 228.714L1363.72 133.542L1363.28 131.679L1362 133.11L1297.08 206.075L1273.4 109.22L1351.2 21.0232L1321.54 96.374L1321.18 97.2756L1322.07 97.6588L1370.51 118.514L1370.66 118.58L1370.83 118.593L1419.35 122.244L1420.34 122.318L1420.42 121.327L1427.05 39.868L1455.92 161.087L1386.53 228.714Z" fill="#C5C4CB" stroke="black" stroke-width="2"/>
<path id="reactors" d="M1291.31 184.249L1284.91 158.377L1296.88 154.349L1303.97 168.8L1291.31 184.249ZM1401.3 192.509L1414.98 184.022L1422.99 193.792L1403.83 212.321L1401.3 192.509Z" fill="#1D1C22" stroke="#2E2D33" stroke-width="2"/>
<g id="cockpit">
<path d="M1297.22 205.291L1363.35 132.601L1386.23 228.552L1307.27 351.546L1297.22 205.291Z" fill="#6C6A78"/>
<path d="M1316.6 240.451L1343.78 207.999L1351.94 251.739L1316.17 315.97L1316.6 240.451Z" fill="#DCDCE0"/>
<path d="M1297.22 205.291L1363.35 132.601L1386.23 228.552L1307.27 351.546L1297.22 205.291Z" stroke="black" stroke-width="2"/>
<path d="M1316.6 240.451L1343.78 207.999L1351.94 251.739L1316.17 315.97L1316.6 240.451Z" stroke="black" stroke-width="2"/>
</g>
</g>
</g>
</svg>
