<svg width="132" height="173" viewBox="0 0 132 173" fill="none" xmlns="http://www.w3.org/2000/svg">
<g clip-path="url(#clip0_4840_143863)">
<path d="M1.85882 5.58748C4.30791 11.6077 46.2344 8.08521 48.0547 2.5096C47.9748 1.80788 41.4057 -0.0888696 25.6689 0.515588C9.93216 1.11657 1.85882 4.67037 1.85882 5.58748Z" fill="#0BA85B"/>
<path fill-rule="evenodd" clip-rule="evenodd" d="M47.8709 2.5158C47.7605 2.80122 47.5245 3.09546 47.1562 3.3941C46.7635 3.71263 46.2322 4.02641 45.5769 4.33204C44.2665 4.94322 42.4824 5.51146 40.3751 6.02035C36.162 7.03774 30.6839 7.81158 25.1824 8.22365C19.6807 8.63573 14.1642 8.68535 9.87422 8.25745C7.7283 8.04341 5.89732 7.71062 4.53085 7.24774C3.84769 7.01632 3.28686 6.75443 2.86237 6.46295C2.45714 6.18469 2.18469 5.88543 2.0423 5.56809C2.04921 5.55317 2.06295 5.52945 2.0903 5.4962C2.14082 5.43478 2.22296 5.35892 2.34261 5.27037C2.5812 5.0938 2.94666 4.883 3.44291 4.64965C4.4338 4.18371 5.92453 3.63787 7.91077 3.10052C11.8821 2.02613 17.8215 0.989077 25.6784 0.689023L25.6784 0.689022C33.5395 0.387072 39.1057 0.71009 42.7128 1.19479C44.517 1.43723 45.8274 1.71962 46.6882 1.98296C47.1195 2.1149 47.4319 2.24024 47.6355 2.35033C47.7378 2.40559 47.8062 2.4536 47.8477 2.49211C47.8578 2.50147 47.8653 2.50937 47.8709 2.5158ZM42.7591 0.850496C39.1275 0.362508 33.5407 0.0393817 25.6651 0.341887C17.7853 0.642817 11.8196 1.68315 7.82005 2.76518C5.82087 3.30604 4.30971 3.85818 3.29508 4.33528C2.78856 4.57346 2.40035 4.79546 2.13596 4.99113C2.00412 5.0887 1.89745 5.18381 1.82202 5.27551C1.75004 5.36301 1.68795 5.46974 1.68795 5.58734V5.62132L1.70076 5.65279C1.87081 6.0708 2.20647 6.43397 2.66573 6.74933C3.12535 7.06493 3.71819 7.33923 4.4194 7.57676C5.82166 8.05177 7.68221 8.38793 9.83974 8.60313C14.1567 9.03371 19.6948 8.98303 25.2083 8.57006C30.7222 8.15708 36.22 7.38113 40.4566 6.35804C42.5742 5.84669 44.3834 5.27202 45.7238 4.64687C46.3939 4.33433 46.9525 4.0066 47.375 3.66392C47.7962 3.3224 48.0944 2.95613 48.2226 2.56338L48.2344 2.52741L48.2301 2.48982C48.2181 2.38438 48.1513 2.29996 48.084 2.23748C48.0128 2.17141 47.9165 2.1073 47.8007 2.04473C47.5684 1.91913 47.2315 1.78589 46.7898 1.65077C45.9047 1.38 44.5743 1.09441 42.7591 0.850496Z" fill="black"/>
<path opacity="0.2" d="M1.85753 5.35353C2.81278 7.81947 8.94776 9.05671 21.8984 8.88301C18.7337 8.12918 10.3512 6.53466 9.43757 5.72177C7.61378 4.09598 9.6599 2.50147 8.19739 2.84886C4.45253 3.73817 1.89922 5.15205 1.86101 5.35701L1.85753 5.35353Z" fill="black"/>
</g>
<path d="M101.265 158.583C112.034 171.437 92.5805 177.342 86.6749 168.31C79.6368 157.548 65.4842 147.467 53.6729 137.74C43.3207 129.215 44.4532 121.774 30.7556 117.553C17.0719 115.552 3.87114 115.34 2.9714 97.877C2.95403 93.4929 3.54459 89.1436 5.26764 85.1799C10.8988 72.2362 7.54999 38.6193 5.70535 25.2448C5.57682 24.4875 5.45176 23.6711 4.84036 23.216C0.623046 18.9084 0.536188 11.4569 1.79026 5.86392C7.88695 10.9428 42.5947 8.5145 48.139 2.73047C50.3102 6.93041 50.932 13.2668 49.1186 17.7829C48.0174 36.6704 49.8134 69.7628 68.1695 83.6132C78.4661 91.5858 83.0169 97.1058 85.9628 100.083C98.4827 112.731 94.314 113.774 122.453 140.87C126.347 144.618 120.716 156.85 109.599 147.818C123.147 158.934 109.252 167.966 101.262 158.587L101.265 158.583Z" fill="#ABDEB7"/>
<path fill-rule="evenodd" clip-rule="evenodd" d="M48.1839 2.43359L48.0158 2.60898C47.3479 3.30571 46.226 3.96511 44.7421 4.57201C43.2619 5.1774 41.437 5.72441 39.3781 6.20396C35.2606 7.16301 30.2214 7.84904 25.162 8.19619C20.1026 8.54334 15.0291 8.55119 10.8431 8.15612C8.74992 7.95856 6.88249 7.66061 5.35141 7.25549C3.81633 6.84931 2.63648 6.33971 1.9036 5.72918L1.68515 5.54719L1.62294 5.82463C0.9925 8.63628 0.698224 11.918 1.09337 15.0425C1.48845 18.1663 2.57468 21.1466 4.7184 23.3363L4.7279 23.346L4.7388 23.3541C5.00715 23.5538 5.17509 23.8368 5.29204 24.1729C5.40491 24.4972 5.46582 24.8568 5.52783 25.2227L5.53545 25.2672C5.53558 25.2681 5.5357 25.2691 5.53583 25.27C6.45758 31.9537 7.75489 43.6935 8.11848 55.378C8.3003 61.2211 8.24852 67.0473 7.8002 72.2189C7.3516 77.3938 6.50699 81.8994 5.11052 85.1093C3.37483 89.1021 2.78243 93.4773 2.79986 97.8764L2.79988 97.8805L2.8001 97.8846C3.02614 102.272 4.0256 105.59 5.62316 108.129C7.22147 110.668 9.41081 112.414 11.9959 113.668C14.5783 114.922 17.5574 115.685 20.7393 116.26C22.8582 116.643 25.0755 116.944 27.3292 117.25C28.4528 117.402 29.5854 117.556 30.7194 117.722C37.5207 119.82 40.6315 122.711 43.3345 126.139C43.9644 126.938 44.5736 127.768 45.203 128.626C47.2803 131.458 49.5773 134.589 53.5646 137.873C55.8414 139.748 58.2022 141.634 60.581 143.534C64.3813 146.57 68.2278 149.642 71.8526 152.767C77.7438 157.846 83.0264 163.044 86.5317 168.404C89.5437 173.011 95.9861 173.79 100.298 171.81C102.461 170.817 104.118 169.116 104.532 166.825C104.865 164.984 104.39 162.793 102.781 160.323C106.584 163.432 111.131 163.238 113.625 161.017C115.062 159.737 115.798 157.795 115.308 155.472C114.93 153.682 113.827 151.675 111.774 149.566C113.649 150.69 115.347 151.194 116.841 151.242C118.925 151.309 120.596 150.487 121.782 149.256C122.966 148.027 123.668 146.392 123.825 144.823C123.983 143.256 123.599 141.729 122.575 140.744C108.51 127.199 102.524 120.171 98.4903 114.951C97.5569 113.743 96.7272 112.631 95.9255 111.556C93.2622 107.985 90.9075 104.828 86.0884 99.9595C85.5421 99.4074 84.9398 98.7669 84.2549 98.0385C81.2547 94.8479 76.6706 89.9729 68.278 83.4746L68.2762 83.4732C59.1478 76.5855 54.1222 64.8995 51.5197 52.5498C48.9207 40.217 48.7445 27.2522 49.2925 17.8199C51.1142 13.2525 50.4823 6.87975 48.2954 2.64941L48.1839 2.43359ZM101.28 158.87C101.231 158.813 101.181 158.756 101.132 158.698L101.028 158.576L101.279 158.325L101.401 158.47C101.449 158.529 101.498 158.587 101.545 158.645C105.476 163.106 110.737 163.124 113.394 160.757C114.736 159.562 115.433 157.748 114.968 155.544C114.501 153.333 112.861 150.715 109.491 147.951L109.711 147.682C112.471 149.924 114.872 150.831 116.853 150.895C118.83 150.958 120.408 150.181 121.532 149.015C122.659 147.846 123.329 146.284 123.48 144.788C123.63 143.29 123.258 141.883 122.334 140.994C108.261 127.442 102.262 120.401 98.2154 115.163C97.2771 113.949 96.4448 112.833 95.6417 111.756C92.9812 108.19 90.6423 105.054 85.8415 100.204C85.2915 99.648 84.6864 99.0045 83.9994 98.274C80.9986 95.083 76.4345 90.2295 68.0662 83.75C58.8391 76.7872 53.7888 65.0021 51.1798 52.6215C48.5697 40.236 48.3962 27.2244 48.9474 17.7715L48.949 17.7432L48.9596 17.7168C50.7216 13.3287 50.158 7.18058 48.0938 3.0201C47.3666 3.70253 46.2581 4.32728 44.8736 4.89355C43.3707 5.50821 41.5268 6.06018 39.4569 6.5423C35.3168 7.50659 30.2585 8.1947 25.1858 8.54277C20.1131 8.89083 15.0201 8.89927 10.8105 8.50197C8.70582 8.30333 6.81816 8.00293 5.26256 7.59132C3.84907 7.21732 2.69549 6.74791 1.90309 6.16896C1.32046 8.88912 1.06139 12.0209 1.43803 14.9989C1.82661 18.0714 2.88989 20.9666 4.95741 23.0838C5.29366 23.3385 5.491 23.6876 5.62013 24.0587C5.74291 24.4115 5.80824 24.7976 5.8688 25.1556L5.87876 25.2144L5.87921 25.2171L5.87957 25.2198C6.80244 31.911 8.10156 43.6653 8.4657 55.3672C8.64777 61.2181 8.59619 67.059 8.1463 72.2489C7.69668 77.4355 6.8482 81.9859 5.42907 85.2479C3.71921 89.1813 3.13031 93.5033 3.14724 97.871C3.3715 102.213 4.3594 105.469 5.91716 107.944C7.47465 110.418 9.60943 112.124 12.1475 113.356C14.6882 114.589 17.6312 115.345 20.8011 115.918C22.9128 116.3 25.1168 116.599 27.3658 116.904C28.4955 117.057 29.6365 117.212 30.7829 117.38L30.7961 117.382L30.8089 117.386C37.6963 119.508 40.8658 122.447 43.6073 125.924C44.2476 126.736 44.8632 127.575 45.4965 128.438C47.5703 131.265 49.835 134.351 53.7855 137.605C56.0533 139.472 58.4106 141.355 60.7883 143.255C64.5936 146.295 68.4515 149.376 72.0794 152.504C77.9769 157.588 83.2897 162.812 86.8224 168.214C89.716 172.639 95.9534 173.423 100.153 171.495C102.245 170.534 103.802 168.913 104.19 166.764C104.572 164.653 103.836 161.985 101.28 158.87Z" fill="black"/>
<path fill-rule="evenodd" clip-rule="evenodd" d="M59.3828 95.4524C59.3447 95.5405 59.3852 95.6427 59.4732 95.6808C68.4162 99.5508 72.3995 104.219 76.7007 109.26C77.5947 110.308 78.5025 111.372 79.4714 112.448L79.4714 112.448C83.188 116.575 86.1892 120.445 89.399 124.584C90.304 125.751 91.2255 126.94 92.1844 128.161C96.5433 133.715 101.665 139.943 109.487 147.939C109.554 148.007 109.664 148.009 109.733 147.942C109.801 147.875 109.803 147.765 109.736 147.696C101.925 139.712 96.8113 133.493 92.4576 127.947C91.5015 126.729 90.5817 125.542 89.6777 124.377C86.4665 120.235 83.4555 116.352 79.7296 112.215C78.7683 111.148 77.8654 110.089 76.974 109.044C72.6681 103.997 68.6327 99.2659 59.6112 95.362C59.5231 95.3239 59.4209 95.3644 59.3828 95.4524Z" fill="black"/>
<path fill-rule="evenodd" clip-rule="evenodd" d="M41.1486 101.414C41.128 101.507 41.1873 101.6 41.2809 101.621C48.6387 103.239 57.162 108.429 67.44 119.443L67.567 119.324L67.44 119.443C71.3347 123.616 74.5592 127.676 78.2153 132.279C79.1193 133.418 80.0497 134.589 81.0231 135.804C85.9322 141.929 91.9282 149.142 101.139 158.7C101.205 158.769 101.315 158.771 101.384 158.704C101.453 158.638 101.455 158.528 101.389 158.459C92.1877 148.91 86.1988 141.706 81.2942 135.586C80.3231 134.375 79.3943 133.205 78.4912 132.068C74.834 127.463 71.599 123.39 67.694 119.206C57.3927 108.167 48.8106 102.921 41.3556 101.281C41.2619 101.261 41.1692 101.32 41.1486 101.414Z" fill="black"/>
<path d="M101.267 158.583C112.037 171.436 92.6695 177.338 86.7639 168.306C83.7138 163.318 96.5186 153.653 101.267 158.583Z" fill="#0BA85B"/>
<path fill-rule="evenodd" clip-rule="evenodd" d="M86.9216 163.905C86.0618 165.461 85.8044 167.073 86.6138 168.396L86.6152 168.399L86.6166 168.401C89.6285 173.007 96.0491 173.788 100.34 171.809C102.493 170.816 104.138 169.115 104.544 166.825C104.95 164.536 104.109 161.706 101.399 158.471L101.395 158.466L101.391 158.462C100.151 157.175 98.3941 156.853 96.5396 157.149C94.6859 157.445 92.7108 158.361 90.9886 159.583C89.2666 160.806 87.7831 162.346 86.9216 163.905ZM101.136 158.699C100.002 157.525 98.379 157.207 96.5944 157.492C94.807 157.778 92.8811 158.666 91.1897 159.866C89.4983 161.067 88.0557 162.571 87.2257 164.073C86.3945 165.577 86.1948 167.043 86.9088 168.213C89.8032 172.637 96.0176 173.42 100.194 171.493C102.275 170.533 103.821 168.913 104.202 166.764C104.583 164.615 103.807 161.888 101.136 158.699Z" fill="black"/>
<path d="M5.18702 85.4219C-2.17417 106.373 7.70906 116.558 29.011 117.305C35.8824 93.596 27.1351 83.7892 5.18702 85.4219Z" fill="#0BA85B"/>
<path fill-rule="evenodd" clip-rule="evenodd" d="M28.8839 117.129C18.3201 116.737 10.636 114.01 6.48802 108.833C2.34295 103.66 1.68603 95.9837 5.31545 85.5886C16.2134 84.7959 23.7699 86.847 27.7715 91.9691C31.7741 97.0923 32.2747 105.356 28.8839 117.129ZM28.0453 91.7552C23.918 86.4724 16.1653 84.433 5.17626 85.2505L5.06294 85.2589L5.02528 85.3661C1.33557 95.8676 1.94944 103.724 6.21692 109.051C10.478 114.369 18.3386 117.107 29.007 117.481L29.1423 117.485L29.18 117.355C32.6193 105.488 32.1708 97.0357 28.0453 91.7552Z" fill="black"/>
<path d="M122.414 140.818C126.308 144.566 120.677 156.798 109.56 147.766C106.573 145.233 118.106 135.072 122.414 140.818Z" fill="#0BA85B"/>
<path fill-rule="evenodd" clip-rule="evenodd" d="M108.903 146.491C108.862 147.045 109.022 147.539 109.446 147.898L109.449 147.9L109.449 147.9C112.247 150.174 114.719 151.125 116.799 151.191C118.882 151.258 120.553 150.436 121.739 149.205C122.923 147.977 123.625 146.342 123.782 144.772C123.939 143.21 123.558 141.688 122.542 140.702C121.421 139.215 119.829 138.762 118.147 138.951C116.468 139.139 114.688 139.966 113.15 141.045C111.611 142.125 110.295 143.47 109.551 144.715C109.18 145.336 108.944 145.945 108.903 146.491ZM118.185 139.296C119.779 139.117 121.241 139.546 122.273 140.922L122.281 140.933L122.291 140.943C123.215 141.832 123.587 143.239 123.437 144.738C123.286 146.234 122.616 147.795 121.489 148.964C120.365 150.13 118.787 150.907 116.81 150.844C114.829 150.781 112.429 149.874 109.669 147.632C109.347 147.358 109.215 146.981 109.249 146.517C109.284 146.046 109.493 145.49 109.85 144.893C110.563 143.7 111.839 142.389 113.349 141.33C114.859 140.27 116.584 139.476 118.185 139.296Z" fill="black"/>
<path d="M109.56 147.767C123.108 158.883 109.167 167.87 101.177 158.491C96.3661 153.721 106.934 145.512 109.56 147.767Z" fill="#0BA85B"/>
<path fill-rule="evenodd" clip-rule="evenodd" d="M101.048 158.609C99.8007 157.369 99.5502 155.898 99.9179 154.443C100.283 152.997 101.258 151.568 102.455 150.372C103.653 149.175 105.089 148.197 106.398 147.66C107.052 147.391 107.683 147.23 108.241 147.211C108.798 147.192 109.298 147.315 109.67 147.634C113.073 150.427 114.773 153.104 115.258 155.415C115.744 157.735 115.002 159.671 113.559 160.945C110.681 163.486 105.091 163.35 101.048 158.609ZM108.252 147.558C108.756 147.541 109.16 147.654 109.445 147.898L109.448 147.901L109.448 147.901C112.818 150.666 114.455 153.28 114.918 155.487C115.378 157.686 114.676 159.495 113.329 160.684C110.627 163.07 105.254 163.01 101.308 158.378L101.303 158.372L101.298 158.367C100.144 157.223 99.9126 155.882 100.255 154.528C100.599 153.164 101.529 151.788 102.701 150.617C103.871 149.448 105.269 148.498 106.53 147.981C107.16 147.722 107.749 147.575 108.252 147.558Z" fill="black"/>
<path d="M25.3994 8.48129C36.0817 7.7344 45.0408 5.36868 48.2021 2.72852C50.3802 6.95625 50.9916 13.244 49.1817 17.7809C35.307 23.353 20.5117 24.489 4.90345 23.2176C0.693085 18.9273 0.595816 11.448 1.85337 5.86544C5.22652 8.10611 14.547 9.24554 25.3994 8.48476V8.48129Z" fill="#0BA85B"/>
<path fill-rule="evenodd" clip-rule="evenodd" d="M48.2592 2.45703L48.0928 2.59603C46.5439 3.88966 43.5464 5.13364 39.5802 6.14743C35.6217 7.15924 30.7218 7.93601 25.3894 8.30885L25.2278 8.32014V8.32352C19.8719 8.69018 14.8987 8.59268 10.8435 8.12891C6.73841 7.65944 3.6012 6.8174 1.95154 5.72159L1.74142 5.58202L1.68598 5.8281C1.05374 8.63478 0.761232 11.9209 1.15769 15.0488C1.55405 18.1759 2.6411 21.159 4.78154 23.34L4.82689 23.3862L4.89141 23.3915C20.5163 24.6643 35.3408 23.5283 49.2485 17.9429L49.3175 17.9152L49.3451 17.8461C51.1761 13.2564 50.5566 6.9161 48.3586 2.6498L48.2592 2.45703ZM48.1462 2.99956C50.2148 7.16372 50.7785 13.2372 49.0497 17.6483C35.2472 23.1755 20.526 24.3101 4.98443 23.0505C2.94407 20.9453 1.88996 18.0634 1.50232 15.0051C1.1232 12.014 1.38354 8.86746 1.9716 6.14591C3.7391 7.22256 6.85565 8.0225 10.804 8.47405C14.9246 8.9453 19.9787 9.03987 25.4136 8.65886L25.5752 8.64754V8.64396C30.8625 8.26561 35.7244 7.49154 39.6662 6.48399C43.5054 5.50266 46.4941 4.29444 48.1462 2.99956Z" fill="black"/>
<path opacity="0.2" d="M98.664 172.243C94.4953 173.286 91.3688 172.243 88.9371 170.506C86.5054 168.77 87.2001 167.38 79.905 160.085C74.8643 155.044 66.3568 147.926 60.1038 142.715C56.6993 139.881 53.3922 137.907 51.0716 135.42C47.8444 131.957 45.8851 129.48 45.166 128.125C41.6921 123.261 37.6381 119.534 30.7528 117.411C17.0691 115.41 3.05197 115.237 2.85744 97.7666C2.8088 93.3825 3.62864 89.0367 5.26484 85.0382C9.7288 75.3217 8.68663 50.6571 6.94968 35.3719C6.16458 28.4762 5.60876 23.5503 4.84103 23.0709C0.349281 18.6972 0.835627 11.4611 1.79095 5.71875C18.0349 15.6715 8.27671 43.5842 12.4905 69.7635C14.9709 85.1841 4.51448 90.6451 11.6742 102.394C18.8339 114.143 32.3439 113.062 38.5621 115.966C43.773 118.398 48.692 126.339 51.4155 129.515C52.3813 130.644 59.5097 137.313 63.2268 139.936C66.9439 142.559 75.4862 149.816 77.1224 151.4C81.9268 156.045 85.9808 160.258 86.8493 161.474C89.0344 164.531 92.9633 167.654 94.1445 168.075C99.0079 169.812 101.787 166.338 104.219 166.685C103.871 170.506 98.6605 172.243 98.6605 172.243H98.664Z" fill="black"/>
<path opacity="0.2" d="M101.265 158.58C82.8534 139.473 77.2951 129.746 67.5682 119.325C57.2786 108.298 47.8851 102.549 41.3195 101.451C42.5249 100.913 50.699 104.349 52.6895 105.554C57.9455 108.747 64.1221 113.659 71.2957 122.062C80.6857 133.064 90.4647 146.813 99.5038 155.54C101.05 157.034 105.323 158.58 107.973 159.233C110.624 159.886 113.299 157.53 115.133 158.222C113.278 163.596 107.348 162.206 107.157 162.213C104.84 162.29 101.268 158.583 101.268 158.583L101.265 158.58Z" fill="black"/>
<path opacity="0.2" d="M109.612 147.818C93.9793 131.838 89.1402 122.924 79.6009 112.332C73.9836 106.093 70.3881 100.215 59.5426 95.5215C59.5426 95.5215 67.0948 98.12 71.5484 102.379C73.129 103.89 76.6168 107.649 81.8936 113.926C84.902 117.504 87.5734 120.697 90.8146 124.782C92.5654 126.992 96.4631 131.775 100.062 136.176C101.07 137.41 104.359 141.519 108.146 144.795C110.345 146.699 111.943 147.067 115.486 147.821C119.03 148.575 122.437 145.445 123.41 146.081C119.252 156.03 109.615 147.821 109.615 147.821L109.612 147.818Z" fill="black"/>
<g clip-path="url(#clip1_4840_143863)">
<path d="M73.0508 77.6197C65.9259 77.457 61.8399 80.4162 61.1029 85.5184C60.9948 86.2645 61.3903 87.0247 61.7887 87.5464C62.6707 88.7077 63.5357 89.8269 65.6044 89.9531C68.1112 90.1045 72.5671 90.3009 71.8671 87.8185" fill="#F7931E"/>
<path d="M73.0508 77.6197C65.9259 77.457 61.8399 80.4162 61.1029 85.5184C60.9948 86.2645 61.3903 87.0247 61.7887 87.5464C62.6707 88.7077 63.5357 89.8269 65.6044 89.9531C68.1112 90.1045 72.5671 90.3009 71.8671 87.8185" stroke="black" stroke-width="0.338972" stroke-miterlimit="10" stroke-linecap="round"/>
<path opacity="0.2" d="M65.5979 89.9562C68.099 90.1637 74.8938 90.2928 69.7465 87.1035C69.7465 87.1035 70.9558 88.5481 69.4932 89.283C67.8486 90.1132 65.595 89.9562 65.595 89.9562H65.5979Z" fill="black"/>
<path d="M68.9526 83.4696C68.9526 87.6266 71.3797 89.994 74.2536 89.0852C76.4275 88.4007 77.8359 85.938 77.8359 83.45C77.8359 80.962 76.4275 78.4992 74.2536 77.812C71.3797 76.9032 68.9526 79.3127 68.9526 83.4696Z" fill="#FFF383" stroke="black" stroke-width="0.338972" stroke-miterlimit="10" stroke-linecap="round"/>
<path d="M76.3281 81.0863C75.7448 79.5969 74.6436 78.3739 73.2124 77.9223C72.8539 77.8101 72.5011 77.7484 72.1596 77.7344" stroke="black" stroke-width="0.338972" stroke-miterlimit="10" stroke-linecap="round"/>
<path d="M76.2969 86.416C75.6766 87.6558 74.6778 88.6404 73.423 89.0358C73.0645 89.148 72.7117 89.2098 72.3702 89.2238" stroke="black" stroke-width="0.338972" stroke-miterlimit="10" stroke-linecap="round"/>
<path d="M68.3057 83.4807C68.3029 77.0714 73.14 77.6212 73.14 77.6212C70.7926 77.5903 68.9801 79.8764 68.9801 83.4695C68.9801 87.0627 70.8666 89.4104 73.2852 89.273C73.2852 89.273 68.3085 89.848 68.3057 83.4807Z" fill="#C4711E" stroke="black" stroke-width="0.338972" stroke-miterlimit="10" stroke-linecap="round"/>
</g>
<g clip-path="url(#clip2_4840_143863)">
<path d="M49.082 90.4712C41.9571 90.3085 37.8711 93.2678 37.1342 98.37C37.026 99.1161 37.4216 99.8763 37.8199 100.398C38.702 101.559 39.567 102.678 41.6356 102.805C44.1424 102.956 48.5983 103.152 47.8983 100.67" fill="#F7931E"/>
<path d="M49.082 90.4712C41.9571 90.3085 37.8711 93.2678 37.1342 98.37C37.026 99.1161 37.4216 99.8763 37.8199 100.398C38.702 101.559 39.567 102.678 41.6356 102.805C44.1424 102.956 48.5983 103.152 47.8983 100.67" stroke="black" stroke-width="0.338972" stroke-miterlimit="10" stroke-linecap="round"/>
<path opacity="0.2" d="M41.6291 102.808C44.1302 103.015 50.9251 103.144 45.7777 99.9551C45.7777 99.9551 46.987 101.4 45.5245 102.135C43.8798 102.965 41.6263 102.808 41.6263 102.808H41.6291Z" fill="black"/>
<path d="M44.9838 96.3212C44.9838 100.478 47.411 102.846 50.2848 101.937C52.4587 101.252 53.8672 98.7896 53.8672 96.3016C53.8672 93.8135 52.4587 91.3508 50.2848 90.6636C47.411 89.7548 44.9838 92.1642 44.9838 96.3212Z" fill="#FFF383" stroke="black" stroke-width="0.338972" stroke-miterlimit="10" stroke-linecap="round"/>
<path d="M52.3594 93.9379C51.7761 92.4484 50.6749 91.2255 49.2437 90.7739C48.8851 90.6617 48.5323 90.6 48.1909 90.5859" stroke="black" stroke-width="0.338972" stroke-miterlimit="10" stroke-linecap="round"/>
<path d="M52.3281 99.2676C51.7078 100.507 50.7091 101.492 49.4543 101.887C49.0957 102 48.7429 102.061 48.4015 102.075" stroke="black" stroke-width="0.338972" stroke-miterlimit="10" stroke-linecap="round"/>
<path d="M44.3369 96.3323C44.3341 89.923 49.1713 90.4727 49.1713 90.4727C46.8238 90.4419 45.0113 92.7279 45.0113 96.3211C45.0113 99.9142 46.8978 102.262 49.3164 102.125C49.3164 102.125 44.3398 102.7 44.3369 96.3323Z" fill="#C4711E" stroke="black" stroke-width="0.338972" stroke-miterlimit="10" stroke-linecap="round"/>
</g>
<defs>
<clipPath id="clip0_4840_143863">
<rect width="46.5467" height="8.68126" fill="white" transform="matrix(-1 0 0 1 48.2344 0.224609)"/>
</clipPath>
<clipPath id="clip1_4840_143863">
<rect width="17.0354" height="12.8383" fill="white" transform="matrix(-1 0 0 1 77.9727 77.4688)"/>
</clipPath>
<clipPath id="clip2_4840_143863">
<rect width="17.0355" height="12.8383" fill="white" transform="matrix(-1 0 0 1 54.0039 90.3203)"/>
</clipPath>
</defs>
</svg>
