<svg width="131" height="173" viewBox="0 0 131 173" fill="none" xmlns="http://www.w3.org/2000/svg">
<path d="M82.7684 116.648C78.7307 110.539 78.0722 108.179 67.7959 98.726C49.4823 82.3034 47.6905 43.0612 48.7892 20.6701C50.5983 15.3153 49.9814 7.80631 47.8118 2.82227C42.2768 9.68048 7.64943 12.5597 1.57032 6.53765C0.319141 13.1693 0.405787 22.0088 4.61334 27.1123C5.22333 27.6519 5.34811 28.6199 5.47634 29.5178C7.31671 45.3761 10.6543 85.2362 5.03964 100.584C3.32058 105.284 2.72791 110.441 2.74871 115.639C3.64636 136.345 16.8166 136.597 30.4686 138.969C44.1345 143.974 48.0717 148.661 59.561 156.813C81.8638 172.63 88.5044 166.699 102.177 171.534C109.598 174.158 114.252 170.933 128.078 172.107C130.615 172.321 131.578 170.505 128.975 169.121C125.818 167.44 106.399 154.177 94.0636 136.704C89.5095 130.253 87.3364 123.556 82.7719 116.648H82.7684Z" fill="#E1E6AE"/>
<path fill-rule="evenodd" clip-rule="evenodd" d="M47.8567 2.4707L47.689 2.67846C47.0223 3.50461 45.9025 4.28649 44.4217 5.0061C42.9446 5.72392 41.1237 6.37251 39.0693 6.94113C34.9609 8.07829 29.9332 8.89173 24.8855 9.30335C19.8379 9.71497 14.7763 9.72427 10.6004 9.25583C8.51226 9.02159 6.64943 8.6683 5.12223 8.18794C3.59102 7.70633 2.41431 7.1021 1.68355 6.37821L1.46559 6.16229L1.40351 6.49135C0.774528 9.82517 0.480933 13.7174 0.875168 17.4226C1.26932 21.1271 2.35302 24.6609 4.49184 27.2552L4.50131 27.2667L4.51215 27.2763C4.77987 27.5131 4.94743 27.8486 5.06412 28.2471C5.17673 28.6317 5.2375 29.0581 5.29935 29.4919L5.30697 29.5447C5.30709 29.5458 5.30722 29.5469 5.30735 29.548C6.22695 37.473 7.52041 51.393 7.88272 65.2475C8.0639 72.1757 8.01213 79.0839 7.56502 85.216C7.11761 91.352 6.27539 96.6943 4.88301 100.5C3.15135 105.235 2.55683 110.422 2.5777 115.639L2.57772 115.643L2.57793 115.648C2.80345 120.85 3.80061 124.785 5.39446 127.795C6.98907 130.805 9.17335 132.876 11.7524 134.363C14.3289 135.849 17.3011 136.754 20.4756 137.436C22.5896 137.89 24.8018 138.247 27.0503 138.61C28.1713 138.791 29.3013 138.973 30.4326 139.169C40.7557 142.951 45.5027 146.545 52.1965 151.612C54.3404 153.235 56.684 155.009 59.4745 156.988C70.6432 164.909 77.9002 167.391 84.0819 168.494C86.1441 168.862 88.0898 169.077 90.0151 169.29C90.968 169.395 91.9158 169.499 92.8703 169.622C95.7583 169.992 98.7256 170.526 102.13 171.73L102.18 171.533L102.13 171.731C105.873 173.054 108.918 172.9 112.74 172.568C113.037 172.543 113.339 172.516 113.646 172.488C117.291 172.164 121.705 171.771 128.068 172.311L128.068 172.311C128.718 172.366 129.278 172.292 129.712 172.119C130.141 171.948 130.469 171.671 130.614 171.298C130.764 170.91 130.693 170.478 130.429 170.074C130.169 169.675 129.712 169.284 129.048 168.931C127.484 168.099 121.85 164.371 115.063 158.665C108.278 152.96 100.353 145.288 94.1987 136.57C91.9315 133.359 90.2559 130.085 88.5727 126.74C88.4951 126.586 88.4176 126.432 88.3399 126.278C86.7335 123.084 85.0951 119.826 82.9105 116.52L82.8584 116.441H82.855C82.2208 115.48 81.6684 114.608 81.1465 113.785C80.0405 112.041 79.0714 110.513 77.7517 108.801C75.7883 106.253 73.0459 103.292 67.9043 98.5619L67.9026 98.5604C58.7953 90.3935 53.7813 76.5363 51.1848 61.8926C48.5918 47.2688 48.416 31.8962 48.9628 20.7143C50.7803 15.2988 50.1534 7.74657 47.968 2.72639L47.8567 2.4707ZM47.7669 3.16583C49.8296 8.10268 50.3886 15.3889 48.6306 20.5921L48.6201 20.6233L48.6184 20.6569C48.0686 31.8633 48.2416 47.2913 50.8457 61.9775C53.4487 76.6579 58.4873 90.6328 67.6931 98.8886C72.8272 103.611 75.5519 106.556 77.4961 109.079C78.8047 110.777 79.7584 112.281 80.8582 114.016C81.3958 114.863 81.9684 115.766 82.6344 116.774L82.6865 116.853H82.6898C84.8346 120.111 86.4497 123.322 88.0451 126.494C88.1218 126.647 88.1985 126.799 88.2752 126.952C89.9582 130.296 91.6463 133.596 93.9332 136.835C100.114 145.59 108.066 153.286 114.863 159.001C121.659 164.715 127.314 168.459 128.907 169.307L128.907 169.307C129.544 169.646 129.944 170.002 130.155 170.326C130.363 170.645 130.381 170.913 130.299 171.126C130.211 171.353 129.985 171.576 129.601 171.729C129.222 171.88 128.71 171.952 128.092 171.9C121.704 171.358 117.268 171.753 113.622 172.078C113.314 172.105 113.012 172.132 112.715 172.158C108.899 172.489 105.907 172.636 102.229 171.336C98.797 170.122 95.807 169.584 92.9074 169.212C91.9424 169.089 90.9894 168.983 90.0342 168.878C88.1147 168.666 86.1863 168.453 84.1334 168.087C78.0009 166.992 70.7863 164.531 59.6522 156.635C56.8766 154.666 54.5403 152.897 52.3994 151.276C45.6917 146.198 40.9014 142.572 30.522 138.771L30.5092 138.766L30.496 138.764C29.3523 138.565 28.2139 138.382 27.0868 138.2C24.843 137.838 22.6442 137.483 20.5373 137.031C17.3748 136.351 14.4385 135.455 11.9037 133.993C9.37152 132.532 7.24167 130.509 5.68778 127.575C4.13361 124.641 3.14799 120.78 2.92426 115.632C2.90392 110.453 3.49489 105.329 5.20085 100.665C6.61581 96.7969 7.46189 91.4014 7.91031 85.2516C8.35901 79.0978 8.41056 72.1722 8.22914 65.2347C7.86627 51.3595 6.57104 37.4224 5.65029 29.4884L5.64993 29.4853L5.64948 29.4821L5.63955 29.4124C5.57912 28.9879 5.51395 28.5301 5.39146 28.1117C5.26261 27.6717 5.06572 27.2577 4.73025 26.9558C2.66753 24.4475 1.60671 21.0147 1.21901 17.371C0.843257 13.8394 1.10173 10.1251 1.683 6.8997C2.47319 7.58615 3.62372 8.1427 5.03355 8.58614C6.58524 9.0742 8.46827 9.43039 10.5678 9.66591C14.7673 10.137 19.8483 10.127 24.9093 9.71428C29.9702 9.30158 35.0171 8.48568 39.148 7.3423C41.2133 6.77065 43.0532 6.11617 44.5529 5.38736C45.9347 4.71588 47.041 3.97505 47.7669 3.16583Z" fill="black"/>
<path d="M82.7684 116.648C78.7307 110.539 78.0722 108.179 67.7959 98.726C49.4823 82.3034 47.6905 43.0612 48.7892 20.6701C50.5983 15.3153 49.9814 7.80631 47.8118 2.82227C42.2768 9.68048 7.64943 12.5597 1.57032 6.53765C0.319141 13.1693 0.405787 22.0088 4.61334 27.1123C5.22333 27.6519 5.34811 28.6199 5.47634 29.5178C7.31671 45.3761 10.6543 85.2362 5.03964 100.584C3.32058 105.284 2.72791 110.441 2.74871 115.639C3.64636 136.345 16.8166 136.597 30.4686 138.969C44.1345 143.974 48.0717 148.661 59.561 156.813C81.8638 172.63 88.5044 166.699 102.177 171.534C109.598 174.158 114.252 170.933 128.078 172.107C130.615 172.321 131.578 170.505 128.975 169.121C125.818 167.44 106.399 154.177 94.0636 136.704C89.5095 130.253 87.3364 123.556 82.7719 116.648H82.7684Z" fill="#E1E6AE"/>
<path fill-rule="evenodd" clip-rule="evenodd" d="M47.8567 2.4707L47.689 2.67846C47.0223 3.50461 45.9025 4.28649 44.4217 5.0061C42.9446 5.72392 41.1237 6.37251 39.0693 6.94113C34.9609 8.07829 29.9332 8.89173 24.8855 9.30335C19.8379 9.71497 14.7763 9.72427 10.6004 9.25583C8.51226 9.02159 6.64943 8.6683 5.12223 8.18794C3.59102 7.70633 2.41431 7.1021 1.68355 6.37821L1.46559 6.16229L1.40351 6.49135C0.774528 9.82517 0.480933 13.7174 0.875168 17.4226C1.26932 21.1271 2.35302 24.6609 4.49184 27.2552L4.50131 27.2667L4.51215 27.2763C4.77987 27.5131 4.94743 27.8486 5.06412 28.2471C5.17673 28.6317 5.2375 29.0581 5.29935 29.4919L5.30697 29.5447C5.30709 29.5458 5.30722 29.5469 5.30735 29.548C6.22695 37.473 7.52041 51.393 7.88272 65.2475C8.0639 72.1757 8.01213 79.0839 7.56502 85.216C7.11761 91.352 6.27539 96.6943 4.88301 100.5C3.15135 105.235 2.55683 110.422 2.5777 115.639L2.57772 115.643L2.57793 115.648C2.80345 120.85 3.80061 124.785 5.39446 127.795C6.98907 130.805 9.17335 132.876 11.7524 134.363C14.3289 135.849 17.3011 136.754 20.4756 137.436C22.5896 137.89 24.8018 138.247 27.0503 138.61C28.1713 138.791 29.3013 138.973 30.4326 139.169C40.7557 142.951 45.5027 146.545 52.1965 151.612C54.3404 153.235 56.684 155.009 59.4745 156.988C70.6432 164.909 77.9002 167.391 84.0819 168.494C86.1441 168.862 88.0898 169.077 90.0151 169.29C90.968 169.395 91.9158 169.499 92.8703 169.622C95.7583 169.992 98.7256 170.526 102.13 171.73L102.18 171.533L102.13 171.731C105.873 173.054 108.918 172.9 112.74 172.568C113.037 172.543 113.339 172.516 113.646 172.488C117.291 172.164 121.705 171.771 128.068 172.311L128.068 172.311C128.718 172.366 129.278 172.292 129.712 172.119C130.141 171.948 130.469 171.671 130.614 171.298C130.764 170.91 130.693 170.478 130.429 170.074C130.169 169.675 129.712 169.284 129.048 168.931C127.484 168.099 121.85 164.371 115.063 158.665C108.278 152.96 100.353 145.288 94.1987 136.57C91.9315 133.359 90.2559 130.085 88.5727 126.74C88.4951 126.586 88.4176 126.432 88.3399 126.278C86.7335 123.084 85.0951 119.826 82.9105 116.52L82.8584 116.441H82.855C82.2208 115.48 81.6684 114.608 81.1465 113.785C80.0405 112.041 79.0714 110.513 77.7517 108.801C75.7883 106.253 73.0459 103.292 67.9043 98.5619L67.9026 98.5604C58.7953 90.3935 53.7813 76.5363 51.1848 61.8926C48.5918 47.2688 48.416 31.8962 48.9628 20.7143C50.7803 15.2988 50.1534 7.74657 47.968 2.72639L47.8567 2.4707ZM47.7669 3.16583C49.8296 8.10268 50.3886 15.3889 48.6306 20.5921L48.6201 20.6233L48.6184 20.6569C48.0686 31.8633 48.2416 47.2913 50.8457 61.9775C53.4487 76.6579 58.4873 90.6328 67.6931 98.8886C72.8272 103.611 75.5519 106.556 77.4961 109.079C78.8047 110.777 79.7584 112.281 80.8582 114.016C81.3958 114.863 81.9684 115.766 82.6344 116.774L82.6865 116.853H82.6898C84.8346 120.111 86.4497 123.322 88.0451 126.494C88.1218 126.647 88.1985 126.799 88.2752 126.952C89.9582 130.296 91.6463 133.596 93.9332 136.835C100.114 145.59 108.066 153.286 114.863 159.001C121.659 164.715 127.314 168.459 128.907 169.307L128.907 169.307C129.544 169.646 129.944 170.002 130.155 170.326C130.363 170.645 130.381 170.913 130.299 171.126C130.211 171.353 129.985 171.576 129.601 171.729C129.222 171.88 128.71 171.952 128.092 171.9C121.704 171.358 117.268 171.753 113.622 172.078C113.314 172.105 113.012 172.132 112.715 172.158C108.899 172.489 105.907 172.636 102.229 171.336C98.797 170.122 95.807 169.584 92.9074 169.212C91.9424 169.089 90.9894 168.983 90.0342 168.878C88.1147 168.666 86.1863 168.453 84.1334 168.087C78.0009 166.992 70.7863 164.531 59.6522 156.635C56.8766 154.666 54.5403 152.897 52.3994 151.276C45.6917 146.198 40.9014 142.572 30.522 138.771L30.5092 138.766L30.496 138.764C29.3523 138.565 28.2139 138.382 27.0868 138.2C24.843 137.838 22.6442 137.483 20.5373 137.031C17.3748 136.351 14.4385 135.455 11.9037 133.993C9.37152 132.532 7.24167 130.509 5.68778 127.575C4.13361 124.641 3.14799 120.78 2.92426 115.632C2.90392 110.453 3.49489 105.329 5.20085 100.665C6.61581 96.7969 7.46189 91.4014 7.91031 85.2516C8.35901 79.0978 8.41056 72.1722 8.22914 65.2347C7.86627 51.3595 6.57104 37.4224 5.65029 29.4884L5.64993 29.4853L5.64948 29.4821L5.63955 29.4124C5.57912 28.9879 5.51395 28.5301 5.39146 28.1117C5.26261 27.6717 5.06572 27.2577 4.73025 26.9558C2.66753 24.4475 1.60671 21.0147 1.21901 17.371C0.843257 13.8394 1.10173 10.1251 1.683 6.8997C2.47319 7.58615 3.62372 8.1427 5.03355 8.58614C6.58524 9.0742 8.46827 9.43039 10.5678 9.66591C14.7673 10.137 19.8483 10.127 24.9093 9.71428C29.9702 9.30158 35.0171 8.48568 39.148 7.3423C41.2133 6.77065 43.0532 6.11617 44.5529 5.38736C45.9347 4.71588 47.041 3.97505 47.7669 3.16583Z" fill="black"/>
<path d="M1.58681 6.35779C4.03024 13.4961 45.8597 9.31939 47.6758 2.70832C47.5961 1.87627 41.0421 -0.372729 25.3418 0.343985C9.64146 1.05658 1.58681 5.27037 1.58681 6.35779Z" fill="#F8D047"/>
<path fill-rule="evenodd" clip-rule="evenodd" d="M47.4889 2.7167C47.3788 3.05513 47.1433 3.40401 46.7759 3.75811C46.384 4.1358 45.8541 4.50785 45.2003 4.87024C43.8929 5.59493 42.1129 6.2687 40.0105 6.8721C35.8072 8.07843 30.3417 8.99598 24.8529 9.48457C19.3639 9.97318 13.8602 10.032 9.58018 9.52466C7.43923 9.27087 5.61248 8.87627 4.24918 8.32742C3.56759 8.05303 3.00806 7.7425 2.58456 7.39689C2.18026 7.06696 1.90844 6.71211 1.76639 6.33584C1.77327 6.31815 1.78698 6.29002 1.81427 6.25059C1.86467 6.17778 1.94662 6.08782 2.066 5.98283C2.30403 5.77347 2.66865 5.52352 3.16374 5.24684C4.15235 4.69436 5.63962 4.04716 7.62127 3.41001C11.5834 2.13609 17.509 0.90644 25.3477 0.550662L25.3478 0.550661C33.1907 0.192634 38.744 0.575641 42.3428 1.15036C44.1428 1.43782 45.4501 1.77265 46.309 2.0849C46.7393 2.24134 47.0509 2.38996 47.2541 2.52049C47.3561 2.58602 47.4244 2.64295 47.4658 2.68861C47.4758 2.6997 47.4833 2.70907 47.4889 2.7167ZM42.3889 0.742123C38.7657 0.163508 33.1919 -0.219627 25.3345 0.139058C17.4729 0.495875 11.521 1.72942 7.53076 3.0124C5.5362 3.6537 4.02854 4.30837 3.01626 4.87409C2.51092 5.1565 2.12361 5.41973 1.85982 5.65173C1.72829 5.76742 1.62186 5.8802 1.54661 5.98892C1.47479 6.09267 1.41286 6.21922 1.41286 6.35867V6.39896L1.42563 6.43628C1.59529 6.93192 1.93017 7.36253 2.38837 7.73645C2.84693 8.11067 3.4384 8.43591 4.13798 8.71755C5.537 9.28078 7.39324 9.67936 9.54578 9.93453C13.8527 10.4451 19.378 10.385 24.8788 9.89533C30.3799 9.40564 35.865 8.48558 40.0918 7.27249C42.2044 6.66618 44.0095 5.98478 45.3468 5.24354C46.0153 4.87296 46.5726 4.48436 46.9942 4.07804C47.4144 3.6731 47.7119 3.23881 47.8398 2.77311L47.8516 2.73047L47.8473 2.68589C47.8353 2.56088 47.7687 2.46078 47.7015 2.38669C47.6305 2.30834 47.5344 2.23233 47.4189 2.15814C47.1871 2.00921 46.851 1.85123 46.4103 1.69101C45.5273 1.36996 44.1999 1.03133 42.3889 0.742123Z" fill="black"/>
<path d="M4.7787 100.431C-2.56545 125.273 7.29491 137.35 28.5476 138.235C35.403 110.123 26.676 98.4948 4.7787 100.431Z" fill="#F8D047"/>
<path fill-rule="evenodd" clip-rule="evenodd" d="M28.4211 138.025C17.8818 137.561 10.2155 134.327 6.0771 128.189C1.94161 122.055 1.28621 112.953 4.90723 100.627C15.78 99.6872 23.319 102.119 27.3114 108.193C31.3047 114.267 31.8041 124.065 28.4211 138.025ZM27.5845 107.939C23.4668 101.675 15.732 99.2569 4.76838 100.226L4.65532 100.236L4.61774 100.363C0.936563 112.815 1.54902 122.131 5.80662 128.446C10.0579 134.752 17.9003 137.999 28.544 138.442L28.6789 138.448L28.7165 138.294C32.1479 124.222 31.7004 114.2 27.5845 107.939Z" fill="black"/>
<path d="M25.0507 9.61802C35.7082 8.73242 44.6466 5.92735 47.8006 2.79688C49.9737 7.80976 50.5836 15.2652 48.7779 20.6447C34.9353 27.2517 20.1742 28.5986 4.60211 27.091C0.401491 22.004 0.304447 13.1357 1.55909 6.51637C4.92443 9.17316 14.2233 10.5242 25.0507 9.62214V9.61802Z" fill="#F8D047"/>
<path fill-rule="evenodd" clip-rule="evenodd" d="M47.8541 2.47461L47.688 2.63942C46.1427 4.1733 43.1521 5.6483 39.1951 6.85036C35.2457 8.05009 30.3573 8.97111 25.0371 9.41319L24.8759 9.42659V9.43058C19.5324 9.86534 14.5708 9.74974 10.5249 9.19983C6.42933 8.64317 3.29937 7.64476 1.65353 6.34545L1.4439 6.17995L1.38859 6.47174C0.757809 9.79965 0.465981 13.696 0.861522 17.4048C1.25696 21.1127 2.3415 24.6498 4.47699 27.2359L4.52223 27.2907L4.5866 27.2969C20.1754 28.8061 34.9655 27.4591 48.8411 20.8364L48.9099 20.8036L48.9374 20.7216C50.7642 15.2796 50.1461 7.76179 47.9532 2.70317L47.8541 2.47461ZM47.7413 3.1179C49.8051 8.05539 50.3675 15.2568 48.6428 20.4872C34.8722 27.0408 20.1851 28.3861 4.67941 26.8926C2.64377 24.3964 1.5921 20.9793 1.20536 17.353C0.827115 13.8065 1.08685 10.0755 1.67355 6.84857C3.43696 8.12516 6.5463 9.07366 10.4855 9.60907C14.5966 10.1678 19.6389 10.28 25.0613 9.82821L25.2225 9.81478V9.81054C30.4976 9.36192 35.3482 8.4441 39.2809 7.24944C43.1113 6.08586 46.093 4.65325 47.7413 3.1179Z" fill="black"/>
<path d="M110.444 172.535C113.74 172.267 122.734 171.678 128.085 172.135C130.622 172.35 131.586 170.533 128.983 169.149C126.959 168.14 118.575 162.204 113.692 157.756C110.784 160.569 108.871 165.479 110.441 172.535H110.444Z" fill="#F8D047"/>
<path fill-rule="evenodd" clip-rule="evenodd" d="M113.687 157.492L113.581 157.595C110.617 160.462 108.685 165.456 110.272 172.586L110.306 172.74H110.448L110.454 172.739C113.752 172.471 122.734 171.884 128.071 172.34C128.722 172.395 129.282 172.32 129.715 172.148C130.145 171.977 130.473 171.699 130.617 171.327C130.768 170.938 130.697 170.507 130.433 170.102C130.172 169.703 129.716 169.313 129.052 168.96L129.048 168.958C128.051 168.461 125.46 166.733 122.499 164.566C119.542 162.401 116.23 159.809 113.795 157.591L113.687 157.492ZM128.912 169.337C129.549 169.676 129.948 170.031 130.159 170.355C130.367 170.673 130.385 170.942 130.303 171.154C130.215 171.382 129.989 171.605 129.605 171.757C129.226 171.908 128.714 171.981 128.096 171.929C122.805 171.477 113.974 172.045 110.571 172.317C109.101 165.51 110.923 160.772 113.694 158.018C116.132 160.226 119.399 162.781 122.317 164.916C125.273 167.08 127.885 168.824 128.912 169.337Z" fill="black"/>
<path fill-rule="evenodd" clip-rule="evenodd" d="M78.1116 109.338C78.0188 109.31 77.9245 109.377 77.9009 109.487C76.7155 115.024 75.2771 118.911 73.0605 122.099C70.8429 125.288 67.8352 127.794 63.4863 130.545C63.4018 130.598 63.3698 130.723 63.4147 130.823C63.4597 130.924 63.5646 130.962 63.6491 130.908C68.0134 128.148 71.0675 125.612 73.3277 122.361C75.5891 119.109 77.0446 115.157 78.2368 109.589C78.2604 109.479 78.2043 109.366 78.1116 109.338Z" fill="black"/>
<path fill-rule="evenodd" clip-rule="evenodd" d="M91.846 132.975C91.7532 132.947 91.6589 133.014 91.6353 133.124C90.9819 136.175 90.1915 138.307 88.9775 140.053C87.7624 141.801 86.1116 143.178 83.7122 144.695C83.6277 144.749 83.5957 144.873 83.6406 144.974C83.6856 145.074 83.7905 145.112 83.875 145.059C86.2897 143.532 87.987 142.125 89.2447 140.316C90.5036 138.505 91.311 136.308 91.9712 133.226C91.9948 133.115 91.9387 133.003 91.846 132.975Z" fill="black"/>
<path opacity="0.2" d="M89.854 169.073C85.1405 168.719 82.2083 167.726 78.3647 166.734C74.5211 165.741 66.5184 161.432 63.614 159.571C60.7096 157.709 56.8764 154.945 55.0464 153.598C53.2164 152.251 52.0554 150.941 46.9744 147.489C41.8935 144.038 37.3428 141.455 30.4735 138.938C16.8215 136.566 2.76396 136.121 2.56987 115.406C2.52135 110.208 3.33929 105.055 4.97171 100.314C9.42534 88.7929 8.38558 59.5477 6.65265 41.4239C5.86937 33.2476 5.31483 27.4067 4.54888 26.8383C0.0675225 21.6524 0.552743 13.0725 1.50585 6.26367C17.7122 18.0647 7.97662 51.1613 12.1807 82.2024C14.6553 100.487 4.22309 106.962 11.3662 120.893C18.5094 134.823 33.111 136.018 38.0429 138.209C41.5504 139.89 44.025 141.393 48.645 144.161C51.1404 145.595 57.7879 150.344 63.0872 154.043C68.3865 157.742 73.5298 161.98 78.7945 163.694C84.43 165.527 86.3084 166.408 97.7804 168.023C100.941 168.468 103.842 170 108.389 170.577C116.6 171.615 126.838 171.602 128.997 171.973C131.659 172.43 122.052 171.763 120.607 171.763C119.161 171.763 109.117 172.513 107.523 172.55C105.929 172.591 101.707 171.425 101.042 171.236C97.3368 170.185 94.5676 169.423 89.854 169.069V169.073Z" fill="black"/>
<path opacity="0.2" d="M1.5836 6.08152C2.53671 9.00605 8.65741 10.4724 21.5781 10.2665C18.4207 9.37264 10.0576 7.482 9.1461 6.51814C7.32652 4.59043 9.36791 2.69979 7.90878 3.11169C4.17259 4.16617 1.62519 5.84262 1.58706 6.08564L1.5836 6.08152Z" fill="black"/>
<g clip-path="url(#clip0_4989_157992)">
<path d="M72.7266 92.033C65.6182 91.84 61.5416 95.3489 60.8063 101.399C60.6985 102.283 61.0931 103.185 61.4905 103.803C62.3705 105.18 63.2335 106.507 65.2974 106.657C67.7984 106.836 72.244 107.069 71.5456 104.126" fill="#F7931E"/>
<path d="M72.7266 92.033C65.6182 91.84 61.5416 95.3489 60.8063 101.399C60.6985 102.283 61.0931 103.185 61.4905 103.803C62.3705 105.18 63.2335 106.507 65.2974 106.657C67.7984 106.836 72.244 107.069 71.5456 104.126" stroke="black" stroke-width="0.338972" stroke-miterlimit="10" stroke-linecap="round"/>
<path opacity="0.2" d="M65.2876 106.662C67.7829 106.908 74.562 107.061 69.4266 103.279C69.4266 103.279 70.6331 104.992 69.1739 105.864C67.5331 106.848 65.2848 106.662 65.2848 106.662H65.2876Z" fill="black"/>
<path d="M68.6372 98.9698C68.6372 103.899 71.0587 106.706 73.9259 105.628C76.0948 104.817 77.5 101.897 77.5 98.9466C77.5 95.9965 76.0948 93.0764 73.9259 92.2615C71.0587 91.1839 68.6372 94.0409 68.6372 98.9698Z" fill="#FFF383" stroke="black" stroke-width="0.338972" stroke-miterlimit="10" stroke-linecap="round"/>
<path d="M75.9961 96.1444C75.4141 94.3783 74.3155 92.9282 72.8876 92.3928C72.5299 92.2597 72.1779 92.1866 71.8372 92.1699" stroke="black" stroke-width="0.338972" stroke-miterlimit="10" stroke-linecap="round"/>
<path d="M75.9648 102.465C75.346 103.935 74.3496 105.102 73.0976 105.571C72.7399 105.704 72.3879 105.777 72.0473 105.794" stroke="black" stroke-width="0.338972" stroke-miterlimit="10" stroke-linecap="round"/>
<path d="M67.993 98.9852C67.9902 91.3855 72.8162 92.0374 72.8162 92.0374C70.4741 92.0008 68.6658 94.7114 68.6658 98.9719C68.6658 103.232 70.5479 106.016 72.9609 105.853C72.9609 105.853 67.9958 106.535 67.993 98.9852Z" fill="#C4711E" stroke="black" stroke-width="0.338972" stroke-miterlimit="10" stroke-linecap="round"/>
</g>
<g clip-path="url(#clip1_4989_157992)">
<path d="M48.8125 107.273C41.7041 107.08 37.6275 110.589 36.8923 116.639C36.7844 117.524 37.179 118.425 37.5764 119.043C38.4565 120.42 39.3195 121.747 41.3833 121.897C43.8843 122.077 48.3299 122.309 47.6315 119.366" fill="#F7931E"/>
<path d="M48.8125 107.273C41.7041 107.08 37.6275 110.589 36.8923 116.639C36.7844 117.524 37.179 118.425 37.5764 119.043C38.4565 120.42 39.3195 121.747 41.3833 121.897C43.8843 122.077 48.3299 122.309 47.6315 119.366" stroke="black" stroke-width="0.338972" stroke-miterlimit="10" stroke-linecap="round"/>
<path opacity="0.2" d="M41.3735 121.902C43.8689 122.148 50.648 122.301 45.5125 118.52C45.5125 118.52 46.719 120.232 45.2599 121.104C43.619 122.088 41.3707 121.902 41.3707 121.902H41.3735Z" fill="black"/>
<path d="M44.7231 114.21C44.7231 119.139 47.1446 121.946 50.0119 120.868C52.1807 120.057 53.5859 117.137 53.5859 114.187C53.5859 111.237 52.1807 108.317 50.0119 107.502C47.1446 106.424 44.7231 109.281 44.7231 114.21Z" fill="#FFF383" stroke="black" stroke-width="0.338972" stroke-miterlimit="10" stroke-linecap="round"/>
<path d="M52.082 111.385C51.5001 109.619 50.4014 108.168 48.9735 107.633C48.6158 107.5 48.2638 107.427 47.9232 107.41" stroke="black" stroke-width="0.338972" stroke-miterlimit="10" stroke-linecap="round"/>
<path d="M52.0508 117.705C51.4319 119.175 50.4355 120.343 49.1836 120.811C48.8259 120.944 48.4739 121.018 48.1332 121.034" stroke="black" stroke-width="0.338972" stroke-miterlimit="10" stroke-linecap="round"/>
<path d="M44.0789 114.225C44.0761 106.626 48.9021 107.278 48.9021 107.278C46.5601 107.241 44.7517 109.952 44.7517 114.212C44.7517 118.473 46.6339 121.256 49.0469 121.093C49.0469 121.093 44.0818 121.775 44.0789 114.225Z" fill="#C4711E" stroke="black" stroke-width="0.338972" stroke-miterlimit="10" stroke-linecap="round"/>
</g>
<defs>
<clipPath id="clip0_4989_157992">
<rect width="16.996" height="15.2226" fill="white" transform="matrix(-1 0 0 1 77.6367 91.8555)"/>
</clipPath>
<clipPath id="clip1_4989_157992">
<rect width="16.996" height="15.2226" fill="white" transform="matrix(-1 0 0 1 53.7227 107.096)"/>
</clipPath>
</defs>
</svg>
