<svg width="132" height="173" viewBox="0 0 132 173" fill="none" xmlns="http://www.w3.org/2000/svg">
<path d="M83.1147 98.3785C79.0676 93.2267 78.4076 91.2362 68.1075 83.2636C49.7514 69.4131 47.9554 36.3173 49.0566 17.4333C50.87 12.9172 50.2517 6.58427 48.077 2.38086C42.5292 8.1649 7.8215 10.5931 1.72829 5.51431C0.474211 11.1073 0.561058 18.5623 4.77837 22.8664C5.38977 23.3215 5.51484 24.1379 5.64337 24.8952C7.48801 38.2697 10.8334 71.8866 5.20566 84.8303C3.48261 88.794 2.88857 93.1433 2.90941 97.5274C3.80915 114.991 17.01 115.203 30.6936 117.204C44.3912 121.424 48.3375 125.378 59.8535 132.252C82.208 145.592 88.864 140.59 102.569 144.668C110.006 146.881 114.672 144.161 128.529 145.151C131.072 145.332 132.038 143.8 129.429 142.632C126.264 141.215 106.8 130.029 94.4361 115.293C89.8714 109.853 87.6933 104.204 83.1182 98.3785H83.1147Z" fill="#E1E6AE"/>
<path fill-rule="evenodd" clip-rule="evenodd" d="M48.1216 2.08398L47.9535 2.2592C47.2853 2.95595 46.1629 3.61537 44.6787 4.22227C43.1981 4.82766 41.373 5.37467 39.3139 5.85422C35.1959 6.81327 30.1565 7.49931 25.0972 7.84646C20.0378 8.19361 14.9645 8.20145 10.7789 7.80638C8.68594 7.60883 6.81878 7.31087 5.28804 6.90575C3.75329 6.49957 2.57384 5.98998 1.84139 5.37947L1.62293 5.19737L1.5607 5.47489C0.930257 8.28655 0.635981 11.5691 1.03113 14.694C1.4262 17.8183 2.51241 20.7986 4.65619 22.9866L4.66568 22.9962L4.67655 23.0043C4.94489 23.2041 5.11284 23.487 5.2298 23.8231C5.34267 24.1475 5.40358 24.5071 5.46557 24.873L5.47321 24.9175C5.47333 24.9184 5.47346 24.9193 5.47359 24.9203C6.39532 31.604 7.69178 43.3438 8.05493 55.0283C8.23654 60.8713 8.18464 66.6976 7.7365 71.8692C7.28806 77.0441 6.44388 81.5497 5.04827 84.7596C3.31259 88.7524 2.71669 93.1275 2.73761 97.5268L2.73763 97.5309L2.73784 97.5349C2.96389 101.922 3.96335 105.241 5.5609 107.779C7.15922 110.318 9.34856 112.064 11.9336 113.319C14.5161 114.572 17.4951 115.335 20.6771 115.91C22.796 116.293 25.0133 116.594 27.267 116.9C28.3906 117.053 29.5232 117.206 30.6571 117.372C41.0041 120.562 45.7622 123.592 52.4715 127.866C54.6204 129.234 56.9694 130.73 59.7664 132.4C70.9609 139.08 78.2348 141.173 84.4309 142.104C86.4978 142.414 88.448 142.595 90.3778 142.775C91.3329 142.863 92.2829 142.952 93.2396 143.055C96.1343 143.367 99.1085 143.818 102.521 144.833L102.57 144.667L102.521 144.833C106.272 145.949 109.325 145.82 113.156 145.54C113.454 145.518 113.756 145.496 114.064 145.472C117.717 145.199 122.141 144.867 128.518 145.323L128.519 145.323C129.171 145.369 129.732 145.307 130.166 145.161C130.596 145.017 130.926 144.783 131.07 144.468C131.221 144.141 131.15 143.777 130.885 143.436C130.624 143.099 130.167 142.77 129.502 142.473C127.934 141.77 122.287 138.627 115.484 133.814C108.683 129.003 100.74 122.532 94.5711 115.18C92.2986 112.472 90.6192 109.71 88.932 106.89C88.8543 106.76 88.7765 106.63 88.6987 106.499C87.0886 103.806 85.4464 101.058 83.2567 98.2698L83.2045 98.2034H83.2011C82.5654 97.3927 82.0117 96.658 81.4886 95.9639C80.38 94.493 79.4087 93.2043 78.086 91.7601C76.118 89.6115 73.3692 87.1138 68.2157 83.1248L68.214 83.1235C59.0856 76.2357 54.06 64.5489 51.4574 52.1988C48.8584 39.8655 48.6822 26.9007 49.2303 17.4701C51.052 12.9029 50.4236 6.53351 48.2332 2.29962L48.1216 2.08398ZM48.0316 2.67024C50.0991 6.83384 50.6594 12.9788 48.8973 17.3671L48.8868 17.3934L48.8851 17.4217C48.334 26.8729 48.5074 39.8845 51.1175 52.2704C53.7266 64.6515 58.7768 76.4375 68.004 83.4003C73.15 87.3834 75.8811 89.8671 77.8298 91.9947C79.1414 93.4267 80.0973 94.6952 81.1996 96.1579C81.7386 96.873 82.3125 97.6346 82.98 98.4844L83.0322 98.5508H83.0355C85.1853 101.298 86.8042 104.007 88.4032 106.682C88.4801 106.811 88.557 106.94 88.6339 107.068C90.3208 109.888 92.0127 112.671 94.305 115.403C100.5 122.787 108.47 129.278 115.284 134.098C122.095 138.917 127.763 142.074 129.36 142.79L129.36 142.79C129.999 143.076 130.399 143.376 130.611 143.649C130.819 143.917 130.837 144.144 130.755 144.323C130.667 144.515 130.441 144.703 130.056 144.832C129.675 144.959 129.162 145.02 128.543 144.976C122.14 144.519 117.694 144.852 114.039 145.126C113.731 145.149 113.428 145.172 113.131 145.194C109.305 145.473 106.306 145.597 102.62 144.5C99.18 143.477 96.1831 143.023 93.2768 142.709C92.3096 142.605 91.3544 142.516 90.397 142.427C88.473 142.249 86.5401 142.069 84.4825 141.76C78.3358 140.837 71.1044 138.761 59.9444 132.102C57.1624 130.441 54.8207 128.95 52.6749 127.583C45.9516 123.3 41.1501 120.242 30.7467 117.036L30.7339 117.032L30.7207 117.03C29.5743 116.863 28.4332 116.708 27.3036 116.554C25.0546 116.249 22.8506 115.95 20.7389 115.568C17.569 114.995 14.6259 114.239 12.0853 113.006C9.54719 111.775 7.4124 110.068 5.8549 107.594C4.29713 105.119 3.30922 101.863 3.08498 97.5212C3.06459 93.1537 3.65693 88.8316 5.36684 84.8981C6.78509 81.6362 7.63313 77.0858 8.08258 71.8992C8.53233 66.7092 8.584 60.8684 8.40215 55.0175C8.03845 43.3155 6.74021 31.5613 5.81733 24.87L5.81697 24.8674L5.81652 24.8647L5.80656 24.8059C5.74599 24.4479 5.68067 24.0618 5.55789 23.709C5.42874 23.3379 5.2314 22.9887 4.89515 22.7341C2.82765 20.6187 1.76437 17.7235 1.37577 14.6505C0.999146 11.672 1.25821 8.53948 1.84084 5.81929C2.63286 6.39822 3.78605 6.8676 5.19916 7.24158C6.75445 7.6532 8.64184 7.9536 10.7463 8.15223C14.9554 8.54953 20.0483 8.54109 25.121 8.19303C30.1937 7.84496 35.2522 7.15685 39.3927 6.19256C41.4628 5.71045 43.307 5.15848 44.8102 4.54381C46.1951 3.97751 47.304 3.35271 48.0316 2.67024Z" fill="black"/>
<path d="M83.1147 98.3785C79.0676 93.2267 78.4076 91.2362 68.1075 83.2636C49.7514 69.4131 47.9554 36.3173 49.0566 17.4333C50.87 12.9172 50.2517 6.58427 48.077 2.38086C42.5292 8.1649 7.8215 10.5931 1.72829 5.51431C0.474211 11.1073 0.561058 18.5623 4.77837 22.8664C5.38977 23.3215 5.51484 24.1379 5.64337 24.8952C7.48801 38.2697 10.8334 71.8866 5.20566 84.8303C3.48261 88.794 2.88857 93.1433 2.90941 97.5274C3.80915 114.991 17.01 115.203 30.6936 117.204C44.3912 121.424 48.3375 125.378 59.8535 132.252C82.208 145.592 88.864 140.59 102.569 144.668C110.006 146.881 114.672 144.161 128.529 145.151C131.072 145.332 132.038 143.8 129.429 142.632C126.264 141.215 106.8 130.029 94.4361 115.293C89.8714 109.853 87.6933 104.204 83.1182 98.3785H83.1147Z" fill="#E1E6AE"/>
<path fill-rule="evenodd" clip-rule="evenodd" d="M48.1216 2.08398L47.9535 2.2592C47.2853 2.95595 46.1629 3.61537 44.6787 4.22227C43.1981 4.82766 41.373 5.37467 39.3139 5.85422C35.1959 6.81327 30.1565 7.49931 25.0972 7.84646C20.0378 8.19361 14.9645 8.20145 10.7789 7.80638C8.68594 7.60883 6.81878 7.31087 5.28804 6.90575C3.75329 6.49957 2.57384 5.98998 1.84139 5.37947L1.62293 5.19737L1.5607 5.47489C0.930257 8.28655 0.635981 11.5691 1.03113 14.694C1.4262 17.8183 2.51241 20.7986 4.65619 22.9866L4.66568 22.9962L4.67655 23.0043C4.94489 23.2041 5.11284 23.487 5.2298 23.8231C5.34267 24.1475 5.40358 24.5071 5.46557 24.873L5.47321 24.9175C5.47333 24.9184 5.47346 24.9193 5.47359 24.9203C6.39532 31.604 7.69178 43.3438 8.05493 55.0283C8.23654 60.8713 8.18464 66.6976 7.7365 71.8692C7.28806 77.0441 6.44388 81.5497 5.04827 84.7596C3.31259 88.7524 2.71669 93.1275 2.73761 97.5268L2.73763 97.5309L2.73784 97.5349C2.96389 101.922 3.96335 105.241 5.5609 107.779C7.15922 110.318 9.34856 112.064 11.9336 113.319C14.5161 114.572 17.4951 115.335 20.6771 115.91C22.796 116.293 25.0133 116.594 27.267 116.9C28.3906 117.053 29.5232 117.206 30.6571 117.372C41.0041 120.562 45.7622 123.592 52.4715 127.866C54.6204 129.234 56.9694 130.73 59.7664 132.4C70.9609 139.08 78.2348 141.173 84.4309 142.104C86.4978 142.414 88.448 142.595 90.3778 142.775C91.3329 142.863 92.2829 142.952 93.2396 143.055C96.1343 143.367 99.1085 143.818 102.521 144.833L102.57 144.667L102.521 144.833C106.272 145.949 109.325 145.82 113.156 145.54C113.454 145.518 113.756 145.496 114.064 145.472C117.717 145.199 122.141 144.867 128.518 145.323L128.519 145.323C129.171 145.369 129.732 145.307 130.166 145.161C130.596 145.017 130.926 144.783 131.07 144.468C131.221 144.141 131.15 143.777 130.885 143.436C130.624 143.099 130.167 142.77 129.502 142.473C127.934 141.77 122.287 138.627 115.484 133.814C108.683 129.003 100.74 122.532 94.5711 115.18C92.2986 112.472 90.6192 109.71 88.932 106.89C88.8543 106.76 88.7765 106.63 88.6987 106.499C87.0886 103.806 85.4464 101.058 83.2567 98.2698L83.2045 98.2034H83.2011C82.5654 97.3927 82.0117 96.658 81.4886 95.9639C80.38 94.493 79.4087 93.2043 78.086 91.7601C76.118 89.6115 73.3692 87.1138 68.2157 83.1248L68.214 83.1235C59.0856 76.2357 54.06 64.5489 51.4574 52.1988C48.8584 39.8655 48.6822 26.9007 49.2303 17.4701C51.052 12.9029 50.4236 6.53351 48.2332 2.29962L48.1216 2.08398ZM48.0316 2.67024C50.0991 6.83384 50.6594 12.9788 48.8973 17.3671L48.8868 17.3934L48.8851 17.4217C48.334 26.8729 48.5074 39.8845 51.1175 52.2704C53.7266 64.6515 58.7768 76.4375 68.004 83.4003C73.15 87.3834 75.8811 89.8671 77.8298 91.9947C79.1414 93.4267 80.0973 94.6952 81.1996 96.1579C81.7386 96.873 82.3125 97.6346 82.98 98.4844L83.0322 98.5508H83.0355C85.1853 101.298 86.8042 104.007 88.4032 106.682C88.4801 106.811 88.557 106.94 88.6339 107.068C90.3208 109.888 92.0127 112.671 94.305 115.403C100.5 122.787 108.47 129.278 115.284 134.098C122.095 138.917 127.763 142.074 129.36 142.79L129.36 142.79C129.999 143.076 130.399 143.376 130.611 143.649C130.819 143.917 130.837 144.144 130.755 144.323C130.667 144.515 130.441 144.703 130.056 144.832C129.675 144.959 129.162 145.02 128.543 144.976C122.14 144.519 117.694 144.852 114.039 145.126C113.731 145.149 113.428 145.172 113.131 145.194C109.305 145.473 106.306 145.597 102.62 144.5C99.18 143.477 96.1831 143.023 93.2768 142.709C92.3096 142.605 91.3544 142.516 90.397 142.427C88.473 142.249 86.5401 142.069 84.4825 141.76C78.3358 140.837 71.1044 138.761 59.9444 132.102C57.1624 130.441 54.8207 128.95 52.6749 127.583C45.9516 123.3 41.1501 120.242 30.7467 117.036L30.7339 117.032L30.7207 117.03C29.5743 116.863 28.4332 116.708 27.3036 116.554C25.0546 116.249 22.8506 115.95 20.7389 115.568C17.569 114.995 14.6259 114.239 12.0853 113.006C9.54719 111.775 7.4124 110.068 5.8549 107.594C4.29713 105.119 3.30922 101.863 3.08498 97.5212C3.06459 93.1537 3.65693 88.8316 5.36684 84.8981C6.78509 81.6362 7.63313 77.0858 8.08258 71.8992C8.53233 66.7092 8.584 60.8684 8.40215 55.0175C8.03845 43.3155 6.74021 31.5613 5.81733 24.87L5.81697 24.8674L5.81652 24.8647L5.80656 24.8059C5.74599 24.4479 5.68067 24.0618 5.55789 23.709C5.42874 23.3379 5.2314 22.9887 4.89515 22.7341C2.82765 20.6187 1.76437 17.7235 1.37577 14.6505C0.999146 11.672 1.25821 8.53948 1.84084 5.81929C2.63286 6.39822 3.78605 6.8676 5.19916 7.24158C6.75445 7.6532 8.64184 7.9536 10.7463 8.15223C14.9554 8.54953 20.0483 8.54109 25.121 8.19303C30.1937 7.84496 35.2522 7.15685 39.3927 6.19256C41.4628 5.71045 43.307 5.15848 44.8102 4.54381C46.1951 3.97751 47.304 3.35271 48.0316 2.67024Z" fill="black"/>
<path d="M1.74554 5.36287C4.19463 11.3831 46.1211 7.8606 47.9414 2.28499C47.8615 1.58327 41.2924 -0.313479 25.5556 0.290979C9.81886 0.891963 1.74554 4.44576 1.74554 5.36287Z" fill="#F8D047"/>
<path fill-rule="evenodd" clip-rule="evenodd" d="M47.7576 2.29119C47.6472 2.57661 47.4112 2.87085 47.043 3.16949C46.6502 3.48802 46.119 3.80181 45.4637 4.10743C44.1532 4.71861 42.3692 5.28685 40.2618 5.79574C36.0488 6.81313 30.5706 7.58697 25.0691 7.99904C19.5674 8.41112 14.0509 8.46075 9.76094 8.03284C7.61502 7.8188 5.78403 7.48601 4.41757 7.02313C3.7344 6.79171 3.17357 6.52982 2.74908 6.23834C2.34385 5.96008 2.07141 5.66082 1.92902 5.34348C1.93592 5.32856 1.94966 5.30484 1.97701 5.27159C2.02753 5.21017 2.10967 5.13431 2.22932 5.04576C2.46791 4.86919 2.83338 4.65839 3.32962 4.42504C4.32051 3.9591 5.81123 3.41327 7.79748 2.87591C11.7688 1.80152 17.7082 0.764468 25.5651 0.464414L25.5651 0.464412C33.4262 0.162462 38.9924 0.48548 42.5995 0.970182C44.4037 1.21262 45.7141 1.49501 46.5749 1.75835C47.0062 1.89029 47.3186 2.01563 47.5223 2.12572C47.6245 2.18098 47.6929 2.22899 47.7344 2.2675C47.7445 2.27686 47.752 2.28476 47.7576 2.29119ZM42.6458 0.625887C39.0142 0.137898 33.4274 -0.185228 25.5518 0.117277C17.672 0.418208 11.7063 1.45855 7.70676 2.54058C5.70758 3.08143 4.19642 3.63357 3.18179 4.11067C2.67528 4.34885 2.28707 4.57085 2.02267 4.76652C1.89084 4.86409 1.78416 4.9592 1.70873 5.0509C1.63675 5.1384 1.57467 5.24513 1.57467 5.36273V5.39671L1.58747 5.42818C1.75752 5.8462 2.09318 6.20936 2.55244 6.52472C3.01206 6.84032 3.60491 7.11462 4.30611 7.35215C5.70838 7.82716 7.56892 8.16332 9.72646 8.37852C14.0434 8.80911 19.5815 8.75842 25.0951 8.34546C30.6089 7.93247 36.1067 7.15652 40.3434 6.13343C42.4609 5.62208 44.2701 5.04741 45.6105 4.42226C46.2806 4.10972 46.8392 3.78199 47.2618 3.43931C47.6829 3.09779 47.9811 2.73153 48.1094 2.33877L48.1211 2.3028L48.1168 2.26521C48.1048 2.15978 48.038 2.07535 47.9707 2.01287C47.8995 1.9468 47.8032 1.88269 47.6875 1.82012C47.4551 1.69452 47.1182 1.56128 46.6765 1.42616C45.7914 1.15539 44.461 0.869798 42.6458 0.625887Z" fill="black"/>
<path d="M4.94874 84.7012C-2.41245 105.652 7.47078 115.838 28.7727 116.585C35.6441 92.8753 26.8968 83.0685 4.94874 84.7012Z" fill="#F8D047"/>
<path fill-rule="evenodd" clip-rule="evenodd" d="M28.6417 116.406C18.0779 116.015 10.3938 113.288 6.24584 108.111C2.10077 102.937 1.44385 95.261 5.07327 84.8659C15.9713 84.0732 23.5277 86.1244 27.5294 91.2464C31.532 96.3696 32.0325 104.633 28.6417 116.406ZM27.8031 91.0325C23.6759 85.7498 15.9232 83.7104 4.93408 84.5278L4.82076 84.5363L4.78309 84.6435C1.09339 95.145 1.70726 103.002 5.97474 108.328C10.2358 113.646 18.0964 116.384 28.7648 116.758L28.9001 116.763L28.9378 116.633C32.3771 104.766 31.9286 96.3131 27.8031 91.0325Z" fill="black"/>
<path d="M25.2666 8.11215C35.9488 7.36526 44.908 4.99954 48.0693 2.35938C50.2474 6.58711 50.8588 12.8749 49.0489 17.4118C35.1742 22.9839 20.3788 24.1199 4.77062 22.8484C0.560254 18.5581 0.462986 11.0789 1.72054 5.4963C5.09369 7.73697 14.4142 8.8764 25.2666 8.11562V8.11215Z" fill="#F8D047"/>
<path fill-rule="evenodd" clip-rule="evenodd" d="M48.1225 2.08789L47.9561 2.22689C46.4071 3.52052 43.4097 4.7645 39.4435 5.77829C35.4849 6.7901 30.5851 7.56687 25.2527 7.93971L25.0911 7.951V7.95437C19.7351 8.32104 14.762 8.22354 10.7067 7.75977C6.60169 7.29029 3.46447 6.44826 1.81482 5.35245L1.60469 5.21288L1.54926 5.45896C0.917013 8.26564 0.624508 11.5518 1.02097 14.6796C1.41732 17.8067 2.50437 20.7898 4.64482 22.9709L4.69016 23.0171L4.75469 23.0224C20.3796 24.2952 35.2041 23.1592 49.1118 17.5738L49.1808 17.5461L49.2084 17.477C51.0393 12.8873 50.4198 6.54696 48.2218 2.28066L48.1225 2.08789ZM48.0095 2.63042C50.0781 6.79457 50.6418 12.8681 48.913 17.2792C35.1105 22.8064 20.3893 23.9409 4.84771 22.6814C2.80734 20.5761 1.75324 17.6943 1.3656 14.636C0.98648 11.6449 1.24682 8.49832 1.83487 5.77677C3.60238 6.85342 6.71892 7.65336 10.6673 8.10491C14.7879 8.57616 19.8419 8.67073 25.2769 8.28972L25.4385 8.2784V8.27482C30.7257 7.89647 35.5877 7.1224 39.5295 6.11485C43.3687 5.13352 46.3574 3.9253 48.0095 2.63042Z" fill="black"/>
<path d="M110.859 145.513C114.162 145.287 123.177 144.791 128.541 145.176C131.084 145.357 132.049 143.825 129.44 142.658C127.412 141.807 119.008 136.801 114.114 133.049C111.199 135.421 109.281 139.562 110.855 145.513H110.859Z" fill="#F8D047"/>
<path fill-rule="evenodd" clip-rule="evenodd" d="M114.108 132.826L114.002 132.913C111.032 135.331 109.095 139.543 110.685 145.556L110.719 145.686H110.862L110.868 145.685C114.173 145.459 123.176 144.964 128.526 145.348C129.179 145.394 129.74 145.332 130.174 145.186C130.604 145.042 130.933 144.808 131.078 144.494C131.229 144.166 131.158 143.803 130.893 143.461C130.632 143.125 130.175 142.795 129.509 142.498L129.506 142.496C128.506 142.077 125.909 140.62 122.941 138.792C119.977 136.966 116.658 134.78 114.217 132.91L114.108 132.826ZM129.369 142.816C130.007 143.101 130.407 143.401 130.619 143.674C130.827 143.943 130.845 144.169 130.763 144.348C130.674 144.54 130.448 144.728 130.064 144.857C129.683 144.984 129.17 145.046 128.551 145.002C123.248 144.62 114.396 145.099 110.985 145.329C109.512 139.588 111.338 135.592 114.116 133.269C116.559 135.131 119.834 137.286 122.759 139.088C125.721 140.912 128.339 142.383 129.369 142.816Z" fill="black"/>
<path fill-rule="evenodd" clip-rule="evenodd" d="M78.4472 92.2124C78.3543 92.1888 78.2597 92.245 78.2361 92.3379C77.0479 97.0073 75.6061 100.286 73.3845 102.974C71.1616 105.664 68.147 107.777 63.788 110.097C63.7033 110.142 63.6712 110.247 63.7163 110.332C63.7613 110.417 63.8665 110.449 63.9512 110.404C68.3256 108.076 71.3868 105.937 73.6522 103.195C75.9189 100.452 77.3778 97.1199 78.5727 92.4236C78.5964 92.3306 78.5402 92.2361 78.4472 92.2124Z" fill="black"/>
<path fill-rule="evenodd" clip-rule="evenodd" d="M92.2129 112.146C92.1199 112.122 92.0253 112.179 92.0017 112.272C91.3468 114.844 90.5546 116.643 89.3378 118.115C88.1198 119.589 86.4652 120.751 84.0603 122.03C83.9756 122.075 83.9434 122.181 83.9885 122.265C84.0336 122.35 84.1387 122.382 84.2234 122.337C86.6437 121.049 88.3449 119.862 89.6056 118.337C90.8674 116.81 91.6766 114.957 92.3383 112.357C92.362 112.264 92.3058 112.17 92.2129 112.146Z" fill="black"/>
<path opacity="0.2" d="M90.2153 142.59C85.4908 142.292 82.5519 141.454 78.6993 140.617C74.8468 139.78 66.8256 136.146 63.9144 134.576C61.0033 133.006 57.1612 130.675 55.327 129.539C53.4927 128.403 52.329 127.298 47.2363 124.387C42.1435 121.476 37.5823 119.298 30.697 117.175C17.0134 115.174 2.92324 114.799 2.7287 97.3291C2.68007 92.945 3.49991 88.5992 5.13611 84.6007C9.60007 74.8842 8.5579 50.2196 6.82095 34.9344C6.03585 28.0387 5.48003 23.1128 4.71229 22.6334C0.220548 18.2597 0.706894 11.0236 1.66222 5.28125C17.9061 15.234 8.14798 43.1467 12.3618 69.326C14.8422 84.7466 4.38575 90.2076 11.5455 101.956C18.7052 113.705 33.3407 114.712 38.284 116.561C41.7996 117.978 44.28 119.246 48.9107 121.58C51.4119 122.789 58.0748 126.795 63.3864 129.914C68.698 133.034 73.8532 136.608 79.1301 138.054C84.7786 139.599 86.6615 140.343 98.1601 141.705C101.328 142.08 104.236 143.372 108.794 143.858C117.023 144.734 127.285 144.723 129.449 145.036C132.117 145.422 122.488 144.859 121.039 144.859C119.591 144.859 109.523 145.491 107.925 145.522C106.327 145.557 102.096 144.574 101.429 144.414C97.7154 143.528 94.9398 142.886 90.2153 142.587V142.59Z" fill="black"/>
<path opacity="0.2" d="M1.74035 5.12893C2.69567 7.59539 8.83057 8.8321 21.7812 8.6584C18.6165 7.90457 10.234 6.31005 9.32039 5.49716C7.4966 3.87138 9.54272 2.27686 8.08021 2.62425C4.33535 3.51356 1.78204 4.92744 1.74383 5.1324L1.74035 5.12893Z" fill="black"/>
<g clip-path="url(#clip0_4855_113782)">
<path d="M73.0508 77.6197C65.9259 77.457 61.8399 80.4162 61.1029 85.5184C60.9948 86.2645 61.3903 87.0247 61.7887 87.5464C62.6707 88.7077 63.5357 89.8269 65.6044 89.9531C68.1112 90.1045 72.5671 90.3009 71.8671 87.8185" fill="#F7931E"/>
<path d="M73.0508 77.6197C65.9259 77.457 61.8399 80.4162 61.1029 85.5184C60.9948 86.2645 61.3903 87.0247 61.7887 87.5464C62.6707 88.7077 63.5357 89.8269 65.6044 89.9531C68.1112 90.1045 72.5671 90.3009 71.8671 87.8185" stroke="black" stroke-width="0.338972" stroke-miterlimit="10" stroke-linecap="round"/>
<path opacity="0.2" d="M65.5979 89.9562C68.099 90.1637 74.8938 90.2928 69.7465 87.1035C69.7465 87.1035 70.9558 88.5481 69.4932 89.283C67.8486 90.1132 65.595 89.9562 65.595 89.9562H65.5979Z" fill="black"/>
<path d="M68.9526 83.4696C68.9526 87.6266 71.3797 89.994 74.2536 89.0852C76.4275 88.4007 77.8359 85.938 77.8359 83.45C77.8359 80.962 76.4275 78.4992 74.2536 77.812C71.3797 76.9032 68.9526 79.3127 68.9526 83.4696Z" fill="#FFF383" stroke="black" stroke-width="0.338972" stroke-miterlimit="10" stroke-linecap="round"/>
<path d="M76.3281 81.0863C75.7448 79.5969 74.6436 78.3739 73.2124 77.9223C72.8539 77.8101 72.5011 77.7484 72.1596 77.7344" stroke="black" stroke-width="0.338972" stroke-miterlimit="10" stroke-linecap="round"/>
<path d="M76.2969 86.416C75.6766 87.6558 74.6778 88.6404 73.423 89.0358C73.0645 89.148 72.7117 89.2098 72.3702 89.2238" stroke="black" stroke-width="0.338972" stroke-miterlimit="10" stroke-linecap="round"/>
<path d="M68.3057 83.4807C68.3029 77.0714 73.14 77.6212 73.14 77.6212C70.7926 77.5903 68.9801 79.8764 68.9801 83.4695C68.9801 87.0627 70.8666 89.4104 73.2852 89.273C73.2852 89.273 68.3085 89.848 68.3057 83.4807Z" fill="#C4711E" stroke="black" stroke-width="0.338972" stroke-miterlimit="10" stroke-linecap="round"/>
</g>
<g clip-path="url(#clip1_4855_113782)">
<path d="M49.082 90.4712C41.9571 90.3085 37.8711 93.2678 37.1342 98.37C37.026 99.1161 37.4216 99.8763 37.8199 100.398C38.702 101.559 39.567 102.678 41.6356 102.805C44.1424 102.956 48.5983 103.152 47.8983 100.67" fill="#F7931E"/>
<path d="M49.082 90.4712C41.9571 90.3085 37.8711 93.2678 37.1342 98.37C37.026 99.1161 37.4216 99.8763 37.8199 100.398C38.702 101.559 39.567 102.678 41.6356 102.805C44.1424 102.956 48.5983 103.152 47.8983 100.67" stroke="black" stroke-width="0.338972" stroke-miterlimit="10" stroke-linecap="round"/>
<path opacity="0.2" d="M41.6291 102.808C44.1302 103.015 50.9251 103.144 45.7777 99.9551C45.7777 99.9551 46.987 101.4 45.5245 102.135C43.8798 102.965 41.6263 102.808 41.6263 102.808H41.6291Z" fill="black"/>
<path d="M44.9838 96.3212C44.9838 100.478 47.411 102.846 50.2848 101.937C52.4587 101.252 53.8672 98.7896 53.8672 96.3016C53.8672 93.8135 52.4587 91.3508 50.2848 90.6636C47.411 89.7548 44.9838 92.1642 44.9838 96.3212Z" fill="#FFF383" stroke="black" stroke-width="0.338972" stroke-miterlimit="10" stroke-linecap="round"/>
<path d="M52.3594 93.9379C51.7761 92.4484 50.6749 91.2255 49.2437 90.7739C48.8851 90.6617 48.5323 90.6 48.1909 90.5859" stroke="black" stroke-width="0.338972" stroke-miterlimit="10" stroke-linecap="round"/>
<path d="M52.3281 99.2676C51.7078 100.507 50.7091 101.492 49.4543 101.887C49.0957 102 48.7429 102.061 48.4015 102.075" stroke="black" stroke-width="0.338972" stroke-miterlimit="10" stroke-linecap="round"/>
<path d="M44.3369 96.3323C44.3341 89.923 49.1713 90.4727 49.1713 90.4727C46.8238 90.4419 45.0113 92.7279 45.0113 96.3211C45.0113 99.9142 46.8978 102.262 49.3164 102.125C49.3164 102.125 44.3398 102.7 44.3369 96.3323Z" fill="#C4711E" stroke="black" stroke-width="0.338972" stroke-miterlimit="10" stroke-linecap="round"/>
</g>
<defs>
<clipPath id="clip0_4855_113782">
<rect width="17.0354" height="12.8383" fill="white" transform="matrix(-1 0 0 1 77.9727 77.4688)"/>
</clipPath>
<clipPath id="clip1_4855_113782">
<rect width="17.0355" height="12.8383" fill="white" transform="matrix(-1 0 0 1 54.0039 90.3203)"/>
</clipPath>
</defs>
</svg>
