<svg width="132" height="173" viewBox="0 0 132 173" fill="none" xmlns="http://www.w3.org/2000/svg">
<path d="M83.1147 98.3765C79.0676 93.2248 78.4076 91.2342 68.1075 83.2616C49.7514 69.4112 47.9554 36.3154 49.0566 17.4313C50.87 12.9152 50.2517 6.58232 48.077 2.37891C42.5292 8.16294 7.8215 10.5912 1.72829 5.51236C0.474211 11.1053 0.561058 18.5603 4.77837 22.8645C5.38977 23.3196 5.51484 24.1359 5.64337 24.8932C7.48801 38.2677 10.8334 71.8846 5.20566 84.8283C3.48261 88.7921 2.88857 93.1414 2.90941 97.5254C3.80915 114.989 17.01 115.201 30.6936 117.202C44.3912 121.422 48.3375 125.376 59.8535 132.251C82.208 145.59 88.864 140.588 102.569 144.666C110.006 146.879 114.672 144.159 128.529 145.149C131.072 145.33 132.038 143.798 129.429 142.63C126.264 141.213 106.8 130.027 94.4361 115.291C89.8714 109.851 87.6933 104.202 83.1182 98.3765H83.1147Z" fill="#ABDEB7"/>
<path fill-rule="evenodd" clip-rule="evenodd" d="M48.1216 2.08594L47.9535 2.26116C47.2853 2.95791 46.1629 3.61732 44.6787 4.22422C43.1981 4.82962 41.373 5.37662 39.3139 5.85618C35.1959 6.81523 30.1565 7.50126 25.0972 7.84841C20.0378 8.19556 14.9645 8.20341 10.7789 7.80833C8.68594 7.61078 6.81878 7.31283 5.28804 6.90771C3.75329 6.50153 2.57384 5.99193 1.84139 5.38142L1.62293 5.19932L1.5607 5.47684C0.930257 8.2885 0.635981 11.5711 1.03113 14.696C1.4262 17.8202 2.51241 20.8006 4.65619 22.9885L4.66568 22.9982L4.67655 23.0063C4.94489 23.206 5.11284 23.489 5.2298 23.8251C5.34267 24.1494 5.40358 24.509 5.46557 24.8749L5.47321 24.9194C5.47333 24.9204 5.47346 24.9213 5.47359 24.9222C6.39532 31.6059 7.69178 43.3457 8.05493 55.0302C8.23654 60.8733 8.18464 66.6995 7.7365 71.8711C7.28806 77.046 6.44388 81.5517 5.04827 84.7616C3.31259 88.7543 2.71669 93.1295 2.73761 97.5288L2.73763 97.5328L2.73784 97.5369C2.96389 101.924 3.96335 105.243 5.5609 107.781C7.15922 110.32 9.34856 112.066 11.9336 113.321C14.5161 114.574 17.4951 115.337 20.6771 115.912C22.796 116.295 25.0133 116.596 27.267 116.902C28.3906 117.055 29.5232 117.208 30.6571 117.374C41.0041 120.564 45.7622 123.594 52.4715 127.868C54.6204 129.236 56.9694 130.732 59.7664 132.402C70.9609 139.082 78.2348 141.175 84.4309 142.106C86.4978 142.416 88.448 142.597 90.3778 142.777C91.3329 142.865 92.2829 142.954 93.2396 143.057C96.1343 143.369 99.1085 143.82 102.521 144.835L102.57 144.669L102.521 144.835C106.272 145.951 109.325 145.822 113.156 145.542C113.454 145.52 113.756 145.498 114.064 145.474C117.717 145.201 122.141 144.869 128.518 145.325L128.519 145.325C129.171 145.371 129.732 145.309 130.166 145.163C130.596 145.019 130.926 144.785 131.07 144.47C131.221 144.143 131.15 143.779 130.885 143.438C130.624 143.101 130.167 142.772 129.502 142.474C127.934 141.772 122.287 138.629 115.484 133.816C108.683 129.005 100.74 122.534 94.5711 115.182C92.2986 112.474 90.6192 109.712 88.932 106.892C88.8543 106.762 88.7765 106.632 88.6987 106.501C87.0886 103.808 85.4464 101.06 83.2567 98.2718L83.2045 98.2053H83.2011C82.5654 97.3946 82.0117 96.66 81.4886 95.9658C80.38 94.495 79.4087 93.2062 78.086 91.7621C76.118 89.6134 73.3692 87.1157 68.2157 83.1268L68.214 83.1255C59.0856 76.2377 54.06 64.5509 51.4574 52.2008C48.8584 39.8675 48.6822 26.9026 49.2303 17.4721C51.052 12.9048 50.4236 6.53547 48.2332 2.30158L48.1216 2.08594ZM48.0316 2.67219C50.0991 6.83579 50.6594 12.9808 48.8973 17.3691L48.8868 17.3954L48.8851 17.4237C48.334 26.8749 48.5074 39.8864 51.1175 52.2724C53.7266 64.6535 58.7768 76.4395 68.004 83.4022C73.15 87.3854 75.8811 89.8691 77.8298 91.9967C79.1414 93.4287 80.0973 94.6972 81.1996 96.1599C81.7386 96.875 82.3125 97.6365 82.98 98.4863L83.0322 98.5527H83.0355C85.1853 101.3 86.8042 104.009 88.4032 106.684C88.4801 106.813 88.557 106.941 88.6339 107.07C90.3208 109.89 92.0127 112.673 94.305 115.405C100.5 122.789 108.47 129.28 115.284 134.1C122.095 138.918 127.763 142.076 129.36 142.792L129.36 142.792C129.999 143.078 130.399 143.377 130.611 143.651C130.819 143.919 130.837 144.146 130.755 144.325C130.667 144.517 130.441 144.705 130.056 144.834C129.675 144.961 129.162 145.022 128.543 144.978C122.14 144.521 117.694 144.854 114.039 145.128C113.731 145.151 113.428 145.174 113.131 145.195C109.305 145.475 106.306 145.599 102.62 144.502C99.18 143.479 96.1831 143.025 93.2768 142.711C92.3096 142.607 91.3544 142.518 90.397 142.429C88.473 142.251 86.5401 142.071 84.4825 141.762C78.3358 140.839 71.1044 138.763 59.9444 132.104C57.1624 130.443 54.8207 128.951 52.6749 127.585C45.9516 123.302 41.1501 120.244 30.7467 117.038L30.7339 117.034L30.7207 117.032C29.5743 116.865 28.4332 116.71 27.3036 116.556C25.0546 116.251 22.8506 115.952 20.7389 115.57C17.569 114.997 14.6259 114.241 12.0853 113.008C9.54719 111.776 7.4124 110.07 5.8549 107.596C4.29713 105.121 3.30922 101.865 3.08498 97.5231C3.06459 93.1556 3.65693 88.8336 5.36684 84.9001C6.78509 81.6381 7.63313 77.0878 8.08258 71.9011C8.53233 66.7112 8.584 60.8703 8.40215 55.0194C8.03845 43.3175 6.74021 31.5632 5.81733 24.872L5.81697 24.8693L5.81652 24.8666L5.80656 24.8079C5.74599 24.4498 5.68067 24.0637 5.55789 23.7109C5.42874 23.3398 5.2314 22.9907 4.89515 22.736C2.82765 20.6206 1.76437 17.7254 1.37577 14.6524C0.999146 11.674 1.25821 8.54144 1.84084 5.82124C2.63286 6.40017 3.78605 6.86955 5.19916 7.24354C6.75445 7.65515 8.64184 7.95555 10.7463 8.15418C14.9554 8.55148 20.0483 8.54305 25.121 8.19498C30.1937 7.84692 35.2522 7.15881 39.3927 6.19451C41.4628 5.7124 43.307 5.16043 44.8102 4.54577C46.1951 3.97946 47.304 3.35466 48.0316 2.67219Z" fill="black"/>
<path d="M83.1147 98.3765C79.0676 93.2248 78.4076 91.2342 68.1075 83.2616C49.7514 69.4112 47.9554 36.3154 49.0566 17.4313C50.87 12.9152 50.2517 6.58232 48.077 2.37891C42.5292 8.16294 7.8215 10.5912 1.72829 5.51236C0.474211 11.1053 0.561058 18.5603 4.77837 22.8645C5.38977 23.3196 5.51484 24.1359 5.64337 24.8932C7.48801 38.2677 10.8334 71.8846 5.20566 84.8283C3.48261 88.7921 2.88857 93.1414 2.90941 97.5254C3.80915 114.989 17.01 115.201 30.6936 117.202C44.3912 121.422 48.3375 125.376 59.8535 132.251C82.208 145.59 88.864 140.588 102.569 144.666C110.006 146.879 114.672 144.159 128.529 145.149C131.072 145.33 132.038 143.798 129.429 142.63C126.264 141.213 106.8 130.027 94.4361 115.291C89.8714 109.851 87.6933 104.202 83.1182 98.3765H83.1147Z" fill="#ABDEB7"/>
<path fill-rule="evenodd" clip-rule="evenodd" d="M48.1216 2.08594L47.9535 2.26116C47.2853 2.95791 46.1629 3.61732 44.6787 4.22422C43.1981 4.82962 41.373 5.37662 39.3139 5.85618C35.1959 6.81523 30.1565 7.50126 25.0972 7.84841C20.0378 8.19556 14.9645 8.20341 10.7789 7.80833C8.68594 7.61078 6.81878 7.31283 5.28804 6.90771C3.75329 6.50153 2.57384 5.99193 1.84139 5.38142L1.62293 5.19932L1.5607 5.47684C0.930257 8.2885 0.635981 11.5711 1.03113 14.696C1.4262 17.8202 2.51241 20.8006 4.65619 22.9885L4.66568 22.9982L4.67655 23.0063C4.94489 23.206 5.11284 23.489 5.2298 23.8251C5.34267 24.1494 5.40358 24.509 5.46557 24.8749L5.47321 24.9194C5.47333 24.9204 5.47346 24.9213 5.47359 24.9222C6.39532 31.6059 7.69178 43.3457 8.05493 55.0302C8.23654 60.8733 8.18464 66.6995 7.7365 71.8711C7.28806 77.046 6.44388 81.5517 5.04827 84.7616C3.31259 88.7543 2.71669 93.1295 2.73761 97.5288L2.73763 97.5328L2.73784 97.5369C2.96389 101.924 3.96335 105.243 5.5609 107.781C7.15922 110.32 9.34856 112.066 11.9336 113.321C14.5161 114.574 17.4951 115.337 20.6771 115.912C22.796 116.295 25.0133 116.596 27.267 116.902C28.3906 117.055 29.5232 117.208 30.6571 117.374C41.0041 120.564 45.7622 123.594 52.4715 127.868C54.6204 129.236 56.9694 130.732 59.7664 132.402C70.9609 139.082 78.2348 141.175 84.4309 142.106C86.4978 142.416 88.448 142.597 90.3778 142.777C91.3329 142.865 92.2829 142.954 93.2396 143.057C96.1343 143.369 99.1085 143.82 102.521 144.835L102.57 144.669L102.521 144.835C106.272 145.951 109.325 145.822 113.156 145.542C113.454 145.52 113.756 145.498 114.064 145.474C117.717 145.201 122.141 144.869 128.518 145.325L128.519 145.325C129.171 145.371 129.732 145.309 130.166 145.163C130.596 145.019 130.926 144.785 131.07 144.47C131.221 144.143 131.15 143.779 130.885 143.438C130.624 143.101 130.167 142.772 129.502 142.474C127.934 141.772 122.287 138.629 115.484 133.816C108.683 129.005 100.74 122.534 94.5711 115.182C92.2986 112.474 90.6192 109.712 88.932 106.892C88.8543 106.762 88.7765 106.632 88.6987 106.501C87.0886 103.808 85.4464 101.06 83.2567 98.2718L83.2045 98.2053H83.2011C82.5654 97.3946 82.0117 96.66 81.4886 95.9658C80.38 94.495 79.4087 93.2062 78.086 91.7621C76.118 89.6134 73.3692 87.1157 68.2157 83.1268L68.214 83.1255C59.0856 76.2377 54.06 64.5509 51.4574 52.2008C48.8584 39.8675 48.6822 26.9026 49.2303 17.4721C51.052 12.9048 50.4236 6.53547 48.2332 2.30158L48.1216 2.08594ZM48.0316 2.67219C50.0991 6.83579 50.6594 12.9808 48.8973 17.3691L48.8868 17.3954L48.8851 17.4237C48.334 26.8749 48.5074 39.8864 51.1175 52.2724C53.7266 64.6535 58.7768 76.4395 68.004 83.4022C73.15 87.3854 75.8811 89.8691 77.8298 91.9967C79.1414 93.4287 80.0973 94.6972 81.1996 96.1599C81.7386 96.875 82.3125 97.6365 82.98 98.4863L83.0322 98.5527H83.0355C85.1853 101.3 86.8042 104.009 88.4032 106.684C88.4801 106.813 88.557 106.941 88.6339 107.07C90.3208 109.89 92.0127 112.673 94.305 115.405C100.5 122.789 108.47 129.28 115.284 134.1C122.095 138.918 127.763 142.076 129.36 142.792L129.36 142.792C129.999 143.078 130.399 143.377 130.611 143.651C130.819 143.919 130.837 144.146 130.755 144.325C130.667 144.517 130.441 144.705 130.056 144.834C129.675 144.961 129.162 145.022 128.543 144.978C122.14 144.521 117.694 144.854 114.039 145.128C113.731 145.151 113.428 145.174 113.131 145.195C109.305 145.475 106.306 145.599 102.62 144.502C99.18 143.479 96.1831 143.025 93.2768 142.711C92.3096 142.607 91.3544 142.518 90.397 142.429C88.473 142.251 86.5401 142.071 84.4825 141.762C78.3358 140.839 71.1044 138.763 59.9444 132.104C57.1624 130.443 54.8207 128.951 52.6749 127.585C45.9516 123.302 41.1501 120.244 30.7467 117.038L30.7339 117.034L30.7207 117.032C29.5743 116.865 28.4332 116.71 27.3036 116.556C25.0546 116.251 22.8506 115.952 20.7389 115.57C17.569 114.997 14.6259 114.241 12.0853 113.008C9.54719 111.776 7.4124 110.07 5.8549 107.596C4.29713 105.121 3.30922 101.865 3.08498 97.5231C3.06459 93.1556 3.65693 88.8336 5.36684 84.9001C6.78509 81.6381 7.63313 77.0878 8.08258 71.9011C8.53233 66.7112 8.584 60.8703 8.40215 55.0194C8.03845 43.3175 6.74021 31.5632 5.81733 24.872L5.81697 24.8693L5.81652 24.8666L5.80656 24.8079C5.74599 24.4498 5.68067 24.0637 5.55789 23.7109C5.42874 23.3398 5.2314 22.9907 4.89515 22.736C2.82765 20.6206 1.76437 17.7254 1.37577 14.6524C0.999146 11.674 1.25821 8.54144 1.84084 5.82124C2.63286 6.40017 3.78605 6.86955 5.19916 7.24354C6.75445 7.65515 8.64184 7.95555 10.7463 8.15418C14.9554 8.55148 20.0483 8.54305 25.121 8.19498C30.1937 7.84692 35.2522 7.15881 39.3927 6.19451C41.4628 5.7124 43.307 5.16043 44.8102 4.54577C46.1951 3.97946 47.304 3.35466 48.0316 2.67219Z" fill="black"/>
<path d="M1.74554 5.36091C4.19463 11.3812 46.1211 7.85864 47.9414 2.28304C47.8615 1.58131 41.2924 -0.315432 25.5556 0.289026C9.81886 0.89001 1.74554 4.4438 1.74554 5.36091Z" fill="#0BA85B"/>
<path fill-rule="evenodd" clip-rule="evenodd" d="M47.7576 2.29119C47.6472 2.57661 47.4112 2.87085 47.043 3.16949C46.6502 3.48802 46.119 3.80181 45.4637 4.10743C44.1532 4.71861 42.3692 5.28685 40.2618 5.79574C36.0488 6.81313 30.5706 7.58697 25.0691 7.99904C19.5674 8.41112 14.0509 8.46075 9.76094 8.03284C7.61502 7.8188 5.78403 7.48601 4.41757 7.02313C3.7344 6.79171 3.17357 6.52982 2.74908 6.23834C2.34385 5.96008 2.07141 5.66082 1.92902 5.34348C1.93592 5.32856 1.94966 5.30484 1.97701 5.27159C2.02753 5.21017 2.10967 5.13431 2.22932 5.04576C2.46791 4.86919 2.83338 4.65839 3.32962 4.42504C4.32051 3.9591 5.81123 3.41327 7.79748 2.87591C11.7688 1.80152 17.7082 0.764468 25.5651 0.464414L25.5651 0.464412C33.4262 0.162462 38.9924 0.48548 42.5995 0.970182C44.4037 1.21262 45.7141 1.49501 46.5749 1.75835C47.0062 1.89029 47.3186 2.01563 47.5223 2.12572C47.6245 2.18098 47.6929 2.22899 47.7344 2.2675C47.7445 2.27686 47.752 2.28476 47.7576 2.29119ZM42.6458 0.625887C39.0142 0.137898 33.4274 -0.185228 25.5518 0.117277C17.672 0.418208 11.7063 1.45855 7.70676 2.54058C5.70758 3.08143 4.19642 3.63357 3.18179 4.11067C2.67528 4.34885 2.28707 4.57085 2.02267 4.76652C1.89084 4.86409 1.78416 4.9592 1.70873 5.0509C1.63675 5.1384 1.57467 5.24513 1.57467 5.36273V5.39671L1.58747 5.42818C1.75752 5.8462 2.09318 6.20936 2.55244 6.52472C3.01206 6.84032 3.60491 7.11462 4.30611 7.35215C5.70838 7.82716 7.56892 8.16332 9.72646 8.37852C14.0434 8.80911 19.5815 8.75842 25.0951 8.34546C30.6089 7.93247 36.1067 7.15652 40.3434 6.13343C42.4609 5.62208 44.2701 5.04741 45.6105 4.42226C46.2806 4.10972 46.8392 3.78199 47.2618 3.43931C47.6829 3.09779 47.9811 2.73153 48.1094 2.33877L48.1211 2.3028L48.1168 2.26521C48.1048 2.15978 48.038 2.07535 47.9707 2.01287C47.8995 1.9468 47.8032 1.88269 47.6875 1.82012C47.4551 1.69452 47.1182 1.56128 46.6765 1.42616C45.7914 1.15539 44.461 0.869798 42.6458 0.625887Z" fill="black"/>
<path d="M4.94874 84.7012C-2.41245 105.652 7.47078 115.838 28.7727 116.585C35.6441 92.8753 26.8968 83.0685 4.94874 84.7012Z" fill="#0BA85B"/>
<path fill-rule="evenodd" clip-rule="evenodd" d="M28.6417 116.404C18.0779 116.013 10.3938 113.286 6.24584 108.109C2.10077 102.935 1.44385 95.2591 5.07327 84.864C15.9713 84.0712 23.5277 86.1224 27.5294 91.2445C31.532 96.3677 32.0325 104.631 28.6417 116.404ZM27.8031 91.0306C23.6759 85.7478 15.9232 83.7084 4.93408 84.5259L4.82076 84.5343L4.78309 84.6415C1.09339 95.143 1.70726 103 5.97474 108.326C10.2358 113.644 18.0964 116.382 28.7648 116.756L28.9001 116.761L28.9378 116.631C32.3771 104.764 31.9286 96.3111 27.8031 91.0306Z" fill="black"/>
<path d="M25.2666 8.10824C35.9488 7.36135 44.908 4.99563 48.0693 2.35547C50.2474 6.5832 50.8588 12.8709 49.0489 17.4079C35.1742 22.98 20.3788 24.1159 4.77062 22.8445C0.560254 18.5542 0.462986 11.0749 1.72054 5.4924C5.09369 7.73306 14.4142 8.8725 25.2666 8.11171V8.10824Z" fill="#0BA85B"/>
<path fill-rule="evenodd" clip-rule="evenodd" d="M48.1225 2.08594L47.9561 2.22494C46.4071 3.51857 43.4097 4.76254 39.4435 5.77633C35.4849 6.78815 30.5851 7.56492 25.2527 7.93775L25.0911 7.94905V7.95242C19.7351 8.31909 14.762 8.22159 10.7067 7.75781C6.60169 7.28834 3.46447 6.4463 1.81482 5.3505L1.60469 5.21092L1.54926 5.45701C0.917013 8.26368 0.624508 11.5498 1.02097 14.6777C1.41732 17.8048 2.50437 20.7879 4.64482 22.9689L4.69016 23.0152L4.75469 23.0204C20.3796 24.2932 35.2041 23.1572 49.1118 17.5718L49.1808 17.5441L49.2084 17.475C51.0393 12.8853 50.4198 6.54501 48.2218 2.2787L48.1225 2.08594ZM48.0095 2.62847C50.0781 6.79262 50.6418 12.8661 48.913 17.2773C35.1105 22.8044 20.3893 23.939 4.84771 22.6794C2.80734 20.5742 1.75324 17.6923 1.3656 14.634C0.98648 11.6429 1.24682 8.49636 1.83487 5.77482C3.60238 6.85146 6.71892 7.6514 10.6673 8.10295C14.7879 8.5742 19.8419 8.66877 25.2769 8.28777L25.4385 8.27644V8.27287C30.7257 7.89451 35.5877 7.12045 39.5295 6.1129C43.3687 5.13157 46.3574 3.92334 48.0095 2.62847Z" fill="black"/>
<path d="M110.859 145.511C114.162 145.285 123.177 144.789 128.541 145.174C131.084 145.355 132.049 143.823 129.44 142.656C127.412 141.805 119.008 136.799 114.114 133.047C111.199 135.42 109.281 139.56 110.855 145.511H110.859Z" fill="#0BA85B"/>
<path fill-rule="evenodd" clip-rule="evenodd" d="M114.108 132.824L114.002 132.911C111.032 135.329 109.095 139.541 110.685 145.554L110.719 145.684H110.862L110.868 145.683C114.173 145.457 123.176 144.962 128.526 145.346C129.179 145.393 129.74 145.33 130.174 145.184C130.604 145.04 130.933 144.806 131.078 144.492C131.229 144.164 131.158 143.801 130.893 143.459C130.632 143.123 130.175 142.793 129.509 142.496L129.506 142.494C128.506 142.075 125.909 140.618 122.941 138.79C119.977 136.964 116.658 134.778 114.217 132.908L114.108 132.824ZM129.369 142.814C130.007 143.099 130.407 143.399 130.619 143.672C130.827 143.941 130.845 144.167 130.763 144.346C130.674 144.538 130.448 144.726 130.064 144.855C129.683 144.982 129.17 145.044 128.551 145C123.248 144.618 114.396 145.097 110.985 145.327C109.512 139.586 111.338 135.59 114.116 133.267C116.559 135.129 119.834 137.285 122.759 139.086C125.721 140.91 128.339 142.381 129.369 142.814Z" fill="black"/>
<path fill-rule="evenodd" clip-rule="evenodd" d="M78.4472 92.2124C78.3543 92.1888 78.2597 92.245 78.2361 92.3379C77.0479 97.0073 75.6061 100.286 73.3845 102.974C71.1616 105.664 68.147 107.777 63.788 110.097C63.7033 110.142 63.6712 110.247 63.7163 110.332C63.7613 110.417 63.8665 110.449 63.9512 110.404C68.3256 108.076 71.3868 105.937 73.6522 103.195C75.9189 100.452 77.3778 97.1199 78.5727 92.4236C78.5964 92.3306 78.5402 92.2361 78.4472 92.2124Z" fill="black"/>
<path fill-rule="evenodd" clip-rule="evenodd" d="M92.2129 112.146C92.1199 112.122 92.0253 112.179 92.0017 112.272C91.3468 114.844 90.5546 116.643 89.3378 118.115C88.1198 119.589 86.4652 120.751 84.0603 122.03C83.9756 122.075 83.9434 122.181 83.9885 122.265C84.0336 122.35 84.1387 122.382 84.2234 122.337C86.6437 121.049 88.3449 119.862 89.6056 118.337C90.8674 116.81 91.6766 114.957 92.3383 112.357C92.362 112.264 92.3058 112.17 92.2129 112.146Z" fill="black"/>
<path opacity="0.2" d="M90.2153 142.59C85.4908 142.292 82.5519 141.454 78.6993 140.617C74.8468 139.78 66.8256 136.146 63.9144 134.576C61.0033 133.006 57.1612 130.675 55.327 129.539C53.4927 128.403 52.329 127.298 47.2363 124.387C42.1435 121.476 37.5823 119.298 30.697 117.175C17.0134 115.174 2.92324 114.799 2.7287 97.3291C2.68007 92.945 3.49991 88.5992 5.13611 84.6007C9.60007 74.8842 8.5579 50.2196 6.82095 34.9344C6.03585 28.0387 5.48003 23.1128 4.71229 22.6334C0.220548 18.2597 0.706894 11.0236 1.66222 5.28125C17.9061 15.234 8.14798 43.1467 12.3618 69.326C14.8422 84.7466 4.38575 90.2076 11.5455 101.956C18.7052 113.705 33.3407 114.712 38.284 116.561C41.7996 117.978 44.28 119.246 48.9107 121.58C51.4119 122.789 58.0748 126.795 63.3864 129.914C68.698 133.034 73.8532 136.608 79.1301 138.054C84.7786 139.599 86.6615 140.343 98.1601 141.705C101.328 142.08 104.236 143.372 108.794 143.858C117.023 144.734 127.285 144.723 129.449 145.036C132.117 145.422 122.488 144.859 121.039 144.859C119.591 144.859 109.523 145.491 107.925 145.522C106.327 145.557 102.096 144.574 101.429 144.414C97.7154 143.528 94.9398 142.886 90.2153 142.587V142.59Z" fill="black"/>
<path opacity="0.2" d="M1.74035 5.12697C2.69567 7.59344 8.83057 8.83014 21.7812 8.65645C18.6165 7.90261 10.234 6.3081 9.32039 5.49521C7.4966 3.86942 9.54272 2.2749 8.08021 2.62229C4.33535 3.51161 1.78204 4.92549 1.74383 5.13045L1.74035 5.12697Z" fill="black"/>
</svg>
