<svg width="131" height="173" viewBox="0 0 131 173" fill="none" xmlns="http://www.w3.org/2000/svg">
<path d="M82.0848 116.648C78.0471 110.539 77.3886 108.179 67.1123 98.726C48.7987 82.3034 47.0069 43.0612 48.1056 20.6701C49.9147 15.3153 49.2978 7.80631 47.1282 2.82227C41.5932 9.68048 6.96584 12.5597 0.886722 6.53765C-0.364452 13.1693 -0.277807 22.0088 3.92974 27.1123C4.53973 27.6519 4.66451 28.6199 4.79275 29.5178C6.63312 45.3761 9.97074 85.2362 4.35605 100.584C2.63698 105.284 2.04432 110.441 2.06511 115.639C2.96277 136.345 16.133 136.597 29.785 138.969C43.4509 143.974 47.3881 148.661 58.8774 156.813C81.1802 172.63 87.8208 166.699 101.494 171.534C108.914 174.158 113.569 170.933 127.394 172.107C129.931 172.321 130.894 170.505 128.292 169.121C125.134 167.44 105.715 154.177 93.3801 136.704C88.8259 130.253 86.6528 123.556 82.0883 116.648H82.0848Z" fill="#ABDEB7"/>
<path fill-rule="evenodd" clip-rule="evenodd" d="M47.1731 2.4707L47.0054 2.67846C46.3387 3.50461 45.2189 4.28649 43.7382 5.0061C42.261 5.72392 40.4401 6.37251 38.3858 6.94113C34.2773 8.07829 29.2496 8.89173 24.2019 9.30335C19.1543 9.71497 14.0927 9.72427 9.91679 9.25583C7.82867 9.02159 5.96583 8.6683 4.43864 8.18794C2.90743 7.70633 1.73071 7.1021 0.999961 6.37821L0.782001 6.16229L0.719914 6.49135C0.0909345 9.82517 -0.202661 13.7174 0.191574 17.4226C0.585725 21.1271 1.66943 24.6609 3.80825 27.2552L3.81772 27.2667L3.82856 27.2763C4.09628 27.5131 4.26384 27.8486 4.38053 28.2471C4.49314 28.6317 4.5539 29.0581 4.61576 29.4919L4.62337 29.5447C4.6235 29.5458 4.62363 29.5469 4.62375 29.548C5.54336 37.473 6.83681 51.393 7.19913 65.2475C7.38031 72.1757 7.32854 79.0839 6.88143 85.216C6.43402 91.352 5.5918 96.6943 4.19942 100.5C2.46776 105.235 1.87324 110.422 1.8941 115.639L1.89413 115.643L1.89434 115.648C2.11986 120.85 3.11701 124.785 4.71087 127.795C6.30548 130.805 8.48976 132.876 11.0688 134.363C13.6453 135.849 16.6175 136.754 19.7921 137.436C21.906 137.89 24.1182 138.247 26.3667 138.61C27.4877 138.791 28.6177 138.973 29.749 139.169C40.0721 142.951 44.8191 146.545 51.5129 151.612C53.6568 153.235 56.0004 155.009 58.7909 156.988C69.9596 164.909 77.2166 167.391 83.3983 168.494C85.4605 168.862 87.4062 169.077 89.3316 169.29C90.2844 169.395 91.2322 169.499 92.1867 169.622C95.0747 169.992 98.0421 170.526 101.446 171.73L101.496 171.533L101.447 171.731C105.189 173.054 108.235 172.9 112.057 172.568C112.354 172.543 112.656 172.516 112.963 172.488C116.607 172.164 121.022 171.771 127.384 172.311L127.384 172.311C128.035 172.366 128.595 172.292 129.028 172.119C129.457 171.948 129.785 171.671 129.93 171.298C130.08 170.91 130.01 170.478 129.745 170.074C129.485 169.675 129.028 169.284 128.365 168.931C126.801 168.099 121.167 164.371 114.38 158.665C107.595 152.96 99.6693 145.288 93.5151 136.57C91.2479 133.359 89.5723 130.085 87.8891 126.74C87.8115 126.586 87.734 126.432 87.6563 126.278C86.0499 123.084 84.4115 119.826 82.2269 116.52L82.1748 116.441H82.1714C81.5372 115.48 80.9848 114.608 80.4629 113.785C79.3569 112.041 78.3878 110.513 77.0681 108.801C75.1047 106.253 72.3623 103.292 67.2207 98.5619L67.219 98.5604C58.1117 90.3935 53.0977 76.5363 50.5012 61.8926C47.9082 47.2688 47.7324 31.8962 48.2792 20.7143C50.0967 15.2988 49.4698 7.74657 47.2844 2.72639L47.1731 2.4707ZM47.0833 3.16583C49.146 8.10268 49.705 15.3889 47.947 20.5921L47.9365 20.6233L47.9349 20.6569C47.385 31.8633 47.558 47.2913 50.1621 61.9775C52.7651 76.6579 57.8037 90.6328 67.0095 98.8886C72.1436 103.611 74.8683 106.556 76.8125 109.079C78.1211 110.777 79.0748 112.281 80.1746 114.016C80.7123 114.863 81.2848 115.766 81.9509 116.774L82.0029 116.853H82.0062C84.151 120.111 85.7662 123.322 87.3615 126.494C87.4382 126.647 87.5149 126.799 87.5917 126.952C89.2746 130.296 90.9627 133.596 93.2496 136.835C99.4304 145.59 107.382 153.286 114.18 159.001C120.976 164.715 126.63 168.459 128.223 169.307L128.223 169.307C128.861 169.646 129.26 170.002 129.472 170.326C129.679 170.645 129.697 170.913 129.615 171.126C129.527 171.353 129.302 171.576 128.918 171.729C128.538 171.88 128.026 171.952 127.409 171.9C121.021 171.358 116.585 171.753 112.938 172.078C112.63 172.105 112.329 172.132 112.032 172.158C108.215 172.489 105.223 172.636 101.545 171.336C98.1134 170.122 95.1234 169.584 92.2238 169.212C91.2588 169.089 90.3058 168.983 89.3506 168.878C87.4311 168.666 85.5027 168.453 83.4498 168.087C77.3173 166.992 70.1027 164.531 58.9686 156.635C56.193 154.666 53.8567 152.897 51.7158 151.276C45.0081 146.198 40.2178 142.572 29.8384 138.771L29.8256 138.766L29.8124 138.764C28.6687 138.565 27.5303 138.382 26.4032 138.2C24.1594 137.838 21.9606 137.483 19.8537 137.031C16.6912 136.351 13.7549 135.455 11.2201 133.993C8.68793 132.532 6.55808 130.509 5.00419 127.575C3.45002 124.641 2.46439 120.78 2.24067 115.632C2.22033 110.453 2.8113 105.329 4.51725 100.665C5.93222 96.7969 6.7783 91.4014 7.22671 85.2516C7.67542 79.0978 7.72697 72.1722 7.54554 65.2347C7.18268 51.3595 5.88745 37.4224 4.9667 29.4884L4.96634 29.4853L4.96589 29.4821L4.95595 29.4124C4.89553 28.9879 4.83035 28.5301 4.70786 28.1117C4.57901 27.6717 4.38212 27.2577 4.04665 26.9558C1.98394 24.4475 0.923119 21.0147 0.535421 17.371C0.159664 13.8394 0.418133 10.1251 0.999411 6.8997C1.78959 7.58615 2.94012 8.1427 4.34996 8.58614C5.90165 9.0742 7.78468 9.43039 9.88423 9.66591C14.0837 10.137 19.1647 10.127 24.2257 9.71428C29.2866 9.30158 34.3335 8.48568 38.4644 7.3423C40.5297 6.77065 42.3696 6.11617 43.8693 5.38736C45.2511 4.71588 46.3574 3.97505 47.0833 3.16583Z" fill="black"/>
<path d="M82.0848 116.648C78.0471 110.539 77.3886 108.179 67.1123 98.726C48.7987 82.3034 47.0069 43.0612 48.1056 20.6701C49.9147 15.3153 49.2978 7.80631 47.1282 2.82227C41.5932 9.68048 6.96584 12.5597 0.886722 6.53765C-0.364452 13.1693 -0.277807 22.0088 3.92974 27.1123C4.53973 27.6519 4.66451 28.6199 4.79275 29.5178C6.63312 45.3761 9.97074 85.2362 4.35605 100.584C2.63698 105.284 2.04432 110.441 2.06511 115.639C2.96277 136.345 16.133 136.597 29.785 138.969C43.4509 143.974 47.3881 148.661 58.8774 156.813C81.1802 172.63 87.8208 166.699 101.494 171.534C108.914 174.158 113.569 170.933 127.394 172.107C129.931 172.321 130.894 170.505 128.292 169.121C125.134 167.44 105.715 154.177 93.3801 136.704C88.8259 130.253 86.6528 123.556 82.0883 116.648H82.0848Z" fill="#ABDEB7"/>
<path fill-rule="evenodd" clip-rule="evenodd" d="M47.1731 2.4707L47.0054 2.67846C46.3387 3.50461 45.2189 4.28649 43.7382 5.0061C42.261 5.72392 40.4401 6.37251 38.3858 6.94113C34.2773 8.07829 29.2496 8.89173 24.2019 9.30335C19.1543 9.71497 14.0927 9.72427 9.91679 9.25583C7.82867 9.02159 5.96583 8.6683 4.43864 8.18794C2.90743 7.70633 1.73071 7.1021 0.999961 6.37821L0.782001 6.16229L0.719914 6.49135C0.0909345 9.82517 -0.202661 13.7174 0.191574 17.4226C0.585725 21.1271 1.66943 24.6609 3.80825 27.2552L3.81772 27.2667L3.82856 27.2763C4.09628 27.5131 4.26384 27.8486 4.38053 28.2471C4.49314 28.6317 4.5539 29.0581 4.61576 29.4919L4.62337 29.5447C4.6235 29.5458 4.62363 29.5469 4.62375 29.548C5.54336 37.473 6.83681 51.393 7.19913 65.2475C7.38031 72.1757 7.32854 79.0839 6.88143 85.216C6.43402 91.352 5.5918 96.6943 4.19942 100.5C2.46776 105.235 1.87324 110.422 1.8941 115.639L1.89413 115.643L1.89434 115.648C2.11986 120.85 3.11701 124.785 4.71087 127.795C6.30548 130.805 8.48976 132.876 11.0688 134.363C13.6453 135.849 16.6175 136.754 19.7921 137.436C21.906 137.89 24.1182 138.247 26.3667 138.61C27.4877 138.791 28.6177 138.973 29.749 139.169C40.0721 142.951 44.8191 146.545 51.5129 151.612C53.6568 153.235 56.0004 155.009 58.7909 156.988C69.9596 164.909 77.2166 167.391 83.3983 168.494C85.4605 168.862 87.4062 169.077 89.3316 169.29C90.2844 169.395 91.2322 169.499 92.1867 169.622C95.0747 169.992 98.0421 170.526 101.446 171.73L101.496 171.533L101.447 171.731C105.189 173.054 108.235 172.9 112.057 172.568C112.354 172.543 112.656 172.516 112.963 172.488C116.607 172.164 121.022 171.771 127.384 172.311L127.384 172.311C128.035 172.366 128.595 172.292 129.028 172.119C129.457 171.948 129.785 171.671 129.93 171.298C130.08 170.91 130.01 170.478 129.745 170.074C129.485 169.675 129.028 169.284 128.365 168.931C126.801 168.099 121.167 164.371 114.38 158.665C107.595 152.96 99.6693 145.288 93.5151 136.57C91.2479 133.359 89.5723 130.085 87.8891 126.74C87.8115 126.586 87.734 126.432 87.6563 126.278C86.0499 123.084 84.4115 119.826 82.2269 116.52L82.1748 116.441H82.1714C81.5372 115.48 80.9848 114.608 80.4629 113.785C79.3569 112.041 78.3878 110.513 77.0681 108.801C75.1047 106.253 72.3623 103.292 67.2207 98.5619L67.219 98.5604C58.1117 90.3935 53.0977 76.5363 50.5012 61.8926C47.9082 47.2688 47.7324 31.8962 48.2792 20.7143C50.0967 15.2988 49.4698 7.74657 47.2844 2.72639L47.1731 2.4707ZM47.0833 3.16583C49.146 8.10268 49.705 15.3889 47.947 20.5921L47.9365 20.6233L47.9349 20.6569C47.385 31.8633 47.558 47.2913 50.1621 61.9775C52.7651 76.6579 57.8037 90.6328 67.0095 98.8886C72.1436 103.611 74.8683 106.556 76.8125 109.079C78.1211 110.777 79.0748 112.281 80.1746 114.016C80.7123 114.863 81.2848 115.766 81.9509 116.774L82.0029 116.853H82.0062C84.151 120.111 85.7662 123.322 87.3615 126.494C87.4382 126.647 87.5149 126.799 87.5917 126.952C89.2746 130.296 90.9627 133.596 93.2496 136.835C99.4304 145.59 107.382 153.286 114.18 159.001C120.976 164.715 126.63 168.459 128.223 169.307L128.223 169.307C128.861 169.646 129.26 170.002 129.472 170.326C129.679 170.645 129.697 170.913 129.615 171.126C129.527 171.353 129.302 171.576 128.918 171.729C128.538 171.88 128.026 171.952 127.409 171.9C121.021 171.358 116.585 171.753 112.938 172.078C112.63 172.105 112.329 172.132 112.032 172.158C108.215 172.489 105.223 172.636 101.545 171.336C98.1134 170.122 95.1234 169.584 92.2238 169.212C91.2588 169.089 90.3058 168.983 89.3506 168.878C87.4311 168.666 85.5027 168.453 83.4498 168.087C77.3173 166.992 70.1027 164.531 58.9686 156.635C56.193 154.666 53.8567 152.897 51.7158 151.276C45.0081 146.198 40.2178 142.572 29.8384 138.771L29.8256 138.766L29.8124 138.764C28.6687 138.565 27.5303 138.382 26.4032 138.2C24.1594 137.838 21.9606 137.483 19.8537 137.031C16.6912 136.351 13.7549 135.455 11.2201 133.993C8.68793 132.532 6.55808 130.509 5.00419 127.575C3.45002 124.641 2.46439 120.78 2.24067 115.632C2.22033 110.453 2.8113 105.329 4.51725 100.665C5.93222 96.7969 6.7783 91.4014 7.22671 85.2516C7.67542 79.0978 7.72697 72.1722 7.54554 65.2347C7.18268 51.3595 5.88745 37.4224 4.9667 29.4884L4.96634 29.4853L4.96589 29.4821L4.95595 29.4124C4.89553 28.9879 4.83035 28.5301 4.70786 28.1117C4.57901 27.6717 4.38212 27.2577 4.04665 26.9558C1.98394 24.4475 0.923119 21.0147 0.535421 17.371C0.159664 13.8394 0.418133 10.1251 0.999411 6.8997C1.78959 7.58615 2.94012 8.1427 4.34996 8.58614C5.90165 9.0742 7.78468 9.43039 9.88423 9.66591C14.0837 10.137 19.1647 10.127 24.2257 9.71428C29.2866 9.30158 34.3335 8.48568 38.4644 7.3423C40.5297 6.77065 42.3696 6.11617 43.8693 5.38736C45.2511 4.71588 46.3574 3.97505 47.0833 3.16583Z" fill="black"/>
<path d="M0.90322 6.35779C3.34665 13.4961 45.1761 9.31939 46.9922 2.70832C46.9125 1.87627 40.3585 -0.372729 24.6582 0.343985C8.95786 1.05658 0.90322 5.27037 0.90322 6.35779Z" fill="#0BA85B"/>
<path fill-rule="evenodd" clip-rule="evenodd" d="M46.8053 2.7167C46.6952 3.05513 46.4597 3.40401 46.0923 3.75811C45.7005 4.1358 45.1705 4.50785 44.5167 4.87024C43.2093 5.59493 41.4293 6.2687 39.3269 6.8721C35.1236 8.07843 29.6581 8.99598 24.1693 9.48457C18.6803 9.97318 13.1766 10.032 8.89659 9.52466C6.75563 9.27087 4.92889 8.87627 3.56558 8.32742C2.884 8.05303 2.32447 7.7425 1.90096 7.39689C1.49666 7.06696 1.22485 6.71211 1.08279 6.33584C1.08968 6.31815 1.10339 6.29002 1.13068 6.25059C1.18108 6.17778 1.26303 6.08782 1.38241 5.98283C1.62044 5.77347 1.98506 5.52352 2.48015 5.24684C3.46875 4.69436 4.95603 4.04716 6.93767 3.41001C10.8998 2.13609 16.8254 0.90644 24.6641 0.550662L24.6642 0.550661C32.5071 0.192634 38.0604 0.575641 41.6592 1.15036C43.4592 1.43782 44.7665 1.77265 45.6254 2.0849C46.0557 2.24134 46.3673 2.38996 46.5705 2.52049C46.6725 2.58602 46.7408 2.64295 46.7822 2.68861C46.7922 2.6997 46.7997 2.70907 46.8053 2.7167ZM41.7053 0.742123C38.0821 0.163508 32.5083 -0.219627 24.6509 0.139058C16.7893 0.495875 10.8374 1.72942 6.84716 3.0124C4.85261 3.6537 3.34495 4.30837 2.33267 4.87409C1.82732 5.1565 1.44001 5.41973 1.17623 5.65173C1.0447 5.76742 0.938268 5.8802 0.863013 5.98892C0.791201 6.09267 0.729262 6.21922 0.729262 6.35867V6.39896L0.742034 6.43628C0.911693 6.93192 1.24658 7.36253 1.70477 7.73645C2.16333 8.11067 2.7548 8.43591 3.45438 8.71755C4.8534 9.28078 6.70965 9.67936 8.86219 9.93453C13.1691 10.4451 18.6944 10.385 24.1952 9.89533C29.6963 9.40564 35.1814 8.48558 39.4082 7.27249C41.5208 6.66618 43.3259 5.98478 44.6632 5.24354C45.3317 4.87296 45.889 4.48436 46.3106 4.07804C46.7308 3.6731 47.0283 3.23881 47.1563 2.77311L47.168 2.73047L47.1637 2.68589C47.1517 2.56088 47.0851 2.46078 47.0179 2.38669C46.9469 2.30834 46.8508 2.23233 46.7353 2.15814C46.5035 2.00921 46.1674 1.85123 45.7268 1.69101C44.8437 1.36996 43.5163 1.03133 41.7053 0.742123Z" fill="black"/>
<path d="M4.09511 100.431C-3.24905 125.273 6.61132 137.35 27.864 138.235C34.7194 110.123 25.9924 98.4948 4.09511 100.431Z" fill="#0BA85B"/>
<path fill-rule="evenodd" clip-rule="evenodd" d="M27.7375 138.025C17.1982 137.561 9.53191 134.327 5.3935 128.189C1.25802 122.055 0.602619 112.953 4.22364 100.627C15.0964 99.6872 22.6354 102.119 26.6278 108.193C30.6211 114.267 31.1205 124.065 27.7375 138.025ZM26.9009 107.939C22.7832 101.675 15.0484 99.2569 4.08478 100.226L3.97172 100.236L3.93414 100.363C0.252969 112.815 0.865425 122.131 5.12303 128.446C9.37428 134.752 17.2167 137.999 27.8604 138.442L27.9953 138.448L28.0329 138.294C31.4643 124.222 31.0168 114.2 26.9009 107.939Z" fill="black"/>
<path d="M24.3671 9.61802C35.0246 8.73242 43.963 5.92735 47.117 2.79688C49.2901 7.80976 49.9 15.2652 48.0943 20.6447C34.2517 27.2517 19.4906 28.5986 3.91852 27.091C-0.282103 22.004 -0.379147 13.1357 0.875494 6.51637C4.24084 9.17316 13.5397 10.5242 24.3671 9.62214V9.61802Z" fill="#0BA85B"/>
<path fill-rule="evenodd" clip-rule="evenodd" d="M47.1705 2.47461L47.0044 2.63942C45.4591 4.1733 42.4686 5.6483 38.5115 6.85036C34.5621 8.05009 29.6737 8.97111 24.3535 9.41319L24.1923 9.42659V9.43058C18.8488 9.86534 13.8872 9.74974 9.84129 9.19983C5.74574 8.64317 2.61578 7.64476 0.969941 6.34545L0.760306 6.17995L0.704999 6.47174C0.0742156 9.79965 -0.217613 13.696 0.177928 17.4048C0.573369 21.1127 1.6579 24.6498 3.7934 27.2359L3.83863 27.2907L3.90301 27.2969C19.4918 28.8061 34.2819 27.4591 48.1575 20.8364L48.2264 20.8036L48.2539 20.7216C50.0806 15.2796 49.4625 7.76179 47.2696 2.70317L47.1705 2.47461ZM47.0577 3.1179C49.1215 8.05539 49.6839 15.2568 47.9592 20.4872C34.1886 27.0408 19.5015 28.3861 3.99581 26.8926C1.96017 24.3964 0.908505 20.9793 0.521764 17.353C0.143521 13.8065 0.403254 10.0755 0.989953 6.84857C2.75336 8.12516 5.8627 9.07366 9.80191 9.60907C13.913 10.1678 18.9553 10.28 24.3778 9.82821L24.5389 9.81478V9.81054C29.814 9.36192 34.6646 8.4441 38.5973 7.24944C42.4277 6.08586 45.4094 4.65325 47.0577 3.1179Z" fill="black"/>
<path d="M109.761 172.535C113.057 172.267 122.051 171.678 127.402 172.135C129.939 172.35 130.902 170.533 128.299 169.149C126.275 168.14 117.891 162.204 113.008 157.756C110.1 160.569 108.187 165.479 109.757 172.535H109.761Z" fill="#0BA85B"/>
<path fill-rule="evenodd" clip-rule="evenodd" d="M113.003 157.492L112.897 157.595C109.934 160.462 108.001 165.456 109.588 172.586L109.622 172.74H109.765L109.771 172.739C113.068 172.471 122.05 171.884 127.388 172.34C128.039 172.395 128.599 172.32 129.032 172.148C129.461 171.977 129.789 171.699 129.934 171.327C130.084 170.938 130.014 170.507 129.749 170.102C129.489 169.703 129.032 169.313 128.369 168.96L128.365 168.958C127.367 168.461 124.777 166.733 121.815 164.566C118.858 162.401 115.547 159.809 113.112 157.591L113.003 157.492ZM128.229 169.337C128.865 169.676 129.264 170.031 129.476 170.355C129.683 170.673 129.701 170.942 129.619 171.154C129.531 171.382 129.305 171.605 128.922 171.757C128.542 171.908 128.03 171.981 127.412 171.929C122.121 171.477 113.29 172.045 109.887 172.317C108.418 165.51 110.239 160.772 113.011 158.018C115.448 160.226 118.716 162.781 121.634 164.916C124.589 167.08 127.201 168.824 128.229 169.337Z" fill="black"/>
<path fill-rule="evenodd" clip-rule="evenodd" d="M77.428 109.338C77.3352 109.31 77.2409 109.377 77.2173 109.487C76.0319 115.024 74.5935 118.911 72.3769 122.099C70.1593 125.288 67.1516 127.794 62.8027 130.545C62.7182 130.598 62.6862 130.723 62.7311 130.823C62.7761 130.924 62.881 130.962 62.9655 130.908C67.3298 128.148 70.3839 125.612 72.6441 122.361C74.9055 119.109 76.361 115.157 77.5532 109.589C77.5768 109.479 77.5207 109.366 77.428 109.338Z" fill="black"/>
<path fill-rule="evenodd" clip-rule="evenodd" d="M91.1624 132.975C91.0696 132.947 90.9753 133.014 90.9517 133.124C90.2983 136.175 89.508 138.307 88.2939 140.053C87.0788 141.801 85.428 143.178 83.0286 144.695C82.9442 144.749 82.9121 144.873 82.9571 144.974C83.002 145.074 83.1069 145.112 83.1914 145.059C85.6061 143.532 87.3034 142.125 88.5611 140.316C89.82 138.505 90.6274 136.308 91.2876 133.226C91.3112 133.115 91.2551 133.003 91.1624 132.975Z" fill="black"/>
<path opacity="0.2" d="M89.1704 169.073C84.4569 168.719 81.5247 167.726 77.6811 166.734C73.8375 165.741 65.8348 161.432 62.9304 159.571C60.026 157.709 56.1928 154.945 54.3628 153.598C52.5329 152.251 51.3718 150.941 46.2908 147.489C41.2099 144.038 36.6592 141.455 29.7899 138.938C16.1379 136.566 2.08037 136.121 1.88628 115.406C1.83776 110.208 2.6557 105.055 4.28812 100.314C8.74174 88.7929 7.70199 59.5477 5.96906 41.4239C5.18578 33.2476 4.63124 27.4067 3.86528 26.8383C-0.616071 21.6524 -0.130851 13.0725 0.82226 6.26367C17.0286 18.0647 7.29302 51.1613 11.4971 82.2024C13.9717 100.487 3.5395 106.962 10.6826 120.893C17.8258 134.823 32.4274 136.018 37.3593 138.209C40.8668 139.89 43.3414 141.393 47.9614 144.161C50.4568 145.595 57.1043 150.344 62.4036 154.043C67.7029 157.742 72.8462 161.98 78.1109 163.694C83.7464 165.527 85.6249 166.408 97.0968 168.023C100.258 168.468 103.159 170 107.706 170.577C115.916 171.615 126.155 171.602 128.314 171.973C130.976 172.43 121.368 171.763 119.923 171.763C118.478 171.763 108.434 172.513 106.839 172.55C105.245 172.591 101.024 171.425 100.358 171.236C96.6532 170.185 93.884 169.423 89.1704 169.069V169.073Z" fill="black"/>
<path opacity="0.2" d="M0.900002 6.08152C1.85311 9.00605 7.97382 10.4724 20.8945 10.2665C17.7371 9.37264 9.37402 7.482 8.4625 6.51814C6.64293 4.59043 8.68432 2.69979 7.22519 3.11169C3.489 4.16617 0.941596 5.84262 0.903471 6.08564L0.900002 6.08152Z" fill="black"/>
</svg>
