<svg width="163" height="198" viewBox="0 0 163 198" fill="none" xmlns="http://www.w3.org/2000/svg">
<path d="M70.9414 54.0684C70.237 54.1753 71.6686 59.4913 69.8204 63.6194C69.0099 65.427 67.9532 69.2747 68.3433 70.0273C69.1273 71.5435 70.4415 68.8911 71.5095 67.7548C73.1759 65.9804 73.7857 63.1841 73.8046 62.7856C74.0053 58.5432 71.589 53.9724 70.9414 54.072V54.0684Z" fill="#F1F1E6" stroke="black" stroke-miterlimit="10"/>
<path opacity="0.2" d="M68.2647 69.6121C68.6662 72.4342 71.1468 67.8745 72.2148 66.7383C72.2148 66.7383 70.0296 69.1989 69.2873 69.6453C68.5412 70.0917 68.2647 69.6121 68.2647 69.6121Z" fill="black"/>
<path d="M63.9608 55.7896C54.7614 60.2018 45.1417 65.3812 45.9977 67.8197C46.4862 69.2216 50.1637 68.9449 51.2885 69.2658C57.4996 71.0255 70.4067 57.6821 68.7441 54.6755C68.5813 54.3841 68.2669 54.0668 67.6041 53.875C66.3808 54.5169 65.1689 55.1551 63.9608 55.7896Z" fill="#F1F1E6" stroke="black" stroke-miterlimit="10"/>
<path d="M67.7814 52.4509C63.5737 58.56 57.7716 63.1049 55.8363 63.9423C52.8292 65.2409 48.0988 66.8862 45.6409 65.3479C43.4518 63.9792 40.0509 63.1566 39.9069 61.8248C39.71 60.0172 45.5197 59.9655 51.7915 58.1874C56.4839 56.8556 59.9834 54.2733 68.2889 50.4219L69.4023 52.0856L67.7852 52.4509H67.7814Z" fill="#F1F1E6" stroke="black" stroke-miterlimit="10"/>
<path opacity="0.2" d="M60.4336 60.6406C56.1577 64.5474 48.9202 68.1295 42.9893 64.0198C42.9893 64.0198 44.8413 64.7871 49.4467 64.8425C53.9763 64.8978 60.4336 60.6406 60.4336 60.6406Z" fill="black"/>
<path opacity="0.2" d="M62.2852 64.3633C59.4977 66.3923 56.3353 69.1443 53.0025 69.3989C49.3591 68.9045 48.3631 69.5132 46.121 68.0597C47.2572 68.6758 47.8177 68.5651 52.4079 68.5393C56.8769 68.5135 62.2814 64.3633 62.2814 64.3633H62.2852Z" fill="black"/>
<path d="M69.0131 56.0694C62.9686 65.4507 56.2992 68.1031 56.7536 71.0433C56.996 72.6259 60.9689 70.9363 61.9006 70.2834C69.763 64.7867 71.0923 61.983 72.986 54.9626C73.0617 54.6823 72.7095 54.4388 72.0391 54.3945C70.956 55.3279 69.8312 54.8003 69.0131 56.0694Z" fill="#F1F1E6" stroke="black" stroke-miterlimit="10"/>
<path opacity="0.2" d="M56.5845 70.9605C57.2472 73.1887 63.7235 70.2964 67.6055 65.3457C67.6055 65.3457 63.4887 68.6548 60.7088 69.8574C57.9933 71.0343 56.5845 70.9605 56.5845 70.9605Z" fill="black"/>
<path d="M68.4908 55.2742C67.6993 55.348 69.1915 60.1401 67.0592 63.7001C66.1351 65.2421 64.9194 68.518 65.3322 69.1746C66.1654 70.5027 67.6463 68.2893 68.8393 67.3559C70.7178 65.8877 71.4638 63.4676 71.4941 63.1209C71.8274 59.3802 69.2218 55.2078 68.4908 55.2742Z" fill="#F1F1E6" stroke="black" stroke-miterlimit="10"/>
<path opacity="0.2" d="M65.2753 68.7748C65.7488 70.7817 67.6424 68.2915 68.8392 67.3582C70.7177 65.8899 70.2215 66.0892 70.6836 65.1484C70.6836 65.1484 69.4489 66.0965 68.2635 67.1036C67.5742 67.6902 66.7221 68.5387 66.4002 68.6531C65.5215 68.9629 65.2753 68.7748 65.2753 68.7748Z" fill="black"/>
<path d="M66.8913 51.6963C60.5362 56.8426 52.7306 59.6094 50.2916 60.0373C46.5422 60.694 42.4557 61.5646 38.1685 58.2592C35.7977 56.4331 32.1732 54.2012 32.2755 52.7588C32.4118 50.7999 39.1418 52.578 46.8073 52.6887C52.5829 52.7735 57.2602 51.1466 67.9593 49.6895L68.9023 51.8254L66.8951 51.6963H66.8913Z" fill="#F1F1E6" stroke="black" stroke-miterlimit="10"/>
<path opacity="0.2" d="M57.9785 57.2397C47.0559 61.8252 42.4582 61.4231 38.1672 58.114C35.7963 56.2879 34.3079 55.8194 33.0998 54.2773C33.0998 54.2773 37.1295 57.3356 42.4089 59.0252C46.5712 60.3569 57.8459 57.1733 59.2093 56.8117C61.2583 56.2658 57.9785 57.2397 57.9785 57.2397Z" fill="black"/>
<path d="M65.7856 47.6647C58.4875 52.1285 49.9358 54.1722 47.3377 54.2866C44.9707 54.3899 37.9074 54.0579 34.7147 51.4202C32.3325 49.4502 28.7308 46.8937 28.9542 45.4882C29.2572 43.5735 36.222 45.9456 44.323 46.7683C50.4433 47.388 55.5713 46.2223 67.1377 45.7796L67.9141 47.9783L65.7856 47.6647Z" fill="#F1F1E6" stroke="black" stroke-miterlimit="10"/>
<path opacity="0.2" d="M52.7157 53.2288C47.1522 55.0144 37.9036 54.0589 34.7147 51.4212C32.3325 49.4512 29.9276 47.3079 28.9846 45.9023C28.9846 45.9023 33.2188 50.0304 39.0436 52.1738C42.437 53.4244 50.057 52.8858 52.9619 52.5132C54.9767 52.2549 52.7119 53.2288 52.7119 53.2288H52.7157Z" fill="black"/>
<path d="M61.6905 46.3989C54.4568 43.7612 51.9079 44.6097 46.03 41.4408C43.7993 40.2381 43.61 39.8139 40.1976 37.4972C37.8836 35.9256 23.5373 26.1828 21.9694 28.957C21.0339 30.6097 24.1887 35.9072 26.9421 39.1757C33.1192 46.5022 41.3186 48.3098 47.8782 49.7523C54.1613 51.1357 54.1462 49.9994 66.3148 52.1428C70.2687 52.84 68.1667 51.9694 68.3144 51.3312C68.5341 50.3905 67.5835 48.5459 61.6905 46.3989Z" fill="#F1F1E6" stroke="black" stroke-miterlimit="10"/>
<path opacity="0.2" d="M22.5035 31.9551C23.4768 34.4415 24.1964 35.9467 26.9535 39.2152C33.1306 46.5417 42.0156 49.0355 55.6271 50.9649C55.6271 50.9649 56.5285 50.7989 52.904 49.9319C46.7459 48.4637 35.9597 45.6489 32.0777 42.3472C25.6697 36.9021 22.5073 31.9551 22.5073 31.9551H22.5035Z" fill="black"/>
<path d="M59.8435 40.9782C52.8294 37.1637 50.1859 37.5916 44.5807 33.4635C42.4523 31.8957 42.3083 31.4419 39.1043 28.5681C36.9304 26.6203 23.4779 14.5533 21.6108 17.0545C20.4974 18.5449 23.1295 24.3478 25.5723 28.0664C31.0563 36.4111 39.1497 39.5616 45.6184 42.0812C51.8107 44.4939 51.9091 43.3503 63.9375 47.482C67.8422 48.8212 65.816 47.6111 66.0243 46.9951C66.3349 46.0912 65.5547 44.0881 59.8435 40.9819V40.9782Z" fill="#F1F1E6" stroke="black" stroke-miterlimit="10"/>
<path opacity="0.2" d="M21.8375 20.127C22.5609 22.7646 23.1327 24.3878 25.5755 28.1064C31.0595 36.4474 39.7779 40.4021 53.2985 44.556C53.2985 44.556 54.2226 44.5339 50.6587 43.0767C44.6029 40.6013 34.006 36.0158 30.4233 32.0759C24.5151 25.5794 21.8337 20.127 21.8337 20.127H21.8375Z" fill="black"/>
<path d="M55.9355 36.0975C49.41 30.6967 46.6831 30.5085 41.6233 25.1225C39.7032 23.0787 39.6236 22.5954 36.8059 19.017C34.8971 16.5896 23.1073 1.58616 20.85 3.60409C19.5018 4.80673 21.2932 11.1298 23.2095 15.3685C27.5233 24.9011 35.2493 29.9035 41.4264 33.9061C47.3383 37.7354 47.5997 36.6213 59.1471 43.5014C62.8965 45.7333 65.7294 47.552 66.0286 46.9987C66.8277 45.5083 61.2528 40.5059 55.9355 36.1048V36.0975Z" fill="#F1F1E6" stroke="black" stroke-miterlimit="10"/>
<path opacity="0.2" d="M20.6233 6.67969C20.9604 9.44649 21.2974 11.1767 23.2138 15.4117C27.5275 24.9406 35.7687 30.8874 48.8348 38.1438C48.8348 38.1438 49.7703 38.3356 46.3806 36.0632C40.6164 32.2044 30.5725 25.1988 27.5275 20.4658C22.5169 12.6744 20.6233 6.67969 20.6233 6.67969Z" fill="black"/>
<path d="M60.4555 36.3839C49.8851 28.7807 43.1438 21.2218 38.902 15.6329C33.1984 8.12191 29.2861 0.603572 27.828 1.44099C26.76 2.05707 27.6045 6.80122 28.5551 9.8816C30.2632 15.4263 32.2667 19.3441 35.3192 22.7343C37.2848 24.9146 45.2874 32.1157 53.5096 35.897C55.1949 36.6717 57.7059 37.6382 60.713 40.239C63.9511 43.0353 65.1517 45.4517 65.8069 45.1344C66.7499 44.6769 65.9205 38.8999 62.9058 36.9963C61.9628 36.3987 61.0501 36.3433 60.4517 36.3839H60.4555Z" fill="#F1F1E6" stroke="black" stroke-miterlimit="10"/>
<path opacity="0.2" d="M28.0005 7.2207C28.4626 9.60385 28.652 10.7253 29.0458 11.6697C31.1213 16.6389 32.9998 20.3317 35.9842 23.4821C37.9081 25.5111 45.4334 32.3654 53.5117 35.8959C53.5117 35.8959 38.8436 26.2785 34.1511 19.0479C29.3413 11.6328 28.0005 7.2207 28.0005 7.2207Z" fill="black"/>
<path d="M71.3344 53.4723C70.4027 53.0259 68.5659 55.8923 67.6758 57.8217C67.5471 58.0984 65.7557 62.0383 66.6343 62.7577C67.4069 63.3922 70.3194 61.5919 71.4215 58.6702C72.1979 56.6117 72.1297 53.8523 71.3344 53.4723Z" fill="#F1F1E6" stroke="black" stroke-miterlimit="10"/>
<path opacity="0.2" d="M66.4295 61.5449C66.1909 64.2416 69.2927 62.0134 70.4023 60.5156C70.4023 60.5156 69.5919 61.4158 68.0694 61.9359C66.5469 62.4561 66.4295 61.5449 66.4295 61.5449Z" fill="black"/>
<path d="M73.3147 56.1098C72.5838 55.763 71.1333 58.0281 70.4326 59.5517C70.3341 59.7694 68.9215 62.8792 69.607 63.4474C70.2129 63.9491 72.5043 62.5214 73.3753 60.212C73.9889 58.5852 73.9358 56.4049 73.3109 56.1098H73.3147Z" fill="#F1F1E6" stroke="black" stroke-miterlimit="10"/>
<path opacity="0.2" d="M69.4497 62.4908C69.2603 64.6194 71.6994 62.8561 72.5742 61.6719C72.5742 61.6719 71.9342 62.3839 70.7374 62.797C69.5406 63.2102 69.4497 62.4908 69.4497 62.4908Z" fill="black"/>
<path d="M75.6341 57.6969C75.0622 57.339 73.7442 59.0434 73.0776 60.2128C72.983 60.3788 71.6385 62.7767 72.1573 63.3079C72.6156 63.7801 74.5661 62.8468 75.422 61.0502C76.0242 59.7849 76.1226 57.9994 75.6341 57.6969Z" fill="#F1F1E6" stroke="black" stroke-miterlimit="10"/>
<path opacity="0.2" d="M72.0889 62.5087C71.7973 64.2278 73.8879 63.0362 74.6719 62.1582C74.6719 62.1582 74.1076 62.6747 73.1115 62.8923C72.1155 63.11 72.0889 62.5087 72.0889 62.5087Z" fill="black"/>
<path d="M69.2386 55.1741C68.4811 54.4953 65.9436 56.1149 64.5726 57.3249C64.3757 57.4983 61.6034 59.9662 62.2321 60.8406C62.7888 61.6079 66.0232 61.2095 67.8714 59.3022C69.178 57.9557 69.8824 55.7533 69.2386 55.1741Z" fill="#F1F1E6" stroke="black" stroke-miterlimit="10"/>
<path opacity="0.2" d="M62.1638 60.0794C62.0274 61.9313 66.0268 61.2119 67.875 59.3047C67.875 59.3047 65.6102 60.5885 64.1294 60.5553C62.641 60.5221 62.1638 60.0794 62.1638 60.0794Z" fill="black"/>
<path d="M68.2426 51.3355C63.3759 51.8446 60.7021 52.8111 58.6645 53.7924C57.7821 54.2204 56.3429 55.98 56.5967 56.5851C56.8996 57.3081 59.1872 57.6918 60.5354 57.784C62.2056 57.8984 66.9322 58.1234 68.8334 53.2538C69.0417 52.7189 69.1705 52.2393 69.25 51.911L68.2388 51.3281L68.2426 51.3355Z" fill="#F1F1E6" stroke="black" stroke-miterlimit="10"/>
<path opacity="0.2" d="M56.5593 56.3145C56.9267 57.2072 60.1875 58.823 65.6602 56.949C65.6602 56.949 62.5319 57.3585 60.3958 57.0449C58.2409 56.7239 56.5593 56.3181 56.5593 56.3181V56.3145Z" fill="black"/>
<path d="M67.0914 49.1453C61.1113 49.7946 52.1165 52.2552 52.4801 54.1551C52.6202 54.8966 55.3849 54.5683 56.915 54.9851C59.479 55.6861 63.7169 53.9928 66.5082 52.1777C67.0081 51.8531 67.8489 51.1669 68.0117 50.8534C67.6633 50.6246 67.4777 49.1047 67.0914 49.1453Z" fill="#F1F1E6" stroke="black" stroke-miterlimit="10"/>
<path opacity="0.2" d="M52.5869 53.6582C52.2687 54.9604 55.3629 54.728 56.9157 54.9826C59.4532 55.3921 58.5708 55.1412 60.6992 54.7834C60.6992 54.7834 58.0633 54.8645 56.7832 54.503C55.4955 54.1378 52.9353 54.396 52.5869 53.6582Z" fill="black"/>
<path d="M65.8522 46.6883C59.7206 46.2013 56.0886 46.6477 53.3428 47.0904C52.1536 47.2822 50.0933 48.2672 50.1955 48.887C50.3167 49.6285 52.9451 50.108 54.4676 50.9196C56.7438 52.1333 61.9664 52.7347 65.9052 48.6324C66.3408 48.1787 66.6627 47.7581 66.8672 47.4704C66.5263 47.2084 66.1893 46.9465 65.8484 46.6846L65.8522 46.6883Z" fill="#F1F1E6" stroke="black" stroke-miterlimit="10"/>
<path opacity="0.2" d="M50.1917 48.6133C50.0137 49.0855 52.5133 50.3914 54.9485 51.1514C57.5315 51.9593 62.1406 51.6236 60.3454 51.6641C58.5389 51.7084 56.3347 51.2178 54.8311 50.3988C53.3162 49.5761 50.506 49.0523 50.1917 48.6133Z" fill="black"/>
<path d="M58.0883 44.5926C55.7099 44.5631 48.7224 43.0875 48.4913 44.0503C48.2603 45.0132 51.5325 46.581 53.1005 47.1123C55.0433 47.7726 59.6941 49.1044 64.8562 46.8208C65.4205 46.57 65.5341 44.8988 65.75 44.6184C65.4167 44.3196 60.4478 44.6221 58.0921 44.5926H58.0883Z" fill="#F1F1E6" stroke="black" stroke-miterlimit="10"/>
<path opacity="0.2" d="M48.6313 44.3145C48.7525 45.1777 51.4566 46.4504 53.0207 46.9853C54.9636 47.6457 55.8271 48.2544 57.7852 48.0146C57.7852 48.0146 55.812 47.8965 52.6079 46.3619C49.3584 44.8051 49.4948 44.8936 48.6313 44.3145Z" fill="black"/>
<path d="M61.6199 41.7666C53.3333 39.9995 46.1147 39.0588 46.1943 40.6857C46.2397 41.6153 49.3567 43.316 50.224 43.5779C58.5863 46.1049 64.7633 45.1679 65.6344 44.1719C65.748 44.0428 65.4034 42.77 64.9414 42.3827C63.8279 42.1761 62.722 41.9732 61.6199 41.7703V41.7666Z" fill="#F1F1E6" stroke="black" stroke-miterlimit="10"/>
<path opacity="0.2" d="M46.1951 40.5C46.2217 41.8723 49.8575 44.3219 57.2578 44.9416C57.2578 44.9416 51.7814 43.8091 49.4446 42.5991C47.0852 41.378 46.1951 40.5037 46.1951 40.5037V40.5Z" fill="black"/>
<path d="M61.7372 39.6036C52.8295 35.1361 44.808 32.4209 44.327 34.1253C44.0543 35.0992 47.0084 38.246 47.9022 38.7846C56.5713 44.012 63.9186 42.6139 65.301 41.8687C65.479 41.7728 65.5926 39.4966 65.2025 38.9506C63.9868 38.3751 62.9302 40.1606 61.7334 39.5999L61.7372 39.6036Z" fill="#F1F1E6" stroke="black" stroke-miterlimit="10"/>
<path opacity="0.2" d="M44.3282 34.125C45.0364 37.2755 50.0773 41.6064 58.5078 42.3885C58.5078 42.3885 51.0203 40.0829 48.5851 38.3305C46.1613 36.5856 44.6766 35.1137 44.3282 34.125Z" fill="black"/>
<path d="M61.6205 36.0888C53.0575 30.1641 45.2519 25.5491 44.4414 27.1059C43.9831 27.9912 45.8692 31.4848 46.5774 32.3665C53.6142 41.0801 63.7528 39.9992 65.3434 39.5417C65.5517 39.4827 65.4078 38.9625 65.101 38.376C63.9345 37.6087 62.7719 36.8487 61.6167 36.0888H61.6205Z" fill="#F1F1E6" stroke="black" stroke-miterlimit="10"/>
<path opacity="0.2" d="M44.4425 27.1013C44.4993 30.2334 48.7411 38.353 60.6445 39.7733C60.6445 39.7733 55.2704 38.1538 51.3884 35.7006C50.078 34.8742 47.9458 32.8379 47.5216 32.2734C45.8211 30.0083 44.8743 28.7393 44.4425 27.0977V27.1013Z" fill="black"/>
<path d="M60.2745 32.4299C55.8472 30.3419 52.681 28.0067 50.6321 26.2839C46.8069 23.0744 43.6218 19.2894 43.1295 19.8243C43.0159 19.9498 43.0462 20.3076 43.4363 21.2225C44.9777 24.8341 47.8106 26.9295 49.4353 28.1617C56.3661 33.4186 57.0175 34.0605 58.2824 35.348C61.2252 38.3472 63.4066 37.5208 63.9747 38.6497C65.4328 41.5604 64.8723 38.9411 65.2132 38.9485C65.7472 38.9633 65.626 41.6821 63.9672 37.2921C63.4256 35.8644 62.7969 34.7319 62.3007 33.9461C61.6228 33.437 60.9525 32.9316 60.2783 32.4299H60.2745Z" fill="#F1F1E6" stroke="black" stroke-miterlimit="10"/>
<path opacity="0.2" d="M43.0953 19.7656C42.9817 19.8911 43.0158 19.8911 43.4324 21.1712C44.97 25.8784 53.6277 31.1686 55.207 32.3675C55.207 32.3675 48.9239 27.0073 46.9507 24.8934C44.9548 22.7612 43.0953 19.7656 43.0953 19.7656Z" fill="black"/>
<path d="M55.5393 24.8422C55.5923 24.8053 56.8838 27.4208 59.3682 30.3241C61.9928 33.3861 62.9397 33.2643 64.3258 35.4261C66.102 38.1929 65.5945 40.0043 66.6247 43.7634C67.2912 46.1872 67.6435 48.5925 70.8361 52.0085C73.9569 55.3435 74.5894 55.0188 76.1876 58.4497C76.6799 59.5084 76.8958 61.1685 76.2747 61.6259C76.0512 61.792 75.2976 62.1092 72.1958 59.5638C69.0145 56.9519 67.0829 55.3877 65.1173 49.179C63.9433 45.4715 65.0567 45.0288 63.5343 40.4175C62.8563 38.359 61.9966 36.6915 60.3151 33.4525C57.7511 28.5128 55.4711 24.8865 55.5355 24.8422H55.5393Z" fill="#F1F1E6" stroke="black" stroke-miterlimit="10"/>
<path opacity="0.2" d="M76.5742 61.1646C76.2258 61.8545 75.3017 62.1127 72.1999 59.5673C69.0186 56.9554 67.0871 55.3912 65.1215 49.1825C63.9474 45.475 65.0609 45.0323 63.5384 40.421C62.8604 38.3625 62.0007 36.695 60.3192 33.456C57.7552 28.5163 55.4752 24.89 55.5396 24.8457C55.5396 24.8457 59.7927 30.9032 60.9441 33.0834C62.0841 35.2489 64.3829 39.0044 65.0495 43.7854C65.2427 45.1614 65.4396 48.4373 66.3902 50.5659C66.8295 51.5509 67.2386 52.6871 67.8672 53.757C68.4013 54.6571 69.1398 55.5019 69.7117 56.2619C71.6886 58.8885 73.9155 60.3125 75.2562 60.9285C75.9417 61.2421 76.5742 61.1683 76.5742 61.1683V61.1646Z" fill="black"/>
<g clip-path="url(#clip0_4855_130992)">
<path d="M32.8588 30.5875C35.3079 36.6077 77.2344 33.0852 79.0547 27.5096C78.9748 26.8079 72.4057 24.9111 56.6689 25.5156C40.9322 26.1166 32.8588 29.6704 32.8588 30.5875Z" fill="#FD8040"/>
<path fill-rule="evenodd" clip-rule="evenodd" d="M78.8709 27.5158C78.7605 27.8012 78.5245 28.0955 78.1562 28.3941C77.7635 28.7126 77.2322 29.0264 76.5769 29.332C75.2665 29.9432 73.4824 30.5115 71.3751 31.0204C67.162 32.0377 61.6839 32.8116 56.1824 33.2236C50.6807 33.6357 45.1642 33.6854 40.8742 33.2575C38.7283 33.0434 36.8973 32.7106 35.5309 32.2477C34.8477 32.0163 34.2869 31.7544 33.8624 31.463C33.4571 31.1847 33.1847 30.8854 33.0423 30.5681C33.0492 30.5532 33.063 30.5294 33.0903 30.4962C33.1408 30.4348 33.223 30.3589 33.3426 30.2704C33.5812 30.0938 33.9467 29.883 34.4429 29.6497C35.4338 29.1837 36.9245 28.6379 38.9108 28.1005C42.8821 27.0261 48.8215 25.9891 56.6784 25.689L56.6784 25.689C64.5395 25.3871 70.1057 25.7101 73.7128 26.1948C75.517 26.4372 76.8274 26.7196 77.6882 26.983C78.1195 27.1149 78.4319 27.2402 78.6355 27.3503C78.7378 27.4056 78.8062 27.4536 78.8477 27.4921C78.8578 27.5015 78.8653 27.5094 78.8709 27.5158ZM73.7591 25.8505C70.1275 25.3625 64.5407 25.0394 56.6651 25.3419C48.7853 25.6428 42.8196 26.6832 38.8201 27.7652C36.8209 28.306 35.3097 28.8582 34.2951 29.3353C33.7886 29.5735 33.4004 29.7955 33.136 29.9911C33.0041 30.0887 32.8974 30.1838 32.822 30.2755C32.75 30.363 32.688 30.4697 32.688 30.5873V30.6213L32.7008 30.6528C32.8708 31.0708 33.2065 31.434 33.6657 31.7493C34.1254 32.0649 34.7182 32.3392 35.4194 32.5768C36.8217 33.0518 38.6822 33.3879 40.8397 33.6031C45.1567 34.0337 50.6948 33.983 56.2083 33.5701C61.7222 33.1571 67.22 32.3811 71.4566 31.358C73.5742 30.8467 75.3834 30.272 76.7238 29.6469C77.3939 29.3343 77.9525 29.0066 78.375 28.6639C78.7962 28.3224 79.0944 27.9561 79.2226 27.5634L79.2344 27.5274L79.2301 27.4898C79.2181 27.3844 79.1513 27.3 79.084 27.2375C79.0128 27.1714 78.9165 27.1073 78.8007 27.0447C78.5684 26.9191 78.2315 26.7859 77.7898 26.6508C76.9047 26.38 75.5743 26.0944 73.7591 25.8505Z" fill="black"/>
<path opacity="0.2" d="M32.8575 30.3535C33.8128 32.8195 39.9478 34.0567 52.8984 33.883C49.7337 33.1292 41.3512 31.5347 40.4376 30.7218C38.6138 29.096 40.6599 27.5015 39.1974 27.8489C35.4525 28.7382 32.8992 30.152 32.861 30.357L32.8575 30.3535Z" fill="black"/>
</g>
<path d="M132.265 183.583C143.034 196.437 123.581 202.342 117.675 193.31C110.637 182.548 96.4842 172.467 84.6729 162.74C74.3207 154.215 75.4532 146.774 61.7556 142.553C48.0719 140.552 34.8711 140.34 33.9714 122.877C33.954 118.493 34.5446 114.144 36.2676 110.18C41.8988 97.2362 38.55 63.6193 36.7054 50.2448C36.5768 49.4875 36.4518 48.6711 35.8404 48.216C31.623 43.9084 31.5362 36.4569 32.7903 30.8639C38.887 35.9428 73.5947 33.5145 79.139 27.7305C81.3102 31.9304 81.932 38.2668 80.1186 42.7829C79.0174 61.6704 80.8134 94.7628 99.1695 108.613C109.466 116.586 114.017 122.106 116.963 125.083C129.483 137.731 125.314 138.774 153.453 165.87C157.347 169.618 151.716 181.85 140.599 172.818C154.147 183.934 140.252 192.966 132.262 183.587L132.265 183.583Z" fill="#F5D3AD"/>
<path fill-rule="evenodd" clip-rule="evenodd" d="M79.1839 27.4336L79.0158 27.609C78.3479 28.3057 77.226 28.9651 75.7421 29.572C74.2618 30.1774 72.437 30.7244 70.3781 31.204C66.2606 32.163 61.2214 32.849 56.162 33.1962C51.1026 33.5433 46.0291 33.5512 41.8431 33.1561C39.7499 32.9586 37.8825 32.6606 36.3514 32.2555C34.8163 31.8493 33.6365 31.3397 32.9036 30.7292L32.6852 30.5472L32.6229 30.8246C31.9925 33.6363 31.6982 36.918 32.0934 40.0425C32.4884 43.1663 33.5747 46.1466 35.7184 48.3363L35.7279 48.346L35.7388 48.3541C36.0071 48.5538 36.1751 48.8368 36.292 49.1729C36.4049 49.4972 36.4658 49.8568 36.5278 50.2227L36.5354 50.2672C36.5356 50.2681 36.5357 50.2691 36.5358 50.27C37.4576 56.9537 38.7549 68.6935 39.1185 80.378C39.3003 86.2211 39.2485 92.0473 38.8002 97.2189C38.3516 102.394 37.507 106.899 36.1105 110.109C34.3748 114.102 33.7824 118.477 33.7999 122.876L33.7999 122.881L33.8001 122.885C34.0261 127.272 35.0256 130.59 36.6232 133.129C38.2215 135.668 40.4108 137.414 42.9959 138.668C45.5783 139.922 48.5574 140.685 51.7393 141.26C53.8582 141.643 56.0755 141.944 58.3292 142.25C59.4528 142.402 60.5854 142.556 61.7194 142.722C68.5207 144.82 71.6315 147.711 74.3345 151.139C74.9644 151.938 75.5736 152.768 76.203 153.626C78.2803 156.458 80.5773 159.589 84.5646 162.873C86.8414 164.748 89.2022 166.634 91.581 168.534C95.3813 171.57 99.2278 174.642 102.853 177.767C108.744 182.846 114.026 188.044 117.532 193.404C120.544 198.011 126.986 198.79 131.298 196.81C133.461 195.817 135.118 194.116 135.532 191.825C135.865 189.984 135.39 187.793 133.781 185.323C137.584 188.432 142.131 188.238 144.625 186.017C146.062 184.737 146.798 182.795 146.308 180.472C145.93 178.682 144.827 176.675 142.774 174.566C144.649 175.69 146.347 176.194 147.841 176.242C149.925 176.309 151.596 175.487 152.782 174.256C153.966 173.027 154.668 171.392 154.825 169.823C154.983 168.256 154.599 166.729 153.575 165.744C139.51 152.199 133.524 145.171 129.49 139.951C128.557 138.743 127.727 137.631 126.926 136.556C124.262 132.985 121.908 129.828 117.088 124.959C116.542 124.407 115.94 123.767 115.255 123.039C112.255 119.848 107.671 114.973 99.278 108.475L99.2762 108.473C90.1478 101.585 85.1222 89.8995 82.5197 77.5498C79.9207 65.217 79.7445 52.2522 80.2925 42.8199C82.1142 38.2525 81.4823 31.8797 79.2954 27.6494L79.1839 27.4336ZM132.28 183.87C132.231 183.813 132.181 183.756 132.132 183.698L132.028 183.576L132.279 183.325L132.401 183.47C132.449 183.529 132.498 183.587 132.545 183.645C136.476 188.106 141.737 188.124 144.394 185.757C145.736 184.562 146.433 182.748 145.968 180.544C145.501 178.333 143.861 175.715 140.491 172.951L140.711 172.682C143.471 174.924 145.872 175.831 147.853 175.895C149.83 175.958 151.408 175.181 152.532 174.015C153.659 172.846 154.329 171.284 154.48 169.788C154.63 168.29 154.258 166.883 153.334 165.994C139.261 152.442 133.262 145.401 129.215 140.163C128.277 138.949 127.445 137.833 126.642 136.756C123.981 133.19 121.642 130.054 116.841 125.204C116.291 124.648 115.686 124.005 114.999 123.274C111.999 120.083 107.434 115.23 99.0662 108.75C89.8391 101.787 84.7888 90.0021 82.1798 77.6215C79.5696 65.236 79.3962 52.2244 79.9474 42.7715L79.949 42.7432L79.9596 42.7168C81.7216 38.3287 81.158 32.1806 79.0938 28.0201C78.3666 28.7025 77.2581 29.3273 75.8736 29.8935C74.3707 30.5082 72.5268 31.0602 70.4569 31.5423C66.3168 32.5066 61.2585 33.1947 56.1858 33.5428C51.1131 33.8908 46.0201 33.8993 41.8105 33.502C39.7058 33.3033 37.8182 33.0029 36.2626 32.5913C34.8491 32.2173 33.6955 31.7479 32.9031 31.169C32.3205 33.8891 32.0614 37.0209 32.438 39.9989C32.8266 43.0714 33.8899 45.9666 35.9574 48.0838C36.2937 48.3385 36.491 48.6876 36.6201 49.0587C36.7429 49.4115 36.8082 49.7976 36.8688 50.1556L36.8788 50.2144L36.8792 50.2171L36.8796 50.2198C37.8024 56.911 39.1016 68.6653 39.4657 80.3672C39.6478 86.2181 39.5962 92.059 39.1463 97.2489C38.6967 102.436 37.8482 106.986 36.4291 110.248C34.7192 114.181 34.1303 118.503 34.1472 122.871C34.3715 127.213 35.3594 130.469 36.9172 132.944C38.4747 135.418 40.6094 137.124 43.1475 138.356C45.6882 139.589 48.6312 140.345 51.8011 140.918C53.9128 141.3 56.1168 141.599 58.3658 141.904C59.4955 142.057 60.6365 142.212 61.7829 142.38L61.7961 142.382L61.8089 142.386C68.6963 144.508 71.8658 147.447 74.6073 150.924C75.2476 151.736 75.8632 152.575 76.4965 153.438C78.5704 156.265 80.835 159.351 84.7855 162.605C87.0533 164.472 89.4106 166.355 91.7883 168.255C95.5936 171.295 99.4515 174.376 103.079 177.504C108.977 182.588 114.29 187.812 117.822 193.214C120.716 197.639 126.953 198.423 131.153 196.495C133.245 195.534 134.802 193.913 135.19 191.764C135.572 189.653 134.836 186.985 132.28 183.87Z" fill="black"/>
<path fill-rule="evenodd" clip-rule="evenodd" d="M90.3828 120.452C90.3447 120.54 90.3852 120.643 90.4732 120.681C99.4162 124.551 103.4 129.219 107.701 134.26C108.595 135.308 109.502 136.372 110.471 137.448L110.471 137.448C114.188 141.575 117.189 145.445 120.399 149.584C121.304 150.751 122.226 151.94 123.184 153.161C127.543 158.715 132.665 164.943 140.487 172.939C140.554 173.007 140.664 173.009 140.733 172.942C140.801 172.875 140.803 172.765 140.736 172.696C132.925 164.712 127.811 158.493 123.458 152.947C122.502 151.729 121.582 150.542 120.678 149.377C117.466 145.235 114.456 141.352 110.73 137.215C109.768 136.148 108.865 135.089 107.974 134.044C103.668 128.997 99.6327 124.266 90.6112 120.362C90.5231 120.324 90.4209 120.364 90.3828 120.452Z" fill="black"/>
<path fill-rule="evenodd" clip-rule="evenodd" d="M72.1486 126.414C72.128 126.507 72.1873 126.6 72.2809 126.621C79.6387 128.239 88.162 133.429 98.44 144.443L98.567 144.324L98.44 144.443C102.335 148.616 105.559 152.676 109.215 157.279C110.119 158.418 111.05 159.589 112.023 160.804C116.932 166.929 122.928 174.142 132.139 183.7C132.205 183.769 132.315 183.771 132.384 183.704C132.453 183.638 132.455 183.528 132.389 183.459C123.188 173.91 117.199 166.706 112.294 160.586C111.323 159.375 110.394 158.205 109.491 157.068C105.834 152.463 102.599 148.39 98.694 144.206C88.3927 133.167 79.8106 127.921 72.3556 126.281C72.2619 126.261 72.1692 126.32 72.1486 126.414Z" fill="black"/>
<path d="M132.267 183.583C143.037 196.436 123.67 202.338 117.764 193.306C114.714 188.318 127.519 178.653 132.267 183.583Z" fill="#FD8040"/>
<path fill-rule="evenodd" clip-rule="evenodd" d="M117.922 188.905C117.062 190.461 116.804 192.073 117.614 193.396L117.615 193.399L117.617 193.401C120.628 198.007 127.049 198.788 131.34 196.809C133.493 195.816 135.138 194.115 135.544 191.825C135.95 189.536 135.109 186.706 132.399 183.471L132.395 183.466L132.391 183.462C131.151 182.175 129.394 181.853 127.54 182.149C125.686 182.445 123.711 183.361 121.989 184.583C120.267 185.806 118.783 187.346 117.922 188.905ZM132.136 183.699C131.002 182.525 129.379 182.207 127.594 182.492C125.807 182.778 123.881 183.666 122.19 184.866C120.498 186.067 119.056 187.571 118.226 189.073C117.394 190.577 117.195 192.043 117.909 193.213C120.803 197.637 127.018 198.42 131.194 196.493C133.275 195.533 134.821 193.913 135.202 191.764C135.583 189.615 134.807 186.888 132.136 183.699Z" fill="black"/>
<path d="M36.187 110.422C28.8258 131.373 38.7091 141.558 60.011 142.305C66.8824 118.596 58.1351 108.789 36.187 110.422Z" fill="#FD8040"/>
<path fill-rule="evenodd" clip-rule="evenodd" d="M59.8839 142.129C49.3201 141.737 41.636 139.01 37.488 133.833C33.3429 128.66 32.686 120.984 36.3154 110.589C47.2134 109.796 54.7699 111.847 58.7715 116.969C62.7741 122.092 63.2747 130.356 59.8839 142.129ZM59.0453 116.755C54.918 111.472 47.1653 109.433 36.1763 110.25L36.0629 110.259L36.0253 110.366C32.3356 120.868 32.9494 128.724 37.2169 134.051C41.478 139.369 49.3386 142.107 60.007 142.481L60.1423 142.485L60.18 142.355C63.6193 130.488 63.1708 122.036 59.0453 116.755Z" fill="black"/>
<path d="M153.414 165.818C157.308 169.566 151.677 181.798 140.56 172.766C137.573 170.233 149.106 160.072 153.414 165.818Z" fill="#FD8040"/>
<path fill-rule="evenodd" clip-rule="evenodd" d="M139.903 171.491C139.862 172.045 140.022 172.539 140.446 172.898L140.449 172.9L140.449 172.9C143.247 175.174 145.719 176.125 147.799 176.191C149.882 176.258 151.553 175.436 152.739 174.205C153.923 172.977 154.625 171.342 154.782 169.772C154.939 168.21 154.558 166.688 153.542 165.702C152.421 164.215 150.829 163.762 149.147 163.951C147.468 164.139 145.688 164.966 144.15 166.045C142.611 167.125 141.295 168.47 140.551 169.715C140.18 170.336 139.944 170.945 139.903 171.491ZM149.185 164.296C150.779 164.117 152.241 164.546 153.273 165.922L153.281 165.933L153.291 165.943C154.215 166.832 154.587 168.239 154.437 169.738C154.286 171.234 153.616 172.795 152.489 173.964C151.365 175.13 149.787 175.907 147.81 175.844C145.829 175.781 143.429 174.874 140.669 172.632C140.347 172.358 140.215 171.981 140.249 171.517C140.284 171.046 140.493 170.49 140.85 169.893C141.563 168.7 142.839 167.389 144.349 166.33C145.859 165.27 147.584 164.476 149.185 164.296Z" fill="black"/>
<path d="M140.56 172.767C154.108 183.883 140.167 192.87 132.177 183.491C127.366 178.721 137.934 170.512 140.56 172.767Z" fill="#FD8040"/>
<path fill-rule="evenodd" clip-rule="evenodd" d="M132.048 183.609C130.801 182.369 130.55 180.898 130.918 179.443C131.283 177.997 132.258 176.568 133.455 175.372C134.653 174.175 136.089 173.197 137.398 172.66C138.052 172.391 138.683 172.23 139.241 172.211C139.798 172.192 140.298 172.315 140.67 172.634C144.073 175.427 145.773 178.104 146.258 180.415C146.744 182.735 146.002 184.671 144.559 185.945C141.681 188.486 136.091 188.35 132.048 183.609ZM139.252 172.558C139.756 172.541 140.16 172.654 140.445 172.898L140.448 172.901L140.448 172.901C143.818 175.666 145.455 178.28 145.918 180.487C146.378 182.686 145.676 184.495 144.329 185.684C141.627 188.07 136.254 188.01 132.308 183.378L132.303 183.372L132.298 183.367C131.144 182.223 130.913 180.882 131.255 179.528C131.599 178.164 132.529 176.788 133.701 175.617C134.871 174.448 136.269 173.498 137.53 172.981C138.16 172.722 138.749 172.575 139.252 172.558Z" fill="black"/>
<path d="M56.3994 33.4813C67.0817 32.7344 76.0408 30.3687 79.2021 27.7285C81.3802 31.9562 81.9916 38.244 80.1817 42.7809C66.307 48.353 51.5117 49.489 35.9034 48.2176C31.6931 43.9273 31.5958 36.448 32.8534 30.8654C36.2265 33.1061 45.547 34.2455 56.3994 33.4848V33.4813Z" fill="#FD8040"/>
<path fill-rule="evenodd" clip-rule="evenodd" d="M79.2592 27.457L79.0928 27.596C77.5439 28.8897 74.5464 30.1336 70.5802 31.1474C66.6217 32.1592 61.7218 32.936 56.3894 33.3088L56.2278 33.3201V33.3235C50.8719 33.6902 45.8987 33.5927 41.8435 33.1289C37.7384 32.6594 34.6012 31.8174 32.9515 30.7216L32.7414 30.582L32.686 30.8281C32.0537 33.6348 31.7612 36.9209 32.1577 40.0488C32.554 43.1759 33.6411 46.159 35.7815 48.34L35.8269 48.3862L35.8914 48.3915C51.5163 49.6643 66.3408 48.5283 80.2485 42.9429L80.3175 42.9152L80.3451 42.8461C82.1761 38.2564 81.5566 31.9161 79.3586 27.6498L79.2592 27.457ZM79.1462 27.9996C81.2148 32.1637 81.7785 38.2372 80.0497 42.6483C66.2472 48.1755 51.526 49.3101 35.9844 48.0505C33.9441 45.9453 32.89 43.0634 32.5023 40.0051C32.1232 37.014 32.3835 33.8675 32.9716 31.1459C34.7391 32.2226 37.8556 33.0225 41.804 33.474C45.9246 33.9453 50.9787 34.0399 56.4136 33.6589L56.5752 33.6475V33.644C61.8625 33.2656 66.7244 32.4915 70.6662 31.484C74.5054 30.5027 77.4941 29.2944 79.1462 27.9996Z" fill="black"/>
<path opacity="0.2" d="M129.664 197.243C125.495 198.286 122.369 197.243 119.937 195.506C117.505 193.77 118.2 192.38 110.905 185.085C105.864 180.044 97.3568 172.926 91.1038 167.715C87.6993 164.881 84.3922 162.907 82.0716 160.42C78.8444 156.957 76.8851 154.48 76.166 153.125C72.6921 148.261 68.6381 144.534 61.7528 142.411C48.0691 140.41 34.052 140.237 33.8574 122.767C33.8088 118.383 34.6286 114.037 36.2648 110.038C40.7288 100.322 39.6866 75.6571 37.9497 60.3719C37.1646 53.4762 36.6088 48.5503 35.841 48.0709C31.3493 43.6972 31.8356 36.4611 32.7909 30.7188C49.0349 40.6715 39.2767 68.5842 43.4905 94.7635C45.9709 110.184 35.5145 115.645 42.6742 127.394C49.8339 139.143 63.3439 138.062 69.5621 140.966C74.773 143.398 79.692 151.339 82.4155 154.515C83.3813 155.644 90.5097 162.313 94.2268 164.936C97.9439 167.559 106.486 174.816 108.122 176.4C112.927 181.045 116.981 185.258 117.849 186.474C120.034 189.531 123.963 192.654 125.144 193.075C130.008 194.812 132.787 191.338 135.219 191.685C134.871 195.506 129.661 197.243 129.661 197.243H129.664Z" fill="black"/>
<path opacity="0.2" d="M132.265 183.58C113.853 164.473 108.295 154.746 98.5682 144.325C88.2786 133.298 78.8851 127.549 72.3195 126.451C73.5249 125.913 81.699 129.349 83.6895 130.554C88.9455 133.747 95.1221 138.659 102.296 147.062C111.686 158.064 121.465 171.813 130.504 180.54C132.05 182.034 136.323 183.58 138.973 184.233C141.624 184.886 144.299 182.53 146.133 183.222C144.278 188.596 138.348 187.206 138.157 187.213C135.84 187.29 132.268 183.583 132.268 183.583L132.265 183.58Z" fill="black"/>
<path opacity="0.2" d="M140.612 172.818C124.979 156.838 120.14 147.924 110.601 137.332C104.984 131.093 101.388 125.215 90.5426 120.521C90.5426 120.521 98.0948 123.12 102.548 127.379C104.129 128.89 107.617 132.649 112.894 138.926C115.902 142.504 118.573 145.697 121.815 149.782C123.565 151.992 127.463 156.775 131.062 161.176C132.07 162.41 135.359 166.519 139.146 169.795C141.345 171.699 142.943 172.067 146.486 172.821C150.03 173.575 153.437 170.445 154.41 171.081C150.252 181.03 140.615 172.821 140.615 172.821L140.612 172.818Z" fill="black"/>
<path d="M51.1406 63.1016C50.4362 63.2085 51.8678 68.5245 50.0196 72.6526C49.2091 74.4602 48.1525 78.3079 48.5426 79.0605C49.3265 80.5767 50.6407 77.9243 51.7087 76.788C53.3751 75.0136 53.9849 72.2173 54.0038 71.8188C54.2045 67.5764 51.7883 63.0056 51.1406 63.1052V63.1016Z" fill="#F1F1E6" stroke="black" stroke-miterlimit="10"/>
<path opacity="0.2" d="M48.4639 78.6453C48.8654 81.4674 51.346 76.9077 52.4141 75.7715C52.4141 75.7715 50.2288 78.2321 49.4865 78.6785C48.7404 79.1249 48.4639 78.6453 48.4639 78.6453Z" fill="black"/>
<path d="M44.16 64.8228C34.9607 69.235 25.3409 74.4144 26.1969 76.8529C26.6854 78.2548 30.3629 77.9781 31.4877 78.299C37.6989 80.0587 50.6059 66.7153 48.9433 63.7087C48.7805 63.4173 48.4661 63.1 47.8034 62.9082C46.5801 63.5501 45.3681 64.1883 44.16 64.8228Z" fill="#F1F1E6" stroke="black" stroke-miterlimit="10"/>
<path d="M47.9806 61.4841C43.7729 67.5932 37.9708 72.1381 36.0355 72.9755C33.0284 74.2741 28.2981 75.9194 25.8401 74.3811C23.6511 73.0124 20.2501 72.1898 20.1062 70.858C19.9092 69.0504 25.7189 68.9987 31.9907 67.2206C36.6831 65.8888 40.1826 63.3065 48.4881 59.4551L49.6016 61.1188L47.9844 61.4841H47.9806Z" fill="#F1F1E6" stroke="black" stroke-miterlimit="10"/>
<path opacity="0.2" d="M40.6328 69.6738C36.357 73.5806 29.1195 77.1627 23.1886 73.053C23.1886 73.053 25.0405 73.8203 29.6459 73.8757C34.1755 73.931 40.6328 69.6738 40.6328 69.6738Z" fill="black"/>
<path opacity="0.2" d="M42.4844 73.3965C39.6969 75.4255 36.5345 78.1775 33.2017 78.4321C29.5584 77.9377 28.5623 78.5464 26.3202 77.0929C27.4564 77.709 28.0169 77.5983 32.6071 77.5725C37.0761 77.5467 42.4806 73.3965 42.4806 73.3965H42.4844Z" fill="black"/>
<path d="M49.2123 65.1026C43.1678 74.4839 36.4984 77.1363 36.9529 80.0765C37.1952 81.6591 41.1681 79.9695 42.0998 79.3166C49.9622 73.8199 51.2915 71.0162 53.1852 63.9958C53.2609 63.7155 52.9087 63.472 52.2384 63.4277C51.1552 64.3611 50.0304 63.8335 49.2123 65.1026Z" fill="#F1F1E6" stroke="black" stroke-miterlimit="10"/>
<path opacity="0.2" d="M36.7837 79.9937C37.4465 82.2219 43.9227 79.3296 47.8047 74.3789C47.8047 74.3789 43.6879 77.688 40.908 78.8906C38.1925 80.0675 36.7837 79.9937 36.7837 79.9937Z" fill="black"/>
<path d="M48.69 64.3074C47.8985 64.3812 49.3907 69.1733 47.2584 72.7333C46.3343 74.2753 45.1186 77.5512 45.5314 78.2079C46.3646 79.5359 47.8455 77.3225 49.0385 76.3891C50.917 74.9209 51.6631 72.5009 51.6934 72.1541C52.0266 68.4134 49.421 64.241 48.69 64.3074Z" fill="#F1F1E6" stroke="black" stroke-miterlimit="10"/>
<path opacity="0.2" d="M45.4746 77.808C45.948 79.8149 47.8416 77.3247 49.0384 76.3914C50.9169 74.9231 50.4208 75.1224 50.8828 74.1816C50.8828 74.1816 49.6482 75.1297 48.4627 76.1369C47.7734 76.7234 46.9213 77.5719 46.5994 77.6863C45.7207 77.9961 45.4746 77.808 45.4746 77.808Z" fill="black"/>
<path d="M47.0905 60.7295C40.7354 65.8758 32.9298 68.6426 30.4908 69.0705C26.7414 69.7272 22.6549 70.5978 18.3677 67.2924C15.9969 65.4663 12.3724 63.2344 12.4747 61.792C12.611 59.8331 19.3411 61.6112 27.0065 61.7219C32.7821 61.8067 37.4594 60.1798 48.1585 58.7227L49.1016 60.8586L47.0943 60.7295H47.0905Z" fill="#F1F1E6" stroke="black" stroke-miterlimit="10"/>
<path opacity="0.2" d="M38.1777 66.2729C27.2552 70.8584 22.6574 70.4563 18.3664 67.1472C15.9955 65.3211 14.5071 64.8526 13.299 63.3105C13.299 63.3105 17.3287 66.3688 22.6082 68.0584C26.7704 69.3901 38.0451 66.2065 39.4086 65.8449C41.4575 65.299 38.1777 66.2729 38.1777 66.2729Z" fill="black"/>
<path d="M45.9848 56.6979C38.6867 61.1617 30.135 63.2054 27.5369 63.3198C25.1699 63.4231 18.1066 63.0911 14.9139 60.4534C12.5317 58.4834 8.93 55.9269 9.15345 54.5214C9.45643 52.6067 16.4213 54.9788 24.5223 55.8015C30.6425 56.4212 35.7705 55.2555 47.3369 54.8128L48.1133 57.0115L45.9848 56.6979Z" fill="#F1F1E6" stroke="black" stroke-miterlimit="10"/>
<path opacity="0.2" d="M32.9149 62.2621C27.3514 64.0476 18.1029 63.0921 14.914 60.4544C12.5318 58.4844 10.1268 56.3411 9.18379 54.9355C9.18379 54.9355 13.418 59.0636 19.2428 61.207C22.6362 62.4576 30.2563 61.919 33.1611 61.5464C35.176 61.2881 32.9112 62.2621 32.9112 62.2621H32.9149Z" fill="black"/>
<path d="M41.8897 55.4321C34.656 52.7944 32.1071 53.6429 26.2293 50.474C23.9985 49.2713 23.8092 48.8471 20.3968 46.5304C18.0828 44.9588 3.73655 35.216 2.16861 37.9902C1.23315 39.6429 4.38796 44.9404 7.14132 48.2089C13.3184 55.5354 21.5179 57.343 28.0775 58.7855C34.3606 60.1689 34.3454 59.0326 46.514 61.176C50.4679 61.8732 48.366 61.0026 48.5137 60.3644C48.7333 59.4237 47.7827 57.5791 41.8897 55.4321Z" fill="#F1F1E6" stroke="black" stroke-miterlimit="10"/>
<path opacity="0.2" d="M2.70271 40.9883C3.67604 43.4747 4.39562 44.9799 7.15277 48.2484C13.3298 55.5749 22.2148 58.0687 35.8263 59.9981C35.8263 59.9981 36.7277 59.8321 33.1033 58.9651C26.9451 57.4969 16.1589 54.6821 12.277 51.3804C5.86888 45.9353 2.70649 40.9883 2.70649 40.9883H2.70271Z" fill="black"/>
<path d="M40.0427 50.0114C33.0287 46.1969 30.3851 46.6248 24.7799 42.4967C22.6515 40.9289 22.5076 40.4751 19.3035 37.6013C17.1296 35.6535 3.67717 23.5865 1.81003 26.0877C0.696571 27.5781 3.32874 33.381 5.77154 37.0996C11.2555 45.4443 19.349 48.5948 25.8177 51.1144C32.0099 53.5271 32.1083 52.3835 44.1368 56.5152C48.0415 57.8544 46.0153 56.6443 46.2236 56.0283C46.5341 55.1244 45.7539 53.1213 40.0427 50.0151V50.0114Z" fill="#F1F1E6" stroke="black" stroke-miterlimit="10"/>
<path opacity="0.2" d="M2.0367 29.1602C2.76007 31.7978 3.33195 33.421 5.77475 37.1396C11.2587 45.4806 19.9771 49.4353 33.4977 53.5892C33.4977 53.5892 34.4218 53.5671 30.858 52.1099C24.8021 49.6345 14.2053 45.049 10.6225 41.1091C4.71431 34.6126 2.03291 29.1602 2.03291 29.1602H2.0367Z" fill="black"/>
<path d="M36.1347 45.1307C29.6092 39.7299 26.8824 39.5417 21.8225 34.1557C19.9024 32.1119 19.8229 31.6287 17.0051 28.0502C15.0963 25.6228 3.30649 10.6194 1.04927 12.6373C-0.299007 13.8399 1.49238 20.163 3.40874 24.4018C7.72247 33.9343 15.4485 38.9367 21.6256 42.9394C27.5376 46.7686 27.7989 45.6545 39.3463 52.5346C43.0957 54.7665 45.9286 56.5852 46.2278 56.0319C47.0269 54.5415 41.4521 49.5391 36.1347 45.138V45.1307Z" fill="#F1F1E6" stroke="black" stroke-miterlimit="10"/>
<path opacity="0.2" d="M0.82251 15.7129C1.15958 18.4797 1.49664 20.2099 3.41301 24.4449C7.72673 33.9738 15.9679 39.9206 29.034 47.177C29.034 47.177 29.9695 47.3688 26.5799 45.0964C20.8156 41.2376 10.7717 34.232 7.72673 29.499C2.71615 21.7076 0.82251 15.7129 0.82251 15.7129Z" fill="black"/>
<path d="M40.6547 45.4171C30.0844 37.8139 23.343 30.255 19.1012 24.6661C13.3976 17.1551 9.4853 9.63678 8.0272 10.4742C6.95918 11.0903 7.80375 15.8344 8.75436 18.9148C10.4624 24.4595 12.4659 28.3773 15.5185 31.7675C17.4841 33.9478 25.4866 41.1489 33.7088 44.9302C35.3941 45.7049 37.9051 46.6714 40.9122 49.2722C44.1504 52.0685 45.3509 54.4849 46.0061 54.1676C46.9492 53.7102 46.1197 47.9331 43.1051 46.0295C42.162 45.4319 41.2493 45.3765 40.6509 45.4171H40.6547Z" fill="#F1F1E6" stroke="black" stroke-miterlimit="10"/>
<path opacity="0.2" d="M8.19977 16.2539C8.66182 18.637 8.85118 19.7585 9.24506 20.7029C11.3205 25.6721 13.199 29.3649 16.1834 32.5154C18.1073 34.5443 25.6327 41.3986 33.7109 44.9291C33.7109 44.9291 19.0428 35.3117 14.3503 28.0811C9.54047 20.666 8.19977 16.2539 8.19977 16.2539Z" fill="black"/>
<path d="M51.5336 62.5055C50.6019 62.0591 48.7651 64.9255 47.8751 66.8549C47.7463 67.1316 45.9549 71.0715 46.8336 71.7909C47.6062 72.4254 50.5186 70.6251 51.6207 67.7034C52.3971 65.6449 52.3289 62.8855 51.5336 62.5055Z" fill="#F1F1E6" stroke="black" stroke-miterlimit="10"/>
<path opacity="0.2" d="M46.6287 70.5781C46.3901 73.2748 49.4919 71.0466 50.6016 69.5488C50.6016 69.5488 49.7911 70.449 48.2686 70.9691C46.7461 71.4893 46.6287 70.5781 46.6287 70.5781Z" fill="black"/>
<path d="M53.5139 65.143C52.783 64.7962 51.3325 67.0613 50.6318 68.5849C50.5334 68.8026 49.1207 71.9125 49.8062 72.4806C50.4122 72.9823 52.7035 71.5546 53.5745 69.2453C54.1881 67.6184 54.1351 65.4381 53.5102 65.143H53.5139Z" fill="#F1F1E6" stroke="black" stroke-miterlimit="10"/>
<path opacity="0.2" d="M49.6489 71.5241C49.4596 73.6527 51.8986 71.8893 52.7734 70.7051C52.7734 70.7051 52.1334 71.4171 50.9366 71.8302C49.7398 72.2434 49.6489 71.5241 49.6489 71.5241Z" fill="black"/>
<path d="M55.8333 66.7301C55.2614 66.3722 53.9434 68.0766 53.2769 69.246C53.1822 69.412 51.8377 71.8099 52.3566 72.3411C52.8148 72.8133 54.7653 71.88 55.6212 70.0834C56.2234 68.8181 56.3218 67.0326 55.8333 66.7301Z" fill="#F1F1E6" stroke="black" stroke-miterlimit="10"/>
<path opacity="0.2" d="M52.2882 71.5419C51.9965 73.261 54.0871 72.0694 54.8711 71.1914C54.8711 71.1914 54.3068 71.7079 53.3107 71.9255C52.3147 72.1432 52.2882 71.5419 52.2882 71.5419Z" fill="black"/>
<path d="M49.4378 64.2073C48.6803 63.5286 46.1428 65.1481 44.7718 66.3581C44.5749 66.5315 41.8026 68.9995 42.4313 69.8738C42.988 70.6411 46.2224 70.2427 48.0706 68.3354C49.3772 66.9889 50.0816 64.7865 49.4378 64.2073Z" fill="#F1F1E6" stroke="black" stroke-miterlimit="10"/>
<path opacity="0.2" d="M42.363 69.1126C42.2266 70.9645 46.226 70.2451 48.0742 68.3379C48.0742 68.3379 45.8094 69.6217 44.3286 69.5885C42.8402 69.5553 42.363 69.1126 42.363 69.1126Z" fill="black"/>
<path d="M48.4418 60.3687C43.5751 60.8778 40.9013 61.8443 38.8637 62.8256C37.9813 63.2536 36.5421 65.0133 36.7959 65.6183C37.0989 66.3413 39.3864 66.725 40.7347 66.8172C42.4049 66.9316 47.1314 67.1566 49.0326 62.287C49.2409 61.7521 49.3697 61.2725 49.4492 60.9442L48.438 60.3613L48.4418 60.3687Z" fill="#F1F1E6" stroke="black" stroke-miterlimit="10"/>
<path opacity="0.2" d="M36.7585 65.3477C37.1259 66.2404 40.3867 67.8562 45.8594 65.9822C45.8594 65.9822 42.7311 66.3917 40.595 66.0781C38.4401 65.7571 36.7585 65.3513 36.7585 65.3513V65.3477Z" fill="black"/>
<path d="M47.2906 58.1785C41.3105 58.8278 32.3157 61.2884 32.6793 63.1883C32.8194 63.9298 35.5841 63.6015 37.1142 64.0183C39.6782 64.7193 43.9162 63.026 46.7074 61.211C47.2073 60.8863 48.0481 60.2001 48.2109 59.8866C47.8625 59.6579 47.6769 58.138 47.2906 58.1785Z" fill="#F1F1E6" stroke="black" stroke-miterlimit="10"/>
<path opacity="0.2" d="M32.7861 62.6914C32.4679 63.9937 35.5622 63.7612 37.1149 64.0158C39.6524 64.4253 38.77 64.1744 40.8984 63.8166C40.8984 63.8166 38.2625 63.8977 36.9824 63.5362C35.6947 63.171 33.1345 63.4292 32.7861 62.6914Z" fill="black"/>
<path d="M46.0514 55.7215C39.9198 55.2345 36.2878 55.6809 33.542 56.1236C32.3528 56.3154 30.2925 57.3004 30.3948 57.9202C30.516 58.6617 33.1443 59.1412 34.6668 59.9528C36.943 61.1665 42.1657 61.7679 46.1044 57.6656C46.54 57.2119 46.8619 56.7913 47.0664 56.5036C46.7256 56.2416 46.3885 55.9797 46.0476 55.7178L46.0514 55.7215Z" fill="#F1F1E6" stroke="black" stroke-miterlimit="10"/>
<path opacity="0.2" d="M30.3909 57.6465C30.2129 58.1187 32.7125 59.4246 35.1477 60.1846C37.7307 60.9925 42.3398 60.6568 40.5446 60.6974C38.7381 60.7416 36.5339 60.251 35.0303 59.432C33.5154 58.6093 30.7053 58.0855 30.3909 57.6465Z" fill="black"/>
<path d="M38.2875 53.6258C35.9091 53.5963 28.9216 52.1207 28.6905 53.0835C28.4595 54.0464 31.7317 55.6142 33.2997 56.1455C35.2425 56.8058 39.8933 58.1376 45.0554 55.854C45.6197 55.6032 45.7333 53.932 45.9492 53.6516C45.6159 53.3528 40.647 53.6553 38.2913 53.6258H38.2875Z" fill="#F1F1E6" stroke="black" stroke-miterlimit="10"/>
<path opacity="0.2" d="M28.8305 53.3477C28.9517 54.2109 31.6558 55.4836 33.22 56.0185C35.1628 56.6789 36.0263 57.2876 37.9844 57.0478C37.9844 57.0478 36.0112 56.9298 32.8071 55.3951C29.5577 53.8383 29.694 53.9268 28.8305 53.3477Z" fill="black"/>
<path d="M41.8191 50.7998C33.5325 49.0327 26.3139 48.092 26.3935 49.7189C26.4389 50.6485 29.5559 52.3492 30.4232 52.6111C38.7855 55.1382 44.9626 54.2011 45.8336 53.2051C45.9473 53.076 45.6026 51.8032 45.1406 51.4159C44.0271 51.2093 42.9212 51.0064 41.8191 50.8035V50.7998Z" fill="#F1F1E6" stroke="black" stroke-miterlimit="10"/>
<path opacity="0.2" d="M26.3944 49.5332C26.4209 50.9055 30.0567 53.3551 37.457 53.9748C37.457 53.9748 31.9806 52.8423 29.6439 51.6323C27.2844 50.4112 26.3944 49.5369 26.3944 49.5369V49.5332Z" fill="black"/>
<path d="M41.9364 48.6368C33.0287 44.1693 25.0072 41.4541 24.5262 43.1585C24.2535 44.1324 27.2076 47.2792 28.1014 47.8178C36.7705 53.0452 44.1179 51.6471 45.5002 50.9019C45.6782 50.806 45.7918 48.5298 45.4018 47.9838C44.186 47.4083 43.1294 49.1938 41.9326 48.6331L41.9364 48.6368Z" fill="#F1F1E6" stroke="black" stroke-miterlimit="10"/>
<path opacity="0.2" d="M24.5274 43.1582C25.2357 46.3087 30.2765 50.6396 38.707 51.4217C38.707 51.4217 31.2196 49.1161 28.7843 47.3637C26.3605 45.6188 24.8759 44.1469 24.5274 43.1582Z" fill="black"/>
<path d="M41.8197 45.122C33.2567 39.1973 25.4511 34.5823 24.6406 36.1391C24.1823 37.0244 26.0684 40.518 26.7766 41.3997C33.8134 50.1133 43.952 49.0324 45.5426 48.5749C45.7509 48.5159 45.607 47.9958 45.3003 47.4092C44.1338 46.6419 42.9711 45.8819 41.8159 45.122H41.8197Z" fill="#F1F1E6" stroke="black" stroke-miterlimit="10"/>
<path opacity="0.2" d="M24.6417 36.1345C24.6985 39.2666 28.9403 47.3862 40.8438 48.8065C40.8438 48.8065 35.4696 47.187 31.5876 44.7338C30.2772 43.9074 28.145 41.8711 27.7208 41.3066C26.0203 39.0415 25.0735 37.7725 24.6417 36.1309V36.1345Z" fill="black"/>
<path d="M40.4738 41.4631C36.0464 39.3751 32.8803 37.0399 30.8313 35.3171C27.0062 32.1076 23.8211 28.3226 23.3287 28.8575C23.2151 28.983 23.2454 29.3408 23.6355 30.2557C25.1769 33.8673 28.0098 35.9627 29.6346 37.1949C36.5653 42.4518 37.2167 43.0937 38.4817 44.3812C41.4244 47.3804 43.6059 46.554 44.1739 47.6829C45.6321 50.5936 45.0715 47.9743 45.4124 47.9817C45.9464 47.9965 45.8252 50.7153 44.1664 46.3253C43.6248 44.8976 42.9961 43.7651 42.5 42.9793C41.822 42.4702 41.1517 41.9648 40.4776 41.4631H40.4738Z" fill="#F1F1E6" stroke="black" stroke-miterlimit="10"/>
<path opacity="0.2" d="M23.2945 28.7988C23.1809 28.9243 23.215 28.9243 23.6316 30.2044C25.1692 34.9116 33.827 40.2018 35.4062 41.4007C35.4062 41.4007 29.1231 36.0405 27.15 33.9266C25.1541 31.7944 23.2945 28.7988 23.2945 28.7988Z" fill="black"/>
<path d="M35.7385 33.8754C35.7915 33.8385 37.083 36.454 39.5675 39.3574C42.192 42.4193 43.1389 42.2975 44.525 44.4593C46.3013 47.2261 45.7938 49.0375 46.8239 52.7966C47.4905 55.2204 47.8427 57.6257 51.0354 61.0417C54.1561 64.3767 54.7886 64.052 56.3868 67.4829C56.8792 68.5416 57.095 70.2017 56.4739 70.6591C56.2505 70.8252 55.4968 71.1424 52.395 68.597C49.2137 65.9851 47.2822 64.4209 45.3166 58.2122C44.1425 54.5047 45.256 54.062 43.7335 49.4507C43.0556 47.3922 42.1958 45.7247 40.5143 42.4857C37.9503 37.546 35.6703 33.9197 35.7347 33.8754H35.7385Z" fill="#F1F1E6" stroke="black" stroke-miterlimit="10"/>
<path opacity="0.2" d="M56.7734 70.1978C56.425 70.8877 55.5009 71.1459 52.3991 68.6005C49.2178 65.9886 47.2863 64.4244 45.3207 58.2157C44.1466 54.5082 45.2601 54.0655 43.7376 49.4542C43.0597 47.3957 42.2 45.7282 40.5184 42.4892C37.9544 37.5495 35.6745 33.9232 35.7388 33.8789C35.7388 33.8789 39.992 39.9364 41.1433 42.1166C42.2833 44.2821 44.5822 48.0376 45.2487 52.8186C45.4419 54.1946 45.6388 57.4705 46.5894 59.5991C47.0287 60.5841 47.4378 61.7204 48.0665 62.7902C48.6005 63.6903 49.339 64.5351 49.9109 65.2951C51.8878 67.9217 54.1148 69.3457 55.4555 69.9617C56.141 70.2753 56.7734 70.2015 56.7734 70.2015V70.1978Z" fill="black"/>
<defs>
<clipPath id="clip0_4855_130992">
<rect width="46.5467" height="8.68126" fill="white" transform="matrix(-1 0 0 1 79.2344 25.2246)"/>
</clipPath>
</defs>
</svg>
