<svg width="131" height="173" viewBox="0 0 131 173" fill="none" xmlns="http://www.w3.org/2000/svg">
<path d="M24.8308 8.80751C35.72 8.00067 44.8528 5.44508 48.0753 2.59302C48.6596 3.50868 49.0952 4.54818 49.3572 5.73028C49.8849 10.0309 50.9331 14.6768 49.0704 18.8535C48.7835 19.4952 48.61 20.1895 48.6171 20.9025C48.8367 40.6755 49.8707 75.6208 68.4903 89.9674C78.4163 98.2309 83.8479 96.8191 94.0179 100.199C106.629 104.389 124.65 105.265 126.952 108.455C129.503 111.99 123.409 113.219 120.577 121.026C118.981 125.424 125.54 127.593 122.348 133.223C119.155 138.852 112.086 138.399 109.602 141.854C106.695 145.895 111.724 151.798 106.589 157.24C101.454 162.681 93.6797 158.016 89.4167 160.617C84.7202 163.484 82.4984 172.77 78.0839 172.626C71.8854 172.425 52.2751 133.795 30.348 126.635C30.2382 126.598 30.1249 126.571 30.0116 126.556C16.1088 124.515 2.95681 124.05 2.02547 105.38C2.00777 100.644 2.60977 95.9455 4.3662 91.6636C10.1065 77.681 6.69278 41.366 4.8124 26.9181C4.68137 26.1 4.55389 25.2181 3.93064 24.7265C-0.177147 20.546 0.028244 13.6297 0.315079 7.97065C0.435478 7.25764 0.608994 6.59716 0.817924 5.97796C4.25643 8.39846 13.7575 9.62935 24.8202 8.80751H24.8308Z" fill="#E1E6AE"/>
<path fill-rule="evenodd" clip-rule="evenodd" d="M48.1109 2.31592L47.9605 2.44903C46.3816 3.84649 43.326 5.19031 39.283 6.28546C35.2493 7.37807 30.2567 8.21696 24.8234 8.6199H24.8127L24.8065 8.62036C19.2841 9.03062 14.1542 8.92826 9.97883 8.42222C5.79424 7.91507 2.59624 7.00545 0.914619 5.8217L0.726128 5.68901L0.64994 5.91482C0.437996 6.54294 0.261795 7.21349 0.139519 7.93763L0.137596 7.94904L0.137009 7.96062C-0.00635529 10.789 -0.130798 13.9508 0.298576 16.9314C0.728203 19.9137 1.7147 22.7328 3.80673 24.8619L3.81475 24.87L3.82365 24.8771C4.0972 25.0928 4.2684 25.3985 4.38761 25.7616C4.50267 26.112 4.56476 26.5004 4.62797 26.8957L4.63573 26.9438C4.63586 26.9448 4.63599 26.9457 4.63612 26.9467C5.57573 34.1669 6.89818 46.849 7.26881 59.4712C7.45415 65.7833 7.40137 72.0771 6.94437 77.6638C6.48708 83.254 5.6261 88.1213 4.20258 91.5888C2.43326 95.9021 1.82938 100.628 1.84715 105.381L1.84717 105.385L1.8474 105.39C2.08138 110.08 3.08372 113.643 4.68441 116.377C6.28592 119.112 8.47903 121.006 11.0742 122.372C13.6669 123.736 16.662 124.573 19.8713 125.196C22.1971 125.648 24.6436 125.99 27.1357 126.337C28.0806 126.469 29.0321 126.602 29.986 126.742L29.9884 126.743C30.091 126.756 30.1934 126.78 30.2924 126.814L30.2946 126.814C35.7429 128.594 41.0581 132.332 46.068 136.955C51.0767 141.577 55.7706 147.075 59.9776 152.361C62.04 154.952 63.9844 157.492 65.7915 159.852L65.8988 159.992C67.7356 162.39 69.4298 164.601 70.9582 166.484C72.4857 168.367 73.8525 169.928 75.0344 171.027C75.6255 171.576 76.1746 172.014 76.6782 172.318C77.1803 172.621 77.6492 172.8 78.0772 172.814C79.2459 172.852 80.2559 172.263 81.1763 171.35C82.0951 170.439 82.9432 169.186 83.7901 167.855C83.9779 167.56 84.1656 167.261 84.3543 166.961C85.0202 165.901 85.6968 164.824 86.4236 163.839C87.3557 162.575 88.3585 161.479 89.5038 160.78C90.5302 160.154 91.7789 159.958 93.1766 159.945C94.0961 159.936 95.063 160.005 96.0633 160.077C96.5891 160.115 97.124 160.153 97.6662 160.181C100.792 160.342 104.089 160.154 106.713 157.373C109.337 154.592 109.36 151.683 109.106 149.003C109.072 148.641 109.033 148.284 108.994 147.933C108.89 146.981 108.79 146.072 108.803 145.201C108.82 144.018 109.045 142.936 109.741 141.968C110.337 141.139 111.215 140.535 112.267 140.009C113.021 139.632 113.851 139.3 114.72 138.953C115.065 138.815 115.417 138.675 115.772 138.529C118.253 137.504 120.869 136.191 122.498 133.319C123.314 131.88 123.515 130.646 123.367 129.535C123.221 128.43 122.733 127.466 122.211 126.565C122.093 126.362 121.975 126.164 121.858 125.968C121.446 125.279 121.052 124.619 120.793 123.927C120.465 123.05 120.361 122.14 120.741 121.094C122.038 117.517 124.025 115.337 125.552 113.662C125.675 113.527 125.794 113.396 125.91 113.268C126.684 112.411 127.324 111.655 127.595 110.878C127.734 110.482 127.778 110.078 127.699 109.653C127.621 109.23 127.422 108.799 127.092 108.341C126.775 107.903 126.207 107.524 125.462 107.184C124.712 106.841 123.76 106.526 122.651 106.226C120.433 105.628 117.563 105.088 114.379 104.517C113.815 104.416 113.241 104.314 112.659 104.21C106.662 103.144 99.8041 101.925 94.0696 100.02C91.5193 99.1722 89.2667 98.6253 87.1701 98.1529C86.7394 98.0558 86.3156 97.9619 85.8973 97.8693C84.2774 97.5105 82.7404 97.1701 81.2073 96.7333C77.3594 95.6372 73.5418 93.9352 68.5984 89.8199L68.5958 89.8177L68.5932 89.8157C59.3366 82.6834 54.4359 70.4167 51.8256 57.4308C49.2162 44.4496 48.9026 30.7866 48.7929 20.9003C48.7862 20.2211 48.9515 19.5551 49.2291 18.9339C50.1773 16.8077 50.3817 14.568 50.2858 12.3299C50.2173 10.7315 49.9944 9.12058 49.7771 7.55012C49.6911 6.928 49.6059 6.31223 49.5315 5.70612L49.5304 5.69668L49.5283 5.6874C49.2614 4.48351 48.8173 3.42286 48.2207 2.48794L48.1109 2.31592ZM48.0338 2.86921C48.5511 3.72116 48.9404 4.68067 49.1815 5.76405C49.2572 6.38017 49.3431 7.00054 49.4293 7.62381C49.6456 9.18708 49.8644 10.7686 49.932 12.3469C50.0265 14.551 49.8235 16.7227 48.9091 18.7732C48.6131 19.4354 48.4314 20.1577 48.4388 20.9045C48.5486 30.7912 48.8618 44.4877 51.4792 57.509C54.0955 70.5244 59.0209 82.9025 68.3822 90.1171C73.3636 94.2637 77.2242 95.9872 81.1154 97.0957C82.659 97.5355 84.2084 97.8786 85.8295 98.2377C86.2467 98.3301 86.6686 98.4235 87.0965 98.5199C89.1888 98.9915 91.4289 99.5355 93.9636 100.378C99.7229 102.292 106.606 103.515 112.598 104.58C113.181 104.684 113.756 104.786 114.32 104.887C117.506 105.458 120.361 105.996 122.564 106.59C123.665 106.887 124.597 107.197 125.322 107.528C126.053 107.862 126.551 108.209 126.81 108.569C127.118 108.995 127.287 109.374 127.352 109.726C127.417 110.075 127.382 110.408 127.263 110.747C127.022 111.439 126.439 112.14 125.654 113.008C125.538 113.137 125.418 113.268 125.295 113.404C123.767 115.08 121.734 117.309 120.41 120.959C119.992 122.112 120.11 123.121 120.463 124.065C120.736 124.794 121.154 125.493 121.569 126.187C121.684 126.379 121.798 126.57 121.909 126.761C122.427 127.655 122.881 128.564 123.017 129.587C123.151 130.602 122.975 131.751 122.195 133.126C120.631 135.883 118.116 137.158 115.643 138.179C115.298 138.322 114.951 138.46 114.609 138.597C113.735 138.946 112.884 139.285 112.115 139.67C111.043 140.206 110.106 140.841 109.459 141.74C108.702 142.793 108.466 143.964 108.449 145.195C108.436 146.093 108.539 147.039 108.645 147.999C108.683 148.345 108.721 148.693 108.754 149.041C109.004 151.683 108.973 154.447 106.463 157.107C103.953 159.767 100.795 159.967 97.6834 159.806C97.1567 159.779 96.6293 159.741 96.1068 159.704C95.097 159.632 94.1056 159.561 93.1734 159.57C91.7539 159.583 90.4321 159.78 89.3271 160.455C88.1241 161.189 87.088 162.329 86.1446 163.608C85.4087 164.605 84.722 165.698 84.055 166.76C83.8675 167.059 83.6815 167.355 83.4965 167.645C82.649 168.977 81.8205 170.197 80.9343 171.076C80.0498 171.954 79.1266 172.472 78.0881 172.439C77.7412 172.427 77.3306 172.28 76.8536 171.992C76.3783 171.705 75.8491 171.285 75.2679 170.745C74.1054 169.664 72.7518 168.119 71.2267 166.24C69.7023 164.361 68.0114 162.155 66.1738 159.755L66.0657 159.614C64.2591 157.255 62.3129 154.713 60.2483 152.119C56.037 146.828 51.3295 141.313 46.3006 136.672C41.2731 132.033 35.9146 128.257 30.3997 126.456C30.2801 126.415 30.157 126.387 30.034 126.37C30.0334 126.37 30.0328 126.37 30.0323 126.37L30.0103 126.556L30.0346 126.37C30.0344 126.37 30.0342 126.37 30.034 126.37C29.0746 126.23 28.1199 126.096 27.1733 125.964C24.6846 125.617 22.2515 125.277 19.9352 124.827C16.7393 124.206 13.7813 123.377 11.2317 122.036C8.68467 120.696 6.54622 118.845 4.98533 116.179C3.42414 113.512 2.43336 110.017 2.20125 105.375C2.20125 105.376 2.20127 105.378 2.20127 105.379L2.02421 105.38L2.20102 105.37C2.2011 105.371 2.20117 105.373 2.20125 105.375C2.184 100.656 2.78433 95.9875 4.5273 91.7385C5.97392 88.2147 6.83884 83.2991 7.29717 77.6962C7.75578 72.0897 7.80836 65.7801 7.62276 59.4596C7.25156 46.8184 5.92728 34.1208 4.98653 26.8925L4.98616 26.8896L4.98569 26.8867L4.97555 26.8232C4.91381 26.4365 4.84721 26.0194 4.72206 25.6382C4.59014 25.2365 4.38839 24.8586 4.04427 24.5833C4.04686 24.5859 4.04944 24.5886 4.05202 24.5912L3.92937 24.7265L4.0351 24.576C4.03817 24.5784 4.04123 24.5809 4.04427 24.5833C2.03378 22.5328 1.07101 19.8067 0.648643 16.8748C0.226051 13.9413 0.346802 10.8201 0.490021 7.99242C0.48938 7.99619 0.488739 7.99996 0.488106 8.00373L0.313812 7.97068L0.490616 7.98075C0.490417 7.98464 0.490211 7.98853 0.490021 7.99242C0.594078 7.37954 0.738022 6.80594 0.910339 6.26403C0.844589 6.22118 0.780701 6.17794 0.718689 6.13429L0.816658 5.97799L0.983376 6.04117C0.958504 6.11486 0.934151 6.18914 0.910339 6.26403C2.70766 7.43518 5.89528 8.30503 9.93859 8.79506C14.1375 9.30395 19.2872 9.40622 24.8251 8.99517H24.8189V8.80754L24.8313 8.99471C24.8307 8.99476 24.8301 8.9948 24.8295 8.99484C24.8281 8.99495 24.8266 8.99506 24.8251 8.99517H24.8357L24.8419 8.99472C30.2953 8.59064 35.3115 7.74854 39.3706 6.64904C43.299 5.58497 46.3537 4.27396 48.0338 2.86921Z" fill="black"/>
<path d="M4.39625 91.6373C2.97976 96.058 2.03426 100.618 2.05551 105.353C2.95497 123.385 15.2536 124.436 28.6181 126.324C35.6226 100.711 26.7731 89.8698 4.39979 91.6336L4.39625 91.6373Z" fill="#F8D047"/>
<path fill-rule="evenodd" clip-rule="evenodd" d="M28.489 126.116C28.065 126.057 27.6422 125.998 27.2211 125.939C21.047 125.078 15.2252 124.266 10.7447 121.727C8.34004 120.365 6.32657 118.506 4.85711 115.876C3.38732 113.246 2.45548 109.832 2.23132 105.348C2.211 100.682 3.13457 96.1826 4.52623 91.8118C15.6347 90.9558 23.3211 93.2327 27.3841 98.8271C31.447 104.421 31.9413 113.406 28.489 126.116ZM27.6647 98.5982C23.4747 92.829 15.5885 90.5634 4.38543 91.4465L4.31986 91.4517L4.24063 91.5357L4.22736 91.5771C2.80681 96.0105 1.85585 100.591 1.87722 105.354L1.87724 105.359L1.87747 105.363C2.10344 109.894 3.04609 113.372 4.5524 116.067C6.05955 118.765 8.12466 120.668 10.5777 122.058C15.118 124.631 21.0038 125.451 27.1562 126.309C27.6338 126.375 28.1131 126.442 28.5934 126.51L28.7445 126.531L28.7869 126.376C32.2929 113.556 31.8522 104.364 27.6647 98.5982Z" fill="black"/>
<path d="M24.8322 8.80751C35.7214 8.00067 44.8542 5.44508 48.0767 2.59302C48.661 3.50868 49.0966 4.54818 49.3586 5.73028C49.8863 10.0309 50.9345 14.6768 49.0718 18.8535C34.9282 24.8729 19.8462 26.1 3.9356 24.7265C-0.172195 20.546 0.0331993 13.6297 0.320038 7.97065C0.440437 7.25764 0.61396 6.59716 0.822891 5.97796C4.2614 8.39846 13.7624 9.62935 24.8252 8.80751H24.8322Z" fill="#F8D047"/>
<path fill-rule="evenodd" clip-rule="evenodd" d="M48.1123 2.31592L47.9619 2.44903C46.383 3.84649 43.3274 5.19031 39.2844 6.28546C35.2507 7.37807 30.2582 8.21696 24.8248 8.6199H24.8177L24.8115 8.62036C19.2891 9.03062 14.1592 8.92826 9.98379 8.42222C5.7992 7.91507 2.6012 7.00545 0.919582 5.8217L0.731083 5.68901L0.654888 5.91482C0.442951 6.54294 0.266743 7.21349 0.144463 7.93763L0.14254 7.94904L0.141953 7.96062C-0.00140762 10.789 -0.125854 13.9508 0.30352 16.9314C0.733154 19.9137 1.71964 22.7328 3.81168 24.8619L3.85714 24.9081L3.91995 24.9136C19.8476 26.2885 34.9593 25.0613 49.1365 19.0277L49.2009 19.0002L49.2306 18.9337C50.1788 16.8075 50.3831 14.568 50.2872 12.3299C50.2187 10.7316 49.9958 9.12062 49.7785 7.55018C49.6925 6.92803 49.6073 6.31225 49.5329 5.70612L49.5318 5.69668L49.5297 5.6874C49.2628 4.48351 48.8187 3.42286 48.2221 2.48794L48.1123 2.31592ZM48.0352 2.86921C48.5525 3.72115 48.9418 4.68064 49.1829 5.764C49.2586 6.38013 49.3444 7.00051 49.4307 7.62379C49.647 9.18707 49.8658 10.7686 49.9334 12.3469C50.0268 14.5272 49.8292 16.6759 48.9398 18.7069C34.8672 24.6803 19.8579 25.9062 4.01181 24.545C2.02677 22.4988 1.07333 19.7884 0.653587 16.8748C0.230995 13.9413 0.351757 10.82 0.494976 7.99237C0.599033 7.37952 0.742977 6.80593 0.915298 6.26403C2.71262 7.43519 5.90023 8.30503 9.94355 8.79506C14.1424 9.30395 19.2921 9.40622 24.8301 8.99517H24.8371L24.8433 8.99472C30.2967 8.59064 35.313 7.74854 39.3721 6.64904C43.3004 5.58497 46.3551 4.27396 48.0352 2.86921Z" fill="black"/>
<path d="M0.887272 5.79423C0.887272 7.74564 12.421 10.1962 24.9568 9.1379C37.4962 8.08338 48.1411 4.01169 47.9746 2.46933C47.8932 1.71128 41.1968 -0.3377 25.1551 0.311519C9.11348 0.960738 0.883728 4.79976 0.883728 5.79048L0.887272 5.79423Z" fill="#F8D047"/>
<path fill-rule="evenodd" clip-rule="evenodd" d="M47.798 2.49721C47.8 2.53423 47.788 2.59423 47.7325 2.68296C47.6739 2.77647 47.5764 2.88628 47.434 3.01038C47.1494 3.25826 46.7119 3.54057 46.1317 3.84548C44.9734 4.45416 43.2769 5.13715 41.1781 5.80678C36.982 7.14557 31.1983 8.42457 24.9415 8.95074L24.9415 8.95074C18.6873 9.47871 12.6837 9.13121 8.24667 8.40912C6.02725 8.04792 4.20619 7.59402 2.94399 7.11211C2.31176 6.87073 1.82887 6.6257 1.50746 6.38767C1.17532 6.14169 1.06302 5.93903 1.06302 5.79412V5.77841C1.06838 5.76367 1.08182 5.7353 1.1155 5.69191C1.167 5.62557 1.25073 5.54361 1.3727 5.44795C1.61591 5.25721 1.98846 5.0295 2.49432 4.77742C3.50441 4.27408 5.02401 3.68444 7.04874 3.10395C11.097 1.94333 17.1515 0.823045 25.1606 0.498909C33.174 0.174599 38.848 0.524479 42.5251 1.04855C44.3642 1.31068 45.7 1.61585 46.5775 1.90039C47.0171 2.04294 47.3356 2.17836 47.5432 2.29729C47.6474 2.357 47.7171 2.40886 47.7594 2.45046C47.7861 2.4767 47.7953 2.49234 47.798 2.49721ZM42.5723 0.676629C38.8703 0.149004 33.1753 -0.200997 25.1471 0.123912C17.1145 0.448994 11.0333 1.57283 6.95626 2.7417C4.91835 3.32597 3.37791 3.92242 2.34362 4.43782C1.82729 4.69512 1.43156 4.93493 1.16204 5.1463C1.02765 5.2517 0.918907 5.35445 0.842018 5.4535C0.768642 5.54803 0.70536 5.66332 0.70536 5.79037V5.86815L0.713757 5.87704C0.749966 6.18575 0.985332 6.45881 1.30461 6.69527C1.66292 6.96063 2.17903 7.21893 2.82396 7.46517C4.11607 7.9585 5.96193 8.41697 8.19292 8.78004C12.6567 9.5065 18.6879 9.85513 24.9696 9.32483C31.2522 8.79649 37.0606 7.51239 41.2802 6.16612C43.3892 5.49321 45.1064 4.80318 46.289 4.18168C46.8793 3.87149 47.3441 3.57442 47.6588 3.30029C47.816 3.16338 47.9423 3.02654 48.0276 2.89044C48.1123 2.75512 48.1661 2.60444 48.1493 2.44799M42.5723 0.676629C44.4226 0.940351 45.7788 1.24898 46.6811 1.54154L42.5723 0.676629ZM46.6811 1.54154C47.1313 1.68753 47.4747 1.83148 47.7116 1.96717L46.6811 1.54154ZM47.7116 1.96717C47.8296 2.03477 47.9277 2.10402 48.0003 2.1754L47.7116 1.96717ZM48.0003 2.1754C48.0689 2.24288 48.137 2.33405 48.1492 2.4479L48.0003 2.1754Z" fill="black"/>
<path opacity="0.2" d="M66.5772 160.614C62.3278 155.311 53.6523 142.789 43.914 134.533C40.3728 131.53 40.1946 131.155 30.3536 126.635C30.2438 126.598 30.1305 126.571 30.0171 126.556C16.1144 124.515 2.96241 124.049 2.03107 105.38C2.01337 100.644 2.7039 95.983 4.3718 91.6636C9.88898 77.3883 6.69839 41.366 4.81801 26.9181C4.68699 26.1 4.55949 25.2181 3.93623 24.7265C0.511902 21.2402 0.0869675 15.8513 0.203827 10.879C0.228615 9.88826 0.777496 6.92362 0.827072 5.98169C0.827072 5.98169 3.6848 6.56336 6.68774 12.0911C9.69067 17.6188 9.23022 22.6813 10.5121 24.7415C11.794 26.8017 9.20899 58.5084 11.7374 75.1667C14.2658 91.825 3.60681 97.7242 10.9052 110.416C18.2036 123.108 24.2131 115.178 34.4755 121.085C44.7379 126.992 50.4652 133.219 56.6623 140.162C62.8594 147.104 68.8795 157.987 72.4207 162.303C74.3683 164.367 75.7758 168.857 78.7948 168.682C82.1591 168.307 84.6378 161.364 88.1764 159.3C90.5623 157.909 101.279 159.863 102.873 159.488C103.676 159.718 99.6858 160.426 97.03 159.863C94.3757 159.863 91.5408 158.925 88.0013 161.552C85.1684 164.179 81.8048 173.191 78.4407 172.623C75.0428 172.048 70.7537 166.132 68.3478 162.866C67.3684 161.536 66.5772 160.614 66.5772 160.614Z" fill="#F8D047"/>
<path opacity="0.2" d="M0.883299 5.53889C0.638956 6.85984 8.1109 9.53928 21.3125 9.35164C18.0865 8.5373 9.54154 6.81481 8.61021 5.93668C6.75107 4.18041 8.83684 2.45791 7.34599 2.83318C3.52858 3.79388 0.925797 5.32123 0.886843 5.54264L0.883299 5.53889Z" fill="black"/>
<path fill-rule="evenodd" clip-rule="evenodd" d="M86.6725 114.858C86.5877 114.806 86.4795 114.837 86.4307 114.927C86.3819 115.017 86.411 115.132 86.4958 115.183L86.5841 115.021L86.6725 114.858ZM122.35 133.034C122.415 132.859 122.415 132.859 122.415 132.859L122.3 132.811C122.224 132.779 122.111 132.732 121.966 132.672C121.675 132.55 121.252 132.372 120.721 132.147C119.659 131.699 118.167 131.064 116.45 130.32C113.016 128.833 108.681 126.911 105.072 125.17C101.495 123.444 96.8958 120.867 93.1886 118.72C91.3356 117.646 89.7064 116.681 88.5405 115.984C87.9576 115.635 87.4905 115.354 87.1691 115.159C87.0085 115.062 86.8843 114.987 86.8002 114.936L86.673 114.858L86.6725 114.858C86.6724 114.858 86.6725 114.858 86.5841 115.021C86.4958 115.183 86.4957 115.183 86.4958 115.183L86.6241 115.261C86.7083 115.313 86.8328 115.388 86.9936 115.485C87.3154 115.68 87.783 115.962 88.3665 116.31C89.5334 117.008 91.1641 117.975 93.0188 119.049C96.727 121.197 101.335 123.78 104.925 125.511C108.54 127.255 112.881 129.18 116.316 130.668C118.034 131.412 119.527 132.047 120.589 132.496C121.121 132.721 121.545 132.899 121.836 133.021C121.981 133.082 122.094 133.128 122.17 133.16L122.285 133.208L122.285 133.208C122.286 133.208 122.286 133.208 122.35 133.034ZM122.35 133.034L122.415 132.859C122.506 132.897 122.551 133.006 122.515 133.102C122.479 133.199 122.377 133.246 122.285 133.208L122.35 133.034Z" fill="black"/>
<path fill-rule="evenodd" clip-rule="evenodd" d="M72.3597 129.331C72.2876 129.261 72.1756 129.266 72.1096 129.342C72.0435 129.419 72.0485 129.538 72.1206 129.608L72.2402 129.469L72.3597 129.331ZM106.413 157.385C106.506 157.225 106.506 157.225 106.506 157.225L106.389 157.148C106.311 157.096 106.197 157.02 106.049 156.922C105.754 156.725 105.324 156.438 104.79 156.078C103.72 155.358 102.228 154.344 100.539 153.171C97.1603 150.824 92.9969 147.841 89.8489 145.292C86.7261 142.763 82.355 138.774 78.7617 135.414C76.9657 133.735 75.3651 132.214 74.2135 131.113C73.6377 130.562 73.1742 130.117 72.8547 129.809C72.6949 129.655 72.5711 129.535 72.4873 129.454L72.3597 129.331C72.3596 129.331 72.3597 129.331 72.2402 129.469C72.1206 129.608 72.1206 129.607 72.1206 129.608L72.2486 129.731C72.3326 129.813 72.4565 129.932 72.6164 130.086C72.9363 130.395 73.4001 130.841 73.9763 131.392C75.1286 132.493 76.7302 134.015 78.5274 135.696C82.1207 139.055 86.5001 143.052 89.6339 145.59C92.7925 148.148 96.9647 151.137 100.345 153.485C102.036 154.659 103.529 155.674 104.6 156.395C105.135 156.756 105.565 157.043 105.861 157.24C106.009 157.338 106.123 157.414 106.201 157.466L106.319 157.544L106.319 157.544C106.319 157.544 106.319 157.544 106.413 157.385ZM106.413 157.385L106.506 157.225C106.589 157.28 106.615 157.396 106.563 157.484C106.511 157.572 106.402 157.599 106.319 157.544L106.413 157.385Z" fill="black"/>
<g clip-path="url(#clip0_4986_325932)">
<path d="M73.6094 83.8477C66.3464 83.672 62.1813 86.8687 61.43 92.3804C61.3198 93.1864 61.723 94.0076 62.1291 94.5712C63.0282 95.8257 63.91 97.0347 66.0187 97.171C68.574 97.3346 73.1163 97.5467 72.4028 94.8651" fill="#F7931E"/>
<path d="M73.6094 83.8477C66.3464 83.672 62.1813 86.8687 61.43 92.3804C61.3198 93.1864 61.723 94.0076 62.1291 94.5712C63.0282 95.8257 63.91 97.0347 66.0187 97.171C68.574 97.3346 73.1163 97.5467 72.4028 94.8651" stroke="black" stroke-width="0.338972" stroke-miterlimit="10" stroke-linecap="round"/>
<path opacity="0.2" d="M66.0123 97.1751C68.5619 97.3993 75.4884 97.5387 70.2413 94.0935C70.2413 94.0935 71.474 95.654 69.9832 96.4479C68.3067 97.3448 66.0094 97.1751 66.0094 97.1751H66.0123Z" fill="black"/>
<path d="M69.4367 90.1675C69.4367 94.6581 71.9109 97.2155 74.8404 96.2338C77.0564 95.4944 78.4922 92.834 78.4922 90.1463C78.4922 87.4586 77.0564 84.7982 74.8404 84.0559C71.9109 83.0741 69.4367 85.677 69.4367 90.1675Z" fill="#FFF383" stroke="black" stroke-width="0.338972" stroke-miterlimit="10" stroke-linecap="round"/>
<path d="M76.9531 87.5939C76.3585 85.9849 75.236 84.6638 73.777 84.1759C73.4116 84.0547 73.0519 83.9881 72.7038 83.9729" stroke="black" stroke-width="0.338972" stroke-miterlimit="10" stroke-linecap="round"/>
<path d="M76.9219 93.3518C76.2896 94.6911 75.2715 95.7547 73.9923 96.1819C73.6269 96.3031 73.2672 96.3698 72.9191 96.3849" stroke="black" stroke-width="0.338972" stroke-miterlimit="10" stroke-linecap="round"/>
<path d="M68.7756 90.1805C68.7727 83.2567 73.7036 83.8506 73.7036 83.8506C71.3107 83.8173 69.4631 86.2868 69.4631 90.1684C69.4631 94.0499 71.3861 96.5861 73.8516 96.4376C73.8516 96.4376 68.7785 97.0588 68.7756 90.1805Z" fill="#C4711E" stroke="black" stroke-width="0.338972" stroke-miterlimit="10" stroke-linecap="round"/>
</g>
<g clip-path="url(#clip1_4986_325932)">
<path d="M49.1719 97.7327C41.9089 97.557 37.7438 100.754 36.9925 106.265C36.8823 107.071 37.2855 107.893 37.6916 108.456C38.5907 109.711 39.4725 110.92 41.5812 111.056C44.1365 111.22 48.6788 111.432 47.9653 108.75" fill="#F7931E"/>
<path d="M49.1719 97.7327C41.9089 97.557 37.7438 100.754 36.9925 106.265C36.8823 107.071 37.2855 107.893 37.6916 108.456C38.5907 109.711 39.4725 110.92 41.5812 111.056C44.1365 111.22 48.6788 111.432 47.9653 108.75" stroke="black" stroke-width="0.338972" stroke-miterlimit="10" stroke-linecap="round"/>
<path opacity="0.2" d="M41.5748 111.06C44.1244 111.284 51.0509 111.424 45.8038 107.979C45.8038 107.979 47.0365 109.539 45.5457 110.333C43.8692 111.23 41.5719 111.06 41.5719 111.06H41.5748Z" fill="black"/>
<path d="M44.9992 104.053C44.9992 108.543 47.4734 111.101 50.4029 110.119C52.6189 109.379 54.0547 106.719 54.0547 104.031C54.0547 101.344 52.6189 98.6832 50.4029 97.9409C47.4734 96.9591 44.9992 99.562 44.9992 104.053Z" fill="#FFF383" stroke="black" stroke-width="0.338972" stroke-miterlimit="10" stroke-linecap="round"/>
<path d="M52.5156 101.479C51.921 99.8699 50.7985 98.5488 49.3395 98.0609C48.9741 97.9397 48.6144 97.8731 48.2663 97.8579" stroke="black" stroke-width="0.338972" stroke-miterlimit="10" stroke-linecap="round"/>
<path d="M52.4844 107.237C51.8521 108.576 50.834 109.64 49.5548 110.067C49.1894 110.188 48.8297 110.255 48.4816 110.27" stroke="black" stroke-width="0.338972" stroke-miterlimit="10" stroke-linecap="round"/>
<path d="M44.3381 104.065C44.3352 97.1417 49.2661 97.7356 49.2661 97.7356C46.8732 97.7023 45.0256 100.172 45.0256 104.053C45.0256 107.935 46.9486 110.471 49.4141 110.323C49.4141 110.323 44.341 110.944 44.3381 104.065Z" fill="#C4711E" stroke="black" stroke-width="0.338972" stroke-miterlimit="10" stroke-linecap="round"/>
</g>
<defs>
<clipPath id="clip0_4986_325932">
<rect width="17.3655" height="13.8687" fill="white" transform="matrix(-1 0 0 1 78.6289 83.6855)"/>
</clipPath>
<clipPath id="clip1_4986_325932">
<rect width="17.3655" height="13.8687" fill="white" transform="matrix(-1 0 0 1 54.1914 97.5706)"/>
</clipPath>
</defs>
</svg>
