<svg width="131" height="173" viewBox="0 0 131 173" fill="none" xmlns="http://www.w3.org/2000/svg">
<path d="M24.8308 8.80763C35.72 8.0008 44.8528 5.4452 48.0753 2.59314C48.6596 3.5088 49.0952 4.5483 49.3572 5.73041C49.8849 10.031 50.9331 14.6769 49.0704 18.8536C48.7835 19.4954 48.61 20.1896 48.6171 20.9026C48.8367 40.6757 49.8707 75.6209 68.4903 89.9675C78.4163 98.231 83.8479 96.8193 94.0179 100.199C106.629 104.39 124.65 105.265 126.952 108.455C129.503 111.99 123.409 113.219 120.577 121.026C118.981 125.424 125.54 127.594 122.348 133.223C119.155 138.852 112.086 138.399 109.602 141.854C106.695 145.896 111.724 151.799 106.589 157.24C101.454 162.681 93.6797 158.016 89.4167 160.617C84.7202 163.484 82.4984 172.77 78.0839 172.626C71.8854 172.425 52.2751 133.795 30.348 126.635C30.2382 126.598 30.1249 126.571 30.0116 126.556C16.1088 124.515 2.95681 124.05 2.02547 105.38C2.00777 100.644 2.60977 95.9456 4.3662 91.6637C10.1065 77.6811 6.69278 41.3662 4.8124 26.9182C4.68137 26.1001 4.55389 25.2182 3.93064 24.7266C-0.177147 20.5461 0.028244 13.6299 0.315079 7.97078C0.435478 7.25776 0.608994 6.59728 0.817924 5.97809C4.25643 8.39858 13.7575 9.62947 24.8202 8.80763H24.8308Z" fill="#ABDEB7"/>
<path fill-rule="evenodd" clip-rule="evenodd" d="M48.1109 2.31604L47.9605 2.44915C46.3816 3.84661 43.326 5.19043 39.283 6.28558C35.2493 7.3782 30.2567 8.21708 24.8234 8.62002H24.8127L24.8065 8.62048C19.2841 9.03074 14.1542 8.92838 9.97883 8.42234C5.79424 7.91519 2.59624 7.00558 0.914619 5.82182L0.726128 5.68913L0.64994 5.91494C0.437996 6.54306 0.261795 7.21362 0.139519 7.93775L0.137596 7.94916L0.137009 7.96074C-0.00635529 10.7891 -0.130798 13.951 0.298576 16.9315C0.728203 19.9138 1.7147 22.7329 3.80673 24.862L3.81475 24.8701L3.82365 24.8772C4.0972 25.0929 4.2684 25.3986 4.38761 25.7617C4.50267 26.1121 4.56476 26.5005 4.62797 26.8958L4.63573 26.9439C4.63586 26.9449 4.63599 26.9459 4.63612 26.9469C5.57573 34.167 6.89818 46.8491 7.26881 59.4713C7.45415 65.7834 7.40137 72.0772 6.94437 77.6639C6.48708 83.2542 5.6261 88.1214 4.20258 91.5889C2.43326 95.9022 1.82938 100.629 1.84715 105.381L1.84717 105.385L1.8474 105.39C2.08138 110.08 3.08372 113.643 4.68441 116.377C6.28592 119.113 8.47903 121.007 11.0742 122.372C13.6669 123.736 16.662 124.573 19.8713 125.196C22.1971 125.648 24.6436 125.99 27.1357 126.338C28.0806 126.469 29.0321 126.602 29.986 126.742L29.9884 126.743C30.091 126.756 30.1934 126.78 30.2924 126.814L30.2946 126.815C35.7429 128.594 41.0581 132.332 46.068 136.955C51.0767 141.577 55.7706 147.075 59.9776 152.361C62.04 154.953 63.9844 157.492 65.7915 159.852L65.8988 159.992C67.7356 162.391 69.4298 164.601 70.9582 166.484C72.4857 168.367 73.8525 169.928 75.0344 171.027C75.6255 171.576 76.1746 172.014 76.6782 172.318C77.1803 172.621 77.6492 172.8 78.0772 172.814C79.2459 172.852 80.2559 172.263 81.1763 171.35C82.0951 170.439 82.9432 169.186 83.7901 167.855C83.9779 167.56 84.1656 167.262 84.3543 166.961C85.0202 165.901 85.6968 164.824 86.4236 163.839C87.3557 162.575 88.3585 161.479 89.5038 160.78C90.5302 160.154 91.7789 159.958 93.1766 159.945C94.0961 159.936 95.063 160.005 96.0633 160.077C96.5891 160.115 97.124 160.153 97.6662 160.181C100.792 160.342 104.089 160.154 106.713 157.373C109.337 154.592 109.36 151.684 109.106 149.003C109.072 148.641 109.033 148.284 108.994 147.933C108.89 146.981 108.79 146.072 108.803 145.201C108.82 144.018 109.045 142.936 109.741 141.968C110.337 141.139 111.215 140.535 112.267 140.009C113.021 139.632 113.851 139.3 114.72 138.953C115.065 138.816 115.417 138.675 115.772 138.529C118.253 137.504 120.869 136.192 122.498 133.319C123.314 131.88 123.515 130.646 123.367 129.535C123.221 128.43 122.733 127.466 122.211 126.565C122.093 126.363 121.975 126.164 121.858 125.968C121.446 125.279 121.052 124.619 120.793 123.927C120.465 123.051 120.361 122.14 120.741 121.094C122.038 117.517 124.025 115.337 125.552 113.662C125.675 113.527 125.794 113.396 125.91 113.268C126.684 112.411 127.324 111.655 127.595 110.878C127.734 110.482 127.778 110.079 127.699 109.653C127.621 109.231 127.422 108.799 127.092 108.341C126.775 107.903 126.207 107.525 125.462 107.184C124.712 106.841 123.76 106.526 122.651 106.227C120.433 105.628 117.563 105.088 114.379 104.517C113.815 104.416 113.241 104.314 112.659 104.211C106.662 103.145 99.8041 101.925 94.0696 100.02C91.5193 99.1723 89.2667 98.6255 87.1701 98.153C86.7394 98.0559 86.3156 97.962 85.8973 97.8694C84.2774 97.5106 82.7404 97.1702 81.2073 96.7335C77.3594 95.6373 73.5418 93.9354 68.5984 89.82L68.5958 89.8178L68.5932 89.8158C59.3366 82.6835 54.4359 70.4168 51.8256 57.4309C49.2162 44.4497 48.9026 30.7867 48.7929 20.9004C48.7862 20.2212 48.9515 19.5552 49.2291 18.934C50.1773 16.8078 50.3817 14.5681 50.2858 12.33C50.2173 10.7317 49.9944 9.1207 49.7771 7.55024C49.6911 6.92812 49.6059 6.31235 49.5315 5.70624L49.5304 5.6968L49.5283 5.68752C49.2614 4.48363 48.8173 3.42299 48.2207 2.48806L48.1109 2.31604ZM48.0338 2.86934C48.5511 3.72128 48.9404 4.68079 49.1815 5.76417C49.2572 6.38029 49.3431 7.00066 49.4293 7.62393C49.6456 9.1872 49.8644 10.7687 49.932 12.347C50.0265 14.5511 49.8235 16.7228 48.9091 18.7733C48.6131 19.4355 48.4314 20.1579 48.4388 20.9046C48.5486 30.7914 48.8618 44.4878 51.4792 57.5091C54.0955 70.5245 59.0209 82.9026 68.3822 90.1172C73.3636 94.2638 77.2242 95.9874 81.1154 97.0959C82.659 97.5356 84.2084 97.8788 85.8295 98.2378C86.2467 98.3302 86.6686 98.4236 87.0965 98.52C89.1888 98.9916 91.4289 99.5356 93.9636 100.378C99.7229 102.292 106.606 103.515 112.598 104.58C113.181 104.684 113.756 104.786 114.32 104.887C117.506 105.458 120.361 105.996 122.564 106.59C123.665 106.887 124.597 107.197 125.322 107.528C126.053 107.863 126.551 108.209 126.81 108.569C127.118 108.995 127.287 109.375 127.352 109.726C127.417 110.075 127.382 110.408 127.263 110.747C127.022 111.439 126.439 112.14 125.654 113.009C125.538 113.137 125.418 113.269 125.295 113.404C123.767 115.08 121.734 117.309 120.41 120.959C119.992 122.112 120.11 123.122 120.463 124.065C120.736 124.794 121.154 125.493 121.569 126.187C121.684 126.379 121.798 126.57 121.909 126.761C122.427 127.655 122.881 128.564 123.017 129.587C123.151 130.602 122.975 131.751 122.195 133.126C120.631 135.883 118.116 137.158 115.643 138.179C115.298 138.322 114.951 138.46 114.609 138.597C113.735 138.946 112.884 139.285 112.115 139.67C111.043 140.206 110.106 140.841 109.459 141.74C108.702 142.793 108.466 143.964 108.449 145.195C108.436 146.093 108.539 147.039 108.645 147.999C108.683 148.345 108.721 148.693 108.754 149.041C109.004 151.683 108.973 154.447 106.463 157.107C103.953 159.768 100.795 159.967 97.6834 159.806C97.1567 159.779 96.6293 159.741 96.1068 159.704C95.097 159.632 94.1056 159.561 93.1734 159.57C91.7539 159.583 90.4321 159.78 89.3271 160.455C88.1241 161.189 87.088 162.329 86.1446 163.608C85.4087 164.606 84.722 165.699 84.055 166.76C83.8675 167.059 83.6815 167.355 83.4965 167.646C82.649 168.977 81.8205 170.197 80.9343 171.076C80.0498 171.954 79.1266 172.472 78.0881 172.439C77.7412 172.427 77.3306 172.28 76.8536 171.992C76.3783 171.705 75.8491 171.285 75.2679 170.745C74.1054 169.664 72.7518 168.119 71.2267 166.24C69.7023 164.361 68.0114 162.155 66.1738 159.756L66.0657 159.614C64.2591 157.255 62.3129 154.713 60.2483 152.119C56.037 146.828 51.3295 141.313 46.3006 136.672C41.2731 132.033 35.9146 128.257 30.3997 126.456C30.2801 126.415 30.157 126.387 30.034 126.371C30.0334 126.37 30.0328 126.37 30.0323 126.37L30.0103 126.556L30.0346 126.371C30.0344 126.371 30.0342 126.371 30.034 126.371C29.0746 126.23 28.1199 126.096 27.1733 125.964C24.6846 125.617 22.2515 125.277 19.9352 124.827C16.7393 124.206 13.7813 123.377 11.2317 122.036C8.68467 120.696 6.54622 118.845 4.98533 116.179C3.42414 113.512 2.43336 110.017 2.20125 105.375C2.20125 105.376 2.20127 105.378 2.20127 105.379L2.02421 105.38L2.20102 105.37C2.2011 105.372 2.20117 105.373 2.20125 105.375C2.184 100.656 2.78433 95.9876 4.5273 91.7386C5.97392 88.2149 6.83884 83.2992 7.29717 77.6963C7.75578 72.0898 7.80836 65.7802 7.62276 59.4597C7.25156 46.8186 5.92728 34.1209 4.98653 26.8926L4.98616 26.8897L4.98569 26.8868L4.97555 26.8233C4.91381 26.4366 4.84721 26.0195 4.72206 25.6384C4.59014 25.2366 4.38839 24.8587 4.04427 24.5834C4.04686 24.5861 4.04944 24.5887 4.05202 24.5913L3.92937 24.7267L4.0351 24.5761C4.03817 24.5786 4.04123 24.581 4.04427 24.5834C2.03378 22.5329 1.07101 19.8068 0.648643 16.8749C0.226051 13.9414 0.346802 10.8202 0.490021 7.99254C0.48938 7.99631 0.488739 8.00008 0.488106 8.00386L0.313812 7.9708L0.490616 7.98087C0.490417 7.98476 0.490211 7.98865 0.490021 7.99254C0.594078 7.37966 0.738022 6.80606 0.910339 6.26415C0.844589 6.22131 0.780701 6.17806 0.718689 6.13441L0.816658 5.97811L0.983376 6.04129C0.958504 6.11499 0.934151 6.18927 0.910339 6.26415C2.70766 7.43531 5.89528 8.30515 9.93859 8.79519C14.1375 9.30407 19.2872 9.40634 24.8251 8.99529H24.8189V8.80766L24.8313 8.99483C24.8307 8.99488 24.8301 8.99492 24.8295 8.99497C24.8281 8.99508 24.8266 8.99518 24.8251 8.99529H24.8357L24.8419 8.99484C30.2953 8.59077 35.3115 7.74866 39.3706 6.64916C43.299 5.5851 46.3537 4.27408 48.0338 2.86934Z" fill="black"/>
<path d="M4.39625 91.6376C2.97976 96.0583 2.03426 100.618 2.05551 105.354C2.95497 123.386 15.2536 124.436 28.6181 126.324C35.6226 100.712 26.7731 89.87 4.39979 91.6338L4.39625 91.6376Z" fill="#0BA85B"/>
<path fill-rule="evenodd" clip-rule="evenodd" d="M28.489 126.117C28.065 126.057 27.6422 125.998 27.2211 125.939C21.047 125.078 15.2252 124.266 10.7447 121.727C8.34004 120.365 6.32657 118.506 4.85711 115.876C3.38732 113.246 2.45548 109.832 2.23132 105.348C2.211 100.682 3.13457 96.1827 4.52623 91.812C15.6347 90.9559 23.3211 93.2328 27.3841 98.8272C31.447 104.422 31.9413 113.406 28.489 126.117ZM27.6647 98.5984C23.4747 92.8291 15.5885 90.5635 4.38543 91.4467L4.31986 91.4518L4.24063 91.5358L4.22736 91.5772C2.80681 96.0106 1.85585 100.592 1.87722 105.355L1.87724 105.359L1.87747 105.364C2.10344 109.894 3.04609 113.372 4.5524 116.068C6.05955 118.765 8.12466 120.668 10.5777 122.058C15.118 124.631 21.0038 125.451 27.1562 126.309C27.6338 126.375 28.1131 126.442 28.5934 126.51L28.7445 126.531L28.7869 126.376C32.2929 113.556 31.8522 104.364 27.6647 98.5984Z" fill="black"/>
<path d="M24.8322 8.80763C35.7214 8.0008 44.8542 5.4452 48.0767 2.59314C48.661 3.5088 49.0966 4.5483 49.3586 5.73041C49.8863 10.031 50.9345 14.6769 49.0718 18.8536C34.9282 24.873 19.8462 26.1001 3.9356 24.7266C-0.172195 20.5461 0.0331993 13.6299 0.320038 7.97078C0.440437 7.25776 0.61396 6.59728 0.822891 5.97809C4.2614 8.39858 13.7624 9.62947 24.8252 8.80763H24.8322Z" fill="#0BA85B"/>
<path fill-rule="evenodd" clip-rule="evenodd" d="M48.1123 2.31604L47.9619 2.44915C46.383 3.84661 43.3274 5.19043 39.2844 6.28558C35.2507 7.3782 30.2582 8.21708 24.8248 8.62002H24.8177L24.8115 8.62048C19.2891 9.03074 14.1592 8.92838 9.98379 8.42234C5.7992 7.91519 2.6012 7.00558 0.919582 5.82182L0.731083 5.68913L0.654888 5.91494C0.442951 6.54306 0.266743 7.21361 0.144463 7.93775L0.14254 7.94916L0.141953 7.96074C-0.00140762 10.7891 -0.125854 13.951 0.30352 16.9315C0.733154 19.9138 1.71964 22.7329 3.81168 24.862L3.85714 24.9083L3.91995 24.9137C19.8476 26.2886 34.9593 25.0614 49.1365 19.0278L49.2009 19.0004L49.2306 18.9338C50.1788 16.8077 50.3831 14.5681 50.2872 12.33C50.2187 10.7317 49.9958 9.12074 49.7785 7.5503C49.6925 6.92815 49.6073 6.31237 49.5329 5.70624L49.5318 5.6968L49.5297 5.68752C49.2628 4.48363 48.8187 3.42299 48.2221 2.48806L48.1123 2.31604ZM48.0352 2.86933C48.5525 3.72127 48.9418 4.68076 49.1829 5.76412C49.2586 6.38025 49.3444 7.00063 49.4307 7.62391C49.647 9.18719 49.8658 10.7687 49.9334 12.347C50.0268 14.5274 49.8292 16.676 48.9398 18.7071C34.8672 24.6804 19.8579 25.9063 4.01181 24.5451C2.02677 22.499 1.07333 19.7886 0.653587 16.8749C0.230995 13.9414 0.351757 10.8202 0.494976 7.9925C0.599033 7.37964 0.742977 6.80605 0.915298 6.26416C2.71262 7.43531 5.90023 8.30516 9.94355 8.79519C14.1424 9.30407 19.2921 9.40634 24.8301 8.99529H24.8371L24.8433 8.99484C30.2967 8.59077 35.313 7.74866 39.3721 6.64916C43.3004 5.5851 46.3551 4.27408 48.0352 2.86933Z" fill="black"/>
<path d="M0.887272 5.79423C0.887272 7.74564 12.421 10.1962 24.9568 9.1379C37.4962 8.08338 48.1411 4.01169 47.9746 2.46933C47.8932 1.71128 41.1968 -0.3377 25.1551 0.311519C9.11348 0.960738 0.883728 4.79976 0.883728 5.79048L0.887272 5.79423Z" fill="#0BA85B"/>
<path fill-rule="evenodd" clip-rule="evenodd" d="M47.798 2.49733C47.8 2.53436 47.788 2.59435 47.7325 2.68308C47.6739 2.77659 47.5764 2.88641 47.434 3.01051C47.1494 3.25838 46.7119 3.54069 46.1317 3.8456C44.9734 4.45428 43.2769 5.13727 41.1781 5.8069C36.982 7.14569 31.1983 8.42469 24.9415 8.95086L24.9415 8.95087C18.6873 9.47884 12.6837 9.13133 8.24667 8.40924C6.02725 8.04805 4.20619 7.59414 2.94399 7.11223C2.31176 6.87085 1.82887 6.62582 1.50746 6.38779C1.17532 6.14181 1.06302 5.93916 1.06302 5.79424V5.77853C1.06838 5.76379 1.08182 5.73542 1.1155 5.69203C1.167 5.62569 1.25073 5.54373 1.3727 5.44808C1.61591 5.25734 1.98846 5.02962 2.49432 4.77754C3.50441 4.2742 5.02401 3.68456 7.04874 3.10407C11.097 1.94345 17.1515 0.823168 25.1606 0.499031C33.174 0.174721 38.848 0.524601 42.5251 1.04867C44.3642 1.3108 45.7 1.61597 46.5775 1.90051C47.0171 2.04307 47.3356 2.17849 47.5432 2.29741C47.6474 2.35712 47.7171 2.40899 47.7594 2.45059C47.7861 2.47682 47.7953 2.49246 47.798 2.49733ZM42.5723 0.676751C38.8703 0.149126 33.1753 -0.200875 25.1471 0.124034C17.1145 0.449117 11.0333 1.57295 6.95626 2.74183C4.91835 3.32609 3.37791 3.92254 2.34362 4.43794C1.82729 4.69524 1.43156 4.93506 1.16204 5.14643C1.02765 5.25182 0.918907 5.35457 0.842018 5.45363C0.768642 5.54815 0.70536 5.66344 0.70536 5.79049V5.86827L0.713757 5.87716C0.749966 6.18587 0.985332 6.45893 1.30461 6.69539C1.66292 6.96075 2.17903 7.21905 2.82396 7.46529C4.11607 7.95862 5.96193 8.41709 8.19292 8.78017C12.6567 9.50662 18.6879 9.85525 24.9696 9.32495C31.2522 8.79661 37.0606 7.51251 41.2802 6.16624C43.3892 5.49334 45.1064 4.80331 46.289 4.1818C46.8793 3.87162 47.3441 3.57454 47.6588 3.30041C47.816 3.1635 47.9423 3.02666 48.0276 2.89056C48.1123 2.75525 48.1661 2.60456 48.1493 2.44811M42.5723 0.676751C44.4226 0.940474 45.7788 1.2491 46.6811 1.54166L42.5723 0.676751ZM46.6811 1.54166C47.1313 1.68765 47.4747 1.83161 47.7116 1.96729L46.6811 1.54166ZM47.7116 1.96729C47.8296 2.03489 47.9277 2.10414 48.0003 2.17552L47.7116 1.96729ZM48.0003 2.17552C48.0689 2.243 48.137 2.33417 48.1492 2.44802L48.0003 2.17552Z" fill="black"/>
<path opacity="0.2" d="M66.5772 160.614C62.3278 155.311 53.6523 142.789 43.914 134.533C40.3728 131.531 40.1946 131.155 30.3536 126.635C30.2438 126.598 30.1305 126.571 30.0171 126.556C16.1144 124.515 2.96241 124.05 2.03107 105.38C2.01337 100.644 2.7039 95.9831 4.3718 91.6637C9.88898 77.3884 6.69839 41.3661 4.81801 26.9182C4.68699 26.1001 4.55949 25.2182 3.93623 24.7266C0.511902 21.2403 0.0869675 15.8514 0.203827 10.8791C0.228615 9.88838 0.777496 6.92374 0.827072 5.98181C0.827072 5.98181 3.6848 6.56348 6.68774 12.0912C9.69067 17.619 9.23022 22.6814 10.5121 24.7416C11.794 26.8019 9.20899 58.5085 11.7374 75.1668C14.2658 91.8251 3.60681 97.7243 10.9052 110.416C18.2036 123.108 24.2131 115.178 34.4755 121.085C44.7379 126.992 50.4652 133.219 56.6623 140.162C62.8594 147.104 68.8795 157.987 72.4207 162.303C74.3683 164.367 75.7758 168.857 78.7948 168.682C82.1591 168.307 84.6378 161.365 88.1764 159.301C90.5623 157.909 101.279 159.863 102.873 159.488C103.676 159.718 99.6858 160.426 97.03 159.863C94.3757 159.863 91.5408 158.925 88.0013 161.552C85.1684 164.179 81.8048 173.191 78.4407 172.623C75.0428 172.049 70.7537 166.132 68.3478 162.866C67.3684 161.536 66.5772 160.614 66.5772 160.614Z" fill="#0BA85B"/>
<path opacity="0.2" d="M0.883299 5.53901C0.638956 6.85996 8.1109 9.5394 21.3125 9.35177C18.0865 8.53743 9.54154 6.81493 8.61021 5.9368C6.75107 4.18053 8.83684 2.45803 7.34599 2.83331C3.52858 3.794 0.925797 5.32135 0.886843 5.54276L0.883299 5.53901Z" fill="black"/>
<path fill-rule="evenodd" clip-rule="evenodd" d="M86.6725 114.858C86.5877 114.806 86.4795 114.837 86.4307 114.927C86.3819 115.017 86.411 115.131 86.4958 115.183L86.5841 115.021L86.6725 114.858ZM122.35 133.034C122.415 132.859 122.415 132.859 122.415 132.859L122.3 132.811C122.224 132.779 122.111 132.732 121.966 132.671C121.675 132.55 121.252 132.372 120.721 132.147C119.659 131.698 118.167 131.064 116.45 130.32C113.016 128.833 108.681 126.91 105.072 125.17C101.495 123.444 96.8958 120.867 93.1886 118.72C91.3356 117.646 89.7064 116.681 88.5405 115.984C87.9576 115.635 87.4905 115.354 87.1691 115.159C87.0085 115.062 86.8843 114.987 86.8002 114.936L86.673 114.858L86.6725 114.858C86.6724 114.858 86.6725 114.858 86.5841 115.021C86.4958 115.183 86.4957 115.183 86.4958 115.183L86.6241 115.261C86.7083 115.312 86.8328 115.388 86.9936 115.485C87.3154 115.68 87.783 115.961 88.3665 116.31C89.5334 117.008 91.1641 117.974 93.0188 119.049C96.727 121.197 101.335 123.78 104.925 125.511C108.54 127.255 112.881 129.179 116.316 130.667C118.034 131.412 119.527 132.047 120.589 132.496C121.121 132.72 121.545 132.898 121.836 133.02C121.981 133.081 122.094 133.128 122.17 133.16L122.285 133.208L122.285 133.208C122.286 133.208 122.286 133.208 122.35 133.034ZM122.35 133.034L122.415 132.859C122.506 132.897 122.551 133.006 122.515 133.102C122.479 133.199 122.377 133.246 122.285 133.208L122.35 133.034Z" fill="black"/>
<path fill-rule="evenodd" clip-rule="evenodd" d="M72.3597 129.331C72.2876 129.261 72.1756 129.266 72.1096 129.342C72.0435 129.419 72.0485 129.538 72.1206 129.608L72.2402 129.469L72.3597 129.331ZM106.413 157.385C106.506 157.225 106.506 157.225 106.506 157.225L106.389 157.148C106.311 157.096 106.197 157.02 106.049 156.922C105.754 156.725 105.324 156.438 104.79 156.078C103.72 155.358 102.228 154.344 100.539 153.171C97.1603 150.824 92.9969 147.841 89.8489 145.292C86.7261 142.763 82.355 138.774 78.7617 135.414C76.9657 133.735 75.3651 132.214 74.2135 131.113C73.6377 130.562 73.1742 130.117 72.8547 129.809C72.6949 129.655 72.5711 129.535 72.4873 129.454L72.3597 129.331C72.3596 129.331 72.3597 129.331 72.2402 129.469C72.1206 129.608 72.1206 129.607 72.1206 129.608L72.2486 129.731C72.3326 129.813 72.4565 129.932 72.6164 130.086C72.9363 130.395 73.4001 130.841 73.9763 131.392C75.1286 132.493 76.7302 134.015 78.5274 135.696C82.1207 139.055 86.5001 143.052 89.6339 145.59C92.7925 148.148 96.9647 151.137 100.345 153.485C102.036 154.659 103.529 155.674 104.6 156.395C105.135 156.756 105.565 157.043 105.861 157.24C106.009 157.338 106.123 157.414 106.201 157.466L106.319 157.544L106.319 157.544C106.319 157.544 106.319 157.544 106.413 157.385ZM106.413 157.385L106.506 157.225C106.589 157.28 106.615 157.396 106.563 157.484C106.511 157.572 106.402 157.599 106.319 157.544L106.413 157.385Z" fill="black"/>
<g clip-path="url(#clip0_4986_324994)">
<path d="M40.6593 43.6891C41.5689 53.5901 43.413 57.5004 42.8916 61.0907C42.3729 63.9234 36.6007 65.9249 30.3076 66.5294C23.9985 66.9032 18.0122 65.817 17.1087 63.0976C16.0977 59.6239 17.383 55.4728 16.9177 45.5372L40.6593 43.6891Z" fill="#0BA85B" stroke="#231F20" stroke-miterlimit="10"/>
<path opacity="0.2" d="M29.7596 66.5589C40.1995 64.8261 42.0442 60.3834 41.8922 59.059C41.7402 57.7347 40.2649 48.3951 39.5692 46.6838C38.8735 44.9724 33.7759 45.3052 32.0543 45.3698C30.3326 45.4345 19.8339 45.6303 17.1433 45.6158L40.6612 43.6891C41.5708 53.5901 43.0834 58.0382 42.8936 61.0907C42.7965 62.7677 38.3221 66.119 29.7596 66.5589Z" fill="#231F20"/>
<path d="M41.4976 37.2501C41.807 37.226 42.0645 37.502 42.0345 37.8297C41.8754 39.5516 41.9932 41.2519 42.3881 42.9307C42.4629 43.2503 42.2462 43.5632 41.9368 43.5873C41.9368 43.5873 34.8697 44.6441 28.8233 45.1147C22.7768 45.5854 15.6399 45.6342 15.6399 45.6342C15.3304 45.6583 15.0729 45.3823 15.1029 45.0546C15.2621 43.3327 15.1442 41.6324 14.7493 39.9536C14.6745 39.634 14.8912 39.3211 15.2006 39.297C15.2006 39.297 22.4973 39.2358 28.384 38.7775C34.2708 38.3193 41.4976 37.2501 41.4976 37.2501Z" fill="#0BA85B" stroke="#231F20" stroke-miterlimit="10"/>
<path d="M15.2031 39.2968C15.2053 39.3286 22.4998 39.2355 28.3865 38.7773C34.2733 38.319 41.5017 37.2736 41.5001 37.2498" stroke="#231F20" stroke-miterlimit="10"/>
<path d="M28.543 41.0533L29.0421 41.0145" stroke="black" stroke-opacity="0.6" stroke-miterlimit="10"/>
<path d="M30.0352 40.9371L37.4965 40.3563" stroke="black" stroke-opacity="0.6" stroke-miterlimit="10" stroke-dasharray="3.99 3.99"/>
<path d="M37.9922 40.3177L38.4913 40.2789L38.528 40.8094" stroke="#BCBEC0" stroke-miterlimit="10"/>
<path d="M38.6015 41.8572L38.865 45.6585C39.6229 53.9151 41.0788 57.1835 40.6441 60.1776C40.2087 62.5478 35.4468 64.212 30.1826 64.7124C24.906 65.0325 19.9657 64.1235 19.2082 61.8462C18.3651 58.9488 19.3549 55.4927 18.9663 47.2074L18.6666 42.8836" stroke="black" stroke-opacity="0.6" stroke-miterlimit="10" stroke-dasharray="3.95 3.95"/>
<path d="M18.6266 42.3585L18.5898 41.828L19.0889 41.7892" stroke="#BCBEC0" stroke-miterlimit="10"/>
<path d="M20.0859 41.7117L27.5448 41.1311" stroke="black" stroke-opacity="0.6" stroke-miterlimit="10" stroke-dasharray="3.99 3.99"/>
<path d="M28.043 41.0922L28.5421 41.0533" stroke="black" stroke-opacity="0.6" stroke-miterlimit="10"/>
<path d="M18.5748 43.2159C19.2914 43.1601 19.8296 42.4973 19.7768 41.7355C19.724 40.9737 19.1002 40.4013 18.3836 40.4571C17.6669 40.5129 17.1287 41.1757 17.1815 41.9375C17.2344 42.6993 17.8581 43.2716 18.5748 43.2159Z" fill="black" stroke="#231F20" stroke-miterlimit="10"/>
<path d="M38.6998 41.6495C39.4164 41.5937 39.9546 40.9309 39.9018 40.1691C39.849 39.4073 39.2252 38.8349 38.5086 38.8907C37.7919 38.9465 37.2537 39.6093 37.3065 40.3711C37.3594 41.1329 37.9831 41.7052 38.6998 41.6495Z" fill="black" stroke="#231F20" stroke-miterlimit="10"/>
</g>
<defs>
<clipPath id="clip0_4986_324994">
<rect width="27.6305" height="29.2625" fill="white" transform="matrix(0.996984 -0.0776061 0.0691478 0.997606 14.5195 38.5444)"/>
</clipPath>
</defs>
</svg>
