<svg width="132" height="221" viewBox="0 0 132 221" fill="none" xmlns="http://www.w3.org/2000/svg">
<path d="M25.6707 8.80726C36.5599 8.00043 45.6927 5.44483 48.9151 2.59277C49.4994 3.50844 49.935 4.54794 50.1971 5.73004C50.7247 10.0306 51.7729 14.6765 49.9102 18.8533C49.6234 19.495 49.4499 20.1892 49.457 20.9023C49.6765 40.6753 50.7105 75.6205 69.3302 89.9672C79.2562 98.2306 84.6877 96.8189 94.8577 100.198C107.469 104.389 125.49 105.265 127.792 108.454C130.343 111.989 124.249 113.218 121.417 121.026C119.821 125.424 126.38 127.593 123.187 133.222C119.995 138.851 112.925 138.399 110.441 141.854C107.535 145.895 112.564 151.798 107.429 157.24C102.294 162.681 94.5195 158.015 90.2565 160.617C85.5601 163.484 83.3383 172.769 78.9237 172.626C72.7253 172.424 53.115 133.795 31.1879 126.635C31.0781 126.597 30.9648 126.571 30.8514 126.556C16.9487 124.515 3.79666 124.049 2.86532 105.38C2.84761 100.644 3.44961 95.9452 5.20605 91.6634C10.9463 77.6808 7.53262 41.3658 5.65224 26.9179C5.52122 26.0998 5.39374 25.2179 4.77049 24.7263C0.662693 20.5457 0.868086 13.6295 1.15492 7.97041C1.27532 7.25739 1.44884 6.59692 1.65777 5.97772C5.09628 8.39822 14.5973 9.62911 25.66 8.80726H25.6707Z" fill="#ABDEB7"/>
<path fill-rule="evenodd" clip-rule="evenodd" d="M48.9508 2.31641L48.8004 2.44952C47.2214 3.84698 44.1659 5.19079 40.1228 6.28595C36.0891 7.37856 31.0966 8.21745 25.6632 8.62039H25.6526L25.6464 8.62085C20.124 9.03111 14.9941 8.92875 10.8187 8.42271C6.63409 7.91556 3.43609 7.00594 1.75446 5.82218L1.56597 5.68949L1.48978 5.9153C1.27784 6.54343 1.10164 7.21398 0.979362 7.93812L0.977438 7.94953L0.976854 7.96111C0.83349 10.7895 0.709049 13.9513 1.13842 16.9319C1.56805 19.9142 2.55454 22.7333 4.64657 24.8624L4.65459 24.8705L4.6635 24.8775C4.93704 25.0933 5.10824 25.399 5.22745 25.7621C5.34251 26.1124 5.4046 26.5009 5.46781 26.8962L5.47558 26.9442C5.47571 26.9452 5.47584 26.9462 5.47597 26.9472C6.41557 34.1674 7.73802 46.8494 8.10866 59.4717C8.294 65.7838 8.24121 72.0776 7.78421 77.6643C7.32692 83.2545 6.46594 88.1218 5.04242 91.5893C3.2731 95.9025 2.66922 100.629 2.68699 105.381L2.68701 105.386L2.68724 105.39C2.92122 110.081 3.92356 113.643 5.52425 116.377C7.12576 119.113 9.31887 121.007 11.9141 122.372C14.5067 123.736 17.5018 124.573 20.7111 125.197C23.0369 125.649 25.4835 125.99 27.9755 126.338C28.9205 126.47 29.8719 126.603 30.8259 126.743L30.8282 126.743C30.9308 126.757 31.0333 126.78 31.1322 126.814L31.1344 126.815C36.5828 128.594 41.898 132.332 46.9079 136.956C51.9166 141.578 56.6104 147.076 60.8174 152.362C62.8798 154.953 64.8243 157.492 66.6313 159.852L66.7387 159.992C68.5754 162.391 70.2697 164.601 71.798 166.485C73.3256 168.367 74.6923 169.929 75.8743 171.027C76.4653 171.577 77.0145 172.014 77.5181 172.319C78.0201 172.622 78.4891 172.8 78.917 172.814C80.0857 172.852 81.0957 172.264 82.0161 171.351C82.9349 170.44 83.7831 169.186 84.6299 167.856C84.8177 167.561 85.0055 167.262 85.1941 166.962C85.8601 165.902 86.5367 164.825 87.2635 163.839C88.1955 162.575 89.1984 161.479 90.3436 160.78C91.37 160.154 92.6188 159.959 94.0164 159.945C94.9359 159.937 95.9028 160.006 96.9032 160.077C97.4289 160.115 97.9638 160.153 98.506 160.181C101.632 160.343 104.928 160.154 107.553 157.373C110.177 154.592 110.2 151.684 109.946 149.004C109.911 148.641 109.872 148.285 109.834 147.934C109.73 146.982 109.63 146.072 109.642 145.201C109.66 144.019 109.885 142.936 110.581 141.968C111.177 141.139 112.054 140.536 113.106 140.01C113.861 139.632 114.691 139.301 115.56 138.954C115.905 138.816 116.257 138.676 116.612 138.529C119.093 137.505 121.709 136.192 123.338 133.32C124.154 131.881 124.355 130.647 124.207 129.535C124.061 128.431 123.573 127.467 123.05 126.565C122.933 126.363 122.815 126.165 122.698 125.968C122.286 125.28 121.892 124.62 121.632 123.927C121.304 123.051 121.201 122.14 121.581 121.094C122.878 117.517 124.865 115.338 126.392 113.662C126.514 113.528 126.634 113.397 126.75 113.268C127.524 112.412 128.163 111.655 128.435 110.878C128.574 110.483 128.618 110.079 128.539 109.654C128.461 109.231 128.262 108.799 127.931 108.341C127.615 107.903 127.047 107.525 126.302 107.184C125.552 106.841 124.6 106.526 123.491 106.227C121.272 105.629 118.403 105.088 115.219 104.518C114.655 104.416 114.081 104.314 113.499 104.211C107.502 103.145 100.644 101.926 94.9094 100.02C92.3591 99.1727 90.1065 98.6258 88.01 98.1533C87.5793 98.0563 87.1554 97.9624 86.7372 97.8698C85.1172 97.511 83.5802 97.1706 82.0471 96.7338C78.1992 95.6376 74.3816 93.9357 69.4383 89.8204L69.4357 89.8182L69.433 89.8162C60.1765 82.6839 55.2757 70.4172 52.6654 57.4313C50.0561 44.45 49.7425 30.7871 49.6327 20.9008C49.626 20.2216 49.7913 19.5555 50.069 18.9344C51.0172 16.8082 51.2215 14.5685 51.1256 12.3303C51.0571 10.732 50.8343 9.12107 50.617 7.55061C50.5309 6.92848 50.4457 6.31272 50.3714 5.70661L50.3702 5.69716L50.3682 5.68789C50.1013 4.484 49.6571 3.42335 49.0605 2.48843L48.9508 2.31641ZM48.8737 2.8697C49.3909 3.72165 49.7802 4.68116 50.0214 5.76454C50.0971 6.38065 50.1829 7.00103 50.2691 7.62429C50.4854 9.18757 50.7042 10.7691 50.7719 12.3474C50.8663 14.5515 50.6634 16.7232 49.7489 18.7737C49.453 19.4359 49.2712 20.1582 49.2786 20.905C49.3884 30.7917 49.7016 44.4882 52.3191 57.5095C54.9353 70.5249 59.8608 82.903 69.2221 90.1176C74.2035 94.2642 78.064 95.9877 81.9552 97.0962C83.4988 97.536 85.0482 97.8791 86.6693 98.2381C87.0865 98.3305 87.5085 98.424 87.9363 98.5204C90.0287 98.992 92.2688 99.536 94.8035 100.378C100.563 102.292 107.445 103.515 113.437 104.581C114.021 104.684 114.595 104.786 115.16 104.888C118.346 105.458 121.201 105.997 123.403 106.591C124.505 106.888 125.436 107.197 126.162 107.529C126.892 107.863 127.391 108.21 127.65 108.569C127.958 108.995 128.126 109.375 128.192 109.726C128.257 110.076 128.222 110.409 128.103 110.748C127.861 111.439 127.279 112.141 126.494 113.009C126.378 113.137 126.258 113.269 126.135 113.404C124.606 115.08 122.574 117.309 121.25 120.959C120.832 122.112 120.95 123.122 121.303 124.065C121.576 124.794 121.994 125.494 122.409 126.188C122.524 126.379 122.638 126.57 122.749 126.761C123.267 127.656 123.721 128.564 123.856 129.587C123.991 130.603 123.814 131.751 123.034 133.126C121.471 135.883 118.956 137.159 116.483 138.179C116.137 138.322 115.791 138.46 115.449 138.597C114.575 138.946 113.723 139.286 112.955 139.67C111.883 140.207 110.946 140.842 110.299 141.741C109.542 142.793 109.306 143.964 109.288 145.195C109.275 146.093 109.379 147.039 109.484 148C109.522 148.346 109.56 148.693 109.593 149.041C109.844 151.683 109.813 154.447 107.303 157.108C104.792 159.768 101.634 159.967 98.5232 159.807C97.9965 159.779 97.4691 159.742 96.9466 159.704C95.9368 159.632 94.9454 159.561 94.0132 159.57C92.5937 159.584 91.272 159.781 90.1669 160.455C88.9639 161.189 87.9278 162.329 86.9845 163.608C86.2485 164.606 85.5619 165.699 84.8948 166.761C84.7073 167.059 84.5214 167.355 84.3363 167.646C83.4889 168.977 82.6604 170.198 81.7742 171.077C80.8897 171.954 79.9665 172.473 78.9279 172.439C78.581 172.428 78.1704 172.281 77.6935 171.993C77.2182 171.705 76.689 171.285 76.1078 170.745C74.9452 169.665 73.5917 168.119 72.0665 166.24C70.5421 164.362 68.8512 162.156 67.0137 159.756L66.9056 159.615C65.099 157.255 63.1527 154.714 61.0881 152.12C56.8768 146.828 52.1694 141.313 47.1404 136.673C42.1129 132.033 36.7545 128.258 31.2395 126.457C31.1199 126.416 30.9968 126.387 30.8738 126.371C30.8733 126.371 30.8727 126.371 30.8721 126.371L30.8502 126.557L30.8745 126.371C30.8743 126.371 30.8741 126.371 30.8738 126.371C29.9145 126.23 28.9598 126.097 28.0131 125.965C25.5244 125.617 23.0913 125.278 20.775 124.828C17.5791 124.207 14.6212 123.377 12.0716 122.036C9.52451 120.696 7.38607 118.846 5.82517 116.179C4.26399 113.513 3.27321 110.017 3.04109 105.375C3.04109 105.377 3.04111 105.378 3.04111 105.38L2.86405 105.38L3.04086 105.37C3.04094 105.372 3.04101 105.373 3.04109 105.375C3.02384 100.657 3.62418 95.988 5.36714 91.739C6.81376 88.2152 7.67868 83.2996 8.13701 77.6967C8.59563 72.0902 8.6482 65.7806 8.4626 59.46C8.09141 46.8189 6.76712 34.1213 5.82637 26.893L5.826 26.8901L5.82554 26.8872L5.81539 26.8237C5.75365 26.437 5.68706 26.0199 5.56191 25.6387C5.42999 25.237 5.22823 24.859 4.88412 24.5838C4.8867 24.5864 4.88928 24.5891 4.89187 24.5917L4.76922 24.727L4.87494 24.5765C4.87801 24.5789 4.88107 24.5814 4.88412 24.5838C2.87363 22.5332 1.91085 19.8072 1.48849 16.8752C1.06589 13.9418 1.18665 10.8206 1.32986 7.99291C1.32922 7.99668 1.32859 8.00045 1.32795 8.00422L1.15366 7.97117L1.33046 7.98123C1.33026 7.98513 1.33006 7.98901 1.32986 7.99291C1.43392 7.38003 1.57787 6.80643 1.75018 6.26452C1.68444 6.22167 1.62055 6.17842 1.55854 6.13478L1.6565 5.97848L1.82322 6.04166C1.79835 6.11535 1.77399 6.18963 1.75018 6.26452C3.54751 7.43567 6.73512 8.30552 10.7784 8.79555C14.9773 9.30444 20.127 9.40671 25.665 8.99566H25.6588V8.80802L25.6712 8.9952C25.6706 8.99524 25.67 8.99529 25.6694 8.99533C25.6679 8.99544 25.6664 8.99555 25.665 8.99566H25.6756L25.6817 8.9952C31.1352 8.59113 36.1514 7.74903 40.2105 6.64953C44.1388 5.58546 47.1935 4.27445 48.8737 2.8697Z" fill="black"/>
<path d="M5.23609 91.6383C3.81961 96.059 2.8741 100.619 2.89535 105.354C3.79481 123.386 16.0934 124.437 29.4579 126.325C36.4624 100.712 27.613 89.8708 5.23963 91.6346L5.23609 91.6383Z" fill="#0BA85B"/>
<path fill-rule="evenodd" clip-rule="evenodd" d="M29.3289 126.116C28.9048 126.057 28.4821 125.998 28.061 125.939C21.8869 125.078 16.065 124.266 11.5845 121.727C9.17988 120.365 7.16642 118.506 5.69696 115.876C4.22716 113.246 3.29532 109.832 3.07116 105.348C3.05084 100.682 3.97442 96.1826 5.36608 91.8118C16.4746 90.9558 24.1609 93.2327 28.2239 98.8271C32.2868 104.421 32.7811 113.406 29.3289 126.116ZM28.5045 98.5982C24.3146 92.829 16.4284 90.5634 5.22527 91.4465L5.1597 91.4517L5.08048 91.5357L5.06721 91.5771C3.64665 96.0105 2.6957 100.591 2.71707 105.354L2.71709 105.359L2.71731 105.363C2.94328 109.894 3.88594 113.372 5.39225 116.067C6.89939 118.765 8.96451 120.668 11.4175 122.058C15.9579 124.631 21.8437 125.451 27.996 126.309C28.4737 126.375 28.9529 126.442 29.4333 126.51L29.5843 126.531L29.6267 126.376C33.1328 113.556 32.6921 104.364 28.5045 98.5982Z" fill="black"/>
<path d="M25.6721 8.80824C36.5613 8.00141 45.694 5.44581 48.9165 2.59375C49.5008 3.50941 49.9364 4.54891 50.1985 5.73102C50.7261 10.0316 51.7743 14.6775 49.9116 18.8543C35.7681 24.8736 20.6861 26.1007 4.77545 24.7272C0.66765 20.5467 0.873043 13.6305 1.15988 7.97139C1.28028 7.25837 1.4538 6.59789 1.66274 5.9787C5.10124 8.3992 14.6023 9.63008 25.665 8.80824H25.6721Z" fill="#0BA85B"/>
<path fill-rule="evenodd" clip-rule="evenodd" d="M48.9522 2.31641L48.8018 2.44952C47.2228 3.84698 44.1673 5.19079 40.1242 6.28595C36.0905 7.37856 31.098 8.21745 25.6646 8.62039H25.6575L25.6513 8.62085C20.1289 9.03111 14.999 8.92875 10.8236 8.42271C6.63905 7.91556 3.44104 7.00594 1.75943 5.82218L1.57093 5.68949L1.49473 5.9153C1.28279 6.54343 1.10659 7.21398 0.984308 7.93812L0.982384 7.94953L0.981795 7.96111C0.838436 10.7895 0.71399 13.9513 1.14336 16.9319C1.573 19.9142 2.55949 22.7333 4.65152 24.8624L4.69698 24.9086L4.75979 24.914C20.6874 26.289 35.7991 25.0618 49.9763 19.0282L50.0408 19.0007L50.0704 18.9342C51.0186 16.808 51.2229 14.5685 51.127 12.3303C51.0585 10.7321 50.8357 9.12111 50.6184 7.55067C50.5323 6.92852 50.4471 6.31273 50.3728 5.70661L50.3716 5.69716L50.3695 5.68789C50.1027 4.484 49.6585 3.42335 49.0619 2.48843L48.9522 2.31641ZM48.8751 2.8697C49.3923 3.72164 49.7816 4.68113 50.0228 5.76449C50.0985 6.38062 50.1843 7.001 50.2705 7.62428C50.4868 9.18756 50.7056 10.7691 50.7733 12.3474C50.8667 14.5277 50.6691 16.6764 49.7796 18.7074C35.7071 24.6808 20.6977 25.9067 4.85166 24.5454C2.86661 22.4993 1.91317 19.7889 1.49343 16.8752C1.07084 13.9418 1.1916 10.8205 1.33482 7.99286C1.43888 7.38 1.58282 6.80642 1.75514 6.26452C3.55246 7.43567 6.74008 8.30552 10.7834 8.79555C14.9823 9.30444 20.132 9.40671 25.6699 8.99566H25.677L25.6832 8.9952C31.1366 8.59113 36.1528 7.74903 40.2119 6.64953C44.1402 5.58546 47.1949 4.27445 48.8751 2.8697Z" fill="black"/>
<path d="M1.72712 5.79447C1.72712 7.74588 13.2608 10.1964 25.7967 9.13814C38.3361 8.08363 48.9809 4.01194 48.8145 2.46957C48.733 1.71152 42.0366 -0.337456 25.995 0.311763C9.95333 0.960982 1.72357 4.80001 1.72357 5.79072L1.72712 5.79447Z" fill="#0BA85B"/>
<path fill-rule="evenodd" clip-rule="evenodd" d="M48.6378 2.49769C48.6399 2.53472 48.6279 2.59472 48.5723 2.68344C48.5138 2.77696 48.4163 2.88677 48.2738 3.01087C47.9892 3.25874 47.5518 3.54106 46.9716 3.84596C45.8133 4.45464 44.1167 5.13764 42.0179 5.80727C37.8218 7.14606 32.0381 8.42506 25.7814 8.95123L25.7813 8.95123C19.5271 9.4792 13.5235 9.1317 9.08651 8.40961C6.86709 8.04841 5.04603 7.59451 3.78383 7.1126C3.15161 6.87122 2.66871 6.62619 2.34731 6.38816C2.01517 6.14218 1.90287 5.93952 1.90287 5.79461V5.7789C1.90822 5.76416 1.92167 5.73579 1.95535 5.69239C2.00684 5.62605 2.09057 5.5441 2.21254 5.44844C2.45575 5.2577 2.8283 5.02998 3.33416 4.77791C4.34425 4.27456 5.86385 3.68492 7.88858 3.10444C11.9368 1.94382 17.9913 0.823534 26.0004 0.499398C34.0139 0.175087 39.6879 0.524967 43.3649 1.04904C45.204 1.31117 46.5398 1.61634 47.4173 1.90088C47.857 2.04343 48.1754 2.17885 48.383 2.29778C48.4873 2.35749 48.557 2.40935 48.5993 2.45095C48.6259 2.47719 48.6352 2.49283 48.6378 2.49769ZM43.4121 0.677117C39.7101 0.149492 34.0151 -0.200509 25.9869 0.1244C17.9544 0.449483 11.8731 1.57332 7.7961 2.74219C5.75819 3.32646 4.21776 3.92291 3.18347 4.43831C2.66714 4.6956 2.2714 4.93542 2.00189 5.14679C1.8675 5.25219 1.75875 5.35494 1.68186 5.45399C1.60849 5.54852 1.5452 5.66381 1.5452 5.79086V5.86864L1.5536 5.87753C1.58981 6.18624 1.82518 6.4593 2.14446 6.69576C2.50276 6.96112 3.01887 7.21942 3.6638 7.46565C4.95592 7.95898 6.80177 8.41745 9.03276 8.78053C13.4966 9.50699 19.5277 9.85561 25.8094 9.32532C32.092 8.79697 37.9005 7.51287 42.12 6.16661C44.229 5.4937 45.9462 4.80367 47.1289 4.18217C47.7191 3.87198 48.184 3.57491 48.4987 3.30078C48.6558 3.16387 48.7822 3.02702 48.8674 2.89093C48.9521 2.75561 49.006 2.60493 48.9891 2.44848M43.4121 0.677117C45.2624 0.94084 46.6187 1.24947 47.5209 1.54203ZM47.5209 1.54203C47.9712 1.68802 48.3146 1.83197 48.5514 1.96766ZM48.5514 1.96766C48.6694 2.03526 48.7676 2.10451 48.8402 2.17589ZM48.8402 2.17589C48.9088 2.24337 48.9768 2.33453 48.9891 2.44839Z" fill="black"/>
<path opacity="0.2" d="M67.417 160.614C63.1676 155.311 54.4921 142.788 44.7538 134.532C41.2127 131.53 41.0345 131.155 31.1934 126.635C31.0836 126.597 30.9703 126.571 30.857 126.556C16.9543 124.515 3.80225 124.049 2.87092 105.38C2.85321 100.644 3.54375 95.9827 5.21165 91.6633C10.7288 77.388 7.53823 41.3658 5.65786 26.9178C5.52683 26.0997 5.39933 25.2178 4.77608 24.7262C1.35174 21.24 0.92681 15.8511 1.04367 10.8787C1.06846 9.88802 1.61734 6.92338 1.66691 5.98145C1.66691 5.98145 4.52465 6.56312 7.52758 12.0909C10.5305 17.6186 10.0701 22.681 11.352 24.7413C12.6339 26.8015 10.0488 58.5081 12.5772 75.1664C15.1057 91.8247 4.44665 97.724 11.7451 110.416C19.0435 123.107 25.053 115.178 35.3154 121.085C45.5777 126.991 51.305 133.219 57.5021 140.161C63.6992 147.104 69.7193 157.987 73.2605 162.302C75.2082 164.366 76.6157 168.857 79.6347 168.682C82.9989 168.307 85.4776 161.364 89.0163 159.3C91.4021 157.909 102.119 159.863 103.713 159.488C104.516 159.717 100.526 160.426 97.8698 159.863C95.2155 159.863 92.3807 158.925 88.8412 161.552C86.0082 164.179 82.6446 173.191 79.2805 172.622C75.8827 172.048 71.5935 166.132 69.1876 162.865C68.2083 161.535 67.417 160.614 67.417 160.614Z" fill="#0BA85B"/>
<path opacity="0.2" d="M1.72314 5.53889C1.4788 6.85984 8.95074 9.53928 22.1523 9.35164C18.9263 8.5373 10.3814 6.81481 9.45005 5.93668C7.59092 4.18041 9.67668 2.45791 8.18584 2.83318C4.36842 3.79388 1.76564 5.32123 1.72669 5.54264L1.72314 5.53889Z" fill="black"/>
<path fill-rule="evenodd" clip-rule="evenodd" d="M87.5123 114.858C87.4276 114.806 87.3193 114.837 87.2705 114.927C87.2217 115.017 87.2508 115.132 87.3356 115.183L87.4239 115.021L87.5123 114.858ZM123.19 133.034C123.255 132.859 123.255 132.859 123.255 132.859L123.139 132.811C123.064 132.779 122.951 132.732 122.806 132.672C122.515 132.55 122.091 132.372 121.56 132.147C120.498 131.699 119.007 131.064 117.29 130.32C113.856 128.833 109.521 126.911 105.912 125.17C102.334 123.444 97.7357 120.867 94.0285 118.72C92.1755 117.646 90.5463 116.681 89.3804 115.984C88.7974 115.635 88.3303 115.354 88.009 115.159C87.8483 115.062 87.7241 114.987 87.6401 114.936L87.5128 114.858L87.5123 114.858C87.5122 114.858 87.5123 114.858 87.4239 115.021C87.3356 115.183 87.3355 115.183 87.3356 115.183L87.4639 115.261C87.5482 115.313 87.6726 115.388 87.8335 115.485C88.1553 115.68 88.6229 115.962 89.2063 116.31C90.3733 117.008 92.0039 117.975 93.8586 119.049C97.5669 121.197 102.175 123.78 105.765 125.511C109.38 127.255 113.721 129.18 117.156 130.668C118.874 131.412 120.366 132.047 121.429 132.496C121.961 132.721 122.385 132.899 122.676 133.021C122.821 133.082 122.934 133.128 123.01 133.16L123.125 133.208L123.125 133.208C123.125 133.208 123.125 133.208 123.19 133.034ZM123.19 133.034L123.255 132.859C123.346 132.897 123.391 133.006 123.355 133.102C123.319 133.199 123.216 133.246 123.125 133.208L123.19 133.034Z" fill="black"/>
<path fill-rule="evenodd" clip-rule="evenodd" d="M73.1996 129.331C73.1274 129.261 73.0154 129.266 72.9494 129.343C72.8834 129.419 72.8883 129.538 72.9605 129.608L73.08 129.469L73.1996 129.331ZM107.252 157.385C107.346 157.226 107.346 157.226 107.346 157.226L107.228 157.148C107.151 157.097 107.037 157.021 106.889 156.922C106.593 156.726 106.164 156.439 105.629 156.079C104.56 155.358 103.068 154.345 101.379 153.171C98.0001 150.824 93.8367 147.842 90.6887 145.292C87.566 142.763 83.1948 138.774 79.6016 135.415C77.8056 133.735 76.205 132.214 75.0534 131.113C74.4776 130.563 74.0141 130.117 73.6945 129.809C73.5348 129.655 73.411 129.536 73.3272 129.454L73.1996 129.331C73.1995 129.331 73.1996 129.331 73.08 129.469C72.9605 129.608 72.9604 129.608 72.9605 129.608L73.0885 129.732C73.1724 129.813 73.2964 129.933 73.4563 130.087C73.7761 130.395 74.24 130.841 74.8161 131.392C75.9684 132.494 77.5701 134.016 79.3673 135.696C82.9605 139.056 87.34 143.053 90.4737 145.59C93.6324 148.148 97.8046 151.137 101.185 153.485C102.875 154.66 104.369 155.674 105.439 156.395C105.975 156.756 106.405 157.043 106.701 157.24C106.849 157.339 106.963 157.415 107.041 157.466L107.158 157.544L107.159 157.544C107.159 157.544 107.159 157.544 107.252 157.385ZM107.252 157.385L107.346 157.226C107.429 157.28 107.454 157.396 107.403 157.484C107.351 157.572 107.242 157.599 107.159 157.544L107.252 157.385Z" fill="black"/>
<g clip-path="url(#clip0_4965_19224)">
<path d="M41.4991 43.69C42.4087 53.591 44.2528 57.5012 43.7314 61.0915C43.2127 63.9242 37.4405 65.9257 31.1474 66.5303C24.8383 66.904 18.8521 65.8178 17.9485 63.0985C16.9375 59.6248 18.2229 55.4736 17.7575 45.538L41.4991 43.69Z" fill="#0BA85B" stroke="#231F20" stroke-miterlimit="10"/>
<path opacity="0.2" d="M30.5995 66.5591C41.0393 64.8264 42.884 60.3836 42.732 59.0593C42.58 57.735 41.1047 48.3954 40.409 46.684C39.7134 44.9726 34.6158 45.3054 32.8941 45.3701C31.1725 45.4348 20.6737 45.6306 17.9832 45.616L41.5011 43.6893C42.4107 53.5903 43.9232 58.0385 43.7334 61.0909C43.6364 62.768 39.162 66.1193 30.5995 66.5591Z" fill="#231F20"/>
<path d="M42.3374 37.2509C42.6468 37.2268 42.9043 37.5028 42.8743 37.8305C42.7152 39.5524 42.8331 41.2528 43.2279 42.9316C43.3027 43.2511 43.0861 43.564 42.7767 43.5881C42.7767 43.5881 35.7096 44.6449 29.6631 45.1156C23.6167 45.5863 16.4797 45.6351 16.4797 45.6351C16.1703 45.6592 15.9128 45.3832 15.9428 45.0555C16.1019 43.3336 15.984 41.6332 15.5892 39.9544C15.5144 39.6349 15.731 39.322 16.0404 39.2979C16.0404 39.2979 23.3371 39.2366 29.2239 38.7784C35.1106 38.3202 42.3374 37.2509 42.3374 37.2509Z" fill="#0BA85B" stroke="#231F20" stroke-miterlimit="10"/>
<path d="M16.043 39.2969C16.0452 39.3287 23.3396 39.2356 29.2264 38.7774C35.1131 38.3192 42.3416 37.2738 42.3399 37.2499" stroke="#231F20" stroke-miterlimit="10"/>
<path d="M29.3828 41.0537L29.8819 41.0149" stroke="black" stroke-opacity="0.6" stroke-miterlimit="10"/>
<path d="M30.875 40.9375L38.3364 40.3567" stroke="black" stroke-opacity="0.6" stroke-miterlimit="10" stroke-dasharray="3.99 3.99"/>
<path d="M38.832 40.3184L39.3311 40.2795L39.3679 40.81" stroke="#BCBEC0" stroke-miterlimit="10"/>
<path d="M39.4413 41.8576L39.7048 45.6588C40.4628 53.9154 41.9187 57.1838 41.4839 60.178C41.0486 62.5482 36.2866 64.2123 31.0225 64.7128C25.7459 65.0328 20.8056 64.1239 20.0481 61.8466C19.205 58.9492 20.1948 55.4931 19.8062 47.2078L19.5064 42.8839" stroke="black" stroke-opacity="0.6" stroke-miterlimit="10" stroke-dasharray="3.95 3.95"/>
<path d="M19.4665 42.3587L19.4297 41.8281L19.9288 41.7893" stroke="#BCBEC0" stroke-miterlimit="10"/>
<path d="M20.9258 41.7119L28.3847 41.1313" stroke="black" stroke-opacity="0.6" stroke-miterlimit="10" stroke-dasharray="3.99 3.99"/>
<path d="M28.8828 41.0928L29.3819 41.0539" stroke="black" stroke-opacity="0.6" stroke-miterlimit="10"/>
<path d="M19.4146 43.2163C20.1313 43.1606 20.6695 42.4978 20.6166 41.736C20.5638 40.9741 19.9401 40.4018 19.2234 40.4576C18.5067 40.5134 17.9686 41.1762 18.0214 41.938C18.0742 42.6998 18.698 43.2721 19.4146 43.2163Z" fill="black" stroke="#231F20" stroke-miterlimit="10"/>
<path d="M39.5396 41.6499C40.2563 41.5942 40.7945 40.9314 40.7417 40.1696C40.6888 39.4077 40.0651 38.8354 39.3484 38.8912C38.6317 38.947 38.0936 39.6098 38.1464 40.3716C38.1992 41.1334 38.823 41.7057 39.5396 41.6499Z" fill="black" stroke="#231F20" stroke-miterlimit="10"/>
</g>
<defs>
<clipPath id="clip0_4965_19224">
<rect width="27.6305" height="29.2625" fill="white" transform="matrix(0.996984 -0.0776061 0.0691478 0.997606 15.3594 38.5449)"/>
</clipPath>
</defs>
</svg>
