<svg width="86" height="115" viewBox="0 0 86 115" fill="none" xmlns="http://www.w3.org/2000/svg">
<g clip-path="url(#clip0_2817_138958)">
<g clip-path="url(#clip1_2817_138958)">
<path d="M0.73848 4.34905C2.35234 8.31616 29.9802 5.99496 31.1797 2.32086C31.127 1.85845 26.7982 0.608572 16.4284 1.00689C6.05848 1.40291 0.73848 3.74472 0.73848 4.34905Z" fill="#909449"/>
<path fill-rule="evenodd" clip-rule="evenodd" d="M31.0574 2.3223C30.9846 2.51038 30.8291 2.70427 30.5864 2.90107C30.3276 3.11096 29.9775 3.31774 29.5457 3.51913C28.6822 3.92188 27.5066 4.29632 26.1179 4.63166C23.3417 5.30208 19.7318 5.81201 16.1066 6.08354C12.4811 6.35509 8.84601 6.38779 6.01909 6.10582C4.60501 5.96477 3.39847 5.74548 2.49802 5.44046C2.04784 5.28796 1.67828 5.11539 1.39856 4.92332C1.13153 4.73995 0.951997 4.54275 0.858169 4.33364C0.862717 4.3238 0.871774 4.30817 0.889798 4.28626C0.923086 4.24579 0.977213 4.1958 1.05606 4.13745C1.21328 4.0211 1.45411 3.88219 1.78111 3.72842C2.43407 3.42138 3.4164 3.0617 4.72525 2.70761C7.34218 1.99963 11.256 1.31625 16.4334 1.11853L16.4334 1.11853C21.6136 0.919556 25.2814 1.13241 27.6584 1.45181C28.8473 1.61156 29.7108 1.79765 30.278 1.97118C30.5622 2.05812 30.7681 2.14072 30.9023 2.21326C30.9696 2.24968 31.0147 2.28132 31.0421 2.30669C31.0487 2.31286 31.0537 2.31806 31.0574 2.3223ZM27.6889 1.22493C25.2958 0.903369 21.6143 0.690442 16.4246 0.889781C11.2321 1.08808 7.30101 1.77362 4.66547 2.48664C3.34809 2.84304 2.3523 3.20687 1.6837 3.52127C1.34992 3.67822 1.09411 3.82451 0.919883 3.95344C0.833009 4.01774 0.762713 4.08041 0.713008 4.14084C0.665577 4.1985 0.624667 4.26883 0.624667 4.34632V4.36871L0.633102 4.38945C0.745161 4.66491 0.966346 4.90422 1.26898 5.11203C1.57185 5.32 1.96251 5.50075 2.42458 5.65727C3.34861 5.97028 4.57464 6.1918 5.99637 6.33361C8.84104 6.61734 12.4904 6.58395 16.1237 6.31182C19.757 6.03968 23.3799 5.52835 26.1717 4.85418C27.567 4.51722 28.7592 4.13854 29.6425 3.72659C30.0841 3.52064 30.4522 3.30468 30.7306 3.07886C31.0081 2.85382 31.2046 2.61246 31.2891 2.35365L31.2969 2.32995L31.2941 2.30518C31.2861 2.2357 31.2421 2.18007 31.1978 2.1389C31.1509 2.09536 31.0874 2.05312 31.0111 2.01188C30.858 1.92912 30.636 1.84132 30.345 1.75228C29.7617 1.57385 28.885 1.38566 27.6889 1.22493Z" fill="black"/>
<path opacity="0.2" d="M0.731355 4.18997C1.36082 5.81493 5.40352 6.63021 13.9375 6.51576C11.8521 6.01901 6.32834 4.96829 5.72629 4.43262C4.52449 3.3613 5.8728 2.31058 4.90907 2.53949C2.44135 3.12552 0.758824 4.0572 0.733643 4.19226L0.731355 4.18997Z" fill="black"/>
</g>
<path d="M66.2429 105.169C73.3393 113.639 60.52 117.531 56.6284 111.579C51.9906 104.487 42.6646 97.8442 34.8814 91.4345C28.0597 85.8169 28.806 80.9136 19.7799 78.1323C10.7629 76.8137 2.06407 76.6741 1.47118 65.1665C1.45973 62.2775 1.84889 59.4115 2.98431 56.7996C6.69503 48.2702 4.48829 26.118 3.27274 17.3048C3.18805 16.8057 3.10564 16.2678 2.70275 15.9679C-0.0762901 13.1294 -0.133526 8.21911 0.69286 4.53357C4.71033 7.88032 27.5813 6.2802 31.2348 2.46875C32.6655 5.23634 33.0753 9.41176 31.8803 12.3877C31.1547 24.8338 32.3382 46.6403 44.4341 55.7672C51.2191 61.0208 54.2179 64.6583 56.1591 66.6201C64.4093 74.9549 61.6623 75.6416 80.2044 93.4971C82.7706 95.9671 79.0599 104.027 71.7346 98.0754C80.6623 105.401 71.5056 111.352 66.2406 105.172L66.2429 105.169Z" fill="#C6D161"/>
<path fill-rule="evenodd" clip-rule="evenodd" d="M31.2618 2.27344L31.151 2.38901C30.7109 2.84812 29.9716 3.28265 28.9938 3.68257C28.0184 4.0815 26.8159 4.44195 25.4592 4.75796C22.7459 5.38993 19.4252 5.842 16.0913 6.07076C12.7574 6.29952 9.41419 6.30469 6.65575 6.04435C5.27643 5.91417 4.04587 5.71783 3.03695 5.45087C2.0254 5.18322 1.24792 4.84741 0.764985 4.44509L0.621033 4.32517L0.580039 4.50799C0.164606 6.36076 -0.0293105 8.52329 0.231077 10.5822C0.491415 12.6406 1.2072 14.6046 2.61983 16.0474L2.62608 16.0538L2.63327 16.0592C2.81009 16.1908 2.92077 16.3773 2.99783 16.5987C3.07221 16.8125 3.11234 17.0494 3.1532 17.2906L3.15823 17.3199C3.15831 17.3205 3.15839 17.3211 3.15848 17.3217C3.76587 21.726 4.62075 29.4621 4.86034 37.1617C4.98015 41.012 4.94603 44.8512 4.65061 48.2591C4.355 51.6692 3.79843 54.6382 2.87821 56.7534C1.73447 59.3845 1.3441 62.2676 1.35558 65.1664L1.3556 65.1691L1.35574 65.1718C1.50469 68.0629 2.16329 70.2496 3.21602 71.9221C4.26924 73.5955 5.71193 74.7461 7.41537 75.5727C9.11712 76.3985 11.0802 76.9014 13.177 77.2804C14.5732 77.5328 16.0343 77.7311 17.5194 77.9327C18.2598 78.0332 19.0062 78.1345 19.7534 78.2437C24.2352 79.6263 26.2851 81.5312 28.0663 83.7901C28.4814 84.3166 28.8828 84.8638 29.2975 85.4291C30.6664 87.2952 32.1801 89.3587 34.8075 91.5224C36.3078 92.7579 37.8635 94.0006 39.431 95.2528C41.9352 97.2532 44.47 99.278 46.8585 101.337C50.7406 104.684 54.2216 108.109 56.5315 111.641C58.5163 114.677 62.7616 115.191 65.6027 113.886C67.0285 113.231 68.12 112.111 68.3931 110.601C68.6127 109.388 68.2997 107.944 67.2394 106.316C69.7452 108.365 72.7415 108.237 74.3848 106.773C75.3318 105.93 75.8168 104.65 75.4937 103.12C75.2449 101.94 74.5181 100.617 73.1651 99.2274C74.401 99.9682 75.5194 100.301 76.5044 100.332C77.8772 100.376 78.9782 99.8346 79.7601 99.0233C80.5401 98.2139 81.0026 97.1365 81.1065 96.1023C81.2102 95.0698 80.9573 94.0634 80.2827 93.4141C71.0144 84.489 67.0696 79.8577 64.4117 76.4178C63.7967 75.6219 63.2499 74.8888 62.7216 74.1805C60.9666 71.8275 59.415 69.7473 56.2394 66.539C55.8794 66.1753 55.4825 65.7532 55.0312 65.2732C53.0542 63.1708 50.0334 59.9583 44.503 55.6762L44.5019 55.6753C38.4866 51.1365 35.175 43.436 33.46 35.298C31.7473 27.1712 31.6312 18.6279 31.9924 12.4124C33.1928 9.40268 32.7764 5.20327 31.3353 2.41565L31.2618 2.27344ZM66.2502 105.359C66.2174 105.321 66.1848 105.284 66.1523 105.245L66.0838 105.165L66.2492 105L66.3295 105.095C66.3616 105.134 66.3934 105.172 66.4248 105.21C69.0153 108.15 72.4817 108.162 74.2326 106.602C75.1169 105.815 75.5762 104.619 75.2698 103.167C74.9623 101.71 73.8812 99.9852 71.6608 98.1633L71.8056 97.986C73.6243 99.4637 75.2063 100.062 76.5117 100.103C77.8147 100.145 78.8546 99.633 79.5952 98.8644C80.3377 98.094 80.7797 97.0653 80.8787 96.0795C80.9779 95.0921 80.7324 94.1647 80.1239 93.579C70.8501 84.6486 66.8972 80.0089 64.2306 76.5578C63.6123 75.7576 63.0638 75.0223 62.5346 74.3128C60.7815 71.9624 59.2402 69.8961 56.0766 66.7001C55.7142 66.3338 55.3155 65.9098 54.8628 65.4284C52.8854 63.3256 49.8778 60.1274 44.3635 55.8576C38.2832 51.2695 34.9553 43.5036 33.236 35.3452C31.516 27.1837 31.4018 18.6096 31.7649 12.3805L31.766 12.3618L31.773 12.3445C32.9341 9.45288 32.5627 5.40151 31.2024 2.65992C30.7233 3.10962 29.9928 3.5213 29.0805 3.89445C28.0901 4.29949 26.875 4.66321 25.5111 4.98091C22.783 5.61634 19.4497 6.06977 16.107 6.29914C12.7643 6.5285 9.4082 6.53405 6.63425 6.27225C5.24737 6.14136 4.00348 5.94341 2.9784 5.67217C2.04697 5.42572 1.28681 5.1164 0.76465 4.73489C0.380716 6.52737 0.21 8.59107 0.45819 10.5535C0.714253 12.5781 1.41491 14.486 2.77732 15.8811C2.9989 16.0489 3.12893 16.279 3.21403 16.5235C3.29493 16.756 3.33798 17.0104 3.37789 17.2463L3.38445 17.2851L3.38475 17.2868L3.38499 17.2886C3.99312 21.6979 4.84919 29.4434 5.08914 37.1545C5.20912 41.0101 5.17513 44.8589 4.87867 48.2789C4.58239 51.6967 4.02327 54.6952 3.08813 56.8447C1.9614 59.4367 1.57334 62.2847 1.58449 65.1628C1.73227 68.0241 2.38325 70.1693 3.40975 71.8002C4.43608 73.4308 5.84281 74.5552 7.51531 75.3667C9.1895 76.1791 11.1289 76.6776 13.2177 77.0552C14.6092 77.3067 16.0616 77.5038 17.5435 77.7049C18.288 77.806 19.0398 77.908 19.7953 78.0185L19.804 78.0197L19.8124 78.0223C24.351 79.4208 26.4395 81.3573 28.246 83.6484C28.668 84.1835 29.0736 84.7364 29.4909 85.3052C30.8575 87.1679 32.3498 89.2019 34.953 91.3456C36.4475 92.5763 38.0008 93.8172 39.5676 95.0689C42.0752 97.072 44.6173 99.1028 47.008 101.164C50.8942 104.514 54.3951 107.956 56.7231 111.516C58.6298 114.432 62.74 114.949 65.5072 113.678C66.8857 113.045 67.9117 111.976 68.1679 110.56C68.4195 109.169 67.9343 107.412 66.2502 105.359Z" fill="black"/>
<path fill-rule="evenodd" clip-rule="evenodd" d="M38.6424 63.5612C38.6172 63.6192 38.6439 63.6866 38.7019 63.7117C44.595 66.2619 47.2198 69.3381 50.0541 72.6598C50.6433 73.3503 51.2415 74.0513 51.8799 74.7605L51.8799 74.7605C54.329 77.4798 56.3067 80.0302 58.4218 82.7579C59.0182 83.5269 59.6254 84.31 60.2573 85.115C63.1296 88.7744 66.5049 92.8788 71.6592 98.1477C71.7034 98.1929 71.7759 98.1937 71.8211 98.1495C71.8662 98.1053 71.867 98.0328 71.8228 97.9876C66.676 92.7264 63.3062 88.6287 60.4373 84.9737C59.8073 84.171 59.2012 83.3893 58.6055 82.6211C56.4894 79.8922 54.5053 77.3335 52.05 74.6073C51.4166 73.9038 50.8216 73.2063 50.2342 72.5177C47.3968 69.1914 44.7377 66.0742 38.7929 63.5016C38.7348 63.4765 38.6675 63.5032 38.6424 63.5612Z" fill="black"/>
<path fill-rule="evenodd" clip-rule="evenodd" d="M26.6236 67.4883C26.61 67.5501 26.6491 67.6111 26.7108 67.6247C31.5593 68.6913 37.1758 72.1111 43.9486 79.3687L44.0323 79.2906L43.9486 79.3687C46.515 82.1185 48.6399 84.7939 51.0491 87.8275C51.6448 88.5775 52.2579 89.3495 52.8993 90.1499C56.1342 94.1863 60.0853 98.9391 66.1547 105.238C66.1985 105.283 66.271 105.284 66.3165 105.241C66.362 105.197 66.3634 105.124 66.3195 105.079C60.2563 98.7867 56.3099 94.0395 53.0779 90.0067C52.438 89.2083 51.826 88.4376 51.2309 87.6882C48.8209 84.6537 46.6892 81.9696 44.116 79.2125C37.3278 71.9385 31.6725 68.4818 26.76 67.4011C26.6983 67.3876 26.6372 67.4266 26.6236 67.4883Z" fill="black"/>
<path d="M66.242 105.171C73.3384 113.641 60.5764 117.53 56.6848 111.578C54.6749 108.291 63.1127 101.923 66.242 105.171Z" fill="#909449"/>
<path fill-rule="evenodd" clip-rule="evenodd" d="M56.7887 108.675C56.2222 109.701 56.0525 110.763 56.5859 111.635L56.5868 111.637L56.5878 111.638C58.5725 114.673 62.8034 115.188 65.6306 113.884C67.0494 113.229 68.1336 112.109 68.4012 110.599C68.6686 109.091 68.1148 107.227 66.3285 105.095L66.326 105.092L66.3232 105.089C65.5061 104.24 64.3486 104.028 63.1266 104.224C61.9051 104.419 60.6036 105.022 59.4687 105.828C58.334 106.633 57.3564 107.648 56.7887 108.675ZM66.1556 105.245C65.4082 104.471 64.3387 104.262 63.1627 104.45C61.9849 104.638 60.7158 105.223 59.6013 106.014C58.4866 106.806 57.536 107.796 56.9891 108.786C56.4414 109.777 56.3098 110.743 56.7803 111.514C58.6876 114.429 62.7826 114.946 65.5347 113.676C66.9059 113.043 67.9248 111.975 68.1758 110.559C68.4269 109.143 67.9155 107.346 66.1556 105.245Z" fill="black"/>
<path d="M2.93014 56.9583C-1.92058 70.7642 4.59207 77.476 18.6292 77.9682C23.1571 62.3447 17.393 55.8824 2.93014 56.9583Z" fill="#909449"/>
<path fill-rule="evenodd" clip-rule="evenodd" d="M18.5429 77.8479C11.5817 77.5901 6.51826 75.793 3.78489 72.3816C1.05346 68.9726 0.620574 63.9142 3.01221 57.0642C10.1936 56.5418 15.1729 57.8935 17.8099 61.2687C20.4474 64.6447 20.7773 70.0901 18.5429 77.8479ZM17.9903 61.1278C15.2706 57.6466 10.1619 56.3027 2.9205 56.8414L2.84583 56.847L2.821 56.9176C0.389634 63.8377 0.794154 69.0151 3.60625 72.5247C6.41415 76.0292 11.594 77.8334 18.624 78.0798L18.7131 78.083L18.738 77.9973C21.0043 70.1772 20.7088 64.6074 17.9903 61.1278Z" fill="black"/>
<path d="M80.1771 93.4552C82.7432 95.9252 79.0325 103.985 71.7072 98.0335C69.7385 96.3647 77.3385 89.6689 80.1771 93.4552Z" fill="#909449"/>
<path fill-rule="evenodd" clip-rule="evenodd" d="M71.2742 97.1911C71.2471 97.5555 71.3528 97.8813 71.6321 98.118L71.6339 98.1196L71.6339 98.1195C73.4779 99.6178 75.1066 100.244 76.4771 100.288C77.8499 100.332 78.9508 99.7905 79.7327 98.9792C80.5128 98.1698 80.9752 97.0923 81.0791 96.0582C81.1825 95.0291 80.9316 94.0259 80.262 93.3764C79.5229 92.3961 78.4741 92.0975 77.3654 92.222C76.259 92.3462 75.0863 92.891 74.0726 93.6022C73.0586 94.3136 72.1918 95.1998 71.7015 96.0202C71.4567 96.4298 71.301 96.8311 71.2742 97.1911ZM77.3909 92.4495C78.4413 92.3316 79.4044 92.6141 80.0844 93.5211L80.0899 93.5285L80.0966 93.5349C80.705 94.1205 80.9506 95.0479 80.8514 96.0353C80.7523 97.0212 80.3104 98.0499 79.5679 98.8203C78.8272 99.5888 77.7874 100.101 76.4844 100.059C75.1792 100.018 73.5975 99.4198 71.7792 97.9427C71.5669 97.7622 71.4797 97.514 71.5025 97.2081C71.5256 96.8972 71.6628 96.5312 71.898 96.1376C72.3678 95.3515 73.2093 94.4875 74.204 93.7896C75.199 93.0915 76.3355 92.568 77.3909 92.4495Z" fill="black"/>
<path d="M71.7061 98.0342C80.6338 105.36 71.4474 111.282 66.1824 105.101C63.0119 101.958 69.9755 96.5486 71.7061 98.0342Z" fill="#909449"/>
<path fill-rule="evenodd" clip-rule="evenodd" d="M66.0972 105.176C65.2751 104.359 65.1101 103.39 65.3524 102.431C65.5933 101.478 66.2355 100.536 67.0243 99.7481C67.8138 98.9593 68.7598 98.3149 69.6225 97.961C70.0537 97.7841 70.4691 97.6778 70.8368 97.6653C71.204 97.6528 71.5335 97.734 71.7785 97.9438C74.0213 99.7843 75.1415 101.549 75.4607 103.072C75.7809 104.6 75.2919 105.876 74.3411 106.715C72.4449 108.39 68.7616 108.3 66.0972 105.176ZM70.8446 97.8941C71.1765 97.8828 71.4428 97.9573 71.6304 98.1183L71.6323 98.12L71.6323 98.12C73.8528 99.9419 74.9319 101.665 75.2366 103.119C75.5403 104.568 75.0775 105.76 74.1896 106.544C72.409 108.116 68.8688 108.077 66.2683 105.024L66.2652 105.02L66.2618 105.017C65.5016 104.263 65.3489 103.379 65.5743 102.487C65.8015 101.588 66.4139 100.681 67.1861 99.91C67.9574 99.1394 68.8787 98.5136 69.7093 98.1728C70.1248 98.0024 70.5126 97.9053 70.8446 97.8941Z" fill="black"/>
<path d="M16.2521 6.25178C23.2912 5.75961 29.1949 4.2007 31.2781 2.46094C32.7134 5.24684 33.1163 9.39021 31.9236 12.3799C22.7807 16.0517 13.0312 16.8002 2.74603 15.9624C-0.0284307 13.1353 -0.0925268 8.20672 0.736148 4.52805C2.95892 6.00455 9.10072 6.7554 16.2521 6.25407V6.25178Z" fill="#909449"/>
<path fill-rule="evenodd" clip-rule="evenodd" d="M31.3093 2.28125L31.1996 2.37285C30.1789 3.2253 28.2037 4.04503 25.5901 4.71307C22.9816 5.37982 19.7528 5.89167 16.239 6.13736L16.1325 6.1448V6.14703C12.6031 6.38864 9.32606 6.3244 6.6538 6.01879C3.94874 5.70942 1.88144 5.15456 0.794384 4.43246L0.655922 4.34049L0.619393 4.50265C0.202768 6.35214 0.0100183 8.51755 0.271269 10.5787C0.532452 12.6393 1.24877 14.6051 2.65924 16.0423L2.68912 16.0728L2.73164 16.0762C13.0278 16.915 22.7965 16.1664 31.9612 12.4858L32.0067 12.4676L32.0248 12.422C33.2314 9.39762 32.8231 5.2196 31.3747 2.40827L31.3093 2.28125ZM31.2348 2.63876C32.5979 5.38276 32.9694 9.38496 31.8302 12.2917C22.7349 15.9339 13.0342 16.6815 2.79294 15.8515C1.44842 14.4643 0.753806 12.5652 0.498368 10.5499C0.248543 8.57891 0.420094 6.50546 0.807601 4.71207C1.97231 5.42154 4.02599 5.94867 6.62779 6.24622C9.34311 6.55675 12.6735 6.61907 16.255 6.36801L16.3614 6.36054V6.35819C19.8455 6.10887 23.0493 5.59879 25.6468 4.93486C28.1767 4.2882 30.1461 3.49203 31.2348 2.63876Z" fill="black"/>
<path opacity="0.2" d="M64.5271 114.163C61.7802 114.849 59.7199 114.163 58.1175 113.018C56.5151 111.874 56.9729 110.958 52.1657 106.151C48.8441 102.829 43.238 98.1386 39.1175 94.7049C36.8741 92.8369 34.6949 91.5367 33.1657 89.8976C31.0391 87.6154 29.748 85.9832 29.2741 85.0904C26.985 81.8856 24.3135 79.4293 19.7764 78.0307C10.7594 76.7121 1.52269 76.5976 1.39449 65.0855C1.36244 62.1966 1.90268 59.3328 2.98088 56.698C5.92244 50.2952 5.2357 34.0422 4.09112 23.9699C3.57377 19.426 3.2075 16.1799 2.7016 15.864C-0.25828 12.982 0.0622022 8.21366 0.69172 4.42969C11.3958 10.9881 4.96557 29.3815 7.74232 46.6326C9.37678 56.7941 2.48641 60.3927 7.20437 68.1346C11.9223 75.8766 20.8249 75.1646 24.9224 77.0784C28.3562 78.6808 31.5976 83.9138 33.3923 86.0061C34.0287 86.7501 38.7261 91.1452 41.1755 92.8735C43.6249 94.6019 49.2539 99.3839 50.3321 100.428C53.498 103.488 56.1694 106.265 56.7417 107.066C58.1816 109.081 60.7706 111.139 61.5489 111.416C64.7538 112.56 66.5851 110.271 68.1875 110.5C67.9586 113.018 64.5248 114.163 64.5248 114.163H64.5271Z" fill="black"/>
<path opacity="0.2" d="M66.2367 105.159C54.1042 92.5688 50.4415 86.1592 44.0319 79.2917C37.2514 72.0259 31.0615 68.2374 26.735 67.514C27.5293 67.1592 32.9157 69.4232 34.2274 70.2175C37.6909 72.3212 41.761 75.5581 46.4881 81.0956C52.6757 88.3453 59.1197 97.4058 65.0761 103.156C66.0948 104.141 68.9104 105.159 70.657 105.59C72.4037 106.02 74.1663 104.468 75.375 104.923C74.1526 108.465 70.245 107.549 70.1191 107.554C68.5922 107.604 66.239 105.161 66.239 105.161L66.2367 105.159Z" fill="black"/>
<path opacity="0.2" d="M71.7395 98.0703C61.4383 87.5402 58.2495 81.6662 51.9635 74.6866C48.2619 70.5753 45.8926 66.702 38.7459 63.6094C38.7459 63.6094 43.7225 65.3217 46.6572 68.1282C47.6988 69.124 49.9971 71.6008 53.4743 75.7373C55.4567 78.0952 57.2171 80.1989 59.3529 82.8909C60.5066 84.3468 63.075 87.499 65.4466 90.3994C66.1105 91.212 68.2783 93.9201 70.7735 96.0788C72.2225 97.3332 73.2755 97.5759 75.6105 98.0726C77.9454 98.5694 80.1911 96.5068 80.832 96.9258C78.0919 103.482 71.7418 98.0726 71.7418 98.0726L71.7395 98.0703Z" fill="black"/>
</g>
<defs>
<clipPath id="clip0_2817_138958">
<rect width="85.8731" height="114" fill="white" transform="matrix(-1 0 0 1 85.9375 0.664062)"/>
</clipPath>
<clipPath id="clip1_2817_138958">
<rect width="30.6724" height="5.7206" fill="white" transform="matrix(-1 0 0 1 31.2969 0.8125)"/>
</clipPath>
</defs>
</svg>
