<svg width="132" height="173" viewBox="0 0 132 173" fill="none" xmlns="http://www.w3.org/2000/svg">
<g clip-path="url(#clip0_2817_110837)">
<g clip-path="url(#clip1_2817_110837)">
<path d="M1.86272 5.58747C4.31182 11.6077 46.2383 8.08521 48.0586 2.5096C47.9787 1.80788 41.4096 -0.0888695 25.6728 0.515588C9.93606 1.11657 1.86272 4.67037 1.86272 5.58747Z" fill="#909449"/>
<path fill-rule="evenodd" clip-rule="evenodd" d="M47.8709 2.51775C47.7605 2.80318 47.5245 3.09741 47.1562 3.39605C46.7635 3.71458 46.2322 4.02837 45.5769 4.33399C44.2665 4.94518 42.4824 5.51341 40.3751 6.02231C36.162 7.0397 30.6839 7.81354 25.1824 8.2256C19.6807 8.63768 14.1642 8.68731 9.87421 8.25941C7.7283 8.04536 5.89732 7.71258 4.53085 7.24969C3.84768 7.01827 3.28685 6.75639 2.86237 6.46491C2.45713 6.18665 2.18468 5.88738 2.0423 5.57005C2.0492 5.55512 2.06294 5.5314 2.09029 5.49815C2.14081 5.43674 2.22295 5.36087 2.34261 5.27232C2.58119 5.09575 2.94666 4.88495 3.4429 4.65161C4.4338 4.18566 5.92452 3.63983 7.91077 3.10247C11.8821 2.02808 17.8215 0.99103 25.6784 0.690976L25.6784 0.690975C33.5395 0.389025 39.1057 0.712043 42.7128 1.19674C44.517 1.43918 45.8274 1.72157 46.6882 1.98491C47.1195 2.11685 47.4319 2.2422 47.6355 2.35228C47.7378 2.40755 47.8062 2.45556 47.8477 2.49406C47.8578 2.50342 47.8653 2.51132 47.8709 2.51775ZM42.7591 0.852449C39.1275 0.364461 33.5407 0.0413349 25.6651 0.34384C17.7853 0.64477 11.8196 1.68511 7.82005 2.76714C5.82086 3.30799 4.3097 3.86013 3.29507 4.33724C2.78856 4.57542 2.40034 4.79742 2.13595 4.99308C2.00412 5.09065 1.89744 5.18576 1.82201 5.27746C1.75003 5.36496 1.68795 5.47169 1.68795 5.5893V5.62327L1.70075 5.65475C1.8708 6.07276 2.20646 6.43592 2.66572 6.75128C3.12534 7.06688 3.71819 7.34119 4.41939 7.57872C5.82166 8.05373 7.68221 8.38988 9.83974 8.60508C14.1567 9.03567 19.6948 8.98499 25.2083 8.57202C30.7222 8.15903 36.22 7.38308 40.4566 6.35999C42.5742 5.84864 44.3834 5.27397 45.7238 4.64883C46.3939 4.33629 46.9525 4.00855 47.375 3.66587C47.7962 3.32435 48.0944 2.95809 48.2226 2.56533L48.2344 2.52937L48.2301 2.49177C48.2181 2.38634 48.1513 2.30192 48.084 2.23943C48.0128 2.17336 47.9165 2.10925 47.8007 2.04668C47.5684 1.92108 47.2315 1.78784 46.7898 1.65272C45.9047 1.38195 44.5743 1.09636 42.7591 0.852449Z" fill="black"/>
<path opacity="0.2" d="M1.85753 5.35744C2.81278 7.82338 8.94775 9.06061 21.8984 8.88692C18.7337 8.13308 10.3512 6.53857 9.43757 5.72567C7.61377 4.09989 9.6599 2.50537 8.19739 2.85276C4.45253 3.74208 1.89921 5.15596 1.861 5.36091L1.85753 5.35744Z" fill="black"/>
</g>
<path d="M101.265 158.587C112.034 171.441 92.5805 177.346 86.6749 168.314C79.6368 157.552 65.4842 147.471 53.6729 137.744C43.3207 129.219 44.4532 121.778 30.7556 117.557C17.0719 115.556 3.87115 115.344 2.97141 97.8809C2.95404 93.4968 3.54459 89.1475 5.26765 85.1838C10.8988 72.2401 7.55 38.6232 5.70536 25.2487C5.57683 24.4914 5.45177 23.675 4.84036 23.2199C0.623055 18.9123 0.536201 11.4608 1.79028 5.86783C7.88696 10.9467 42.5947 8.51841 48.139 2.73438C50.3102 6.93431 50.932 13.2707 49.1186 17.7868C48.0174 36.6743 49.8134 69.7667 68.1695 83.6171C78.4661 91.5897 83.0169 97.1097 85.9628 100.087C98.4827 112.735 94.314 113.777 122.453 140.874C126.347 144.622 120.716 156.854 109.599 147.822C123.147 158.938 109.252 167.97 101.262 158.591L101.265 158.587Z" fill="#C6D161"/>
<path fill-rule="evenodd" clip-rule="evenodd" d="M48.1839 2.4375L48.0157 2.61289C47.3479 3.30961 46.226 3.96902 44.7421 4.57592C43.2618 5.18131 41.437 5.72831 39.3781 6.20787C35.2606 7.16692 30.2214 7.85295 25.162 8.2001C20.1026 8.54725 15.0291 8.5551 10.8431 8.16002C8.74991 7.96247 6.88248 7.66452 5.35139 7.2594C3.81632 6.85322 2.63647 6.34361 1.90359 5.73308L1.68513 5.5511L1.62292 5.82853C0.992493 8.64019 0.698212 11.9219 1.09336 15.0464C1.48844 18.1702 2.57467 21.1505 4.71839 23.3402L4.72789 23.3499L4.73879 23.358C5.00713 23.5577 5.17509 23.8407 5.29203 24.1768C5.40491 24.5011 5.46581 24.8607 5.52782 25.2266L5.53544 25.2711C5.53557 25.272 5.5357 25.273 5.53582 25.2739C6.45757 31.9576 7.75488 43.6974 8.11847 55.3819C8.30029 61.225 8.24851 67.0512 7.80019 72.2228C7.35159 77.3977 6.50698 81.9033 5.11051 85.1132C3.37482 89.106 2.78242 93.4812 2.79985 97.8803L2.79987 97.8844L2.80009 97.8885C3.02613 102.276 4.02559 105.594 5.62315 108.132C7.22146 110.672 9.4108 112.418 11.9958 113.672C14.5783 114.925 17.5574 115.689 20.7393 116.264C22.8582 116.647 25.0755 116.948 27.3292 117.254C28.4528 117.406 29.5854 117.56 30.7194 117.726C37.5206 119.824 40.6315 122.715 43.3345 126.143C43.9644 126.942 44.5736 127.772 45.203 128.63C47.2803 131.462 49.5773 134.593 53.5646 137.877C55.8414 139.752 58.2022 141.637 60.581 143.538C64.3813 146.573 68.2278 149.646 71.8526 152.771C77.7438 157.85 83.0263 163.048 86.5317 168.408C89.5437 173.015 95.9861 173.794 100.298 171.814C102.461 170.821 104.118 169.12 104.532 166.829C104.865 164.988 104.39 162.797 102.781 160.327C106.584 163.436 111.131 163.242 113.625 161.021C115.062 159.741 115.798 157.799 115.308 155.476C114.93 153.686 113.827 151.679 111.774 149.569C113.649 150.694 115.347 151.198 116.841 151.246C118.925 151.312 120.596 150.491 121.782 149.26C122.966 148.031 123.668 146.396 123.825 144.827C123.983 143.26 123.599 141.733 122.575 140.747C108.51 127.203 102.524 120.175 98.4903 114.955C97.5569 113.747 96.7272 112.635 95.9255 111.56C93.2621 107.989 90.9075 104.832 86.0884 99.9634C85.5421 99.4113 84.9398 98.7708 84.2549 98.0424C81.2547 94.8518 76.6706 89.9768 68.278 83.4785L68.2762 83.4771C59.1478 76.5894 54.1222 64.9034 51.5197 52.5537C48.9207 40.2209 48.7444 27.2561 49.2925 17.8238C51.1142 13.2564 50.4823 6.88365 48.2954 2.65332L48.1839 2.4375ZM101.28 158.874C101.231 158.817 101.181 158.76 101.132 158.702L101.028 158.58L101.279 158.329L101.401 158.474C101.449 158.533 101.498 158.591 101.545 158.649C105.476 163.11 110.737 163.128 113.394 160.761C114.736 159.566 115.433 157.751 114.968 155.548C114.501 153.337 112.861 150.719 109.491 147.955L109.711 147.686C112.471 149.928 114.872 150.835 116.853 150.899C118.83 150.962 120.408 150.185 121.532 149.019C122.659 147.849 123.329 146.288 123.48 144.792C123.63 143.294 123.258 141.886 122.334 140.998C108.261 127.445 102.262 120.404 98.2154 115.167C97.2771 113.953 96.4448 112.837 95.6417 111.76C92.9812 108.194 90.6423 105.058 85.8415 100.208C85.2915 99.6519 84.6864 99.0084 83.9994 98.2779C80.9986 95.0869 76.4345 90.2334 68.0662 83.7539C58.8391 76.7912 53.7888 65.006 51.1797 52.6254C48.5696 40.2399 48.3962 27.2283 48.9474 17.7754L48.949 17.7471L48.9596 17.7207C50.7216 13.3326 50.158 7.18449 48.0938 3.024C47.3666 3.70644 46.2581 4.33119 44.8736 4.89745C43.3707 5.51212 41.5268 6.06409 39.4569 6.5462C35.3168 7.5105 30.2585 8.19861 25.1858 8.54667C20.1131 8.89474 15.0201 8.90317 10.8105 8.50587C8.70582 8.30724 6.81815 8.00684 5.26255 7.59523C3.84906 7.22122 2.69548 6.75182 1.90308 6.17286C1.32045 8.89302 1.06138 12.0248 1.43802 15.0028C1.82661 18.0753 2.88988 20.9705 4.95741 23.0877C5.29365 23.3424 5.49099 23.6915 5.62012 24.0626C5.7429 24.4154 5.80823 24.8015 5.86879 25.1595L5.87875 25.2183L5.8792 25.221L5.87956 25.2237C6.80244 31.9149 8.10155 43.6692 8.46569 55.3711C8.64776 61.222 8.59618 67.0629 8.14629 72.2528C7.69667 77.4394 6.84819 81.9898 5.42906 85.2518C3.7192 89.1852 3.1303 93.5072 3.14723 97.8749C3.37148 102.217 4.35938 105.473 5.91714 107.947C7.47464 110.422 9.60942 112.128 12.1475 113.36C14.6882 114.593 17.6312 115.349 20.8011 115.922C22.9128 116.304 25.1168 116.603 27.3658 116.908C28.4955 117.061 29.6365 117.216 30.7829 117.384L30.7961 117.386L30.8089 117.39C37.6963 119.512 40.8658 122.451 43.6073 125.928C44.2476 126.74 44.8632 127.579 45.4965 128.442C47.5703 131.269 49.835 134.355 53.7855 137.608C56.0533 139.476 58.4106 141.359 60.7883 143.259C64.5936 146.299 68.4515 149.38 72.0794 152.508C77.9769 157.592 83.2897 162.816 86.8224 168.218C89.716 172.643 95.9534 173.427 100.153 171.499C102.245 170.538 103.802 168.917 104.19 166.768C104.572 164.657 103.836 161.989 101.28 158.874Z" fill="black"/>
<path fill-rule="evenodd" clip-rule="evenodd" d="M59.3828 95.4563C59.3447 95.5444 59.3852 95.6466 59.4732 95.6847C68.4162 99.5547 72.3995 104.223 76.7007 109.264C77.5947 110.312 78.5025 111.376 79.4714 112.452L79.4714 112.452C83.188 116.578 86.1892 120.449 89.399 124.588C90.304 125.755 91.2255 126.944 92.1844 128.165C96.5433 133.718 101.665 139.947 109.487 147.943C109.554 148.011 109.664 148.013 109.733 147.945C109.801 147.878 109.803 147.768 109.736 147.7C101.925 139.716 96.8113 133.497 92.4576 127.951C91.5015 126.733 90.5817 125.546 89.6777 124.381C86.4665 120.239 83.4555 116.356 79.7296 112.219C78.7683 111.152 77.8654 110.093 76.974 109.048C72.6681 104 68.6327 99.2698 59.6112 95.3659C59.5231 95.3278 59.4209 95.3683 59.3828 95.4563Z" fill="black"/>
<path fill-rule="evenodd" clip-rule="evenodd" d="M41.1486 101.418C41.128 101.511 41.1872 101.604 41.2809 101.625C48.6386 103.243 57.162 108.433 67.44 119.447L67.567 119.328L67.44 119.447C71.3347 123.62 74.5592 127.68 78.2153 132.283C79.1193 133.421 80.0497 134.593 81.0231 135.808C85.9322 141.933 91.9282 149.146 101.139 158.704C101.205 158.773 101.315 158.775 101.384 158.708C101.453 158.642 101.455 158.532 101.389 158.463C92.1877 148.914 86.1988 141.71 81.2942 135.59C80.3231 134.379 79.3943 133.209 78.4912 132.072C74.834 127.467 71.599 123.394 67.694 119.21C57.3927 108.171 48.8106 102.925 41.3556 101.285C41.2619 101.265 41.1692 101.324 41.1486 101.418Z" fill="black"/>
<path d="M101.267 158.581C112.037 171.434 92.6695 177.336 86.7639 168.304C83.7138 163.316 96.5186 153.651 101.267 158.581Z" fill="#909449"/>
<path fill-rule="evenodd" clip-rule="evenodd" d="M86.9216 163.905C86.0618 165.461 85.8044 167.073 86.6138 168.396L86.6152 168.399L86.6166 168.401C89.6285 173.007 96.0491 173.788 100.34 171.809C102.493 170.816 104.138 169.115 104.544 166.825C104.95 164.536 104.109 161.706 101.399 158.471L101.395 158.466L101.391 158.462C100.151 157.175 98.3941 156.853 96.5396 157.149C94.6859 157.445 92.7108 158.361 90.9886 159.583C89.2666 160.806 87.7831 162.346 86.9216 163.905ZM101.136 158.699C100.002 157.525 98.379 157.207 96.5944 157.492C94.807 157.778 92.8811 158.666 91.1897 159.866C89.4983 161.067 88.0557 162.571 87.2257 164.073C86.3945 165.577 86.1948 167.043 86.9088 168.213C89.8033 172.637 96.0176 173.42 100.194 171.493C102.275 170.533 103.821 168.913 104.202 166.764C104.583 164.615 103.807 161.888 101.136 158.699Z" fill="black"/>
<path d="M5.18702 85.4239C-2.17417 106.375 7.70906 116.56 29.011 117.307C35.8824 93.598 27.1351 83.7912 5.18702 85.4239Z" fill="#909449"/>
<path fill-rule="evenodd" clip-rule="evenodd" d="M28.8839 117.131C18.3201 116.739 10.636 114.012 6.48802 108.835C2.34295 103.662 1.68603 95.9856 5.31544 85.5905C16.2134 84.7978 23.7699 86.849 27.7715 91.971C31.7741 97.0942 32.2747 105.358 28.8839 117.131ZM28.0453 91.7572C23.918 86.4744 16.1653 84.435 5.17626 85.2524L5.06294 85.2609L5.02527 85.3681C1.33557 95.8696 1.94944 103.726 6.21692 109.053C10.478 114.371 18.3386 117.109 29.007 117.483L29.1423 117.487L29.18 117.357C32.6193 105.49 32.1708 97.0377 28.0453 91.7572Z" fill="black"/>
<path d="M122.414 140.82C126.308 144.568 120.677 156.8 109.56 147.768C106.573 145.235 118.106 135.074 122.414 140.82Z" fill="#909449"/>
<path fill-rule="evenodd" clip-rule="evenodd" d="M108.903 146.488C108.862 147.041 109.022 147.535 109.446 147.894L109.449 147.897L109.449 147.897C112.247 150.17 114.719 151.121 116.799 151.187C118.882 151.254 120.553 150.432 121.739 149.201C122.923 147.973 123.625 146.338 123.782 144.768C123.939 143.207 123.558 141.684 122.542 140.699C121.421 139.211 119.829 138.758 118.147 138.947C116.468 139.135 114.688 139.962 113.15 141.041C111.611 142.121 110.295 143.466 109.551 144.711C109.18 145.332 108.944 145.941 108.903 146.488ZM118.185 139.292C119.779 139.113 121.241 139.542 122.273 140.918L122.281 140.929L122.291 140.939C123.215 141.828 123.587 143.235 123.437 144.734C123.286 146.23 122.616 147.791 121.489 148.96C120.365 150.126 118.787 150.903 116.81 150.84C114.829 150.777 112.429 149.87 109.669 147.628C109.347 147.354 109.215 146.978 109.249 146.513C109.284 146.042 109.493 145.486 109.85 144.889C110.563 143.696 111.839 142.385 113.349 141.326C114.859 140.266 116.584 139.472 118.185 139.292Z" fill="black"/>
<path d="M109.56 147.767C123.108 158.883 109.167 167.87 101.177 158.491C96.3661 153.721 106.934 145.512 109.56 147.767Z" fill="#909449"/>
<path fill-rule="evenodd" clip-rule="evenodd" d="M101.048 158.611C99.8007 157.371 99.5502 155.9 99.9179 154.445C100.283 152.999 101.258 151.569 102.455 150.374C103.653 149.176 105.089 148.199 106.398 147.662C107.052 147.393 107.683 147.232 108.241 147.213C108.798 147.194 109.298 147.317 109.67 147.635C113.073 150.428 114.773 153.106 115.258 155.417C115.744 157.737 115.002 159.673 113.559 160.947C110.681 163.488 105.091 163.352 101.048 158.611ZM108.252 147.56C108.756 147.543 109.16 147.656 109.445 147.9L109.448 147.903L109.448 147.903C112.818 150.668 114.455 153.282 114.918 155.489C115.378 157.688 114.676 159.497 113.329 160.686C110.627 163.072 105.254 163.012 101.308 158.38L101.303 158.374L101.298 158.369C100.144 157.225 99.9126 155.884 100.255 154.53C100.599 153.166 101.529 151.79 102.701 150.619C103.871 149.45 105.269 148.5 106.53 147.983C107.16 147.724 107.749 147.577 108.252 147.56Z" fill="black"/>
<path d="M25.3994 8.47933C36.0817 7.73245 45.0408 5.36672 48.2021 2.72656C50.3802 6.95429 50.9916 13.242 49.1817 17.779C35.307 23.3511 20.5117 24.487 4.90345 23.2156C0.693085 18.9253 0.595818 11.446 1.85337 5.86349C5.22652 8.10415 14.547 9.24359 25.3994 8.48281V8.47933Z" fill="#909449"/>
<path fill-rule="evenodd" clip-rule="evenodd" d="M48.2592 2.45312L48.0928 2.59213C46.5439 3.88576 43.5464 5.12973 39.5802 6.14352C35.6217 7.15534 30.7218 7.9321 25.3894 8.30494L25.2278 8.31624V8.31961C19.8719 8.68627 14.8987 8.58878 10.8435 8.125C6.73841 7.65553 3.6012 6.81349 1.95154 5.71769L1.74142 5.57811L1.68599 5.8242C1.05374 8.63087 0.76123 11.917 1.15769 15.0449C1.55405 18.172 2.6411 21.1551 4.78154 23.3361L4.82689 23.3823L4.89141 23.3876C20.5163 24.6604 35.3408 23.5244 49.2485 17.939L49.3175 17.9113L49.3451 17.8422C51.1761 13.2525 50.5566 6.9122 48.3586 2.64589L48.2592 2.45312ZM48.1462 2.99566C50.2148 7.15981 50.7785 13.2333 49.0497 17.6444C35.2472 23.1716 20.526 24.3062 4.98443 23.0466C2.94407 20.9414 1.88996 18.0595 1.50232 15.0012C1.1232 12.0101 1.38354 8.86355 1.9716 6.14201C3.7391 7.21865 6.85565 8.01859 10.804 8.47014C14.9246 8.94139 19.9787 9.03596 25.4136 8.65496L25.5752 8.64363V8.64005C30.8625 8.2617 35.7244 7.48764 39.6662 6.48009C43.5054 5.49876 46.4941 4.29053 48.1462 2.99566Z" fill="black"/>
<path opacity="0.2" d="M98.664 172.243C94.4953 173.286 91.3688 172.243 88.9371 170.506C86.5054 168.77 87.2001 167.38 79.905 160.085C74.8643 155.044 66.3568 147.926 60.1038 142.715C56.6993 139.881 53.3922 137.907 51.0716 135.42C47.8444 131.957 45.8851 129.48 45.166 128.125C41.6921 123.261 37.6381 119.534 30.7528 117.411C17.0691 115.41 3.05197 115.237 2.85744 97.7666C2.8088 93.3825 3.62864 89.0367 5.26485 85.0382C9.7288 75.3217 8.68663 50.6571 6.94968 35.3719C6.16458 28.4762 5.60876 23.5503 4.84103 23.0709C0.349281 18.6972 0.835625 11.4611 1.79095 5.71875C18.0349 15.6715 8.2767 43.5842 12.4905 69.7635C14.9709 85.1841 4.51447 90.6451 11.6742 102.394C18.8339 114.143 32.3439 113.062 38.5621 115.966C43.773 118.398 48.692 126.339 51.4155 129.515C52.3813 130.644 59.5097 137.313 63.2268 139.936C66.9439 142.559 75.4862 149.816 77.1224 151.4C81.9268 156.045 85.9808 160.258 86.8493 161.474C89.0344 164.531 92.9633 167.654 94.1445 168.075C99.0079 169.812 101.787 166.338 104.219 166.685C103.871 170.506 98.6605 172.243 98.6605 172.243H98.664Z" fill="black"/>
<path opacity="0.2" d="M101.265 158.583C82.8534 139.477 77.2951 129.75 67.5682 119.328C57.2786 108.302 47.8851 102.553 41.3195 101.455C42.5249 100.917 50.699 104.352 52.6895 105.558C57.9455 108.75 64.1221 113.663 71.2957 122.066C80.6857 133.068 90.4647 146.817 99.5038 155.544C101.05 157.038 105.323 158.583 107.973 159.237C110.624 159.89 113.299 157.534 115.133 158.226C113.278 163.6 107.348 162.21 107.157 162.217C104.84 162.294 101.268 158.587 101.268 158.587L101.265 158.583Z" fill="black"/>
<path opacity="0.2" d="M109.612 147.819C93.9793 131.84 89.1402 122.926 79.6009 112.334C73.9836 106.094 70.3881 100.217 59.5426 95.5234C59.5426 95.5234 67.0948 98.1219 71.5484 102.381C73.129 103.892 76.6168 107.651 81.8936 113.928C84.902 117.506 87.5734 120.699 90.8146 124.784C92.5654 126.993 96.4631 131.777 100.062 136.178C101.07 137.412 104.359 141.521 108.146 144.797C110.345 146.701 111.943 147.069 115.486 147.823C119.03 148.577 122.437 145.447 123.41 146.083C119.252 156.032 109.615 147.823 109.615 147.823L109.612 147.819Z" fill="black"/>
</g>
<defs>
<clipPath id="clip0_2817_110837">
<rect width="130.316" height="173" fill="white" transform="matrix(-1 0 0 1 131.156 0)"/>
</clipPath>
<clipPath id="clip1_2817_110837">
<rect width="46.5467" height="8.68126" fill="white" transform="matrix(-1 0 0 1 48.2344 0.226562)"/>
</clipPath>
</defs>
</svg>
