<svg width="300" height="349" viewBox="0 0 300 349" fill="none" xmlns="http://www.w3.org/2000/svg">
<g clip-path="url(#clip0_3582_30652)">
<path d="M290.992 96.2792C278.152 96.2792 267.742 85.8698 267.742 73.0292C267.742 69.4107 268.186 65.3346 269.263 61.6358C270.342 57.9259 272.035 54.6713 274.477 52.6036C276.398 50.9768 278.992 50.2503 281.921 49.9485C284.174 49.7164 286.542 49.7407 288.876 49.7647C289.586 49.772 290.293 49.7792 290.992 49.7792C303.833 49.7792 314.242 60.1886 314.242 73.0292C314.242 79.3279 310.339 83.6397 305.963 87.9999C301.604 92.3424 297.259 96.2792 290.992 96.2792Z" fill="#F8D047" stroke="black" stroke-width="1.5"/>
<path d="M288.992 99.498C276.013 99.498 265.492 88.9767 265.492 75.998C265.492 72.3612 265.938 68.2609 267.023 64.5347C268.109 60.8011 269.821 57.4938 272.315 55.3816C274.293 53.7069 276.947 52.9724 279.896 52.6686C282.164 52.4349 284.551 52.4594 286.888 52.4835C287.596 52.4907 288.299 52.498 288.992 52.498C301.971 52.498 312.492 63.0193 312.492 75.998C312.492 82.4116 308.511 86.7904 304.139 91.1458C299.787 95.4823 295.374 99.498 288.992 99.498Z" fill="#DCDCE0" stroke="#F8D047"/>
<path d="M20.9922 366.279C8.15157 366.279 -2.25781 355.87 -2.25781 343.029C-2.25781 339.411 -1.81362 335.335 -0.737413 331.636C0.342007 327.926 2.0349 324.671 4.47684 322.604C6.39813 320.977 8.99211 320.25 11.9215 319.949C14.1741 319.716 16.5419 319.741 18.8761 319.765C19.5859 319.772 20.2927 319.779 20.9922 319.779C33.8328 319.779 44.2422 330.189 44.2422 343.029C44.2422 349.328 40.3392 353.64 35.9628 358C31.6044 362.342 27.2587 366.279 20.9922 366.279Z" fill="#F8D047" stroke="black" stroke-width="1.5"/>
<path d="M18.9922 369.498C6.0135 369.498 -4.50781 358.977 -4.50781 345.998C-4.50781 342.361 -4.06163 338.261 -2.97746 334.535C-1.89115 330.801 -0.179222 327.494 2.31529 325.382C4.2931 323.707 6.94671 322.972 9.89587 322.669C12.164 322.435 14.5514 322.459 16.8884 322.483C17.5958 322.491 18.2987 322.498 18.9922 322.498C31.9709 322.498 42.4922 333.019 42.4922 345.998C42.4922 352.412 38.5108 356.79 34.1393 361.146C29.7868 365.482 25.3736 369.498 18.9922 369.498Z" fill="#DCDCE0" stroke="#F8D047"/>
<path d="M47.0862 224.421C52.7948 224.421 57.4219 219.797 57.4219 214.092C57.4219 212.452 57.2199 210.609 56.7357 208.946C56.2483 207.272 55.4971 205.854 54.4541 204.972C53.6578 204.298 52.5559 203.976 51.2346 203.84C50.219 203.735 49.1569 203.746 48.0836 203.757C47.7518 203.76 47.419 203.763 47.0862 203.763C41.3775 203.763 36.7504 208.388 36.7504 214.092C36.7504 216.814 38.4264 218.696 40.4558 220.717C42.4786 222.731 44.377 224.421 47.0862 224.421Z" fill="#F8D047" stroke="black" stroke-width="1.5"/>
<path d="M47.7815 226.062C53.6281 226.062 58.3672 221.325 58.3672 215.483C58.3672 213.824 58.1632 211.957 57.671 210.267C57.1767 208.569 56.4065 207.099 55.3109 206.172C54.4581 205.45 53.2966 205.12 51.9556 204.982C50.9245 204.875 49.8429 204.886 48.7665 204.897C48.4371 204.901 48.1083 204.904 47.7815 204.904C41.9349 204.904 37.1958 209.641 37.1958 215.483C37.1958 218.32 38.9502 220.269 40.9747 222.285C42.9916 224.293 44.9574 226.062 47.7815 226.062Z" fill="#DCDCE0" stroke="#F8D047"/>
<path d="M247.086 354.421C252.795 354.421 257.422 349.797 257.422 344.092C257.422 342.452 257.22 340.609 256.736 338.946C256.248 337.272 255.497 335.854 254.454 334.972C253.658 334.298 252.556 333.976 251.235 333.84C250.219 333.735 249.157 333.746 248.084 333.757C247.752 333.76 247.419 333.763 247.086 333.763C241.377 333.763 236.75 338.388 236.75 344.092C236.75 346.814 238.426 348.696 240.456 350.717C242.479 352.731 244.377 354.421 247.086 354.421Z" fill="#F8D047" stroke="black" stroke-width="1.5"/>
<path d="M247.781 356.062C253.628 356.062 258.367 351.325 258.367 345.483C258.367 343.824 258.163 341.957 257.671 340.267C257.177 338.569 256.406 337.099 255.311 336.172C254.458 335.45 253.297 335.12 251.956 334.982C250.925 334.875 249.843 334.886 248.766 334.897C248.437 334.901 248.108 334.904 247.781 334.904C241.935 334.904 237.196 339.641 237.196 345.483C237.196 348.32 238.95 350.269 240.975 352.285C242.992 354.293 244.957 356.062 247.781 356.062Z" fill="#DCDCE0" stroke="#F8D047"/>
<path d="M27.1283 15.5894L27.1283 15.5893C28.1125 12.7492 30.4624 8.65256 33.1187 4.89833C35.7872 1.12672 38.6633 -2.15425 40.6494 -3.45387C42.4831 -4.65375 44.4502 -4.94253 46.6423 -4.69665C48.8624 -4.44764 51.2632 -3.65705 53.9383 -2.72966C59.3563 -0.85142 61.2698 4.19683 63.3731 9.74585C63.4153 9.85697 63.4575 9.96829 63.4998 10.0798C63.8045 10.8831 64.1224 11.6572 64.4342 12.4163C65.071 13.9668 65.6822 15.4549 66.1036 17.003C66.7165 19.2547 66.8822 21.5094 66.0346 23.9544C65.3088 26.048 63.8286 27.2922 61.9805 28.3562C61.2701 28.7652 60.5286 29.135 59.7593 29.5188C59.5156 29.6403 59.2692 29.7632 59.02 29.8893C57.9997 30.4053 56.9537 30.964 55.9847 31.6513C55.4069 32.061 54.8414 32.4719 54.2841 32.8769C52.2072 34.3857 50.2446 35.8117 48.1902 36.7863C45.6347 37.9987 43.0192 38.4664 40.0177 37.4259C34.647 35.564 30.4849 32.8144 28.1382 29.2154C25.8132 25.6498 25.2019 21.1462 27.1283 15.5894Z" fill="#F8D047" stroke="black" stroke-width="1.5"/>
<path d="M24.4557 13.3705L24.4558 13.3704C25.404 10.634 27.6972 6.71932 30.2919 3.14907C32.8945 -0.432197 35.7298 -3.56878 37.726 -4.81142C39.5904 -5.97204 41.6066 -6.22602 43.8376 -5.95365C46.085 -5.67928 48.5133 -4.8762 51.1843 -3.95024C56.721 -2.03084 58.7371 2.94214 60.8884 8.24844C60.9386 8.37232 60.9889 8.49639 61.0393 8.6206C61.3487 9.38277 61.6731 10.1235 61.9927 10.8534C62.6515 12.3577 63.29 13.8157 63.735 15.3198C64.3852 17.5178 64.5878 19.7264 63.7624 22.1071C63.0477 24.1687 61.5434 25.3736 59.6959 26.3812C58.9881 26.7672 58.2469 27.1157 57.4852 27.4737C57.2455 27.5864 57.0037 27.7001 56.7604 27.8161C55.7544 28.2959 54.7341 28.8112 53.7938 29.4473C53.2305 29.8283 52.6774 30.2119 52.1308 30.591C50.0828 32.0113 48.1272 33.3676 46.075 34.2834C43.5094 35.4284 40.8413 35.858 37.755 34.788C32.3513 32.9148 28.1107 30.1901 25.6818 26.6414C23.2699 23.1175 22.6016 18.719 24.4557 13.3705Z" fill="#DCDCE0" stroke="#F8D047"/>
<path d="M-11.1646 174.971L-11.1646 174.971C-11.693 172.012 -11.6432 167.289 -11.1589 162.716C-10.6723 158.121 -9.76505 153.853 -8.6667 151.749C-7.65265 149.807 -6.07709 148.594 -4.04413 147.738C-1.98522 146.871 0.49582 146.388 3.28316 145.891C8.92833 144.884 13.0637 148.354 17.6092 152.169C17.7003 152.246 17.7915 152.322 17.8828 152.399C18.5411 152.951 19.1966 153.471 19.8394 153.981C21.1524 155.023 22.4125 156.023 23.5363 157.168C25.1709 158.834 26.4167 160.721 26.8712 163.268C27.2604 165.449 26.5764 167.258 25.4833 169.089C25.0632 169.793 24.5968 170.478 24.1129 171.189C23.9597 171.414 23.8046 171.641 23.6488 171.873C23.0105 172.822 22.3706 173.82 21.8607 174.893C21.5566 175.533 21.2638 176.167 20.9752 176.793C19.8999 179.124 18.8837 181.327 17.567 183.181C15.9292 185.487 13.8753 187.172 10.748 187.73C5.15205 188.729 0.177222 188.362 -3.62836 186.368C-7.39867 184.392 -10.1316 180.76 -11.1646 174.971Z" fill="#F8D047" stroke="black" stroke-width="1.5"/>
<path d="M-14.5781 174.337L-14.5781 174.337C-15.0872 171.486 -14.998 166.95 -14.4776 162.567C-13.9556 158.171 -13.0134 154.049 -11.8784 151.99C-10.8183 150.067 -9.18307 148.86 -7.10319 148.008C-5.00804 147.15 -2.4969 146.665 0.286128 146.168C6.05501 145.139 10.2432 148.494 14.712 152.074C14.8163 152.157 14.9208 152.241 15.0255 152.325C15.6677 152.839 16.3125 153.327 16.9479 153.807C18.2575 154.798 19.5268 155.759 20.6497 156.854C22.2905 158.454 23.546 160.283 23.9886 162.763C24.3718 164.911 23.6476 166.697 22.5275 168.479C22.0985 169.161 21.6218 169.828 21.132 170.512C20.9779 170.727 20.8224 170.945 20.6668 171.165C20.0233 172.075 19.3846 173.023 18.8747 174.037C18.5693 174.645 18.274 175.25 17.9822 175.847C16.8888 178.087 15.8447 180.226 14.5012 182.027C12.8216 184.279 10.7032 185.957 7.48746 186.531C1.85719 187.535 -3.17402 187.229 -7.02666 185.319C-10.8524 183.422 -13.5839 179.91 -14.5781 174.337Z" fill="#DCDCE0" stroke="#F8D047"/>
<path d="M279.476 225.639L279.476 225.639C281.429 226.292 284.274 227.88 286.899 229.693C289.54 231.518 291.811 233.471 292.704 234.803C293.516 236.013 293.727 237.322 293.577 238.81C293.424 240.326 292.902 241.978 292.277 243.849C291.047 247.528 287.647 248.86 283.765 250.382C283.703 250.407 283.64 250.431 283.578 250.455C283.009 250.679 282.467 250.909 281.938 251.132C280.874 251.584 279.866 252.011 278.806 252.312C277.275 252.748 275.758 252.873 274.107 252.321C272.721 251.858 271.881 250.893 271.14 249.637C270.853 249.153 270.595 248.649 270.323 248.118C270.236 247.949 270.148 247.777 270.057 247.602C269.689 246.894 269.286 246.159 268.79 245.476C268.497 245.072 268.204 244.678 267.916 244.291C266.853 242.862 265.863 241.531 265.18 240.131C264.336 238.402 264.007 236.65 264.683 234.626C265.927 230.904 267.783 228.042 270.21 226.421C272.603 224.822 275.654 224.362 279.476 225.639Z" fill="#F8D047" stroke="black" stroke-width="1.5"/>
<path d="M281.024 223.687L281.024 223.687C282.913 224.318 285.638 225.872 288.136 227.645C290.645 229.426 292.826 231.359 293.688 232.71C294.486 233.96 294.676 235.322 294.507 236.851C294.336 238.397 293.802 240.077 293.178 241.943C291.909 245.741 288.527 247.157 284.833 248.703C284.756 248.735 284.678 248.768 284.6 248.801C284.064 249.025 283.547 249.259 283.04 249.487C282.004 249.955 281.01 250.403 279.977 250.722C278.474 251.185 276.974 251.337 275.351 250.795C273.965 250.331 273.14 249.333 272.433 248.07C272.161 247.586 271.916 247.079 271.662 246.553C271.581 246.386 271.5 246.218 271.416 246.048C271.074 245.351 270.704 244.637 270.248 243.978C269.976 243.586 269.703 243.202 269.434 242.823C268.432 241.412 267.484 240.078 266.838 238.672C266.035 236.924 265.724 235.113 266.429 233.003C267.684 229.248 269.531 226.313 271.943 224.623C274.33 222.949 277.331 222.453 281.024 223.687Z" fill="#DCDCE0" stroke="#F8D047"/>
<path d="M255.461 2.98438C255.461 -1.12964 251.908 -4.51562 247.461 -4.51562C243.014 -4.51562 239.461 -1.12964 239.461 2.98438C239.461 7.09839 243.014 10.4844 247.461 10.4844C251.908 10.4844 255.461 7.09839 255.461 2.98438Z" fill="#F8D047" stroke="black"/>
<circle cx="8" cy="8" r="7.5" transform="matrix(1 0 0 -1 238.961 9.98438)" fill="#DCDCE0" stroke="#F8D047"/>
<path d="M67.9554 97.4786C63.8414 97.4917 60.4667 101.055 60.4809 105.502C60.495 109.95 63.8923 113.492 68.0063 113.479C72.1203 113.465 75.4949 109.902 75.4808 105.455C75.4667 101.008 72.0694 97.4656 67.9554 97.4786Z" fill="#F8D047" stroke="black"/>
<circle cx="8" cy="8" r="7.5" transform="matrix(-0.00317902 -0.999995 -0.999995 0.00317902 75 113.953)" fill="#DCDCE0" stroke="#F8D047"/>
<path d="M103.733 331.58C97.3034 331.601 92.0575 337.165 92.0794 344.073C92.1014 350.981 97.3825 356.512 103.813 356.492C110.243 356.471 115.489 350.907 115.467 343.999C115.445 337.091 110.164 331.56 103.733 331.58Z" fill="#F8D047" stroke="black"/>
<circle cx="12.1937" cy="12.1937" r="11.6937" transform="matrix(-0.00317902 -0.999995 -0.999995 0.00317902 114.469 356.945)" fill="#DCDCE0" stroke="#F8D047"/>
<path d="M157.955 297.479C153.841 297.492 150.467 301.055 150.481 305.502C150.495 309.95 153.892 313.492 158.006 313.479C162.12 313.465 165.495 309.902 165.481 305.455C165.467 301.008 162.069 297.466 157.955 297.479Z" fill="#F8D047" stroke="black"/>
<circle cx="8" cy="8" r="7.5" transform="matrix(-0.00317902 -0.999995 -0.999995 0.00317902 165 313.953)" fill="#DCDCE0" stroke="#F8D047"/>
<path d="M267.955 177.479C263.841 177.492 260.467 181.055 260.481 185.502C260.495 189.95 263.892 193.492 268.006 193.479C272.12 193.465 275.495 189.902 275.481 185.455C275.467 181.008 272.069 177.466 267.955 177.479Z" fill="#F8D047" stroke="black"/>
<circle cx="8" cy="8" r="7.5" transform="matrix(-0.00317902 -0.999995 -0.999995 0.00317902 275 193.953)" fill="#DCDCE0" stroke="#F8D047"/>
<path d="M158.468 122.827C158.468 120.844 156.714 119.17 154.465 119.17C152.215 119.17 150.461 120.844 150.461 122.827C150.461 124.81 152.215 126.484 154.465 126.484C156.714 126.484 158.468 124.81 158.468 122.827Z" fill="#F8D047" stroke="black"/>
<circle cx="4.15714" cy="4.15714" r="3.65714" transform="matrix(1 0 0 -1 149.961 126.289)" fill="#DCDCE0" stroke="#F8D047"/>
</g>
<defs>
<clipPath id="clip0_3582_30652">
<rect width="300" height="349" rx="12" fill="white"/>
</clipPath>
</defs>
</svg>
