<svg width="171" height="204" viewBox="0 0 171 204" fill="none" xmlns="http://www.w3.org/2000/svg">
<g clip-path="url(#clip0_3582_23254)">
<path d="M162.199 44.5429C153.639 44.5429 146.699 37.6033 146.699 29.0429C146.699 26.6306 146.995 23.9132 147.713 21.4473C148.432 18.974 149.561 16.8043 151.189 15.4259C152.47 14.3413 154.199 13.857 156.152 13.6558C157.654 13.5011 159.232 13.5173 160.788 13.5332C161.262 13.5381 161.733 13.5429 162.199 13.5429C170.76 13.5429 177.699 20.4825 177.699 29.0429C177.699 33.242 175.097 36.1166 172.18 39.0234C169.274 41.9184 166.377 44.5429 162.199 44.5429Z" fill="#0BA85B" stroke="#2E2D33"/>
<path d="M160.863 46.6861C152.211 46.6861 145.197 39.6719 145.197 31.0195C145.197 28.595 145.494 25.8614 146.217 23.3773C146.941 20.8883 148.082 18.6833 149.745 17.2752C151.064 16.1588 152.833 15.6691 154.799 15.4665C156.311 15.3108 157.903 15.3271 159.461 15.3431C159.932 15.348 160.401 15.3528 160.863 15.3528C169.516 15.3528 176.53 22.367 176.53 31.0195C176.53 35.2952 173.876 38.2144 170.961 41.118C168.06 44.009 165.118 46.6861 160.863 46.6861Z" fill="#DCDCE0" stroke="#0BA85B" stroke-width="0.666667"/>
<path d="M75.1992 213.543C66.6388 213.543 59.6992 206.603 59.6992 198.043C59.6992 195.631 59.9953 192.913 60.7128 190.447C61.4324 187.974 62.561 185.804 64.189 184.426C65.4699 183.341 67.1992 182.857 69.1521 182.656C70.6538 182.501 72.2324 182.517 73.7885 182.533C74.2617 182.538 74.7329 182.543 75.1992 182.543C83.7596 182.543 90.6992 189.482 90.6992 198.043C90.6992 202.242 88.0972 205.117 85.1797 208.023C82.274 210.918 79.3769 213.543 75.1992 213.543Z" fill="#0BA85B" stroke="#2E2D33"/>
<path d="M73.8633 215.686C65.2108 215.686 58.1966 208.672 58.1966 200.019C58.1966 197.595 58.4941 194.861 59.2169 192.377C59.9411 189.888 61.0823 187.683 62.7453 186.275C64.0639 185.159 65.833 184.669 67.7991 184.467C69.3111 184.311 70.9027 184.327 72.4607 184.343C72.9324 184.348 73.4009 184.353 73.8633 184.353C82.5157 184.353 89.5299 191.367 89.5299 200.019C89.5299 204.295 86.8757 207.214 83.9613 210.118C81.0597 213.009 78.1176 215.686 73.8633 215.686Z" fill="#DCDCE0" stroke="#0BA85B" stroke-width="0.666667"/>
<path d="M11.5978 98.8213C15.4043 98.8213 18.4883 95.7423 18.4883 91.9464C18.4883 90.8542 18.3537 89.6279 18.0309 88.5209C17.706 87.4066 17.2053 86.4633 16.51 85.8759C15.9792 85.4274 15.2445 85.2127 14.3635 85.1221C13.6864 85.0525 12.9783 85.0597 12.2627 85.067C12.0416 85.0692 11.8197 85.0715 11.5978 85.0715C7.7913 85.0715 4.70733 88.1505 4.70733 91.9464C4.70733 93.7576 5.8242 95.0101 7.17732 96.3554C8.5257 97.696 9.79143 98.8213 11.5978 98.8213Z" fill="#0BA85B" stroke="#2E2D33"/>
<path d="M12.0587 99.9176C15.957 99.9176 19.1159 96.7644 19.1159 92.8761C19.1159 91.7717 18.9799 90.5292 18.6518 89.4039C18.3223 88.2738 17.8089 87.2954 17.0785 86.6783C16.51 86.1979 15.7356 85.9779 14.8415 85.886C14.1541 85.8153 13.433 85.8227 12.7154 85.83C12.4958 85.8323 12.2766 85.8345 12.0587 85.8345C8.16053 85.8345 5.0016 88.9878 5.0016 92.8761C5.0016 94.764 6.17096 96.0613 7.52074 97.4033C8.86521 98.7399 10.1759 99.9176 12.0587 99.9176Z" fill="#DCDCE0" stroke="#0BA85B" stroke-width="0.666667"/>
<path d="M156.934 91.501C160.74 91.501 163.824 88.422 163.824 84.6261C163.824 83.5339 163.69 82.3076 163.367 81.2006C163.042 80.0863 162.541 79.143 161.846 78.5556C161.315 78.107 160.58 77.8923 159.699 77.8018C159.022 77.7322 158.314 77.7394 157.599 77.7467C157.377 77.7489 157.156 77.7512 156.934 77.7512C153.127 77.7512 150.043 80.8302 150.043 84.6261C150.043 86.4373 151.16 87.6898 152.513 89.0351C153.862 90.3756 155.127 91.501 156.934 91.501Z" fill="#0BA85B" stroke="#2E2D33"/>
<path d="M157.395 92.5973C161.293 92.5973 164.452 89.444 164.452 85.5558C164.452 84.4514 164.316 83.2089 163.988 82.0836C163.658 80.9535 163.145 79.9751 162.414 79.358C161.846 78.8776 161.072 78.6576 160.177 78.5657C159.49 78.495 158.769 78.5024 158.051 78.5097C157.832 78.512 157.613 78.5142 157.395 78.5142C153.496 78.5142 150.338 81.6675 150.338 85.5558C150.338 87.4437 151.507 88.741 152.857 90.0829C154.201 91.4196 155.512 92.5973 157.395 92.5973Z" fill="#DCDCE0" stroke="#0BA85B" stroke-width="0.666667"/>
<path d="M6.56635 8.70689L6.56641 8.70688C8.56061 8.50994 11.6967 8.78914 14.711 9.34937C17.7393 9.9122 20.5285 10.7376 21.8697 11.5772C23.1079 12.3525 23.8318 13.4628 24.2949 14.8586C24.7638 16.2722 24.9553 17.9463 25.1405 19.8248C25.5157 23.6292 22.9936 26.1968 20.2212 29.019C20.1657 29.0756 20.1101 29.1322 20.0544 29.1889C19.6531 29.5977 19.2732 30.0062 18.9006 30.4069C18.1397 31.2252 17.4093 32.0106 16.5897 32.6978C15.3976 33.6974 14.0788 34.4271 12.362 34.5964C10.8919 34.7414 9.72547 34.1925 8.56543 33.3706C8.11951 33.0547 7.68861 32.709 7.24156 32.3504C7.09996 32.2368 6.95675 32.1219 6.81092 32.0062C6.21369 31.5326 5.58347 31.0553 4.89689 30.6604C4.48757 30.425 4.08095 30.1973 3.68025 29.9729C2.18703 29.1368 0.775904 28.3466 -0.387628 27.3748C-1.83494 26.1661 -2.84814 24.7132 -3.056 22.6056C-3.42793 18.8344 -2.92502 15.5471 -1.40117 13.1217C0.10856 10.7188 2.66447 9.0917 6.56635 8.70689Z" fill="#0BA85B" stroke="#2E2D33"/>
<path d="M7.17971 6.4612L7.17976 6.46119C9.10108 6.27143 12.1112 6.5671 14.997 7.14139C17.8916 7.71744 20.582 8.55846 21.8915 9.42013C23.1146 10.2249 23.8311 11.3746 24.2889 12.8014C24.7502 14.2386 24.9417 15.9329 25.1267 17.8084C25.5101 21.6962 23.0622 24.3049 20.4501 27.0885C20.3891 27.1534 20.3281 27.2185 20.2669 27.2837C19.8919 27.6838 19.534 28.0869 19.1813 28.4842C18.4545 29.3029 17.75 30.0965 16.9635 30.7857C15.8144 31.7928 14.5338 32.532 12.8621 32.6968C11.4145 32.8396 10.2651 32.2652 9.13935 31.4279C8.70809 31.1071 8.2902 30.7556 7.86083 30.3944C7.7257 30.2808 7.58943 30.1661 7.45125 30.0512C6.88002 29.5761 6.28319 29.1022 5.63565 28.7105C5.24774 28.4758 4.86109 28.248 4.47904 28.0229C3.04748 27.1795 1.68047 26.3741 0.5532 25.3873C-0.856089 24.1536 -1.86092 22.6582 -2.07465 20.4911C-2.44886 16.6967 -1.98299 13.3688 -0.51252 10.9078C0.947675 8.46397 3.42408 6.83159 7.17971 6.4612Z" fill="#DCDCE0" stroke="#0BA85B" stroke-width="0.666667"/>
<path d="M-6.24386 146.004L-6.24387 146.004C-6.5961 144.031 -6.56291 140.883 -6.24003 137.834C-5.91566 134.771 -5.31082 131.926 -4.57858 130.523C-3.90255 129.228 -2.85217 128.419 -1.49687 127.849C-0.124258 127.271 1.52977 126.949 3.388 126.617C7.15144 125.946 9.90833 128.26 12.9387 130.803C12.9994 130.854 13.0602 130.905 13.1211 130.956C13.56 131.324 13.997 131.671 14.4255 132.011C15.3008 132.706 16.1409 133.372 16.8901 134.136C17.9798 135.246 18.8103 136.504 19.1134 138.202C19.3728 139.656 18.9168 140.862 18.1881 142.083C17.908 142.552 17.5971 143.009 17.2745 143.482C17.1723 143.633 17.069 143.784 16.9651 143.939C16.5395 144.571 16.113 145.237 15.773 145.952C15.5703 146.379 15.3751 146.802 15.1827 147.219C14.4658 148.773 13.7884 150.241 12.9106 151.477C11.8187 153.015 10.4494 154.138 8.36452 154.51C4.63392 155.176 1.31737 154.932 -1.21969 153.602C-3.73323 152.285 -5.5552 149.864 -6.24386 146.004Z" fill="#0BA85B" stroke="#2E2D33"/>
<path d="M-8.51954 145.576L-8.51955 145.576C-8.85892 143.676 -8.79947 140.652 -8.45253 137.73C-8.10452 134.799 -7.47639 132.051 -6.71972 130.678C-6.01301 129.396 -4.92283 128.592 -3.53624 128.024C-2.13948 127.452 -0.465379 127.128 1.38997 126.797C5.2359 126.111 8.02799 128.347 11.0072 130.734C11.0768 130.79 11.1464 130.845 11.2162 130.901C11.6443 131.244 12.0742 131.569 12.4978 131.89C13.3709 132.55 14.2171 133.191 14.9657 133.921C16.0596 134.988 16.8965 136.207 17.1916 137.86C17.4471 139.292 16.9643 140.483 16.2176 141.671C15.9315 142.126 15.6137 142.57 15.2872 143.026C15.1845 143.17 15.0808 143.315 14.9771 143.461C14.5481 144.068 14.1223 144.7 13.7824 145.376C13.5787 145.781 13.3819 146.185 13.1873 146.583C12.4584 148.076 11.7623 149.502 10.8667 150.703C9.74693 152.204 8.33466 153.323 6.19086 153.706C2.43734 154.375 -0.916794 154.171 -3.48522 152.897C-6.03572 151.633 -7.85669 149.291 -8.51954 145.576Z" fill="#DCDCE0" stroke="#0BA85B" stroke-width="0.666667"/>
<path d="M171.232 150.729L171.232 150.729C170.144 149.893 168.698 148.272 167.44 146.557C166.174 144.831 165.169 143.105 164.897 142.072C164.65 141.132 164.802 140.262 165.221 139.357C165.648 138.435 166.337 137.509 167.139 136.466C168.716 134.417 171.149 134.319 173.926 134.207C173.971 134.205 174.015 134.203 174.06 134.201C174.467 134.185 174.859 134.158 175.24 134.132C176.01 134.08 176.738 134.031 177.471 134.072C178.531 134.132 179.514 134.384 180.433 135.091C181.205 135.685 181.524 136.476 181.718 137.429C181.792 137.797 181.845 138.171 181.901 138.564C181.919 138.69 181.937 138.818 181.956 138.948C182.033 139.473 182.127 140.025 182.29 140.563C182.387 140.882 182.486 141.194 182.582 141.5C182.94 142.632 183.274 143.687 183.399 144.718C183.554 145.991 183.379 147.166 182.511 148.294C180.916 150.367 179.122 151.766 177.24 152.258C175.384 152.744 173.362 152.368 171.232 150.729Z" fill="#0BA85B" stroke="#2E2D33"/>
<path d="M169.846 151.618L169.846 151.618C168.794 150.809 167.416 149.236 166.229 147.574C165.037 145.905 164.084 144.211 163.836 143.172C163.606 142.211 163.783 141.311 164.223 140.384C164.668 139.448 165.371 138.506 166.171 137.466C167.799 135.351 170.238 135.196 172.902 135.028C172.958 135.024 173.014 135.021 173.07 135.017C173.457 134.992 173.834 134.958 174.203 134.925C174.957 134.856 175.681 134.79 176.402 134.815C177.45 134.851 178.428 135.082 179.332 135.778C180.104 136.372 180.406 137.181 180.576 138.13C180.642 138.495 180.686 138.868 180.731 139.255C180.746 139.377 180.76 139.501 180.776 139.626C180.839 140.14 180.917 140.671 181.061 141.185C181.146 141.492 181.234 141.793 181.321 142.09C181.645 143.198 181.951 144.245 182.051 145.271C182.176 146.548 181.977 147.757 181.073 148.932C179.463 151.024 177.66 152.47 175.772 153.009C173.903 153.543 171.904 153.201 169.846 151.618Z" fill="#DCDCE0" stroke="#0BA85B" stroke-width="0.666667"/>
<path d="M148.504 5.47917C148.504 2.73649 146.135 0.479166 143.171 0.479166C140.206 0.479166 137.837 2.73649 137.837 5.47917C137.837 8.22184 140.206 10.4792 143.171 10.4792C146.135 10.4792 148.504 8.22184 148.504 5.47917Z" fill="#0BA85B" stroke="#2E2D33" stroke-width="0.666667"/>
<circle cx="5.33333" cy="5.33333" r="5" transform="matrix(1 0 0 -1 137.504 10.1406)" fill="#DCDCE0" stroke="#0BA85B" stroke-width="0.666667"/>
<path d="M25.5575 44.4701C22.8148 44.4789 20.5651 46.8545 20.5745 49.8193C20.5839 52.7842 22.8488 55.1455 25.5914 55.1367C28.3341 55.128 30.5839 52.7524 30.5744 49.7875C30.565 46.8227 28.3002 44.4614 25.5575 44.4701Z" fill="#0BA85B" stroke="#2E2D33" stroke-width="0.666667"/>
<circle cx="5.33333" cy="5.33333" r="5" transform="matrix(-0.00317902 -0.999995 -0.999995 0.00317902 30.207 55.4453)" fill="#DCDCE0" stroke="#0BA85B" stroke-width="0.666667"/>
<path d="M29.3522 190.452C25.0655 190.466 21.5683 194.175 21.5829 198.781C21.5975 203.386 25.1183 207.073 29.405 207.06C33.6917 207.046 37.189 203.337 37.1744 198.731C37.1597 194.126 33.639 190.438 29.3522 190.452Z" fill="#0BA85B" stroke="#2E2D33" stroke-width="0.666667"/>
<circle cx="8.12911" cy="8.12911" r="7.79577" transform="matrix(-0.00317902 -0.999995 -0.999995 0.00317902 36.5117 207.336)" fill="#DCDCE0" stroke="#0BA85B" stroke-width="0.666667"/>
<path d="M136.542 179.736C133.799 179.744 131.549 182.12 131.559 185.085C131.568 188.05 133.833 190.411 136.576 190.402C139.318 190.394 141.568 188.018 141.559 185.053C141.549 182.088 139.285 179.727 136.542 179.736Z" fill="#0BA85B" stroke="#2E2D33" stroke-width="0.666667"/>
<circle cx="5.33333" cy="5.33333" r="5" transform="matrix(-0.00317902 -0.999995 -0.999995 0.00317902 141.207 190.711)" fill="#DCDCE0" stroke="#0BA85B" stroke-width="0.666667"/>
<path d="M166.839 157.736C164.096 157.744 161.846 160.12 161.856 163.085C161.865 166.05 164.13 168.411 166.873 168.402C169.615 168.394 171.865 166.018 171.856 163.053C171.846 160.088 169.581 157.727 166.839 157.736Z" fill="#0BA85B" stroke="#2E2D33" stroke-width="0.666667"/>
<circle cx="5.33333" cy="5.33333" r="5" transform="matrix(-0.00317902 -0.999995 -0.999995 0.00317902 171.535 168.719)" fill="#DCDCE0" stroke="#0BA85B" stroke-width="0.666667"/>
<path d="M105.847 11.2171C105.847 9.89795 104.678 8.78317 103.178 8.78317C101.678 8.78317 100.509 9.89795 100.509 11.2171C100.509 12.5363 101.678 13.651 103.178 13.651C104.678 13.651 105.847 12.5363 105.847 11.2171Z" fill="#0BA85B" stroke="#2E2D33" stroke-width="0.666667"/>
<path d="M105.385 10.7562C105.385 9.41242 104.294 8.32223 102.947 8.32223C101.6 8.32223 100.509 9.41242 100.509 10.7562C100.509 12.0999 101.6 13.1901 102.947 13.1901C104.294 13.1901 105.385 12.0999 105.385 10.7562Z" fill="#DCDCE0" stroke="#0BA85B" stroke-width="0.666667"/>
</g>
<defs>
<clipPath id="clip0_3582_23254">
<rect width="171" height="204" rx="12" fill="white"/>
</clipPath>
</defs>
</svg>
