<svg width="300" height="349" viewBox="0 0 300 349" fill="none" xmlns="http://www.w3.org/2000/svg">
<g clip-path="url(#clip0_3582_30652)">
<path d="M271.992 115.279C259.152 115.279 248.742 104.87 248.742 92.0292C248.742 88.4107 249.186 84.3346 250.263 80.6358C251.342 76.9259 253.035 73.6713 255.477 71.6036C257.398 69.9768 259.992 69.2503 262.921 68.9485C265.174 68.7164 267.542 68.7407 269.876 68.7647C270.586 68.772 271.293 68.7792 271.992 68.7792C284.833 68.7792 295.242 79.1886 295.242 92.0292C295.242 98.3279 291.339 102.64 286.963 107C282.604 111.342 278.259 115.279 271.992 115.279Z" fill="#0BA85B" stroke="black" stroke-width="1.5"/>
<path d="M269.992 118.498C257.013 118.498 246.492 107.977 246.492 94.998C246.492 91.3612 246.938 87.2609 248.023 83.5347C249.109 79.8011 250.821 76.4938 253.315 74.3816C255.293 72.7069 257.947 71.9724 260.896 71.6686C263.164 71.4349 265.551 71.4594 267.888 71.4835C268.596 71.4907 269.299 71.498 269.992 71.498C282.971 71.498 293.492 82.0193 293.492 94.998C293.492 101.412 289.511 105.79 285.139 110.146C280.787 114.482 276.374 118.498 269.992 118.498Z" fill="#DCDCE0" stroke="#0BA85B"/>
<path d="M21.9922 315.279C9.15157 315.279 -1.25781 304.87 -1.25781 292.029C-1.25781 288.411 -0.813619 284.335 0.262587 280.636C1.34201 276.926 3.0349 273.671 5.47684 271.604C7.39813 269.977 9.99211 269.25 12.9215 268.949C15.1741 268.716 17.5419 268.741 19.8761 268.765C20.5859 268.772 21.2927 268.779 21.9922 268.779C34.8328 268.779 45.2422 279.189 45.2422 292.029C45.2422 298.328 41.3392 302.64 36.9628 307C32.6044 311.342 28.2587 315.279 21.9922 315.279Z" fill="#0BA85B" stroke="black" stroke-width="1.5"/>
<path d="M19.9922 318.498C7.0135 318.498 -3.50781 307.977 -3.50781 294.998C-3.50781 291.361 -3.06163 287.261 -1.97746 283.535C-0.891149 279.801 0.820778 276.494 3.31529 274.382C5.2931 272.707 7.94671 271.972 10.8959 271.669C13.164 271.435 15.5514 271.459 17.8884 271.483C18.5958 271.491 19.2987 271.498 19.9922 271.498C32.9709 271.498 43.4922 282.019 43.4922 294.998C43.4922 301.412 39.5108 305.79 35.1393 310.146C30.7868 314.482 26.3736 318.498 19.9922 318.498Z" fill="#DCDCE0" stroke="#0BA85B"/>
<path d="M38.1018 183.421C43.8105 183.421 48.4375 178.797 48.4375 173.092C48.4375 171.452 48.2356 169.609 47.7513 167.946C47.2639 166.272 46.5127 164.854 45.4697 163.972C44.6735 163.298 43.5715 162.976 42.2503 162.84C41.2346 162.735 40.1726 162.746 39.0992 162.757C38.7675 162.76 38.4346 162.763 38.1018 162.763C32.3931 162.763 27.7661 167.388 27.7661 173.092C27.7661 175.814 29.442 177.696 31.4715 179.717C33.4942 181.731 35.3927 183.421 38.1018 183.421Z" fill="#0BA85B" stroke="black" stroke-width="1.5"/>
<path d="M38.7971 185.062C44.6437 185.062 49.3828 180.325 49.3828 174.483C49.3828 172.824 49.1789 170.957 48.6867 169.267C48.1923 167.569 47.4221 166.099 46.3265 165.172C45.4737 164.45 44.3122 164.12 42.9712 163.982C41.9402 163.875 40.8585 163.886 39.7821 163.897C39.4528 163.901 39.1239 163.904 38.7971 163.904C32.9505 163.904 28.2114 168.641 28.2114 174.483C28.2114 177.32 29.9658 179.269 31.9904 181.285C34.0072 183.293 35.9731 185.062 38.7971 185.062Z" fill="#DCDCE0" stroke="#0BA85B"/>
<path d="M248.11 353.421C253.818 353.421 258.445 348.797 258.445 343.092C258.445 341.452 258.243 339.609 257.759 337.946C257.272 336.272 256.521 334.854 255.478 333.972C254.681 333.298 253.579 332.976 252.258 332.84C251.242 332.735 250.18 332.746 249.107 332.757C248.775 332.76 248.442 332.763 248.11 332.763C242.401 332.763 237.774 337.388 237.774 343.092C237.774 345.814 239.45 347.696 241.479 349.717C243.502 351.731 245.4 353.421 248.11 353.421Z" fill="#0BA85B" stroke="black" stroke-width="1.5"/>
<path d="M248.805 355.062C254.652 355.062 259.391 350.325 259.391 344.483C259.391 342.824 259.187 340.957 258.694 339.267C258.2 337.569 257.43 336.099 256.334 335.172C255.482 334.45 254.32 334.12 252.979 333.982C251.948 333.875 250.866 333.886 249.79 333.897C249.461 333.901 249.132 333.904 248.805 333.904C242.958 333.904 238.219 338.641 238.219 344.483C238.219 347.32 239.974 349.269 241.998 351.285C244.015 353.293 245.981 355.062 248.805 355.062Z" fill="#DCDCE0" stroke="#0BA85B"/>
<path d="M146.519 8.58943L146.519 8.58934C147.503 5.74917 149.853 1.65256 152.509 -2.10167C155.178 -5.87328 158.054 -9.15425 160.04 -10.4539C161.874 -11.6537 163.841 -11.9425 166.033 -11.6967C168.253 -11.4476 170.654 -10.6571 173.329 -9.72966C178.747 -7.85142 180.66 -2.80317 182.764 2.74585C182.806 2.85697 182.848 2.96829 182.89 3.07979C183.195 3.88314 183.513 4.6572 183.825 5.41633C184.462 6.9668 185.073 8.45495 185.494 10.003C186.107 12.2547 186.273 14.5094 185.425 16.9544C184.699 19.048 183.219 20.2922 181.371 21.3562C180.661 21.7652 179.919 22.135 179.15 22.5188C178.906 22.6403 178.66 22.7632 178.411 22.8893C177.39 23.4053 176.344 23.964 175.375 24.6513C174.798 25.061 174.232 25.4719 173.675 25.8769C171.598 27.3857 169.635 28.8117 167.581 29.7863C165.025 30.9987 162.41 31.4664 159.408 30.4259C154.038 28.564 149.876 25.8144 147.529 22.2154C145.204 18.6498 144.593 14.1462 146.519 8.58943Z" fill="#0BA85B" stroke="black" stroke-width="1.5"/>
<path d="M143.846 6.37047L143.846 6.3704C144.795 3.63402 147.088 -0.280683 149.682 -3.85093C152.285 -7.4322 155.12 -10.5688 157.117 -11.8114C158.981 -12.972 160.997 -13.226 163.228 -12.9536C165.476 -12.6793 167.904 -11.8762 170.575 -10.9502C176.112 -9.03084 178.128 -4.05786 180.279 1.24844C180.329 1.37232 180.38 1.49639 180.43 1.6206C180.739 2.38277 181.064 3.12351 181.383 3.85336C182.042 5.35767 182.681 6.8157 183.126 8.31983C183.776 10.5178 183.978 12.7264 183.153 15.1071C182.438 17.1687 180.934 18.3736 179.087 19.3812C178.379 19.7672 177.637 20.1157 176.876 20.4737C176.636 20.5864 176.394 20.7001 176.151 20.8161C175.145 21.2959 174.125 21.8112 173.184 22.4473C172.621 22.8283 172.068 23.2119 171.521 23.591C169.473 25.0113 167.518 26.3676 165.466 27.2834C162.9 28.4284 160.232 28.858 157.146 27.788C151.742 25.9148 147.501 23.1901 145.072 19.6414C142.661 16.1175 141.992 11.719 143.846 6.37047Z" fill="#DCDCE0" stroke="#0BA85B"/>
<path d="M2.98325 77.5453L2.98335 77.5453C5.9857 77.6902 10.5781 78.792 14.9283 80.2841C19.2985 81.7831 23.2564 83.6194 25.0625 85.1593C26.73 86.5811 27.5608 88.3875 27.942 90.5601C28.3279 92.7606 28.2451 95.2868 28.1082 98.1148C27.831 103.842 23.5254 107.1 18.7928 110.68C18.6981 110.751 18.6031 110.823 18.508 110.895C17.823 111.414 17.1697 111.937 16.529 112.45C15.2205 113.497 13.9645 114.502 12.5977 115.343C10.6095 116.565 8.49272 117.358 5.90794 117.233C3.6947 117.126 2.08418 116.056 0.542976 114.582C-0.0494486 114.015 -0.613061 113.408 -1.19781 112.778C-1.38304 112.578 -1.57038 112.376 -1.76143 112.173C-2.54382 111.339 -3.37437 110.492 -4.30662 109.756C-4.86242 109.317 -5.41589 108.89 -5.96132 108.469C-7.99377 106.901 -9.91451 105.419 -11.428 103.722C-13.3107 101.611 -14.4957 99.2331 -14.3421 96.0601C-14.0673 90.3825 -12.6004 85.6147 -9.80751 82.3498C-7.04048 79.1152 -2.89109 77.2609 2.98325 77.5453Z" fill="#0BA85B" stroke="black" stroke-width="1.5"/>
<path d="M4.37016 74.3467L4.37023 74.3467C7.26287 74.4863 11.6648 75.585 15.821 77.0697C19.9901 78.5591 23.7979 80.3969 25.5522 81.9625C27.1907 83.4249 28.0019 85.288 28.3686 87.5055C28.7379 89.7393 28.6508 92.2954 28.5141 95.1191C28.2308 100.972 24.0264 104.307 19.5402 107.865C19.4355 107.948 19.3306 108.031 19.2256 108.114C18.5813 108.626 17.9618 109.145 17.3515 109.657C16.0934 110.713 14.8741 111.736 13.556 112.586C11.6299 113.829 9.56771 114.645 7.05093 114.523C4.87151 114.418 3.29186 113.313 1.80495 111.824C1.23534 111.254 0.692307 110.641 0.134355 110.011C-0.0412625 109.812 -0.218359 109.612 -0.398228 109.411C-1.14172 108.581 -1.92348 107.747 -2.79847 107.024C-3.32265 106.591 -3.84645 106.168 -4.36402 105.75C-6.30342 104.185 -8.15536 102.69 -9.6118 100.978C-11.4326 98.8389 -12.5958 96.3996 -12.4379 93.1369C-12.1614 87.4244 -10.7406 82.5883 -8.01907 79.2588C-5.31656 75.9525 -1.28399 74.0731 4.37016 74.3467Z" fill="#DCDCE0" stroke="#0BA85B"/>
<path d="M290.476 164.483L290.476 164.483C292.429 165.135 295.274 166.723 297.899 168.537C300.54 170.362 302.811 172.315 303.704 173.647C304.516 174.857 304.727 176.166 304.577 177.654C304.424 179.17 303.902 180.822 303.277 182.692C302.047 186.371 298.647 187.704 294.765 189.226C294.703 189.25 294.64 189.275 294.578 189.299C294.009 189.522 293.467 189.752 292.938 189.976C291.874 190.428 290.866 190.855 289.806 191.156C288.275 191.591 286.758 191.717 285.107 191.165C283.721 190.702 282.881 189.737 282.14 188.481C281.853 187.997 281.595 187.492 281.323 186.962C281.236 186.793 281.148 186.621 281.057 186.446C280.689 185.738 280.286 185.003 279.79 184.32C279.497 183.916 279.204 183.522 278.916 183.135C277.853 181.705 276.863 180.374 276.18 178.974C275.336 177.246 275.007 175.494 275.683 173.47C276.927 169.748 278.783 166.885 281.21 165.264C283.603 163.665 286.654 163.206 290.476 164.483Z" fill="#0BA85B" stroke="black" stroke-width="1.5"/>
<path d="M292.024 162.531L292.024 162.531C293.913 163.162 296.638 164.716 299.136 166.489C301.645 168.27 303.826 170.202 304.688 171.553C305.486 172.803 305.676 174.166 305.507 175.695C305.336 177.241 304.802 178.921 304.178 180.787C302.909 184.585 299.527 186 295.833 187.547C295.756 187.579 295.678 187.612 295.6 187.644C295.064 187.869 294.547 188.102 294.04 188.331C293.004 188.799 292.01 189.247 290.977 189.565C289.474 190.029 287.974 190.181 286.351 189.638C284.965 189.175 284.14 188.177 283.433 186.914C283.161 186.429 282.916 185.922 282.662 185.397C282.581 185.23 282.5 185.062 282.416 184.892C282.074 184.195 281.704 183.481 281.248 182.822C280.976 182.429 280.703 182.045 280.434 181.667C279.432 180.255 278.484 178.922 277.838 177.516C277.035 175.768 276.724 173.956 277.429 171.847C278.684 168.092 280.531 165.157 282.943 163.466C285.33 161.793 288.331 161.296 292.024 162.531Z" fill="#DCDCE0" stroke="#0BA85B"/>
<path d="M256.461 1.98438C256.461 -2.12964 252.908 -5.51562 248.461 -5.51562C244.014 -5.51562 240.461 -2.12964 240.461 1.98438C240.461 6.09839 244.014 9.48438 248.461 9.48438C252.908 9.48438 256.461 6.09839 256.461 1.98438Z" fill="#0BA85B" stroke="black"/>
<circle cx="8" cy="8" r="7.5" transform="matrix(1 0 0 -1 239.961 8.98438)" fill="#DCDCE0" stroke="#0BA85B"/>
<path d="M48.9554 36.4786C44.8414 36.4917 41.4667 40.0552 41.4809 44.5024C41.495 48.9497 44.8923 52.4916 49.0063 52.4786C53.1203 52.4655 56.4949 48.902 56.4808 44.4548C56.4667 40.0075 53.0694 36.4656 48.9554 36.4786Z" fill="#0BA85B" stroke="black"/>
<circle cx="8" cy="8" r="7.5" transform="matrix(-0.00317902 -0.999995 -0.999995 0.00317902 56 52.9531)" fill="#DCDCE0" stroke="#0BA85B"/>
<path d="M164.312 310.58C157.881 310.601 152.636 316.165 152.658 323.073C152.68 329.981 157.961 335.512 164.391 335.492C170.821 335.471 176.067 329.907 176.045 322.999C176.023 316.091 170.742 310.56 164.312 310.58Z" fill="#0BA85B" stroke="black"/>
<circle cx="12.1937" cy="12.1937" r="11.6937" transform="matrix(-0.00317902 -0.999995 -0.999995 0.00317902 175.047 335.945)" fill="#DCDCE0" stroke="#0BA85B"/>
<path d="M58.9554 326.479C54.8414 326.492 51.4667 330.055 51.4809 334.502C51.495 338.95 54.8923 342.492 59.0063 342.479C63.1203 342.465 66.4949 338.902 66.4808 334.455C66.4667 330.008 63.0694 326.466 58.9554 326.479Z" fill="#0BA85B" stroke="black"/>
<circle cx="8" cy="8" r="7.5" transform="matrix(-0.00317902 -0.999995 -0.999995 0.00317902 66 342.953)" fill="#DCDCE0" stroke="#0BA85B"/>
<path d="M289.955 276.479C285.841 276.492 282.467 280.055 282.481 284.502C282.495 288.95 285.892 292.492 290.006 292.479C294.12 292.465 297.495 288.902 297.481 284.455C297.467 280.008 294.069 276.466 289.955 276.479Z" fill="#0BA85B" stroke="black"/>
<circle cx="8" cy="8" r="7.5" transform="matrix(-0.00317902 -0.999995 -0.999995 0.00317902 297 292.953)" fill="#DCDCE0" stroke="#0BA85B"/>
<path d="M35.4681 6.82723C35.4681 4.84438 33.7141 3.17009 31.4645 3.17009C29.215 3.17009 27.4609 4.84438 27.4609 6.82723C27.4609 8.81009 29.215 10.4844 31.4645 10.4844C33.7141 10.4844 35.4681 8.81009 35.4681 6.82723Z" fill="#0BA85B" stroke="black"/>
<circle cx="4.15714" cy="4.15714" r="3.65714" transform="matrix(1 0 0 -1 26.9609 10.2891)" fill="#DCDCE0" stroke="#0BA85B"/>
</g>
<defs>
<clipPath id="clip0_3582_30652">
<rect width="300" height="349" rx="12" fill="white"/>
</clipPath>
</defs>
</svg>
