<svg width="171" height="204" viewBox="0 0 171 204" fill="none" xmlns="http://www.w3.org/2000/svg">
<g clip-path="url(#clip0_4223_92719)">
<path d="M0 12C0 5.37258 5.37258 0 12 0H159C165.627 0 171 5.37258 171 12V192C171 198.627 165.627 204 159 204H12C5.37258 204 0 198.627 0 192V12Z" fill="#FAF9F6"/>
<path d="M14.6641 205.184C6.10365 205.184 -0.835938 198.244 -0.835938 189.684C-0.835938 187.271 -0.539808 184.554 0.177662 182.088C0.897276 179.615 2.02587 177.445 3.65383 176.066C4.93469 174.982 6.66401 174.498 8.61693 174.296C10.1187 174.142 11.6972 174.158 13.2533 174.174C13.7266 174.179 14.1977 174.184 14.6641 174.184C23.2245 174.184 30.1641 181.123 30.1641 189.684C30.1641 193.883 27.5621 196.757 24.6445 199.664C21.7388 202.559 18.8417 205.184 14.6641 205.184Z" fill="#0BA85B" stroke="#2E2D33"/>
<path d="M13.3281 207.327C4.67566 207.327 -2.33854 200.313 -2.33854 191.66C-2.33854 189.236 -2.04108 186.502 -1.31831 184.018C-0.594099 181.529 0.547185 179.324 2.21019 177.916C3.52873 176.799 5.2978 176.31 7.26392 176.107C8.77599 175.951 10.3676 175.968 11.9256 175.984C12.3972 175.989 12.8658 175.993 13.3281 175.993C21.9806 175.993 28.9948 183.008 28.9948 191.66C28.9948 195.936 26.3405 198.855 23.4262 201.759C20.5245 204.65 17.5824 207.327 13.3281 207.327Z" fill="#DCDCE0" stroke="#0BA85B" stroke-width="0.666667"/>
<path d="M157.391 65.1885C161.197 65.1885 164.281 62.1095 164.281 58.3136C164.281 57.2214 164.147 55.9951 163.824 54.8881C163.499 53.7738 162.998 52.8305 162.303 52.2431C161.772 51.7945 161.037 51.5798 160.157 51.4893C159.479 51.4197 158.771 51.4269 158.056 51.4342C157.835 51.4364 157.613 51.4387 157.391 51.4387C153.584 51.4387 150.5 54.5177 150.5 58.3136C150.5 60.1248 151.617 61.3773 152.97 62.7226C154.319 64.0631 155.584 65.1885 157.391 65.1885Z" fill="#0BA85B" stroke="#2E2D33"/>
<path d="M157.852 66.277C161.75 66.277 164.909 63.1237 164.909 59.2355C164.909 58.1311 164.773 56.8886 164.445 55.7633C164.115 54.6332 163.602 53.6548 162.871 53.0377C162.303 52.5573 161.529 52.3373 160.634 52.2454C159.947 52.1747 159.226 52.1821 158.508 52.1894C158.289 52.1917 158.07 52.1939 157.852 52.1939C153.953 52.1939 150.795 55.3472 150.795 59.2355C150.795 61.1234 151.964 62.4207 153.314 63.7626C154.658 65.0993 155.969 66.277 157.852 66.277Z" fill="#DCDCE0" stroke="#0BA85B" stroke-width="0.666667"/>
<path d="M48.7522 -1.60965L48.7522 -1.60971C49.4083 -3.50316 50.975 -6.23423 52.7458 -8.73705C54.5248 -11.2515 56.4422 -13.4388 57.7663 -14.3052C58.9887 -15.1051 60.3002 -15.2976 61.7616 -15.1337C63.2416 -14.9677 64.8421 -14.4406 66.6256 -13.8224C70.2375 -12.5702 71.5132 -9.20472 72.9154 -5.50538C72.9435 -5.43129 72.9716 -5.35708 72.9998 -5.28274C73.203 -4.74718 73.415 -4.23114 73.6228 -3.72506C74.0473 -2.69141 74.4548 -1.69931 74.7357 -0.667289C75.1444 0.833895 75.2548 2.33696 74.6897 3.967C74.2059 5.36273 73.2191 6.19217 71.987 6.90151C71.5134 7.17418 71.019 7.42076 70.5062 7.67659C70.3437 7.75761 70.1794 7.83957 70.0134 7.92357C69.3332 8.26761 68.6358 8.64008 67.9898 9.09826C67.6046 9.37142 67.2276 9.64534 66.8561 9.91528C65.4715 10.9212 64.1631 11.8718 62.7934 12.5216C61.0898 13.3299 59.3461 13.6417 57.3452 12.948C53.7647 11.7067 50.99 9.87367 49.4255 7.47433C47.8755 5.09724 47.468 2.09487 48.7522 -1.60965Z" fill="#F8D047" stroke="#2E2D33"/>
<path d="M46.9705 -3.08896L46.9705 -3.089C47.6026 -4.91326 49.1315 -7.52306 50.8612 -9.90322C52.5963 -12.2907 54.4865 -14.3818 55.8173 -15.2102C57.0603 -15.984 58.4044 -16.1533 59.8917 -15.9717C61.39 -15.7888 63.0088 -15.2534 64.7895 -14.6361C68.4807 -13.3565 69.8248 -10.0412 71.2589 -6.50365C71.2924 -6.42106 71.3259 -6.33835 71.3596 -6.25554C71.5658 -5.74742 71.7821 -5.25359 71.9952 -4.76703C72.4343 -3.76416 72.86 -2.79213 73.1567 -1.78939C73.5901 -0.32408 73.7252 1.1483 73.175 2.73545C72.6985 4.10985 71.6956 4.91314 70.4639 5.58487C69.9921 5.84222 69.4979 6.07453 68.9901 6.31323C68.8303 6.38835 68.6691 6.46411 68.5069 6.54147C67.8363 6.8613 67.1561 7.20489 66.5292 7.62891C66.1537 7.88293 65.7849 8.13868 65.4205 8.39138C64.0552 9.33829 62.7515 10.2425 61.3833 10.853C59.6729 11.6163 57.8942 11.9027 55.8367 11.1894C52.2342 9.94056 49.4071 8.12411 47.7879 5.75833C46.1799 3.40907 45.7344 0.47671 46.9705 -3.08896Z" fill="#DCDCE0" stroke="#F8D047" stroke-width="0.666667"/>
<path d="M-5.77901 56.6445L-5.77902 56.6445C-6.13126 54.6718 -6.09806 51.5234 -5.77519 48.4745C-5.45082 45.4115 -4.84597 42.5664 -4.11374 41.1637C-3.4377 39.8686 -2.38733 39.0601 -1.03203 38.4894C0.340585 37.9114 1.99461 37.5896 3.85284 37.2581C7.61628 36.5866 10.3732 38.9003 13.4035 41.4436C13.4642 41.4945 13.525 41.5456 13.5859 41.5967C14.0248 41.9648 14.4618 42.3116 14.8903 42.6517C15.7656 43.3463 16.6057 44.013 17.3549 44.7764C18.4447 45.8868 19.2752 47.1444 19.5782 48.8428C19.8377 50.297 19.3816 51.5028 18.653 52.7235C18.3729 53.1928 18.0619 53.6494 17.7393 54.1231C17.6372 54.2731 17.5338 54.4249 17.4299 54.5793C17.0044 55.2118 16.5778 55.8774 16.2378 56.5927C16.0352 57.0192 15.8399 57.4424 15.6476 57.8594C14.9307 59.4134 14.2532 60.882 13.3754 62.1179C12.2835 63.6553 10.9143 64.7789 8.82937 65.1509C5.09876 65.8165 1.78221 65.5721 -0.754844 64.2425C-3.26839 62.9253 -5.09035 60.5044 -5.77901 56.6445Z" fill="#FD8040" stroke="#2E2D33"/>
<path d="M-8.05469 56.2169L-8.0547 56.2168C-8.39408 54.3162 -8.33463 51.2922 -7.98769 48.3704C-7.63967 45.4395 -7.01154 42.6917 -6.25488 41.3188C-5.54816 40.0366 -4.45798 39.2324 -3.0714 38.6644C-1.67463 38.0922 -0.000535354 37.7688 1.85482 37.4377C5.70074 36.7516 8.49283 38.9881 11.4721 41.3746C11.5416 41.4303 11.6113 41.4861 11.681 41.5419C12.1092 41.8846 12.5391 42.2099 12.9627 42.5304C13.8357 43.191 14.6819 43.8313 15.4305 44.5614C16.5244 45.6284 17.3614 46.8473 17.6564 48.501C17.9119 49.933 17.4291 51.1238 16.6824 52.3115C16.3964 52.7665 16.0786 53.2106 15.7521 53.6669C15.6493 53.8105 15.5457 53.9553 15.4419 54.1021C15.0129 54.7087 14.5871 55.3407 14.2472 56.0169C14.0436 56.422 13.8467 56.8252 13.6522 57.2237C12.9232 58.7168 12.2272 60.1426 11.3315 61.3436C10.2118 62.845 8.7995 63.9637 6.6557 64.3461C2.90219 65.0158 -0.45195 64.8115 -3.02038 63.538C-5.57087 62.2733 -7.39185 59.932 -8.05469 56.2169Z" fill="#DCDCE0" stroke="#FD8040" stroke-width="0.666667"/>
<path d="M167.666 189.349L167.666 189.349C167.735 190.72 167.44 192.872 166.951 194.942C166.459 197.025 165.798 198.909 165.187 199.787C164.633 200.584 163.872 201.033 162.911 201.301C161.933 201.574 160.781 201.651 159.467 201.717C156.885 201.847 155.232 200.059 153.344 198.018C153.314 197.985 153.284 197.952 153.254 197.92C152.977 197.62 152.702 197.339 152.435 197.066C151.896 196.514 151.386 195.992 150.942 195.407C150.3 194.562 149.854 193.651 149.796 192.492C149.747 191.519 150.143 190.763 150.742 189.998C150.974 189.703 151.224 189.42 151.487 189.122C151.571 189.027 151.657 188.93 151.743 188.831C152.093 188.431 152.452 188.003 152.756 187.529C152.936 187.249 153.109 186.971 153.279 186.699C153.909 185.692 154.495 184.754 155.198 183.99C156.067 183.046 157.075 182.417 158.496 182.345C161.109 182.214 163.337 182.672 164.932 183.785C166.506 184.883 167.532 186.666 167.666 189.349Z" fill="#F8D047" stroke="#2E2D33"/>
<path d="M169.244 189.835L169.244 189.835C169.311 191.161 169.007 193.231 168.513 195.212C168.016 197.202 167.345 199.025 166.716 199.889C166.133 200.687 165.334 201.136 164.343 201.402C163.341 201.671 162.169 201.747 160.859 201.813C158.192 201.947 156.493 200.191 154.636 198.273C154.597 198.232 154.558 198.192 154.519 198.151C154.249 197.873 153.979 197.609 153.713 197.349C153.172 196.82 152.652 196.312 152.204 195.747C151.551 194.926 151.093 194.032 151.036 192.893C150.987 191.92 151.406 191.165 152.019 190.419C152.254 190.133 152.509 189.858 152.774 189.572C152.858 189.482 152.942 189.39 153.028 189.297C153.377 188.916 153.731 188.513 154.029 188.069C154.207 187.805 154.379 187.543 154.549 187.284C155.182 186.319 155.78 185.407 156.496 184.665C157.387 183.741 158.436 183.109 159.917 183.034C162.553 182.902 164.824 183.336 166.459 184.423C168.077 185.499 169.114 187.243 169.244 189.835Z" fill="#DCDCE0" stroke="#F8D047" stroke-width="0.666667"/>
<path d="M137.969 8.98698C137.969 6.2443 135.6 3.98698 132.635 3.98698C129.671 3.98698 127.302 6.2443 127.302 8.98698C127.302 11.7297 129.671 13.987 132.635 13.987C135.6 13.987 137.969 11.7297 137.969 8.98698Z" fill="#FD8040" stroke="#2E2D33" stroke-width="0.666667"/>
<circle cx="5.33333" cy="5.33333" r="5" transform="matrix(1 0 0 -1 126.969 13.6484)" fill="#DCDCE0" stroke="#FD8040" stroke-width="0.666667"/>
<path d="M10.9677 105.736C8.225 105.744 5.97522 108.12 5.98464 111.085C5.99407 114.05 8.25891 116.411 11.0016 116.402C13.7442 116.394 15.994 114.018 15.9846 111.053C15.9752 108.088 13.7103 105.727 10.9677 105.736Z" fill="#F8D047" stroke="#2E2D33" stroke-width="0.666667"/>
<circle cx="5.33333" cy="5.33333" r="5" transform="matrix(-0.00317902 -0.999995 -0.999995 0.00317902 15.6641 116.719)" fill="#DCDCE0" stroke="#F8D047" stroke-width="0.666667"/>
<path d="M75.9677 184.314C73.225 184.323 70.9752 186.698 70.9846 189.663C70.9941 192.628 73.2589 194.989 76.0016 194.98C78.7442 194.972 80.994 192.596 80.9846 189.631C80.9752 186.666 78.7103 184.305 75.9677 184.314Z" fill="#FD8040" stroke="#2E2D33" stroke-width="0.666667"/>
<circle cx="5.33333" cy="5.33333" r="5" transform="matrix(-0.00317902 -0.999995 -0.999995 0.00317902 80.6641 195.297)" fill="#DCDCE0" stroke="#FD8040" stroke-width="0.666667"/>
<path d="M157.296 138.314C154.553 138.323 152.303 140.698 152.313 143.663C152.322 146.628 154.587 148.989 157.33 148.98C160.072 148.972 162.322 146.596 162.313 143.631C162.303 140.666 160.038 138.305 157.296 138.314Z" fill="#FD8040" stroke="#2E2D33" stroke-width="0.666667"/>
<circle cx="5.33333" cy="5.33333" r="5" transform="matrix(-0.00317902 -0.999995 -0.999995 0.00317902 161.992 149.297)" fill="#DCDCE0" stroke="#FD8040" stroke-width="0.666667"/>
</g>
<defs>
<clipPath id="clip0_4223_92719">
<path d="M0 12C0 5.37258 5.37258 0 12 0H159C165.627 0 171 5.37258 171 12V192C171 198.627 165.627 204 159 204H12C5.37258 204 0 198.627 0 192V12Z" fill="white"/>
</clipPath>
</defs>
</svg>
