<svg width="300" height="349" viewBox="0 0 300 349" fill="none" xmlns="http://www.w3.org/2000/svg">
<g clip-path="url(#clip0_4223_83796)">
<path d="M0 12C0 5.37258 5.37258 0 12 0H288C294.627 0 300 5.37258 300 12V337C300 343.627 294.627 349 288 349H12C5.37259 349 0 343.627 0 337V12Z" fill="#FAF9F6"/>
<path d="M291.992 96.2792C279.152 96.2792 268.742 85.8698 268.742 73.0292C268.742 69.4107 269.186 65.3346 270.263 61.6358C271.342 57.9259 273.035 54.6713 275.477 52.6036C277.398 50.9768 279.992 50.2503 282.921 49.9485C285.174 49.7164 287.542 49.7407 289.876 49.7647C290.586 49.772 291.293 49.7792 291.992 49.7792C304.833 49.7792 315.242 60.1886 315.242 73.0292C315.242 79.3279 311.339 83.6397 306.963 87.9999C302.604 92.3424 298.259 96.2792 291.992 96.2792Z" fill="#0BA85B" stroke="black" stroke-width="1.5"/>
<path d="M289.992 99.498C277.013 99.498 266.492 88.9767 266.492 75.998C266.492 72.3612 266.938 68.2609 268.023 64.5347C269.109 60.8011 270.821 57.4938 273.315 55.3816C275.293 53.7069 277.947 52.9724 280.896 52.6686C283.164 52.4349 285.551 52.4594 287.888 52.4835C288.596 52.4907 289.299 52.498 289.992 52.498C302.971 52.498 313.492 63.0193 313.492 75.998C313.492 82.4116 309.511 86.7904 305.139 91.1458C300.787 95.4823 296.374 99.498 289.992 99.498Z" fill="#DCDCE0" stroke="#0BA85B"/>
<path d="M21.9922 366.279C9.15157 366.279 -1.25781 355.87 -1.25781 343.029C-1.25781 339.411 -0.813619 335.335 0.262587 331.636C1.34201 327.926 3.0349 324.671 5.47684 322.604C7.39813 320.977 9.99211 320.25 12.9215 319.949C15.1741 319.716 17.5419 319.741 19.8761 319.765C20.5859 319.772 21.2927 319.779 21.9922 319.779C34.8328 319.779 45.2422 330.189 45.2422 343.029C45.2422 349.328 41.3392 353.64 36.9628 358C32.6044 362.342 28.2587 366.279 21.9922 366.279Z" fill="#0BA85B" stroke="black" stroke-width="1.5"/>
<path d="M19.9922 369.498C7.0135 369.498 -3.50781 358.977 -3.50781 345.998C-3.50781 342.361 -3.06163 338.261 -1.97746 334.535C-0.891149 330.801 0.820778 327.494 3.31529 325.382C5.2931 323.707 7.94671 322.972 10.8959 322.669C13.164 322.435 15.5514 322.459 17.8884 322.483C18.5958 322.491 19.2987 322.498 19.9922 322.498C32.9709 322.498 43.4922 333.019 43.4922 345.998C43.4922 352.412 39.5108 356.79 35.1393 361.146C30.7868 365.482 26.3736 369.498 19.9922 369.498Z" fill="#DCDCE0" stroke="#0BA85B"/>
<path d="M48.0862 262.421C53.7948 262.421 58.4219 257.797 58.4219 252.092C58.4219 250.452 58.2199 248.609 57.7357 246.946C57.2483 245.272 56.4971 243.854 55.4541 242.972C54.6578 242.298 53.5559 241.976 52.2346 241.84C51.219 241.735 50.1569 241.746 49.0836 241.757C48.7518 241.76 48.419 241.763 48.0862 241.763C42.3775 241.763 37.7504 246.388 37.7504 252.092C37.7504 254.814 39.4264 256.696 41.4558 258.717C43.4786 260.731 45.377 262.421 48.0862 262.421Z" fill="#F8D047" stroke="black" stroke-width="1.5"/>
<path d="M48.7815 264.062C54.6281 264.062 59.3672 259.325 59.3672 253.483C59.3672 251.824 59.1632 249.957 58.671 248.267C58.1767 246.569 57.4065 245.099 56.3109 244.172C55.4581 243.45 54.2966 243.12 52.9556 242.982C51.9245 242.875 50.8429 242.886 49.7665 242.897C49.4371 242.901 49.1083 242.904 48.7815 242.904C42.9349 242.904 38.1958 247.641 38.1958 253.483C38.1958 256.32 39.9502 258.269 41.9747 260.285C43.9916 262.293 45.9574 264.062 48.7815 264.062Z" fill="#DCDCE0" stroke="#F8D047"/>
<path d="M248.086 354.421C253.795 354.421 258.422 349.797 258.422 344.092C258.422 342.452 258.22 340.609 257.736 338.946C257.248 337.272 256.497 335.854 255.454 334.972C254.658 334.298 253.556 333.976 252.235 333.84C251.219 333.735 250.157 333.746 249.084 333.757C248.752 333.76 248.419 333.763 248.086 333.763C242.377 333.763 237.75 338.388 237.75 344.092C237.75 346.814 239.426 348.696 241.456 350.717C243.479 352.731 245.377 354.421 248.086 354.421Z" fill="#0BA85B" stroke="black" stroke-width="1.5"/>
<path d="M248.781 356.062C254.628 356.062 259.367 351.325 259.367 345.483C259.367 343.824 259.163 341.957 258.671 340.267C258.177 338.569 257.406 337.099 256.311 336.172C255.458 335.45 254.297 335.12 252.956 334.982C251.925 334.875 250.843 334.886 249.766 334.897C249.437 334.901 249.108 334.904 248.781 334.904C242.935 334.904 238.196 339.641 238.196 345.483C238.196 348.32 239.95 350.269 241.975 352.285C243.992 354.293 245.957 356.062 248.781 356.062Z" fill="#DCDCE0" stroke="#0BA85B"/>
<path d="M28.1283 15.5894L28.1283 15.5893C29.1125 12.7492 31.4624 8.65256 34.1187 4.89833C36.7872 1.12672 39.6633 -2.15425 41.6494 -3.45387C43.4831 -4.65375 45.4502 -4.94253 47.6423 -4.69665C49.8624 -4.44764 52.2632 -3.65705 54.9383 -2.72966C60.3563 -0.85142 62.2698 4.19683 64.3731 9.74585C64.4153 9.85697 64.4575 9.96829 64.4998 10.0798C64.8045 10.8831 65.1224 11.6572 65.4342 12.4163C66.071 13.9668 66.6822 15.4549 67.1036 17.003C67.7165 19.2547 67.8822 21.5094 67.0346 23.9544C66.3088 26.048 64.8286 27.2922 62.9805 28.3562C62.2701 28.7652 61.5286 29.135 60.7593 29.5188C60.5156 29.6403 60.2692 29.7632 60.02 29.8893C58.9997 30.4053 57.9537 30.964 56.9847 31.6513C56.4069 32.061 55.8414 32.4719 55.2841 32.8769C53.2072 34.3857 51.2446 35.8117 49.1902 36.7863C46.6347 37.9987 44.0192 38.4664 41.0177 37.4259C35.647 35.564 31.4849 32.8144 29.1382 29.2154C26.8132 25.6498 26.2019 21.1462 28.1283 15.5894Z" fill="#F8D047" stroke="black" stroke-width="1.5"/>
<path d="M25.4557 13.3705L25.4558 13.3704C26.404 10.634 28.6972 6.71932 31.2919 3.14907C33.8945 -0.432197 36.7298 -3.56878 38.726 -4.81142C40.5904 -5.97204 42.6066 -6.22602 44.8376 -5.95365C47.085 -5.67928 49.5133 -4.8762 52.1843 -3.95024C57.721 -2.03084 59.7371 2.94214 61.8884 8.24844C61.9386 8.37232 61.9889 8.49639 62.0393 8.6206C62.3487 9.38277 62.6731 10.1235 62.9927 10.8534C63.6515 12.3577 64.29 13.8157 64.735 15.3198C65.3852 17.5178 65.5878 19.7264 64.7624 22.1071C64.0477 24.1687 62.5434 25.3736 60.6959 26.3812C59.9881 26.7672 59.2469 27.1157 58.4852 27.4737C58.2455 27.5864 58.0037 27.7001 57.7604 27.8161C56.7544 28.2959 55.7341 28.8112 54.7938 29.4473C54.2305 29.8283 53.6774 30.2119 53.1308 30.591C51.0828 32.0113 49.1272 33.3676 47.075 34.2834C44.5094 35.4284 41.8413 35.858 38.755 34.788C33.3513 32.9148 29.1107 30.1901 26.6818 26.6414C24.2699 23.1175 23.6016 18.719 25.4557 13.3705Z" fill="#DCDCE0" stroke="#F8D047"/>
<path d="M-10.1646 174.971L-10.1646 174.971C-10.693 172.012 -10.6432 167.289 -10.1589 162.716C-9.67232 158.121 -8.76505 153.853 -7.6667 151.749C-6.65265 149.807 -5.07709 148.594 -3.04413 147.738C-0.985216 146.871 1.49582 146.388 4.28316 145.891C9.92833 144.884 14.0637 148.354 18.6092 152.169C18.7003 152.246 18.7915 152.322 18.8828 152.399C19.5411 152.951 20.1966 153.471 20.8394 153.981C22.1524 155.023 23.4125 156.023 24.5363 157.168C26.1709 158.834 27.4167 160.721 27.8712 163.268C28.2604 165.449 27.5764 167.258 26.4833 169.089C26.0632 169.793 25.5968 170.478 25.1129 171.189C24.9597 171.414 24.8046 171.641 24.6488 171.873C24.0105 172.822 23.3706 173.82 22.8607 174.893C22.5566 175.533 22.2638 176.167 21.9752 176.793C20.8999 179.124 19.8837 181.327 18.567 183.181C16.9292 185.487 14.8753 187.172 11.748 187.73C6.15205 188.729 1.17722 188.362 -2.62836 186.368C-6.39867 184.392 -9.13162 180.76 -10.1646 174.971Z" fill="#FD8040" stroke="black" stroke-width="1.5"/>
<path d="M-13.5781 174.337L-13.5781 174.337C-14.0872 171.486 -13.998 166.95 -13.4776 162.567C-12.9556 158.171 -12.0134 154.049 -10.8784 151.99C-9.81834 150.067 -8.18307 148.86 -6.10319 148.008C-4.00804 147.15 -1.4969 146.665 1.28613 146.168C7.05501 145.139 11.2432 148.494 15.712 152.074C15.8163 152.157 15.9208 152.241 16.0255 152.325C16.6677 152.839 17.3125 153.327 17.9479 153.807C19.2575 154.798 20.5268 155.759 21.6497 156.854C23.2905 158.454 24.546 160.283 24.9886 162.763C25.3718 164.911 24.6476 166.697 23.5275 168.479C23.0985 169.161 22.6218 169.828 22.132 170.512C21.9779 170.727 21.8224 170.945 21.6668 171.165C21.0233 172.075 20.3846 173.023 19.8747 174.037C19.5693 174.645 19.274 175.25 18.9822 175.847C17.8888 178.087 16.8447 180.226 15.5012 182.027C13.8216 184.279 11.7032 185.957 8.48746 186.531C2.85719 187.535 -2.17402 187.229 -6.02666 185.319C-9.8524 183.422 -12.5839 179.91 -13.5781 174.337Z" fill="#DCDCE0" stroke="#FD8040"/>
<path d="M280.476 225.639L280.476 225.639C282.429 226.292 285.274 227.88 287.899 229.693C290.54 231.518 292.811 233.471 293.704 234.803C294.516 236.013 294.727 237.322 294.577 238.81C294.424 240.326 293.902 241.978 293.277 243.849C292.047 247.528 288.647 248.86 284.765 250.382C284.703 250.407 284.64 250.431 284.578 250.455C284.009 250.679 283.467 250.909 282.938 251.132C281.874 251.584 280.866 252.011 279.806 252.312C278.275 252.748 276.758 252.873 275.107 252.321C273.721 251.858 272.881 250.893 272.14 249.637C271.853 249.153 271.595 248.649 271.323 248.118C271.236 247.949 271.148 247.777 271.057 247.602C270.689 246.894 270.286 246.159 269.79 245.476C269.497 245.072 269.204 244.678 268.916 244.291C267.853 242.862 266.863 241.531 266.18 240.131C265.336 238.402 265.007 236.65 265.683 234.626C266.927 230.904 268.783 228.042 271.21 226.421C273.603 224.822 276.654 224.362 280.476 225.639Z" fill="#FD8040" stroke="black" stroke-width="1.5"/>
<path d="M282.024 223.687L282.024 223.687C283.913 224.318 286.638 225.872 289.136 227.645C291.645 229.426 293.826 231.359 294.688 232.71C295.486 233.96 295.676 235.322 295.507 236.851C295.336 238.397 294.802 240.077 294.178 241.943C292.909 245.741 289.527 247.157 285.833 248.703C285.756 248.735 285.678 248.768 285.6 248.801C285.064 249.025 284.547 249.259 284.04 249.487C283.004 249.955 282.01 250.403 280.977 250.722C279.474 251.185 277.974 251.337 276.351 250.795C274.965 250.331 274.14 249.333 273.433 248.07C273.161 247.586 272.916 247.079 272.662 246.553C272.581 246.386 272.5 246.218 272.416 246.048C272.074 245.351 271.704 244.637 271.248 243.978C270.976 243.586 270.703 243.202 270.434 242.823C269.432 241.412 268.484 240.078 267.838 238.672C267.035 236.924 266.724 235.113 267.429 233.003C268.684 229.248 270.531 226.313 272.943 224.623C275.33 222.949 278.331 222.453 282.024 223.687Z" fill="#DCDCE0" stroke="#FD8040"/>
<path d="M256.461 2.98438C256.461 -1.12964 252.908 -4.51562 248.461 -4.51562C244.014 -4.51562 240.461 -1.12964 240.461 2.98438C240.461 7.09839 244.014 10.4844 248.461 10.4844C252.908 10.4844 256.461 7.09839 256.461 2.98438Z" fill="#FD8040" stroke="black"/>
<circle cx="8" cy="8" r="7.5" transform="matrix(1 0 0 -1 239.961 9.98438)" fill="#DCDCE0" stroke="#FD8040"/>
<path d="M104.733 331.58C98.3034 331.601 93.0575 337.165 93.0794 344.073C93.1014 350.981 98.3825 356.512 104.813 356.492C111.243 356.471 116.489 350.907 116.467 343.999C116.445 337.091 111.164 331.56 104.733 331.58Z" fill="#F8D047" stroke="black"/>
<circle cx="12.1937" cy="12.1937" r="11.6937" transform="matrix(-0.00317902 -0.999995 -0.999995 0.00317902 115.469 356.945)" fill="#DCDCE0" stroke="#F8D047"/>
<path d="M268.955 177.479C264.841 177.492 261.467 181.055 261.481 185.502C261.495 189.95 264.892 193.492 269.006 193.479C273.12 193.465 276.495 189.902 276.481 185.455C276.467 181.008 273.069 177.466 268.955 177.479Z" fill="#F8D047" stroke="black"/>
<circle cx="8" cy="8" r="7.5" transform="matrix(-0.00317902 -0.999995 -0.999995 0.00317902 276 193.953)" fill="#DCDCE0" stroke="#F8D047"/>
<path d="M209.468 122.827C209.468 120.844 207.714 119.17 205.465 119.17C203.215 119.17 201.461 120.844 201.461 122.827C201.461 124.81 203.215 126.484 205.465 126.484C207.714 126.484 209.468 124.81 209.468 122.827Z" fill="#FD8040" stroke="black"/>
<circle cx="4.15714" cy="4.15714" r="3.65714" transform="matrix(1 0 0 -1 200.961 126.289)" fill="#DCDCE0" stroke="#FD8040"/>
</g>
<defs>
<clipPath id="clip0_4223_83796">
<path d="M0 12C0 5.37258 5.37258 0 12 0H288C294.627 0 300 5.37258 300 12V337C300 343.627 294.627 349 288 349H12C5.37259 349 0 343.627 0 337V12Z" fill="white"/>
</clipPath>
</defs>
</svg>
