<svg width="171" height="204" viewBox="0 0 171 204" fill="none" xmlns="http://www.w3.org/2000/svg">
<g clip-path="url(#clip0_3582_23254)">
<path d="M155.664 113.801C147.104 113.801 140.164 106.861 140.164 98.3007C140.164 95.8884 140.46 93.171 141.178 90.7051C141.897 88.2319 143.026 86.0621 144.654 84.6837C145.935 83.5991 147.664 83.1148 149.617 82.9136C151.119 82.7589 152.697 82.7751 154.253 82.791C154.727 82.7959 155.198 82.8007 155.664 82.8007C164.224 82.8007 171.164 89.7403 171.164 98.3007C171.164 102.5 168.562 105.374 165.644 108.281C162.739 111.176 159.842 113.801 155.664 113.801Z" fill="#FD8040" stroke="#2E2D33"/>
<path d="M154.328 115.944C145.676 115.944 138.661 108.93 138.661 100.277C138.661 97.8528 138.959 95.1192 139.682 92.6351C140.406 90.1461 141.547 87.9412 143.21 86.533C144.529 85.4166 146.298 84.9269 148.264 84.7244C149.776 84.5686 151.368 84.5849 152.926 84.601C153.397 84.6058 153.866 84.6106 154.328 84.6106C162.981 84.6106 169.995 91.6248 169.995 100.277C169.995 104.553 167.341 107.472 164.426 110.376C161.525 113.267 158.582 115.944 154.328 115.944Z" fill="#DCDCE0" stroke="#FD8040" stroke-width="0.666667"/>
<path d="M105.664 215.801C97.1036 215.801 90.1641 208.861 90.1641 200.301C90.1641 197.888 90.4602 195.171 91.1777 192.705C91.8973 190.232 93.0259 188.062 94.6538 186.684C95.9347 185.599 97.664 185.115 99.6169 184.914C101.119 184.759 102.697 184.775 104.253 184.791C104.727 184.796 105.198 184.801 105.664 184.801C114.224 184.801 121.164 191.74 121.164 200.301C121.164 204.5 118.562 207.374 115.644 210.281C112.739 213.176 109.842 215.801 105.664 215.801Z" fill="#FD8040" stroke="#2E2D33"/>
<path d="M104.328 217.944C95.6757 217.944 88.6615 210.93 88.6615 202.277C88.6615 199.853 88.9589 197.119 89.6817 194.635C90.4059 192.146 91.5472 189.941 93.2102 188.533C94.5287 187.417 96.2978 186.927 98.2639 186.724C99.776 186.569 101.368 186.585 102.926 186.601C103.397 186.606 103.866 186.611 104.328 186.611C112.981 186.611 119.995 193.625 119.995 202.277C119.995 206.553 117.341 209.472 114.426 212.376C111.525 215.267 108.582 217.944 104.328 217.944Z" fill="#DCDCE0" stroke="#FD8040" stroke-width="0.666667"/>
<path d="M28.0548 148.001C31.8613 148.001 34.9453 144.922 34.9453 141.126C34.9453 140.034 34.8107 138.808 34.4879 137.701C34.163 136.586 33.6623 135.643 32.9671 135.056C32.4362 134.607 31.7015 134.392 30.8206 134.302C30.1434 134.232 29.4353 134.239 28.7197 134.247C28.4986 134.249 28.2767 134.251 28.0548 134.251C24.2483 134.251 21.1644 137.33 21.1644 141.126C21.1644 142.937 22.2812 144.19 23.6343 145.535C24.9827 146.876 26.2485 148.001 28.0548 148.001Z" fill="#FD8040" stroke="#2E2D33"/>
<path d="M28.5158 149.097C32.414 149.097 35.5729 145.944 35.5729 142.056C35.5729 140.951 35.437 139.709 35.1089 138.584C34.7793 137.453 34.2659 136.475 33.5356 135.858C32.9671 135.378 32.1926 135.158 31.2986 135.066C30.6112 134.995 29.89 135.002 29.1724 135.01C28.9529 135.012 28.7336 135.014 28.5158 135.014C24.6176 135.014 21.4586 138.167 21.4586 142.056C21.4586 143.944 22.628 145.241 23.9778 146.583C25.3222 147.92 26.6329 149.097 28.5158 149.097Z" fill="#DCDCE0" stroke="#FD8040" stroke-width="0.666667"/>
<path d="M168.391 52.8056C172.197 52.8056 175.281 49.7267 175.281 45.9307C175.281 44.8386 175.147 43.6123 174.824 42.5053C174.499 41.3909 173.998 40.4477 173.303 39.8603C172.772 39.4117 172.037 39.197 171.157 39.1065C170.479 39.0368 169.771 39.0441 169.056 39.0513C168.835 39.0536 168.613 39.0559 168.391 39.0559C164.584 39.0559 161.5 42.1348 161.5 45.9307C161.5 47.7419 162.617 48.9945 163.97 50.3397C165.319 51.6803 166.584 52.8056 168.391 52.8056Z" fill="#FD8040" stroke="#2E2D33"/>
<path d="M168.852 53.8942C172.75 53.8942 175.909 50.7409 175.909 46.8526C175.909 45.7483 175.773 44.5058 175.445 43.3805C175.115 42.2504 174.602 41.272 173.871 40.6549C173.303 40.1745 172.529 39.9545 171.634 39.8626C170.947 39.7919 170.226 39.7993 169.508 39.8066C169.289 39.8089 169.07 39.8111 168.852 39.8111C164.953 39.8111 161.795 42.9644 161.795 46.8526C161.795 48.7406 162.964 50.0379 164.314 51.3798C165.658 52.7165 166.969 53.8942 168.852 53.8942Z" fill="#DCDCE0" stroke="#FD8040" stroke-width="0.666667"/>
<path d="M49.7522 1.00754L49.7522 1.00747C50.4083 -0.885968 51.975 -3.61704 53.7458 -6.11986C55.5248 -8.63427 57.4422 -10.8216 58.7663 -11.688C59.9887 -12.4879 61.3002 -12.6804 62.7616 -12.5165C64.2416 -12.3505 65.8421 -11.8235 67.6256 -11.2052C71.2375 -9.95303 72.5132 -6.58753 73.9154 -2.88819C73.9435 -2.81411 73.9716 -2.73989 73.9998 -2.66556C74.203 -2.13 74.415 -1.61395 74.6228 -1.10787C75.0473 -0.0742234 75.4548 0.917879 75.7357 1.9499C76.1444 3.45108 76.2548 4.95415 75.6897 6.58419C75.2059 7.97991 74.2191 8.80935 72.987 9.5187C72.5134 9.79137 72.019 10.0379 71.5062 10.2938C71.3437 10.3748 71.1794 10.4568 71.0134 10.5408C70.3332 10.8848 69.6358 11.2573 68.9898 11.7154C68.6046 11.9886 68.2276 12.2625 67.8561 12.5325C66.4715 13.5384 65.1631 14.489 63.7934 15.1388C62.0898 15.9471 60.3461 16.2588 58.3452 15.5652C54.7647 14.3239 51.99 12.4909 50.4255 10.0915C48.8755 7.71443 48.468 4.71206 49.7522 1.00754Z" fill="#FD8040" stroke="#2E2D33"/>
<path d="M47.9705 -0.47177L47.9705 -0.471815C48.6026 -2.29607 50.1315 -4.90587 51.8612 -7.28604C53.5963 -9.67355 55.4865 -11.7646 56.8173 -12.593C58.0603 -13.3668 59.4044 -13.5361 60.8917 -13.3545C62.39 -13.1716 64.0088 -12.6362 65.7895 -12.0189C69.4807 -10.7393 70.8248 -7.42399 72.2589 -3.88646C72.2924 -3.80387 72.3259 -3.72116 72.3596 -3.63835C72.5658 -3.13023 72.7821 -2.6364 72.9952 -2.14984C73.4343 -1.14697 73.86 -0.174945 74.1567 0.827801C74.5901 2.29311 74.7252 3.76549 74.175 5.35264C73.6985 6.72704 72.6956 7.53033 71.4639 8.20206C70.9921 8.4594 70.4979 8.69172 69.9901 8.93042C69.8303 9.00554 69.6691 9.08129 69.5069 9.15866C68.8363 9.47849 68.1561 9.82208 67.5292 10.2461C67.1537 10.5001 66.7849 10.7559 66.4205 11.0086C65.0552 11.9555 63.7515 12.8597 62.3833 13.4702C60.6729 14.2335 58.8942 14.5199 56.8367 13.8066C53.2342 12.5578 50.4071 10.7413 48.7879 8.37552C47.1799 6.02626 46.7344 3.0939 47.9705 -0.47177Z" fill="#DCDCE0" stroke="#FD8040" stroke-width="0.666667"/>
<path d="M-4.77901 55.2617L-4.77902 55.2617C-5.13126 53.289 -5.09806 50.1406 -4.77519 47.0917C-4.45082 44.0287 -3.84597 41.1836 -3.11374 39.7809C-2.4377 38.4858 -1.38733 37.6773 -0.032026 37.1066C1.34059 36.5285 2.99461 36.2068 4.85284 35.8752C8.61628 35.2038 11.3732 37.5175 14.4035 40.0608C14.4642 40.1117 14.525 40.1628 14.5859 40.2138C15.0248 40.582 15.4618 40.9287 15.8903 41.2688C16.7656 41.9635 17.6057 42.6302 18.3549 43.3936C19.4447 44.5039 20.2752 45.7616 20.5782 47.46C20.8377 48.9142 20.3816 50.12 19.653 51.3407C19.3729 51.81 19.0619 52.2666 18.7393 52.7403C18.6372 52.8903 18.5338 53.0421 18.4299 53.1965C18.0044 53.8289 17.5778 54.4945 17.2378 55.2099C17.0352 55.6364 16.8399 56.0595 16.6476 56.4766C15.9307 58.0306 15.2532 59.4992 14.3754 60.7351C13.2835 62.2725 11.9143 63.3961 9.82937 63.7681C6.09876 64.4337 2.78221 64.1893 0.245156 62.8597C-2.26839 61.5425 -4.09035 59.1216 -4.77901 55.2617Z" fill="#FD8040" stroke="#2E2D33"/>
<path d="M-7.05469 54.8341L-7.0547 54.834C-7.39408 52.9334 -7.33463 49.9094 -6.98769 46.9876C-6.63967 44.0567 -6.01154 41.3089 -5.25488 39.936C-4.54816 38.6538 -3.45798 37.8495 -2.0714 37.2816C-0.674633 36.7094 0.999465 36.3859 2.85482 36.0549C6.70074 35.3687 9.49283 37.6053 12.4721 39.9918C12.5416 40.0475 12.6113 40.1033 12.681 40.1591C13.1092 40.5018 13.5391 40.8271 13.9627 41.1476C14.8357 41.8082 15.6819 42.4485 16.4305 43.1786C17.5244 44.2456 18.3614 45.4644 18.6564 47.1181C18.9119 48.5502 18.4291 49.741 17.6824 50.9287C17.3964 51.3837 17.0786 51.8278 16.7521 52.2841C16.6493 52.4277 16.5457 52.5725 16.4419 52.7192C16.0129 53.3259 15.5871 53.9579 15.2472 54.6341C15.0436 55.0392 14.8467 55.4424 14.6522 55.8409C13.9232 57.334 13.2272 58.7598 12.3315 59.9608C11.2118 61.4622 9.7995 62.5808 7.6557 62.9633C3.90219 63.633 0.54805 63.4287 -2.02038 62.1551C-4.57087 60.8905 -6.39185 58.5492 -7.05469 54.8341Z" fill="#DCDCE0" stroke="#FD8040" stroke-width="0.666667"/>
<path d="M168.666 187.966L168.666 187.966C168.735 189.337 168.44 191.489 167.951 193.559C167.459 195.642 166.798 197.526 166.187 198.404C165.633 199.201 164.872 199.651 163.911 199.919C162.933 200.192 161.781 200.268 160.467 200.334C157.885 200.464 156.232 198.676 154.344 196.635C154.314 196.602 154.284 196.57 154.254 196.537C153.977 196.237 153.702 195.957 153.435 195.683C152.896 195.131 152.386 194.609 151.942 194.024C151.3 193.179 150.854 192.268 150.796 191.109C150.747 190.136 151.143 189.38 151.742 188.615C151.974 188.32 152.224 188.037 152.487 187.739C152.571 187.644 152.657 187.547 152.743 187.448C153.093 187.048 153.452 186.62 153.756 186.146C153.936 185.866 154.109 185.588 154.279 185.316C154.909 184.309 155.495 183.371 156.198 182.607C157.067 181.664 158.075 181.034 159.496 180.963C162.109 180.831 164.337 181.289 165.932 182.402C167.506 183.5 168.532 185.283 168.666 187.966Z" fill="#FD8040" stroke="#2E2D33"/>
<path d="M170.244 188.452L170.244 188.453C170.311 189.778 170.007 191.848 169.513 193.829C169.016 195.819 168.345 197.643 167.716 198.506C167.133 199.305 166.334 199.753 165.343 200.019C164.341 200.288 163.169 200.365 161.859 200.43C159.192 200.564 157.493 198.808 155.636 196.89C155.597 196.849 155.558 196.809 155.519 196.769C155.249 196.49 154.979 196.226 154.713 195.967C154.172 195.437 153.652 194.929 153.204 194.365C152.551 193.543 152.093 192.649 152.036 191.51C151.987 190.537 152.406 189.782 153.019 189.037C153.254 188.75 153.509 188.475 153.774 188.19C153.858 188.099 153.942 188.008 154.028 187.915C154.377 187.533 154.731 187.13 155.029 186.687C155.207 186.422 155.379 186.16 155.549 185.901C156.182 184.936 156.78 184.024 157.496 183.282C158.387 182.358 159.436 181.726 160.917 181.652C163.553 181.519 165.824 181.954 167.459 183.041C169.077 184.117 170.114 185.86 170.244 188.452Z" fill="#DCDCE0" stroke="#FD8040" stroke-width="0.666667"/>
<path d="M138.969 7.60417C138.969 4.86149 136.6 2.60417 133.635 2.60417C130.671 2.60417 128.302 4.86149 128.302 7.60417C128.302 10.3468 130.671 12.6042 133.635 12.6042C136.6 12.6042 138.969 10.3468 138.969 7.60417Z" fill="#FD8040" stroke="#2E2D33" stroke-width="0.666667"/>
<circle cx="5.33333" cy="5.33333" r="5" transform="matrix(1 0 0 -1 127.969 12.2656)" fill="#DCDCE0" stroke="#FD8040" stroke-width="0.666667"/>
<path d="M11.9677 104.353C9.225 104.362 6.97522 106.737 6.98464 109.702C6.99407 112.667 9.25891 115.028 12.0016 115.02C14.7442 115.011 16.994 112.635 16.9846 109.67C16.9752 106.706 14.7103 104.344 11.9677 104.353Z" fill="#FD8040" stroke="#2E2D33" stroke-width="0.666667"/>
<circle cx="5.33333" cy="5.33333" r="5" transform="matrix(-0.00317902 -0.999995 -0.999995 0.00317902 16.6641 115.336)" fill="#DCDCE0" stroke="#FD8040" stroke-width="0.666667"/>
<path d="M20.8171 178.358C16.5304 178.372 13.0331 182.082 13.0477 186.687C13.0624 191.292 16.5832 194.98 20.8699 194.966C25.1566 194.952 28.6539 191.243 28.6392 186.637C28.6246 182.032 25.1038 178.345 20.8171 178.358Z" fill="#FD8040" stroke="#2E2D33" stroke-width="0.666667"/>
<circle cx="8.12911" cy="8.12911" r="7.79577" transform="matrix(-0.00317902 -0.999995 -0.999995 0.00317902 27.9766 195.266)" fill="#DCDCE0" stroke="#FD8040" stroke-width="0.666667"/>
<path d="M56.9677 185.931C54.225 185.94 51.9752 188.315 51.9846 191.28C51.9941 194.245 54.2589 196.606 57.0016 196.598C59.7442 196.589 61.994 194.213 61.9846 191.248C61.9752 188.284 59.7103 185.922 56.9677 185.931Z" fill="#FD8040" stroke="#2E2D33" stroke-width="0.666667"/>
<circle cx="5.33333" cy="5.33333" r="5" transform="matrix(-0.00317902 -0.999995 -0.999995 0.00317902 61.6641 196.914)" fill="#DCDCE0" stroke="#FD8040" stroke-width="0.666667"/>
<path d="M168.296 166.931C165.553 166.94 163.303 169.315 163.313 172.28C163.322 175.245 165.587 177.606 168.33 177.598C171.072 177.589 173.322 175.213 173.313 172.248C173.303 169.284 171.038 166.922 168.296 166.931Z" fill="#FD8040" stroke="#2E2D33" stroke-width="0.666667"/>
<circle cx="5.33333" cy="5.33333" r="5" transform="matrix(-0.00317902 -0.999995 -0.999995 0.00317902 172.992 177.914)" fill="#DCDCE0" stroke="#FD8040" stroke-width="0.666667"/>
<path d="M157.312 16.4671C157.312 15.148 156.143 14.0332 154.643 14.0332C153.143 14.0332 151.974 15.148 151.974 16.4671C151.974 17.7863 153.143 18.901 154.643 18.901C156.143 18.901 157.312 17.7863 157.312 16.4671Z" fill="#FD8040" stroke="#2E2D33" stroke-width="0.666667"/>
<path d="M156.85 16.014C156.85 14.6702 155.759 13.58 154.412 13.58C153.065 13.58 151.974 14.6702 151.974 16.014C151.974 17.3577 153.065 18.4479 154.412 18.4479C155.759 18.4479 156.85 17.3577 156.85 16.014Z" fill="#DCDCE0" stroke="#FD8040" stroke-width="0.666667"/>
</g>
<defs>
<clipPath id="clip0_3582_23254">
<rect width="171" height="204" rx="12" fill="white"/>
</clipPath>
</defs>
</svg>
