<svg width="171" height="204" viewBox="0 0 171 204" fill="none" xmlns="http://www.w3.org/2000/svg">
<g clip-path="url(#clip0_3582_23254)">
<path d="M170.664 68.1913C162.104 68.1913 155.164 61.2518 155.164 52.6914C155.164 50.279 155.46 47.5616 156.178 45.0957C156.897 42.6225 158.026 40.4527 159.654 39.0743C160.935 37.9897 162.664 37.5054 164.617 37.3042C166.119 37.1495 167.697 37.1657 169.253 37.1817C169.727 37.1865 170.198 37.1913 170.664 37.1913C179.224 37.1913 186.164 44.1309 186.164 52.6914C186.164 56.8905 183.562 59.765 180.644 62.6718C177.739 65.5668 174.842 68.1913 170.664 68.1913Z" fill="#F8D047" stroke="#2E2D33"/>
<path d="M169.328 70.3346C160.676 70.3346 153.661 63.3204 153.661 54.6679C153.661 52.2434 153.959 49.5099 154.682 47.0257C155.406 44.5367 156.547 42.3318 158.21 40.9237C159.529 39.8072 161.298 39.3175 163.264 39.115C164.776 38.9592 166.368 38.9756 167.926 38.9916C168.397 38.9964 168.866 39.0012 169.328 39.0012C177.981 39.0012 184.995 46.0155 184.995 54.6679C184.995 58.9437 182.341 61.8629 179.426 64.7665C176.525 67.6575 173.582 70.3346 169.328 70.3346Z" fill="#DCDCE0" stroke="#F8D047" stroke-width="0.666667"/>
<path d="M12.6641 220.191C4.10365 220.191 -2.83594 213.252 -2.83594 204.691C-2.83594 202.279 -2.53981 199.562 -1.82234 197.096C-1.10272 194.622 0.0258694 192.453 1.65383 191.074C2.93469 189.99 4.66401 189.505 6.61693 189.304C8.11869 189.149 9.6972 189.166 11.2533 189.182C11.7266 189.187 12.1977 189.191 12.6641 189.191C21.2245 189.191 28.1641 196.131 28.1641 204.691C28.1641 208.89 25.5621 211.765 22.6445 214.672C19.7388 217.567 16.8417 220.191 12.6641 220.191Z" fill="#F8D047" stroke="#2E2D33"/>
<path d="M11.3281 222.335C2.67566 222.335 -4.33854 215.32 -4.33854 206.668C-4.33854 204.243 -4.04108 201.51 -3.31831 199.026C-2.5941 196.537 -1.45281 194.332 0.210191 192.924C1.52873 191.807 3.2978 191.318 5.26392 191.115C6.77599 190.959 8.36759 190.976 9.92558 190.992C10.3972 190.996 10.8658 191.001 11.3281 191.001C19.9806 191.001 26.9948 198.015 26.9948 206.668C26.9948 210.944 24.3405 213.863 21.4262 216.766C18.5245 219.657 15.5824 222.335 11.3281 222.335Z" fill="#DCDCE0" stroke="#F8D047" stroke-width="0.666667"/>
<path d="M30.0548 152.392C33.8613 152.392 36.9453 149.313 36.9453 145.517C36.9453 144.424 36.8107 143.198 36.4879 142.091C36.163 140.977 35.6623 140.034 34.9671 139.446C34.4362 138.998 33.7015 138.783 32.8206 138.692C32.1434 138.623 31.4353 138.63 30.7197 138.637C30.4986 138.64 30.2767 138.642 30.0548 138.642C26.2483 138.642 23.1644 141.721 23.1644 145.517C23.1644 147.328 24.2812 148.58 25.6343 149.926C26.9827 151.266 28.2485 152.392 30.0548 152.392Z" fill="#F8D047" stroke="#2E2D33"/>
<path d="M30.5158 153.488C34.414 153.488 37.5729 150.335 37.5729 146.446C37.5729 145.342 37.437 144.1 37.1089 142.974C36.7793 141.844 36.2659 140.866 35.5356 140.249C34.9671 139.768 34.1926 139.548 33.2986 139.456C32.6112 139.386 31.89 139.393 31.1724 139.4C30.9529 139.403 30.7336 139.405 30.5158 139.405C26.6176 139.405 23.4586 142.558 23.4586 146.446C23.4586 148.334 24.628 149.632 25.9778 150.974C27.3222 152.31 28.6329 153.488 30.5158 153.488Z" fill="#DCDCE0" stroke="#F8D047" stroke-width="0.666667"/>
<path d="M155.391 95.1416C159.197 95.1416 162.281 92.0626 162.281 88.2667C162.281 87.1745 162.147 85.9482 161.824 84.8412C161.499 83.7269 160.998 82.7837 160.303 82.1962C159.772 81.7477 159.037 81.533 158.157 81.4424C157.479 81.3728 156.771 81.38 156.056 81.3873C155.835 81.3895 155.613 81.3918 155.391 81.3918C151.584 81.3918 148.5 84.4708 148.5 88.2667C148.5 90.0779 149.617 91.3304 150.97 92.6757C152.319 94.0163 153.584 95.1416 155.391 95.1416Z" fill="#F8D047" stroke="#2E2D33"/>
<path d="M155.852 96.2301C159.75 96.2301 162.909 93.0769 162.909 89.1886C162.909 88.0842 162.773 86.8417 162.445 85.7164C162.115 84.5863 161.602 83.6079 160.871 82.9908C160.303 82.5104 159.529 82.2904 158.634 82.1985C157.947 82.1278 157.226 82.1352 156.508 82.1425C156.289 82.1448 156.07 82.147 155.852 82.147C151.953 82.147 148.795 85.3003 148.795 89.1886C148.795 91.0765 149.964 92.3738 151.314 93.7158C152.658 95.0524 153.969 96.2301 155.852 96.2301Z" fill="#DCDCE0" stroke="#F8D047" stroke-width="0.666667"/>
<path d="M16.7522 13.3982L16.7522 13.3981C17.4083 11.5047 18.975 8.77358 20.7458 6.27076C22.5248 3.75635 24.4422 1.56904 25.7663 0.702628C26.9887 -0.0972901 28.3002 -0.289809 29.7616 -0.125894C31.2416 0.0401138 32.8421 0.567173 34.6256 1.18544C38.2375 2.43759 39.5132 5.80309 40.9154 9.50244C40.9435 9.57652 40.9716 9.65073 40.9998 9.72507C41.203 10.2606 41.415 10.7767 41.6228 11.2828C42.0473 12.3164 42.4548 13.3085 42.7357 14.3405C43.1444 15.8417 43.2548 17.3448 42.6897 18.9748C42.2059 20.3705 41.2191 21.2 39.987 21.9093C39.5134 22.182 39.019 22.4286 38.5062 22.6844C38.3437 22.7654 38.1794 22.8474 38.0134 22.9314C37.3332 23.2754 36.6358 23.6479 35.9898 24.1061C35.6046 24.3792 35.2276 24.6532 34.8561 24.9231C33.4715 25.929 32.1631 26.8797 30.7934 27.5294C29.0898 28.3377 27.3461 28.6495 25.3452 27.9558C21.7647 26.7146 18.99 24.8815 17.4255 22.4821C15.8755 20.1051 15.468 17.1027 16.7522 13.3982Z" fill="#F8D047" stroke="#2E2D33"/>
<path d="M14.9705 11.9189L14.9705 11.9188C15.6026 10.0946 17.1315 7.48475 18.8612 5.10459C20.5963 2.71708 22.4865 0.626022 23.8173 -0.202406C25.0603 -0.976154 26.4044 -1.14547 27.8917 -0.963889C29.39 -0.780978 31.0088 -0.245592 32.7895 0.371713C36.4807 1.65131 37.8248 4.96664 39.2589 8.50417C39.2924 8.58676 39.3259 8.66947 39.3596 8.75227C39.5658 9.26039 39.7821 9.75422 39.9952 10.2408C40.4343 11.2437 40.86 12.2157 41.1567 13.2184C41.5901 14.6837 41.7252 16.1561 41.175 17.7433C40.6985 19.1177 39.6956 19.921 38.4639 20.5927C37.9921 20.85 37.4979 21.0823 36.9901 21.321C36.8303 21.3962 36.6691 21.4719 36.5069 21.5493C35.8363 21.8691 35.1561 22.2127 34.5292 22.6367C34.1537 22.8907 33.7849 23.1465 33.4205 23.3992C32.0552 24.3461 30.7515 25.2503 29.3833 25.8608C27.6729 26.6241 25.8942 26.9105 23.8367 26.1972C20.2342 24.9484 17.4071 23.1319 15.7879 20.7661C14.1799 18.4169 13.7344 15.4845 14.9705 11.9189Z" fill="#DCDCE0" stroke="#F8D047" stroke-width="0.666667"/>
<path d="M-7.77901 119.652L-7.77902 119.652C-8.13126 117.68 -8.09806 114.531 -7.77519 111.482C-7.45082 108.419 -6.84597 105.574 -6.11374 104.171C-5.4377 102.876 -4.38733 102.068 -3.03203 101.497C-1.65941 100.919 -0.00539017 100.597 1.85284 100.266C5.61628 99.5944 8.37318 101.908 11.4035 104.451C11.4642 104.502 11.525 104.553 11.5859 104.604C12.0248 104.973 12.4618 105.319 12.8903 105.659C13.7656 106.354 14.6057 107.021 15.3549 107.784C16.4447 108.895 17.2752 110.152 17.5782 111.851C17.8377 113.305 17.3816 114.511 16.653 115.731C16.3729 116.201 16.0619 116.657 15.7393 117.131C15.6372 117.281 15.5338 117.433 15.4299 117.587C15.0044 118.22 14.5778 118.885 14.2378 119.601C14.0352 120.027 13.8399 120.45 13.6476 120.867C12.9307 122.421 12.2532 123.89 11.3754 125.126C10.2835 126.663 8.91426 127.787 6.82937 128.159C3.09876 128.824 -0.217789 128.58 -2.75484 127.25C-5.26839 125.933 -7.09035 123.512 -7.77901 119.652Z" fill="#F8D047" stroke="#2E2D33"/>
<path d="M-10.0547 119.225L-10.0547 119.225C-10.3941 117.324 -10.3346 114.3 -9.98769 111.378C-9.63967 108.447 -9.01154 105.699 -8.25488 104.327C-7.54816 103.044 -6.45798 102.24 -5.0714 101.672C-3.67463 101.1 -2.00054 100.777 -0.145185 100.446C3.70074 99.7594 6.49283 101.996 9.47206 104.382C9.54161 104.438 9.61127 104.494 9.68104 104.55C10.1092 104.892 10.5391 105.218 10.9627 105.538C11.8357 106.199 12.6819 106.839 13.4305 107.569C14.5244 108.636 15.3614 109.855 15.6564 111.509C15.9119 112.941 15.4291 114.132 14.6824 115.319C14.3964 115.774 14.0786 116.218 13.7521 116.675C13.6493 116.818 13.5457 116.963 13.4419 117.11C13.0129 117.716 12.5871 118.349 12.2472 119.025C12.0436 119.43 11.8467 119.833 11.6522 120.232C10.9232 121.725 10.2272 123.15 9.33151 124.351C8.21177 125.853 6.7995 126.971 4.6557 127.354C0.902187 128.024 -2.45195 127.819 -5.02038 126.546C-7.57087 125.281 -9.39185 122.94 -10.0547 119.225Z" fill="#DCDCE0" stroke="#F8D047" stroke-width="0.666667"/>
<path d="M172.987 153.429L172.987 153.429C174.288 153.864 176.186 154.922 177.935 156.131C179.696 157.348 181.21 158.65 181.805 159.538C182.346 160.345 182.488 161.217 182.387 162.209C182.285 163.22 181.937 164.321 181.521 165.568C180.701 168.021 178.434 168.91 175.846 169.924C175.804 169.94 175.763 169.957 175.721 169.973C175.342 170.122 174.98 170.275 174.628 170.424C173.918 170.725 173.246 171.01 172.54 171.211C171.519 171.501 170.508 171.585 169.407 171.217C168.483 170.908 167.923 170.265 167.429 169.428C167.238 169.105 167.066 168.768 166.884 168.415C166.827 168.302 166.768 168.187 166.707 168.07C166.462 167.599 166.193 167.109 165.863 166.653C165.667 166.384 165.472 166.121 165.28 165.863C164.571 164.91 163.911 164.023 163.456 163.09C162.893 161.937 162.674 160.769 163.125 159.42C163.954 156.939 165.192 155.03 166.809 153.95C168.405 152.884 170.439 152.577 172.987 153.429Z" fill="#F8D047" stroke="#2E2D33"/>
<path d="M174.014 152.13L174.014 152.13C175.273 152.55 177.09 153.586 178.755 154.769C180.428 155.956 181.882 157.244 182.456 158.145C182.988 158.978 183.115 159.886 183.002 160.906C182.888 161.937 182.532 163.056 182.116 164.301C181.27 166.833 179.016 167.776 176.553 168.807C176.501 168.829 176.449 168.851 176.397 168.872C176.04 169.022 175.695 169.178 175.357 169.33C174.667 169.642 174.004 169.941 173.315 170.153C172.313 170.462 171.313 170.563 170.232 170.202C169.307 169.893 168.757 169.228 168.286 168.386C168.105 168.062 167.941 167.724 167.772 167.374C167.718 167.263 167.664 167.151 167.608 167.037C167.38 166.573 167.133 166.097 166.829 165.657C166.648 165.396 166.466 165.14 166.287 164.887C165.619 163.946 164.987 163.057 164.556 162.12C164.02 160.954 163.814 159.747 164.283 158.341C165.12 155.838 166.351 153.88 167.959 152.754C169.55 151.638 171.551 151.307 174.014 152.13Z" fill="#DCDCE0" stroke="#F8D047" stroke-width="0.666667"/>
<path d="M166.969 8.99479C166.969 6.25212 164.6 3.99479 161.635 3.99479C158.671 3.99479 156.302 6.25212 156.302 8.99479C156.302 11.7375 158.671 13.9948 161.635 13.9948C164.6 13.9948 166.969 11.7375 166.969 8.99479Z" fill="#F8D047" stroke="#2E2D33" stroke-width="0.666667"/>
<circle cx="5.33333" cy="5.33333" r="5" transform="matrix(1 0 0 -1 155.969 13.6562)" fill="#DCDCE0" stroke="#F8D047" stroke-width="0.666667"/>
<path d="M26.9989 65.3451C24.2563 65.3539 22.0065 67.7295 22.0159 70.6943C22.0253 73.6592 24.2902 76.0205 27.0328 76.0117C29.7755 76.003 32.0253 73.6274 32.0158 70.6625C32.0064 67.6977 29.7416 65.3364 26.9989 65.3451Z" fill="#F8D047" stroke="#2E2D33" stroke-width="0.666667"/>
<circle cx="5.33333" cy="5.33333" r="5" transform="matrix(-0.00317902 -0.999995 -0.999995 0.00317902 31.6953 76.3203)" fill="#DCDCE0" stroke="#F8D047" stroke-width="0.666667"/>
<path d="M67.8171 194.061C63.5304 194.075 60.0331 197.785 60.0477 202.39C60.0624 206.995 63.5832 210.683 67.8699 210.669C72.1566 210.655 75.6539 206.946 75.6392 202.34C75.6246 197.735 72.1038 194.048 67.8171 194.061Z" fill="#F8D047" stroke="#2E2D33" stroke-width="0.666667"/>
<circle cx="8.12911" cy="8.12911" r="7.79577" transform="matrix(-0.00317902 -0.999995 -0.999995 0.00317902 74.9766 210.969)" fill="#DCDCE0" stroke="#F8D047" stroke-width="0.666667"/>
<path d="M133.968 190.33C131.225 190.338 128.975 192.714 128.985 195.679C128.994 198.644 131.259 201.005 134.002 200.996C136.744 200.987 138.994 198.612 138.985 195.647C138.975 192.682 136.71 190.321 133.968 190.33Z" fill="#F8D047" stroke="#2E2D33" stroke-width="0.666667"/>
<circle cx="5.33333" cy="5.33333" r="5" transform="matrix(-0.00317902 -0.999995 -0.999995 0.00317902 138.664 201.305)" fill="#DCDCE0" stroke="#F8D047" stroke-width="0.666667"/>
<path d="M155.296 131.33C152.553 131.338 150.303 133.714 150.313 136.679C150.322 139.644 152.587 142.005 155.33 141.996C158.072 141.987 160.322 139.612 160.313 136.647C160.303 133.682 158.038 131.321 155.296 131.33Z" fill="#F8D047" stroke="#2E2D33" stroke-width="0.666667"/>
<circle cx="5.33333" cy="5.33333" r="5" transform="matrix(-0.00317902 -0.999995 -0.999995 0.00317902 159.992 142.305)" fill="#DCDCE0" stroke="#F8D047" stroke-width="0.666667"/>
<path d="M104.312 84.7562C104.312 83.437 103.143 82.3222 101.643 82.3222C100.143 82.3222 98.974 83.437 98.974 84.7562C98.974 86.0753 100.143 87.1901 101.643 87.1901C103.143 87.1901 104.312 86.0753 104.312 84.7562Z" fill="#F8D047" stroke="#2E2D33" stroke-width="0.666667"/>
<path d="M103.85 84.303C103.85 82.9593 102.759 81.8691 101.412 81.8691C100.065 81.8691 98.974 82.9593 98.974 84.303C98.974 85.6468 100.065 86.737 101.412 86.737C102.759 86.737 103.85 85.6468 103.85 84.303Z" fill="#DCDCE0" stroke="#F8D047" stroke-width="0.666667"/>
</g>
<defs>
<clipPath id="clip0_3582_23254">
<rect width="171" height="204" rx="12" fill="white"/>
</clipPath>
</defs>
</svg>
