<svg width="300" height="349" viewBox="0 0 300 349" fill="none" xmlns="http://www.w3.org/2000/svg">
<g clip-path="url(#clip0_3582_30652)">
<path d="M148.992 37.2792C136.152 37.2792 125.742 26.8698 125.742 14.0292C125.742 10.4107 126.186 6.3346 127.263 2.63578C128.342 -1.07409 130.035 -4.32871 132.477 -6.39637C134.398 -8.02319 136.992 -8.7497 139.921 -9.0515C142.174 -9.28358 144.542 -9.25928 146.876 -9.23533C147.586 -9.22804 148.293 -9.22079 148.992 -9.22079C161.833 -9.22079 172.242 1.18859 172.242 14.0292C172.242 20.3279 168.339 24.6397 163.963 28.9999C159.604 33.3424 155.259 37.2792 148.992 37.2792Z" fill="#FD8040" stroke="black" stroke-width="1.5"/>
<path d="M146.992 40.498C134.013 40.498 123.492 29.9767 123.492 16.998C123.492 13.3612 123.938 9.26087 125.023 5.53469C126.109 1.80114 127.821 -1.50624 130.315 -3.61841C132.293 -5.29309 134.947 -6.02759 137.896 -6.33143C140.164 -6.56511 142.551 -6.54056 144.888 -6.51654C145.596 -6.50926 146.299 -6.50204 146.992 -6.50204C159.971 -6.50204 170.492 4.01927 170.492 16.998C170.492 23.4116 166.511 27.7904 162.139 32.1458C157.787 36.4823 153.374 40.498 146.992 40.498Z" fill="#DCDCE0" stroke="#FD8040"/>
<path d="M198.992 367.279C186.152 367.279 175.742 356.87 175.742 344.029C175.742 340.411 176.186 336.335 177.263 332.636C178.342 328.926 180.035 325.671 182.477 323.604C184.398 321.977 186.992 321.25 189.921 320.949C192.174 320.716 194.542 320.741 196.876 320.765C197.586 320.772 198.293 320.779 198.992 320.779C211.833 320.779 222.242 331.189 222.242 344.029C222.242 350.328 218.339 354.64 213.963 359C209.604 363.342 205.259 367.279 198.992 367.279Z" fill="#FD8040" stroke="black" stroke-width="1.5"/>
<path d="M196.992 370.498C184.013 370.498 173.492 359.977 173.492 346.998C173.492 343.361 173.938 339.261 175.023 335.535C176.109 331.801 177.821 328.494 180.315 326.382C182.293 324.707 184.947 323.972 187.896 323.669C190.164 323.435 192.551 323.459 194.888 323.483C195.596 323.491 196.299 323.498 196.992 323.498C209.971 323.498 220.492 334.019 220.492 346.998C220.492 353.412 216.511 357.79 212.139 362.146C207.787 366.482 203.374 370.498 196.992 370.498Z" fill="#DCDCE0" stroke="#FD8040"/>
<path d="M45.094 225.421C50.8027 225.421 55.4297 220.797 55.4297 215.092C55.4297 213.452 55.2277 211.609 54.7435 209.946C54.2561 208.272 53.5049 206.854 52.4619 205.972C51.6656 205.298 50.5637 204.976 49.2425 204.84C48.2268 204.735 47.1647 204.746 46.0914 204.757C45.7596 204.76 45.4268 204.763 45.094 204.763C39.3853 204.763 34.7583 209.388 34.7583 215.092C34.7583 217.814 36.4342 219.696 38.4636 221.717C40.4864 223.731 42.3849 225.421 45.094 225.421Z" fill="#FD8040" stroke="black" stroke-width="1.5"/>
<path d="M45.7893 227.062C51.6359 227.062 56.375 222.325 56.375 216.483C56.375 214.824 56.1711 212.957 55.6789 211.267C55.1845 209.569 54.4143 208.099 53.3187 207.172C52.4659 206.45 51.3044 206.12 49.9634 205.982C48.9323 205.875 47.8507 205.886 46.7743 205.897C46.4449 205.901 46.1161 205.904 45.7893 205.904C39.9427 205.904 35.2036 210.641 35.2036 216.483C35.2036 219.32 36.958 221.269 38.9826 223.285C40.9994 225.293 42.9653 227.062 45.7893 227.062Z" fill="#DCDCE0" stroke="#FD8040"/>
<path d="M285.094 324.421C290.803 324.421 295.43 319.797 295.43 314.092C295.43 312.452 295.228 310.609 294.744 308.946C294.256 307.272 293.505 305.854 292.462 304.972C291.666 304.298 290.564 303.976 289.242 303.84C288.227 303.735 287.165 303.746 286.091 303.757C285.76 303.76 285.427 303.763 285.094 303.763C279.385 303.763 274.758 308.388 274.758 314.092C274.758 316.814 276.434 318.696 278.464 320.717C280.486 322.731 282.385 324.421 285.094 324.421Z" fill="#FD8040" stroke="black" stroke-width="1.5"/>
<path d="M285.789 326.062C291.636 326.062 296.375 321.325 296.375 315.483C296.375 313.824 296.171 311.957 295.679 310.267C295.185 308.569 294.414 307.099 293.319 306.172C292.466 305.45 291.304 305.12 289.963 304.982C288.932 304.875 287.851 304.886 286.774 304.897C286.445 304.901 286.116 304.904 285.789 304.904C279.943 304.904 275.204 309.641 275.204 315.483C275.204 318.32 276.958 320.269 278.983 322.285C280.999 324.293 282.965 326.062 285.789 326.062Z" fill="#DCDCE0" stroke="#FD8040"/>
<path d="M0.638689 34.6008L0.638777 34.6007C3.24171 33.0974 7.69961 31.5381 12.165 30.438C16.6511 29.3329 20.973 28.7346 23.3252 29.0518C25.4969 29.3447 27.1732 30.4139 28.6697 32.0344C30.1853 33.6757 31.483 35.8447 32.8987 38.2967C35.7658 43.2628 33.9086 48.332 31.8672 53.9041C31.8263 54.0157 31.7853 54.1275 31.7444 54.2394C31.449 55.0463 31.1828 55.8396 30.9217 56.6176C30.3884 58.2067 29.8765 59.7319 29.182 61.1781C28.1717 63.2818 26.8214 65.0949 24.5803 66.3888C22.6613 67.4967 20.7278 67.4686 18.6341 67.0635C17.8293 66.9078 17.0266 66.7022 16.1939 66.4888C15.9301 66.4212 15.6633 66.3529 15.3924 66.2851C14.2832 66.0075 13.1267 65.7453 11.9442 65.6307C11.2392 65.5624 10.5427 65.5029 9.85633 65.4443C7.29856 65.2259 4.8814 65.0195 2.69019 64.4119C-0.0354488 63.656 -2.31903 62.2979 -3.90739 59.5467C-6.74953 54.624 -8.09681 49.8211 -7.51567 45.564C-6.93991 41.3465 -4.45459 37.5414 0.638689 34.6008Z" fill="#FD8040" stroke="black" stroke-width="1.5"/>
<path d="M0.0702414 31.1805L0.0703026 31.1805C2.57811 29.7321 6.87409 28.2732 11.1725 27.2719C15.4842 26.2676 19.6807 25.7517 22.0033 26.1187C24.1725 26.4614 25.8631 27.5889 27.3717 29.255C28.8914 30.9333 30.2017 33.1297 31.6152 35.578C34.5452 40.6529 32.8148 45.7324 30.9685 51.1523C30.9254 51.2788 30.8822 51.4056 30.839 51.5325C30.5741 52.3112 30.3346 53.0836 30.0986 53.8446C29.6121 55.4131 29.1406 56.9334 28.4926 58.3619C27.5457 60.4492 26.2534 62.2517 24.0713 63.5115C22.1816 64.6025 20.2556 64.529 18.1993 64.0816C17.4116 63.9103 16.623 63.6886 15.8128 63.4608C15.5578 63.3891 15.3007 63.3168 15.0407 63.2453C13.9662 62.9497 12.8574 62.6715 11.7302 62.537C11.0549 62.4564 10.3856 62.3845 9.7243 62.3134C7.24626 62.0469 4.87998 61.7924 2.72897 61.1417C0.0398457 60.3282 -2.2586 58.9068 -3.89185 56.078C-6.75144 51.125 -8.17445 46.2895 -7.68832 42.0168C-7.20558 37.7739 -4.83213 34.0109 0.0702414 31.1805Z" fill="#DCDCE0" stroke="#FD8040"/>
<path d="M7.83539 175.971L7.83537 175.971C7.30702 173.012 7.35681 168.289 7.84113 163.716C8.32768 159.121 9.23495 154.853 10.3333 152.749C11.3474 150.807 12.9229 149.594 14.9559 148.738C17.0148 147.871 19.4958 147.388 22.2832 146.891C27.9283 145.884 32.0637 149.354 36.6092 153.169C36.7003 153.246 36.7915 153.322 36.8828 153.399C37.5411 153.951 38.1966 154.471 38.8394 154.981C40.1524 156.023 41.4125 157.023 42.5363 158.168C44.1709 159.834 45.4167 161.721 45.8712 164.268C46.2604 166.449 45.5764 168.258 44.4833 170.089C44.0632 170.793 43.5968 171.478 43.1129 172.189C42.9597 172.414 42.8046 172.641 42.6488 172.873C42.0105 173.822 41.3706 174.82 40.8607 175.893C40.5566 176.533 40.2638 177.167 39.9752 177.793C38.8999 180.124 37.8837 182.327 36.567 184.181C34.9292 186.487 32.8753 188.172 29.748 188.73C24.152 189.729 19.1772 189.362 15.3716 187.368C11.6013 185.392 8.86838 181.76 7.83539 175.971Z" fill="#FD8040" stroke="black" stroke-width="1.5"/>
<path d="M4.42187 175.337L4.42185 175.337C3.91279 172.486 4.00196 167.95 4.52238 163.567C5.0444 159.171 5.98659 155.049 7.12159 152.99C8.18166 151.067 9.81693 149.86 11.8968 149.008C13.992 148.15 16.5031 147.665 19.2861 147.168C25.055 146.139 29.2432 149.494 33.712 153.074C33.8163 153.157 33.9208 153.241 34.0255 153.325C34.6677 153.839 35.3125 154.327 35.9479 154.807C37.2575 155.798 38.5268 156.759 39.6497 157.854C41.2905 159.454 42.546 161.283 42.9886 163.763C43.3718 165.911 42.6476 167.697 41.5275 169.479C41.0985 170.161 40.6218 170.828 40.132 171.512C39.9779 171.727 39.8224 171.945 39.6668 172.165C39.0233 173.075 38.3846 174.023 37.8747 175.037C37.5693 175.645 37.274 176.25 36.9822 176.847C35.8888 179.087 34.8447 181.226 33.5012 183.027C31.8216 185.279 29.7032 186.957 26.4875 187.531C20.8572 188.535 15.826 188.229 11.9733 186.319C8.1476 184.422 5.41614 180.91 4.42187 175.337Z" fill="#DCDCE0" stroke="#FD8040"/>
<path d="M277.476 76.6394L277.476 76.6395C279.429 77.2916 282.274 78.8796 284.899 80.6928C287.54 82.5181 289.811 84.4714 290.704 85.8031C291.516 87.0134 291.727 88.3219 291.577 89.81C291.424 91.3262 290.902 92.9778 290.277 94.8485C289.047 98.5276 285.647 99.8605 281.765 101.382C281.703 101.407 281.64 101.431 281.578 101.455C281.009 101.679 280.467 101.909 279.938 102.132C278.874 102.584 277.866 103.011 276.806 103.312C275.275 103.748 273.758 103.873 272.107 103.321C270.721 102.858 269.881 101.893 269.14 100.637C268.853 100.153 268.595 99.6487 268.323 99.1184C268.236 98.9489 268.148 98.7768 268.057 98.6018C267.689 97.8944 267.286 97.159 266.79 96.4762C266.497 96.0718 266.204 95.678 265.916 95.2913C264.853 93.8617 263.863 92.5306 263.18 91.1307C262.336 89.4022 262.007 87.6503 262.683 85.6262C263.927 81.9044 265.783 79.0416 268.21 77.4206C270.603 75.8217 273.654 75.3619 277.476 76.6394Z" fill="#FD8040" stroke="black" stroke-width="1.5"/>
<path d="M279.024 74.6869L279.024 74.6869C280.913 75.3179 283.638 76.8719 286.136 78.645C288.645 80.426 290.826 82.3585 291.688 83.7097C292.486 84.9596 292.676 86.3218 292.507 87.8514C292.336 89.3974 291.802 91.0768 291.178 92.9434C289.909 96.7414 286.527 98.1567 282.833 99.703C282.756 99.7355 282.678 99.768 282.6 99.8006C282.064 100.025 281.547 100.259 281.04 100.487C280.004 100.955 279.01 101.403 277.977 101.722C276.474 102.185 274.974 102.337 273.351 101.795C271.965 101.331 271.14 100.333 270.433 99.0704C270.161 98.5857 269.916 98.0787 269.662 97.5529C269.581 97.3864 269.5 97.218 269.416 97.0479C269.074 96.351 268.704 95.637 268.248 94.9783C267.976 94.5857 267.703 94.2015 267.434 93.8229C266.432 92.4117 265.484 91.0778 264.838 89.6723C264.035 87.9238 263.724 86.1126 264.429 84.0034C265.684 80.2485 267.531 77.3129 269.943 75.6225C272.33 73.9493 275.331 73.4525 279.024 74.6869Z" fill="#DCDCE0" stroke="#FD8040"/>
<path d="M259.461 33C259.461 28.886 255.908 25.5 251.461 25.5C247.014 25.5 243.461 28.886 243.461 33C243.461 37.114 247.014 40.5 251.461 40.5C255.908 40.5 259.461 37.114 259.461 33Z" fill="#FD8040" stroke="black"/>
<circle cx="8" cy="8" r="7.5" transform="matrix(1 0 0 -1 242.961 40)" fill="#DCDCE0" stroke="#FD8040"/>
<path d="M65.9554 40.5255C61.8414 40.5386 58.4667 44.1021 58.4809 48.5493C58.495 52.9966 61.8923 56.5385 66.0063 56.5254C70.1203 56.5124 73.4949 52.9489 73.4808 48.5016C73.4667 44.0544 70.0694 40.5124 65.9554 40.5255Z" fill="#FD8040" stroke="black"/>
<circle cx="8" cy="8" r="7.5" transform="matrix(-0.00317902 -0.999995 -0.999995 0.00317902 73 57)" fill="#DCDCE0" stroke="#FD8040"/>
<path d="M21.7334 302.588C15.3034 302.609 10.0575 308.173 10.0794 315.081C10.1014 321.989 15.3825 327.52 21.8126 327.5C28.2427 327.479 33.4886 321.915 33.4666 315.007C33.4447 308.099 28.1635 302.568 21.7334 302.588Z" fill="#FD8040" stroke="black"/>
<circle cx="12.1937" cy="12.1937" r="11.6937" transform="matrix(-0.00317902 -0.999995 -0.999995 0.00317902 32.4688 327.953)" fill="#DCDCE0" stroke="#FD8040"/>
<path d="M45.9554 328.486C41.8414 328.5 38.4667 332.063 38.4809 336.51C38.495 340.958 41.8923 344.499 46.0063 344.486C50.1203 344.473 53.4949 340.91 53.4808 336.463C53.4667 332.015 50.0694 328.473 45.9554 328.486Z" fill="#FD8040" stroke="black"/>
<circle cx="8" cy="8" r="7.5" transform="matrix(-0.00317902 -0.999995 -0.999995 0.00317902 53 344.961)" fill="#DCDCE0" stroke="#FD8040"/>
<path d="M265.955 178.486C261.841 178.5 258.467 182.063 258.481 186.51C258.495 190.958 261.892 194.499 266.006 194.486C270.12 194.473 273.495 190.91 273.481 186.463C273.467 182.015 270.069 178.473 265.955 178.486Z" fill="#FD8040" stroke="black"/>
<circle cx="8" cy="8" r="7.5" transform="matrix(-0.00317902 -0.999995 -0.999995 0.00317902 273 194.961)" fill="#DCDCE0" stroke="#FD8040"/>
<path d="M286.468 123.827C286.468 121.844 284.714 120.17 282.465 120.17C280.215 120.17 278.461 121.844 278.461 123.827C278.461 125.81 280.215 127.484 282.465 127.484C284.714 127.484 286.468 125.81 286.468 123.827Z" fill="#FD8040" stroke="black"/>
<circle cx="4.15714" cy="4.15714" r="3.65714" transform="matrix(1 0 0 -1 277.961 127.297)" fill="#DCDCE0" stroke="#FD8040"/>
</g>
<defs>
<clipPath id="clip0_3582_30652">
<rect width="300" height="349" rx="12" fill="white"/>
</clipPath>
</defs>
</svg>
