<svg width="300" height="353" viewBox="0 0 300 353" fill="none" xmlns="http://www.w3.org/2000/svg">
<g opacity="0.6">
<path d="M0 12C0 5.37258 5.37258 0 12 0H288C294.627 0 300 5.37258 300 12V341C300 347.627 294.627 353 288 353H12C5.37259 353 0 347.627 0 341V12Z" fill="#DCDCE0"/>
</g>
<g filter="url(#filter0_d_4272_24948)">
<path d="M50.3195 303.647C47.7852 299.688 44.2478 295.437 39.7072 290.897L35.3514 286.541C30.8109 282 26.5607 278.463 22.6009 275.929L46.6765 251.853L60.417 262.347C59.361 262.347 58.1599 262.809 56.8135 263.733C55.4672 264.657 53.6853 266.227 51.4678 268.445L45.1717 274.741L46.9536 276.523L51.5074 271.969C53.8305 269.646 55.5332 267.838 56.6156 266.544L60.0606 269.989C58.7934 270.992 56.9719 272.682 54.5961 275.058L50.0423 279.611L51.547 281.116L56.2592 276.404C61.6181 271.045 64.4692 267.006 64.8123 264.287L75.583 278.384L50.3195 303.647ZM93.9169 261.238C91.8842 263.271 89.2311 265.475 85.9577 267.851C82.7106 270.2 79.7936 272.088 77.2065 273.513L65.1687 260.525C68.231 260.367 71.346 259.443 74.5138 257.753C77.6553 256.037 80.5063 253.899 83.067 251.338C86.0501 248.355 87.1324 246.455 86.314 245.636C85.8917 245.214 85.1525 245.372 84.0966 246.111C83.0406 246.798 81.8263 247.801 80.4535 249.121C79.0808 250.441 77.5101 251.774 75.7414 253.12C73.9991 254.44 72.2568 255.575 70.5144 256.526C68.7721 257.476 66.9374 257.885 65.0103 257.753C63.1096 257.595 61.3673 256.724 59.7834 255.14C56.8531 252.21 56.0216 248.659 57.2887 244.488C58.5295 240.291 61.3805 235.961 65.8419 231.5C69.9073 227.434 74.3686 224.187 79.226 221.759L91.2242 233.757C89.1387 234.047 86.7628 234.945 84.0966 236.45C81.4039 237.928 79.0412 239.683 77.0085 241.716C74.0255 244.699 72.9827 246.639 73.8803 247.537C74.5402 248.197 75.6226 248.039 77.1273 247.062C78.632 246.032 80.3215 244.686 82.1958 243.023C84.0702 241.307 86.0369 239.71 88.0959 238.231C90.1286 236.727 92.2801 235.869 94.5504 235.658C96.8207 235.394 98.8534 236.159 100.649 237.954C102.628 239.934 103.566 242.244 103.46 244.884C103.354 247.524 102.47 250.177 100.807 252.843C99.1702 255.483 96.8735 258.281 93.9169 261.238ZM107.213 246.753C105.524 242.107 102.91 236.933 99.373 231.231L96.0468 225.846C92.483 220.117 89.1567 215.656 86.0681 212.462L105.669 192.861C108.863 195.949 113.325 199.275 119.053 202.839L124.439 206.165C130.141 209.703 135.315 212.316 139.961 214.006L126.973 226.994C125.362 225.384 122.921 223.391 119.647 221.015L119.172 220.698L113.905 225.964L114.262 226.479C116.638 229.753 118.618 232.181 120.202 233.765L107.213 246.753ZM110.777 221.569L114.777 217.57L111.292 215.748C110.051 215.088 108.071 213.715 105.352 211.63L104.798 212.184C107.015 215.088 108.401 217.055 108.956 218.084L110.777 221.569ZM154.788 200.367C150.459 204.696 146.024 207.125 141.483 207.653C136.916 208.154 132.468 206.24 128.139 201.911L124.06 197.832C119.335 193.107 115.085 189.569 111.31 187.22L124.298 174.232C126.647 178.007 130.185 182.257 134.91 186.982L135.821 187.893C139.041 191.114 141.747 191.629 143.938 189.437C146.156 187.22 145.654 184.501 142.434 181.28L141.523 180.37C136.798 175.644 132.547 172.107 128.772 169.757L141.76 156.769C144.11 160.544 147.647 164.794 152.373 169.52L156.451 173.598C160.543 177.69 162.444 182.019 162.153 186.586C161.889 191.127 159.434 195.72 154.788 200.367ZM198.442 156.713C196.937 158.218 195.327 159.194 193.611 159.643C191.895 160.092 190.324 160.105 188.899 159.683C187.447 159.234 185.955 158.693 184.424 158.059C182.893 157.373 181.52 156.713 180.306 156.079C179.065 155.419 177.825 155.076 176.584 155.05C175.369 154.997 174.34 155.393 173.495 156.238C173.284 156.449 173.099 156.739 172.941 157.109L173.218 157.386C177.943 162.111 182.194 165.649 185.969 167.998L172.98 180.986C170.631 177.211 167.094 172.961 162.368 168.236L158.012 163.88C153.287 159.155 149.037 155.617 145.262 153.268L163.16 135.37C166.513 132.017 169.852 129.892 173.178 128.994C176.505 128.044 179.342 128.743 181.692 131.093C184.094 133.495 184.847 136.333 183.949 139.607C183.051 142.827 180.94 146.101 177.613 149.427L177.495 149.546L177.732 149.783L177.772 149.744C178.247 149.268 179.303 148.608 180.94 147.764C182.55 146.893 183.817 145.995 184.741 145.071C186.325 143.487 187.209 141.705 187.394 139.725C187.579 137.745 187.236 135.739 186.365 133.706L200.699 148.041C201.201 149.282 201.227 150.76 200.778 152.476C200.356 154.165 199.577 155.578 198.442 156.713ZM170.723 154.891L174.723 150.892C176.307 149.308 176.544 147.962 175.435 146.853C174.327 145.744 172.98 145.982 171.396 147.566L167.397 151.565L170.723 154.891ZM205.734 148.233C203.384 144.458 199.847 140.208 195.122 135.482L190.766 131.127C186.04 126.401 181.79 122.864 178.015 120.514L191.003 107.526C193.353 111.301 196.89 115.551 201.616 120.277L205.971 124.633C210.697 129.358 214.947 132.895 218.722 135.245L205.734 148.233ZM228.741 125.226C226.391 121.451 222.854 117.201 218.129 112.475L213.02 107.367L210.169 110.218C207.952 112.436 206.513 114.93 205.853 117.702L195.122 103.407L219.594 78.9359L233.889 89.667C231.117 90.327 228.635 91.7525 226.444 93.9436L223.87 96.5174L228.978 101.626C233.704 106.351 237.954 109.888 241.729 112.238L228.741 125.226ZM246.232 107.735C244.542 103.089 241.929 97.9148 238.391 92.2127L235.065 86.8274C231.501 81.0989 228.175 76.6375 225.086 73.4433L244.687 53.8423C247.882 56.9309 252.343 60.2571 258.072 63.821L263.457 67.1472C269.159 70.6846 274.333 73.2981 278.979 74.9876L265.991 87.9757C264.381 86.3654 261.939 84.3723 258.665 81.9964L258.19 81.6796L252.924 86.9462L253.28 87.4609C255.656 90.7344 257.636 93.1631 259.22 94.747L246.232 107.735ZM249.796 82.5508L253.795 78.5514L250.31 76.7299C249.07 76.0699 247.09 74.6972 244.371 72.6117L243.816 73.1661C246.034 76.0699 247.42 78.0366 247.974 79.0662L249.796 82.5508Z" fill="#FD8040"/>
</g>
<defs>
<filter id="filter0_d_4272_24948" x="22.0068" y="46.6748" width="259.566" height="259.566" filterUnits="userSpaceOnUse" color-interpolation-filters="sRGB">
<feFlood flood-opacity="0" result="BackgroundImageFix"/>
<feColorMatrix in="SourceAlpha" type="matrix" values="0 0 0 0 0 0 0 0 0 0 0 0 0 0 0 0 0 0 127 0" result="hardAlpha"/>
<feOffset dx="2" dy="2"/>
<feComposite in2="hardAlpha" operator="out"/>
<feColorMatrix type="matrix" values="0 0 0 0 0 0 0 0 0 0 0 0 0 0 0 0 0 0 1 0"/>
<feBlend mode="normal" in2="BackgroundImageFix" result="effect1_dropShadow_4272_24948"/>
<feBlend mode="normal" in="SourceGraphic" in2="effect1_dropShadow_4272_24948" result="shape"/>
</filter>
</defs>
</svg>
